G04 #@! TF.GenerationSoftware,KiCad,Pcbnew,(5.0.2)-1*
G04 #@! TF.CreationDate,2019-01-20T10:13:28-05:00*
G04 #@! TF.ProjectId,motorDriverCard,6d6f746f-7244-4726-9976-657243617264,rev?*
G04 #@! TF.SameCoordinates,Original*
G04 #@! TF.FileFunction,Copper,L6,Bot*
G04 #@! TF.FilePolarity,Positive*
%FSLAX46Y46*%
G04 Gerber Fmt 4.6, Leading zero omitted, Abs format (unit mm)*
G04 Created by KiCad (PCBNEW (5.0.2)-1) date 1/20/2019 10:13:28 AM*
%MOMM*%
%LPD*%
G01*
G04 APERTURE LIST*
G04 #@! TA.AperFunction,ComponentPad*
%ADD10C,1.900000*%
G04 #@! TD*
G04 #@! TA.AperFunction,ComponentPad*
%ADD11C,2.000000*%
G04 #@! TD*
G04 #@! TA.AperFunction,SMDPad,CuDef*
%ADD12R,1.600000X3.500000*%
G04 #@! TD*
G04 #@! TA.AperFunction,Conductor*
%ADD13C,0.100000*%
G04 #@! TD*
G04 #@! TA.AperFunction,SMDPad,CuDef*
%ADD14C,1.425000*%
G04 #@! TD*
G04 #@! TA.AperFunction,ComponentPad*
%ADD15O,6.230000X2.270000*%
G04 #@! TD*
G04 #@! TA.AperFunction,ComponentPad*
%ADD16C,2.020000*%
G04 #@! TD*
G04 #@! TA.AperFunction,ViaPad*
%ADD17C,0.800000*%
G04 #@! TD*
G04 #@! TA.AperFunction,Conductor*
%ADD18C,0.250000*%
G04 #@! TD*
G04 APERTURE END LIST*
D10*
G04 #@! TO.P,Encoder1,1*
G04 #@! TO.N,+5V*
X9458000Y-25400000D03*
G04 #@! TO.P,Encoder1,2*
G04 #@! TO.N,GND*
X11958000Y-25400000D03*
G04 #@! TO.P,Encoder1,3*
G04 #@! TO.N,Motor1EncoderA*
X14458000Y-25400000D03*
G04 #@! TO.P,Encoder1,4*
G04 #@! TO.N,Motor1EncoderB*
X16958000Y-25400000D03*
G04 #@! TD*
D11*
G04 #@! TO.P,SPI1,1*
G04 #@! TO.N,mcuSO*
X8890000Y-7747000D03*
G04 #@! TO.P,SPI1,2*
G04 #@! TO.N,mcuSI*
X11430000Y-7747000D03*
G04 #@! TO.P,SPI1,3*
G04 #@! TO.N,CSN*
X13970000Y-7747000D03*
G04 #@! TO.P,SPI1,4*
G04 #@! TO.N,SCK*
X16510000Y-7747000D03*
G04 #@! TD*
D12*
G04 #@! TO.P,C1,1*
G04 #@! TO.N,+15V*
X4064000Y-20060000D03*
G04 #@! TO.P,C1,2*
G04 #@! TO.N,GND*
X4064000Y-25660000D03*
G04 #@! TD*
D13*
G04 #@! TO.N,+15V*
G04 #@! TO.C,C3*
G36*
X5221504Y-13984204D02*
X5245773Y-13987804D01*
X5269571Y-13993765D01*
X5292671Y-14002030D01*
X5314849Y-14012520D01*
X5335893Y-14025133D01*
X5355598Y-14039747D01*
X5373777Y-14056223D01*
X5390253Y-14074402D01*
X5404867Y-14094107D01*
X5417480Y-14115151D01*
X5427970Y-14137329D01*
X5436235Y-14160429D01*
X5442196Y-14184227D01*
X5445796Y-14208496D01*
X5447000Y-14233000D01*
X5447000Y-15158000D01*
X5445796Y-15182504D01*
X5442196Y-15206773D01*
X5436235Y-15230571D01*
X5427970Y-15253671D01*
X5417480Y-15275849D01*
X5404867Y-15296893D01*
X5390253Y-15316598D01*
X5373777Y-15334777D01*
X5355598Y-15351253D01*
X5335893Y-15365867D01*
X5314849Y-15378480D01*
X5292671Y-15388970D01*
X5269571Y-15397235D01*
X5245773Y-15403196D01*
X5221504Y-15406796D01*
X5197000Y-15408000D01*
X3947000Y-15408000D01*
X3922496Y-15406796D01*
X3898227Y-15403196D01*
X3874429Y-15397235D01*
X3851329Y-15388970D01*
X3829151Y-15378480D01*
X3808107Y-15365867D01*
X3788402Y-15351253D01*
X3770223Y-15334777D01*
X3753747Y-15316598D01*
X3739133Y-15296893D01*
X3726520Y-15275849D01*
X3716030Y-15253671D01*
X3707765Y-15230571D01*
X3701804Y-15206773D01*
X3698204Y-15182504D01*
X3697000Y-15158000D01*
X3697000Y-14233000D01*
X3698204Y-14208496D01*
X3701804Y-14184227D01*
X3707765Y-14160429D01*
X3716030Y-14137329D01*
X3726520Y-14115151D01*
X3739133Y-14094107D01*
X3753747Y-14074402D01*
X3770223Y-14056223D01*
X3788402Y-14039747D01*
X3808107Y-14025133D01*
X3829151Y-14012520D01*
X3851329Y-14002030D01*
X3874429Y-13993765D01*
X3898227Y-13987804D01*
X3922496Y-13984204D01*
X3947000Y-13983000D01*
X5197000Y-13983000D01*
X5221504Y-13984204D01*
X5221504Y-13984204D01*
G37*
D14*
G04 #@! TD*
G04 #@! TO.P,C3,1*
G04 #@! TO.N,+15V*
X4572000Y-14695500D03*
D13*
G04 #@! TO.N,GND*
G04 #@! TO.C,C3*
G36*
X5221504Y-11009204D02*
X5245773Y-11012804D01*
X5269571Y-11018765D01*
X5292671Y-11027030D01*
X5314849Y-11037520D01*
X5335893Y-11050133D01*
X5355598Y-11064747D01*
X5373777Y-11081223D01*
X5390253Y-11099402D01*
X5404867Y-11119107D01*
X5417480Y-11140151D01*
X5427970Y-11162329D01*
X5436235Y-11185429D01*
X5442196Y-11209227D01*
X5445796Y-11233496D01*
X5447000Y-11258000D01*
X5447000Y-12183000D01*
X5445796Y-12207504D01*
X5442196Y-12231773D01*
X5436235Y-12255571D01*
X5427970Y-12278671D01*
X5417480Y-12300849D01*
X5404867Y-12321893D01*
X5390253Y-12341598D01*
X5373777Y-12359777D01*
X5355598Y-12376253D01*
X5335893Y-12390867D01*
X5314849Y-12403480D01*
X5292671Y-12413970D01*
X5269571Y-12422235D01*
X5245773Y-12428196D01*
X5221504Y-12431796D01*
X5197000Y-12433000D01*
X3947000Y-12433000D01*
X3922496Y-12431796D01*
X3898227Y-12428196D01*
X3874429Y-12422235D01*
X3851329Y-12413970D01*
X3829151Y-12403480D01*
X3808107Y-12390867D01*
X3788402Y-12376253D01*
X3770223Y-12359777D01*
X3753747Y-12341598D01*
X3739133Y-12321893D01*
X3726520Y-12300849D01*
X3716030Y-12278671D01*
X3707765Y-12255571D01*
X3701804Y-12231773D01*
X3698204Y-12207504D01*
X3697000Y-12183000D01*
X3697000Y-11258000D01*
X3698204Y-11233496D01*
X3701804Y-11209227D01*
X3707765Y-11185429D01*
X3716030Y-11162329D01*
X3726520Y-11140151D01*
X3739133Y-11119107D01*
X3753747Y-11099402D01*
X3770223Y-11081223D01*
X3788402Y-11064747D01*
X3808107Y-11050133D01*
X3829151Y-11037520D01*
X3851329Y-11027030D01*
X3874429Y-11018765D01*
X3898227Y-11012804D01*
X3922496Y-11009204D01*
X3947000Y-11008000D01*
X5197000Y-11008000D01*
X5221504Y-11009204D01*
X5221504Y-11009204D01*
G37*
D14*
G04 #@! TD*
G04 #@! TO.P,C3,2*
G04 #@! TO.N,GND*
X4572000Y-11720500D03*
D15*
G04 #@! TO.P,MotorOut1,1*
G04 #@! TO.N,motorControlOut1*
X5080000Y-2540000D03*
G04 #@! TD*
G04 #@! TO.P,MotorGnd1,1*
G04 #@! TO.N,motorGnd1*
X20320000Y-2540000D03*
G04 #@! TD*
D16*
G04 #@! TO.P,CardConnector1,1*
G04 #@! TO.N,sda*
X20320000Y-34290000D03*
G04 #@! TO.P,CardConnector1,2*
G04 #@! TO.N,scl*
X20320000Y-31750000D03*
G04 #@! TO.P,CardConnector1,3*
G04 #@! TO.N,+3V3*
X17780000Y-34290000D03*
G04 #@! TO.P,CardConnector1,4*
G04 #@! TO.N,+5V*
X17780000Y-31750000D03*
G04 #@! TO.P,CardConnector1,5*
G04 #@! TO.N,+15V*
X15240000Y-34290000D03*
G04 #@! TO.P,CardConnector1,6*
X15240000Y-31750000D03*
G04 #@! TO.P,CardConnector1,7*
G04 #@! TO.N,GND*
X12700000Y-34290000D03*
G04 #@! TO.P,CardConnector1,8*
G04 #@! TO.N,Motor1EncoderB_3v3*
X12700000Y-31750000D03*
G04 #@! TO.P,CardConnector1,9*
G04 #@! TO.N,GND*
X10160000Y-34290000D03*
G04 #@! TO.P,CardConnector1,10*
G04 #@! TO.N,Motor1EncoderA_3v3*
X10160000Y-31750000D03*
G04 #@! TO.P,CardConnector1,11*
G04 #@! TO.N,motorDir1*
X7620000Y-34290000D03*
G04 #@! TO.P,CardConnector1,12*
G04 #@! TO.N,Motor1EncoderA*
X7620000Y-31750000D03*
G04 #@! TO.P,CardConnector1,13*
G04 #@! TO.N,motorPwm1*
X5080000Y-34290000D03*
G04 #@! TO.P,CardConnector1,14*
G04 #@! TO.N,Motor1EncoderB*
X5080000Y-31750000D03*
G04 #@! TD*
D17*
G04 #@! TO.N,+5V*
X13081000Y-21590000D03*
G04 #@! TO.N,GND*
X9271000Y-17018000D03*
X14351000Y-16510000D03*
X11049000Y-16383000D03*
X14351000Y-12446000D03*
X11049000Y-12446000D03*
X12700000Y-14478000D03*
X12700000Y-17780000D03*
X12700000Y-11176000D03*
X4064000Y-28194000D03*
X4064000Y-26924000D03*
X4064000Y-25654000D03*
X16383000Y-22860000D03*
X4572000Y-11684000D03*
X17945100Y-12966700D03*
X7747000Y-19431000D03*
X7747000Y-18288000D03*
X7747000Y-18288000D03*
X7747000Y-18288000D03*
X4572000Y-10287000D03*
X4572000Y-8890000D03*
G04 #@! TO.N,+3V3*
X13081000Y-19304000D03*
X16256000Y-19939000D03*
X9652000Y-12992100D03*
G04 #@! TO.N,motorDir1*
X7747000Y-10922000D03*
G04 #@! TO.N,motorPwm1*
X17919700Y-11963400D03*
G04 #@! TO.N,mcuSO*
X9652000Y-14351000D03*
G04 #@! TO.N,mcuSI*
X19050000Y-16002000D03*
G04 #@! TO.N,CSN*
X19050000Y-14986000D03*
G04 #@! TO.N,SCK*
X17919700Y-13982700D03*
G04 #@! TO.N,+15V*
X4064000Y-22606000D03*
X4064000Y-20060000D03*
X4064000Y-18796000D03*
X4699000Y-14351000D03*
X4699000Y-15875000D03*
X3175000Y-14351000D03*
X3175000Y-15875000D03*
G04 #@! TD*
D18*
G04 #@! TO.N,Motor1EncoderB*
X6089999Y-30740001D02*
X5080000Y-31750000D01*
X6415001Y-30414999D02*
X6089999Y-30740001D01*
X7620000Y-29210000D02*
X13148000Y-29210000D01*
X6089999Y-30740001D02*
X7620000Y-29210000D01*
X16958000Y-25400000D02*
X13148000Y-29210000D01*
G04 #@! TO.N,motorDir1*
X6742599Y-18839189D02*
X6742599Y-27443599D01*
X6742599Y-12492086D02*
X6742599Y-13208000D01*
X7747000Y-11487685D02*
X6742599Y-12492086D01*
X7747000Y-10922000D02*
X7747000Y-11487685D01*
X6742599Y-12650301D02*
X6742599Y-13208000D01*
X6742599Y-13208000D02*
X6742599Y-18839189D01*
X3429000Y-30788788D02*
X6742599Y-27475189D01*
X2667000Y-31550788D02*
X3429000Y-30788788D01*
X2667000Y-35687000D02*
X2667000Y-31550788D01*
X3810000Y-36830000D02*
X2667000Y-35687000D01*
X5080000Y-36830000D02*
X3810000Y-36830000D01*
X7620000Y-34290000D02*
X5080000Y-36830000D01*
G04 #@! TO.N,motorPwm1*
X17919700Y-11963400D02*
X18014802Y-11963400D01*
G04 #@! TO.N,mcuSO*
X8890000Y-13589000D02*
X9652000Y-14351000D01*
X8890000Y-7747000D02*
X8890000Y-13589000D01*
G04 #@! TO.N,mcuSI*
X16764000Y-16002000D02*
X19050000Y-16002000D01*
X15494000Y-14732000D02*
X16764000Y-16002000D01*
X15494000Y-10795000D02*
X15494000Y-14732000D01*
X14478000Y-9779000D02*
X15494000Y-10795000D01*
X11430000Y-7747000D02*
X13462000Y-9779000D01*
X13462000Y-9779000D02*
X14478000Y-9779000D01*
G04 #@! TO.N,CSN*
X16002000Y-13608585D02*
X17379415Y-14986000D01*
X16002000Y-9779000D02*
X16002000Y-13608585D01*
X13970000Y-7747000D02*
X16002000Y-9779000D01*
X17653000Y-14986000D02*
X19050000Y-14986000D01*
X17653000Y-14986000D02*
X17945100Y-14986000D01*
X17379415Y-14986000D02*
X17653000Y-14986000D01*
G04 #@! TO.N,SCK*
X16510000Y-12573000D02*
X17919700Y-13982700D01*
X16510000Y-7747000D02*
X16510000Y-12573000D01*
G04 #@! TD*
M02*
