G04 #@! TF.GenerationSoftware,KiCad,Pcbnew,(5.0.2)-1*
G04 #@! TF.CreationDate,2019-01-20T10:13:28-05:00*
G04 #@! TF.ProjectId,motorDriverCard,6d6f746f-7244-4726-9976-657243617264,rev?*
G04 #@! TF.SameCoordinates,Original*
G04 #@! TF.FileFunction,Copper,L5,Inr*
G04 #@! TF.FilePolarity,Positive*
%FSLAX46Y46*%
G04 Gerber Fmt 4.6, Leading zero omitted, Abs format (unit mm)*
G04 Created by KiCad (PCBNEW (5.0.2)-1) date 1/20/2019 10:13:28 AM*
%MOMM*%
%LPD*%
G01*
G04 APERTURE LIST*
G04 #@! TA.AperFunction,ViaPad*
%ADD10C,1.900000*%
G04 #@! TD*
G04 #@! TA.AperFunction,ViaPad*
%ADD11C,2.000000*%
G04 #@! TD*
G04 #@! TA.AperFunction,ViaPad*
%ADD12O,6.230000X2.270000*%
G04 #@! TD*
G04 #@! TA.AperFunction,ViaPad*
%ADD13C,2.020000*%
G04 #@! TD*
G04 #@! TA.AperFunction,ViaPad*
%ADD14C,0.800000*%
G04 #@! TD*
G04 #@! TA.AperFunction,Conductor*
%ADD15C,0.254000*%
G04 #@! TD*
G04 APERTURE END LIST*
D10*
G04 #@! TO.N,+5V*
G04 #@! TO.C,Encoder1*
X9458000Y-25400000D03*
G04 #@! TO.N,GND*
X11958000Y-25400000D03*
G04 #@! TO.N,Motor1EncoderA*
X14458000Y-25400000D03*
G04 #@! TO.N,Motor1EncoderB*
X16958000Y-25400000D03*
G04 #@! TD*
D11*
G04 #@! TO.N,mcuSO*
G04 #@! TO.C,SPI1*
X8890000Y-7747000D03*
G04 #@! TO.N,mcuSI*
X11430000Y-7747000D03*
G04 #@! TO.N,CSN*
X13970000Y-7747000D03*
G04 #@! TO.N,SCK*
X16510000Y-7747000D03*
G04 #@! TD*
D12*
G04 #@! TO.N,motorControlOut1*
G04 #@! TO.C,MotorOut1*
X5080000Y-2540000D03*
G04 #@! TD*
G04 #@! TO.N,motorGnd1*
G04 #@! TO.C,MotorGnd1*
X20320000Y-2540000D03*
G04 #@! TD*
D13*
G04 #@! TO.N,sda*
G04 #@! TO.C,CardConnector1*
X20320000Y-34290000D03*
G04 #@! TO.N,scl*
X20320000Y-31750000D03*
G04 #@! TO.N,+3V3*
X17780000Y-34290000D03*
G04 #@! TO.N,+5V*
X17780000Y-31750000D03*
G04 #@! TO.N,+15V*
X15240000Y-34290000D03*
X15240000Y-31750000D03*
G04 #@! TO.N,GND*
X12700000Y-34290000D03*
G04 #@! TO.N,Motor1EncoderB_3v3*
X12700000Y-31750000D03*
G04 #@! TO.N,GND*
X10160000Y-34290000D03*
G04 #@! TO.N,Motor1EncoderA_3v3*
X10160000Y-31750000D03*
G04 #@! TO.N,motorDir1*
X7620000Y-34290000D03*
G04 #@! TO.N,Motor1EncoderA*
X7620000Y-31750000D03*
G04 #@! TO.N,motorPwm1*
X5080000Y-34290000D03*
G04 #@! TO.N,Motor1EncoderB*
X5080000Y-31750000D03*
G04 #@! TD*
D14*
G04 #@! TO.N,+5V*
X13081000Y-21590000D03*
G04 #@! TO.N,GND*
X9271000Y-17018000D03*
X14351000Y-16510000D03*
X11049000Y-16383000D03*
X14351000Y-12446000D03*
X11049000Y-12446000D03*
X12700000Y-14478000D03*
X12700000Y-17780000D03*
X12700000Y-11176000D03*
X4064000Y-28194000D03*
X4064000Y-26924000D03*
X4064000Y-25654000D03*
X16383000Y-22860000D03*
X4572000Y-11684000D03*
X17945100Y-12966700D03*
X7747000Y-19431000D03*
X7747000Y-18288000D03*
X7747000Y-18288000D03*
X7747000Y-18288000D03*
X4572000Y-10287000D03*
X4572000Y-8890000D03*
G04 #@! TO.N,+3V3*
X13081000Y-19304000D03*
X16256000Y-19939000D03*
X9652000Y-12992100D03*
G04 #@! TO.N,motorDir1*
X7747000Y-10922000D03*
G04 #@! TO.N,motorPwm1*
X17919700Y-11963400D03*
G04 #@! TO.N,mcuSO*
X9652000Y-14351000D03*
G04 #@! TO.N,mcuSI*
X19050000Y-16002000D03*
G04 #@! TO.N,CSN*
X19050000Y-14986000D03*
G04 #@! TO.N,SCK*
X17919700Y-13982700D03*
G04 #@! TO.N,+15V*
X4064000Y-22606000D03*
X4064000Y-20060000D03*
X4064000Y-18796000D03*
X4699000Y-14351000D03*
X4699000Y-15875000D03*
X3175000Y-14351000D03*
X3175000Y-15875000D03*
G04 #@! TD*
D15*
G04 #@! TO.N,+5V*
G36*
X24690001Y-25330074D02*
X24690000Y-37390000D01*
X710000Y-37390000D01*
X710000Y-31422789D01*
X3435000Y-31422789D01*
X3435000Y-32077211D01*
X3685437Y-32681817D01*
X4023620Y-33020000D01*
X3685437Y-33358183D01*
X3435000Y-33962789D01*
X3435000Y-34617211D01*
X3685437Y-35221817D01*
X4148183Y-35684563D01*
X4752789Y-35935000D01*
X5407211Y-35935000D01*
X6011817Y-35684563D01*
X6350000Y-35346380D01*
X6688183Y-35684563D01*
X7292789Y-35935000D01*
X7947211Y-35935000D01*
X8551817Y-35684563D01*
X8890000Y-35346380D01*
X9228183Y-35684563D01*
X9832789Y-35935000D01*
X10487211Y-35935000D01*
X11091817Y-35684563D01*
X11430000Y-35346380D01*
X11768183Y-35684563D01*
X12372789Y-35935000D01*
X13027211Y-35935000D01*
X13631817Y-35684563D01*
X13970000Y-35346380D01*
X14308183Y-35684563D01*
X14912789Y-35935000D01*
X15567211Y-35935000D01*
X16171817Y-35684563D01*
X16510000Y-35346380D01*
X16848183Y-35684563D01*
X17452789Y-35935000D01*
X18107211Y-35935000D01*
X18711817Y-35684563D01*
X19050000Y-35346380D01*
X19388183Y-35684563D01*
X19992789Y-35935000D01*
X20647211Y-35935000D01*
X21251817Y-35684563D01*
X21714563Y-35221817D01*
X21965000Y-34617211D01*
X21965000Y-33962789D01*
X21714563Y-33358183D01*
X21376380Y-33020000D01*
X21714563Y-32681817D01*
X21965000Y-32077211D01*
X21965000Y-31422789D01*
X21714563Y-30818183D01*
X21251817Y-30355437D01*
X20647211Y-30105000D01*
X19992789Y-30105000D01*
X19388183Y-30355437D01*
X18964543Y-30779077D01*
X18939766Y-30769839D01*
X17959605Y-31750000D01*
X18939766Y-32730161D01*
X18964543Y-32720923D01*
X19263620Y-33020000D01*
X19050000Y-33233620D01*
X18750923Y-32934543D01*
X18760161Y-32909766D01*
X17780000Y-31929605D01*
X16799839Y-32909766D01*
X16809077Y-32934543D01*
X16510000Y-33233620D01*
X16296380Y-33020000D01*
X16595457Y-32720923D01*
X16620234Y-32730161D01*
X17600395Y-31750000D01*
X16620234Y-30769839D01*
X16595457Y-30779077D01*
X16406614Y-30590234D01*
X16799839Y-30590234D01*
X17780000Y-31570395D01*
X18760161Y-30590234D01*
X18660274Y-30322342D01*
X18046926Y-30094149D01*
X17392941Y-30118044D01*
X16899726Y-30322342D01*
X16799839Y-30590234D01*
X16406614Y-30590234D01*
X16171817Y-30355437D01*
X15567211Y-30105000D01*
X14912789Y-30105000D01*
X14308183Y-30355437D01*
X13970000Y-30693620D01*
X13631817Y-30355437D01*
X13027211Y-30105000D01*
X12372789Y-30105000D01*
X11768183Y-30355437D01*
X11430000Y-30693620D01*
X11091817Y-30355437D01*
X10487211Y-30105000D01*
X9832789Y-30105000D01*
X9228183Y-30355437D01*
X8890000Y-30693620D01*
X8551817Y-30355437D01*
X7947211Y-30105000D01*
X7292789Y-30105000D01*
X6688183Y-30355437D01*
X6350000Y-30693620D01*
X6011817Y-30355437D01*
X5407211Y-30105000D01*
X4752789Y-30105000D01*
X4148183Y-30355437D01*
X3685437Y-30818183D01*
X3435000Y-31422789D01*
X710000Y-31422789D01*
X710000Y-25448126D01*
X3029000Y-25448126D01*
X3029000Y-25859874D01*
X3186569Y-26240280D01*
X3235289Y-26289000D01*
X3186569Y-26337720D01*
X3029000Y-26718126D01*
X3029000Y-27129874D01*
X3186569Y-27510280D01*
X3235289Y-27559000D01*
X3186569Y-27607720D01*
X3029000Y-27988126D01*
X3029000Y-28399874D01*
X3186569Y-28780280D01*
X3477720Y-29071431D01*
X3858126Y-29229000D01*
X4269874Y-29229000D01*
X4650280Y-29071431D01*
X4941431Y-28780280D01*
X5099000Y-28399874D01*
X5099000Y-27988126D01*
X4941431Y-27607720D01*
X4892711Y-27559000D01*
X4941431Y-27510280D01*
X5099000Y-27129874D01*
X5099000Y-26718126D01*
X5015422Y-26516350D01*
X8521255Y-26516350D01*
X8613792Y-26778019D01*
X9205398Y-26996188D01*
X9835461Y-26971352D01*
X10302208Y-26778019D01*
X10394745Y-26516350D01*
X9458000Y-25579605D01*
X8521255Y-26516350D01*
X5015422Y-26516350D01*
X4941431Y-26337720D01*
X4892711Y-26289000D01*
X4941431Y-26240280D01*
X5099000Y-25859874D01*
X5099000Y-25448126D01*
X4974435Y-25147398D01*
X7861812Y-25147398D01*
X7886648Y-25777461D01*
X8079981Y-26244208D01*
X8341650Y-26336745D01*
X9278395Y-25400000D01*
X9637605Y-25400000D01*
X10574350Y-26336745D01*
X10632613Y-26316141D01*
X11060170Y-26743698D01*
X11642724Y-26985000D01*
X12273276Y-26985000D01*
X12855830Y-26743698D01*
X13208000Y-26391528D01*
X13560170Y-26743698D01*
X14142724Y-26985000D01*
X14773276Y-26985000D01*
X15355830Y-26743698D01*
X15708000Y-26391528D01*
X16060170Y-26743698D01*
X16642724Y-26985000D01*
X17273276Y-26985000D01*
X17855830Y-26743698D01*
X18301698Y-26297830D01*
X18543000Y-25715276D01*
X18543000Y-25084724D01*
X18301698Y-24502170D01*
X17855830Y-24056302D01*
X17273276Y-23815000D01*
X16782011Y-23815000D01*
X16969280Y-23737431D01*
X17260431Y-23446280D01*
X17418000Y-23065874D01*
X17418000Y-22654126D01*
X17260431Y-22273720D01*
X16969280Y-21982569D01*
X16588874Y-21825000D01*
X16177126Y-21825000D01*
X15796720Y-21982569D01*
X15505569Y-22273720D01*
X15348000Y-22654126D01*
X15348000Y-23065874D01*
X15505569Y-23446280D01*
X15796720Y-23737431D01*
X16177126Y-23895000D01*
X16449587Y-23895000D01*
X16060170Y-24056302D01*
X15708000Y-24408472D01*
X15355830Y-24056302D01*
X14773276Y-23815000D01*
X14142724Y-23815000D01*
X13560170Y-24056302D01*
X13208000Y-24408472D01*
X12855830Y-24056302D01*
X12273276Y-23815000D01*
X11642724Y-23815000D01*
X11060170Y-24056302D01*
X10632613Y-24483859D01*
X10574350Y-24463255D01*
X9637605Y-25400000D01*
X9278395Y-25400000D01*
X8341650Y-24463255D01*
X8079981Y-24555792D01*
X7861812Y-25147398D01*
X4974435Y-25147398D01*
X4941431Y-25067720D01*
X4650280Y-24776569D01*
X4269874Y-24619000D01*
X3858126Y-24619000D01*
X3477720Y-24776569D01*
X3186569Y-25067720D01*
X3029000Y-25448126D01*
X710000Y-25448126D01*
X710000Y-24283650D01*
X8521255Y-24283650D01*
X9458000Y-25220395D01*
X10394745Y-24283650D01*
X10302208Y-24021981D01*
X9710602Y-23803812D01*
X9080539Y-23828648D01*
X8613792Y-24021981D01*
X8521255Y-24283650D01*
X710000Y-24283650D01*
X710000Y-22400126D01*
X3029000Y-22400126D01*
X3029000Y-22811874D01*
X3186569Y-23192280D01*
X3477720Y-23483431D01*
X3858126Y-23641000D01*
X4269874Y-23641000D01*
X4650280Y-23483431D01*
X4941431Y-23192280D01*
X5099000Y-22811874D01*
X5099000Y-22400126D01*
X4941431Y-22019720D01*
X4650280Y-21728569D01*
X4269874Y-21571000D01*
X3858126Y-21571000D01*
X3477720Y-21728569D01*
X3186569Y-22019720D01*
X3029000Y-22400126D01*
X710000Y-22400126D01*
X710000Y-18590126D01*
X3029000Y-18590126D01*
X3029000Y-19001874D01*
X3186569Y-19382280D01*
X3232289Y-19428000D01*
X3186569Y-19473720D01*
X3029000Y-19854126D01*
X3029000Y-20265874D01*
X3186569Y-20646280D01*
X3477720Y-20937431D01*
X3858126Y-21095000D01*
X4269874Y-21095000D01*
X4650280Y-20937431D01*
X4941431Y-20646280D01*
X5099000Y-20265874D01*
X5099000Y-19854126D01*
X4941431Y-19473720D01*
X4895711Y-19428000D01*
X4941431Y-19382280D01*
X5099000Y-19001874D01*
X5099000Y-18590126D01*
X4941431Y-18209720D01*
X4813837Y-18082126D01*
X6712000Y-18082126D01*
X6712000Y-18493874D01*
X6863447Y-18859500D01*
X6712000Y-19225126D01*
X6712000Y-19636874D01*
X6869569Y-20017280D01*
X7160720Y-20308431D01*
X7541126Y-20466000D01*
X7952874Y-20466000D01*
X8333280Y-20308431D01*
X8624431Y-20017280D01*
X8782000Y-19636874D01*
X8782000Y-19225126D01*
X8630553Y-18859500D01*
X8782000Y-18493874D01*
X8782000Y-18082126D01*
X8708800Y-17905405D01*
X9065126Y-18053000D01*
X9476874Y-18053000D01*
X9857280Y-17895431D01*
X10148431Y-17604280D01*
X10160921Y-17574126D01*
X11665000Y-17574126D01*
X11665000Y-17985874D01*
X11822569Y-18366280D01*
X12113720Y-18657431D01*
X12219884Y-18701405D01*
X12203569Y-18717720D01*
X12046000Y-19098126D01*
X12046000Y-19509874D01*
X12203569Y-19890280D01*
X12494720Y-20181431D01*
X12875126Y-20339000D01*
X13286874Y-20339000D01*
X13667280Y-20181431D01*
X13958431Y-19890280D01*
X14023526Y-19733126D01*
X15221000Y-19733126D01*
X15221000Y-20144874D01*
X15378569Y-20525280D01*
X15669720Y-20816431D01*
X16050126Y-20974000D01*
X16461874Y-20974000D01*
X16842280Y-20816431D01*
X17133431Y-20525280D01*
X17291000Y-20144874D01*
X17291000Y-19733126D01*
X17133431Y-19352720D01*
X16842280Y-19061569D01*
X16461874Y-18904000D01*
X16050126Y-18904000D01*
X15669720Y-19061569D01*
X15378569Y-19352720D01*
X15221000Y-19733126D01*
X14023526Y-19733126D01*
X14116000Y-19509874D01*
X14116000Y-19098126D01*
X13958431Y-18717720D01*
X13667280Y-18426569D01*
X13561116Y-18382595D01*
X13577431Y-18366280D01*
X13735000Y-17985874D01*
X13735000Y-17574126D01*
X13581972Y-17204683D01*
X13764720Y-17387431D01*
X14145126Y-17545000D01*
X14556874Y-17545000D01*
X14937280Y-17387431D01*
X15228431Y-17096280D01*
X15386000Y-16715874D01*
X15386000Y-16304126D01*
X15228431Y-15923720D01*
X14937280Y-15632569D01*
X14556874Y-15475000D01*
X14145126Y-15475000D01*
X13764720Y-15632569D01*
X13473569Y-15923720D01*
X13316000Y-16304126D01*
X13316000Y-16715874D01*
X13469028Y-17085317D01*
X13286280Y-16902569D01*
X12905874Y-16745000D01*
X12494126Y-16745000D01*
X12113720Y-16902569D01*
X11822569Y-17193720D01*
X11665000Y-17574126D01*
X10160921Y-17574126D01*
X10306000Y-17223874D01*
X10306000Y-17103711D01*
X10462720Y-17260431D01*
X10843126Y-17418000D01*
X11254874Y-17418000D01*
X11635280Y-17260431D01*
X11926431Y-16969280D01*
X12084000Y-16588874D01*
X12084000Y-16177126D01*
X11926431Y-15796720D01*
X11635280Y-15505569D01*
X11254874Y-15348000D01*
X10843126Y-15348000D01*
X10462720Y-15505569D01*
X10171569Y-15796720D01*
X10014000Y-16177126D01*
X10014000Y-16297289D01*
X9857280Y-16140569D01*
X9476874Y-15983000D01*
X9065126Y-15983000D01*
X8684720Y-16140569D01*
X8393569Y-16431720D01*
X8236000Y-16812126D01*
X8236000Y-17223874D01*
X8309200Y-17400595D01*
X7952874Y-17253000D01*
X7541126Y-17253000D01*
X7160720Y-17410569D01*
X6869569Y-17701720D01*
X6712000Y-18082126D01*
X4813837Y-18082126D01*
X4650280Y-17918569D01*
X4269874Y-17761000D01*
X3858126Y-17761000D01*
X3477720Y-17918569D01*
X3186569Y-18209720D01*
X3029000Y-18590126D01*
X710000Y-18590126D01*
X710000Y-14145126D01*
X2140000Y-14145126D01*
X2140000Y-14556874D01*
X2297569Y-14937280D01*
X2473289Y-15113000D01*
X2297569Y-15288720D01*
X2140000Y-15669126D01*
X2140000Y-16080874D01*
X2297569Y-16461280D01*
X2588720Y-16752431D01*
X2969126Y-16910000D01*
X3380874Y-16910000D01*
X3761280Y-16752431D01*
X3937000Y-16576711D01*
X4112720Y-16752431D01*
X4493126Y-16910000D01*
X4904874Y-16910000D01*
X5285280Y-16752431D01*
X5576431Y-16461280D01*
X5734000Y-16080874D01*
X5734000Y-15669126D01*
X5576431Y-15288720D01*
X5400711Y-15113000D01*
X5576431Y-14937280D01*
X5734000Y-14556874D01*
X5734000Y-14145126D01*
X5576431Y-13764720D01*
X5285280Y-13473569D01*
X4904874Y-13316000D01*
X4493126Y-13316000D01*
X4112720Y-13473569D01*
X3937000Y-13649289D01*
X3761280Y-13473569D01*
X3380874Y-13316000D01*
X2969126Y-13316000D01*
X2588720Y-13473569D01*
X2297569Y-13764720D01*
X2140000Y-14145126D01*
X710000Y-14145126D01*
X710000Y-12786226D01*
X8617000Y-12786226D01*
X8617000Y-13197974D01*
X8774569Y-13578380D01*
X8867739Y-13671550D01*
X8774569Y-13764720D01*
X8617000Y-14145126D01*
X8617000Y-14556874D01*
X8774569Y-14937280D01*
X9065720Y-15228431D01*
X9446126Y-15386000D01*
X9857874Y-15386000D01*
X10238280Y-15228431D01*
X10529431Y-14937280D01*
X10687000Y-14556874D01*
X10687000Y-14272126D01*
X11665000Y-14272126D01*
X11665000Y-14683874D01*
X11822569Y-15064280D01*
X12113720Y-15355431D01*
X12494126Y-15513000D01*
X12905874Y-15513000D01*
X13286280Y-15355431D01*
X13577431Y-15064280D01*
X13735000Y-14683874D01*
X13735000Y-14272126D01*
X13577431Y-13891720D01*
X13286280Y-13600569D01*
X12905874Y-13443000D01*
X12494126Y-13443000D01*
X12113720Y-13600569D01*
X11822569Y-13891720D01*
X11665000Y-14272126D01*
X10687000Y-14272126D01*
X10687000Y-14145126D01*
X10529431Y-13764720D01*
X10436261Y-13671550D01*
X10529431Y-13578380D01*
X10609799Y-13384353D01*
X10843126Y-13481000D01*
X11254874Y-13481000D01*
X11635280Y-13323431D01*
X11926431Y-13032280D01*
X12084000Y-12651874D01*
X12084000Y-12240126D01*
X11930972Y-11870683D01*
X12113720Y-12053431D01*
X12494126Y-12211000D01*
X12905874Y-12211000D01*
X13286280Y-12053431D01*
X13469028Y-11870683D01*
X13316000Y-12240126D01*
X13316000Y-12651874D01*
X13473569Y-13032280D01*
X13764720Y-13323431D01*
X14145126Y-13481000D01*
X14556874Y-13481000D01*
X14937280Y-13323431D01*
X15228431Y-13032280D01*
X15386000Y-12651874D01*
X15386000Y-12240126D01*
X15228431Y-11859720D01*
X15126237Y-11757526D01*
X16884700Y-11757526D01*
X16884700Y-12169274D01*
X17019914Y-12495711D01*
X16910100Y-12760826D01*
X16910100Y-13172574D01*
X17022544Y-13444039D01*
X16884700Y-13776826D01*
X16884700Y-14188574D01*
X17042269Y-14568980D01*
X17333420Y-14860131D01*
X17713826Y-15017700D01*
X18015000Y-15017700D01*
X18015000Y-15191874D01*
X18140144Y-15494000D01*
X18015000Y-15796126D01*
X18015000Y-16207874D01*
X18172569Y-16588280D01*
X18463720Y-16879431D01*
X18844126Y-17037000D01*
X19255874Y-17037000D01*
X19636280Y-16879431D01*
X19927431Y-16588280D01*
X20085000Y-16207874D01*
X20085000Y-15796126D01*
X19959856Y-15494000D01*
X20085000Y-15191874D01*
X20085000Y-14780126D01*
X19927431Y-14399720D01*
X19636280Y-14108569D01*
X19255874Y-13951000D01*
X18954700Y-13951000D01*
X18954700Y-13776826D01*
X18842256Y-13505361D01*
X18980100Y-13172574D01*
X18980100Y-12760826D01*
X18844886Y-12434389D01*
X18954700Y-12169274D01*
X18954700Y-11757526D01*
X18797131Y-11377120D01*
X18505980Y-11085969D01*
X18125574Y-10928400D01*
X17713826Y-10928400D01*
X17333420Y-11085969D01*
X17042269Y-11377120D01*
X16884700Y-11757526D01*
X15126237Y-11757526D01*
X14937280Y-11568569D01*
X14556874Y-11411000D01*
X14145126Y-11411000D01*
X13764720Y-11568569D01*
X13581972Y-11751317D01*
X13735000Y-11381874D01*
X13735000Y-10970126D01*
X13577431Y-10589720D01*
X13286280Y-10298569D01*
X12905874Y-10141000D01*
X12494126Y-10141000D01*
X12113720Y-10298569D01*
X11822569Y-10589720D01*
X11665000Y-10970126D01*
X11665000Y-11381874D01*
X11818028Y-11751317D01*
X11635280Y-11568569D01*
X11254874Y-11411000D01*
X10843126Y-11411000D01*
X10462720Y-11568569D01*
X10171569Y-11859720D01*
X10091201Y-12053747D01*
X9857874Y-11957100D01*
X9446126Y-11957100D01*
X9065720Y-12114669D01*
X8774569Y-12405820D01*
X8617000Y-12786226D01*
X710000Y-12786226D01*
X710000Y-8684126D01*
X3537000Y-8684126D01*
X3537000Y-9095874D01*
X3694569Y-9476280D01*
X3806789Y-9588500D01*
X3694569Y-9700720D01*
X3537000Y-10081126D01*
X3537000Y-10492874D01*
X3694569Y-10873280D01*
X3806789Y-10985500D01*
X3694569Y-11097720D01*
X3537000Y-11478126D01*
X3537000Y-11889874D01*
X3694569Y-12270280D01*
X3985720Y-12561431D01*
X4366126Y-12719000D01*
X4777874Y-12719000D01*
X5158280Y-12561431D01*
X5449431Y-12270280D01*
X5607000Y-11889874D01*
X5607000Y-11478126D01*
X5449431Y-11097720D01*
X5337211Y-10985500D01*
X5449431Y-10873280D01*
X5514526Y-10716126D01*
X6712000Y-10716126D01*
X6712000Y-11127874D01*
X6869569Y-11508280D01*
X7160720Y-11799431D01*
X7541126Y-11957000D01*
X7952874Y-11957000D01*
X8333280Y-11799431D01*
X8624431Y-11508280D01*
X8782000Y-11127874D01*
X8782000Y-10716126D01*
X8624431Y-10335720D01*
X8333280Y-10044569D01*
X7952874Y-9887000D01*
X7541126Y-9887000D01*
X7160720Y-10044569D01*
X6869569Y-10335720D01*
X6712000Y-10716126D01*
X5514526Y-10716126D01*
X5607000Y-10492874D01*
X5607000Y-10081126D01*
X5449431Y-9700720D01*
X5337211Y-9588500D01*
X5449431Y-9476280D01*
X5607000Y-9095874D01*
X5607000Y-8684126D01*
X5449431Y-8303720D01*
X5158280Y-8012569D01*
X4777874Y-7855000D01*
X4366126Y-7855000D01*
X3985720Y-8012569D01*
X3694569Y-8303720D01*
X3537000Y-8684126D01*
X710000Y-8684126D01*
X710000Y-7421778D01*
X7255000Y-7421778D01*
X7255000Y-8072222D01*
X7503914Y-8673153D01*
X7963847Y-9133086D01*
X8564778Y-9382000D01*
X9215222Y-9382000D01*
X9816153Y-9133086D01*
X10160000Y-8789239D01*
X10503847Y-9133086D01*
X11104778Y-9382000D01*
X11755222Y-9382000D01*
X12356153Y-9133086D01*
X12700000Y-8789239D01*
X13043847Y-9133086D01*
X13644778Y-9382000D01*
X14295222Y-9382000D01*
X14896153Y-9133086D01*
X15240000Y-8789239D01*
X15583847Y-9133086D01*
X16184778Y-9382000D01*
X16835222Y-9382000D01*
X17436153Y-9133086D01*
X17896086Y-8673153D01*
X18145000Y-8072222D01*
X18145000Y-7421778D01*
X17896086Y-6820847D01*
X17436153Y-6360914D01*
X16835222Y-6112000D01*
X16184778Y-6112000D01*
X15583847Y-6360914D01*
X15240000Y-6704761D01*
X14896153Y-6360914D01*
X14295222Y-6112000D01*
X13644778Y-6112000D01*
X13043847Y-6360914D01*
X12700000Y-6704761D01*
X12356153Y-6360914D01*
X11755222Y-6112000D01*
X11104778Y-6112000D01*
X10503847Y-6360914D01*
X10160000Y-6704761D01*
X9816153Y-6360914D01*
X9215222Y-6112000D01*
X8564778Y-6112000D01*
X7963847Y-6360914D01*
X7503914Y-6820847D01*
X7255000Y-7421778D01*
X710000Y-7421778D01*
X710000Y-2540000D01*
X1295324Y-2540000D01*
X1432697Y-3230620D01*
X1823901Y-3816099D01*
X2409380Y-4207303D01*
X2925672Y-4310000D01*
X7234328Y-4310000D01*
X7750620Y-4207303D01*
X8336099Y-3816099D01*
X8727303Y-3230620D01*
X8864676Y-2540000D01*
X16535324Y-2540000D01*
X16672697Y-3230620D01*
X17063901Y-3816099D01*
X17649380Y-4207303D01*
X18165672Y-4310000D01*
X22474328Y-4310000D01*
X22990620Y-4207303D01*
X23576099Y-3816099D01*
X23967303Y-3230620D01*
X24104676Y-2540000D01*
X23967303Y-1849380D01*
X23576099Y-1263901D01*
X22990620Y-872697D01*
X22474328Y-770000D01*
X18165672Y-770000D01*
X17649380Y-872697D01*
X17063901Y-1263901D01*
X16672697Y-1849380D01*
X16535324Y-2540000D01*
X8864676Y-2540000D01*
X8727303Y-1849380D01*
X8336099Y-1263901D01*
X7750620Y-872697D01*
X7234328Y-770000D01*
X2925672Y-770000D01*
X2409380Y-872697D01*
X1823901Y-1263901D01*
X1432697Y-1849380D01*
X1295324Y-2540000D01*
X710000Y-2540000D01*
X710000Y-710000D01*
X24690000Y-710000D01*
X24690001Y-25330074D01*
X24690001Y-25330074D01*
G37*
X24690001Y-25330074D02*
X24690000Y-37390000D01*
X710000Y-37390000D01*
X710000Y-31422789D01*
X3435000Y-31422789D01*
X3435000Y-32077211D01*
X3685437Y-32681817D01*
X4023620Y-33020000D01*
X3685437Y-33358183D01*
X3435000Y-33962789D01*
X3435000Y-34617211D01*
X3685437Y-35221817D01*
X4148183Y-35684563D01*
X4752789Y-35935000D01*
X5407211Y-35935000D01*
X6011817Y-35684563D01*
X6350000Y-35346380D01*
X6688183Y-35684563D01*
X7292789Y-35935000D01*
X7947211Y-35935000D01*
X8551817Y-35684563D01*
X8890000Y-35346380D01*
X9228183Y-35684563D01*
X9832789Y-35935000D01*
X10487211Y-35935000D01*
X11091817Y-35684563D01*
X11430000Y-35346380D01*
X11768183Y-35684563D01*
X12372789Y-35935000D01*
X13027211Y-35935000D01*
X13631817Y-35684563D01*
X13970000Y-35346380D01*
X14308183Y-35684563D01*
X14912789Y-35935000D01*
X15567211Y-35935000D01*
X16171817Y-35684563D01*
X16510000Y-35346380D01*
X16848183Y-35684563D01*
X17452789Y-35935000D01*
X18107211Y-35935000D01*
X18711817Y-35684563D01*
X19050000Y-35346380D01*
X19388183Y-35684563D01*
X19992789Y-35935000D01*
X20647211Y-35935000D01*
X21251817Y-35684563D01*
X21714563Y-35221817D01*
X21965000Y-34617211D01*
X21965000Y-33962789D01*
X21714563Y-33358183D01*
X21376380Y-33020000D01*
X21714563Y-32681817D01*
X21965000Y-32077211D01*
X21965000Y-31422789D01*
X21714563Y-30818183D01*
X21251817Y-30355437D01*
X20647211Y-30105000D01*
X19992789Y-30105000D01*
X19388183Y-30355437D01*
X18964543Y-30779077D01*
X18939766Y-30769839D01*
X17959605Y-31750000D01*
X18939766Y-32730161D01*
X18964543Y-32720923D01*
X19263620Y-33020000D01*
X19050000Y-33233620D01*
X18750923Y-32934543D01*
X18760161Y-32909766D01*
X17780000Y-31929605D01*
X16799839Y-32909766D01*
X16809077Y-32934543D01*
X16510000Y-33233620D01*
X16296380Y-33020000D01*
X16595457Y-32720923D01*
X16620234Y-32730161D01*
X17600395Y-31750000D01*
X16620234Y-30769839D01*
X16595457Y-30779077D01*
X16406614Y-30590234D01*
X16799839Y-30590234D01*
X17780000Y-31570395D01*
X18760161Y-30590234D01*
X18660274Y-30322342D01*
X18046926Y-30094149D01*
X17392941Y-30118044D01*
X16899726Y-30322342D01*
X16799839Y-30590234D01*
X16406614Y-30590234D01*
X16171817Y-30355437D01*
X15567211Y-30105000D01*
X14912789Y-30105000D01*
X14308183Y-30355437D01*
X13970000Y-30693620D01*
X13631817Y-30355437D01*
X13027211Y-30105000D01*
X12372789Y-30105000D01*
X11768183Y-30355437D01*
X11430000Y-30693620D01*
X11091817Y-30355437D01*
X10487211Y-30105000D01*
X9832789Y-30105000D01*
X9228183Y-30355437D01*
X8890000Y-30693620D01*
X8551817Y-30355437D01*
X7947211Y-30105000D01*
X7292789Y-30105000D01*
X6688183Y-30355437D01*
X6350000Y-30693620D01*
X6011817Y-30355437D01*
X5407211Y-30105000D01*
X4752789Y-30105000D01*
X4148183Y-30355437D01*
X3685437Y-30818183D01*
X3435000Y-31422789D01*
X710000Y-31422789D01*
X710000Y-25448126D01*
X3029000Y-25448126D01*
X3029000Y-25859874D01*
X3186569Y-26240280D01*
X3235289Y-26289000D01*
X3186569Y-26337720D01*
X3029000Y-26718126D01*
X3029000Y-27129874D01*
X3186569Y-27510280D01*
X3235289Y-27559000D01*
X3186569Y-27607720D01*
X3029000Y-27988126D01*
X3029000Y-28399874D01*
X3186569Y-28780280D01*
X3477720Y-29071431D01*
X3858126Y-29229000D01*
X4269874Y-29229000D01*
X4650280Y-29071431D01*
X4941431Y-28780280D01*
X5099000Y-28399874D01*
X5099000Y-27988126D01*
X4941431Y-27607720D01*
X4892711Y-27559000D01*
X4941431Y-27510280D01*
X5099000Y-27129874D01*
X5099000Y-26718126D01*
X5015422Y-26516350D01*
X8521255Y-26516350D01*
X8613792Y-26778019D01*
X9205398Y-26996188D01*
X9835461Y-26971352D01*
X10302208Y-26778019D01*
X10394745Y-26516350D01*
X9458000Y-25579605D01*
X8521255Y-26516350D01*
X5015422Y-26516350D01*
X4941431Y-26337720D01*
X4892711Y-26289000D01*
X4941431Y-26240280D01*
X5099000Y-25859874D01*
X5099000Y-25448126D01*
X4974435Y-25147398D01*
X7861812Y-25147398D01*
X7886648Y-25777461D01*
X8079981Y-26244208D01*
X8341650Y-26336745D01*
X9278395Y-25400000D01*
X9637605Y-25400000D01*
X10574350Y-26336745D01*
X10632613Y-26316141D01*
X11060170Y-26743698D01*
X11642724Y-26985000D01*
X12273276Y-26985000D01*
X12855830Y-26743698D01*
X13208000Y-26391528D01*
X13560170Y-26743698D01*
X14142724Y-26985000D01*
X14773276Y-26985000D01*
X15355830Y-26743698D01*
X15708000Y-26391528D01*
X16060170Y-26743698D01*
X16642724Y-26985000D01*
X17273276Y-26985000D01*
X17855830Y-26743698D01*
X18301698Y-26297830D01*
X18543000Y-25715276D01*
X18543000Y-25084724D01*
X18301698Y-24502170D01*
X17855830Y-24056302D01*
X17273276Y-23815000D01*
X16782011Y-23815000D01*
X16969280Y-23737431D01*
X17260431Y-23446280D01*
X17418000Y-23065874D01*
X17418000Y-22654126D01*
X17260431Y-22273720D01*
X16969280Y-21982569D01*
X16588874Y-21825000D01*
X16177126Y-21825000D01*
X15796720Y-21982569D01*
X15505569Y-22273720D01*
X15348000Y-22654126D01*
X15348000Y-23065874D01*
X15505569Y-23446280D01*
X15796720Y-23737431D01*
X16177126Y-23895000D01*
X16449587Y-23895000D01*
X16060170Y-24056302D01*
X15708000Y-24408472D01*
X15355830Y-24056302D01*
X14773276Y-23815000D01*
X14142724Y-23815000D01*
X13560170Y-24056302D01*
X13208000Y-24408472D01*
X12855830Y-24056302D01*
X12273276Y-23815000D01*
X11642724Y-23815000D01*
X11060170Y-24056302D01*
X10632613Y-24483859D01*
X10574350Y-24463255D01*
X9637605Y-25400000D01*
X9278395Y-25400000D01*
X8341650Y-24463255D01*
X8079981Y-24555792D01*
X7861812Y-25147398D01*
X4974435Y-25147398D01*
X4941431Y-25067720D01*
X4650280Y-24776569D01*
X4269874Y-24619000D01*
X3858126Y-24619000D01*
X3477720Y-24776569D01*
X3186569Y-25067720D01*
X3029000Y-25448126D01*
X710000Y-25448126D01*
X710000Y-24283650D01*
X8521255Y-24283650D01*
X9458000Y-25220395D01*
X10394745Y-24283650D01*
X10302208Y-24021981D01*
X9710602Y-23803812D01*
X9080539Y-23828648D01*
X8613792Y-24021981D01*
X8521255Y-24283650D01*
X710000Y-24283650D01*
X710000Y-22400126D01*
X3029000Y-22400126D01*
X3029000Y-22811874D01*
X3186569Y-23192280D01*
X3477720Y-23483431D01*
X3858126Y-23641000D01*
X4269874Y-23641000D01*
X4650280Y-23483431D01*
X4941431Y-23192280D01*
X5099000Y-22811874D01*
X5099000Y-22400126D01*
X4941431Y-22019720D01*
X4650280Y-21728569D01*
X4269874Y-21571000D01*
X3858126Y-21571000D01*
X3477720Y-21728569D01*
X3186569Y-22019720D01*
X3029000Y-22400126D01*
X710000Y-22400126D01*
X710000Y-18590126D01*
X3029000Y-18590126D01*
X3029000Y-19001874D01*
X3186569Y-19382280D01*
X3232289Y-19428000D01*
X3186569Y-19473720D01*
X3029000Y-19854126D01*
X3029000Y-20265874D01*
X3186569Y-20646280D01*
X3477720Y-20937431D01*
X3858126Y-21095000D01*
X4269874Y-21095000D01*
X4650280Y-20937431D01*
X4941431Y-20646280D01*
X5099000Y-20265874D01*
X5099000Y-19854126D01*
X4941431Y-19473720D01*
X4895711Y-19428000D01*
X4941431Y-19382280D01*
X5099000Y-19001874D01*
X5099000Y-18590126D01*
X4941431Y-18209720D01*
X4813837Y-18082126D01*
X6712000Y-18082126D01*
X6712000Y-18493874D01*
X6863447Y-18859500D01*
X6712000Y-19225126D01*
X6712000Y-19636874D01*
X6869569Y-20017280D01*
X7160720Y-20308431D01*
X7541126Y-20466000D01*
X7952874Y-20466000D01*
X8333280Y-20308431D01*
X8624431Y-20017280D01*
X8782000Y-19636874D01*
X8782000Y-19225126D01*
X8630553Y-18859500D01*
X8782000Y-18493874D01*
X8782000Y-18082126D01*
X8708800Y-17905405D01*
X9065126Y-18053000D01*
X9476874Y-18053000D01*
X9857280Y-17895431D01*
X10148431Y-17604280D01*
X10160921Y-17574126D01*
X11665000Y-17574126D01*
X11665000Y-17985874D01*
X11822569Y-18366280D01*
X12113720Y-18657431D01*
X12219884Y-18701405D01*
X12203569Y-18717720D01*
X12046000Y-19098126D01*
X12046000Y-19509874D01*
X12203569Y-19890280D01*
X12494720Y-20181431D01*
X12875126Y-20339000D01*
X13286874Y-20339000D01*
X13667280Y-20181431D01*
X13958431Y-19890280D01*
X14023526Y-19733126D01*
X15221000Y-19733126D01*
X15221000Y-20144874D01*
X15378569Y-20525280D01*
X15669720Y-20816431D01*
X16050126Y-20974000D01*
X16461874Y-20974000D01*
X16842280Y-20816431D01*
X17133431Y-20525280D01*
X17291000Y-20144874D01*
X17291000Y-19733126D01*
X17133431Y-19352720D01*
X16842280Y-19061569D01*
X16461874Y-18904000D01*
X16050126Y-18904000D01*
X15669720Y-19061569D01*
X15378569Y-19352720D01*
X15221000Y-19733126D01*
X14023526Y-19733126D01*
X14116000Y-19509874D01*
X14116000Y-19098126D01*
X13958431Y-18717720D01*
X13667280Y-18426569D01*
X13561116Y-18382595D01*
X13577431Y-18366280D01*
X13735000Y-17985874D01*
X13735000Y-17574126D01*
X13581972Y-17204683D01*
X13764720Y-17387431D01*
X14145126Y-17545000D01*
X14556874Y-17545000D01*
X14937280Y-17387431D01*
X15228431Y-17096280D01*
X15386000Y-16715874D01*
X15386000Y-16304126D01*
X15228431Y-15923720D01*
X14937280Y-15632569D01*
X14556874Y-15475000D01*
X14145126Y-15475000D01*
X13764720Y-15632569D01*
X13473569Y-15923720D01*
X13316000Y-16304126D01*
X13316000Y-16715874D01*
X13469028Y-17085317D01*
X13286280Y-16902569D01*
X12905874Y-16745000D01*
X12494126Y-16745000D01*
X12113720Y-16902569D01*
X11822569Y-17193720D01*
X11665000Y-17574126D01*
X10160921Y-17574126D01*
X10306000Y-17223874D01*
X10306000Y-17103711D01*
X10462720Y-17260431D01*
X10843126Y-17418000D01*
X11254874Y-17418000D01*
X11635280Y-17260431D01*
X11926431Y-16969280D01*
X12084000Y-16588874D01*
X12084000Y-16177126D01*
X11926431Y-15796720D01*
X11635280Y-15505569D01*
X11254874Y-15348000D01*
X10843126Y-15348000D01*
X10462720Y-15505569D01*
X10171569Y-15796720D01*
X10014000Y-16177126D01*
X10014000Y-16297289D01*
X9857280Y-16140569D01*
X9476874Y-15983000D01*
X9065126Y-15983000D01*
X8684720Y-16140569D01*
X8393569Y-16431720D01*
X8236000Y-16812126D01*
X8236000Y-17223874D01*
X8309200Y-17400595D01*
X7952874Y-17253000D01*
X7541126Y-17253000D01*
X7160720Y-17410569D01*
X6869569Y-17701720D01*
X6712000Y-18082126D01*
X4813837Y-18082126D01*
X4650280Y-17918569D01*
X4269874Y-17761000D01*
X3858126Y-17761000D01*
X3477720Y-17918569D01*
X3186569Y-18209720D01*
X3029000Y-18590126D01*
X710000Y-18590126D01*
X710000Y-14145126D01*
X2140000Y-14145126D01*
X2140000Y-14556874D01*
X2297569Y-14937280D01*
X2473289Y-15113000D01*
X2297569Y-15288720D01*
X2140000Y-15669126D01*
X2140000Y-16080874D01*
X2297569Y-16461280D01*
X2588720Y-16752431D01*
X2969126Y-16910000D01*
X3380874Y-16910000D01*
X3761280Y-16752431D01*
X3937000Y-16576711D01*
X4112720Y-16752431D01*
X4493126Y-16910000D01*
X4904874Y-16910000D01*
X5285280Y-16752431D01*
X5576431Y-16461280D01*
X5734000Y-16080874D01*
X5734000Y-15669126D01*
X5576431Y-15288720D01*
X5400711Y-15113000D01*
X5576431Y-14937280D01*
X5734000Y-14556874D01*
X5734000Y-14145126D01*
X5576431Y-13764720D01*
X5285280Y-13473569D01*
X4904874Y-13316000D01*
X4493126Y-13316000D01*
X4112720Y-13473569D01*
X3937000Y-13649289D01*
X3761280Y-13473569D01*
X3380874Y-13316000D01*
X2969126Y-13316000D01*
X2588720Y-13473569D01*
X2297569Y-13764720D01*
X2140000Y-14145126D01*
X710000Y-14145126D01*
X710000Y-12786226D01*
X8617000Y-12786226D01*
X8617000Y-13197974D01*
X8774569Y-13578380D01*
X8867739Y-13671550D01*
X8774569Y-13764720D01*
X8617000Y-14145126D01*
X8617000Y-14556874D01*
X8774569Y-14937280D01*
X9065720Y-15228431D01*
X9446126Y-15386000D01*
X9857874Y-15386000D01*
X10238280Y-15228431D01*
X10529431Y-14937280D01*
X10687000Y-14556874D01*
X10687000Y-14272126D01*
X11665000Y-14272126D01*
X11665000Y-14683874D01*
X11822569Y-15064280D01*
X12113720Y-15355431D01*
X12494126Y-15513000D01*
X12905874Y-15513000D01*
X13286280Y-15355431D01*
X13577431Y-15064280D01*
X13735000Y-14683874D01*
X13735000Y-14272126D01*
X13577431Y-13891720D01*
X13286280Y-13600569D01*
X12905874Y-13443000D01*
X12494126Y-13443000D01*
X12113720Y-13600569D01*
X11822569Y-13891720D01*
X11665000Y-14272126D01*
X10687000Y-14272126D01*
X10687000Y-14145126D01*
X10529431Y-13764720D01*
X10436261Y-13671550D01*
X10529431Y-13578380D01*
X10609799Y-13384353D01*
X10843126Y-13481000D01*
X11254874Y-13481000D01*
X11635280Y-13323431D01*
X11926431Y-13032280D01*
X12084000Y-12651874D01*
X12084000Y-12240126D01*
X11930972Y-11870683D01*
X12113720Y-12053431D01*
X12494126Y-12211000D01*
X12905874Y-12211000D01*
X13286280Y-12053431D01*
X13469028Y-11870683D01*
X13316000Y-12240126D01*
X13316000Y-12651874D01*
X13473569Y-13032280D01*
X13764720Y-13323431D01*
X14145126Y-13481000D01*
X14556874Y-13481000D01*
X14937280Y-13323431D01*
X15228431Y-13032280D01*
X15386000Y-12651874D01*
X15386000Y-12240126D01*
X15228431Y-11859720D01*
X15126237Y-11757526D01*
X16884700Y-11757526D01*
X16884700Y-12169274D01*
X17019914Y-12495711D01*
X16910100Y-12760826D01*
X16910100Y-13172574D01*
X17022544Y-13444039D01*
X16884700Y-13776826D01*
X16884700Y-14188574D01*
X17042269Y-14568980D01*
X17333420Y-14860131D01*
X17713826Y-15017700D01*
X18015000Y-15017700D01*
X18015000Y-15191874D01*
X18140144Y-15494000D01*
X18015000Y-15796126D01*
X18015000Y-16207874D01*
X18172569Y-16588280D01*
X18463720Y-16879431D01*
X18844126Y-17037000D01*
X19255874Y-17037000D01*
X19636280Y-16879431D01*
X19927431Y-16588280D01*
X20085000Y-16207874D01*
X20085000Y-15796126D01*
X19959856Y-15494000D01*
X20085000Y-15191874D01*
X20085000Y-14780126D01*
X19927431Y-14399720D01*
X19636280Y-14108569D01*
X19255874Y-13951000D01*
X18954700Y-13951000D01*
X18954700Y-13776826D01*
X18842256Y-13505361D01*
X18980100Y-13172574D01*
X18980100Y-12760826D01*
X18844886Y-12434389D01*
X18954700Y-12169274D01*
X18954700Y-11757526D01*
X18797131Y-11377120D01*
X18505980Y-11085969D01*
X18125574Y-10928400D01*
X17713826Y-10928400D01*
X17333420Y-11085969D01*
X17042269Y-11377120D01*
X16884700Y-11757526D01*
X15126237Y-11757526D01*
X14937280Y-11568569D01*
X14556874Y-11411000D01*
X14145126Y-11411000D01*
X13764720Y-11568569D01*
X13581972Y-11751317D01*
X13735000Y-11381874D01*
X13735000Y-10970126D01*
X13577431Y-10589720D01*
X13286280Y-10298569D01*
X12905874Y-10141000D01*
X12494126Y-10141000D01*
X12113720Y-10298569D01*
X11822569Y-10589720D01*
X11665000Y-10970126D01*
X11665000Y-11381874D01*
X11818028Y-11751317D01*
X11635280Y-11568569D01*
X11254874Y-11411000D01*
X10843126Y-11411000D01*
X10462720Y-11568569D01*
X10171569Y-11859720D01*
X10091201Y-12053747D01*
X9857874Y-11957100D01*
X9446126Y-11957100D01*
X9065720Y-12114669D01*
X8774569Y-12405820D01*
X8617000Y-12786226D01*
X710000Y-12786226D01*
X710000Y-8684126D01*
X3537000Y-8684126D01*
X3537000Y-9095874D01*
X3694569Y-9476280D01*
X3806789Y-9588500D01*
X3694569Y-9700720D01*
X3537000Y-10081126D01*
X3537000Y-10492874D01*
X3694569Y-10873280D01*
X3806789Y-10985500D01*
X3694569Y-11097720D01*
X3537000Y-11478126D01*
X3537000Y-11889874D01*
X3694569Y-12270280D01*
X3985720Y-12561431D01*
X4366126Y-12719000D01*
X4777874Y-12719000D01*
X5158280Y-12561431D01*
X5449431Y-12270280D01*
X5607000Y-11889874D01*
X5607000Y-11478126D01*
X5449431Y-11097720D01*
X5337211Y-10985500D01*
X5449431Y-10873280D01*
X5514526Y-10716126D01*
X6712000Y-10716126D01*
X6712000Y-11127874D01*
X6869569Y-11508280D01*
X7160720Y-11799431D01*
X7541126Y-11957000D01*
X7952874Y-11957000D01*
X8333280Y-11799431D01*
X8624431Y-11508280D01*
X8782000Y-11127874D01*
X8782000Y-10716126D01*
X8624431Y-10335720D01*
X8333280Y-10044569D01*
X7952874Y-9887000D01*
X7541126Y-9887000D01*
X7160720Y-10044569D01*
X6869569Y-10335720D01*
X6712000Y-10716126D01*
X5514526Y-10716126D01*
X5607000Y-10492874D01*
X5607000Y-10081126D01*
X5449431Y-9700720D01*
X5337211Y-9588500D01*
X5449431Y-9476280D01*
X5607000Y-9095874D01*
X5607000Y-8684126D01*
X5449431Y-8303720D01*
X5158280Y-8012569D01*
X4777874Y-7855000D01*
X4366126Y-7855000D01*
X3985720Y-8012569D01*
X3694569Y-8303720D01*
X3537000Y-8684126D01*
X710000Y-8684126D01*
X710000Y-7421778D01*
X7255000Y-7421778D01*
X7255000Y-8072222D01*
X7503914Y-8673153D01*
X7963847Y-9133086D01*
X8564778Y-9382000D01*
X9215222Y-9382000D01*
X9816153Y-9133086D01*
X10160000Y-8789239D01*
X10503847Y-9133086D01*
X11104778Y-9382000D01*
X11755222Y-9382000D01*
X12356153Y-9133086D01*
X12700000Y-8789239D01*
X13043847Y-9133086D01*
X13644778Y-9382000D01*
X14295222Y-9382000D01*
X14896153Y-9133086D01*
X15240000Y-8789239D01*
X15583847Y-9133086D01*
X16184778Y-9382000D01*
X16835222Y-9382000D01*
X17436153Y-9133086D01*
X17896086Y-8673153D01*
X18145000Y-8072222D01*
X18145000Y-7421778D01*
X17896086Y-6820847D01*
X17436153Y-6360914D01*
X16835222Y-6112000D01*
X16184778Y-6112000D01*
X15583847Y-6360914D01*
X15240000Y-6704761D01*
X14896153Y-6360914D01*
X14295222Y-6112000D01*
X13644778Y-6112000D01*
X13043847Y-6360914D01*
X12700000Y-6704761D01*
X12356153Y-6360914D01*
X11755222Y-6112000D01*
X11104778Y-6112000D01*
X10503847Y-6360914D01*
X10160000Y-6704761D01*
X9816153Y-6360914D01*
X9215222Y-6112000D01*
X8564778Y-6112000D01*
X7963847Y-6360914D01*
X7503914Y-6820847D01*
X7255000Y-7421778D01*
X710000Y-7421778D01*
X710000Y-2540000D01*
X1295324Y-2540000D01*
X1432697Y-3230620D01*
X1823901Y-3816099D01*
X2409380Y-4207303D01*
X2925672Y-4310000D01*
X7234328Y-4310000D01*
X7750620Y-4207303D01*
X8336099Y-3816099D01*
X8727303Y-3230620D01*
X8864676Y-2540000D01*
X16535324Y-2540000D01*
X16672697Y-3230620D01*
X17063901Y-3816099D01*
X17649380Y-4207303D01*
X18165672Y-4310000D01*
X22474328Y-4310000D01*
X22990620Y-4207303D01*
X23576099Y-3816099D01*
X23967303Y-3230620D01*
X24104676Y-2540000D01*
X23967303Y-1849380D01*
X23576099Y-1263901D01*
X22990620Y-872697D01*
X22474328Y-770000D01*
X18165672Y-770000D01*
X17649380Y-872697D01*
X17063901Y-1263901D01*
X16672697Y-1849380D01*
X16535324Y-2540000D01*
X8864676Y-2540000D01*
X8727303Y-1849380D01*
X8336099Y-1263901D01*
X7750620Y-872697D01*
X7234328Y-770000D01*
X2925672Y-770000D01*
X2409380Y-872697D01*
X1823901Y-1263901D01*
X1432697Y-1849380D01*
X1295324Y-2540000D01*
X710000Y-2540000D01*
X710000Y-710000D01*
X24690000Y-710000D01*
X24690001Y-25330074D01*
G04 #@! TD*
M02*
