G04 #@! TF.GenerationSoftware,KiCad,Pcbnew,(5.0.2)-1*
G04 #@! TF.CreationDate,2019-01-20T10:13:28-05:00*
G04 #@! TF.ProjectId,motorDriverCard,6d6f746f-7244-4726-9976-657243617264,rev?*
G04 #@! TF.SameCoordinates,Original*
G04 #@! TF.FileFunction,Legend,Top*
G04 #@! TF.FilePolarity,Positive*
%FSLAX46Y46*%
G04 Gerber Fmt 4.6, Leading zero omitted, Abs format (unit mm)*
G04 Created by KiCad (PCBNEW (5.0.2)-1) date 1/20/2019 10:13:28 AM*
%MOMM*%
%LPD*%
G01*
G04 APERTURE LIST*
%ADD10C,0.300000*%
%ADD11C,0.250000*%
%ADD12C,0.127000*%
%ADD13C,0.200000*%
%ADD14C,0.150000*%
G04 APERTURE END LIST*
D10*
X22816428Y-12665000D02*
X23530714Y-12165000D01*
X22816428Y-11807857D02*
X24316428Y-11807857D01*
X24316428Y-12379285D01*
X24245000Y-12522142D01*
X24173571Y-12593571D01*
X24030714Y-12665000D01*
X23816428Y-12665000D01*
X23673571Y-12593571D01*
X23602142Y-12522142D01*
X23530714Y-12379285D01*
X23530714Y-11807857D01*
X22887857Y-13879285D02*
X22816428Y-13736428D01*
X22816428Y-13450714D01*
X22887857Y-13307857D01*
X23030714Y-13236428D01*
X23602142Y-13236428D01*
X23745000Y-13307857D01*
X23816428Y-13450714D01*
X23816428Y-13736428D01*
X23745000Y-13879285D01*
X23602142Y-13950714D01*
X23459285Y-13950714D01*
X23316428Y-13236428D01*
X22816428Y-15236428D02*
X23602142Y-15236428D01*
X23745000Y-15165000D01*
X23816428Y-15022142D01*
X23816428Y-14736428D01*
X23745000Y-14593571D01*
X22887857Y-15236428D02*
X22816428Y-15093571D01*
X22816428Y-14736428D01*
X22887857Y-14593571D01*
X23030714Y-14522142D01*
X23173571Y-14522142D01*
X23316428Y-14593571D01*
X23387857Y-14736428D01*
X23387857Y-15093571D01*
X23459285Y-15236428D01*
X23816428Y-15950714D02*
X22316428Y-15950714D01*
X23745000Y-15950714D02*
X23816428Y-16093571D01*
X23816428Y-16379285D01*
X23745000Y-16522142D01*
X23673571Y-16593571D01*
X23530714Y-16665000D01*
X23102142Y-16665000D01*
X22959285Y-16593571D01*
X22887857Y-16522142D01*
X22816428Y-16379285D01*
X22816428Y-16093571D01*
X22887857Y-15950714D01*
X22887857Y-17879285D02*
X22816428Y-17736428D01*
X22816428Y-17450714D01*
X22887857Y-17307857D01*
X23030714Y-17236428D01*
X23602142Y-17236428D01*
X23745000Y-17307857D01*
X23816428Y-17450714D01*
X23816428Y-17736428D01*
X23745000Y-17879285D01*
X23602142Y-17950714D01*
X23459285Y-17950714D01*
X23316428Y-17236428D01*
X22816428Y-18593571D02*
X23816428Y-18593571D01*
X23530714Y-18593571D02*
X23673571Y-18665000D01*
X23745000Y-18736428D01*
X23816428Y-18879285D01*
X23816428Y-19022142D01*
X24316428Y-20450714D02*
X24316428Y-21307857D01*
X22816428Y-20879285D02*
X24316428Y-20879285D01*
X22887857Y-22379285D02*
X22816428Y-22236428D01*
X22816428Y-21950714D01*
X22887857Y-21807857D01*
X23030714Y-21736428D01*
X23602142Y-21736428D01*
X23745000Y-21807857D01*
X23816428Y-21950714D01*
X23816428Y-22236428D01*
X23745000Y-22379285D01*
X23602142Y-22450714D01*
X23459285Y-22450714D01*
X23316428Y-21736428D01*
X22887857Y-23736428D02*
X22816428Y-23593571D01*
X22816428Y-23307857D01*
X22887857Y-23165000D01*
X22959285Y-23093571D01*
X23102142Y-23022142D01*
X23530714Y-23022142D01*
X23673571Y-23093571D01*
X23745000Y-23165000D01*
X23816428Y-23307857D01*
X23816428Y-23593571D01*
X23745000Y-23736428D01*
X22816428Y-24379285D02*
X24316428Y-24379285D01*
X22816428Y-25022142D02*
X23602142Y-25022142D01*
X23745000Y-24950714D01*
X23816428Y-24807857D01*
X23816428Y-24593571D01*
X23745000Y-24450714D01*
X23673571Y-24379285D01*
D11*
G04 #@! TO.C,Encoder1*
X19408000Y-22525000D02*
X19408000Y-28275000D01*
X19408000Y-28275000D02*
X7008000Y-28275000D01*
X7008000Y-28275000D02*
X7008000Y-23962500D01*
X7008000Y-23962500D02*
X8558000Y-22525000D01*
X8558000Y-22525000D02*
X19408000Y-22525000D01*
G04 #@! TO.C,SPI1*
X8890000Y-6477000D02*
X17780000Y-6477000D01*
X17780000Y-6477000D02*
X17780000Y-9017000D01*
X17780000Y-9017000D02*
X7620000Y-9017000D01*
X7620000Y-9017000D02*
X7620000Y-7747000D01*
X7620000Y-7747000D02*
X7620000Y-7112000D01*
X7620000Y-7112000D02*
X8255000Y-6477000D01*
X8255000Y-6477000D02*
X8890000Y-6477000D01*
D12*
G04 #@! TO.C,Driver1*
X16450000Y-11278000D02*
X13850000Y-11278000D01*
X8950000Y-11278000D02*
X11550000Y-11278000D01*
X16450000Y-17678000D02*
X13850000Y-17678000D01*
X8950000Y-17678000D02*
X11550000Y-17678000D01*
D13*
X6600000Y-11978000D02*
G75*
G03X6600000Y-11978000I-100000J0D01*
G01*
D12*
X8950000Y-17678000D02*
X8950000Y-11278000D01*
X16450000Y-11278000D02*
X16450000Y-17678000D01*
D14*
G04 #@! TO.C,Shift1*
X13482000Y-21647000D02*
X13482000Y-19247000D01*
X15982000Y-21647000D02*
X15982000Y-19247000D01*
D13*
X13582000Y-22147000D02*
G75*
G03X13582000Y-22147000I-100000J0D01*
G01*
D14*
G04 #@! TO.C,MotorOut1*
X-2310000Y-2540000D02*
X1385000Y-2540000D01*
X12470000Y-2540000D02*
X8775000Y-2540000D01*
X-2310000Y-2540000D02*
X-2310000Y25560000D01*
X-2310000Y25560000D02*
X12470000Y25560000D01*
X12470000Y25560000D02*
X12470000Y-2540000D01*
G04 #@! TO.C,MotorGnd1*
X27710000Y25560000D02*
X27710000Y-2540000D01*
X12930000Y25560000D02*
X27710000Y25560000D01*
X12930000Y-2540000D02*
X12930000Y25560000D01*
X27710000Y-2540000D02*
X24015000Y-2540000D01*
X12930000Y-2540000D02*
X16625000Y-2540000D01*
D11*
G04 #@! TO.C,CardConnector1*
X3810000Y-35560000D02*
X20955000Y-35560000D01*
X20955000Y-35560000D02*
X21590000Y-34925000D01*
X21590000Y-34925000D02*
X21590000Y-30480000D01*
X21590000Y-30480000D02*
X3810000Y-30480000D01*
X3810000Y-30480000D02*
X3810000Y-35560000D01*
G04 #@! TO.C,Encoder1*
D14*
X9993714Y-29392571D02*
X10327047Y-29392571D01*
X10469904Y-29916380D02*
X9993714Y-29916380D01*
X9993714Y-28916380D01*
X10469904Y-28916380D01*
X10898476Y-29249714D02*
X10898476Y-29916380D01*
X10898476Y-29344952D02*
X10946095Y-29297333D01*
X11041333Y-29249714D01*
X11184190Y-29249714D01*
X11279428Y-29297333D01*
X11327047Y-29392571D01*
X11327047Y-29916380D01*
X12231809Y-29868761D02*
X12136571Y-29916380D01*
X11946095Y-29916380D01*
X11850857Y-29868761D01*
X11803238Y-29821142D01*
X11755619Y-29725904D01*
X11755619Y-29440190D01*
X11803238Y-29344952D01*
X11850857Y-29297333D01*
X11946095Y-29249714D01*
X12136571Y-29249714D01*
X12231809Y-29297333D01*
X12803238Y-29916380D02*
X12708000Y-29868761D01*
X12660380Y-29821142D01*
X12612761Y-29725904D01*
X12612761Y-29440190D01*
X12660380Y-29344952D01*
X12708000Y-29297333D01*
X12803238Y-29249714D01*
X12946095Y-29249714D01*
X13041333Y-29297333D01*
X13088952Y-29344952D01*
X13136571Y-29440190D01*
X13136571Y-29725904D01*
X13088952Y-29821142D01*
X13041333Y-29868761D01*
X12946095Y-29916380D01*
X12803238Y-29916380D01*
X13993714Y-29916380D02*
X13993714Y-28916380D01*
X13993714Y-29868761D02*
X13898476Y-29916380D01*
X13708000Y-29916380D01*
X13612761Y-29868761D01*
X13565142Y-29821142D01*
X13517523Y-29725904D01*
X13517523Y-29440190D01*
X13565142Y-29344952D01*
X13612761Y-29297333D01*
X13708000Y-29249714D01*
X13898476Y-29249714D01*
X13993714Y-29297333D01*
X14850857Y-29868761D02*
X14755619Y-29916380D01*
X14565142Y-29916380D01*
X14469904Y-29868761D01*
X14422285Y-29773523D01*
X14422285Y-29392571D01*
X14469904Y-29297333D01*
X14565142Y-29249714D01*
X14755619Y-29249714D01*
X14850857Y-29297333D01*
X14898476Y-29392571D01*
X14898476Y-29487809D01*
X14422285Y-29583047D01*
X15327047Y-29916380D02*
X15327047Y-29249714D01*
X15327047Y-29440190D02*
X15374666Y-29344952D01*
X15422285Y-29297333D01*
X15517523Y-29249714D01*
X15612761Y-29249714D01*
X16469904Y-29916380D02*
X15898476Y-29916380D01*
X16184190Y-29916380D02*
X16184190Y-28916380D01*
X16088952Y-29059238D01*
X15993714Y-29154476D01*
X15898476Y-29202095D01*
G04 #@! TO.C,SPI1*
X11200000Y-5357761D02*
X11342857Y-5405380D01*
X11580952Y-5405380D01*
X11676190Y-5357761D01*
X11723809Y-5310142D01*
X11771428Y-5214904D01*
X11771428Y-5119666D01*
X11723809Y-5024428D01*
X11676190Y-4976809D01*
X11580952Y-4929190D01*
X11390476Y-4881571D01*
X11295238Y-4833952D01*
X11247619Y-4786333D01*
X11200000Y-4691095D01*
X11200000Y-4595857D01*
X11247619Y-4500619D01*
X11295238Y-4453000D01*
X11390476Y-4405380D01*
X11628571Y-4405380D01*
X11771428Y-4453000D01*
X12200000Y-5405380D02*
X12200000Y-4405380D01*
X12580952Y-4405380D01*
X12676190Y-4453000D01*
X12723809Y-4500619D01*
X12771428Y-4595857D01*
X12771428Y-4738714D01*
X12723809Y-4833952D01*
X12676190Y-4881571D01*
X12580952Y-4929190D01*
X12200000Y-4929190D01*
X13200000Y-5405380D02*
X13200000Y-4405380D01*
X14200000Y-5405380D02*
X13628571Y-5405380D01*
X13914285Y-5405380D02*
X13914285Y-4405380D01*
X13819047Y-4548238D01*
X13723809Y-4643476D01*
X13628571Y-4691095D01*
G04 #@! TO.C,Driver1*
X10903190Y-10140904D02*
X10903190Y-9340904D01*
X11093666Y-9340904D01*
X11207952Y-9379000D01*
X11284142Y-9455190D01*
X11322238Y-9531380D01*
X11360333Y-9683761D01*
X11360333Y-9798047D01*
X11322238Y-9950428D01*
X11284142Y-10026619D01*
X11207952Y-10102809D01*
X11093666Y-10140904D01*
X10903190Y-10140904D01*
X11703190Y-10140904D02*
X11703190Y-9607571D01*
X11703190Y-9759952D02*
X11741285Y-9683761D01*
X11779380Y-9645666D01*
X11855571Y-9607571D01*
X11931761Y-9607571D01*
X12198428Y-10140904D02*
X12198428Y-9607571D01*
X12198428Y-9340904D02*
X12160333Y-9379000D01*
X12198428Y-9417095D01*
X12236523Y-9379000D01*
X12198428Y-9340904D01*
X12198428Y-9417095D01*
X12503190Y-9607571D02*
X12693666Y-10140904D01*
X12884142Y-9607571D01*
X13493666Y-10102809D02*
X13417476Y-10140904D01*
X13265095Y-10140904D01*
X13188904Y-10102809D01*
X13150809Y-10026619D01*
X13150809Y-9721857D01*
X13188904Y-9645666D01*
X13265095Y-9607571D01*
X13417476Y-9607571D01*
X13493666Y-9645666D01*
X13531761Y-9721857D01*
X13531761Y-9798047D01*
X13150809Y-9874238D01*
X13874619Y-10140904D02*
X13874619Y-9607571D01*
X13874619Y-9759952D02*
X13912714Y-9683761D01*
X13950809Y-9645666D01*
X14027000Y-9607571D01*
X14103190Y-9607571D01*
X14788904Y-10140904D02*
X14331761Y-10140904D01*
X14560333Y-10140904D02*
X14560333Y-9340904D01*
X14484142Y-9455190D01*
X14407952Y-9531380D01*
X14331761Y-9569476D01*
G04 #@! TO.C,Shift1*
X8644190Y-20089761D02*
X8787047Y-20137380D01*
X9025142Y-20137380D01*
X9120380Y-20089761D01*
X9168000Y-20042142D01*
X9215619Y-19946904D01*
X9215619Y-19851666D01*
X9168000Y-19756428D01*
X9120380Y-19708809D01*
X9025142Y-19661190D01*
X8834666Y-19613571D01*
X8739428Y-19565952D01*
X8691809Y-19518333D01*
X8644190Y-19423095D01*
X8644190Y-19327857D01*
X8691809Y-19232619D01*
X8739428Y-19185000D01*
X8834666Y-19137380D01*
X9072761Y-19137380D01*
X9215619Y-19185000D01*
X9644190Y-20137380D02*
X9644190Y-19137380D01*
X10072761Y-20137380D02*
X10072761Y-19613571D01*
X10025142Y-19518333D01*
X9929904Y-19470714D01*
X9787047Y-19470714D01*
X9691809Y-19518333D01*
X9644190Y-19565952D01*
X10548952Y-20137380D02*
X10548952Y-19470714D01*
X10548952Y-19137380D02*
X10501333Y-19185000D01*
X10548952Y-19232619D01*
X10596571Y-19185000D01*
X10548952Y-19137380D01*
X10548952Y-19232619D01*
X10882285Y-19470714D02*
X11263238Y-19470714D01*
X11025142Y-20137380D02*
X11025142Y-19280238D01*
X11072761Y-19185000D01*
X11168000Y-19137380D01*
X11263238Y-19137380D01*
X11453714Y-19470714D02*
X11834666Y-19470714D01*
X11596571Y-19137380D02*
X11596571Y-19994523D01*
X11644190Y-20089761D01*
X11739428Y-20137380D01*
X11834666Y-20137380D01*
X12691809Y-20137380D02*
X12120380Y-20137380D01*
X12406095Y-20137380D02*
X12406095Y-19137380D01*
X12310857Y-19280238D01*
X12215619Y-19375476D01*
X12120380Y-19423095D01*
G04 #@! TO.C,MotorOut1*
X619571Y-5405380D02*
X619571Y-4405380D01*
X952904Y-5119666D01*
X1286238Y-4405380D01*
X1286238Y-5405380D01*
X1905285Y-5405380D02*
X1810047Y-5357761D01*
X1762428Y-5310142D01*
X1714809Y-5214904D01*
X1714809Y-4929190D01*
X1762428Y-4833952D01*
X1810047Y-4786333D01*
X1905285Y-4738714D01*
X2048142Y-4738714D01*
X2143380Y-4786333D01*
X2191000Y-4833952D01*
X2238619Y-4929190D01*
X2238619Y-5214904D01*
X2191000Y-5310142D01*
X2143380Y-5357761D01*
X2048142Y-5405380D01*
X1905285Y-5405380D01*
X2524333Y-4738714D02*
X2905285Y-4738714D01*
X2667190Y-4405380D02*
X2667190Y-5262523D01*
X2714809Y-5357761D01*
X2810047Y-5405380D01*
X2905285Y-5405380D01*
X3381476Y-5405380D02*
X3286238Y-5357761D01*
X3238619Y-5310142D01*
X3190999Y-5214904D01*
X3190999Y-4929190D01*
X3238619Y-4833952D01*
X3286238Y-4786333D01*
X3381476Y-4738714D01*
X3524333Y-4738714D01*
X3619571Y-4786333D01*
X3667190Y-4833952D01*
X3714809Y-4929190D01*
X3714809Y-5214904D01*
X3667190Y-5310142D01*
X3619571Y-5357761D01*
X3524333Y-5405380D01*
X3381476Y-5405380D01*
X4143380Y-5405380D02*
X4143380Y-4738714D01*
X4143380Y-4929190D02*
X4190999Y-4833952D01*
X4238619Y-4786333D01*
X4333857Y-4738714D01*
X4429095Y-4738714D01*
X4952904Y-4405380D02*
X5143380Y-4405380D01*
X5238619Y-4453000D01*
X5333857Y-4548238D01*
X5381476Y-4738714D01*
X5381476Y-5072047D01*
X5333857Y-5262523D01*
X5238619Y-5357761D01*
X5143380Y-5405380D01*
X4952904Y-5405380D01*
X4857666Y-5357761D01*
X4762428Y-5262523D01*
X4714809Y-5072047D01*
X4714809Y-4738714D01*
X4762428Y-4548238D01*
X4857666Y-4453000D01*
X4952904Y-4405380D01*
X6238619Y-4738714D02*
X6238619Y-5405380D01*
X5810047Y-4738714D02*
X5810047Y-5262523D01*
X5857666Y-5357761D01*
X5952904Y-5405380D01*
X6095761Y-5405380D01*
X6191000Y-5357761D01*
X6238619Y-5310142D01*
X6571952Y-4738714D02*
X6952904Y-4738714D01*
X6714809Y-4405380D02*
X6714809Y-5262523D01*
X6762428Y-5357761D01*
X6857666Y-5405380D01*
X6952904Y-5405380D01*
X7810047Y-5405380D02*
X7238619Y-5405380D01*
X7524333Y-5405380D02*
X7524333Y-4405380D01*
X7429095Y-4548238D01*
X7333857Y-4643476D01*
X7238619Y-4691095D01*
G04 #@! TO.C,MotorGnd1*
X17494714Y-5405380D02*
X17494714Y-4405380D01*
X17828047Y-5119666D01*
X18161380Y-4405380D01*
X18161380Y-5405380D01*
X18780428Y-5405380D02*
X18685190Y-5357761D01*
X18637571Y-5310142D01*
X18589952Y-5214904D01*
X18589952Y-4929190D01*
X18637571Y-4833952D01*
X18685190Y-4786333D01*
X18780428Y-4738714D01*
X18923285Y-4738714D01*
X19018523Y-4786333D01*
X19066142Y-4833952D01*
X19113761Y-4929190D01*
X19113761Y-5214904D01*
X19066142Y-5310142D01*
X19018523Y-5357761D01*
X18923285Y-5405380D01*
X18780428Y-5405380D01*
X19399476Y-4738714D02*
X19780428Y-4738714D01*
X19542333Y-4405380D02*
X19542333Y-5262523D01*
X19589952Y-5357761D01*
X19685190Y-5405380D01*
X19780428Y-5405380D01*
X20256619Y-5405380D02*
X20161380Y-5357761D01*
X20113761Y-5310142D01*
X20066142Y-5214904D01*
X20066142Y-4929190D01*
X20113761Y-4833952D01*
X20161380Y-4786333D01*
X20256619Y-4738714D01*
X20399476Y-4738714D01*
X20494714Y-4786333D01*
X20542333Y-4833952D01*
X20589952Y-4929190D01*
X20589952Y-5214904D01*
X20542333Y-5310142D01*
X20494714Y-5357761D01*
X20399476Y-5405380D01*
X20256619Y-5405380D01*
X21018523Y-5405380D02*
X21018523Y-4738714D01*
X21018523Y-4929190D02*
X21066142Y-4833952D01*
X21113761Y-4786333D01*
X21209000Y-4738714D01*
X21304238Y-4738714D01*
X22161380Y-4453000D02*
X22066142Y-4405380D01*
X21923285Y-4405380D01*
X21780428Y-4453000D01*
X21685190Y-4548238D01*
X21637571Y-4643476D01*
X21589952Y-4833952D01*
X21589952Y-4976809D01*
X21637571Y-5167285D01*
X21685190Y-5262523D01*
X21780428Y-5357761D01*
X21923285Y-5405380D01*
X22018523Y-5405380D01*
X22161380Y-5357761D01*
X22209000Y-5310142D01*
X22209000Y-4976809D01*
X22018523Y-4976809D01*
X22637571Y-4738714D02*
X22637571Y-5405380D01*
X22637571Y-4833952D02*
X22685190Y-4786333D01*
X22780428Y-4738714D01*
X22923285Y-4738714D01*
X23018523Y-4786333D01*
X23066142Y-4881571D01*
X23066142Y-5405380D01*
X23970904Y-5405380D02*
X23970904Y-4405380D01*
X23970904Y-5357761D02*
X23875666Y-5405380D01*
X23685190Y-5405380D01*
X23589952Y-5357761D01*
X23542333Y-5310142D01*
X23494714Y-5214904D01*
X23494714Y-4929190D01*
X23542333Y-4833952D01*
X23589952Y-4786333D01*
X23685190Y-4738714D01*
X23875666Y-4738714D01*
X23970904Y-4786333D01*
X24970904Y-5405380D02*
X24399476Y-5405380D01*
X24685190Y-5405380D02*
X24685190Y-4405380D01*
X24589952Y-4548238D01*
X24494714Y-4643476D01*
X24399476Y-4691095D01*
G04 #@! TO.C,CardConnector1*
X7557142Y-37187142D02*
X7509523Y-37234761D01*
X7366666Y-37282380D01*
X7271428Y-37282380D01*
X7128571Y-37234761D01*
X7033333Y-37139523D01*
X6985714Y-37044285D01*
X6938095Y-36853809D01*
X6938095Y-36710952D01*
X6985714Y-36520476D01*
X7033333Y-36425238D01*
X7128571Y-36330000D01*
X7271428Y-36282380D01*
X7366666Y-36282380D01*
X7509523Y-36330000D01*
X7557142Y-36377619D01*
X8414285Y-37282380D02*
X8414285Y-36758571D01*
X8366666Y-36663333D01*
X8271428Y-36615714D01*
X8080952Y-36615714D01*
X7985714Y-36663333D01*
X8414285Y-37234761D02*
X8319047Y-37282380D01*
X8080952Y-37282380D01*
X7985714Y-37234761D01*
X7938095Y-37139523D01*
X7938095Y-37044285D01*
X7985714Y-36949047D01*
X8080952Y-36901428D01*
X8319047Y-36901428D01*
X8414285Y-36853809D01*
X8890476Y-37282380D02*
X8890476Y-36615714D01*
X8890476Y-36806190D02*
X8938095Y-36710952D01*
X8985714Y-36663333D01*
X9080952Y-36615714D01*
X9176190Y-36615714D01*
X9938095Y-37282380D02*
X9938095Y-36282380D01*
X9938095Y-37234761D02*
X9842857Y-37282380D01*
X9652380Y-37282380D01*
X9557142Y-37234761D01*
X9509523Y-37187142D01*
X9461904Y-37091904D01*
X9461904Y-36806190D01*
X9509523Y-36710952D01*
X9557142Y-36663333D01*
X9652380Y-36615714D01*
X9842857Y-36615714D01*
X9938095Y-36663333D01*
X10985714Y-37187142D02*
X10938095Y-37234761D01*
X10795238Y-37282380D01*
X10699999Y-37282380D01*
X10557142Y-37234761D01*
X10461904Y-37139523D01*
X10414285Y-37044285D01*
X10366666Y-36853809D01*
X10366666Y-36710952D01*
X10414285Y-36520476D01*
X10461904Y-36425238D01*
X10557142Y-36330000D01*
X10699999Y-36282380D01*
X10795238Y-36282380D01*
X10938095Y-36330000D01*
X10985714Y-36377619D01*
X11557142Y-37282380D02*
X11461904Y-37234761D01*
X11414285Y-37187142D01*
X11366666Y-37091904D01*
X11366666Y-36806190D01*
X11414285Y-36710952D01*
X11461904Y-36663333D01*
X11557142Y-36615714D01*
X11699999Y-36615714D01*
X11795238Y-36663333D01*
X11842857Y-36710952D01*
X11890476Y-36806190D01*
X11890476Y-37091904D01*
X11842857Y-37187142D01*
X11795238Y-37234761D01*
X11699999Y-37282380D01*
X11557142Y-37282380D01*
X12319047Y-36615714D02*
X12319047Y-37282380D01*
X12319047Y-36710952D02*
X12366666Y-36663333D01*
X12461904Y-36615714D01*
X12604761Y-36615714D01*
X12700000Y-36663333D01*
X12747619Y-36758571D01*
X12747619Y-37282380D01*
X13223809Y-36615714D02*
X13223809Y-37282380D01*
X13223809Y-36710952D02*
X13271428Y-36663333D01*
X13366666Y-36615714D01*
X13509523Y-36615714D01*
X13604761Y-36663333D01*
X13652380Y-36758571D01*
X13652380Y-37282380D01*
X14509523Y-37234761D02*
X14414285Y-37282380D01*
X14223809Y-37282380D01*
X14128571Y-37234761D01*
X14080952Y-37139523D01*
X14080952Y-36758571D01*
X14128571Y-36663333D01*
X14223809Y-36615714D01*
X14414285Y-36615714D01*
X14509523Y-36663333D01*
X14557142Y-36758571D01*
X14557142Y-36853809D01*
X14080952Y-36949047D01*
X15414285Y-37234761D02*
X15319047Y-37282380D01*
X15128571Y-37282380D01*
X15033333Y-37234761D01*
X14985714Y-37187142D01*
X14938095Y-37091904D01*
X14938095Y-36806190D01*
X14985714Y-36710952D01*
X15033333Y-36663333D01*
X15128571Y-36615714D01*
X15319047Y-36615714D01*
X15414285Y-36663333D01*
X15699999Y-36615714D02*
X16080952Y-36615714D01*
X15842857Y-36282380D02*
X15842857Y-37139523D01*
X15890476Y-37234761D01*
X15985714Y-37282380D01*
X16080952Y-37282380D01*
X16557142Y-37282380D02*
X16461904Y-37234761D01*
X16414285Y-37187142D01*
X16366666Y-37091904D01*
X16366666Y-36806190D01*
X16414285Y-36710952D01*
X16461904Y-36663333D01*
X16557142Y-36615714D01*
X16699999Y-36615714D01*
X16795238Y-36663333D01*
X16842857Y-36710952D01*
X16890476Y-36806190D01*
X16890476Y-37091904D01*
X16842857Y-37187142D01*
X16795238Y-37234761D01*
X16699999Y-37282380D01*
X16557142Y-37282380D01*
X17319047Y-37282380D02*
X17319047Y-36615714D01*
X17319047Y-36806190D02*
X17366666Y-36710952D01*
X17414285Y-36663333D01*
X17509523Y-36615714D01*
X17604761Y-36615714D01*
X18461904Y-37282380D02*
X17890476Y-37282380D01*
X18176190Y-37282380D02*
X18176190Y-36282380D01*
X18080952Y-36425238D01*
X17985714Y-36520476D01*
X17890476Y-36568095D01*
G04 #@! TD*
M02*
