M48
;DRILL file {KiCad (5.0.2)-1} date 1/20/2019 10:13:46 AM
;FORMAT={3:3/ absolute / metric / suppress leading zeros}
FMAT,2
METRIC,TZ
T1C0.400
T2C0.900
T3C1.000
T4C1.020
T5C1.270
%
G90
G05
T1
X3175Y-14351
X3175Y-15875
X4064Y-18796
X4064Y-20060
X4064Y-22606
X4064Y-25654
X4064Y-26924
X4064Y-28194
X4572Y-8890
X4572Y-10287
X4572Y-11684
X4699Y-14351
X4699Y-15875
X7747Y-10922
X7747Y-18288
X7747Y-18288
X7747Y-18288
X7747Y-19431
X9271Y-17018
X9652Y-12992
X9652Y-14351
X11049Y-12446
X11049Y-16383
X12700Y-11176
X12700Y-14478
X12700Y-17780
X13081Y-19304
X13081Y-21590
X14351Y-12446
X14351Y-16510
X16256Y-19939
X16383Y-22860
X17920Y-11963
X17920Y-13983
X17945Y-12967
X19050Y-14986
X19050Y-16002
T2
X9458Y-25400
X11958Y-25400
X14458Y-25400
X16958Y-25400
T3
X8890Y-7747
X11430Y-7747
X13970Y-7747
X16510Y-7747
T4
X5080Y-31750
X5080Y-34290
X7620Y-31750
X7620Y-34290
X10160Y-31750
X10160Y-34290
X12700Y-31750
X12700Y-34290
X15240Y-31750
X15240Y-34290
X17780Y-31750
X17780Y-34290
X20320Y-31750
X20320Y-34290
T5
X18340Y-2540G85X22300Y-2540
G05
X3100Y-2540G85X7060Y-2540
G05
T0
M30
