M48
;DRILL file {KiCad (5.0.2)-1} date 1/20/2019 8:23:09 AM
;FORMAT={3:3/ absolute / metric / suppress leading zeros}
FMAT,2
METRIC,TZ
T1C0.400
T2C1.000
T3C1.020
T4C1.270
T5C3.200
%
G90
G05
T1
X3556Y-63754
X10414Y-6096
X10414Y-9398
X10414Y-12954
X12192Y-34163
X12192Y-36068
X12192Y-38481
X12192Y-40513
X12446Y-27178
X12446Y-28829
X12446Y-30353
X12827Y-16383
X13970Y-27178
X14351Y-16383
X14351Y-29337
X14351Y-31877
X15240Y-27178
X15240Y-35052
X15240Y-37592
X15240Y-39497
X15240Y-42164
X15621Y-16383
X16383Y-30480
X16383Y-32131
X16510Y-27178
X16510Y-92456
X16764Y-90424
X17145Y-29464
X17145Y-33020
X17780Y-27178
X17907Y-30480
X17907Y-32131
X18796Y-10922
X18796Y-12446
X19177Y-27178
X19939Y-29337
X20066Y-16383
X20574Y-27178
X21590Y-16383
X22860Y-37846
X22860Y-105410
X22860Y-107315
X22860Y-109855
X22860Y-111760
X22987Y-16383
X24130Y-109855
X24130Y-111760
X24765Y-105410
X24765Y-107315
X25400Y-109855
X25400Y-111760
X26670Y-16383
X26670Y-105410
X26670Y-107315
X26670Y-109855
X26670Y-111760
X27305Y-33909
X27305Y-35687
X27305Y-38227
X27305Y-40132
X27432Y-27115
X27432Y-28639
X27432Y-30226
X28123Y-16383
X29146Y-27115
X29337Y-29337
X29337Y-31877
X29464Y-16383
X30226Y-34544
X30226Y-37529
X30226Y-39433
X30226Y-41910
X30670Y-27115
X31369Y-30480
X31369Y-32131
X32131Y-27115
X32131Y-29464
X32131Y-33020
X32893Y-30480
X32893Y-32131
X33592Y-27115
X33655Y-16383
X34925Y-29337
X34925Y-29337
X34925Y-29337
X35052Y-16383
X35052Y-27115
X36449Y-16383
X37846Y-37846
X41148Y-33782
X41148Y-35814
X41148Y-38227
X41148Y-40259
X41212Y-26480
X41212Y-27559
X41212Y-28956
X41212Y-30353
X41783Y-16256
X42672Y-26480
X42926Y-29337
X42926Y-31877
X43180Y-16256
X43815Y-35052
X43815Y-37592
X43815Y-39497
X43815Y-42037
X44260Y-26480
X44577Y-16256
X44831Y-30607
X44831Y-32004
X45593Y-29464
X45720Y-33020
X45911Y-26480
X46482Y-30607
X46482Y-32004
X47498Y-26480
X48514Y-29337
X48641Y-16256
X49022Y-26480
X50165Y-16256
X50800Y-106045
X50800Y-107950
X50800Y-110490
X51689Y-16256
X52705Y-106045
X52705Y-107950
X52705Y-110490
X57150Y-64008
T2
X3810Y-4826
X3810Y-7366
X3810Y-11303
X3810Y-13843
T3
X57150Y-68580
X57150Y-71120
X57150Y-73660
X57150Y-76200
X57150Y-78740
X57150Y-81280
X57150Y-83820
X59690Y-68580
X59690Y-71120
X59690Y-73660
X59690Y-76200
X59690Y-78740
X59690Y-81280
X59690Y-83820
X57150Y-43180
X57150Y-45720
X57150Y-48260
X57150Y-50800
X57150Y-53340
X57150Y-55880
X57150Y-58420
X59690Y-43180
X59690Y-45720
X59690Y-48260
X59690Y-50800
X59690Y-53340
X59690Y-55880
X59690Y-58420
X57150Y-17780
X57150Y-20320
X57150Y-22860
X57150Y-25400
X57150Y-27940
X57150Y-30480
X57150Y-33020
X59690Y-17780
X59690Y-20320
X59690Y-22860
X59690Y-25400
X59690Y-27940
X59690Y-30480
X59690Y-33020
X3810Y-17780
X3810Y-20320
X3810Y-22860
X3810Y-25400
X3810Y-27940
X3810Y-30480
X3810Y-33020
X6350Y-17780
X6350Y-20320
X6350Y-22860
X6350Y-25400
X6350Y-27940
X6350Y-30480
X6350Y-33020
X3810Y-93980
X3810Y-96520
X3810Y-99060
X3810Y-101600
X3810Y-104140
X3810Y-106680
X3810Y-109220
X6350Y-93980
X6350Y-96520
X6350Y-99060
X6350Y-101600
X6350Y-104140
X6350Y-106680
X6350Y-109220
X16042Y-23241
X21042Y-23241
X29885Y-22987
X34885Y-22987
X3810Y-43180
X3810Y-45720
X3810Y-48260
X3810Y-50800
X3810Y-53340
X3810Y-55880
X3810Y-58420
X6350Y-43180
X6350Y-45720
X6350Y-48260
X6350Y-50800
X6350Y-53340
X6350Y-55880
X6350Y-58420
X30480Y-44450
X30480Y-46990
X30480Y-49530
X30480Y-52070
X30480Y-54610
X30480Y-57150
X30480Y-59690
X30480Y-62230
X30480Y-64770
X30480Y-67310
X30480Y-69850
X30480Y-72390
X30480Y-74930
X30480Y-77470
X30480Y-80010
X30480Y-82550
X30480Y-85090
X30480Y-87630
X30480Y-90170
X30480Y-92710
X30480Y-95250
X30480Y-97790
X30480Y-100330
X30480Y-102870
X33020Y-44450
X33020Y-46990
X33020Y-49530
X33020Y-52070
X33020Y-54610
X33020Y-57150
X33020Y-59690
X33020Y-62230
X33020Y-64770
X33020Y-67310
X33020Y-69850
X33020Y-72390
X33020Y-74930
X33020Y-77470
X33020Y-80010
X33020Y-82550
X33020Y-85090
X33020Y-87630
X33020Y-90170
X33020Y-92710
X33020Y-95250
X33020Y-97790
X33020Y-100330
X33020Y-102870
X3810Y-68580
X3810Y-71120
X3810Y-73660
X3810Y-76200
X3810Y-78740
X3810Y-81280
X3810Y-83820
X6350Y-68580
X6350Y-71120
X6350Y-73660
X6350Y-76200
X6350Y-78740
X6350Y-81280
X6350Y-83820
X57150Y-93980
X57150Y-96520
X57150Y-99060
X57150Y-101600
X57150Y-104140
X57150Y-106680
X57150Y-109220
X59690Y-93980
X59690Y-96520
X59690Y-99060
X59690Y-101600
X59690Y-104140
X59690Y-106680
X59690Y-109220
X43601Y-22987
X48601Y-22987
T5
X59690Y-38100
X3810Y-38100
X59690Y-88900
X3810Y-88900
T2
X46085Y-2715G85X44085Y-2715
G05
X46335Y-8715G85X43835Y-8715
G05
X35925Y-2715G85X33925Y-2715
G05
X36175Y-8715G85X33675Y-8715
G05
X56245Y-2715G85X54245Y-2715
G05
X56495Y-8715G85X53995Y-8715
G05
T4
X9600Y-116205G85X5640Y-116205
G05
X41985Y-116205G85X38025Y-116205
G05
X57860Y-116205G85X53900Y-116205
G05
X25475Y-116205G85X21515Y-116205
G05
T0
M30
