G04 #@! TF.GenerationSoftware,KiCad,Pcbnew,(5.0.2)-1*
G04 #@! TF.CreationDate,2019-01-24T17:57:40-05:00*
G04 #@! TF.ProjectId,modular_backplane,6d6f6475-6c61-4725-9f62-61636b706c61,rev?*
G04 #@! TF.SameCoordinates,Original*
G04 #@! TF.FileFunction,Copper,L1,Top*
G04 #@! TF.FilePolarity,Positive*
%FSLAX46Y46*%
G04 Gerber Fmt 4.6, Leading zero omitted, Abs format (unit mm)*
G04 Created by KiCad (PCBNEW (5.0.2)-1) date 1/24/2019 5:57:40 PM*
%MOMM*%
%LPD*%
G01*
G04 APERTURE LIST*
G04 #@! TA.AperFunction,ComponentPad*
%ADD10R,4.000000X2.000000*%
G04 #@! TD*
G04 #@! TA.AperFunction,ComponentPad*
%ADD11R,4.500000X2.000000*%
G04 #@! TD*
G04 #@! TA.AperFunction,SMDPad,CuDef*
%ADD12R,2.613000X4.612000*%
G04 #@! TD*
G04 #@! TA.AperFunction,SMDPad,CuDef*
%ADD13R,1.505000X0.802000*%
G04 #@! TD*
G04 #@! TA.AperFunction,ComponentPad*
%ADD14C,2.020000*%
G04 #@! TD*
G04 #@! TA.AperFunction,Conductor*
%ADD15C,0.100000*%
G04 #@! TD*
G04 #@! TA.AperFunction,SMDPad,CuDef*
%ADD16C,1.425000*%
G04 #@! TD*
G04 #@! TA.AperFunction,ComponentPad*
%ADD17O,6.230000X2.270000*%
G04 #@! TD*
G04 #@! TA.AperFunction,SMDPad,CuDef*
%ADD18R,2.600000X1.500000*%
G04 #@! TD*
G04 #@! TA.AperFunction,SMDPad,CuDef*
%ADD19R,5.700000X5.700000*%
G04 #@! TD*
G04 #@! TA.AperFunction,SMDPad,CuDef*
%ADD20R,1.900000X3.000000*%
G04 #@! TD*
G04 #@! TA.AperFunction,SMDPad,CuDef*
%ADD21R,6.460000X6.200000*%
G04 #@! TD*
G04 #@! TA.AperFunction,ComponentPad*
%ADD22C,2.000000*%
G04 #@! TD*
G04 #@! TA.AperFunction,ComponentPad*
%ADD23C,4.200000*%
G04 #@! TD*
G04 #@! TA.AperFunction,ViaPad*
%ADD24C,0.800000*%
G04 #@! TD*
G04 #@! TA.AperFunction,Conductor*
%ADD25C,0.250000*%
G04 #@! TD*
G04 #@! TA.AperFunction,Conductor*
%ADD26C,0.254000*%
G04 #@! TD*
%ADD27C,0.254000*%
G04 APERTURE END LIST*
D10*
G04 #@! TO.P,barrelJack1,2*
G04 #@! TO.N,GND*
X45085000Y-2715000D03*
D11*
G04 #@! TO.P,barrelJack1,1*
G04 #@! TO.N,+5V*
X45085000Y-8715000D03*
G04 #@! TD*
D12*
G04 #@! TO.P,rail12v1,9*
G04 #@! TO.N,GND*
X45720000Y-31242000D03*
D13*
G04 #@! TO.P,rail12v1,4*
X43222500Y-33147000D03*
G04 #@! TO.P,rail12v1,5*
G04 #@! TO.N,Net-(R17-Pad2)*
X48217500Y-33147000D03*
G04 #@! TO.P,rail12v1,3*
G04 #@! TO.N,Net-(C13-Pad1)*
X43222500Y-31877000D03*
G04 #@! TO.P,rail12v1,6*
G04 #@! TO.N,Net-(C15-Pad1)*
X48217500Y-31877000D03*
G04 #@! TO.P,rail12v1,2*
G04 #@! TO.N,+15V*
X43222500Y-30607000D03*
G04 #@! TO.P,rail12v1,7*
G04 #@! TO.N,Net-(R20-Pad2)*
X48217500Y-30607000D03*
G04 #@! TO.P,rail12v1,1*
G04 #@! TO.N,Net-(C13-Pad2)*
X43222500Y-29337000D03*
G04 #@! TO.P,rail12v1,8*
G04 #@! TO.N,Net-(C14-Pad1)*
X48217500Y-29337000D03*
G04 #@! TD*
D14*
G04 #@! TO.P,L1,2*
G04 #@! TO.N,Net-(C3-Pad1)*
X29885000Y-22987000D03*
G04 #@! TO.P,L1,1*
G04 #@! TO.N,+5V*
X34885000Y-22987000D03*
G04 #@! TD*
G04 #@! TO.P,L2,2*
G04 #@! TO.N,Net-(C8-Pad1)*
X16042000Y-23241000D03*
G04 #@! TO.P,L2,1*
G04 #@! TO.N,+3V3*
X21042000Y-23241000D03*
G04 #@! TD*
D10*
G04 #@! TO.P,barrelJack2,2*
G04 #@! TO.N,GND*
X55245000Y-2715000D03*
D11*
G04 #@! TO.P,barrelJack2,1*
G04 #@! TO.N,+12V*
X55245000Y-8715000D03*
G04 #@! TD*
D10*
G04 #@! TO.P,barrelJack3,2*
G04 #@! TO.N,GND*
X34925000Y-2715000D03*
D11*
G04 #@! TO.P,barrelJack3,1*
G04 #@! TO.N,+3V3*
X34925000Y-8715000D03*
G04 #@! TD*
D15*
G04 #@! TO.N,Net-(C5-Pad2)*
G04 #@! TO.C,C5*
G36*
X38432004Y-34494704D02*
X38456273Y-34498304D01*
X38480071Y-34504265D01*
X38503171Y-34512530D01*
X38525349Y-34523020D01*
X38546393Y-34535633D01*
X38566098Y-34550247D01*
X38584277Y-34566723D01*
X38600753Y-34584902D01*
X38615367Y-34604607D01*
X38627980Y-34625651D01*
X38638470Y-34647829D01*
X38646735Y-34670929D01*
X38652696Y-34694727D01*
X38656296Y-34718996D01*
X38657500Y-34743500D01*
X38657500Y-35668500D01*
X38656296Y-35693004D01*
X38652696Y-35717273D01*
X38646735Y-35741071D01*
X38638470Y-35764171D01*
X38627980Y-35786349D01*
X38615367Y-35807393D01*
X38600753Y-35827098D01*
X38584277Y-35845277D01*
X38566098Y-35861753D01*
X38546393Y-35876367D01*
X38525349Y-35888980D01*
X38503171Y-35899470D01*
X38480071Y-35907735D01*
X38456273Y-35913696D01*
X38432004Y-35917296D01*
X38407500Y-35918500D01*
X37157500Y-35918500D01*
X37132996Y-35917296D01*
X37108727Y-35913696D01*
X37084929Y-35907735D01*
X37061829Y-35899470D01*
X37039651Y-35888980D01*
X37018607Y-35876367D01*
X36998902Y-35861753D01*
X36980723Y-35845277D01*
X36964247Y-35827098D01*
X36949633Y-35807393D01*
X36937020Y-35786349D01*
X36926530Y-35764171D01*
X36918265Y-35741071D01*
X36912304Y-35717273D01*
X36908704Y-35693004D01*
X36907500Y-35668500D01*
X36907500Y-34743500D01*
X36908704Y-34718996D01*
X36912304Y-34694727D01*
X36918265Y-34670929D01*
X36926530Y-34647829D01*
X36937020Y-34625651D01*
X36949633Y-34604607D01*
X36964247Y-34584902D01*
X36980723Y-34566723D01*
X36998902Y-34550247D01*
X37018607Y-34535633D01*
X37039651Y-34523020D01*
X37061829Y-34512530D01*
X37084929Y-34504265D01*
X37108727Y-34498304D01*
X37132996Y-34494704D01*
X37157500Y-34493500D01*
X38407500Y-34493500D01*
X38432004Y-34494704D01*
X38432004Y-34494704D01*
G37*
D16*
G04 #@! TD*
G04 #@! TO.P,C5,2*
G04 #@! TO.N,Net-(C5-Pad2)*
X37782500Y-35206000D03*
D15*
G04 #@! TO.N,Net-(C5-Pad1)*
G04 #@! TO.C,C5*
G36*
X38432004Y-31519704D02*
X38456273Y-31523304D01*
X38480071Y-31529265D01*
X38503171Y-31537530D01*
X38525349Y-31548020D01*
X38546393Y-31560633D01*
X38566098Y-31575247D01*
X38584277Y-31591723D01*
X38600753Y-31609902D01*
X38615367Y-31629607D01*
X38627980Y-31650651D01*
X38638470Y-31672829D01*
X38646735Y-31695929D01*
X38652696Y-31719727D01*
X38656296Y-31743996D01*
X38657500Y-31768500D01*
X38657500Y-32693500D01*
X38656296Y-32718004D01*
X38652696Y-32742273D01*
X38646735Y-32766071D01*
X38638470Y-32789171D01*
X38627980Y-32811349D01*
X38615367Y-32832393D01*
X38600753Y-32852098D01*
X38584277Y-32870277D01*
X38566098Y-32886753D01*
X38546393Y-32901367D01*
X38525349Y-32913980D01*
X38503171Y-32924470D01*
X38480071Y-32932735D01*
X38456273Y-32938696D01*
X38432004Y-32942296D01*
X38407500Y-32943500D01*
X37157500Y-32943500D01*
X37132996Y-32942296D01*
X37108727Y-32938696D01*
X37084929Y-32932735D01*
X37061829Y-32924470D01*
X37039651Y-32913980D01*
X37018607Y-32901367D01*
X36998902Y-32886753D01*
X36980723Y-32870277D01*
X36964247Y-32852098D01*
X36949633Y-32832393D01*
X36937020Y-32811349D01*
X36926530Y-32789171D01*
X36918265Y-32766071D01*
X36912304Y-32742273D01*
X36908704Y-32718004D01*
X36907500Y-32693500D01*
X36907500Y-31768500D01*
X36908704Y-31743996D01*
X36912304Y-31719727D01*
X36918265Y-31695929D01*
X36926530Y-31672829D01*
X36937020Y-31650651D01*
X36949633Y-31629607D01*
X36964247Y-31609902D01*
X36980723Y-31591723D01*
X36998902Y-31575247D01*
X37018607Y-31560633D01*
X37039651Y-31548020D01*
X37061829Y-31537530D01*
X37084929Y-31529265D01*
X37108727Y-31523304D01*
X37132996Y-31519704D01*
X37157500Y-31518500D01*
X38407500Y-31518500D01*
X38432004Y-31519704D01*
X38432004Y-31519704D01*
G37*
D16*
G04 #@! TD*
G04 #@! TO.P,C5,1*
G04 #@! TO.N,Net-(C5-Pad1)*
X37782500Y-32231000D03*
D15*
G04 #@! TO.N,Net-(C10-Pad2)*
G04 #@! TO.C,C10*
G36*
X23382504Y-34558204D02*
X23406773Y-34561804D01*
X23430571Y-34567765D01*
X23453671Y-34576030D01*
X23475849Y-34586520D01*
X23496893Y-34599133D01*
X23516598Y-34613747D01*
X23534777Y-34630223D01*
X23551253Y-34648402D01*
X23565867Y-34668107D01*
X23578480Y-34689151D01*
X23588970Y-34711329D01*
X23597235Y-34734429D01*
X23603196Y-34758227D01*
X23606796Y-34782496D01*
X23608000Y-34807000D01*
X23608000Y-35732000D01*
X23606796Y-35756504D01*
X23603196Y-35780773D01*
X23597235Y-35804571D01*
X23588970Y-35827671D01*
X23578480Y-35849849D01*
X23565867Y-35870893D01*
X23551253Y-35890598D01*
X23534777Y-35908777D01*
X23516598Y-35925253D01*
X23496893Y-35939867D01*
X23475849Y-35952480D01*
X23453671Y-35962970D01*
X23430571Y-35971235D01*
X23406773Y-35977196D01*
X23382504Y-35980796D01*
X23358000Y-35982000D01*
X22108000Y-35982000D01*
X22083496Y-35980796D01*
X22059227Y-35977196D01*
X22035429Y-35971235D01*
X22012329Y-35962970D01*
X21990151Y-35952480D01*
X21969107Y-35939867D01*
X21949402Y-35925253D01*
X21931223Y-35908777D01*
X21914747Y-35890598D01*
X21900133Y-35870893D01*
X21887520Y-35849849D01*
X21877030Y-35827671D01*
X21868765Y-35804571D01*
X21862804Y-35780773D01*
X21859204Y-35756504D01*
X21858000Y-35732000D01*
X21858000Y-34807000D01*
X21859204Y-34782496D01*
X21862804Y-34758227D01*
X21868765Y-34734429D01*
X21877030Y-34711329D01*
X21887520Y-34689151D01*
X21900133Y-34668107D01*
X21914747Y-34648402D01*
X21931223Y-34630223D01*
X21949402Y-34613747D01*
X21969107Y-34599133D01*
X21990151Y-34586520D01*
X22012329Y-34576030D01*
X22035429Y-34567765D01*
X22059227Y-34561804D01*
X22083496Y-34558204D01*
X22108000Y-34557000D01*
X23358000Y-34557000D01*
X23382504Y-34558204D01*
X23382504Y-34558204D01*
G37*
D16*
G04 #@! TD*
G04 #@! TO.P,C10,2*
G04 #@! TO.N,Net-(C10-Pad2)*
X22733000Y-35269500D03*
D15*
G04 #@! TO.N,Net-(C10-Pad1)*
G04 #@! TO.C,C10*
G36*
X23382504Y-31583204D02*
X23406773Y-31586804D01*
X23430571Y-31592765D01*
X23453671Y-31601030D01*
X23475849Y-31611520D01*
X23496893Y-31624133D01*
X23516598Y-31638747D01*
X23534777Y-31655223D01*
X23551253Y-31673402D01*
X23565867Y-31693107D01*
X23578480Y-31714151D01*
X23588970Y-31736329D01*
X23597235Y-31759429D01*
X23603196Y-31783227D01*
X23606796Y-31807496D01*
X23608000Y-31832000D01*
X23608000Y-32757000D01*
X23606796Y-32781504D01*
X23603196Y-32805773D01*
X23597235Y-32829571D01*
X23588970Y-32852671D01*
X23578480Y-32874849D01*
X23565867Y-32895893D01*
X23551253Y-32915598D01*
X23534777Y-32933777D01*
X23516598Y-32950253D01*
X23496893Y-32964867D01*
X23475849Y-32977480D01*
X23453671Y-32987970D01*
X23430571Y-32996235D01*
X23406773Y-33002196D01*
X23382504Y-33005796D01*
X23358000Y-33007000D01*
X22108000Y-33007000D01*
X22083496Y-33005796D01*
X22059227Y-33002196D01*
X22035429Y-32996235D01*
X22012329Y-32987970D01*
X21990151Y-32977480D01*
X21969107Y-32964867D01*
X21949402Y-32950253D01*
X21931223Y-32933777D01*
X21914747Y-32915598D01*
X21900133Y-32895893D01*
X21887520Y-32874849D01*
X21877030Y-32852671D01*
X21868765Y-32829571D01*
X21862804Y-32805773D01*
X21859204Y-32781504D01*
X21858000Y-32757000D01*
X21858000Y-31832000D01*
X21859204Y-31807496D01*
X21862804Y-31783227D01*
X21868765Y-31759429D01*
X21877030Y-31736329D01*
X21887520Y-31714151D01*
X21900133Y-31693107D01*
X21914747Y-31673402D01*
X21931223Y-31655223D01*
X21949402Y-31638747D01*
X21969107Y-31624133D01*
X21990151Y-31611520D01*
X22012329Y-31601030D01*
X22035429Y-31592765D01*
X22059227Y-31586804D01*
X22083496Y-31583204D01*
X22108000Y-31582000D01*
X23358000Y-31582000D01*
X23382504Y-31583204D01*
X23382504Y-31583204D01*
G37*
D16*
G04 #@! TD*
G04 #@! TO.P,C10,1*
G04 #@! TO.N,Net-(C10-Pad1)*
X22733000Y-32294500D03*
D17*
G04 #@! TO.P,lipoGnd1,1*
G04 #@! TO.N,GND*
X23495000Y-116205000D03*
G04 #@! TD*
G04 #@! TO.P,LipoGnd2,1*
G04 #@! TO.N,GND*
X55880000Y-116205000D03*
G04 #@! TD*
G04 #@! TO.P,lipoIn1,1*
G04 #@! TO.N,liPo1*
X7620000Y-116205000D03*
G04 #@! TD*
G04 #@! TO.P,lipoIn2,1*
G04 #@! TO.N,liPo2*
X40005000Y-116205000D03*
G04 #@! TD*
D15*
G04 #@! TO.N,GND*
G04 #@! TO.C,R1*
G36*
X10864504Y-10556204D02*
X10888773Y-10559804D01*
X10912571Y-10565765D01*
X10935671Y-10574030D01*
X10957849Y-10584520D01*
X10978893Y-10597133D01*
X10998598Y-10611747D01*
X11016777Y-10628223D01*
X11033253Y-10646402D01*
X11047867Y-10666107D01*
X11060480Y-10687151D01*
X11070970Y-10709329D01*
X11079235Y-10732429D01*
X11085196Y-10756227D01*
X11088796Y-10780496D01*
X11090000Y-10805000D01*
X11090000Y-12055000D01*
X11088796Y-12079504D01*
X11085196Y-12103773D01*
X11079235Y-12127571D01*
X11070970Y-12150671D01*
X11060480Y-12172849D01*
X11047867Y-12193893D01*
X11033253Y-12213598D01*
X11016777Y-12231777D01*
X10998598Y-12248253D01*
X10978893Y-12262867D01*
X10957849Y-12275480D01*
X10935671Y-12285970D01*
X10912571Y-12294235D01*
X10888773Y-12300196D01*
X10864504Y-12303796D01*
X10840000Y-12305000D01*
X9915000Y-12305000D01*
X9890496Y-12303796D01*
X9866227Y-12300196D01*
X9842429Y-12294235D01*
X9819329Y-12285970D01*
X9797151Y-12275480D01*
X9776107Y-12262867D01*
X9756402Y-12248253D01*
X9738223Y-12231777D01*
X9721747Y-12213598D01*
X9707133Y-12193893D01*
X9694520Y-12172849D01*
X9684030Y-12150671D01*
X9675765Y-12127571D01*
X9669804Y-12103773D01*
X9666204Y-12079504D01*
X9665000Y-12055000D01*
X9665000Y-10805000D01*
X9666204Y-10780496D01*
X9669804Y-10756227D01*
X9675765Y-10732429D01*
X9684030Y-10709329D01*
X9694520Y-10687151D01*
X9707133Y-10666107D01*
X9721747Y-10646402D01*
X9738223Y-10628223D01*
X9756402Y-10611747D01*
X9776107Y-10597133D01*
X9797151Y-10584520D01*
X9819329Y-10574030D01*
X9842429Y-10565765D01*
X9866227Y-10559804D01*
X9890496Y-10556204D01*
X9915000Y-10555000D01*
X10840000Y-10555000D01*
X10864504Y-10556204D01*
X10864504Y-10556204D01*
G37*
D16*
G04 #@! TD*
G04 #@! TO.P,R1,2*
G04 #@! TO.N,GND*
X10377500Y-11430000D03*
D15*
G04 #@! TO.N,monitorEna1*
G04 #@! TO.C,R1*
G36*
X7889504Y-10556204D02*
X7913773Y-10559804D01*
X7937571Y-10565765D01*
X7960671Y-10574030D01*
X7982849Y-10584520D01*
X8003893Y-10597133D01*
X8023598Y-10611747D01*
X8041777Y-10628223D01*
X8058253Y-10646402D01*
X8072867Y-10666107D01*
X8085480Y-10687151D01*
X8095970Y-10709329D01*
X8104235Y-10732429D01*
X8110196Y-10756227D01*
X8113796Y-10780496D01*
X8115000Y-10805000D01*
X8115000Y-12055000D01*
X8113796Y-12079504D01*
X8110196Y-12103773D01*
X8104235Y-12127571D01*
X8095970Y-12150671D01*
X8085480Y-12172849D01*
X8072867Y-12193893D01*
X8058253Y-12213598D01*
X8041777Y-12231777D01*
X8023598Y-12248253D01*
X8003893Y-12262867D01*
X7982849Y-12275480D01*
X7960671Y-12285970D01*
X7937571Y-12294235D01*
X7913773Y-12300196D01*
X7889504Y-12303796D01*
X7865000Y-12305000D01*
X6940000Y-12305000D01*
X6915496Y-12303796D01*
X6891227Y-12300196D01*
X6867429Y-12294235D01*
X6844329Y-12285970D01*
X6822151Y-12275480D01*
X6801107Y-12262867D01*
X6781402Y-12248253D01*
X6763223Y-12231777D01*
X6746747Y-12213598D01*
X6732133Y-12193893D01*
X6719520Y-12172849D01*
X6709030Y-12150671D01*
X6700765Y-12127571D01*
X6694804Y-12103773D01*
X6691204Y-12079504D01*
X6690000Y-12055000D01*
X6690000Y-10805000D01*
X6691204Y-10780496D01*
X6694804Y-10756227D01*
X6700765Y-10732429D01*
X6709030Y-10709329D01*
X6719520Y-10687151D01*
X6732133Y-10666107D01*
X6746747Y-10646402D01*
X6763223Y-10628223D01*
X6781402Y-10611747D01*
X6801107Y-10597133D01*
X6822151Y-10584520D01*
X6844329Y-10574030D01*
X6867429Y-10565765D01*
X6891227Y-10559804D01*
X6915496Y-10556204D01*
X6940000Y-10555000D01*
X7865000Y-10555000D01*
X7889504Y-10556204D01*
X7889504Y-10556204D01*
G37*
D16*
G04 #@! TD*
G04 #@! TO.P,R1,1*
G04 #@! TO.N,monitorEna1*
X7402500Y-11430000D03*
D15*
G04 #@! TO.N,monitor1*
G04 #@! TO.C,R2*
G36*
X7889504Y-1920204D02*
X7913773Y-1923804D01*
X7937571Y-1929765D01*
X7960671Y-1938030D01*
X7982849Y-1948520D01*
X8003893Y-1961133D01*
X8023598Y-1975747D01*
X8041777Y-1992223D01*
X8058253Y-2010402D01*
X8072867Y-2030107D01*
X8085480Y-2051151D01*
X8095970Y-2073329D01*
X8104235Y-2096429D01*
X8110196Y-2120227D01*
X8113796Y-2144496D01*
X8115000Y-2169000D01*
X8115000Y-3419000D01*
X8113796Y-3443504D01*
X8110196Y-3467773D01*
X8104235Y-3491571D01*
X8095970Y-3514671D01*
X8085480Y-3536849D01*
X8072867Y-3557893D01*
X8058253Y-3577598D01*
X8041777Y-3595777D01*
X8023598Y-3612253D01*
X8003893Y-3626867D01*
X7982849Y-3639480D01*
X7960671Y-3649970D01*
X7937571Y-3658235D01*
X7913773Y-3664196D01*
X7889504Y-3667796D01*
X7865000Y-3669000D01*
X6940000Y-3669000D01*
X6915496Y-3667796D01*
X6891227Y-3664196D01*
X6867429Y-3658235D01*
X6844329Y-3649970D01*
X6822151Y-3639480D01*
X6801107Y-3626867D01*
X6781402Y-3612253D01*
X6763223Y-3595777D01*
X6746747Y-3577598D01*
X6732133Y-3557893D01*
X6719520Y-3536849D01*
X6709030Y-3514671D01*
X6700765Y-3491571D01*
X6694804Y-3467773D01*
X6691204Y-3443504D01*
X6690000Y-3419000D01*
X6690000Y-2169000D01*
X6691204Y-2144496D01*
X6694804Y-2120227D01*
X6700765Y-2096429D01*
X6709030Y-2073329D01*
X6719520Y-2051151D01*
X6732133Y-2030107D01*
X6746747Y-2010402D01*
X6763223Y-1992223D01*
X6781402Y-1975747D01*
X6801107Y-1961133D01*
X6822151Y-1948520D01*
X6844329Y-1938030D01*
X6867429Y-1929765D01*
X6891227Y-1923804D01*
X6915496Y-1920204D01*
X6940000Y-1919000D01*
X7865000Y-1919000D01*
X7889504Y-1920204D01*
X7889504Y-1920204D01*
G37*
D16*
G04 #@! TD*
G04 #@! TO.P,R2,2*
G04 #@! TO.N,monitor1*
X7402500Y-2794000D03*
D15*
G04 #@! TO.N,Net-(MonitorFet1-Pad2)*
G04 #@! TO.C,R2*
G36*
X10864504Y-1920204D02*
X10888773Y-1923804D01*
X10912571Y-1929765D01*
X10935671Y-1938030D01*
X10957849Y-1948520D01*
X10978893Y-1961133D01*
X10998598Y-1975747D01*
X11016777Y-1992223D01*
X11033253Y-2010402D01*
X11047867Y-2030107D01*
X11060480Y-2051151D01*
X11070970Y-2073329D01*
X11079235Y-2096429D01*
X11085196Y-2120227D01*
X11088796Y-2144496D01*
X11090000Y-2169000D01*
X11090000Y-3419000D01*
X11088796Y-3443504D01*
X11085196Y-3467773D01*
X11079235Y-3491571D01*
X11070970Y-3514671D01*
X11060480Y-3536849D01*
X11047867Y-3557893D01*
X11033253Y-3577598D01*
X11016777Y-3595777D01*
X10998598Y-3612253D01*
X10978893Y-3626867D01*
X10957849Y-3639480D01*
X10935671Y-3649970D01*
X10912571Y-3658235D01*
X10888773Y-3664196D01*
X10864504Y-3667796D01*
X10840000Y-3669000D01*
X9915000Y-3669000D01*
X9890496Y-3667796D01*
X9866227Y-3664196D01*
X9842429Y-3658235D01*
X9819329Y-3649970D01*
X9797151Y-3639480D01*
X9776107Y-3626867D01*
X9756402Y-3612253D01*
X9738223Y-3595777D01*
X9721747Y-3577598D01*
X9707133Y-3557893D01*
X9694520Y-3536849D01*
X9684030Y-3514671D01*
X9675765Y-3491571D01*
X9669804Y-3467773D01*
X9666204Y-3443504D01*
X9665000Y-3419000D01*
X9665000Y-2169000D01*
X9666204Y-2144496D01*
X9669804Y-2120227D01*
X9675765Y-2096429D01*
X9684030Y-2073329D01*
X9694520Y-2051151D01*
X9707133Y-2030107D01*
X9721747Y-2010402D01*
X9738223Y-1992223D01*
X9756402Y-1975747D01*
X9776107Y-1961133D01*
X9797151Y-1948520D01*
X9819329Y-1938030D01*
X9842429Y-1929765D01*
X9866227Y-1923804D01*
X9890496Y-1920204D01*
X9915000Y-1919000D01*
X10840000Y-1919000D01*
X10864504Y-1920204D01*
X10864504Y-1920204D01*
G37*
D16*
G04 #@! TD*
G04 #@! TO.P,R2,1*
G04 #@! TO.N,Net-(MonitorFet1-Pad2)*
X10377500Y-2794000D03*
D15*
G04 #@! TO.N,GND*
G04 #@! TO.C,R3*
G36*
X10864504Y-6746204D02*
X10888773Y-6749804D01*
X10912571Y-6755765D01*
X10935671Y-6764030D01*
X10957849Y-6774520D01*
X10978893Y-6787133D01*
X10998598Y-6801747D01*
X11016777Y-6818223D01*
X11033253Y-6836402D01*
X11047867Y-6856107D01*
X11060480Y-6877151D01*
X11070970Y-6899329D01*
X11079235Y-6922429D01*
X11085196Y-6946227D01*
X11088796Y-6970496D01*
X11090000Y-6995000D01*
X11090000Y-8245000D01*
X11088796Y-8269504D01*
X11085196Y-8293773D01*
X11079235Y-8317571D01*
X11070970Y-8340671D01*
X11060480Y-8362849D01*
X11047867Y-8383893D01*
X11033253Y-8403598D01*
X11016777Y-8421777D01*
X10998598Y-8438253D01*
X10978893Y-8452867D01*
X10957849Y-8465480D01*
X10935671Y-8475970D01*
X10912571Y-8484235D01*
X10888773Y-8490196D01*
X10864504Y-8493796D01*
X10840000Y-8495000D01*
X9915000Y-8495000D01*
X9890496Y-8493796D01*
X9866227Y-8490196D01*
X9842429Y-8484235D01*
X9819329Y-8475970D01*
X9797151Y-8465480D01*
X9776107Y-8452867D01*
X9756402Y-8438253D01*
X9738223Y-8421777D01*
X9721747Y-8403598D01*
X9707133Y-8383893D01*
X9694520Y-8362849D01*
X9684030Y-8340671D01*
X9675765Y-8317571D01*
X9669804Y-8293773D01*
X9666204Y-8269504D01*
X9665000Y-8245000D01*
X9665000Y-6995000D01*
X9666204Y-6970496D01*
X9669804Y-6946227D01*
X9675765Y-6922429D01*
X9684030Y-6899329D01*
X9694520Y-6877151D01*
X9707133Y-6856107D01*
X9721747Y-6836402D01*
X9738223Y-6818223D01*
X9756402Y-6801747D01*
X9776107Y-6787133D01*
X9797151Y-6774520D01*
X9819329Y-6764030D01*
X9842429Y-6755765D01*
X9866227Y-6749804D01*
X9890496Y-6746204D01*
X9915000Y-6745000D01*
X10840000Y-6745000D01*
X10864504Y-6746204D01*
X10864504Y-6746204D01*
G37*
D16*
G04 #@! TD*
G04 #@! TO.P,R3,2*
G04 #@! TO.N,GND*
X10377500Y-7620000D03*
D15*
G04 #@! TO.N,monitor1*
G04 #@! TO.C,R3*
G36*
X7889504Y-6746204D02*
X7913773Y-6749804D01*
X7937571Y-6755765D01*
X7960671Y-6764030D01*
X7982849Y-6774520D01*
X8003893Y-6787133D01*
X8023598Y-6801747D01*
X8041777Y-6818223D01*
X8058253Y-6836402D01*
X8072867Y-6856107D01*
X8085480Y-6877151D01*
X8095970Y-6899329D01*
X8104235Y-6922429D01*
X8110196Y-6946227D01*
X8113796Y-6970496D01*
X8115000Y-6995000D01*
X8115000Y-8245000D01*
X8113796Y-8269504D01*
X8110196Y-8293773D01*
X8104235Y-8317571D01*
X8095970Y-8340671D01*
X8085480Y-8362849D01*
X8072867Y-8383893D01*
X8058253Y-8403598D01*
X8041777Y-8421777D01*
X8023598Y-8438253D01*
X8003893Y-8452867D01*
X7982849Y-8465480D01*
X7960671Y-8475970D01*
X7937571Y-8484235D01*
X7913773Y-8490196D01*
X7889504Y-8493796D01*
X7865000Y-8495000D01*
X6940000Y-8495000D01*
X6915496Y-8493796D01*
X6891227Y-8490196D01*
X6867429Y-8484235D01*
X6844329Y-8475970D01*
X6822151Y-8465480D01*
X6801107Y-8452867D01*
X6781402Y-8438253D01*
X6763223Y-8421777D01*
X6746747Y-8403598D01*
X6732133Y-8383893D01*
X6719520Y-8362849D01*
X6709030Y-8340671D01*
X6700765Y-8317571D01*
X6694804Y-8293773D01*
X6691204Y-8269504D01*
X6690000Y-8245000D01*
X6690000Y-6995000D01*
X6691204Y-6970496D01*
X6694804Y-6946227D01*
X6700765Y-6922429D01*
X6709030Y-6899329D01*
X6719520Y-6877151D01*
X6732133Y-6856107D01*
X6746747Y-6836402D01*
X6763223Y-6818223D01*
X6781402Y-6801747D01*
X6801107Y-6787133D01*
X6822151Y-6774520D01*
X6844329Y-6764030D01*
X6867429Y-6755765D01*
X6891227Y-6749804D01*
X6915496Y-6746204D01*
X6940000Y-6745000D01*
X7865000Y-6745000D01*
X7889504Y-6746204D01*
X7889504Y-6746204D01*
G37*
D16*
G04 #@! TD*
G04 #@! TO.P,R3,1*
G04 #@! TO.N,monitor1*
X7402500Y-7620000D03*
D15*
G04 #@! TO.N,Net-(R5-Pad2)*
G04 #@! TO.C,R5*
G36*
X38432004Y-40082704D02*
X38456273Y-40086304D01*
X38480071Y-40092265D01*
X38503171Y-40100530D01*
X38525349Y-40111020D01*
X38546393Y-40123633D01*
X38566098Y-40138247D01*
X38584277Y-40154723D01*
X38600753Y-40172902D01*
X38615367Y-40192607D01*
X38627980Y-40213651D01*
X38638470Y-40235829D01*
X38646735Y-40258929D01*
X38652696Y-40282727D01*
X38656296Y-40306996D01*
X38657500Y-40331500D01*
X38657500Y-41256500D01*
X38656296Y-41281004D01*
X38652696Y-41305273D01*
X38646735Y-41329071D01*
X38638470Y-41352171D01*
X38627980Y-41374349D01*
X38615367Y-41395393D01*
X38600753Y-41415098D01*
X38584277Y-41433277D01*
X38566098Y-41449753D01*
X38546393Y-41464367D01*
X38525349Y-41476980D01*
X38503171Y-41487470D01*
X38480071Y-41495735D01*
X38456273Y-41501696D01*
X38432004Y-41505296D01*
X38407500Y-41506500D01*
X37157500Y-41506500D01*
X37132996Y-41505296D01*
X37108727Y-41501696D01*
X37084929Y-41495735D01*
X37061829Y-41487470D01*
X37039651Y-41476980D01*
X37018607Y-41464367D01*
X36998902Y-41449753D01*
X36980723Y-41433277D01*
X36964247Y-41415098D01*
X36949633Y-41395393D01*
X36937020Y-41374349D01*
X36926530Y-41352171D01*
X36918265Y-41329071D01*
X36912304Y-41305273D01*
X36908704Y-41281004D01*
X36907500Y-41256500D01*
X36907500Y-40331500D01*
X36908704Y-40306996D01*
X36912304Y-40282727D01*
X36918265Y-40258929D01*
X36926530Y-40235829D01*
X36937020Y-40213651D01*
X36949633Y-40192607D01*
X36964247Y-40172902D01*
X36980723Y-40154723D01*
X36998902Y-40138247D01*
X37018607Y-40123633D01*
X37039651Y-40111020D01*
X37061829Y-40100530D01*
X37084929Y-40092265D01*
X37108727Y-40086304D01*
X37132996Y-40082704D01*
X37157500Y-40081500D01*
X38407500Y-40081500D01*
X38432004Y-40082704D01*
X38432004Y-40082704D01*
G37*
D16*
G04 #@! TD*
G04 #@! TO.P,R5,2*
G04 #@! TO.N,Net-(R5-Pad2)*
X37782500Y-40794000D03*
D15*
G04 #@! TO.N,+5V*
G04 #@! TO.C,R5*
G36*
X38432004Y-37107704D02*
X38456273Y-37111304D01*
X38480071Y-37117265D01*
X38503171Y-37125530D01*
X38525349Y-37136020D01*
X38546393Y-37148633D01*
X38566098Y-37163247D01*
X38584277Y-37179723D01*
X38600753Y-37197902D01*
X38615367Y-37217607D01*
X38627980Y-37238651D01*
X38638470Y-37260829D01*
X38646735Y-37283929D01*
X38652696Y-37307727D01*
X38656296Y-37331996D01*
X38657500Y-37356500D01*
X38657500Y-38281500D01*
X38656296Y-38306004D01*
X38652696Y-38330273D01*
X38646735Y-38354071D01*
X38638470Y-38377171D01*
X38627980Y-38399349D01*
X38615367Y-38420393D01*
X38600753Y-38440098D01*
X38584277Y-38458277D01*
X38566098Y-38474753D01*
X38546393Y-38489367D01*
X38525349Y-38501980D01*
X38503171Y-38512470D01*
X38480071Y-38520735D01*
X38456273Y-38526696D01*
X38432004Y-38530296D01*
X38407500Y-38531500D01*
X37157500Y-38531500D01*
X37132996Y-38530296D01*
X37108727Y-38526696D01*
X37084929Y-38520735D01*
X37061829Y-38512470D01*
X37039651Y-38501980D01*
X37018607Y-38489367D01*
X36998902Y-38474753D01*
X36980723Y-38458277D01*
X36964247Y-38440098D01*
X36949633Y-38420393D01*
X36937020Y-38399349D01*
X36926530Y-38377171D01*
X36918265Y-38354071D01*
X36912304Y-38330273D01*
X36908704Y-38306004D01*
X36907500Y-38281500D01*
X36907500Y-37356500D01*
X36908704Y-37331996D01*
X36912304Y-37307727D01*
X36918265Y-37283929D01*
X36926530Y-37260829D01*
X36937020Y-37238651D01*
X36949633Y-37217607D01*
X36964247Y-37197902D01*
X36980723Y-37179723D01*
X36998902Y-37163247D01*
X37018607Y-37148633D01*
X37039651Y-37136020D01*
X37061829Y-37125530D01*
X37084929Y-37117265D01*
X37108727Y-37111304D01*
X37132996Y-37107704D01*
X37157500Y-37106500D01*
X38407500Y-37106500D01*
X38432004Y-37107704D01*
X38432004Y-37107704D01*
G37*
D16*
G04 #@! TD*
G04 #@! TO.P,R5,1*
G04 #@! TO.N,+5V*
X37782500Y-37819000D03*
D15*
G04 #@! TO.N,GND*
G04 #@! TO.C,R6*
G36*
X32400504Y-39829704D02*
X32424773Y-39833304D01*
X32448571Y-39839265D01*
X32471671Y-39847530D01*
X32493849Y-39858020D01*
X32514893Y-39870633D01*
X32534598Y-39885247D01*
X32552777Y-39901723D01*
X32569253Y-39919902D01*
X32583867Y-39939607D01*
X32596480Y-39960651D01*
X32606970Y-39982829D01*
X32615235Y-40005929D01*
X32621196Y-40029727D01*
X32624796Y-40053996D01*
X32626000Y-40078500D01*
X32626000Y-41328500D01*
X32624796Y-41353004D01*
X32621196Y-41377273D01*
X32615235Y-41401071D01*
X32606970Y-41424171D01*
X32596480Y-41446349D01*
X32583867Y-41467393D01*
X32569253Y-41487098D01*
X32552777Y-41505277D01*
X32534598Y-41521753D01*
X32514893Y-41536367D01*
X32493849Y-41548980D01*
X32471671Y-41559470D01*
X32448571Y-41567735D01*
X32424773Y-41573696D01*
X32400504Y-41577296D01*
X32376000Y-41578500D01*
X31451000Y-41578500D01*
X31426496Y-41577296D01*
X31402227Y-41573696D01*
X31378429Y-41567735D01*
X31355329Y-41559470D01*
X31333151Y-41548980D01*
X31312107Y-41536367D01*
X31292402Y-41521753D01*
X31274223Y-41505277D01*
X31257747Y-41487098D01*
X31243133Y-41467393D01*
X31230520Y-41446349D01*
X31220030Y-41424171D01*
X31211765Y-41401071D01*
X31205804Y-41377273D01*
X31202204Y-41353004D01*
X31201000Y-41328500D01*
X31201000Y-40078500D01*
X31202204Y-40053996D01*
X31205804Y-40029727D01*
X31211765Y-40005929D01*
X31220030Y-39982829D01*
X31230520Y-39960651D01*
X31243133Y-39939607D01*
X31257747Y-39919902D01*
X31274223Y-39901723D01*
X31292402Y-39885247D01*
X31312107Y-39870633D01*
X31333151Y-39858020D01*
X31355329Y-39847530D01*
X31378429Y-39839265D01*
X31402227Y-39833304D01*
X31426496Y-39829704D01*
X31451000Y-39828500D01*
X32376000Y-39828500D01*
X32400504Y-39829704D01*
X32400504Y-39829704D01*
G37*
D16*
G04 #@! TD*
G04 #@! TO.P,R6,2*
G04 #@! TO.N,GND*
X31913500Y-40703500D03*
D15*
G04 #@! TO.N,Net-(R5-Pad2)*
G04 #@! TO.C,R6*
G36*
X35375504Y-39829704D02*
X35399773Y-39833304D01*
X35423571Y-39839265D01*
X35446671Y-39847530D01*
X35468849Y-39858020D01*
X35489893Y-39870633D01*
X35509598Y-39885247D01*
X35527777Y-39901723D01*
X35544253Y-39919902D01*
X35558867Y-39939607D01*
X35571480Y-39960651D01*
X35581970Y-39982829D01*
X35590235Y-40005929D01*
X35596196Y-40029727D01*
X35599796Y-40053996D01*
X35601000Y-40078500D01*
X35601000Y-41328500D01*
X35599796Y-41353004D01*
X35596196Y-41377273D01*
X35590235Y-41401071D01*
X35581970Y-41424171D01*
X35571480Y-41446349D01*
X35558867Y-41467393D01*
X35544253Y-41487098D01*
X35527777Y-41505277D01*
X35509598Y-41521753D01*
X35489893Y-41536367D01*
X35468849Y-41548980D01*
X35446671Y-41559470D01*
X35423571Y-41567735D01*
X35399773Y-41573696D01*
X35375504Y-41577296D01*
X35351000Y-41578500D01*
X34426000Y-41578500D01*
X34401496Y-41577296D01*
X34377227Y-41573696D01*
X34353429Y-41567735D01*
X34330329Y-41559470D01*
X34308151Y-41548980D01*
X34287107Y-41536367D01*
X34267402Y-41521753D01*
X34249223Y-41505277D01*
X34232747Y-41487098D01*
X34218133Y-41467393D01*
X34205520Y-41446349D01*
X34195030Y-41424171D01*
X34186765Y-41401071D01*
X34180804Y-41377273D01*
X34177204Y-41353004D01*
X34176000Y-41328500D01*
X34176000Y-40078500D01*
X34177204Y-40053996D01*
X34180804Y-40029727D01*
X34186765Y-40005929D01*
X34195030Y-39982829D01*
X34205520Y-39960651D01*
X34218133Y-39939607D01*
X34232747Y-39919902D01*
X34249223Y-39901723D01*
X34267402Y-39885247D01*
X34287107Y-39870633D01*
X34308151Y-39858020D01*
X34330329Y-39847530D01*
X34353429Y-39839265D01*
X34377227Y-39833304D01*
X34401496Y-39829704D01*
X34426000Y-39828500D01*
X35351000Y-39828500D01*
X35375504Y-39829704D01*
X35375504Y-39829704D01*
G37*
D16*
G04 #@! TD*
G04 #@! TO.P,R6,1*
G04 #@! TO.N,Net-(R5-Pad2)*
X34888500Y-40703500D03*
D15*
G04 #@! TO.N,GND*
G04 #@! TO.C,R9*
G36*
X32400504Y-35384704D02*
X32424773Y-35388304D01*
X32448571Y-35394265D01*
X32471671Y-35402530D01*
X32493849Y-35413020D01*
X32514893Y-35425633D01*
X32534598Y-35440247D01*
X32552777Y-35456723D01*
X32569253Y-35474902D01*
X32583867Y-35494607D01*
X32596480Y-35515651D01*
X32606970Y-35537829D01*
X32615235Y-35560929D01*
X32621196Y-35584727D01*
X32624796Y-35608996D01*
X32626000Y-35633500D01*
X32626000Y-36883500D01*
X32624796Y-36908004D01*
X32621196Y-36932273D01*
X32615235Y-36956071D01*
X32606970Y-36979171D01*
X32596480Y-37001349D01*
X32583867Y-37022393D01*
X32569253Y-37042098D01*
X32552777Y-37060277D01*
X32534598Y-37076753D01*
X32514893Y-37091367D01*
X32493849Y-37103980D01*
X32471671Y-37114470D01*
X32448571Y-37122735D01*
X32424773Y-37128696D01*
X32400504Y-37132296D01*
X32376000Y-37133500D01*
X31451000Y-37133500D01*
X31426496Y-37132296D01*
X31402227Y-37128696D01*
X31378429Y-37122735D01*
X31355329Y-37114470D01*
X31333151Y-37103980D01*
X31312107Y-37091367D01*
X31292402Y-37076753D01*
X31274223Y-37060277D01*
X31257747Y-37042098D01*
X31243133Y-37022393D01*
X31230520Y-37001349D01*
X31220030Y-36979171D01*
X31211765Y-36956071D01*
X31205804Y-36932273D01*
X31202204Y-36908004D01*
X31201000Y-36883500D01*
X31201000Y-35633500D01*
X31202204Y-35608996D01*
X31205804Y-35584727D01*
X31211765Y-35560929D01*
X31220030Y-35537829D01*
X31230520Y-35515651D01*
X31243133Y-35494607D01*
X31257747Y-35474902D01*
X31274223Y-35456723D01*
X31292402Y-35440247D01*
X31312107Y-35425633D01*
X31333151Y-35413020D01*
X31355329Y-35402530D01*
X31378429Y-35394265D01*
X31402227Y-35388304D01*
X31426496Y-35384704D01*
X31451000Y-35383500D01*
X32376000Y-35383500D01*
X32400504Y-35384704D01*
X32400504Y-35384704D01*
G37*
D16*
G04 #@! TD*
G04 #@! TO.P,R9,2*
G04 #@! TO.N,GND*
X31913500Y-36258500D03*
D15*
G04 #@! TO.N,Net-(C5-Pad2)*
G04 #@! TO.C,R9*
G36*
X35375504Y-35384704D02*
X35399773Y-35388304D01*
X35423571Y-35394265D01*
X35446671Y-35402530D01*
X35468849Y-35413020D01*
X35489893Y-35425633D01*
X35509598Y-35440247D01*
X35527777Y-35456723D01*
X35544253Y-35474902D01*
X35558867Y-35494607D01*
X35571480Y-35515651D01*
X35581970Y-35537829D01*
X35590235Y-35560929D01*
X35596196Y-35584727D01*
X35599796Y-35608996D01*
X35601000Y-35633500D01*
X35601000Y-36883500D01*
X35599796Y-36908004D01*
X35596196Y-36932273D01*
X35590235Y-36956071D01*
X35581970Y-36979171D01*
X35571480Y-37001349D01*
X35558867Y-37022393D01*
X35544253Y-37042098D01*
X35527777Y-37060277D01*
X35509598Y-37076753D01*
X35489893Y-37091367D01*
X35468849Y-37103980D01*
X35446671Y-37114470D01*
X35423571Y-37122735D01*
X35399773Y-37128696D01*
X35375504Y-37132296D01*
X35351000Y-37133500D01*
X34426000Y-37133500D01*
X34401496Y-37132296D01*
X34377227Y-37128696D01*
X34353429Y-37122735D01*
X34330329Y-37114470D01*
X34308151Y-37103980D01*
X34287107Y-37091367D01*
X34267402Y-37076753D01*
X34249223Y-37060277D01*
X34232747Y-37042098D01*
X34218133Y-37022393D01*
X34205520Y-37001349D01*
X34195030Y-36979171D01*
X34186765Y-36956071D01*
X34180804Y-36932273D01*
X34177204Y-36908004D01*
X34176000Y-36883500D01*
X34176000Y-35633500D01*
X34177204Y-35608996D01*
X34180804Y-35584727D01*
X34186765Y-35560929D01*
X34195030Y-35537829D01*
X34205520Y-35515651D01*
X34218133Y-35494607D01*
X34232747Y-35474902D01*
X34249223Y-35456723D01*
X34267402Y-35440247D01*
X34287107Y-35425633D01*
X34308151Y-35413020D01*
X34330329Y-35402530D01*
X34353429Y-35394265D01*
X34377227Y-35388304D01*
X34401496Y-35384704D01*
X34426000Y-35383500D01*
X35351000Y-35383500D01*
X35375504Y-35384704D01*
X35375504Y-35384704D01*
G37*
D16*
G04 #@! TD*
G04 #@! TO.P,R9,1*
G04 #@! TO.N,Net-(C5-Pad2)*
X34888500Y-36258500D03*
D15*
G04 #@! TO.N,Net-(R10-Pad2)*
G04 #@! TO.C,R10*
G36*
X38432004Y-29414704D02*
X38456273Y-29418304D01*
X38480071Y-29424265D01*
X38503171Y-29432530D01*
X38525349Y-29443020D01*
X38546393Y-29455633D01*
X38566098Y-29470247D01*
X38584277Y-29486723D01*
X38600753Y-29504902D01*
X38615367Y-29524607D01*
X38627980Y-29545651D01*
X38638470Y-29567829D01*
X38646735Y-29590929D01*
X38652696Y-29614727D01*
X38656296Y-29638996D01*
X38657500Y-29663500D01*
X38657500Y-30588500D01*
X38656296Y-30613004D01*
X38652696Y-30637273D01*
X38646735Y-30661071D01*
X38638470Y-30684171D01*
X38627980Y-30706349D01*
X38615367Y-30727393D01*
X38600753Y-30747098D01*
X38584277Y-30765277D01*
X38566098Y-30781753D01*
X38546393Y-30796367D01*
X38525349Y-30808980D01*
X38503171Y-30819470D01*
X38480071Y-30827735D01*
X38456273Y-30833696D01*
X38432004Y-30837296D01*
X38407500Y-30838500D01*
X37157500Y-30838500D01*
X37132996Y-30837296D01*
X37108727Y-30833696D01*
X37084929Y-30827735D01*
X37061829Y-30819470D01*
X37039651Y-30808980D01*
X37018607Y-30796367D01*
X36998902Y-30781753D01*
X36980723Y-30765277D01*
X36964247Y-30747098D01*
X36949633Y-30727393D01*
X36937020Y-30706349D01*
X36926530Y-30684171D01*
X36918265Y-30661071D01*
X36912304Y-30637273D01*
X36908704Y-30613004D01*
X36907500Y-30588500D01*
X36907500Y-29663500D01*
X36908704Y-29638996D01*
X36912304Y-29614727D01*
X36918265Y-29590929D01*
X36926530Y-29567829D01*
X36937020Y-29545651D01*
X36949633Y-29524607D01*
X36964247Y-29504902D01*
X36980723Y-29486723D01*
X36998902Y-29470247D01*
X37018607Y-29455633D01*
X37039651Y-29443020D01*
X37061829Y-29432530D01*
X37084929Y-29424265D01*
X37108727Y-29418304D01*
X37132996Y-29414704D01*
X37157500Y-29413500D01*
X38407500Y-29413500D01*
X38432004Y-29414704D01*
X38432004Y-29414704D01*
G37*
D16*
G04 #@! TD*
G04 #@! TO.P,R10,2*
G04 #@! TO.N,Net-(R10-Pad2)*
X37782500Y-30126000D03*
D15*
G04 #@! TO.N,+3V3*
G04 #@! TO.C,R10*
G36*
X38432004Y-26439704D02*
X38456273Y-26443304D01*
X38480071Y-26449265D01*
X38503171Y-26457530D01*
X38525349Y-26468020D01*
X38546393Y-26480633D01*
X38566098Y-26495247D01*
X38584277Y-26511723D01*
X38600753Y-26529902D01*
X38615367Y-26549607D01*
X38627980Y-26570651D01*
X38638470Y-26592829D01*
X38646735Y-26615929D01*
X38652696Y-26639727D01*
X38656296Y-26663996D01*
X38657500Y-26688500D01*
X38657500Y-27613500D01*
X38656296Y-27638004D01*
X38652696Y-27662273D01*
X38646735Y-27686071D01*
X38638470Y-27709171D01*
X38627980Y-27731349D01*
X38615367Y-27752393D01*
X38600753Y-27772098D01*
X38584277Y-27790277D01*
X38566098Y-27806753D01*
X38546393Y-27821367D01*
X38525349Y-27833980D01*
X38503171Y-27844470D01*
X38480071Y-27852735D01*
X38456273Y-27858696D01*
X38432004Y-27862296D01*
X38407500Y-27863500D01*
X37157500Y-27863500D01*
X37132996Y-27862296D01*
X37108727Y-27858696D01*
X37084929Y-27852735D01*
X37061829Y-27844470D01*
X37039651Y-27833980D01*
X37018607Y-27821367D01*
X36998902Y-27806753D01*
X36980723Y-27790277D01*
X36964247Y-27772098D01*
X36949633Y-27752393D01*
X36937020Y-27731349D01*
X36926530Y-27709171D01*
X36918265Y-27686071D01*
X36912304Y-27662273D01*
X36908704Y-27638004D01*
X36907500Y-27613500D01*
X36907500Y-26688500D01*
X36908704Y-26663996D01*
X36912304Y-26639727D01*
X36918265Y-26615929D01*
X36926530Y-26592829D01*
X36937020Y-26570651D01*
X36949633Y-26549607D01*
X36964247Y-26529902D01*
X36980723Y-26511723D01*
X36998902Y-26495247D01*
X37018607Y-26480633D01*
X37039651Y-26468020D01*
X37061829Y-26457530D01*
X37084929Y-26449265D01*
X37108727Y-26443304D01*
X37132996Y-26439704D01*
X37157500Y-26438500D01*
X38407500Y-26438500D01*
X38432004Y-26439704D01*
X38432004Y-26439704D01*
G37*
D16*
G04 #@! TD*
G04 #@! TO.P,R10,1*
G04 #@! TO.N,+3V3*
X37782500Y-27151000D03*
D15*
G04 #@! TO.N,Net-(R11-Pad2)*
G04 #@! TO.C,R11*
G36*
X23509504Y-40146204D02*
X23533773Y-40149804D01*
X23557571Y-40155765D01*
X23580671Y-40164030D01*
X23602849Y-40174520D01*
X23623893Y-40187133D01*
X23643598Y-40201747D01*
X23661777Y-40218223D01*
X23678253Y-40236402D01*
X23692867Y-40256107D01*
X23705480Y-40277151D01*
X23715970Y-40299329D01*
X23724235Y-40322429D01*
X23730196Y-40346227D01*
X23733796Y-40370496D01*
X23735000Y-40395000D01*
X23735000Y-41320000D01*
X23733796Y-41344504D01*
X23730196Y-41368773D01*
X23724235Y-41392571D01*
X23715970Y-41415671D01*
X23705480Y-41437849D01*
X23692867Y-41458893D01*
X23678253Y-41478598D01*
X23661777Y-41496777D01*
X23643598Y-41513253D01*
X23623893Y-41527867D01*
X23602849Y-41540480D01*
X23580671Y-41550970D01*
X23557571Y-41559235D01*
X23533773Y-41565196D01*
X23509504Y-41568796D01*
X23485000Y-41570000D01*
X22235000Y-41570000D01*
X22210496Y-41568796D01*
X22186227Y-41565196D01*
X22162429Y-41559235D01*
X22139329Y-41550970D01*
X22117151Y-41540480D01*
X22096107Y-41527867D01*
X22076402Y-41513253D01*
X22058223Y-41496777D01*
X22041747Y-41478598D01*
X22027133Y-41458893D01*
X22014520Y-41437849D01*
X22004030Y-41415671D01*
X21995765Y-41392571D01*
X21989804Y-41368773D01*
X21986204Y-41344504D01*
X21985000Y-41320000D01*
X21985000Y-40395000D01*
X21986204Y-40370496D01*
X21989804Y-40346227D01*
X21995765Y-40322429D01*
X22004030Y-40299329D01*
X22014520Y-40277151D01*
X22027133Y-40256107D01*
X22041747Y-40236402D01*
X22058223Y-40218223D01*
X22076402Y-40201747D01*
X22096107Y-40187133D01*
X22117151Y-40174520D01*
X22139329Y-40164030D01*
X22162429Y-40155765D01*
X22186227Y-40149804D01*
X22210496Y-40146204D01*
X22235000Y-40145000D01*
X23485000Y-40145000D01*
X23509504Y-40146204D01*
X23509504Y-40146204D01*
G37*
D16*
G04 #@! TD*
G04 #@! TO.P,R11,2*
G04 #@! TO.N,Net-(R11-Pad2)*
X22860000Y-40857500D03*
D15*
G04 #@! TO.N,+3V3*
G04 #@! TO.C,R11*
G36*
X23509504Y-37171204D02*
X23533773Y-37174804D01*
X23557571Y-37180765D01*
X23580671Y-37189030D01*
X23602849Y-37199520D01*
X23623893Y-37212133D01*
X23643598Y-37226747D01*
X23661777Y-37243223D01*
X23678253Y-37261402D01*
X23692867Y-37281107D01*
X23705480Y-37302151D01*
X23715970Y-37324329D01*
X23724235Y-37347429D01*
X23730196Y-37371227D01*
X23733796Y-37395496D01*
X23735000Y-37420000D01*
X23735000Y-38345000D01*
X23733796Y-38369504D01*
X23730196Y-38393773D01*
X23724235Y-38417571D01*
X23715970Y-38440671D01*
X23705480Y-38462849D01*
X23692867Y-38483893D01*
X23678253Y-38503598D01*
X23661777Y-38521777D01*
X23643598Y-38538253D01*
X23623893Y-38552867D01*
X23602849Y-38565480D01*
X23580671Y-38575970D01*
X23557571Y-38584235D01*
X23533773Y-38590196D01*
X23509504Y-38593796D01*
X23485000Y-38595000D01*
X22235000Y-38595000D01*
X22210496Y-38593796D01*
X22186227Y-38590196D01*
X22162429Y-38584235D01*
X22139329Y-38575970D01*
X22117151Y-38565480D01*
X22096107Y-38552867D01*
X22076402Y-38538253D01*
X22058223Y-38521777D01*
X22041747Y-38503598D01*
X22027133Y-38483893D01*
X22014520Y-38462849D01*
X22004030Y-38440671D01*
X21995765Y-38417571D01*
X21989804Y-38393773D01*
X21986204Y-38369504D01*
X21985000Y-38345000D01*
X21985000Y-37420000D01*
X21986204Y-37395496D01*
X21989804Y-37371227D01*
X21995765Y-37347429D01*
X22004030Y-37324329D01*
X22014520Y-37302151D01*
X22027133Y-37281107D01*
X22041747Y-37261402D01*
X22058223Y-37243223D01*
X22076402Y-37226747D01*
X22096107Y-37212133D01*
X22117151Y-37199520D01*
X22139329Y-37189030D01*
X22162429Y-37180765D01*
X22186227Y-37174804D01*
X22210496Y-37171204D01*
X22235000Y-37170000D01*
X23485000Y-37170000D01*
X23509504Y-37171204D01*
X23509504Y-37171204D01*
G37*
D16*
G04 #@! TD*
G04 #@! TO.P,R11,1*
G04 #@! TO.N,+3V3*
X22860000Y-37882500D03*
D15*
G04 #@! TO.N,GND*
G04 #@! TO.C,R12*
G36*
X17414504Y-39893204D02*
X17438773Y-39896804D01*
X17462571Y-39902765D01*
X17485671Y-39911030D01*
X17507849Y-39921520D01*
X17528893Y-39934133D01*
X17548598Y-39948747D01*
X17566777Y-39965223D01*
X17583253Y-39983402D01*
X17597867Y-40003107D01*
X17610480Y-40024151D01*
X17620970Y-40046329D01*
X17629235Y-40069429D01*
X17635196Y-40093227D01*
X17638796Y-40117496D01*
X17640000Y-40142000D01*
X17640000Y-41392000D01*
X17638796Y-41416504D01*
X17635196Y-41440773D01*
X17629235Y-41464571D01*
X17620970Y-41487671D01*
X17610480Y-41509849D01*
X17597867Y-41530893D01*
X17583253Y-41550598D01*
X17566777Y-41568777D01*
X17548598Y-41585253D01*
X17528893Y-41599867D01*
X17507849Y-41612480D01*
X17485671Y-41622970D01*
X17462571Y-41631235D01*
X17438773Y-41637196D01*
X17414504Y-41640796D01*
X17390000Y-41642000D01*
X16465000Y-41642000D01*
X16440496Y-41640796D01*
X16416227Y-41637196D01*
X16392429Y-41631235D01*
X16369329Y-41622970D01*
X16347151Y-41612480D01*
X16326107Y-41599867D01*
X16306402Y-41585253D01*
X16288223Y-41568777D01*
X16271747Y-41550598D01*
X16257133Y-41530893D01*
X16244520Y-41509849D01*
X16234030Y-41487671D01*
X16225765Y-41464571D01*
X16219804Y-41440773D01*
X16216204Y-41416504D01*
X16215000Y-41392000D01*
X16215000Y-40142000D01*
X16216204Y-40117496D01*
X16219804Y-40093227D01*
X16225765Y-40069429D01*
X16234030Y-40046329D01*
X16244520Y-40024151D01*
X16257133Y-40003107D01*
X16271747Y-39983402D01*
X16288223Y-39965223D01*
X16306402Y-39948747D01*
X16326107Y-39934133D01*
X16347151Y-39921520D01*
X16369329Y-39911030D01*
X16392429Y-39902765D01*
X16416227Y-39896804D01*
X16440496Y-39893204D01*
X16465000Y-39892000D01*
X17390000Y-39892000D01*
X17414504Y-39893204D01*
X17414504Y-39893204D01*
G37*
D16*
G04 #@! TD*
G04 #@! TO.P,R12,2*
G04 #@! TO.N,GND*
X16927500Y-40767000D03*
D15*
G04 #@! TO.N,Net-(R11-Pad2)*
G04 #@! TO.C,R12*
G36*
X20389504Y-39893204D02*
X20413773Y-39896804D01*
X20437571Y-39902765D01*
X20460671Y-39911030D01*
X20482849Y-39921520D01*
X20503893Y-39934133D01*
X20523598Y-39948747D01*
X20541777Y-39965223D01*
X20558253Y-39983402D01*
X20572867Y-40003107D01*
X20585480Y-40024151D01*
X20595970Y-40046329D01*
X20604235Y-40069429D01*
X20610196Y-40093227D01*
X20613796Y-40117496D01*
X20615000Y-40142000D01*
X20615000Y-41392000D01*
X20613796Y-41416504D01*
X20610196Y-41440773D01*
X20604235Y-41464571D01*
X20595970Y-41487671D01*
X20585480Y-41509849D01*
X20572867Y-41530893D01*
X20558253Y-41550598D01*
X20541777Y-41568777D01*
X20523598Y-41585253D01*
X20503893Y-41599867D01*
X20482849Y-41612480D01*
X20460671Y-41622970D01*
X20437571Y-41631235D01*
X20413773Y-41637196D01*
X20389504Y-41640796D01*
X20365000Y-41642000D01*
X19440000Y-41642000D01*
X19415496Y-41640796D01*
X19391227Y-41637196D01*
X19367429Y-41631235D01*
X19344329Y-41622970D01*
X19322151Y-41612480D01*
X19301107Y-41599867D01*
X19281402Y-41585253D01*
X19263223Y-41568777D01*
X19246747Y-41550598D01*
X19232133Y-41530893D01*
X19219520Y-41509849D01*
X19209030Y-41487671D01*
X19200765Y-41464571D01*
X19194804Y-41440773D01*
X19191204Y-41416504D01*
X19190000Y-41392000D01*
X19190000Y-40142000D01*
X19191204Y-40117496D01*
X19194804Y-40093227D01*
X19200765Y-40069429D01*
X19209030Y-40046329D01*
X19219520Y-40024151D01*
X19232133Y-40003107D01*
X19246747Y-39983402D01*
X19263223Y-39965223D01*
X19281402Y-39948747D01*
X19301107Y-39934133D01*
X19322151Y-39921520D01*
X19344329Y-39911030D01*
X19367429Y-39902765D01*
X19391227Y-39896804D01*
X19415496Y-39893204D01*
X19440000Y-39892000D01*
X20365000Y-39892000D01*
X20389504Y-39893204D01*
X20389504Y-39893204D01*
G37*
D16*
G04 #@! TD*
G04 #@! TO.P,R12,1*
G04 #@! TO.N,Net-(R11-Pad2)*
X19902500Y-40767000D03*
D15*
G04 #@! TO.N,GND*
G04 #@! TO.C,R13*
G36*
X17414504Y-35448204D02*
X17438773Y-35451804D01*
X17462571Y-35457765D01*
X17485671Y-35466030D01*
X17507849Y-35476520D01*
X17528893Y-35489133D01*
X17548598Y-35503747D01*
X17566777Y-35520223D01*
X17583253Y-35538402D01*
X17597867Y-35558107D01*
X17610480Y-35579151D01*
X17620970Y-35601329D01*
X17629235Y-35624429D01*
X17635196Y-35648227D01*
X17638796Y-35672496D01*
X17640000Y-35697000D01*
X17640000Y-36947000D01*
X17638796Y-36971504D01*
X17635196Y-36995773D01*
X17629235Y-37019571D01*
X17620970Y-37042671D01*
X17610480Y-37064849D01*
X17597867Y-37085893D01*
X17583253Y-37105598D01*
X17566777Y-37123777D01*
X17548598Y-37140253D01*
X17528893Y-37154867D01*
X17507849Y-37167480D01*
X17485671Y-37177970D01*
X17462571Y-37186235D01*
X17438773Y-37192196D01*
X17414504Y-37195796D01*
X17390000Y-37197000D01*
X16465000Y-37197000D01*
X16440496Y-37195796D01*
X16416227Y-37192196D01*
X16392429Y-37186235D01*
X16369329Y-37177970D01*
X16347151Y-37167480D01*
X16326107Y-37154867D01*
X16306402Y-37140253D01*
X16288223Y-37123777D01*
X16271747Y-37105598D01*
X16257133Y-37085893D01*
X16244520Y-37064849D01*
X16234030Y-37042671D01*
X16225765Y-37019571D01*
X16219804Y-36995773D01*
X16216204Y-36971504D01*
X16215000Y-36947000D01*
X16215000Y-35697000D01*
X16216204Y-35672496D01*
X16219804Y-35648227D01*
X16225765Y-35624429D01*
X16234030Y-35601329D01*
X16244520Y-35579151D01*
X16257133Y-35558107D01*
X16271747Y-35538402D01*
X16288223Y-35520223D01*
X16306402Y-35503747D01*
X16326107Y-35489133D01*
X16347151Y-35476520D01*
X16369329Y-35466030D01*
X16392429Y-35457765D01*
X16416227Y-35451804D01*
X16440496Y-35448204D01*
X16465000Y-35447000D01*
X17390000Y-35447000D01*
X17414504Y-35448204D01*
X17414504Y-35448204D01*
G37*
D16*
G04 #@! TD*
G04 #@! TO.P,R13,2*
G04 #@! TO.N,GND*
X16927500Y-36322000D03*
D15*
G04 #@! TO.N,Net-(C10-Pad2)*
G04 #@! TO.C,R13*
G36*
X20389504Y-35448204D02*
X20413773Y-35451804D01*
X20437571Y-35457765D01*
X20460671Y-35466030D01*
X20482849Y-35476520D01*
X20503893Y-35489133D01*
X20523598Y-35503747D01*
X20541777Y-35520223D01*
X20558253Y-35538402D01*
X20572867Y-35558107D01*
X20585480Y-35579151D01*
X20595970Y-35601329D01*
X20604235Y-35624429D01*
X20610196Y-35648227D01*
X20613796Y-35672496D01*
X20615000Y-35697000D01*
X20615000Y-36947000D01*
X20613796Y-36971504D01*
X20610196Y-36995773D01*
X20604235Y-37019571D01*
X20595970Y-37042671D01*
X20585480Y-37064849D01*
X20572867Y-37085893D01*
X20558253Y-37105598D01*
X20541777Y-37123777D01*
X20523598Y-37140253D01*
X20503893Y-37154867D01*
X20482849Y-37167480D01*
X20460671Y-37177970D01*
X20437571Y-37186235D01*
X20413773Y-37192196D01*
X20389504Y-37195796D01*
X20365000Y-37197000D01*
X19440000Y-37197000D01*
X19415496Y-37195796D01*
X19391227Y-37192196D01*
X19367429Y-37186235D01*
X19344329Y-37177970D01*
X19322151Y-37167480D01*
X19301107Y-37154867D01*
X19281402Y-37140253D01*
X19263223Y-37123777D01*
X19246747Y-37105598D01*
X19232133Y-37085893D01*
X19219520Y-37064849D01*
X19209030Y-37042671D01*
X19200765Y-37019571D01*
X19194804Y-36995773D01*
X19191204Y-36971504D01*
X19190000Y-36947000D01*
X19190000Y-35697000D01*
X19191204Y-35672496D01*
X19194804Y-35648227D01*
X19200765Y-35624429D01*
X19209030Y-35601329D01*
X19219520Y-35579151D01*
X19232133Y-35558107D01*
X19246747Y-35538402D01*
X19263223Y-35520223D01*
X19281402Y-35503747D01*
X19301107Y-35489133D01*
X19322151Y-35476520D01*
X19344329Y-35466030D01*
X19367429Y-35457765D01*
X19391227Y-35451804D01*
X19415496Y-35448204D01*
X19440000Y-35447000D01*
X20365000Y-35447000D01*
X20389504Y-35448204D01*
X20389504Y-35448204D01*
G37*
D16*
G04 #@! TD*
G04 #@! TO.P,R13,1*
G04 #@! TO.N,Net-(C10-Pad2)*
X19902500Y-36322000D03*
D15*
G04 #@! TO.N,GND*
G04 #@! TO.C,R14*
G36*
X25442504Y-29288704D02*
X25466773Y-29292304D01*
X25490571Y-29298265D01*
X25513671Y-29306530D01*
X25535849Y-29317020D01*
X25556893Y-29329633D01*
X25576598Y-29344247D01*
X25594777Y-29360723D01*
X25611253Y-29378902D01*
X25625867Y-29398607D01*
X25638480Y-29419651D01*
X25648970Y-29441829D01*
X25657235Y-29464929D01*
X25663196Y-29488727D01*
X25666796Y-29512996D01*
X25668000Y-29537500D01*
X25668000Y-30787500D01*
X25666796Y-30812004D01*
X25663196Y-30836273D01*
X25657235Y-30860071D01*
X25648970Y-30883171D01*
X25638480Y-30905349D01*
X25625867Y-30926393D01*
X25611253Y-30946098D01*
X25594777Y-30964277D01*
X25576598Y-30980753D01*
X25556893Y-30995367D01*
X25535849Y-31007980D01*
X25513671Y-31018470D01*
X25490571Y-31026735D01*
X25466773Y-31032696D01*
X25442504Y-31036296D01*
X25418000Y-31037500D01*
X24493000Y-31037500D01*
X24468496Y-31036296D01*
X24444227Y-31032696D01*
X24420429Y-31026735D01*
X24397329Y-31018470D01*
X24375151Y-31007980D01*
X24354107Y-30995367D01*
X24334402Y-30980753D01*
X24316223Y-30964277D01*
X24299747Y-30946098D01*
X24285133Y-30926393D01*
X24272520Y-30905349D01*
X24262030Y-30883171D01*
X24253765Y-30860071D01*
X24247804Y-30836273D01*
X24244204Y-30812004D01*
X24243000Y-30787500D01*
X24243000Y-29537500D01*
X24244204Y-29512996D01*
X24247804Y-29488727D01*
X24253765Y-29464929D01*
X24262030Y-29441829D01*
X24272520Y-29419651D01*
X24285133Y-29398607D01*
X24299747Y-29378902D01*
X24316223Y-29360723D01*
X24334402Y-29344247D01*
X24354107Y-29329633D01*
X24375151Y-29317020D01*
X24397329Y-29306530D01*
X24420429Y-29298265D01*
X24444227Y-29292304D01*
X24468496Y-29288704D01*
X24493000Y-29287500D01*
X25418000Y-29287500D01*
X25442504Y-29288704D01*
X25442504Y-29288704D01*
G37*
D16*
G04 #@! TD*
G04 #@! TO.P,R14,2*
G04 #@! TO.N,GND*
X24955500Y-30162500D03*
D15*
G04 #@! TO.N,Net-(R14-Pad1)*
G04 #@! TO.C,R14*
G36*
X22467504Y-29288704D02*
X22491773Y-29292304D01*
X22515571Y-29298265D01*
X22538671Y-29306530D01*
X22560849Y-29317020D01*
X22581893Y-29329633D01*
X22601598Y-29344247D01*
X22619777Y-29360723D01*
X22636253Y-29378902D01*
X22650867Y-29398607D01*
X22663480Y-29419651D01*
X22673970Y-29441829D01*
X22682235Y-29464929D01*
X22688196Y-29488727D01*
X22691796Y-29512996D01*
X22693000Y-29537500D01*
X22693000Y-30787500D01*
X22691796Y-30812004D01*
X22688196Y-30836273D01*
X22682235Y-30860071D01*
X22673970Y-30883171D01*
X22663480Y-30905349D01*
X22650867Y-30926393D01*
X22636253Y-30946098D01*
X22619777Y-30964277D01*
X22601598Y-30980753D01*
X22581893Y-30995367D01*
X22560849Y-31007980D01*
X22538671Y-31018470D01*
X22515571Y-31026735D01*
X22491773Y-31032696D01*
X22467504Y-31036296D01*
X22443000Y-31037500D01*
X21518000Y-31037500D01*
X21493496Y-31036296D01*
X21469227Y-31032696D01*
X21445429Y-31026735D01*
X21422329Y-31018470D01*
X21400151Y-31007980D01*
X21379107Y-30995367D01*
X21359402Y-30980753D01*
X21341223Y-30964277D01*
X21324747Y-30946098D01*
X21310133Y-30926393D01*
X21297520Y-30905349D01*
X21287030Y-30883171D01*
X21278765Y-30860071D01*
X21272804Y-30836273D01*
X21269204Y-30812004D01*
X21268000Y-30787500D01*
X21268000Y-29537500D01*
X21269204Y-29512996D01*
X21272804Y-29488727D01*
X21278765Y-29464929D01*
X21287030Y-29441829D01*
X21297520Y-29419651D01*
X21310133Y-29398607D01*
X21324747Y-29378902D01*
X21341223Y-29360723D01*
X21359402Y-29344247D01*
X21379107Y-29329633D01*
X21400151Y-29317020D01*
X21422329Y-29306530D01*
X21445429Y-29298265D01*
X21469227Y-29292304D01*
X21493496Y-29288704D01*
X21518000Y-29287500D01*
X22443000Y-29287500D01*
X22467504Y-29288704D01*
X22467504Y-29288704D01*
G37*
D16*
G04 #@! TD*
G04 #@! TO.P,R14,1*
G04 #@! TO.N,Net-(R14-Pad1)*
X21980500Y-30162500D03*
D12*
G04 #@! TO.P,rail3v1,9*
G04 #@! TO.N,GND*
X17145000Y-31242000D03*
D13*
G04 #@! TO.P,rail3v1,4*
X14647500Y-33147000D03*
G04 #@! TO.P,rail3v1,5*
G04 #@! TO.N,Net-(R11-Pad2)*
X19642500Y-33147000D03*
G04 #@! TO.P,rail3v1,3*
G04 #@! TO.N,Net-(C8-Pad1)*
X14647500Y-31877000D03*
G04 #@! TO.P,rail3v1,6*
G04 #@! TO.N,Net-(C10-Pad1)*
X19642500Y-31877000D03*
G04 #@! TO.P,rail3v1,2*
G04 #@! TO.N,+15V*
X14647500Y-30607000D03*
G04 #@! TO.P,rail3v1,7*
G04 #@! TO.N,Net-(R14-Pad1)*
X19642500Y-30607000D03*
G04 #@! TO.P,rail3v1,1*
G04 #@! TO.N,Net-(C8-Pad2)*
X14647500Y-29337000D03*
G04 #@! TO.P,rail3v1,8*
G04 #@! TO.N,Net-(C9-Pad1)*
X19642500Y-29337000D03*
G04 #@! TD*
D12*
G04 #@! TO.P,rail5v1,9*
G04 #@! TO.N,GND*
X32131000Y-31242000D03*
D13*
G04 #@! TO.P,rail5v1,4*
X29633500Y-33147000D03*
G04 #@! TO.P,rail5v1,5*
G04 #@! TO.N,Net-(R5-Pad2)*
X34628500Y-33147000D03*
G04 #@! TO.P,rail5v1,3*
G04 #@! TO.N,Net-(C3-Pad1)*
X29633500Y-31877000D03*
G04 #@! TO.P,rail5v1,6*
G04 #@! TO.N,Net-(C5-Pad1)*
X34628500Y-31877000D03*
G04 #@! TO.P,rail5v1,2*
G04 #@! TO.N,+15V*
X29633500Y-30607000D03*
G04 #@! TO.P,rail5v1,7*
G04 #@! TO.N,Net-(R10-Pad2)*
X34628500Y-30607000D03*
G04 #@! TO.P,rail5v1,1*
G04 #@! TO.N,Net-(C3-Pad2)*
X29633500Y-29337000D03*
G04 #@! TO.P,rail5v1,8*
G04 #@! TO.N,Net-(C4-Pad1)*
X34628500Y-29337000D03*
G04 #@! TD*
D18*
G04 #@! TO.P,ReversePolarityFet1,3*
G04 #@! TO.N,+15V*
X19885000Y-106299000D03*
G04 #@! TO.P,ReversePolarityFet1,1*
G04 #@! TO.N,GND*
X19885000Y-110871000D03*
D19*
G04 #@! TO.P,ReversePolarityFet1,2*
G04 #@! TO.N,liPo1*
X13335000Y-108585000D03*
G04 #@! TD*
D18*
G04 #@! TO.P,ReversePolarityFet2,3*
G04 #@! TO.N,+15V*
X48460000Y-106934000D03*
G04 #@! TO.P,ReversePolarityFet2,1*
G04 #@! TO.N,GND*
X48460000Y-111506000D03*
D19*
G04 #@! TO.P,ReversePolarityFet2,2*
G04 #@! TO.N,liPo2*
X41910000Y-109220000D03*
G04 #@! TD*
D20*
G04 #@! TO.P,MonitorFet1,1*
G04 #@! TO.N,monitorEna1*
X14225000Y-11625000D03*
G04 #@! TO.P,MonitorFet1,3*
G04 #@! TO.N,+15V*
X18795000Y-11625000D03*
D21*
G04 #@! TO.P,MonitorFet1,2*
G04 #@! TO.N,Net-(MonitorFet1-Pad2)*
X16510000Y-4445000D03*
G04 #@! TD*
D22*
G04 #@! TO.P,I2C1,2*
G04 #@! TO.N,sda*
X3810000Y-13843000D03*
G04 #@! TO.P,I2C1,1*
G04 #@! TO.N,scl*
X3810000Y-11303000D03*
G04 #@! TD*
D14*
G04 #@! TO.P,Card1,14*
G04 #@! TO.N,scl*
X6350000Y-17780000D03*
G04 #@! TO.P,Card1,13*
G04 #@! TO.N,sda*
X3810000Y-17780000D03*
G04 #@! TO.P,Card1,12*
G04 #@! TO.N,+5V*
X6350000Y-20320000D03*
G04 #@! TO.P,Card1,11*
G04 #@! TO.N,+3V3*
X3810000Y-20320000D03*
G04 #@! TO.P,Card1,10*
G04 #@! TO.N,+15V*
X6350000Y-22860000D03*
G04 #@! TO.P,Card1,9*
X3810000Y-22860000D03*
G04 #@! TO.P,Card1,8*
G04 #@! TO.N,header2Gpio6*
X6350000Y-25400000D03*
G04 #@! TO.P,Card1,7*
G04 #@! TO.N,GND*
X3810000Y-25400000D03*
G04 #@! TO.P,Card1,6*
G04 #@! TO.N,header2Gpio5*
X6350000Y-27940000D03*
G04 #@! TO.P,Card1,5*
G04 #@! TO.N,GND*
X3810000Y-27940000D03*
G04 #@! TO.P,Card1,4*
G04 #@! TO.N,header2Gpio4*
X6350000Y-30480000D03*
G04 #@! TO.P,Card1,3*
G04 #@! TO.N,header2Gpio2*
X3810000Y-30480000D03*
G04 #@! TO.P,Card1,2*
G04 #@! TO.N,header2Gpio3*
X6350000Y-33020000D03*
G04 #@! TO.P,Card1,1*
G04 #@! TO.N,header2Gpio1*
X3810000Y-33020000D03*
G04 #@! TD*
G04 #@! TO.P,Card2,14*
G04 #@! TO.N,scl*
X6350000Y-43180000D03*
G04 #@! TO.P,Card2,13*
G04 #@! TO.N,sda*
X3810000Y-43180000D03*
G04 #@! TO.P,Card2,12*
G04 #@! TO.N,+5V*
X6350000Y-45720000D03*
G04 #@! TO.P,Card2,11*
G04 #@! TO.N,+3V3*
X3810000Y-45720000D03*
G04 #@! TO.P,Card2,10*
G04 #@! TO.N,+15V*
X6350000Y-48260000D03*
G04 #@! TO.P,Card2,9*
X3810000Y-48260000D03*
G04 #@! TO.P,Card2,8*
G04 #@! TO.N,header3Gpio6*
X6350000Y-50800000D03*
G04 #@! TO.P,Card2,7*
G04 #@! TO.N,GND*
X3810000Y-50800000D03*
G04 #@! TO.P,Card2,6*
G04 #@! TO.N,header3Gpio5*
X6350000Y-53340000D03*
G04 #@! TO.P,Card2,5*
G04 #@! TO.N,GND*
X3810000Y-53340000D03*
G04 #@! TO.P,Card2,4*
G04 #@! TO.N,header3Gpio4*
X6350000Y-55880000D03*
G04 #@! TO.P,Card2,3*
G04 #@! TO.N,header3Gpio2*
X3810000Y-55880000D03*
G04 #@! TO.P,Card2,2*
G04 #@! TO.N,header3Gpio3*
X6350000Y-58420000D03*
G04 #@! TO.P,Card2,1*
G04 #@! TO.N,header3Gpio1*
X3810000Y-58420000D03*
G04 #@! TD*
G04 #@! TO.P,Card3,14*
G04 #@! TO.N,scl*
X6350000Y-68580000D03*
G04 #@! TO.P,Card3,13*
G04 #@! TO.N,sda*
X3810000Y-68580000D03*
G04 #@! TO.P,Card3,12*
G04 #@! TO.N,+5V*
X6350000Y-71120000D03*
G04 #@! TO.P,Card3,11*
G04 #@! TO.N,+3V3*
X3810000Y-71120000D03*
G04 #@! TO.P,Card3,10*
G04 #@! TO.N,+15V*
X6350000Y-73660000D03*
G04 #@! TO.P,Card3,9*
X3810000Y-73660000D03*
G04 #@! TO.P,Card3,8*
G04 #@! TO.N,header4Gpio6*
X6350000Y-76200000D03*
G04 #@! TO.P,Card3,7*
G04 #@! TO.N,GND*
X3810000Y-76200000D03*
G04 #@! TO.P,Card3,6*
G04 #@! TO.N,header4Gpio5*
X6350000Y-78740000D03*
G04 #@! TO.P,Card3,5*
G04 #@! TO.N,GND*
X3810000Y-78740000D03*
G04 #@! TO.P,Card3,4*
G04 #@! TO.N,header4Gpio4*
X6350000Y-81280000D03*
G04 #@! TO.P,Card3,3*
G04 #@! TO.N,header4Gpio2*
X3810000Y-81280000D03*
G04 #@! TO.P,Card3,2*
G04 #@! TO.N,header4Gpio3*
X6350000Y-83820000D03*
G04 #@! TO.P,Card3,1*
G04 #@! TO.N,header4Gpio1*
X3810000Y-83820000D03*
G04 #@! TD*
G04 #@! TO.P,Card4,14*
G04 #@! TO.N,scl*
X6350000Y-93980000D03*
G04 #@! TO.P,Card4,13*
G04 #@! TO.N,sda*
X3810000Y-93980000D03*
G04 #@! TO.P,Card4,12*
G04 #@! TO.N,+5V*
X6350000Y-96520000D03*
G04 #@! TO.P,Card4,11*
G04 #@! TO.N,+3V3*
X3810000Y-96520000D03*
G04 #@! TO.P,Card4,10*
G04 #@! TO.N,+15V*
X6350000Y-99060000D03*
G04 #@! TO.P,Card4,9*
X3810000Y-99060000D03*
G04 #@! TO.P,Card4,8*
G04 #@! TO.N,header5Gpio6*
X6350000Y-101600000D03*
G04 #@! TO.P,Card4,7*
G04 #@! TO.N,GND*
X3810000Y-101600000D03*
G04 #@! TO.P,Card4,6*
G04 #@! TO.N,header5Gpio5*
X6350000Y-104140000D03*
G04 #@! TO.P,Card4,5*
G04 #@! TO.N,GND*
X3810000Y-104140000D03*
G04 #@! TO.P,Card4,4*
G04 #@! TO.N,header5Gpio4*
X6350000Y-106680000D03*
G04 #@! TO.P,Card4,3*
G04 #@! TO.N,header5Gpio2*
X3810000Y-106680000D03*
G04 #@! TO.P,Card4,2*
G04 #@! TO.N,header5Gpio3*
X6350000Y-109220000D03*
G04 #@! TO.P,Card4,1*
G04 #@! TO.N,header5Gpio1*
X3810000Y-109220000D03*
G04 #@! TD*
G04 #@! TO.P,Card8,14*
G04 #@! TO.N,scl*
X57150000Y-33020000D03*
G04 #@! TO.P,Card8,13*
G04 #@! TO.N,sda*
X59690000Y-33020000D03*
G04 #@! TO.P,Card8,12*
G04 #@! TO.N,+5V*
X57150000Y-30480000D03*
G04 #@! TO.P,Card8,11*
G04 #@! TO.N,+3V3*
X59690000Y-30480000D03*
G04 #@! TO.P,Card8,10*
G04 #@! TO.N,+15V*
X57150000Y-27940000D03*
G04 #@! TO.P,Card8,9*
X59690000Y-27940000D03*
G04 #@! TO.P,Card8,8*
G04 #@! TO.N,header6Gpio6*
X57150000Y-25400000D03*
G04 #@! TO.P,Card8,7*
G04 #@! TO.N,GND*
X59690000Y-25400000D03*
G04 #@! TO.P,Card8,6*
G04 #@! TO.N,header6Gpio5*
X57150000Y-22860000D03*
G04 #@! TO.P,Card8,5*
G04 #@! TO.N,GND*
X59690000Y-22860000D03*
G04 #@! TO.P,Card8,4*
G04 #@! TO.N,header6Gpio4*
X57150000Y-20320000D03*
G04 #@! TO.P,Card8,3*
G04 #@! TO.N,header6Gpio2*
X59690000Y-20320000D03*
G04 #@! TO.P,Card8,2*
G04 #@! TO.N,header6Gpio3*
X57150000Y-17780000D03*
G04 #@! TO.P,Card8,1*
G04 #@! TO.N,header6Gpio1*
X59690000Y-17780000D03*
G04 #@! TD*
G04 #@! TO.P,Card7,14*
G04 #@! TO.N,scl*
X57150000Y-58420000D03*
G04 #@! TO.P,Card7,13*
G04 #@! TO.N,sda*
X59690000Y-58420000D03*
G04 #@! TO.P,Card7,12*
G04 #@! TO.N,+5V*
X57150000Y-55880000D03*
G04 #@! TO.P,Card7,11*
G04 #@! TO.N,+3V3*
X59690000Y-55880000D03*
G04 #@! TO.P,Card7,10*
G04 #@! TO.N,+15V*
X57150000Y-53340000D03*
G04 #@! TO.P,Card7,9*
X59690000Y-53340000D03*
G04 #@! TO.P,Card7,8*
G04 #@! TO.N,header7Gpio6*
X57150000Y-50800000D03*
G04 #@! TO.P,Card7,7*
G04 #@! TO.N,GND*
X59690000Y-50800000D03*
G04 #@! TO.P,Card7,6*
G04 #@! TO.N,header7Gpio5*
X57150000Y-48260000D03*
G04 #@! TO.P,Card7,5*
G04 #@! TO.N,GND*
X59690000Y-48260000D03*
G04 #@! TO.P,Card7,4*
G04 #@! TO.N,header7Gpio4*
X57150000Y-45720000D03*
G04 #@! TO.P,Card7,3*
G04 #@! TO.N,header7Gpio2*
X59690000Y-45720000D03*
G04 #@! TO.P,Card7,2*
G04 #@! TO.N,header7Gpio3*
X57150000Y-43180000D03*
G04 #@! TO.P,Card7,1*
G04 #@! TO.N,header7Gpio1*
X59690000Y-43180000D03*
G04 #@! TD*
G04 #@! TO.P,Card6,14*
G04 #@! TO.N,scl*
X57150000Y-83820000D03*
G04 #@! TO.P,Card6,13*
G04 #@! TO.N,sda*
X59690000Y-83820000D03*
G04 #@! TO.P,Card6,12*
G04 #@! TO.N,+5V*
X57150000Y-81280000D03*
G04 #@! TO.P,Card6,11*
G04 #@! TO.N,+3V3*
X59690000Y-81280000D03*
G04 #@! TO.P,Card6,10*
G04 #@! TO.N,+15V*
X57150000Y-78740000D03*
G04 #@! TO.P,Card6,9*
X59690000Y-78740000D03*
G04 #@! TO.P,Card6,8*
G04 #@! TO.N,header8Gpio6*
X57150000Y-76200000D03*
G04 #@! TO.P,Card6,7*
G04 #@! TO.N,GND*
X59690000Y-76200000D03*
G04 #@! TO.P,Card6,6*
G04 #@! TO.N,header8Gpio5*
X57150000Y-73660000D03*
G04 #@! TO.P,Card6,5*
G04 #@! TO.N,GND*
X59690000Y-73660000D03*
G04 #@! TO.P,Card6,4*
G04 #@! TO.N,header8Gpio4*
X57150000Y-71120000D03*
G04 #@! TO.P,Card6,3*
G04 #@! TO.N,header8Gpio2*
X59690000Y-71120000D03*
G04 #@! TO.P,Card6,2*
G04 #@! TO.N,header8Gpio3*
X57150000Y-68580000D03*
G04 #@! TO.P,Card6,1*
G04 #@! TO.N,header8Gpio1*
X59690000Y-68580000D03*
G04 #@! TD*
G04 #@! TO.P,Card5,14*
G04 #@! TO.N,scl*
X57150000Y-109220000D03*
G04 #@! TO.P,Card5,13*
G04 #@! TO.N,sda*
X59690000Y-109220000D03*
G04 #@! TO.P,Card5,12*
G04 #@! TO.N,+5V*
X57150000Y-106680000D03*
G04 #@! TO.P,Card5,11*
G04 #@! TO.N,+3V3*
X59690000Y-106680000D03*
G04 #@! TO.P,Card5,10*
G04 #@! TO.N,+15V*
X57150000Y-104140000D03*
G04 #@! TO.P,Card5,9*
X59690000Y-104140000D03*
G04 #@! TO.P,Card5,8*
G04 #@! TO.N,header9Gpio6*
X57150000Y-101600000D03*
G04 #@! TO.P,Card5,7*
G04 #@! TO.N,GND*
X59690000Y-101600000D03*
G04 #@! TO.P,Card5,6*
G04 #@! TO.N,header9Gpio5*
X57150000Y-99060000D03*
G04 #@! TO.P,Card5,5*
G04 #@! TO.N,GND*
X59690000Y-99060000D03*
G04 #@! TO.P,Card5,4*
G04 #@! TO.N,header9Gpio4*
X57150000Y-96520000D03*
G04 #@! TO.P,Card5,3*
G04 #@! TO.N,header9Gpio2*
X59690000Y-96520000D03*
G04 #@! TO.P,Card5,2*
G04 #@! TO.N,header9Gpio3*
X57150000Y-93980000D03*
G04 #@! TO.P,Card5,1*
G04 #@! TO.N,header9Gpio1*
X59690000Y-93980000D03*
G04 #@! TD*
D15*
G04 #@! TO.N,Net-(C15-Pad2)*
G04 #@! TO.C,C15*
G36*
X51957504Y-33923204D02*
X51981773Y-33926804D01*
X52005571Y-33932765D01*
X52028671Y-33941030D01*
X52050849Y-33951520D01*
X52071893Y-33964133D01*
X52091598Y-33978747D01*
X52109777Y-33995223D01*
X52126253Y-34013402D01*
X52140867Y-34033107D01*
X52153480Y-34054151D01*
X52163970Y-34076329D01*
X52172235Y-34099429D01*
X52178196Y-34123227D01*
X52181796Y-34147496D01*
X52183000Y-34172000D01*
X52183000Y-35097000D01*
X52181796Y-35121504D01*
X52178196Y-35145773D01*
X52172235Y-35169571D01*
X52163970Y-35192671D01*
X52153480Y-35214849D01*
X52140867Y-35235893D01*
X52126253Y-35255598D01*
X52109777Y-35273777D01*
X52091598Y-35290253D01*
X52071893Y-35304867D01*
X52050849Y-35317480D01*
X52028671Y-35327970D01*
X52005571Y-35336235D01*
X51981773Y-35342196D01*
X51957504Y-35345796D01*
X51933000Y-35347000D01*
X50683000Y-35347000D01*
X50658496Y-35345796D01*
X50634227Y-35342196D01*
X50610429Y-35336235D01*
X50587329Y-35327970D01*
X50565151Y-35317480D01*
X50544107Y-35304867D01*
X50524402Y-35290253D01*
X50506223Y-35273777D01*
X50489747Y-35255598D01*
X50475133Y-35235893D01*
X50462520Y-35214849D01*
X50452030Y-35192671D01*
X50443765Y-35169571D01*
X50437804Y-35145773D01*
X50434204Y-35121504D01*
X50433000Y-35097000D01*
X50433000Y-34172000D01*
X50434204Y-34147496D01*
X50437804Y-34123227D01*
X50443765Y-34099429D01*
X50452030Y-34076329D01*
X50462520Y-34054151D01*
X50475133Y-34033107D01*
X50489747Y-34013402D01*
X50506223Y-33995223D01*
X50524402Y-33978747D01*
X50544107Y-33964133D01*
X50565151Y-33951520D01*
X50587329Y-33941030D01*
X50610429Y-33932765D01*
X50634227Y-33926804D01*
X50658496Y-33923204D01*
X50683000Y-33922000D01*
X51933000Y-33922000D01*
X51957504Y-33923204D01*
X51957504Y-33923204D01*
G37*
D16*
G04 #@! TD*
G04 #@! TO.P,C15,2*
G04 #@! TO.N,Net-(C15-Pad2)*
X51308000Y-34634500D03*
D15*
G04 #@! TO.N,Net-(C15-Pad1)*
G04 #@! TO.C,C15*
G36*
X51957504Y-30948204D02*
X51981773Y-30951804D01*
X52005571Y-30957765D01*
X52028671Y-30966030D01*
X52050849Y-30976520D01*
X52071893Y-30989133D01*
X52091598Y-31003747D01*
X52109777Y-31020223D01*
X52126253Y-31038402D01*
X52140867Y-31058107D01*
X52153480Y-31079151D01*
X52163970Y-31101329D01*
X52172235Y-31124429D01*
X52178196Y-31148227D01*
X52181796Y-31172496D01*
X52183000Y-31197000D01*
X52183000Y-32122000D01*
X52181796Y-32146504D01*
X52178196Y-32170773D01*
X52172235Y-32194571D01*
X52163970Y-32217671D01*
X52153480Y-32239849D01*
X52140867Y-32260893D01*
X52126253Y-32280598D01*
X52109777Y-32298777D01*
X52091598Y-32315253D01*
X52071893Y-32329867D01*
X52050849Y-32342480D01*
X52028671Y-32352970D01*
X52005571Y-32361235D01*
X51981773Y-32367196D01*
X51957504Y-32370796D01*
X51933000Y-32372000D01*
X50683000Y-32372000D01*
X50658496Y-32370796D01*
X50634227Y-32367196D01*
X50610429Y-32361235D01*
X50587329Y-32352970D01*
X50565151Y-32342480D01*
X50544107Y-32329867D01*
X50524402Y-32315253D01*
X50506223Y-32298777D01*
X50489747Y-32280598D01*
X50475133Y-32260893D01*
X50462520Y-32239849D01*
X50452030Y-32217671D01*
X50443765Y-32194571D01*
X50437804Y-32170773D01*
X50434204Y-32146504D01*
X50433000Y-32122000D01*
X50433000Y-31197000D01*
X50434204Y-31172496D01*
X50437804Y-31148227D01*
X50443765Y-31124429D01*
X50452030Y-31101329D01*
X50462520Y-31079151D01*
X50475133Y-31058107D01*
X50489747Y-31038402D01*
X50506223Y-31020223D01*
X50524402Y-31003747D01*
X50544107Y-30989133D01*
X50565151Y-30976520D01*
X50587329Y-30966030D01*
X50610429Y-30957765D01*
X50634227Y-30951804D01*
X50658496Y-30948204D01*
X50683000Y-30947000D01*
X51933000Y-30947000D01*
X51957504Y-30948204D01*
X51957504Y-30948204D01*
G37*
D16*
G04 #@! TD*
G04 #@! TO.P,C15,1*
G04 #@! TO.N,Net-(C15-Pad1)*
X51308000Y-31659500D03*
D15*
G04 #@! TO.N,Net-(R17-Pad2)*
G04 #@! TO.C,R17*
G36*
X51576504Y-40146204D02*
X51600773Y-40149804D01*
X51624571Y-40155765D01*
X51647671Y-40164030D01*
X51669849Y-40174520D01*
X51690893Y-40187133D01*
X51710598Y-40201747D01*
X51728777Y-40218223D01*
X51745253Y-40236402D01*
X51759867Y-40256107D01*
X51772480Y-40277151D01*
X51782970Y-40299329D01*
X51791235Y-40322429D01*
X51797196Y-40346227D01*
X51800796Y-40370496D01*
X51802000Y-40395000D01*
X51802000Y-41320000D01*
X51800796Y-41344504D01*
X51797196Y-41368773D01*
X51791235Y-41392571D01*
X51782970Y-41415671D01*
X51772480Y-41437849D01*
X51759867Y-41458893D01*
X51745253Y-41478598D01*
X51728777Y-41496777D01*
X51710598Y-41513253D01*
X51690893Y-41527867D01*
X51669849Y-41540480D01*
X51647671Y-41550970D01*
X51624571Y-41559235D01*
X51600773Y-41565196D01*
X51576504Y-41568796D01*
X51552000Y-41570000D01*
X50302000Y-41570000D01*
X50277496Y-41568796D01*
X50253227Y-41565196D01*
X50229429Y-41559235D01*
X50206329Y-41550970D01*
X50184151Y-41540480D01*
X50163107Y-41527867D01*
X50143402Y-41513253D01*
X50125223Y-41496777D01*
X50108747Y-41478598D01*
X50094133Y-41458893D01*
X50081520Y-41437849D01*
X50071030Y-41415671D01*
X50062765Y-41392571D01*
X50056804Y-41368773D01*
X50053204Y-41344504D01*
X50052000Y-41320000D01*
X50052000Y-40395000D01*
X50053204Y-40370496D01*
X50056804Y-40346227D01*
X50062765Y-40322429D01*
X50071030Y-40299329D01*
X50081520Y-40277151D01*
X50094133Y-40256107D01*
X50108747Y-40236402D01*
X50125223Y-40218223D01*
X50143402Y-40201747D01*
X50163107Y-40187133D01*
X50184151Y-40174520D01*
X50206329Y-40164030D01*
X50229429Y-40155765D01*
X50253227Y-40149804D01*
X50277496Y-40146204D01*
X50302000Y-40145000D01*
X51552000Y-40145000D01*
X51576504Y-40146204D01*
X51576504Y-40146204D01*
G37*
D16*
G04 #@! TD*
G04 #@! TO.P,R17,2*
G04 #@! TO.N,Net-(R17-Pad2)*
X50927000Y-40857500D03*
D15*
G04 #@! TO.N,+12V*
G04 #@! TO.C,R17*
G36*
X51576504Y-37171204D02*
X51600773Y-37174804D01*
X51624571Y-37180765D01*
X51647671Y-37189030D01*
X51669849Y-37199520D01*
X51690893Y-37212133D01*
X51710598Y-37226747D01*
X51728777Y-37243223D01*
X51745253Y-37261402D01*
X51759867Y-37281107D01*
X51772480Y-37302151D01*
X51782970Y-37324329D01*
X51791235Y-37347429D01*
X51797196Y-37371227D01*
X51800796Y-37395496D01*
X51802000Y-37420000D01*
X51802000Y-38345000D01*
X51800796Y-38369504D01*
X51797196Y-38393773D01*
X51791235Y-38417571D01*
X51782970Y-38440671D01*
X51772480Y-38462849D01*
X51759867Y-38483893D01*
X51745253Y-38503598D01*
X51728777Y-38521777D01*
X51710598Y-38538253D01*
X51690893Y-38552867D01*
X51669849Y-38565480D01*
X51647671Y-38575970D01*
X51624571Y-38584235D01*
X51600773Y-38590196D01*
X51576504Y-38593796D01*
X51552000Y-38595000D01*
X50302000Y-38595000D01*
X50277496Y-38593796D01*
X50253227Y-38590196D01*
X50229429Y-38584235D01*
X50206329Y-38575970D01*
X50184151Y-38565480D01*
X50163107Y-38552867D01*
X50143402Y-38538253D01*
X50125223Y-38521777D01*
X50108747Y-38503598D01*
X50094133Y-38483893D01*
X50081520Y-38462849D01*
X50071030Y-38440671D01*
X50062765Y-38417571D01*
X50056804Y-38393773D01*
X50053204Y-38369504D01*
X50052000Y-38345000D01*
X50052000Y-37420000D01*
X50053204Y-37395496D01*
X50056804Y-37371227D01*
X50062765Y-37347429D01*
X50071030Y-37324329D01*
X50081520Y-37302151D01*
X50094133Y-37281107D01*
X50108747Y-37261402D01*
X50125223Y-37243223D01*
X50143402Y-37226747D01*
X50163107Y-37212133D01*
X50184151Y-37199520D01*
X50206329Y-37189030D01*
X50229429Y-37180765D01*
X50253227Y-37174804D01*
X50277496Y-37171204D01*
X50302000Y-37170000D01*
X51552000Y-37170000D01*
X51576504Y-37171204D01*
X51576504Y-37171204D01*
G37*
D16*
G04 #@! TD*
G04 #@! TO.P,R17,1*
G04 #@! TO.N,+12V*
X50927000Y-37882500D03*
D15*
G04 #@! TO.N,GND*
G04 #@! TO.C,R18*
G36*
X45989504Y-39893204D02*
X46013773Y-39896804D01*
X46037571Y-39902765D01*
X46060671Y-39911030D01*
X46082849Y-39921520D01*
X46103893Y-39934133D01*
X46123598Y-39948747D01*
X46141777Y-39965223D01*
X46158253Y-39983402D01*
X46172867Y-40003107D01*
X46185480Y-40024151D01*
X46195970Y-40046329D01*
X46204235Y-40069429D01*
X46210196Y-40093227D01*
X46213796Y-40117496D01*
X46215000Y-40142000D01*
X46215000Y-41392000D01*
X46213796Y-41416504D01*
X46210196Y-41440773D01*
X46204235Y-41464571D01*
X46195970Y-41487671D01*
X46185480Y-41509849D01*
X46172867Y-41530893D01*
X46158253Y-41550598D01*
X46141777Y-41568777D01*
X46123598Y-41585253D01*
X46103893Y-41599867D01*
X46082849Y-41612480D01*
X46060671Y-41622970D01*
X46037571Y-41631235D01*
X46013773Y-41637196D01*
X45989504Y-41640796D01*
X45965000Y-41642000D01*
X45040000Y-41642000D01*
X45015496Y-41640796D01*
X44991227Y-41637196D01*
X44967429Y-41631235D01*
X44944329Y-41622970D01*
X44922151Y-41612480D01*
X44901107Y-41599867D01*
X44881402Y-41585253D01*
X44863223Y-41568777D01*
X44846747Y-41550598D01*
X44832133Y-41530893D01*
X44819520Y-41509849D01*
X44809030Y-41487671D01*
X44800765Y-41464571D01*
X44794804Y-41440773D01*
X44791204Y-41416504D01*
X44790000Y-41392000D01*
X44790000Y-40142000D01*
X44791204Y-40117496D01*
X44794804Y-40093227D01*
X44800765Y-40069429D01*
X44809030Y-40046329D01*
X44819520Y-40024151D01*
X44832133Y-40003107D01*
X44846747Y-39983402D01*
X44863223Y-39965223D01*
X44881402Y-39948747D01*
X44901107Y-39934133D01*
X44922151Y-39921520D01*
X44944329Y-39911030D01*
X44967429Y-39902765D01*
X44991227Y-39896804D01*
X45015496Y-39893204D01*
X45040000Y-39892000D01*
X45965000Y-39892000D01*
X45989504Y-39893204D01*
X45989504Y-39893204D01*
G37*
D16*
G04 #@! TD*
G04 #@! TO.P,R18,2*
G04 #@! TO.N,GND*
X45502500Y-40767000D03*
D15*
G04 #@! TO.N,Net-(R17-Pad2)*
G04 #@! TO.C,R18*
G36*
X48964504Y-39893204D02*
X48988773Y-39896804D01*
X49012571Y-39902765D01*
X49035671Y-39911030D01*
X49057849Y-39921520D01*
X49078893Y-39934133D01*
X49098598Y-39948747D01*
X49116777Y-39965223D01*
X49133253Y-39983402D01*
X49147867Y-40003107D01*
X49160480Y-40024151D01*
X49170970Y-40046329D01*
X49179235Y-40069429D01*
X49185196Y-40093227D01*
X49188796Y-40117496D01*
X49190000Y-40142000D01*
X49190000Y-41392000D01*
X49188796Y-41416504D01*
X49185196Y-41440773D01*
X49179235Y-41464571D01*
X49170970Y-41487671D01*
X49160480Y-41509849D01*
X49147867Y-41530893D01*
X49133253Y-41550598D01*
X49116777Y-41568777D01*
X49098598Y-41585253D01*
X49078893Y-41599867D01*
X49057849Y-41612480D01*
X49035671Y-41622970D01*
X49012571Y-41631235D01*
X48988773Y-41637196D01*
X48964504Y-41640796D01*
X48940000Y-41642000D01*
X48015000Y-41642000D01*
X47990496Y-41640796D01*
X47966227Y-41637196D01*
X47942429Y-41631235D01*
X47919329Y-41622970D01*
X47897151Y-41612480D01*
X47876107Y-41599867D01*
X47856402Y-41585253D01*
X47838223Y-41568777D01*
X47821747Y-41550598D01*
X47807133Y-41530893D01*
X47794520Y-41509849D01*
X47784030Y-41487671D01*
X47775765Y-41464571D01*
X47769804Y-41440773D01*
X47766204Y-41416504D01*
X47765000Y-41392000D01*
X47765000Y-40142000D01*
X47766204Y-40117496D01*
X47769804Y-40093227D01*
X47775765Y-40069429D01*
X47784030Y-40046329D01*
X47794520Y-40024151D01*
X47807133Y-40003107D01*
X47821747Y-39983402D01*
X47838223Y-39965223D01*
X47856402Y-39948747D01*
X47876107Y-39934133D01*
X47897151Y-39921520D01*
X47919329Y-39911030D01*
X47942429Y-39902765D01*
X47966227Y-39896804D01*
X47990496Y-39893204D01*
X48015000Y-39892000D01*
X48940000Y-39892000D01*
X48964504Y-39893204D01*
X48964504Y-39893204D01*
G37*
D16*
G04 #@! TD*
G04 #@! TO.P,R18,1*
G04 #@! TO.N,Net-(R17-Pad2)*
X48477500Y-40767000D03*
D15*
G04 #@! TO.N,GND*
G04 #@! TO.C,R19*
G36*
X45989504Y-35448204D02*
X46013773Y-35451804D01*
X46037571Y-35457765D01*
X46060671Y-35466030D01*
X46082849Y-35476520D01*
X46103893Y-35489133D01*
X46123598Y-35503747D01*
X46141777Y-35520223D01*
X46158253Y-35538402D01*
X46172867Y-35558107D01*
X46185480Y-35579151D01*
X46195970Y-35601329D01*
X46204235Y-35624429D01*
X46210196Y-35648227D01*
X46213796Y-35672496D01*
X46215000Y-35697000D01*
X46215000Y-36947000D01*
X46213796Y-36971504D01*
X46210196Y-36995773D01*
X46204235Y-37019571D01*
X46195970Y-37042671D01*
X46185480Y-37064849D01*
X46172867Y-37085893D01*
X46158253Y-37105598D01*
X46141777Y-37123777D01*
X46123598Y-37140253D01*
X46103893Y-37154867D01*
X46082849Y-37167480D01*
X46060671Y-37177970D01*
X46037571Y-37186235D01*
X46013773Y-37192196D01*
X45989504Y-37195796D01*
X45965000Y-37197000D01*
X45040000Y-37197000D01*
X45015496Y-37195796D01*
X44991227Y-37192196D01*
X44967429Y-37186235D01*
X44944329Y-37177970D01*
X44922151Y-37167480D01*
X44901107Y-37154867D01*
X44881402Y-37140253D01*
X44863223Y-37123777D01*
X44846747Y-37105598D01*
X44832133Y-37085893D01*
X44819520Y-37064849D01*
X44809030Y-37042671D01*
X44800765Y-37019571D01*
X44794804Y-36995773D01*
X44791204Y-36971504D01*
X44790000Y-36947000D01*
X44790000Y-35697000D01*
X44791204Y-35672496D01*
X44794804Y-35648227D01*
X44800765Y-35624429D01*
X44809030Y-35601329D01*
X44819520Y-35579151D01*
X44832133Y-35558107D01*
X44846747Y-35538402D01*
X44863223Y-35520223D01*
X44881402Y-35503747D01*
X44901107Y-35489133D01*
X44922151Y-35476520D01*
X44944329Y-35466030D01*
X44967429Y-35457765D01*
X44991227Y-35451804D01*
X45015496Y-35448204D01*
X45040000Y-35447000D01*
X45965000Y-35447000D01*
X45989504Y-35448204D01*
X45989504Y-35448204D01*
G37*
D16*
G04 #@! TD*
G04 #@! TO.P,R19,2*
G04 #@! TO.N,GND*
X45502500Y-36322000D03*
D15*
G04 #@! TO.N,Net-(C15-Pad2)*
G04 #@! TO.C,R19*
G36*
X48964504Y-35448204D02*
X48988773Y-35451804D01*
X49012571Y-35457765D01*
X49035671Y-35466030D01*
X49057849Y-35476520D01*
X49078893Y-35489133D01*
X49098598Y-35503747D01*
X49116777Y-35520223D01*
X49133253Y-35538402D01*
X49147867Y-35558107D01*
X49160480Y-35579151D01*
X49170970Y-35601329D01*
X49179235Y-35624429D01*
X49185196Y-35648227D01*
X49188796Y-35672496D01*
X49190000Y-35697000D01*
X49190000Y-36947000D01*
X49188796Y-36971504D01*
X49185196Y-36995773D01*
X49179235Y-37019571D01*
X49170970Y-37042671D01*
X49160480Y-37064849D01*
X49147867Y-37085893D01*
X49133253Y-37105598D01*
X49116777Y-37123777D01*
X49098598Y-37140253D01*
X49078893Y-37154867D01*
X49057849Y-37167480D01*
X49035671Y-37177970D01*
X49012571Y-37186235D01*
X48988773Y-37192196D01*
X48964504Y-37195796D01*
X48940000Y-37197000D01*
X48015000Y-37197000D01*
X47990496Y-37195796D01*
X47966227Y-37192196D01*
X47942429Y-37186235D01*
X47919329Y-37177970D01*
X47897151Y-37167480D01*
X47876107Y-37154867D01*
X47856402Y-37140253D01*
X47838223Y-37123777D01*
X47821747Y-37105598D01*
X47807133Y-37085893D01*
X47794520Y-37064849D01*
X47784030Y-37042671D01*
X47775765Y-37019571D01*
X47769804Y-36995773D01*
X47766204Y-36971504D01*
X47765000Y-36947000D01*
X47765000Y-35697000D01*
X47766204Y-35672496D01*
X47769804Y-35648227D01*
X47775765Y-35624429D01*
X47784030Y-35601329D01*
X47794520Y-35579151D01*
X47807133Y-35558107D01*
X47821747Y-35538402D01*
X47838223Y-35520223D01*
X47856402Y-35503747D01*
X47876107Y-35489133D01*
X47897151Y-35476520D01*
X47919329Y-35466030D01*
X47942429Y-35457765D01*
X47966227Y-35451804D01*
X47990496Y-35448204D01*
X48015000Y-35447000D01*
X48940000Y-35447000D01*
X48964504Y-35448204D01*
X48964504Y-35448204D01*
G37*
D16*
G04 #@! TD*
G04 #@! TO.P,R19,1*
G04 #@! TO.N,Net-(C15-Pad2)*
X48477500Y-36322000D03*
D15*
G04 #@! TO.N,Net-(R20-Pad2)*
G04 #@! TO.C,R20*
G36*
X51957504Y-28843204D02*
X51981773Y-28846804D01*
X52005571Y-28852765D01*
X52028671Y-28861030D01*
X52050849Y-28871520D01*
X52071893Y-28884133D01*
X52091598Y-28898747D01*
X52109777Y-28915223D01*
X52126253Y-28933402D01*
X52140867Y-28953107D01*
X52153480Y-28974151D01*
X52163970Y-28996329D01*
X52172235Y-29019429D01*
X52178196Y-29043227D01*
X52181796Y-29067496D01*
X52183000Y-29092000D01*
X52183000Y-30017000D01*
X52181796Y-30041504D01*
X52178196Y-30065773D01*
X52172235Y-30089571D01*
X52163970Y-30112671D01*
X52153480Y-30134849D01*
X52140867Y-30155893D01*
X52126253Y-30175598D01*
X52109777Y-30193777D01*
X52091598Y-30210253D01*
X52071893Y-30224867D01*
X52050849Y-30237480D01*
X52028671Y-30247970D01*
X52005571Y-30256235D01*
X51981773Y-30262196D01*
X51957504Y-30265796D01*
X51933000Y-30267000D01*
X50683000Y-30267000D01*
X50658496Y-30265796D01*
X50634227Y-30262196D01*
X50610429Y-30256235D01*
X50587329Y-30247970D01*
X50565151Y-30237480D01*
X50544107Y-30224867D01*
X50524402Y-30210253D01*
X50506223Y-30193777D01*
X50489747Y-30175598D01*
X50475133Y-30155893D01*
X50462520Y-30134849D01*
X50452030Y-30112671D01*
X50443765Y-30089571D01*
X50437804Y-30065773D01*
X50434204Y-30041504D01*
X50433000Y-30017000D01*
X50433000Y-29092000D01*
X50434204Y-29067496D01*
X50437804Y-29043227D01*
X50443765Y-29019429D01*
X50452030Y-28996329D01*
X50462520Y-28974151D01*
X50475133Y-28953107D01*
X50489747Y-28933402D01*
X50506223Y-28915223D01*
X50524402Y-28898747D01*
X50544107Y-28884133D01*
X50565151Y-28871520D01*
X50587329Y-28861030D01*
X50610429Y-28852765D01*
X50634227Y-28846804D01*
X50658496Y-28843204D01*
X50683000Y-28842000D01*
X51933000Y-28842000D01*
X51957504Y-28843204D01*
X51957504Y-28843204D01*
G37*
D16*
G04 #@! TD*
G04 #@! TO.P,R20,2*
G04 #@! TO.N,Net-(R20-Pad2)*
X51308000Y-29554500D03*
D15*
G04 #@! TO.N,+3V3*
G04 #@! TO.C,R20*
G36*
X51957504Y-25868204D02*
X51981773Y-25871804D01*
X52005571Y-25877765D01*
X52028671Y-25886030D01*
X52050849Y-25896520D01*
X52071893Y-25909133D01*
X52091598Y-25923747D01*
X52109777Y-25940223D01*
X52126253Y-25958402D01*
X52140867Y-25978107D01*
X52153480Y-25999151D01*
X52163970Y-26021329D01*
X52172235Y-26044429D01*
X52178196Y-26068227D01*
X52181796Y-26092496D01*
X52183000Y-26117000D01*
X52183000Y-27042000D01*
X52181796Y-27066504D01*
X52178196Y-27090773D01*
X52172235Y-27114571D01*
X52163970Y-27137671D01*
X52153480Y-27159849D01*
X52140867Y-27180893D01*
X52126253Y-27200598D01*
X52109777Y-27218777D01*
X52091598Y-27235253D01*
X52071893Y-27249867D01*
X52050849Y-27262480D01*
X52028671Y-27272970D01*
X52005571Y-27281235D01*
X51981773Y-27287196D01*
X51957504Y-27290796D01*
X51933000Y-27292000D01*
X50683000Y-27292000D01*
X50658496Y-27290796D01*
X50634227Y-27287196D01*
X50610429Y-27281235D01*
X50587329Y-27272970D01*
X50565151Y-27262480D01*
X50544107Y-27249867D01*
X50524402Y-27235253D01*
X50506223Y-27218777D01*
X50489747Y-27200598D01*
X50475133Y-27180893D01*
X50462520Y-27159849D01*
X50452030Y-27137671D01*
X50443765Y-27114571D01*
X50437804Y-27090773D01*
X50434204Y-27066504D01*
X50433000Y-27042000D01*
X50433000Y-26117000D01*
X50434204Y-26092496D01*
X50437804Y-26068227D01*
X50443765Y-26044429D01*
X50452030Y-26021329D01*
X50462520Y-25999151D01*
X50475133Y-25978107D01*
X50489747Y-25958402D01*
X50506223Y-25940223D01*
X50524402Y-25923747D01*
X50544107Y-25909133D01*
X50565151Y-25896520D01*
X50587329Y-25886030D01*
X50610429Y-25877765D01*
X50634227Y-25871804D01*
X50658496Y-25868204D01*
X50683000Y-25867000D01*
X51933000Y-25867000D01*
X51957504Y-25868204D01*
X51957504Y-25868204D01*
G37*
D16*
G04 #@! TD*
G04 #@! TO.P,R20,1*
G04 #@! TO.N,+3V3*
X51308000Y-26579500D03*
D14*
G04 #@! TO.P,L3,2*
G04 #@! TO.N,Net-(C13-Pad1)*
X43601000Y-22987000D03*
G04 #@! TO.P,L3,1*
G04 #@! TO.N,+12V*
X48601000Y-22987000D03*
G04 #@! TD*
G04 #@! TO.P,CentralHub1,1*
G04 #@! TO.N,header6Gpio2*
X33020000Y-44450000D03*
G04 #@! TO.P,CentralHub1,2*
G04 #@! TO.N,header2Gpio6*
X30480000Y-44450000D03*
G04 #@! TO.P,CentralHub1,3*
G04 #@! TO.N,header6Gpio1*
X33020000Y-46990000D03*
G04 #@! TO.P,CentralHub1,4*
G04 #@! TO.N,header2Gpio5*
X30480000Y-46990000D03*
G04 #@! TO.P,CentralHub1,5*
G04 #@! TO.N,header6Gpio3*
X33020000Y-49530000D03*
G04 #@! TO.P,CentralHub1,6*
G04 #@! TO.N,header2Gpio4*
X30480000Y-49530000D03*
G04 #@! TO.P,CentralHub1,7*
G04 #@! TO.N,header6Gpio4*
X33020000Y-52070000D03*
G04 #@! TO.P,CentralHub1,8*
G04 #@! TO.N,header2Gpio3*
X30480000Y-52070000D03*
G04 #@! TO.P,CentralHub1,9*
G04 #@! TO.N,header6Gpio5*
X33020000Y-54610000D03*
G04 #@! TO.P,CentralHub1,10*
G04 #@! TO.N,header2Gpio1*
X30480000Y-54610000D03*
G04 #@! TO.P,CentralHub1,11*
G04 #@! TO.N,header6Gpio6*
X33020000Y-57150000D03*
G04 #@! TO.P,CentralHub1,12*
G04 #@! TO.N,header2Gpio2*
X30480000Y-57150000D03*
G04 #@! TO.P,CentralHub1,13*
G04 #@! TO.N,header7Gpio2*
X33020000Y-59690000D03*
G04 #@! TO.P,CentralHub1,14*
G04 #@! TO.N,header3Gpio6*
X30480000Y-59690000D03*
G04 #@! TO.P,CentralHub1,15*
G04 #@! TO.N,header7Gpio1*
X33020000Y-62230000D03*
G04 #@! TO.P,CentralHub1,16*
G04 #@! TO.N,header3Gpio5*
X30480000Y-62230000D03*
G04 #@! TO.P,CentralHub1,17*
G04 #@! TO.N,header7Gpio3*
X33020000Y-64770000D03*
G04 #@! TO.P,CentralHub1,18*
G04 #@! TO.N,header3Gpio4*
X30480000Y-64770000D03*
G04 #@! TO.P,CentralHub1,19*
G04 #@! TO.N,header7Gpio4*
X33020000Y-67310000D03*
G04 #@! TO.P,CentralHub1,20*
G04 #@! TO.N,header3Gpio3*
X30480000Y-67310000D03*
G04 #@! TO.P,CentralHub1,21*
G04 #@! TO.N,header7Gpio5*
X33020000Y-69850000D03*
G04 #@! TO.P,CentralHub1,22*
G04 #@! TO.N,header3Gpio1*
X30480000Y-69850000D03*
G04 #@! TO.P,CentralHub1,23*
G04 #@! TO.N,header7Gpio6*
X33020000Y-72390000D03*
G04 #@! TO.P,CentralHub1,24*
G04 #@! TO.N,header3Gpio2*
X30480000Y-72390000D03*
G04 #@! TO.P,CentralHub1,25*
G04 #@! TO.N,header8Gpio2*
X33020000Y-74930000D03*
G04 #@! TO.P,CentralHub1,26*
G04 #@! TO.N,header4Gpio6*
X30480000Y-74930000D03*
G04 #@! TO.P,CentralHub1,27*
G04 #@! TO.N,header8Gpio1*
X33020000Y-77470000D03*
G04 #@! TO.P,CentralHub1,28*
G04 #@! TO.N,header4Gpio5*
X30480000Y-77470000D03*
G04 #@! TO.P,CentralHub1,29*
G04 #@! TO.N,header8Gpio3*
X33020000Y-80010000D03*
G04 #@! TO.P,CentralHub1,30*
G04 #@! TO.N,header4Gpio4*
X30480000Y-80010000D03*
G04 #@! TO.P,CentralHub1,31*
G04 #@! TO.N,header8Gpio4*
X33020000Y-82550000D03*
G04 #@! TO.P,CentralHub1,32*
G04 #@! TO.N,header4Gpio3*
X30480000Y-82550000D03*
G04 #@! TO.P,CentralHub1,33*
G04 #@! TO.N,header8Gpio5*
X33020000Y-85090000D03*
G04 #@! TO.P,CentralHub1,34*
G04 #@! TO.N,header4Gpio1*
X30480000Y-85090000D03*
G04 #@! TO.P,CentralHub1,35*
G04 #@! TO.N,header8Gpio6*
X33020000Y-87630000D03*
G04 #@! TO.P,CentralHub1,36*
G04 #@! TO.N,header4Gpio2*
X30480000Y-87630000D03*
G04 #@! TO.P,CentralHub1,37*
G04 #@! TO.N,header9Gpio2*
X33020000Y-90170000D03*
G04 #@! TO.P,CentralHub1,38*
G04 #@! TO.N,header5Gpio6*
X30480000Y-90170000D03*
G04 #@! TO.P,CentralHub1,39*
G04 #@! TO.N,header9Gpio1*
X33020000Y-92710000D03*
G04 #@! TO.P,CentralHub1,40*
G04 #@! TO.N,header5Gpio5*
X30480000Y-92710000D03*
G04 #@! TO.P,CentralHub1,41*
G04 #@! TO.N,header9Gpio3*
X33020000Y-95250000D03*
G04 #@! TO.P,CentralHub1,42*
G04 #@! TO.N,header5Gpio4*
X30480000Y-95250000D03*
G04 #@! TO.P,CentralHub1,43*
G04 #@! TO.N,header9Gpio4*
X33020000Y-97790000D03*
G04 #@! TO.P,CentralHub1,44*
G04 #@! TO.N,header5Gpio3*
X30480000Y-97790000D03*
G04 #@! TO.P,CentralHub1,45*
G04 #@! TO.N,header9Gpio5*
X33020000Y-100330000D03*
G04 #@! TO.P,CentralHub1,46*
G04 #@! TO.N,header5Gpio1*
X30480000Y-100330000D03*
G04 #@! TO.P,CentralHub1,47*
G04 #@! TO.N,header9Gpio6*
X33020000Y-102870000D03*
G04 #@! TO.P,CentralHub1,48*
G04 #@! TO.N,header5Gpio2*
X30480000Y-102870000D03*
G04 #@! TD*
D23*
G04 #@! TO.P,U6,1*
G04 #@! TO.N,GND*
X3810000Y-38100000D03*
G04 #@! TD*
G04 #@! TO.P,U7,1*
G04 #@! TO.N,GND*
X59690000Y-38100000D03*
G04 #@! TD*
G04 #@! TO.P,U8,1*
G04 #@! TO.N,GND*
X3810000Y-88900000D03*
G04 #@! TD*
G04 #@! TO.P,U9,1*
G04 #@! TO.N,GND*
X59690000Y-88900000D03*
G04 #@! TD*
D22*
G04 #@! TO.P,LipoMonitor1,1*
G04 #@! TO.N,monitor1*
X3810000Y-4826000D03*
G04 #@! TO.P,LipoMonitor1,2*
G04 #@! TO.N,monitorEna1*
X3810000Y-7366000D03*
G04 #@! TD*
D15*
G04 #@! TO.N,Net-(R14-Pad1)*
G04 #@! TO.C,R7*
G36*
X25469504Y-26367704D02*
X25493773Y-26371304D01*
X25517571Y-26377265D01*
X25540671Y-26385530D01*
X25562849Y-26396020D01*
X25583893Y-26408633D01*
X25603598Y-26423247D01*
X25621777Y-26439723D01*
X25638253Y-26457902D01*
X25652867Y-26477607D01*
X25665480Y-26498651D01*
X25675970Y-26520829D01*
X25684235Y-26543929D01*
X25690196Y-26567727D01*
X25693796Y-26591996D01*
X25695000Y-26616500D01*
X25695000Y-27866500D01*
X25693796Y-27891004D01*
X25690196Y-27915273D01*
X25684235Y-27939071D01*
X25675970Y-27962171D01*
X25665480Y-27984349D01*
X25652867Y-28005393D01*
X25638253Y-28025098D01*
X25621777Y-28043277D01*
X25603598Y-28059753D01*
X25583893Y-28074367D01*
X25562849Y-28086980D01*
X25540671Y-28097470D01*
X25517571Y-28105735D01*
X25493773Y-28111696D01*
X25469504Y-28115296D01*
X25445000Y-28116500D01*
X24520000Y-28116500D01*
X24495496Y-28115296D01*
X24471227Y-28111696D01*
X24447429Y-28105735D01*
X24424329Y-28097470D01*
X24402151Y-28086980D01*
X24381107Y-28074367D01*
X24361402Y-28059753D01*
X24343223Y-28043277D01*
X24326747Y-28025098D01*
X24312133Y-28005393D01*
X24299520Y-27984349D01*
X24289030Y-27962171D01*
X24280765Y-27939071D01*
X24274804Y-27915273D01*
X24271204Y-27891004D01*
X24270000Y-27866500D01*
X24270000Y-26616500D01*
X24271204Y-26591996D01*
X24274804Y-26567727D01*
X24280765Y-26543929D01*
X24289030Y-26520829D01*
X24299520Y-26498651D01*
X24312133Y-26477607D01*
X24326747Y-26457902D01*
X24343223Y-26439723D01*
X24361402Y-26423247D01*
X24381107Y-26408633D01*
X24402151Y-26396020D01*
X24424329Y-26385530D01*
X24447429Y-26377265D01*
X24471227Y-26371304D01*
X24495496Y-26367704D01*
X24520000Y-26366500D01*
X25445000Y-26366500D01*
X25469504Y-26367704D01*
X25469504Y-26367704D01*
G37*
D16*
G04 #@! TD*
G04 #@! TO.P,R7,2*
G04 #@! TO.N,Net-(R14-Pad1)*
X24982500Y-27241500D03*
D15*
G04 #@! TO.N,+15V*
G04 #@! TO.C,R7*
G36*
X22494504Y-26367704D02*
X22518773Y-26371304D01*
X22542571Y-26377265D01*
X22565671Y-26385530D01*
X22587849Y-26396020D01*
X22608893Y-26408633D01*
X22628598Y-26423247D01*
X22646777Y-26439723D01*
X22663253Y-26457902D01*
X22677867Y-26477607D01*
X22690480Y-26498651D01*
X22700970Y-26520829D01*
X22709235Y-26543929D01*
X22715196Y-26567727D01*
X22718796Y-26591996D01*
X22720000Y-26616500D01*
X22720000Y-27866500D01*
X22718796Y-27891004D01*
X22715196Y-27915273D01*
X22709235Y-27939071D01*
X22700970Y-27962171D01*
X22690480Y-27984349D01*
X22677867Y-28005393D01*
X22663253Y-28025098D01*
X22646777Y-28043277D01*
X22628598Y-28059753D01*
X22608893Y-28074367D01*
X22587849Y-28086980D01*
X22565671Y-28097470D01*
X22542571Y-28105735D01*
X22518773Y-28111696D01*
X22494504Y-28115296D01*
X22470000Y-28116500D01*
X21545000Y-28116500D01*
X21520496Y-28115296D01*
X21496227Y-28111696D01*
X21472429Y-28105735D01*
X21449329Y-28097470D01*
X21427151Y-28086980D01*
X21406107Y-28074367D01*
X21386402Y-28059753D01*
X21368223Y-28043277D01*
X21351747Y-28025098D01*
X21337133Y-28005393D01*
X21324520Y-27984349D01*
X21314030Y-27962171D01*
X21305765Y-27939071D01*
X21299804Y-27915273D01*
X21296204Y-27891004D01*
X21295000Y-27866500D01*
X21295000Y-26616500D01*
X21296204Y-26591996D01*
X21299804Y-26567727D01*
X21305765Y-26543929D01*
X21314030Y-26520829D01*
X21324520Y-26498651D01*
X21337133Y-26477607D01*
X21351747Y-26457902D01*
X21368223Y-26439723D01*
X21386402Y-26423247D01*
X21406107Y-26408633D01*
X21427151Y-26396020D01*
X21449329Y-26385530D01*
X21472429Y-26377265D01*
X21496227Y-26371304D01*
X21520496Y-26367704D01*
X21545000Y-26366500D01*
X22470000Y-26366500D01*
X22494504Y-26367704D01*
X22494504Y-26367704D01*
G37*
D16*
G04 #@! TD*
G04 #@! TO.P,R7,1*
G04 #@! TO.N,+15V*
X22007500Y-27241500D03*
D24*
G04 #@! TO.N,GND*
X12192000Y-40513000D03*
X12192000Y-38481000D03*
X12827000Y-16383000D03*
X14351000Y-16383000D03*
X15621000Y-16383000D03*
X41148000Y-38227000D03*
X41148000Y-40259000D03*
X27305000Y-40132000D03*
X27305000Y-38227000D03*
X44577000Y-16256000D03*
X43180000Y-16256000D03*
X41783000Y-16256000D03*
X29464000Y-16383000D03*
X28123000Y-16383000D03*
X26670000Y-16383000D03*
X17145000Y-33020000D03*
X46482000Y-32004000D03*
X44831000Y-32004000D03*
X46482000Y-30607000D03*
X44831000Y-30607000D03*
X17907000Y-32131000D03*
X16383000Y-32131000D03*
X17907000Y-30480000D03*
X16383000Y-30480000D03*
X32893000Y-32131000D03*
X31369000Y-32131000D03*
X32893000Y-30480000D03*
X31369000Y-30480000D03*
X45593000Y-29464000D03*
X45720000Y-33020000D03*
X32131000Y-29464000D03*
X32131000Y-33020000D03*
X17145000Y-29464000D03*
X22860000Y-109855000D03*
X24130000Y-109855000D03*
X25400000Y-109855000D03*
X26670000Y-109855000D03*
X22860000Y-111760000D03*
X24130000Y-111760000D03*
X25400000Y-111760000D03*
X26670000Y-111760000D03*
X50800000Y-110490000D03*
X52705000Y-110490000D03*
X43815000Y-37592000D03*
X43815000Y-35052000D03*
X43815000Y-39497000D03*
X43815000Y-42037000D03*
X30226000Y-41910000D03*
X30226000Y-39433500D03*
X30226000Y-37528500D03*
X15240000Y-35052000D03*
X15240000Y-37592000D03*
X15240000Y-39497000D03*
X10414000Y-6096000D03*
X10414000Y-12954000D03*
X10414000Y-9398000D03*
X30226000Y-34544000D03*
X15240000Y-42164000D03*
X24892000Y-32893000D03*
G04 #@! TO.N,+5V*
X37846000Y-37846000D03*
X36449000Y-16383000D03*
X35052000Y-16383000D03*
X33655000Y-16383000D03*
G04 #@! TO.N,+15V*
X12192000Y-36068000D03*
X12192000Y-34163000D03*
X41148000Y-33782000D03*
X41148000Y-35814000D03*
X27305000Y-35687000D03*
X27305000Y-33909000D03*
X18796000Y-10922000D03*
X18796000Y-12446000D03*
X41211500Y-28956000D03*
X22860000Y-105410000D03*
X22860000Y-107315000D03*
X24765000Y-105410000D03*
X24765000Y-107315000D03*
X26670000Y-105410000D03*
X26670000Y-107315000D03*
X50800000Y-106045000D03*
X50800000Y-107950000D03*
X52705000Y-106045000D03*
X52705000Y-107950000D03*
X13970000Y-27178000D03*
X15240000Y-27178000D03*
X16510000Y-27178000D03*
X17780000Y-27178000D03*
X19177000Y-27178000D03*
X12446000Y-27178000D03*
X27432000Y-27114500D03*
X27432000Y-28638500D03*
X27432000Y-30226000D03*
X41211500Y-30353000D03*
X41211500Y-27559000D03*
X41211500Y-26479500D03*
X12446000Y-28829000D03*
X12446000Y-30353000D03*
G04 #@! TO.N,+3V3*
X48768000Y-26670000D03*
X35052000Y-27114500D03*
X57150000Y-64008000D03*
X3556000Y-63754000D03*
X22860000Y-37846000D03*
X20066000Y-16383000D03*
X21590000Y-16383000D03*
X22987000Y-16383000D03*
G04 #@! TO.N,Net-(C3-Pad2)*
X29337000Y-29337000D03*
G04 #@! TO.N,Net-(C3-Pad1)*
X29337000Y-31877000D03*
G04 #@! TO.N,Net-(C4-Pad1)*
X34925000Y-29337000D03*
X34925000Y-29337000D03*
X34925000Y-29337000D03*
G04 #@! TO.N,Net-(C8-Pad1)*
X14351000Y-31877000D03*
G04 #@! TO.N,Net-(C8-Pad2)*
X14351000Y-29337000D03*
G04 #@! TO.N,Net-(C9-Pad1)*
X19939000Y-29337000D03*
G04 #@! TO.N,header5Gpio1*
X16764000Y-90424000D03*
G04 #@! TO.N,header5Gpio2*
X16510000Y-92456000D03*
G04 #@! TO.N,+12V*
X51689000Y-16256000D03*
X50165000Y-16256000D03*
X48641000Y-16256000D03*
G04 #@! TO.N,Net-(C13-Pad1)*
X42926000Y-31877000D03*
G04 #@! TO.N,Net-(C13-Pad2)*
X42926000Y-29337000D03*
G04 #@! TO.N,Net-(C14-Pad1)*
X48514000Y-29337000D03*
G04 #@! TD*
D25*
G04 #@! TO.N,GND*
X10414000Y-12954000D02*
X10414000Y-6096000D01*
X14647500Y-33147000D02*
X14647500Y-34628500D01*
X29633500Y-33951500D02*
X30226000Y-34544000D01*
X29633500Y-33147000D02*
X29633500Y-33951500D01*
X43222500Y-34459500D02*
X43815000Y-35052000D01*
X43222500Y-33147000D02*
X43222500Y-34459500D01*
X24955500Y-30162500D02*
X24955500Y-32829500D01*
X24955500Y-32829500D02*
X24892000Y-32893000D01*
G04 #@! TO.N,+3V3*
X48858500Y-26579500D02*
X48768000Y-26670000D01*
X51308000Y-26579500D02*
X48858500Y-26579500D01*
X35088500Y-27151000D02*
X35052000Y-27114500D01*
X37782500Y-27151000D02*
X35088500Y-27151000D01*
G04 #@! TO.N,Net-(C5-Pad2)*
X36793500Y-36258500D02*
X37846000Y-35206000D01*
X34888500Y-36258500D02*
X36793500Y-36258500D01*
G04 #@! TO.N,Net-(C5-Pad1)*
X37428500Y-31813500D02*
X37846000Y-32231000D01*
X34628500Y-31813500D02*
X37428500Y-31813500D01*
G04 #@! TO.N,Net-(C10-Pad2)*
X21807500Y-36322000D02*
X22860000Y-35269500D01*
X19902500Y-36322000D02*
X21807500Y-36322000D01*
G04 #@! TO.N,Net-(C10-Pad1)*
X22442500Y-31877000D02*
X22860000Y-32294500D01*
X22315500Y-31877000D02*
X22733000Y-32294500D01*
X19642500Y-31877000D02*
X22315500Y-31877000D01*
G04 #@! TO.N,monitorEna1*
X7402500Y-10940747D02*
X7402500Y-11430000D01*
X5080000Y-9107500D02*
X7402500Y-11430000D01*
X14225000Y-13375000D02*
X14225000Y-11625000D01*
X13630000Y-13970000D02*
X14225000Y-13375000D01*
X8967500Y-13970000D02*
X13630000Y-13970000D01*
X7402500Y-12405000D02*
X8967500Y-13970000D01*
X7402500Y-11430000D02*
X7402500Y-12405000D01*
X4809999Y-8837499D02*
X5080000Y-9107500D01*
X4809999Y-8365999D02*
X4809999Y-8837499D01*
X3810000Y-7366000D02*
X4809999Y-8365999D01*
G04 #@! TO.N,monitor1*
X5495966Y-5080000D02*
X7366000Y-5080000D01*
X7402500Y-7620000D02*
X7402500Y-2794000D01*
X5241966Y-4826000D02*
X3810000Y-4826000D01*
X5495966Y-5080000D02*
X5241966Y-4826000D01*
G04 #@! TO.N,Net-(R5-Pad2)*
X37755500Y-40703500D02*
X37846000Y-40794000D01*
X34888500Y-40703500D02*
X37755500Y-40703500D01*
X34628500Y-34078500D02*
X34628500Y-33147000D01*
X33401000Y-35306000D02*
X34628500Y-34078500D01*
X33401000Y-38241000D02*
X33401000Y-35306000D01*
X34888500Y-40703500D02*
X34888500Y-39728500D01*
X34888500Y-39728500D02*
X33401000Y-38241000D01*
G04 #@! TO.N,Net-(R11-Pad2)*
X22769500Y-40767000D02*
X22860000Y-40857500D01*
X19902500Y-40767000D02*
X22769500Y-40767000D01*
X19642500Y-33798000D02*
X19642500Y-33147000D01*
X18415000Y-35025500D02*
X19642500Y-33798000D01*
X18415000Y-38304500D02*
X18415000Y-35025500D01*
X19902500Y-40767000D02*
X19902500Y-39792000D01*
X19902500Y-39792000D02*
X18415000Y-38304500D01*
G04 #@! TO.N,scl*
X6350000Y-13843000D02*
X6350000Y-17780000D01*
X3810000Y-11303000D02*
X6350000Y-13843000D01*
G04 #@! TO.N,sda*
X3810000Y-13335000D02*
X3810000Y-14749213D01*
X3810000Y-15257213D02*
X3810000Y-17780000D01*
X3810000Y-13843000D02*
X3810000Y-15257213D01*
G04 #@! TO.N,header2Gpio6*
X11811000Y-44450000D02*
X30480000Y-44450000D01*
X10541000Y-43180000D02*
X11811000Y-44450000D01*
X6350000Y-25400000D02*
X10541000Y-29591000D01*
X10541000Y-29591000D02*
X10541000Y-43180000D01*
G04 #@! TO.N,header2Gpio5*
X6350000Y-27940000D02*
X10033000Y-31623000D01*
X10033000Y-31623000D02*
X10033000Y-43308410D01*
X13714590Y-46990000D02*
X30480000Y-46990000D01*
X10033000Y-43308410D02*
X13714590Y-46990000D01*
G04 #@! TO.N,header2Gpio4*
X29337000Y-48387000D02*
X30480000Y-49530000D01*
X7359999Y-31489999D02*
X8629999Y-31489999D01*
X6350000Y-30480000D02*
X7359999Y-31489999D01*
X9582990Y-32442990D02*
X9582990Y-43745990D01*
X8629999Y-31489999D02*
X9582990Y-32442990D01*
X14224000Y-48387000D02*
X15367000Y-48387000D01*
X9582990Y-43745990D02*
X14224000Y-48387000D01*
X15367000Y-48387000D02*
X29337000Y-48387000D01*
G04 #@! TO.N,header2Gpio2*
X24130000Y-50800000D02*
X30480000Y-57150000D01*
X14727770Y-50800000D02*
X24130000Y-50800000D01*
X8128000Y-44200230D02*
X14727770Y-50800000D01*
X2474999Y-31815001D02*
X2474999Y-34286998D01*
X2474999Y-34286998D02*
X3048000Y-34859999D01*
X3810000Y-30480000D02*
X2474999Y-31815001D01*
X3048000Y-34859999D02*
X5014999Y-34859999D01*
X5014999Y-34859999D02*
X8128000Y-37973000D01*
X8128000Y-37973000D02*
X8128000Y-44200230D01*
G04 #@! TO.N,header2Gpio3*
X27247010Y-48837010D02*
X30480000Y-52070000D01*
X14037600Y-48837010D02*
X27247010Y-48837010D01*
X9132980Y-43932390D02*
X14037600Y-48837010D01*
X6350000Y-33020000D02*
X9132980Y-35802980D01*
X9132980Y-35802980D02*
X9132980Y-43932390D01*
G04 #@! TO.N,header2Gpio1*
X29470001Y-53600001D02*
X30480000Y-54610000D01*
X26104009Y-50234009D02*
X29470001Y-53600001D01*
X14798189Y-50234009D02*
X15367000Y-50234009D01*
X8636000Y-44071820D02*
X14798189Y-50234009D01*
X8636000Y-36923940D02*
X8636000Y-44071820D01*
X15367000Y-50234009D02*
X26104009Y-50234009D01*
X3810000Y-33020000D02*
X5145001Y-34355001D01*
X5145001Y-34355001D02*
X6161001Y-34355001D01*
X6161001Y-34355001D02*
X8682970Y-36876970D01*
X8682970Y-36876970D02*
X8636000Y-36923940D01*
G04 #@! TO.N,header3Gpio6*
X24638000Y-59690000D02*
X30480000Y-59690000D01*
X6350000Y-50800000D02*
X11049000Y-55499000D01*
X11049000Y-55499000D02*
X19939000Y-55499000D01*
X24638000Y-59690000D02*
X24130000Y-59690000D01*
X19939000Y-55499000D02*
X24130000Y-59690000D01*
G04 #@! TO.N,header3Gpio5*
X25400000Y-62230000D02*
X30480000Y-62230000D01*
X19304000Y-56134000D02*
X25400000Y-62230000D01*
X6350000Y-53340000D02*
X9144000Y-56134000D01*
X9144000Y-56134000D02*
X19304000Y-56134000D01*
G04 #@! TO.N,header3Gpio4*
X7778355Y-55880000D02*
X8921355Y-57023000D01*
X6350000Y-55880000D02*
X7778355Y-55880000D01*
X29470001Y-63760001D02*
X26041001Y-63760001D01*
X30480000Y-64770000D02*
X29470001Y-63760001D01*
X19304000Y-57023000D02*
X8921355Y-57023000D01*
X26041001Y-63760001D02*
X19304000Y-57023000D01*
G04 #@! TO.N,header3Gpio2*
X3810000Y-55880000D02*
X1524000Y-58166000D01*
X1524000Y-58166000D02*
X1524000Y-59055000D01*
X14859000Y-72390000D02*
X30480000Y-72390000D01*
X1524000Y-59055000D02*
X14859000Y-72390000D01*
G04 #@! TO.N,header3Gpio3*
X28575000Y-67310000D02*
X30480000Y-67310000D01*
X19685000Y-58420000D02*
X20828000Y-59563000D01*
X6350000Y-58420000D02*
X19685000Y-58420000D01*
X20694999Y-59429999D02*
X20828000Y-59563000D01*
X20828000Y-59563000D02*
X28575000Y-67310000D01*
G04 #@! TO.N,header3Gpio1*
X15240000Y-69850000D02*
X30480000Y-69850000D01*
X3810000Y-58420000D02*
X15240000Y-69850000D01*
G04 #@! TO.N,header4Gpio1*
X29051645Y-85090000D02*
X28035645Y-86106000D01*
X30480000Y-85090000D02*
X29051645Y-85090000D01*
X6096000Y-86106000D02*
X3810000Y-83820000D01*
X28035645Y-86106000D02*
X6096000Y-86106000D01*
G04 #@! TO.N,header4Gpio3*
X29210000Y-82550000D02*
X30480000Y-82550000D01*
X26930001Y-84829999D02*
X29210000Y-82550000D01*
X7359999Y-84829999D02*
X26930001Y-84829999D01*
X6350000Y-83820000D02*
X7359999Y-84829999D01*
G04 #@! TO.N,header4Gpio2*
X2800001Y-82289999D02*
X3810000Y-81280000D01*
X1905000Y-83185000D02*
X2800001Y-82289999D01*
X30480000Y-87630000D02*
X29406010Y-86556010D01*
X29406010Y-86556010D02*
X4570208Y-86556010D01*
X4570208Y-86556010D02*
X3739198Y-85725000D01*
X2540000Y-85725000D02*
X1905000Y-85090000D01*
X3739198Y-85725000D02*
X2540000Y-85725000D01*
X1905000Y-85090000D02*
X1905000Y-83185000D01*
G04 #@! TO.N,header4Gpio4*
X29210000Y-80010000D02*
X30480000Y-80010000D01*
X6350000Y-81280000D02*
X27940000Y-81280000D01*
X27940000Y-81280000D02*
X29210000Y-80010000D01*
G04 #@! TO.N,header4Gpio5*
X27940000Y-77470000D02*
X30480000Y-77470000D01*
X6350000Y-78740000D02*
X26670000Y-78740000D01*
X26670000Y-78740000D02*
X27940000Y-77470000D01*
G04 #@! TO.N,header4Gpio6*
X24257000Y-77209999D02*
X24390001Y-77209999D01*
X28575000Y-74930000D02*
X30480000Y-74930000D01*
X26295001Y-77209999D02*
X28575000Y-74930000D01*
X8788354Y-77209999D02*
X24765000Y-77209999D01*
X7778355Y-76200000D02*
X8788354Y-77209999D01*
X6350000Y-76200000D02*
X7778355Y-76200000D01*
X24257000Y-77209999D02*
X24765000Y-77209999D01*
X24765000Y-77209999D02*
X26295001Y-77209999D01*
G04 #@! TO.N,header5Gpio1*
X3810000Y-109220000D02*
X2381645Y-109220000D01*
X2381645Y-109220000D02*
X1397000Y-108235355D01*
X1397000Y-108235355D02*
X1397000Y-92200590D01*
X1397000Y-92200590D02*
X2157590Y-91440000D01*
X15748000Y-91440000D02*
X16764000Y-90424000D01*
X2157590Y-91440000D02*
X15748000Y-91440000D01*
G04 #@! TO.N,header5Gpio3*
X6350000Y-109220000D02*
X8509000Y-109220000D01*
X8509000Y-109220000D02*
X9144000Y-108585000D01*
X9144000Y-108585000D02*
X9144000Y-104394000D01*
X15748000Y-97790000D02*
X16637000Y-97790000D01*
X9144000Y-104394000D02*
X15748000Y-97790000D01*
X16637000Y-97790000D02*
X30480000Y-97790000D01*
G04 #@! TO.N,header5Gpio2*
X2381645Y-106680000D02*
X2032000Y-106330355D01*
X3810000Y-106680000D02*
X2381645Y-106680000D01*
X2286000Y-92456000D02*
X2032000Y-92710000D01*
X16510000Y-92456000D02*
X2286000Y-92456000D01*
X2032000Y-106330355D02*
X2032000Y-92710000D01*
G04 #@! TO.N,header5Gpio4*
X6350000Y-106680000D02*
X8636000Y-104394000D01*
X8636000Y-104394000D02*
X8636000Y-103124000D01*
X28702000Y-97028000D02*
X14732000Y-97028000D01*
X30480000Y-95250000D02*
X28702000Y-97028000D01*
X8636000Y-103124000D02*
X14732000Y-97028000D01*
G04 #@! TO.N,header5Gpio5*
X14128355Y-96361645D02*
X6350000Y-104140000D01*
X25400000Y-96361645D02*
X14128355Y-96361645D01*
X30480000Y-92710000D02*
X29051645Y-92710000D01*
X29051645Y-92710000D02*
X25400000Y-96361645D01*
G04 #@! TO.N,header5Gpio6*
X29051645Y-90170000D02*
X30480000Y-90170000D01*
X6350000Y-101600000D02*
X7778355Y-101600000D01*
X7778355Y-101600000D02*
X13874355Y-95504000D01*
X13874355Y-95504000D02*
X23749000Y-95504000D01*
X23749000Y-95504000D02*
X24003000Y-95250000D01*
X24003000Y-95250000D02*
X24003000Y-95218645D01*
X24003000Y-95218645D02*
X29051645Y-90170000D01*
G04 #@! TO.N,header6Gpio6*
X56140001Y-26409999D02*
X56140001Y-26663999D01*
X57150000Y-25400000D02*
X56140001Y-26409999D01*
X56140001Y-26663999D02*
X55372000Y-27432000D01*
X55372000Y-27432000D02*
X55372000Y-41148000D01*
X39370000Y-57150000D02*
X33020000Y-57150000D01*
X55372000Y-41148000D02*
X39370000Y-57150000D01*
G04 #@! TO.N,header6Gpio5*
X40894000Y-54610000D02*
X33020000Y-54610000D01*
X54921990Y-40582010D02*
X40894000Y-54610000D01*
X57150000Y-22860000D02*
X54921990Y-25088010D01*
X54921990Y-25088010D02*
X54921990Y-40582010D01*
G04 #@! TO.N,header6Gpio4*
X57150000Y-20320000D02*
X54483000Y-22987000D01*
X54483000Y-22987000D02*
X54356000Y-23114000D01*
X54356000Y-23114000D02*
X54356000Y-28194000D01*
X54356000Y-35560000D02*
X54356000Y-35687000D01*
X54356000Y-28194000D02*
X54356000Y-35560000D01*
X54356000Y-40259000D02*
X54356000Y-35560000D01*
X54356000Y-40386000D02*
X54356000Y-40259000D01*
X41662001Y-53079999D02*
X54356000Y-40386000D01*
X33020000Y-52070000D02*
X34029999Y-53079999D01*
X34029999Y-53079999D02*
X41662001Y-53079999D01*
G04 #@! TO.N,header7Gpio6*
X54610000Y-50800000D02*
X57150000Y-50800000D01*
X33020000Y-72390000D02*
X54610000Y-50800000D01*
G04 #@! TO.N,header7Gpio5*
X54610000Y-48260000D02*
X57150000Y-48260000D01*
X33020000Y-69850000D02*
X54610000Y-48260000D01*
G04 #@! TO.N,header7Gpio4*
X55721645Y-45720000D02*
X57150000Y-45720000D01*
X54610000Y-45720000D02*
X55721645Y-45720000D01*
X33020000Y-67310000D02*
X54610000Y-45720000D01*
G04 #@! TO.N,header7Gpio2*
X37592000Y-59690000D02*
X33020000Y-59690000D01*
X56515000Y-40767000D02*
X37592000Y-59690000D01*
X59944000Y-40767000D02*
X56515000Y-40767000D01*
X61468000Y-42291000D02*
X59944000Y-40767000D01*
X61468000Y-43942000D02*
X61468000Y-42291000D01*
X59690000Y-45720000D02*
X61468000Y-43942000D01*
G04 #@! TO.N,header7Gpio3*
X55721645Y-43180000D02*
X57150000Y-43180000D01*
X35141644Y-63760001D02*
X55721645Y-43180000D01*
X34029999Y-63760001D02*
X35141644Y-63760001D01*
X33020000Y-64770000D02*
X34029999Y-63760001D01*
G04 #@! TO.N,header7Gpio1*
X33020000Y-62230000D02*
X35941000Y-62230000D01*
X57785000Y-41275000D02*
X56896000Y-41275000D01*
X59690000Y-43180000D02*
X57785000Y-41275000D01*
X35941000Y-62230000D02*
X56896000Y-41275000D01*
G04 #@! TO.N,header8Gpio1*
X59690000Y-68580000D02*
X59690000Y-67056000D01*
X59690000Y-67056000D02*
X58674000Y-66040000D01*
X44450000Y-66040000D02*
X33020000Y-77470000D01*
X58674000Y-66040000D02*
X44450000Y-66040000D01*
G04 #@! TO.N,header8Gpio3*
X55753000Y-69977000D02*
X57150000Y-68580000D01*
X33020000Y-80010000D02*
X43053000Y-69977000D01*
X43053000Y-69977000D02*
X55753000Y-69977000D01*
G04 #@! TO.N,header8Gpio2*
X61118355Y-71120000D02*
X61722000Y-70516355D01*
X59690000Y-71120000D02*
X61118355Y-71120000D01*
X61722000Y-70516355D02*
X61722000Y-65278000D01*
X42672000Y-65278000D02*
X33020000Y-74930000D01*
X61722000Y-65278000D02*
X42672000Y-65278000D01*
G04 #@! TO.N,header8Gpio4*
X44450000Y-71120000D02*
X33020000Y-82550000D01*
X44450000Y-71120000D02*
X57150000Y-71120000D01*
G04 #@! TO.N,header8Gpio5*
X44450000Y-73660000D02*
X33020000Y-85090000D01*
X44450000Y-73660000D02*
X57150000Y-73660000D01*
G04 #@! TO.N,header8Gpio6*
X44450000Y-76200000D02*
X33020000Y-87630000D01*
X44450000Y-76200000D02*
X57150000Y-76200000D01*
G04 #@! TO.N,header9Gpio1*
X34448355Y-92710000D02*
X35337355Y-91821000D01*
X33020000Y-92710000D02*
X34448355Y-92710000D01*
X57531000Y-91821000D02*
X59690000Y-93980000D01*
X35337355Y-91821000D02*
X57531000Y-91821000D01*
G04 #@! TO.N,header9Gpio3*
X34290000Y-93980000D02*
X34163000Y-94107000D01*
X57150000Y-93980000D02*
X34290000Y-93980000D01*
X34163000Y-94107000D02*
X33020000Y-95250000D01*
G04 #@! TO.N,header9Gpio2*
X56516410Y-90170000D02*
X33020000Y-90170000D01*
X58421410Y-92075000D02*
X56516410Y-90170000D01*
X59690000Y-96520000D02*
X61341000Y-94869000D01*
X61341000Y-92964000D02*
X60452000Y-92075000D01*
X60452000Y-92075000D02*
X58421410Y-92075000D01*
X61341000Y-94869000D02*
X61341000Y-92964000D01*
G04 #@! TO.N,header9Gpio4*
X34290000Y-96520000D02*
X33909000Y-96901000D01*
X57150000Y-96520000D02*
X34290000Y-96520000D01*
X33909000Y-96901000D02*
X33020000Y-97790000D01*
G04 #@! TO.N,header9Gpio5*
X34290000Y-99060000D02*
X33020000Y-100330000D01*
X57150000Y-99060000D02*
X34290000Y-99060000D01*
G04 #@! TO.N,header9Gpio6*
X34290000Y-101600000D02*
X33020000Y-102870000D01*
X57150000Y-101600000D02*
X34290000Y-101600000D01*
G04 #@! TO.N,Net-(C15-Pad2)*
X50165000Y-34634500D02*
X51435000Y-34634500D01*
X48477500Y-36322000D02*
X50165000Y-34634500D01*
G04 #@! TO.N,Net-(C15-Pad1)*
X51217500Y-31877000D02*
X51435000Y-31659500D01*
X48217500Y-31877000D02*
X51217500Y-31877000D01*
G04 #@! TO.N,Net-(R17-Pad2)*
X51217500Y-40767000D02*
X51308000Y-40857500D01*
X48477500Y-40767000D02*
X51217500Y-40767000D01*
X48477500Y-39792000D02*
X48477500Y-40767000D01*
X46990000Y-38304500D02*
X48477500Y-39792000D01*
X46990000Y-35025500D02*
X46990000Y-38304500D01*
X48217500Y-33147000D02*
X48217500Y-33798000D01*
X48217500Y-33798000D02*
X46990000Y-35025500D01*
G04 #@! TO.N,Net-(R20-Pad2)*
X50382500Y-30607000D02*
X51435000Y-29554500D01*
X48217500Y-30607000D02*
X50382500Y-30607000D01*
G04 #@! TO.N,Net-(MonitorFet1-Pad2)*
X16476712Y-6044959D02*
X16476712Y-5914959D01*
X14299959Y-2234959D02*
X16510000Y-4445000D01*
X14605000Y-2540000D02*
X16510000Y-4445000D01*
X10377500Y-2540000D02*
X14605000Y-2540000D01*
G04 #@! TO.N,Net-(R14-Pad1)*
X21536000Y-30607000D02*
X21980500Y-30162500D01*
X19642500Y-30607000D02*
X21536000Y-30607000D01*
X22793000Y-30162500D02*
X23368000Y-29587500D01*
X21980500Y-30162500D02*
X22793000Y-30162500D01*
X23368000Y-28856000D02*
X24982500Y-27241500D01*
X23368000Y-29587500D02*
X23368000Y-28856000D01*
G04 #@! TO.N,Net-(R10-Pad2)*
X34628500Y-30543500D02*
X37428500Y-30543500D01*
X37428500Y-30543500D02*
X37846000Y-30126000D01*
G04 #@! TD*
D26*
G04 #@! TO.N,GND*
X55505000Y-109347000D02*
X46482000Y-109347000D01*
X55522019Y-109588300D02*
X46482000Y-109588300D01*
X55621969Y-109829600D02*
X46482000Y-109829600D01*
X55721919Y-110070900D02*
X46482000Y-110070900D01*
X46705775Y-110312200D02*
X46482000Y-110312200D01*
X48587000Y-110312200D02*
X48333000Y-110312200D01*
X55915820Y-110312200D02*
X50214226Y-110312200D01*
X58455820Y-110312200D02*
X58384180Y-110312200D01*
X46556560Y-110553500D02*
X46482000Y-110553500D01*
X48587000Y-110553500D02*
X48333000Y-110553500D01*
X56157120Y-110553500D02*
X50363441Y-110553500D01*
X58697120Y-110553500D02*
X58142880Y-110553500D01*
X46525000Y-110794800D02*
X46482000Y-110794800D01*
X48587000Y-110794800D02*
X48333000Y-110794800D01*
X56653311Y-110794800D02*
X50395000Y-110794800D01*
X59193311Y-110794800D02*
X57646688Y-110794800D01*
X46525000Y-111036100D02*
X46482000Y-111036100D01*
X48587000Y-111036100D02*
X48333000Y-111036100D01*
X59563000Y-111036100D02*
X50395000Y-111036100D01*
X46582150Y-111277400D02*
X46482000Y-111277400D01*
X48587000Y-111277400D02*
X48333000Y-111277400D01*
X59563000Y-111277400D02*
X50337850Y-111277400D01*
X59563000Y-111518700D02*
X46482000Y-111518700D01*
X46556750Y-111760000D02*
X46482000Y-111760000D01*
X48587000Y-111760000D02*
X48333000Y-111760000D01*
X59563000Y-111760000D02*
X50363250Y-111760000D01*
X46525000Y-112001300D02*
X46482000Y-112001300D01*
X48587000Y-112001300D02*
X48333000Y-112001300D01*
X59563000Y-112001300D02*
X50395000Y-112001300D01*
X46525000Y-112242600D02*
X46482000Y-112242600D01*
X48587000Y-112242600D02*
X48333000Y-112242600D01*
X59563000Y-112242600D02*
X50395000Y-112242600D01*
X46567080Y-112483900D02*
X46482000Y-112483900D01*
X48587000Y-112483900D02*
X48333000Y-112483900D01*
X59563000Y-112483900D02*
X50352919Y-112483900D01*
X46731174Y-112725200D02*
X46482000Y-112725200D01*
X48587000Y-112725200D02*
X48333000Y-112725200D01*
X59563000Y-112725200D02*
X50188825Y-112725200D01*
X59563000Y-112966500D02*
X46482000Y-112966500D01*
X59563000Y-113207800D02*
X46482000Y-113207800D01*
X59563000Y-113449100D02*
X46482000Y-113449100D01*
X59563000Y-113690400D02*
X46482000Y-113690400D01*
X59563000Y-113931700D02*
X46482000Y-113931700D01*
X59563000Y-114173000D02*
X46482000Y-114173000D01*
X59563000Y-114414300D02*
X46482000Y-114414300D01*
X53057369Y-114655600D02*
X46482000Y-114655600D01*
X56007000Y-114655600D02*
X55753000Y-114655600D01*
X59563000Y-114655600D02*
X58702632Y-114655600D01*
X52746891Y-114896900D02*
X46482000Y-114896900D01*
X56007000Y-114896900D02*
X55753000Y-114896900D01*
X59563000Y-114896900D02*
X59013110Y-114896900D01*
X52504564Y-115138200D02*
X46482000Y-115138200D01*
X56007000Y-115138200D02*
X55753000Y-115138200D01*
X59563000Y-115138200D02*
X59255437Y-115138200D01*
X52367230Y-115379500D02*
X46482000Y-115379500D01*
X56007000Y-115379500D02*
X55753000Y-115379500D01*
X59563000Y-115379500D02*
X59392771Y-115379500D01*
X52229896Y-115620800D02*
X46482000Y-115620800D01*
X56007000Y-115620800D02*
X55753000Y-115620800D01*
X59563000Y-115620800D02*
X59530105Y-115620800D01*
X52201307Y-115862100D02*
X46482000Y-115862100D01*
X56007000Y-115862100D02*
X55753000Y-115862100D01*
X56027000Y-116103400D02*
X46482000Y-116103400D01*
X52288325Y-116344700D02*
X46482000Y-116344700D01*
X56007000Y-116344700D02*
X55753000Y-116344700D01*
X52184992Y-116586000D02*
X46482000Y-116586000D01*
X56007000Y-116586000D02*
X55753000Y-116586000D01*
X52251580Y-116827300D02*
X46482000Y-116827300D01*
X56007000Y-116827300D02*
X55753000Y-116827300D01*
X59563000Y-116827300D02*
X59508419Y-116827300D01*
X52388914Y-117068600D02*
X46482000Y-117068600D01*
X56007000Y-117068600D02*
X55753000Y-117068600D01*
X59563000Y-117068600D02*
X59371085Y-117068600D01*
X52526247Y-117309900D02*
X46482000Y-117309900D01*
X56007000Y-117309900D02*
X55753000Y-117309900D01*
X59563000Y-117309900D02*
X59233752Y-117309900D01*
X52795913Y-117551200D02*
X46482000Y-117551200D01*
X56007000Y-117551200D02*
X55753000Y-117551200D01*
X59563000Y-117551200D02*
X58964086Y-117551200D01*
X53108355Y-117792500D02*
X46482000Y-117792500D01*
X56007000Y-117792500D02*
X55753000Y-117792500D01*
X59563000Y-117792500D02*
X58651644Y-117792500D01*
X59563000Y-118033800D02*
X46482000Y-118033800D01*
X59563000Y-118275100D02*
X46482000Y-118275100D01*
X59563000Y-118516400D02*
X46482000Y-118516400D01*
X59563000Y-115720812D02*
X59563000Y-110865000D01*
X59563000Y-118618000D02*
X59563000Y-116689188D01*
X59321700Y-115254628D02*
X59321700Y-110847980D01*
X59321700Y-118618000D02*
X59321700Y-117155373D01*
X59080400Y-114949198D02*
X59080400Y-110748030D01*
X59080400Y-118618000D02*
X59080400Y-117460803D01*
X58839100Y-114761662D02*
X58839100Y-110648080D01*
X58839100Y-118618000D02*
X58839100Y-117648339D01*
X58597800Y-114602716D02*
X58597800Y-110454180D01*
X58597800Y-118618000D02*
X58597800Y-117807285D01*
X58356500Y-114536459D02*
X58356500Y-110339880D01*
X58356500Y-118618000D02*
X58356500Y-117873542D01*
X58115200Y-114470202D02*
X58115200Y-110581180D01*
X58115200Y-118618000D02*
X58115200Y-117939799D01*
X57873900Y-114435000D02*
X57873900Y-110700686D01*
X57873900Y-118618000D02*
X57873900Y-117975000D01*
X57632600Y-114435000D02*
X57632600Y-110800636D01*
X57632600Y-118618000D02*
X57632600Y-117975000D01*
X57391300Y-114435000D02*
X57391300Y-110865000D01*
X57391300Y-118618000D02*
X57391300Y-117975000D01*
X57150000Y-114435000D02*
X57150000Y-110865000D01*
X57150000Y-118618000D02*
X57150000Y-117975000D01*
X56908700Y-114435000D02*
X56908700Y-110865000D01*
X56908700Y-118618000D02*
X56908700Y-117975000D01*
X56667400Y-114435000D02*
X56667400Y-110800635D01*
X56667400Y-118618000D02*
X56667400Y-117975000D01*
X56426100Y-114435000D02*
X56426100Y-110700685D01*
X56426100Y-118618000D02*
X56426100Y-117975000D01*
X56184800Y-114435000D02*
X56184800Y-110581180D01*
X56184800Y-118618000D02*
X56184800Y-117975000D01*
X55943500Y-118618000D02*
X55943500Y-110339880D01*
X55702200Y-114435000D02*
X55702200Y-110023292D01*
X55702200Y-116332000D02*
X55702200Y-116078000D01*
X55702200Y-118618000D02*
X55702200Y-117975000D01*
X55460900Y-114435000D02*
X55460900Y-109347000D01*
X55460900Y-116332000D02*
X55460900Y-116078000D01*
X55460900Y-118618000D02*
X55460900Y-117975000D01*
X55219600Y-114435000D02*
X55219600Y-109347000D01*
X55219600Y-116332000D02*
X55219600Y-116078000D01*
X55219600Y-118618000D02*
X55219600Y-117975000D01*
X54978300Y-114435000D02*
X54978300Y-109347000D01*
X54978300Y-116332000D02*
X54978300Y-116078000D01*
X54978300Y-118618000D02*
X54978300Y-117975000D01*
X54737000Y-114435000D02*
X54737000Y-109347000D01*
X54737000Y-116332000D02*
X54737000Y-116078000D01*
X54737000Y-118618000D02*
X54737000Y-117975000D01*
X54495700Y-114435000D02*
X54495700Y-109347000D01*
X54495700Y-116332000D02*
X54495700Y-116078000D01*
X54495700Y-118618000D02*
X54495700Y-117975000D01*
X54254400Y-114435000D02*
X54254400Y-109347000D01*
X54254400Y-116332000D02*
X54254400Y-116078000D01*
X54254400Y-118618000D02*
X54254400Y-117975000D01*
X54013100Y-114435000D02*
X54013100Y-109347000D01*
X54013100Y-116332000D02*
X54013100Y-116078000D01*
X54013100Y-118618000D02*
X54013100Y-117975000D01*
X53771800Y-114435329D02*
X53771800Y-109347000D01*
X53771800Y-116332000D02*
X53771800Y-116078000D01*
X53771800Y-118618000D02*
X53771800Y-117974670D01*
X53530500Y-114501586D02*
X53530500Y-109347000D01*
X53530500Y-116332000D02*
X53530500Y-116078000D01*
X53530500Y-118618000D02*
X53530500Y-117908413D01*
X53289200Y-114567843D02*
X53289200Y-109347000D01*
X53289200Y-116332000D02*
X53289200Y-116078000D01*
X53289200Y-118618000D02*
X53289200Y-117842156D01*
X53047900Y-114662958D02*
X53047900Y-109347000D01*
X53047900Y-116332000D02*
X53047900Y-116078000D01*
X53047900Y-118618000D02*
X53047900Y-117747041D01*
X52806600Y-114850494D02*
X52806600Y-109347000D01*
X52806600Y-116332000D02*
X52806600Y-116078000D01*
X52806600Y-118618000D02*
X52806600Y-117559505D01*
X52565300Y-115038030D02*
X52565300Y-109347000D01*
X52565300Y-116332000D02*
X52565300Y-116078000D01*
X52565300Y-118618000D02*
X52565300Y-117371969D01*
X52324000Y-115455456D02*
X52324000Y-109347000D01*
X52324000Y-116332000D02*
X52324000Y-116078000D01*
X52324000Y-118618000D02*
X52324000Y-116954543D01*
X52082700Y-115803388D02*
X52082700Y-109347000D01*
X52082700Y-116606612D02*
X52082700Y-115803388D01*
X52082700Y-118618000D02*
X52082700Y-116606612D01*
X51841400Y-115803388D02*
X51841400Y-109347000D01*
X51841400Y-116606612D02*
X51841400Y-115803388D01*
X51841400Y-118618000D02*
X51841400Y-116606612D01*
X51600100Y-115803388D02*
X51600100Y-109347000D01*
X51600100Y-116606612D02*
X51600100Y-115803388D01*
X51600100Y-118618000D02*
X51600100Y-116606612D01*
X51358800Y-115803388D02*
X51358800Y-109347000D01*
X51358800Y-116606612D02*
X51358800Y-115803388D01*
X51358800Y-118618000D02*
X51358800Y-116606612D01*
X51117500Y-115803388D02*
X51117500Y-109347000D01*
X51117500Y-116606612D02*
X51117500Y-115803388D01*
X51117500Y-118618000D02*
X51117500Y-116606612D01*
X50876200Y-115803388D02*
X50876200Y-109347000D01*
X50876200Y-116606612D02*
X50876200Y-115803388D01*
X50876200Y-118618000D02*
X50876200Y-116606612D01*
X50634900Y-115803388D02*
X50634900Y-109347000D01*
X50634900Y-116606612D02*
X50634900Y-115803388D01*
X50634900Y-118618000D02*
X50634900Y-116606612D01*
X50393600Y-110626312D02*
X50393600Y-109347000D01*
X50393600Y-111790350D02*
X50393600Y-111221650D01*
X50393600Y-115803388D02*
X50393600Y-112385689D01*
X50393600Y-116606612D02*
X50393600Y-115803388D01*
X50393600Y-118618000D02*
X50393600Y-116606612D01*
X50152300Y-110250275D02*
X50152300Y-109347000D01*
X50152300Y-111633000D02*
X50152300Y-111379000D01*
X50152300Y-115803388D02*
X50152300Y-112761726D01*
X50152300Y-116606612D02*
X50152300Y-115803388D01*
X50152300Y-118618000D02*
X50152300Y-116606612D01*
X49911000Y-110131227D02*
X49911000Y-109347000D01*
X49911000Y-111633000D02*
X49911000Y-111379000D01*
X49911000Y-115803388D02*
X49911000Y-112880774D01*
X49911000Y-116606612D02*
X49911000Y-115803388D01*
X49911000Y-118618000D02*
X49911000Y-116606612D01*
X49669700Y-110121000D02*
X49669700Y-109347000D01*
X49669700Y-111633000D02*
X49669700Y-111379000D01*
X49669700Y-115803388D02*
X49669700Y-112891000D01*
X49669700Y-116606612D02*
X49669700Y-115803388D01*
X49669700Y-118618000D02*
X49669700Y-116606612D01*
X49428400Y-110121000D02*
X49428400Y-109347000D01*
X49428400Y-111633000D02*
X49428400Y-111379000D01*
X49428400Y-115803388D02*
X49428400Y-112891000D01*
X49428400Y-116606612D02*
X49428400Y-115803388D01*
X49428400Y-118618000D02*
X49428400Y-116606612D01*
X49187100Y-110121000D02*
X49187100Y-109347000D01*
X49187100Y-111633000D02*
X49187100Y-111379000D01*
X49187100Y-115803388D02*
X49187100Y-112891000D01*
X49187100Y-116606612D02*
X49187100Y-115803388D01*
X49187100Y-118618000D02*
X49187100Y-116606612D01*
X48945800Y-110121000D02*
X48945800Y-109347000D01*
X48945800Y-111633000D02*
X48945800Y-111379000D01*
X48945800Y-115803388D02*
X48945800Y-112891000D01*
X48945800Y-116606612D02*
X48945800Y-115803388D01*
X48945800Y-118618000D02*
X48945800Y-116606612D01*
X48704500Y-110162250D02*
X48704500Y-109347000D01*
X48704500Y-111633000D02*
X48704500Y-111379000D01*
X48704500Y-115803388D02*
X48704500Y-112849750D01*
X48704500Y-116606612D02*
X48704500Y-115803388D01*
X48704500Y-118618000D02*
X48704500Y-116606612D01*
X48463200Y-110279750D02*
X48463200Y-109347000D01*
X48463200Y-111633000D02*
X48463200Y-110279750D01*
X48463200Y-115803388D02*
X48463200Y-111633000D01*
X48463200Y-116606612D02*
X48463200Y-115803388D01*
X48463200Y-118618000D02*
X48463200Y-116606612D01*
X48221900Y-110168650D02*
X48221900Y-109347000D01*
X48221900Y-111633000D02*
X48221900Y-111379000D01*
X48221900Y-115803388D02*
X48221900Y-112843350D01*
X48221900Y-116606612D02*
X48221900Y-115803388D01*
X48221900Y-118618000D02*
X48221900Y-116606612D01*
X47980600Y-110121000D02*
X47980600Y-109347000D01*
X47980600Y-111633000D02*
X47980600Y-111379000D01*
X47980600Y-115803388D02*
X47980600Y-112891000D01*
X47980600Y-116606612D02*
X47980600Y-115803388D01*
X47980600Y-118618000D02*
X47980600Y-116606612D01*
X47739300Y-110121000D02*
X47739300Y-109347000D01*
X47739300Y-111633000D02*
X47739300Y-111379000D01*
X47739300Y-115803388D02*
X47739300Y-112891000D01*
X47739300Y-116606612D02*
X47739300Y-115803388D01*
X47739300Y-118618000D02*
X47739300Y-116606612D01*
X47498000Y-110121000D02*
X47498000Y-109347000D01*
X47498000Y-111633000D02*
X47498000Y-111379000D01*
X47498000Y-115803388D02*
X47498000Y-112891000D01*
X47498000Y-116606612D02*
X47498000Y-115803388D01*
X47498000Y-118618000D02*
X47498000Y-116606612D01*
X47256700Y-110121000D02*
X47256700Y-109347000D01*
X47256700Y-111633000D02*
X47256700Y-111379000D01*
X47256700Y-115803388D02*
X47256700Y-112891000D01*
X47256700Y-116606612D02*
X47256700Y-115803388D01*
X47256700Y-118618000D02*
X47256700Y-116606612D01*
X47015400Y-110128575D02*
X47015400Y-109347000D01*
X47015400Y-111633000D02*
X47015400Y-111379000D01*
X47015400Y-115803388D02*
X47015400Y-112883424D01*
X47015400Y-116606612D02*
X47015400Y-115803388D01*
X47015400Y-118618000D02*
X47015400Y-116606612D01*
X46774100Y-110243874D02*
X46774100Y-109347000D01*
X46774100Y-111633000D02*
X46774100Y-111379000D01*
X46774100Y-115803388D02*
X46774100Y-112768125D01*
X46774100Y-116606612D02*
X46774100Y-115803388D01*
X46774100Y-118618000D02*
X46774100Y-116606612D01*
X46532800Y-110610860D02*
X46532800Y-109347000D01*
X46532800Y-111783950D02*
X46532800Y-111228050D01*
X46532800Y-115803388D02*
X46532800Y-112401139D01*
X46532800Y-116606612D02*
X46532800Y-115803388D01*
X46532800Y-118618000D02*
X46532800Y-116606612D01*
D27*
X55505000Y-109547211D02*
X55755437Y-110151817D01*
X56218183Y-110614563D01*
X56822789Y-110865000D01*
X57477211Y-110865000D01*
X58081817Y-110614563D01*
X58420000Y-110276380D01*
X58758183Y-110614563D01*
X59362789Y-110865000D01*
X59563000Y-110865000D01*
X59563000Y-115720812D01*
X59543867Y-115644982D01*
X59201381Y-115043223D01*
X58654682Y-114618334D01*
X57987000Y-114435000D01*
X56007000Y-114435000D01*
X56007000Y-116078000D01*
X56027000Y-116078000D01*
X56027000Y-116332000D01*
X56007000Y-116332000D01*
X56007000Y-117975000D01*
X57987000Y-117975000D01*
X58654682Y-117791666D01*
X59201381Y-117366777D01*
X59543867Y-116765018D01*
X59563000Y-116689188D01*
X59563000Y-118618000D01*
X46482000Y-118618000D01*
X46482000Y-116606612D01*
X52176165Y-116606612D01*
X52216133Y-116765018D01*
X52558619Y-117366777D01*
X53105318Y-117791666D01*
X53773000Y-117975000D01*
X55753000Y-117975000D01*
X55753000Y-116332000D01*
X52293763Y-116332000D01*
X52176165Y-116606612D01*
X46482000Y-116606612D01*
X46482000Y-115803388D01*
X52176165Y-115803388D01*
X52293763Y-116078000D01*
X55753000Y-116078000D01*
X55753000Y-114435000D01*
X53773000Y-114435000D01*
X53105318Y-114618334D01*
X52558619Y-115043223D01*
X52216133Y-115644982D01*
X52176165Y-115803388D01*
X46482000Y-115803388D01*
X46482000Y-111791750D01*
X46525000Y-111791750D01*
X46525000Y-112382309D01*
X46621673Y-112615698D01*
X46800301Y-112794327D01*
X47033690Y-112891000D01*
X48174250Y-112891000D01*
X48333000Y-112732250D01*
X48333000Y-111633000D01*
X48587000Y-111633000D01*
X48587000Y-112732250D01*
X48745750Y-112891000D01*
X49886310Y-112891000D01*
X50119699Y-112794327D01*
X50298327Y-112615698D01*
X50395000Y-112382309D01*
X50395000Y-111791750D01*
X50236250Y-111633000D01*
X48587000Y-111633000D01*
X48333000Y-111633000D01*
X46683750Y-111633000D01*
X46525000Y-111791750D01*
X46482000Y-111791750D01*
X46482000Y-110629691D01*
X46525000Y-110629691D01*
X46525000Y-111220250D01*
X46683750Y-111379000D01*
X48333000Y-111379000D01*
X48333000Y-110279750D01*
X48587000Y-110279750D01*
X48587000Y-111379000D01*
X50236250Y-111379000D01*
X50395000Y-111220250D01*
X50395000Y-110629691D01*
X50298327Y-110396302D01*
X50119699Y-110217673D01*
X49886310Y-110121000D01*
X48745750Y-110121000D01*
X48587000Y-110279750D01*
X48333000Y-110279750D01*
X48174250Y-110121000D01*
X47033690Y-110121000D01*
X46800301Y-110217673D01*
X46621673Y-110396302D01*
X46525000Y-110629691D01*
X46482000Y-110629691D01*
X46482000Y-109347000D01*
X55505000Y-109347000D01*
X55505000Y-109547211D01*
D26*
G04 #@! TO.N,liPo1*
G36*
X17018000Y-118618000D02*
X2667000Y-118618000D01*
X2667000Y-116606612D01*
X3916165Y-116606612D01*
X3956133Y-116765018D01*
X4298619Y-117366777D01*
X4845318Y-117791666D01*
X5513000Y-117975000D01*
X7493000Y-117975000D01*
X7493000Y-116332000D01*
X7747000Y-116332000D01*
X7747000Y-117975000D01*
X9727000Y-117975000D01*
X10394682Y-117791666D01*
X10941381Y-117366777D01*
X11283867Y-116765018D01*
X11323835Y-116606612D01*
X11206237Y-116332000D01*
X7747000Y-116332000D01*
X7493000Y-116332000D01*
X4033763Y-116332000D01*
X3916165Y-116606612D01*
X2667000Y-116606612D01*
X2667000Y-115803388D01*
X3916165Y-115803388D01*
X4033763Y-116078000D01*
X7493000Y-116078000D01*
X7493000Y-114435000D01*
X7747000Y-114435000D01*
X7747000Y-116078000D01*
X11206237Y-116078000D01*
X11323835Y-115803388D01*
X11283867Y-115644982D01*
X10941381Y-115043223D01*
X10394682Y-114618334D01*
X9727000Y-114435000D01*
X7747000Y-114435000D01*
X7493000Y-114435000D01*
X5513000Y-114435000D01*
X4845318Y-114618334D01*
X4298619Y-115043223D01*
X3956133Y-115644982D01*
X3916165Y-115803388D01*
X2667000Y-115803388D01*
X2667000Y-112522000D01*
X9525000Y-112522000D01*
X9573601Y-112512333D01*
X9614803Y-112484803D01*
X9642333Y-112443601D01*
X9652000Y-112395000D01*
X9652000Y-109159609D01*
X9691929Y-109132929D01*
X9850000Y-108896359D01*
X9850000Y-111561309D01*
X9946673Y-111794698D01*
X10125301Y-111973327D01*
X10358690Y-112070000D01*
X13049250Y-112070000D01*
X13208000Y-111911250D01*
X13208000Y-108712000D01*
X13462000Y-108712000D01*
X13462000Y-111911250D01*
X13620750Y-112070000D01*
X16311310Y-112070000D01*
X16544699Y-111973327D01*
X16723327Y-111794698D01*
X16820000Y-111561309D01*
X16820000Y-108870750D01*
X16661250Y-108712000D01*
X13462000Y-108712000D01*
X13208000Y-108712000D01*
X13188000Y-108712000D01*
X13188000Y-108458000D01*
X13208000Y-108458000D01*
X13208000Y-105258750D01*
X13462000Y-105258750D01*
X13462000Y-108458000D01*
X16661250Y-108458000D01*
X16820000Y-108299250D01*
X16820000Y-105608691D01*
X16723327Y-105375302D01*
X16544699Y-105196673D01*
X16311310Y-105100000D01*
X13620750Y-105100000D01*
X13462000Y-105258750D01*
X13208000Y-105258750D01*
X13049250Y-105100000D01*
X10358690Y-105100000D01*
X10125301Y-105196673D01*
X9946673Y-105375302D01*
X9904000Y-105478324D01*
X9904000Y-104902000D01*
X17018000Y-104902000D01*
X17018000Y-118618000D01*
X17018000Y-118618000D01*
G37*
X17018000Y-118618000D02*
X2667000Y-118618000D01*
X2667000Y-116606612D01*
X3916165Y-116606612D01*
X3956133Y-116765018D01*
X4298619Y-117366777D01*
X4845318Y-117791666D01*
X5513000Y-117975000D01*
X7493000Y-117975000D01*
X7493000Y-116332000D01*
X7747000Y-116332000D01*
X7747000Y-117975000D01*
X9727000Y-117975000D01*
X10394682Y-117791666D01*
X10941381Y-117366777D01*
X11283867Y-116765018D01*
X11323835Y-116606612D01*
X11206237Y-116332000D01*
X7747000Y-116332000D01*
X7493000Y-116332000D01*
X4033763Y-116332000D01*
X3916165Y-116606612D01*
X2667000Y-116606612D01*
X2667000Y-115803388D01*
X3916165Y-115803388D01*
X4033763Y-116078000D01*
X7493000Y-116078000D01*
X7493000Y-114435000D01*
X7747000Y-114435000D01*
X7747000Y-116078000D01*
X11206237Y-116078000D01*
X11323835Y-115803388D01*
X11283867Y-115644982D01*
X10941381Y-115043223D01*
X10394682Y-114618334D01*
X9727000Y-114435000D01*
X7747000Y-114435000D01*
X7493000Y-114435000D01*
X5513000Y-114435000D01*
X4845318Y-114618334D01*
X4298619Y-115043223D01*
X3956133Y-115644982D01*
X3916165Y-115803388D01*
X2667000Y-115803388D01*
X2667000Y-112522000D01*
X9525000Y-112522000D01*
X9573601Y-112512333D01*
X9614803Y-112484803D01*
X9642333Y-112443601D01*
X9652000Y-112395000D01*
X9652000Y-109159609D01*
X9691929Y-109132929D01*
X9850000Y-108896359D01*
X9850000Y-111561309D01*
X9946673Y-111794698D01*
X10125301Y-111973327D01*
X10358690Y-112070000D01*
X13049250Y-112070000D01*
X13208000Y-111911250D01*
X13208000Y-108712000D01*
X13462000Y-108712000D01*
X13462000Y-111911250D01*
X13620750Y-112070000D01*
X16311310Y-112070000D01*
X16544699Y-111973327D01*
X16723327Y-111794698D01*
X16820000Y-111561309D01*
X16820000Y-108870750D01*
X16661250Y-108712000D01*
X13462000Y-108712000D01*
X13208000Y-108712000D01*
X13188000Y-108712000D01*
X13188000Y-108458000D01*
X13208000Y-108458000D01*
X13208000Y-105258750D01*
X13462000Y-105258750D01*
X13462000Y-108458000D01*
X16661250Y-108458000D01*
X16820000Y-108299250D01*
X16820000Y-105608691D01*
X16723327Y-105375302D01*
X16544699Y-105196673D01*
X16311310Y-105100000D01*
X13620750Y-105100000D01*
X13462000Y-105258750D01*
X13208000Y-105258750D01*
X13049250Y-105100000D01*
X10358690Y-105100000D01*
X10125301Y-105196673D01*
X9946673Y-105375302D01*
X9904000Y-105478324D01*
X9904000Y-104902000D01*
X17018000Y-104902000D01*
X17018000Y-118618000D01*
G04 #@! TO.N,GND*
X27813000Y-109347000D02*
X17907000Y-109347000D01*
X18219675Y-109588300D02*
X17907000Y-109588300D01*
X20068450Y-109588300D02*
X19701550Y-109588300D01*
X27813000Y-109588300D02*
X21550326Y-109588300D01*
X18018384Y-109829600D02*
X17907000Y-109829600D01*
X20012000Y-109829600D02*
X19758000Y-109829600D01*
X27813000Y-109829600D02*
X21751617Y-109829600D01*
X17950000Y-110070900D02*
X17907000Y-110070900D01*
X20012000Y-110070900D02*
X19758000Y-110070900D01*
X27813000Y-110070900D02*
X21820000Y-110070900D01*
X17950000Y-110312200D02*
X17907000Y-110312200D01*
X20012000Y-110312200D02*
X19758000Y-110312200D01*
X27813000Y-110312200D02*
X21820000Y-110312200D01*
X17950000Y-110553500D02*
X17907000Y-110553500D01*
X20012000Y-110553500D02*
X19758000Y-110553500D01*
X27813000Y-110553500D02*
X21820000Y-110553500D01*
X27813000Y-110794800D02*
X17907000Y-110794800D01*
X18070650Y-111036100D02*
X17907000Y-111036100D01*
X20012000Y-111036100D02*
X19758000Y-111036100D01*
X27813000Y-111036100D02*
X21699350Y-111036100D01*
X17950000Y-111277400D02*
X17907000Y-111277400D01*
X20012000Y-111277400D02*
X19758000Y-111277400D01*
X27813000Y-111277400D02*
X21820000Y-111277400D01*
X17950000Y-111518700D02*
X17907000Y-111518700D01*
X20012000Y-111518700D02*
X19758000Y-111518700D01*
X27813000Y-111518700D02*
X21820000Y-111518700D01*
X17955256Y-111760000D02*
X17907000Y-111760000D01*
X20012000Y-111760000D02*
X19758000Y-111760000D01*
X27813000Y-111760000D02*
X21814743Y-111760000D01*
X18067274Y-112001300D02*
X17907000Y-112001300D01*
X20012000Y-112001300D02*
X19758000Y-112001300D01*
X27813000Y-112001300D02*
X21702725Y-112001300D01*
X18426339Y-112242600D02*
X17907000Y-112242600D01*
X20157350Y-112242600D02*
X19612650Y-112242600D01*
X27813000Y-112242600D02*
X21343660Y-112242600D01*
X27813000Y-112483900D02*
X17907000Y-112483900D01*
X27813000Y-112725200D02*
X17907000Y-112725200D01*
X27813000Y-112966500D02*
X17907000Y-112966500D01*
X27813000Y-113207800D02*
X17907000Y-113207800D01*
X27813000Y-113449100D02*
X17907000Y-113449100D01*
X27813000Y-113690400D02*
X17907000Y-113690400D01*
X27813000Y-113931700D02*
X17907000Y-113931700D01*
X27813000Y-114173000D02*
X17907000Y-114173000D01*
X27813000Y-114414300D02*
X17907000Y-114414300D01*
X20672369Y-114655600D02*
X17907000Y-114655600D01*
X23622000Y-114655600D02*
X23368000Y-114655600D01*
X27813000Y-114655600D02*
X26317632Y-114655600D01*
X20361891Y-114896900D02*
X17907000Y-114896900D01*
X23622000Y-114896900D02*
X23368000Y-114896900D01*
X27813000Y-114896900D02*
X26628110Y-114896900D01*
X20119564Y-115138200D02*
X17907000Y-115138200D01*
X23622000Y-115138200D02*
X23368000Y-115138200D01*
X27813000Y-115138200D02*
X26870437Y-115138200D01*
X19982230Y-115379500D02*
X17907000Y-115379500D01*
X23622000Y-115379500D02*
X23368000Y-115379500D01*
X27813000Y-115379500D02*
X27007771Y-115379500D01*
X19844896Y-115620800D02*
X17907000Y-115620800D01*
X23622000Y-115620800D02*
X23368000Y-115620800D01*
X27813000Y-115620800D02*
X27145105Y-115620800D01*
X19816307Y-115862100D02*
X17907000Y-115862100D01*
X23622000Y-115862100D02*
X23368000Y-115862100D01*
X27813000Y-115862100D02*
X27173692Y-115862100D01*
X27813000Y-116103400D02*
X17907000Y-116103400D01*
X19903325Y-116344700D02*
X17907000Y-116344700D01*
X23622000Y-116344700D02*
X23368000Y-116344700D01*
X27813000Y-116344700D02*
X27086676Y-116344700D01*
X19799992Y-116586000D02*
X17907000Y-116586000D01*
X23622000Y-116586000D02*
X23368000Y-116586000D01*
X27813000Y-116586000D02*
X27190009Y-116586000D01*
X19866580Y-116827300D02*
X17907000Y-116827300D01*
X23622000Y-116827300D02*
X23368000Y-116827300D01*
X27813000Y-116827300D02*
X27123419Y-116827300D01*
X20003914Y-117068600D02*
X17907000Y-117068600D01*
X23622000Y-117068600D02*
X23368000Y-117068600D01*
X27813000Y-117068600D02*
X26986085Y-117068600D01*
X20141247Y-117309900D02*
X17907000Y-117309900D01*
X23622000Y-117309900D02*
X23368000Y-117309900D01*
X27813000Y-117309900D02*
X26848752Y-117309900D01*
X20410913Y-117551200D02*
X17907000Y-117551200D01*
X23622000Y-117551200D02*
X23368000Y-117551200D01*
X27813000Y-117551200D02*
X26579086Y-117551200D01*
X20723355Y-117792500D02*
X17907000Y-117792500D01*
X23622000Y-117792500D02*
X23368000Y-117792500D01*
X27813000Y-117792500D02*
X26266644Y-117792500D01*
X27813000Y-118033800D02*
X17907000Y-118033800D01*
X27813000Y-118275100D02*
X17907000Y-118275100D01*
X27813000Y-118516400D02*
X17907000Y-118516400D01*
X27813000Y-118618000D02*
X27813000Y-109347000D01*
X27571700Y-118618000D02*
X27571700Y-109347000D01*
X27330400Y-118618000D02*
X27330400Y-109347000D01*
X27089100Y-115522400D02*
X27089100Y-109347000D01*
X27089100Y-116350362D02*
X27089100Y-116059639D01*
X27089100Y-118618000D02*
X27089100Y-116887601D01*
X26847800Y-115098428D02*
X26847800Y-109347000D01*
X26847800Y-116332000D02*
X26847800Y-116078000D01*
X26847800Y-118618000D02*
X26847800Y-117311573D01*
X26606500Y-114880106D02*
X26606500Y-109347000D01*
X26606500Y-116332000D02*
X26606500Y-116078000D01*
X26606500Y-118618000D02*
X26606500Y-117529895D01*
X26365200Y-114692570D02*
X26365200Y-109347000D01*
X26365200Y-116332000D02*
X26365200Y-116078000D01*
X26365200Y-118618000D02*
X26365200Y-117717431D01*
X26123900Y-114578305D02*
X26123900Y-109347000D01*
X26123900Y-116332000D02*
X26123900Y-116078000D01*
X26123900Y-118618000D02*
X26123900Y-117831696D01*
X25882600Y-114512048D02*
X25882600Y-109347000D01*
X25882600Y-116332000D02*
X25882600Y-116078000D01*
X25882600Y-118618000D02*
X25882600Y-117897953D01*
X25641300Y-114445792D02*
X25641300Y-109347000D01*
X25641300Y-116332000D02*
X25641300Y-116078000D01*
X25641300Y-118618000D02*
X25641300Y-117964209D01*
X25400000Y-114435000D02*
X25400000Y-109347000D01*
X25400000Y-116332000D02*
X25400000Y-116078000D01*
X25400000Y-118618000D02*
X25400000Y-117975000D01*
X25158700Y-114435000D02*
X25158700Y-109347000D01*
X25158700Y-116332000D02*
X25158700Y-116078000D01*
X25158700Y-118618000D02*
X25158700Y-117975000D01*
X24917400Y-114435000D02*
X24917400Y-109347000D01*
X24917400Y-116332000D02*
X24917400Y-116078000D01*
X24917400Y-118618000D02*
X24917400Y-117975000D01*
X24676100Y-114435000D02*
X24676100Y-109347000D01*
X24676100Y-116332000D02*
X24676100Y-116078000D01*
X24676100Y-118618000D02*
X24676100Y-117975000D01*
X24434800Y-114435000D02*
X24434800Y-109347000D01*
X24434800Y-116332000D02*
X24434800Y-116078000D01*
X24434800Y-118618000D02*
X24434800Y-117975000D01*
X24193500Y-114435000D02*
X24193500Y-109347000D01*
X24193500Y-116332000D02*
X24193500Y-116078000D01*
X24193500Y-118618000D02*
X24193500Y-117975000D01*
X23952200Y-114435000D02*
X23952200Y-109347000D01*
X23952200Y-116332000D02*
X23952200Y-116078000D01*
X23952200Y-118618000D02*
X23952200Y-117975000D01*
X23710900Y-114435000D02*
X23710900Y-109347000D01*
X23710900Y-116332000D02*
X23710900Y-116078000D01*
X23710900Y-118618000D02*
X23710900Y-117975000D01*
X23469600Y-114435000D02*
X23469600Y-109347000D01*
X23469600Y-116332000D02*
X23469600Y-114435000D01*
X23469600Y-118618000D02*
X23469600Y-116332000D01*
X23228300Y-114435000D02*
X23228300Y-109347000D01*
X23228300Y-116332000D02*
X23228300Y-116078000D01*
X23228300Y-118618000D02*
X23228300Y-117975000D01*
X22987000Y-114435000D02*
X22987000Y-109347000D01*
X22987000Y-116332000D02*
X22987000Y-116078000D01*
X22987000Y-118618000D02*
X22987000Y-117975000D01*
X22745700Y-114435000D02*
X22745700Y-109347000D01*
X22745700Y-116332000D02*
X22745700Y-116078000D01*
X22745700Y-118618000D02*
X22745700Y-117975000D01*
X22504400Y-114435000D02*
X22504400Y-109347000D01*
X22504400Y-116332000D02*
X22504400Y-116078000D01*
X22504400Y-118618000D02*
X22504400Y-117975000D01*
X22263100Y-114435000D02*
X22263100Y-109347000D01*
X22263100Y-116332000D02*
X22263100Y-116078000D01*
X22263100Y-118618000D02*
X22263100Y-117975000D01*
X22021800Y-114435000D02*
X22021800Y-109347000D01*
X22021800Y-116332000D02*
X22021800Y-116078000D01*
X22021800Y-118618000D02*
X22021800Y-117975000D01*
X21780500Y-109899330D02*
X21780500Y-109347000D01*
X21780500Y-111117250D02*
X21780500Y-110624750D01*
X21780500Y-114435000D02*
X21780500Y-111842671D01*
X21780500Y-116332000D02*
X21780500Y-116078000D01*
X21780500Y-118618000D02*
X21780500Y-117975000D01*
X21539200Y-109580396D02*
X21539200Y-109347000D01*
X21539200Y-110998000D02*
X21539200Y-110744000D01*
X21539200Y-114435000D02*
X21539200Y-112161605D01*
X21539200Y-116332000D02*
X21539200Y-116078000D01*
X21539200Y-118618000D02*
X21539200Y-117975000D01*
X21297900Y-109486000D02*
X21297900Y-109347000D01*
X21297900Y-110998000D02*
X21297900Y-110744000D01*
X21297900Y-114459739D02*
X21297900Y-112256000D01*
X21297900Y-116332000D02*
X21297900Y-116078000D01*
X21297900Y-118618000D02*
X21297900Y-117950260D01*
X21056600Y-109486000D02*
X21056600Y-109347000D01*
X21056600Y-110998000D02*
X21056600Y-110744000D01*
X21056600Y-114525996D02*
X21056600Y-112256000D01*
X21056600Y-116332000D02*
X21056600Y-116078000D01*
X21056600Y-118618000D02*
X21056600Y-117884003D01*
X20815300Y-109486000D02*
X20815300Y-109347000D01*
X20815300Y-110998000D02*
X20815300Y-110744000D01*
X20815300Y-114592253D02*
X20815300Y-112256000D01*
X20815300Y-116332000D02*
X20815300Y-116078000D01*
X20815300Y-118618000D02*
X20815300Y-117817746D01*
X20574000Y-109486000D02*
X20574000Y-109347000D01*
X20574000Y-110998000D02*
X20574000Y-110744000D01*
X20574000Y-114732050D02*
X20574000Y-112256000D01*
X20574000Y-116332000D02*
X20574000Y-116078000D01*
X20574000Y-118618000D02*
X20574000Y-117677949D01*
X20332700Y-109486000D02*
X20332700Y-109347000D01*
X20332700Y-110998000D02*
X20332700Y-110744000D01*
X20332700Y-114919586D02*
X20332700Y-112256000D01*
X20332700Y-116332000D02*
X20332700Y-116078000D01*
X20332700Y-118618000D02*
X20332700Y-117490413D01*
X20091400Y-109565350D02*
X20091400Y-109347000D01*
X20091400Y-110998000D02*
X20091400Y-110744000D01*
X20091400Y-115187684D02*
X20091400Y-112176650D01*
X20091400Y-116332000D02*
X20091400Y-116078000D01*
X20091400Y-118618000D02*
X20091400Y-117222315D01*
X19850100Y-109644750D02*
X19850100Y-109347000D01*
X19850100Y-110998000D02*
X19850100Y-109644750D01*
X19850100Y-115611656D02*
X19850100Y-110998000D01*
X19850100Y-116468988D02*
X19850100Y-115941011D01*
X19850100Y-118618000D02*
X19850100Y-116798343D01*
X19608800Y-109495550D02*
X19608800Y-109347000D01*
X19608800Y-110998000D02*
X19608800Y-110744000D01*
X19608800Y-115803388D02*
X19608800Y-112246450D01*
X19608800Y-116606612D02*
X19608800Y-115803388D01*
X19608800Y-118618000D02*
X19608800Y-116606612D01*
X19367500Y-109486000D02*
X19367500Y-109347000D01*
X19367500Y-110998000D02*
X19367500Y-110744000D01*
X19367500Y-115803388D02*
X19367500Y-112256000D01*
X19367500Y-116606612D02*
X19367500Y-115803388D01*
X19367500Y-118618000D02*
X19367500Y-116606612D01*
X19126200Y-109486000D02*
X19126200Y-109347000D01*
X19126200Y-110998000D02*
X19126200Y-110744000D01*
X19126200Y-115803388D02*
X19126200Y-112256000D01*
X19126200Y-116606612D02*
X19126200Y-115803388D01*
X19126200Y-118618000D02*
X19126200Y-116606612D01*
X18884900Y-109486000D02*
X18884900Y-109347000D01*
X18884900Y-110998000D02*
X18884900Y-110744000D01*
X18884900Y-115803388D02*
X18884900Y-112256000D01*
X18884900Y-116606612D02*
X18884900Y-115803388D01*
X18884900Y-118618000D02*
X18884900Y-116606612D01*
X18643600Y-109486000D02*
X18643600Y-109347000D01*
X18643600Y-110998000D02*
X18643600Y-110744000D01*
X18643600Y-115803388D02*
X18643600Y-112256000D01*
X18643600Y-116606612D02*
X18643600Y-115803388D01*
X18643600Y-118618000D02*
X18643600Y-116606612D01*
X18402300Y-109509357D02*
X18402300Y-109347000D01*
X18402300Y-110998000D02*
X18402300Y-110744000D01*
X18402300Y-115803388D02*
X18402300Y-112232642D01*
X18402300Y-116606612D02*
X18402300Y-115803388D01*
X18402300Y-118618000D02*
X18402300Y-116606612D01*
X18161000Y-109646974D02*
X18161000Y-109347000D01*
X18161000Y-110998000D02*
X18161000Y-110744000D01*
X18161000Y-115803388D02*
X18161000Y-112095025D01*
X18161000Y-116606612D02*
X18161000Y-115803388D01*
X18161000Y-118618000D02*
X18161000Y-116606612D01*
X17919700Y-109994691D02*
X17919700Y-109347000D01*
X17919700Y-111156750D02*
X17919700Y-109994691D01*
X17919700Y-115803388D02*
X17919700Y-111156750D01*
X17919700Y-116606612D02*
X17919700Y-115803388D01*
X17919700Y-118618000D02*
X17919700Y-116606612D01*
D27*
X27813000Y-118618000D02*
X17907000Y-118618000D01*
X17907000Y-116606612D01*
X19791165Y-116606612D01*
X19831133Y-116765018D01*
X20173619Y-117366777D01*
X20720318Y-117791666D01*
X21388000Y-117975000D01*
X23368000Y-117975000D01*
X23368000Y-116332000D01*
X23622000Y-116332000D01*
X23622000Y-117975000D01*
X25602000Y-117975000D01*
X26269682Y-117791666D01*
X26816381Y-117366777D01*
X27158867Y-116765018D01*
X27198835Y-116606612D01*
X27081237Y-116332000D01*
X23622000Y-116332000D01*
X23368000Y-116332000D01*
X19908763Y-116332000D01*
X19791165Y-116606612D01*
X17907000Y-116606612D01*
X17907000Y-115803388D01*
X19791165Y-115803388D01*
X19908763Y-116078000D01*
X23368000Y-116078000D01*
X23368000Y-114435000D01*
X23622000Y-114435000D01*
X23622000Y-116078000D01*
X27081237Y-116078000D01*
X27198835Y-115803388D01*
X27158867Y-115644982D01*
X26816381Y-115043223D01*
X26269682Y-114618334D01*
X25602000Y-114435000D01*
X23622000Y-114435000D01*
X23368000Y-114435000D01*
X21388000Y-114435000D01*
X20720318Y-114618334D01*
X20173619Y-115043223D01*
X19831133Y-115644982D01*
X19791165Y-115803388D01*
X17907000Y-115803388D01*
X17907000Y-111156750D01*
X17950000Y-111156750D01*
X17950000Y-111747309D01*
X18046673Y-111980698D01*
X18225301Y-112159327D01*
X18458690Y-112256000D01*
X19599250Y-112256000D01*
X19758000Y-112097250D01*
X19758000Y-110998000D01*
X20012000Y-110998000D01*
X20012000Y-112097250D01*
X20170750Y-112256000D01*
X21311310Y-112256000D01*
X21544699Y-112159327D01*
X21723327Y-111980698D01*
X21820000Y-111747309D01*
X21820000Y-111156750D01*
X21661250Y-110998000D01*
X20012000Y-110998000D01*
X19758000Y-110998000D01*
X18108750Y-110998000D01*
X17950000Y-111156750D01*
X17907000Y-111156750D01*
X17907000Y-109994691D01*
X17950000Y-109994691D01*
X17950000Y-110585250D01*
X18108750Y-110744000D01*
X19758000Y-110744000D01*
X19758000Y-109644750D01*
X20012000Y-109644750D01*
X20012000Y-110744000D01*
X21661250Y-110744000D01*
X21820000Y-110585250D01*
X21820000Y-109994691D01*
X21723327Y-109761302D01*
X21544699Y-109582673D01*
X21311310Y-109486000D01*
X20170750Y-109486000D01*
X20012000Y-109644750D01*
X19758000Y-109644750D01*
X19599250Y-109486000D01*
X18458690Y-109486000D01*
X18225301Y-109582673D01*
X18046673Y-109761302D01*
X17950000Y-109994691D01*
X17907000Y-109994691D01*
X17907000Y-109347000D01*
X27813000Y-109347000D01*
X27813000Y-118618000D01*
D26*
G04 #@! TO.N,liPo2*
G36*
X45593000Y-118618000D02*
X34417000Y-118618000D01*
X34417000Y-116606612D01*
X36301165Y-116606612D01*
X36341133Y-116765018D01*
X36683619Y-117366777D01*
X37230318Y-117791666D01*
X37898000Y-117975000D01*
X39878000Y-117975000D01*
X39878000Y-116332000D01*
X40132000Y-116332000D01*
X40132000Y-117975000D01*
X42112000Y-117975000D01*
X42779682Y-117791666D01*
X43326381Y-117366777D01*
X43668867Y-116765018D01*
X43708835Y-116606612D01*
X43591237Y-116332000D01*
X40132000Y-116332000D01*
X39878000Y-116332000D01*
X36418763Y-116332000D01*
X36301165Y-116606612D01*
X34417000Y-116606612D01*
X34417000Y-115803388D01*
X36301165Y-115803388D01*
X36418763Y-116078000D01*
X39878000Y-116078000D01*
X39878000Y-114435000D01*
X40132000Y-114435000D01*
X40132000Y-116078000D01*
X43591237Y-116078000D01*
X43708835Y-115803388D01*
X43668867Y-115644982D01*
X43326381Y-115043223D01*
X42779682Y-114618334D01*
X42112000Y-114435000D01*
X40132000Y-114435000D01*
X39878000Y-114435000D01*
X37898000Y-114435000D01*
X37230318Y-114618334D01*
X36683619Y-115043223D01*
X36341133Y-115644982D01*
X36301165Y-115803388D01*
X34417000Y-115803388D01*
X34417000Y-113157000D01*
X38100000Y-113157000D01*
X38148601Y-113147333D01*
X38189803Y-113119803D01*
X38217333Y-113078601D01*
X38227000Y-113030000D01*
X38227000Y-109505750D01*
X38425000Y-109505750D01*
X38425000Y-112196309D01*
X38521673Y-112429698D01*
X38700301Y-112608327D01*
X38933690Y-112705000D01*
X41624250Y-112705000D01*
X41783000Y-112546250D01*
X41783000Y-109347000D01*
X42037000Y-109347000D01*
X42037000Y-112546250D01*
X42195750Y-112705000D01*
X44886310Y-112705000D01*
X45119699Y-112608327D01*
X45298327Y-112429698D01*
X45395000Y-112196309D01*
X45395000Y-109505750D01*
X45236250Y-109347000D01*
X42037000Y-109347000D01*
X41783000Y-109347000D01*
X38583750Y-109347000D01*
X38425000Y-109505750D01*
X38227000Y-109505750D01*
X38227000Y-106243691D01*
X38425000Y-106243691D01*
X38425000Y-108934250D01*
X38583750Y-109093000D01*
X41783000Y-109093000D01*
X41783000Y-105893750D01*
X42037000Y-105893750D01*
X42037000Y-109093000D01*
X45236250Y-109093000D01*
X45395000Y-108934250D01*
X45395000Y-106243691D01*
X45298327Y-106010302D01*
X45119699Y-105831673D01*
X44886310Y-105735000D01*
X42195750Y-105735000D01*
X42037000Y-105893750D01*
X41783000Y-105893750D01*
X41624250Y-105735000D01*
X38933690Y-105735000D01*
X38700301Y-105831673D01*
X38521673Y-106010302D01*
X38425000Y-106243691D01*
X38227000Y-106243691D01*
X38227000Y-105537000D01*
X45593000Y-105537000D01*
X45593000Y-118618000D01*
X45593000Y-118618000D01*
G37*
X45593000Y-118618000D02*
X34417000Y-118618000D01*
X34417000Y-116606612D01*
X36301165Y-116606612D01*
X36341133Y-116765018D01*
X36683619Y-117366777D01*
X37230318Y-117791666D01*
X37898000Y-117975000D01*
X39878000Y-117975000D01*
X39878000Y-116332000D01*
X40132000Y-116332000D01*
X40132000Y-117975000D01*
X42112000Y-117975000D01*
X42779682Y-117791666D01*
X43326381Y-117366777D01*
X43668867Y-116765018D01*
X43708835Y-116606612D01*
X43591237Y-116332000D01*
X40132000Y-116332000D01*
X39878000Y-116332000D01*
X36418763Y-116332000D01*
X36301165Y-116606612D01*
X34417000Y-116606612D01*
X34417000Y-115803388D01*
X36301165Y-115803388D01*
X36418763Y-116078000D01*
X39878000Y-116078000D01*
X39878000Y-114435000D01*
X40132000Y-114435000D01*
X40132000Y-116078000D01*
X43591237Y-116078000D01*
X43708835Y-115803388D01*
X43668867Y-115644982D01*
X43326381Y-115043223D01*
X42779682Y-114618334D01*
X42112000Y-114435000D01*
X40132000Y-114435000D01*
X39878000Y-114435000D01*
X37898000Y-114435000D01*
X37230318Y-114618334D01*
X36683619Y-115043223D01*
X36341133Y-115644982D01*
X36301165Y-115803388D01*
X34417000Y-115803388D01*
X34417000Y-113157000D01*
X38100000Y-113157000D01*
X38148601Y-113147333D01*
X38189803Y-113119803D01*
X38217333Y-113078601D01*
X38227000Y-113030000D01*
X38227000Y-109505750D01*
X38425000Y-109505750D01*
X38425000Y-112196309D01*
X38521673Y-112429698D01*
X38700301Y-112608327D01*
X38933690Y-112705000D01*
X41624250Y-112705000D01*
X41783000Y-112546250D01*
X41783000Y-109347000D01*
X42037000Y-109347000D01*
X42037000Y-112546250D01*
X42195750Y-112705000D01*
X44886310Y-112705000D01*
X45119699Y-112608327D01*
X45298327Y-112429698D01*
X45395000Y-112196309D01*
X45395000Y-109505750D01*
X45236250Y-109347000D01*
X42037000Y-109347000D01*
X41783000Y-109347000D01*
X38583750Y-109347000D01*
X38425000Y-109505750D01*
X38227000Y-109505750D01*
X38227000Y-106243691D01*
X38425000Y-106243691D01*
X38425000Y-108934250D01*
X38583750Y-109093000D01*
X41783000Y-109093000D01*
X41783000Y-105893750D01*
X42037000Y-105893750D01*
X42037000Y-109093000D01*
X45236250Y-109093000D01*
X45395000Y-108934250D01*
X45395000Y-106243691D01*
X45298327Y-106010302D01*
X45119699Y-105831673D01*
X44886310Y-105735000D01*
X42195750Y-105735000D01*
X42037000Y-105893750D01*
X41783000Y-105893750D01*
X41624250Y-105735000D01*
X38933690Y-105735000D01*
X38700301Y-105831673D01*
X38521673Y-106010302D01*
X38425000Y-106243691D01*
X38227000Y-106243691D01*
X38227000Y-105537000D01*
X45593000Y-105537000D01*
X45593000Y-118618000D01*
G04 #@! TO.N,+15V*
X27813000Y-104902000D02*
X17907000Y-104902000D01*
X18092675Y-105143300D02*
X17907000Y-105143300D01*
X20012000Y-105143300D02*
X19758000Y-105143300D01*
X27813000Y-105143300D02*
X21677326Y-105143300D01*
X17965778Y-105384600D02*
X17907000Y-105384600D01*
X20012000Y-105384600D02*
X19758000Y-105384600D01*
X27813000Y-105384600D02*
X21804223Y-105384600D01*
X17950000Y-105625900D02*
X17907000Y-105625900D01*
X20012000Y-105625900D02*
X19758000Y-105625900D01*
X27813000Y-105625900D02*
X21820000Y-105625900D01*
X17950000Y-105867200D02*
X17907000Y-105867200D01*
X20012000Y-105867200D02*
X19758000Y-105867200D01*
X27813000Y-105867200D02*
X21820000Y-105867200D01*
X18045250Y-106108500D02*
X17907000Y-106108500D01*
X20012000Y-106108500D02*
X19758000Y-106108500D01*
X27813000Y-106108500D02*
X21724750Y-106108500D01*
X27813000Y-106349800D02*
X17907000Y-106349800D01*
X17950000Y-106591100D02*
X17907000Y-106591100D01*
X20012000Y-106591100D02*
X19758000Y-106591100D01*
X27813000Y-106591100D02*
X21820000Y-106591100D01*
X17950000Y-106832400D02*
X17907000Y-106832400D01*
X20012000Y-106832400D02*
X19758000Y-106832400D01*
X27813000Y-106832400D02*
X21820000Y-106832400D01*
X17950000Y-107073700D02*
X17907000Y-107073700D01*
X20012000Y-107073700D02*
X19758000Y-107073700D01*
X27813000Y-107073700D02*
X21820000Y-107073700D01*
X18007861Y-107315000D02*
X17907000Y-107315000D01*
X20012000Y-107315000D02*
X19758000Y-107315000D01*
X27813000Y-107315000D02*
X21762138Y-107315000D01*
X18194274Y-107556300D02*
X17907000Y-107556300D01*
X20043050Y-107556300D02*
X19726950Y-107556300D01*
X27813000Y-107556300D02*
X21575725Y-107556300D01*
X27813000Y-107797600D02*
X17907000Y-107797600D01*
X27813000Y-107823000D02*
X27813000Y-104902000D01*
X27571700Y-107823000D02*
X27571700Y-104902000D01*
X27330400Y-107823000D02*
X27330400Y-104902000D01*
X27089100Y-107823000D02*
X27089100Y-104902000D01*
X26847800Y-107823000D02*
X26847800Y-104902000D01*
X26606500Y-107823000D02*
X26606500Y-104902000D01*
X26365200Y-107823000D02*
X26365200Y-104902000D01*
X26123900Y-107823000D02*
X26123900Y-104902000D01*
X25882600Y-107823000D02*
X25882600Y-104902000D01*
X25641300Y-107823000D02*
X25641300Y-104902000D01*
X25400000Y-107823000D02*
X25400000Y-104902000D01*
X25158700Y-107823000D02*
X25158700Y-104902000D01*
X24917400Y-107823000D02*
X24917400Y-104902000D01*
X24676100Y-107823000D02*
X24676100Y-104902000D01*
X24434800Y-107823000D02*
X24434800Y-104902000D01*
X24193500Y-107823000D02*
X24193500Y-104902000D01*
X23952200Y-107823000D02*
X23952200Y-104902000D01*
X23710900Y-107823000D02*
X23710900Y-104902000D01*
X23469600Y-107823000D02*
X23469600Y-104902000D01*
X23228300Y-107823000D02*
X23228300Y-104902000D01*
X22987000Y-107823000D02*
X22987000Y-104902000D01*
X22745700Y-107823000D02*
X22745700Y-104902000D01*
X22504400Y-107823000D02*
X22504400Y-104902000D01*
X22263100Y-107823000D02*
X22263100Y-104902000D01*
X22021800Y-107823000D02*
X22021800Y-104902000D01*
X21780500Y-105327330D02*
X21780500Y-104902000D01*
X21780500Y-106545250D02*
X21780500Y-106052750D01*
X21780500Y-107823000D02*
X21780500Y-107270671D01*
X21539200Y-105008396D02*
X21539200Y-104902000D01*
X21539200Y-106426000D02*
X21539200Y-106172000D01*
X21539200Y-107823000D02*
X21539200Y-107589605D01*
X21297900Y-104914000D02*
X21297900Y-104902000D01*
X21297900Y-106426000D02*
X21297900Y-106172000D01*
X21297900Y-107823000D02*
X21297900Y-107684000D01*
X21056600Y-104914000D02*
X21056600Y-104902000D01*
X21056600Y-106426000D02*
X21056600Y-106172000D01*
X21056600Y-107823000D02*
X21056600Y-107684000D01*
X20815300Y-104914000D02*
X20815300Y-104902000D01*
X20815300Y-106426000D02*
X20815300Y-106172000D01*
X20815300Y-107823000D02*
X20815300Y-107684000D01*
X20574000Y-104914000D02*
X20574000Y-104902000D01*
X20574000Y-106426000D02*
X20574000Y-106172000D01*
X20574000Y-107823000D02*
X20574000Y-107684000D01*
X20332700Y-104914000D02*
X20332700Y-104902000D01*
X20332700Y-106426000D02*
X20332700Y-106172000D01*
X20332700Y-107823000D02*
X20332700Y-107684000D01*
X20091400Y-104993350D02*
X20091400Y-104902000D01*
X20091400Y-106426000D02*
X20091400Y-106172000D01*
X20091400Y-107823000D02*
X20091400Y-107604650D01*
X19850100Y-105072750D02*
X19850100Y-104902000D01*
X19850100Y-106426000D02*
X19850100Y-105072750D01*
X19850100Y-107823000D02*
X19850100Y-106426000D01*
X19608800Y-104923550D02*
X19608800Y-104902000D01*
X19608800Y-106426000D02*
X19608800Y-106172000D01*
X19608800Y-107823000D02*
X19608800Y-107674450D01*
X19367500Y-104914000D02*
X19367500Y-104902000D01*
X19367500Y-106426000D02*
X19367500Y-106172000D01*
X19367500Y-107823000D02*
X19367500Y-107684000D01*
X19126200Y-104914000D02*
X19126200Y-104902000D01*
X19126200Y-106426000D02*
X19126200Y-106172000D01*
X19126200Y-107823000D02*
X19126200Y-107684000D01*
X18884900Y-104914000D02*
X18884900Y-104902000D01*
X18884900Y-106426000D02*
X18884900Y-106172000D01*
X18884900Y-107823000D02*
X18884900Y-107684000D01*
X18643600Y-104914000D02*
X18643600Y-104902000D01*
X18643600Y-106426000D02*
X18643600Y-106172000D01*
X18643600Y-107823000D02*
X18643600Y-107684000D01*
X18402300Y-104937357D02*
X18402300Y-104902000D01*
X18402300Y-106426000D02*
X18402300Y-106172000D01*
X18402300Y-107823000D02*
X18402300Y-107660642D01*
X18161000Y-105074974D02*
X18161000Y-104902000D01*
X18161000Y-106426000D02*
X18161000Y-106172000D01*
X18161000Y-107823000D02*
X18161000Y-107523025D01*
X17919700Y-105422691D02*
X17919700Y-104902000D01*
X17919700Y-106584750D02*
X17919700Y-105422691D01*
X17919700Y-107823000D02*
X17919700Y-106584750D01*
D27*
X27813000Y-107823000D02*
X17907000Y-107823000D01*
X17907000Y-106584750D01*
X17950000Y-106584750D01*
X17950000Y-107175309D01*
X18046673Y-107408698D01*
X18225301Y-107587327D01*
X18458690Y-107684000D01*
X19599250Y-107684000D01*
X19758000Y-107525250D01*
X19758000Y-106426000D01*
X20012000Y-106426000D01*
X20012000Y-107525250D01*
X20170750Y-107684000D01*
X21311310Y-107684000D01*
X21544699Y-107587327D01*
X21723327Y-107408698D01*
X21820000Y-107175309D01*
X21820000Y-106584750D01*
X21661250Y-106426000D01*
X20012000Y-106426000D01*
X19758000Y-106426000D01*
X18108750Y-106426000D01*
X17950000Y-106584750D01*
X17907000Y-106584750D01*
X17907000Y-105422691D01*
X17950000Y-105422691D01*
X17950000Y-106013250D01*
X18108750Y-106172000D01*
X19758000Y-106172000D01*
X19758000Y-105072750D01*
X20012000Y-105072750D01*
X20012000Y-106172000D01*
X21661250Y-106172000D01*
X21820000Y-106013250D01*
X21820000Y-105422691D01*
X21723327Y-105189302D01*
X21544699Y-105010673D01*
X21311310Y-104914000D01*
X20170750Y-104914000D01*
X20012000Y-105072750D01*
X19758000Y-105072750D01*
X19599250Y-104914000D01*
X18458690Y-104914000D01*
X18225301Y-105010673D01*
X18046673Y-105189302D01*
X17950000Y-105422691D01*
X17907000Y-105422691D01*
X17907000Y-104902000D01*
X27813000Y-104902000D01*
X27813000Y-107823000D01*
D26*
X53340000Y-105537000D02*
X46482000Y-105537000D01*
X46667675Y-105778300D02*
X46482000Y-105778300D01*
X48587000Y-105778300D02*
X48333000Y-105778300D01*
X53340000Y-105778300D02*
X50252326Y-105778300D01*
X46540778Y-106019600D02*
X46482000Y-106019600D01*
X48587000Y-106019600D02*
X48333000Y-106019600D01*
X53340000Y-106019600D02*
X50379223Y-106019600D01*
X46525000Y-106260900D02*
X46482000Y-106260900D01*
X48587000Y-106260900D02*
X48333000Y-106260900D01*
X53340000Y-106260900D02*
X50395000Y-106260900D01*
X46525000Y-106502200D02*
X46482000Y-106502200D01*
X48587000Y-106502200D02*
X48333000Y-106502200D01*
X53340000Y-106502200D02*
X50395000Y-106502200D01*
X46620250Y-106743500D02*
X46482000Y-106743500D01*
X48587000Y-106743500D02*
X48333000Y-106743500D01*
X53340000Y-106743500D02*
X50299750Y-106743500D01*
X53340000Y-106984800D02*
X46482000Y-106984800D01*
X46525000Y-107226100D02*
X46482000Y-107226100D01*
X48587000Y-107226100D02*
X48333000Y-107226100D01*
X53340000Y-107226100D02*
X50395000Y-107226100D01*
X46525000Y-107467400D02*
X46482000Y-107467400D01*
X48587000Y-107467400D02*
X48333000Y-107467400D01*
X53340000Y-107467400D02*
X50395000Y-107467400D01*
X46525000Y-107708700D02*
X46482000Y-107708700D01*
X48587000Y-107708700D02*
X48333000Y-107708700D01*
X53340000Y-107708700D02*
X50395000Y-107708700D01*
X46582861Y-107950000D02*
X46482000Y-107950000D01*
X48587000Y-107950000D02*
X48333000Y-107950000D01*
X53340000Y-107950000D02*
X50337138Y-107950000D01*
X46769274Y-108191300D02*
X46482000Y-108191300D01*
X48618050Y-108191300D02*
X48301950Y-108191300D01*
X53340000Y-108191300D02*
X50150725Y-108191300D01*
X53340000Y-108432600D02*
X46482000Y-108432600D01*
X53340000Y-108458000D02*
X53340000Y-105537000D01*
X53098700Y-108458000D02*
X53098700Y-105537000D01*
X52857400Y-108458000D02*
X52857400Y-105537000D01*
X52616100Y-108458000D02*
X52616100Y-105537000D01*
X52374800Y-108458000D02*
X52374800Y-105537000D01*
X52133500Y-108458000D02*
X52133500Y-105537000D01*
X51892200Y-108458000D02*
X51892200Y-105537000D01*
X51650900Y-108458000D02*
X51650900Y-105537000D01*
X51409600Y-108458000D02*
X51409600Y-105537000D01*
X51168300Y-108458000D02*
X51168300Y-105537000D01*
X50927000Y-108458000D02*
X50927000Y-105537000D01*
X50685700Y-108458000D02*
X50685700Y-105537000D01*
X50444400Y-108458000D02*
X50444400Y-105537000D01*
X50203100Y-105729075D02*
X50203100Y-105537000D01*
X50203100Y-107061000D02*
X50203100Y-106807000D01*
X50203100Y-108458000D02*
X50203100Y-108138926D01*
X49961800Y-105580270D02*
X49961800Y-105537000D01*
X49961800Y-107061000D02*
X49961800Y-106807000D01*
X49961800Y-108458000D02*
X49961800Y-108287731D01*
X49720500Y-105549000D02*
X49720500Y-105537000D01*
X49720500Y-107061000D02*
X49720500Y-106807000D01*
X49720500Y-108458000D02*
X49720500Y-108319000D01*
X49479200Y-105549000D02*
X49479200Y-105537000D01*
X49479200Y-107061000D02*
X49479200Y-106807000D01*
X49479200Y-108458000D02*
X49479200Y-108319000D01*
X49237900Y-105549000D02*
X49237900Y-105537000D01*
X49237900Y-107061000D02*
X49237900Y-106807000D01*
X49237900Y-108458000D02*
X49237900Y-108319000D01*
X48996600Y-105549000D02*
X48996600Y-105537000D01*
X48996600Y-107061000D02*
X48996600Y-106807000D01*
X48996600Y-108458000D02*
X48996600Y-108319000D01*
X48755300Y-105549000D02*
X48755300Y-105537000D01*
X48755300Y-107061000D02*
X48755300Y-106807000D01*
X48755300Y-108458000D02*
X48755300Y-108319000D01*
X48514000Y-105707750D02*
X48514000Y-105537000D01*
X48514000Y-107061000D02*
X48514000Y-105707750D01*
X48514000Y-108458000D02*
X48514000Y-107061000D01*
X48272700Y-105647450D02*
X48272700Y-105537000D01*
X48272700Y-107061000D02*
X48272700Y-106807000D01*
X48272700Y-108458000D02*
X48272700Y-108220550D01*
X48031400Y-105549000D02*
X48031400Y-105537000D01*
X48031400Y-107061000D02*
X48031400Y-106807000D01*
X48031400Y-108458000D02*
X48031400Y-108319000D01*
X47790100Y-105549000D02*
X47790100Y-105537000D01*
X47790100Y-107061000D02*
X47790100Y-106807000D01*
X47790100Y-108458000D02*
X47790100Y-108319000D01*
X47548800Y-105549000D02*
X47548800Y-105537000D01*
X47548800Y-107061000D02*
X47548800Y-106807000D01*
X47548800Y-108458000D02*
X47548800Y-108319000D01*
X47307500Y-105549000D02*
X47307500Y-105537000D01*
X47307500Y-107061000D02*
X47307500Y-106807000D01*
X47307500Y-108458000D02*
X47307500Y-108319000D01*
X47066200Y-105549000D02*
X47066200Y-105537000D01*
X47066200Y-107061000D02*
X47066200Y-106807000D01*
X47066200Y-108458000D02*
X47066200Y-108319000D01*
X46824900Y-105635483D02*
X46824900Y-105537000D01*
X46824900Y-107061000D02*
X46824900Y-106807000D01*
X46824900Y-108458000D02*
X46824900Y-108232516D01*
X46583600Y-105916218D02*
X46583600Y-105537000D01*
X46583600Y-107161150D02*
X46583600Y-106706850D01*
X46583600Y-108458000D02*
X46583600Y-107951781D01*
D27*
X53340000Y-108458000D02*
X46482000Y-108458000D01*
X46482000Y-107219750D01*
X46525000Y-107219750D01*
X46525000Y-107810309D01*
X46621673Y-108043698D01*
X46800301Y-108222327D01*
X47033690Y-108319000D01*
X48174250Y-108319000D01*
X48333000Y-108160250D01*
X48333000Y-107061000D01*
X48587000Y-107061000D01*
X48587000Y-108160250D01*
X48745750Y-108319000D01*
X49886310Y-108319000D01*
X50119699Y-108222327D01*
X50298327Y-108043698D01*
X50395000Y-107810309D01*
X50395000Y-107219750D01*
X50236250Y-107061000D01*
X48587000Y-107061000D01*
X48333000Y-107061000D01*
X46683750Y-107061000D01*
X46525000Y-107219750D01*
X46482000Y-107219750D01*
X46482000Y-106057691D01*
X46525000Y-106057691D01*
X46525000Y-106648250D01*
X46683750Y-106807000D01*
X48333000Y-106807000D01*
X48333000Y-105707750D01*
X48587000Y-105707750D01*
X48587000Y-106807000D01*
X50236250Y-106807000D01*
X50395000Y-106648250D01*
X50395000Y-106057691D01*
X50298327Y-105824302D01*
X50119699Y-105645673D01*
X49886310Y-105549000D01*
X48745750Y-105549000D01*
X48587000Y-105707750D01*
X48333000Y-105707750D01*
X48174250Y-105549000D01*
X47033690Y-105549000D01*
X46800301Y-105645673D01*
X46621673Y-105824302D01*
X46525000Y-106057691D01*
X46482000Y-106057691D01*
X46482000Y-105537000D01*
X53340000Y-105537000D01*
X53340000Y-108458000D01*
D26*
G04 #@! TO.N,+12V*
G36*
X60322829Y-13716000D02*
X53721000Y-13716000D01*
X53672399Y-13725667D01*
X53631197Y-13753197D01*
X53603667Y-13794399D01*
X53594000Y-13843000D01*
X53594000Y-23049208D01*
X53581112Y-23114000D01*
X53594000Y-23178792D01*
X53594000Y-24765000D01*
X46482000Y-24765000D01*
X46482000Y-24146766D01*
X47620839Y-24146766D01*
X47720726Y-24414658D01*
X48334074Y-24642851D01*
X48988059Y-24618956D01*
X49481274Y-24414658D01*
X49581161Y-24146766D01*
X48601000Y-23166605D01*
X47620839Y-24146766D01*
X46482000Y-24146766D01*
X46482000Y-22720074D01*
X46945149Y-22720074D01*
X46969044Y-23374059D01*
X47173342Y-23867274D01*
X47441234Y-23967161D01*
X48421395Y-22987000D01*
X48780605Y-22987000D01*
X49760766Y-23967161D01*
X50028658Y-23867274D01*
X50256851Y-23253926D01*
X50232956Y-22599941D01*
X50028658Y-22106726D01*
X49760766Y-22006839D01*
X48780605Y-22987000D01*
X48421395Y-22987000D01*
X47441234Y-22006839D01*
X47173342Y-22106726D01*
X46945149Y-22720074D01*
X46482000Y-22720074D01*
X46482000Y-21827234D01*
X47620839Y-21827234D01*
X48601000Y-22807395D01*
X49581161Y-21827234D01*
X49481274Y-21559342D01*
X48867926Y-21331149D01*
X48213941Y-21355044D01*
X47720726Y-21559342D01*
X47620839Y-21827234D01*
X46482000Y-21827234D01*
X46482000Y-14732000D01*
X49530000Y-14732000D01*
X49578601Y-14722333D01*
X49619803Y-14694803D01*
X49647333Y-14653601D01*
X49657000Y-14605000D01*
X49657000Y-9000750D01*
X52360000Y-9000750D01*
X52360000Y-9841309D01*
X52456673Y-10074698D01*
X52635301Y-10253327D01*
X52868690Y-10350000D01*
X54959250Y-10350000D01*
X55118000Y-10191250D01*
X55118000Y-8842000D01*
X55372000Y-8842000D01*
X55372000Y-10191250D01*
X55530750Y-10350000D01*
X57621310Y-10350000D01*
X57854699Y-10253327D01*
X58033327Y-10074698D01*
X58130000Y-9841309D01*
X58130000Y-9000750D01*
X57971250Y-8842000D01*
X55372000Y-8842000D01*
X55118000Y-8842000D01*
X52518750Y-8842000D01*
X52360000Y-9000750D01*
X49657000Y-9000750D01*
X49657000Y-7588691D01*
X52360000Y-7588691D01*
X52360000Y-8429250D01*
X52518750Y-8588000D01*
X55118000Y-8588000D01*
X55118000Y-7238750D01*
X55372000Y-7238750D01*
X55372000Y-8588000D01*
X57971250Y-8588000D01*
X58130000Y-8429250D01*
X58130000Y-7588691D01*
X58033327Y-7355302D01*
X57854699Y-7176673D01*
X57621310Y-7080000D01*
X55530750Y-7080000D01*
X55372000Y-7238750D01*
X55118000Y-7238750D01*
X54959250Y-7080000D01*
X52868690Y-7080000D01*
X52635301Y-7176673D01*
X52456673Y-7355302D01*
X52360000Y-7588691D01*
X49657000Y-7588691D01*
X49657000Y-6477000D01*
X60200134Y-6477000D01*
X60322829Y-13716000D01*
X60322829Y-13716000D01*
G37*
X60322829Y-13716000D02*
X53721000Y-13716000D01*
X53672399Y-13725667D01*
X53631197Y-13753197D01*
X53603667Y-13794399D01*
X53594000Y-13843000D01*
X53594000Y-23049208D01*
X53581112Y-23114000D01*
X53594000Y-23178792D01*
X53594000Y-24765000D01*
X46482000Y-24765000D01*
X46482000Y-24146766D01*
X47620839Y-24146766D01*
X47720726Y-24414658D01*
X48334074Y-24642851D01*
X48988059Y-24618956D01*
X49481274Y-24414658D01*
X49581161Y-24146766D01*
X48601000Y-23166605D01*
X47620839Y-24146766D01*
X46482000Y-24146766D01*
X46482000Y-22720074D01*
X46945149Y-22720074D01*
X46969044Y-23374059D01*
X47173342Y-23867274D01*
X47441234Y-23967161D01*
X48421395Y-22987000D01*
X48780605Y-22987000D01*
X49760766Y-23967161D01*
X50028658Y-23867274D01*
X50256851Y-23253926D01*
X50232956Y-22599941D01*
X50028658Y-22106726D01*
X49760766Y-22006839D01*
X48780605Y-22987000D01*
X48421395Y-22987000D01*
X47441234Y-22006839D01*
X47173342Y-22106726D01*
X46945149Y-22720074D01*
X46482000Y-22720074D01*
X46482000Y-21827234D01*
X47620839Y-21827234D01*
X48601000Y-22807395D01*
X49581161Y-21827234D01*
X49481274Y-21559342D01*
X48867926Y-21331149D01*
X48213941Y-21355044D01*
X47720726Y-21559342D01*
X47620839Y-21827234D01*
X46482000Y-21827234D01*
X46482000Y-14732000D01*
X49530000Y-14732000D01*
X49578601Y-14722333D01*
X49619803Y-14694803D01*
X49647333Y-14653601D01*
X49657000Y-14605000D01*
X49657000Y-9000750D01*
X52360000Y-9000750D01*
X52360000Y-9841309D01*
X52456673Y-10074698D01*
X52635301Y-10253327D01*
X52868690Y-10350000D01*
X54959250Y-10350000D01*
X55118000Y-10191250D01*
X55118000Y-8842000D01*
X55372000Y-8842000D01*
X55372000Y-10191250D01*
X55530750Y-10350000D01*
X57621310Y-10350000D01*
X57854699Y-10253327D01*
X58033327Y-10074698D01*
X58130000Y-9841309D01*
X58130000Y-9000750D01*
X57971250Y-8842000D01*
X55372000Y-8842000D01*
X55118000Y-8842000D01*
X52518750Y-8842000D01*
X52360000Y-9000750D01*
X49657000Y-9000750D01*
X49657000Y-7588691D01*
X52360000Y-7588691D01*
X52360000Y-8429250D01*
X52518750Y-8588000D01*
X55118000Y-8588000D01*
X55118000Y-7238750D01*
X55372000Y-7238750D01*
X55372000Y-8588000D01*
X57971250Y-8588000D01*
X58130000Y-8429250D01*
X58130000Y-7588691D01*
X58033327Y-7355302D01*
X57854699Y-7176673D01*
X57621310Y-7080000D01*
X55530750Y-7080000D01*
X55372000Y-7238750D01*
X55118000Y-7238750D01*
X54959250Y-7080000D01*
X52868690Y-7080000D01*
X52635301Y-7176673D01*
X52456673Y-7355302D01*
X52360000Y-7588691D01*
X49657000Y-7588691D01*
X49657000Y-6477000D01*
X60200134Y-6477000D01*
X60322829Y-13716000D01*
G04 #@! TO.N,GND*
G36*
X17018000Y-42545000D02*
X13716000Y-42545000D01*
X13716000Y-41052750D01*
X15580000Y-41052750D01*
X15580000Y-41768310D01*
X15676673Y-42001699D01*
X15855302Y-42180327D01*
X16088691Y-42277000D01*
X16641750Y-42277000D01*
X16800500Y-42118250D01*
X16800500Y-40894000D01*
X15738750Y-40894000D01*
X15580000Y-41052750D01*
X13716000Y-41052750D01*
X13716000Y-39765690D01*
X15580000Y-39765690D01*
X15580000Y-40481250D01*
X15738750Y-40640000D01*
X16800500Y-40640000D01*
X16800500Y-39415750D01*
X16641750Y-39257000D01*
X16088691Y-39257000D01*
X15855302Y-39353673D01*
X15676673Y-39532301D01*
X15580000Y-39765690D01*
X13716000Y-39765690D01*
X13716000Y-36607750D01*
X15580000Y-36607750D01*
X15580000Y-37323310D01*
X15676673Y-37556699D01*
X15855302Y-37735327D01*
X16088691Y-37832000D01*
X16641750Y-37832000D01*
X16800500Y-37673250D01*
X16800500Y-36449000D01*
X15738750Y-36449000D01*
X15580000Y-36607750D01*
X13716000Y-36607750D01*
X13716000Y-35320690D01*
X15580000Y-35320690D01*
X15580000Y-36036250D01*
X15738750Y-36195000D01*
X16800500Y-36195000D01*
X16800500Y-34970750D01*
X16641750Y-34812000D01*
X16088691Y-34812000D01*
X15855302Y-34908673D01*
X15676673Y-35087301D01*
X15580000Y-35320690D01*
X13716000Y-35320690D01*
X13716000Y-34544000D01*
X17018000Y-34544000D01*
X17018000Y-42545000D01*
X17018000Y-42545000D01*
G37*
X17018000Y-42545000D02*
X13716000Y-42545000D01*
X13716000Y-41052750D01*
X15580000Y-41052750D01*
X15580000Y-41768310D01*
X15676673Y-42001699D01*
X15855302Y-42180327D01*
X16088691Y-42277000D01*
X16641750Y-42277000D01*
X16800500Y-42118250D01*
X16800500Y-40894000D01*
X15738750Y-40894000D01*
X15580000Y-41052750D01*
X13716000Y-41052750D01*
X13716000Y-39765690D01*
X15580000Y-39765690D01*
X15580000Y-40481250D01*
X15738750Y-40640000D01*
X16800500Y-40640000D01*
X16800500Y-39415750D01*
X16641750Y-39257000D01*
X16088691Y-39257000D01*
X15855302Y-39353673D01*
X15676673Y-39532301D01*
X15580000Y-39765690D01*
X13716000Y-39765690D01*
X13716000Y-36607750D01*
X15580000Y-36607750D01*
X15580000Y-37323310D01*
X15676673Y-37556699D01*
X15855302Y-37735327D01*
X16088691Y-37832000D01*
X16641750Y-37832000D01*
X16800500Y-37673250D01*
X16800500Y-36449000D01*
X15738750Y-36449000D01*
X15580000Y-36607750D01*
X13716000Y-36607750D01*
X13716000Y-35320690D01*
X15580000Y-35320690D01*
X15580000Y-36036250D01*
X15738750Y-36195000D01*
X16800500Y-36195000D01*
X16800500Y-34970750D01*
X16641750Y-34812000D01*
X16088691Y-34812000D01*
X15855302Y-34908673D01*
X15676673Y-35087301D01*
X15580000Y-35320690D01*
X13716000Y-35320690D01*
X13716000Y-34544000D01*
X17018000Y-34544000D01*
X17018000Y-42545000D01*
X29899250Y-34163000D02*
X29591000Y-34163000D01*
X30649906Y-34163000D02*
X30560594Y-34163000D01*
X32003998Y-34163000D02*
X31865250Y-34163000D01*
X32004000Y-34404300D02*
X29591000Y-34404300D01*
X32004000Y-34645600D02*
X29591000Y-34645600D01*
X30799575Y-34886900D02*
X29591000Y-34886900D01*
X32004000Y-34886900D02*
X31766150Y-34886900D01*
X30619430Y-35128200D02*
X29591000Y-35128200D01*
X32004000Y-35128200D02*
X31786500Y-35128200D01*
X30566000Y-35369500D02*
X29591000Y-35369500D01*
X32004000Y-35369500D02*
X31786500Y-35369500D01*
X30566000Y-35610800D02*
X29591000Y-35610800D01*
X32004000Y-35610800D02*
X31786500Y-35610800D01*
X30566000Y-35852100D02*
X29591000Y-35852100D01*
X32004000Y-35852100D02*
X31786500Y-35852100D01*
X30686650Y-36093400D02*
X29591000Y-36093400D01*
X32004000Y-36093400D02*
X31786500Y-36093400D01*
X32004000Y-36334700D02*
X29591000Y-36334700D01*
X30566000Y-36576000D02*
X29591000Y-36576000D01*
X32004000Y-36576000D02*
X31786500Y-36576000D01*
X30566000Y-36817300D02*
X29591000Y-36817300D01*
X32004000Y-36817300D02*
X31786500Y-36817300D01*
X30566000Y-37058600D02*
X29591000Y-37058600D01*
X32004000Y-37058600D02*
X31786500Y-37058600D01*
X30582605Y-37299900D02*
X29591000Y-37299900D01*
X32004000Y-37299900D02*
X31786500Y-37299900D01*
X30710674Y-37541200D02*
X29591000Y-37541200D01*
X32004000Y-37541200D02*
X31786500Y-37541200D01*
X32004000Y-37782500D02*
X29591000Y-37782500D01*
X32004000Y-38023800D02*
X29591000Y-38023800D01*
X32004000Y-38265100D02*
X29591000Y-38265100D01*
X32004000Y-38506400D02*
X29591000Y-38506400D01*
X32004000Y-38747700D02*
X29591000Y-38747700D01*
X32004000Y-38989000D02*
X29591000Y-38989000D01*
X30985849Y-39230300D02*
X29591000Y-39230300D01*
X32004000Y-39230300D02*
X31664550Y-39230300D01*
X30661514Y-39471600D02*
X29591000Y-39471600D01*
X32004000Y-39471600D02*
X31786500Y-39471600D01*
X30566000Y-39712900D02*
X29591000Y-39712900D01*
X32004000Y-39712900D02*
X31786500Y-39712900D01*
X30566000Y-39954200D02*
X29591000Y-39954200D01*
X32004000Y-39954200D02*
X31786500Y-39954200D01*
X30566000Y-40195500D02*
X29591000Y-40195500D01*
X32004000Y-40195500D02*
X31786500Y-40195500D01*
X30585050Y-40436800D02*
X29591000Y-40436800D01*
X32004000Y-40436800D02*
X31786500Y-40436800D01*
X32004000Y-40678100D02*
X29591000Y-40678100D01*
X30635850Y-40919400D02*
X29591000Y-40919400D01*
X32004000Y-40919400D02*
X31786500Y-40919400D01*
X30566000Y-41160700D02*
X29591000Y-41160700D01*
X32004000Y-41160700D02*
X31786500Y-41160700D01*
X30566000Y-41402000D02*
X29591000Y-41402000D01*
X32004000Y-41402000D02*
X31786500Y-41402000D01*
X30566000Y-41643300D02*
X29591000Y-41643300D01*
X32004000Y-41643300D02*
X31786500Y-41643300D01*
X30640471Y-41884600D02*
X29591000Y-41884600D01*
X32004000Y-41884600D02*
X31786500Y-41884600D01*
X30863206Y-42125900D02*
X29591000Y-42125900D01*
X32004000Y-42125900D02*
X31715350Y-42125900D01*
X32004000Y-42367200D02*
X29591000Y-42367200D01*
X32004000Y-42418000D02*
X32004000Y-34183000D01*
X31762700Y-34883450D02*
X31762700Y-34183000D01*
X31762700Y-36385500D02*
X31762700Y-36131500D01*
X31762700Y-39328450D02*
X31762700Y-37633550D01*
X31762700Y-40830500D02*
X31762700Y-40576500D01*
X31762700Y-42418000D02*
X31762700Y-42078550D01*
X31521400Y-34748500D02*
X31521400Y-34183000D01*
X31521400Y-36385500D02*
X31521400Y-36131500D01*
X31521400Y-39193500D02*
X31521400Y-37768500D01*
X31521400Y-40830500D02*
X31521400Y-40576500D01*
X31521400Y-42418000D02*
X31521400Y-42213500D01*
X31280100Y-34748500D02*
X31280100Y-34183000D01*
X31280100Y-36385500D02*
X31280100Y-36131500D01*
X31280100Y-39193500D02*
X31280100Y-37768500D01*
X31280100Y-40830500D02*
X31280100Y-40576500D01*
X31280100Y-42418000D02*
X31280100Y-42213500D01*
X31038800Y-34763366D02*
X31038800Y-34183000D01*
X31038800Y-36385500D02*
X31038800Y-36131500D01*
X31038800Y-39208366D02*
X31038800Y-37753633D01*
X31038800Y-40830500D02*
X31038800Y-40576500D01*
X31038800Y-42418000D02*
X31038800Y-42198633D01*
X30797500Y-34888974D02*
X30797500Y-34183000D01*
X30797500Y-36385500D02*
X30797500Y-36131500D01*
X30797500Y-39333974D02*
X30797500Y-37628025D01*
X30797500Y-40830500D02*
X30797500Y-40576500D01*
X30797500Y-42418000D02*
X30797500Y-42073025D01*
X30556200Y-35257190D02*
X30556200Y-34164821D01*
X30556200Y-36544250D02*
X30556200Y-35257190D01*
X30556200Y-39702190D02*
X30556200Y-36544250D01*
X30556200Y-40989250D02*
X30556200Y-39702190D01*
X30556200Y-42418000D02*
X30556200Y-40989250D01*
X30314900Y-35257190D02*
X30314900Y-34183000D01*
X30314900Y-36544250D02*
X30314900Y-35257190D01*
X30314900Y-39702190D02*
X30314900Y-36544250D01*
X30314900Y-40989250D02*
X30314900Y-39702190D01*
X30314900Y-42418000D02*
X30314900Y-40989250D01*
X30073600Y-35257190D02*
X30073600Y-34183000D01*
X30073600Y-36544250D02*
X30073600Y-35257190D01*
X30073600Y-39702190D02*
X30073600Y-36544250D01*
X30073600Y-40989250D02*
X30073600Y-39702190D01*
X30073600Y-42418000D02*
X30073600Y-40989250D01*
X29832300Y-35257190D02*
X29832300Y-34163000D01*
X29832300Y-36544250D02*
X29832300Y-35257190D01*
X29832300Y-39702190D02*
X29832300Y-36544250D01*
X29832300Y-40989250D02*
X29832300Y-39702190D01*
X29832300Y-42418000D02*
X29832300Y-40989250D01*
D27*
X29919250Y-34183000D02*
X30512310Y-34183000D01*
X30560594Y-34163000D01*
X30649906Y-34163000D01*
X30698190Y-34183000D01*
X31845250Y-34183000D01*
X31865250Y-34163000D01*
X32003998Y-34163000D01*
X32003998Y-34183000D01*
X32004000Y-34183000D01*
X32004000Y-42418000D01*
X29591000Y-42418000D01*
X29591000Y-40989250D01*
X30566000Y-40989250D01*
X30566000Y-41704810D01*
X30662673Y-41938199D01*
X30841302Y-42116827D01*
X31074691Y-42213500D01*
X31627750Y-42213500D01*
X31786500Y-42054750D01*
X31786500Y-40830500D01*
X30724750Y-40830500D01*
X30566000Y-40989250D01*
X29591000Y-40989250D01*
X29591000Y-39702190D01*
X30566000Y-39702190D01*
X30566000Y-40417750D01*
X30724750Y-40576500D01*
X31786500Y-40576500D01*
X31786500Y-39352250D01*
X31627750Y-39193500D01*
X31074691Y-39193500D01*
X30841302Y-39290173D01*
X30662673Y-39468801D01*
X30566000Y-39702190D01*
X29591000Y-39702190D01*
X29591000Y-36544250D01*
X30566000Y-36544250D01*
X30566000Y-37259810D01*
X30662673Y-37493199D01*
X30841302Y-37671827D01*
X31074691Y-37768500D01*
X31627750Y-37768500D01*
X31786500Y-37609750D01*
X31786500Y-36385500D01*
X30724750Y-36385500D01*
X30566000Y-36544250D01*
X29591000Y-36544250D01*
X29591000Y-35257190D01*
X30566000Y-35257190D01*
X30566000Y-35972750D01*
X30724750Y-36131500D01*
X31786500Y-36131500D01*
X31786500Y-34907250D01*
X31627750Y-34748500D01*
X31074691Y-34748500D01*
X30841302Y-34845173D01*
X30662673Y-35023801D01*
X30566000Y-35257190D01*
X29591000Y-35257190D01*
X29591000Y-34163000D01*
X29899250Y-34163000D01*
X29919250Y-34183000D01*
D26*
X45339000Y-34544000D02*
X43307000Y-34544000D01*
X45339000Y-34785300D02*
X43307000Y-34785300D01*
X44312375Y-35026600D02*
X43307000Y-35026600D01*
X44176867Y-35267900D02*
X43307000Y-35267900D01*
X44155000Y-35509200D02*
X43307000Y-35509200D01*
X44155000Y-35750500D02*
X43307000Y-35750500D01*
X44155000Y-35991800D02*
X43307000Y-35991800D01*
X45339000Y-36233100D02*
X43307000Y-36233100D01*
X44288350Y-36474400D02*
X43307000Y-36474400D01*
X44155000Y-36715700D02*
X43307000Y-36715700D01*
X44155000Y-36957000D02*
X43307000Y-36957000D01*
X44155000Y-37198300D02*
X43307000Y-37198300D01*
X44203168Y-37439600D02*
X43307000Y-37439600D01*
X44375874Y-37680900D02*
X43307000Y-37680900D01*
X45339000Y-37922200D02*
X43307000Y-37922200D01*
X45339000Y-38163500D02*
X43307000Y-38163500D01*
X45339000Y-38404800D02*
X43307000Y-38404800D01*
X45339000Y-38646100D02*
X43307000Y-38646100D01*
X45339000Y-38887400D02*
X43307000Y-38887400D01*
X45339000Y-39128700D02*
X43307000Y-39128700D01*
X44413975Y-39370000D02*
X43307000Y-39370000D01*
X45339000Y-39370000D02*
X45329750Y-39370000D01*
X44218951Y-39611300D02*
X43307000Y-39611300D01*
X44155000Y-39852600D02*
X43307000Y-39852600D01*
X44155000Y-40093900D02*
X43307000Y-40093900D01*
X44155000Y-40335200D02*
X43307000Y-40335200D01*
X44250250Y-40576500D02*
X43307000Y-40576500D01*
X45339000Y-40817800D02*
X43307000Y-40817800D01*
X44155000Y-41059100D02*
X43307000Y-41059100D01*
X44155000Y-41300400D02*
X43307000Y-41300400D01*
X44155000Y-41541700D02*
X43307000Y-41541700D01*
X44161084Y-41783000D02*
X43307000Y-41783000D01*
X44274274Y-42024300D02*
X43307000Y-42024300D01*
X44636168Y-42265600D02*
X43307000Y-42265600D01*
X45339000Y-42265600D02*
X45228150Y-42265600D01*
X45339000Y-42506900D02*
X43307000Y-42506900D01*
X45339000Y-34934250D02*
X45339000Y-34544000D01*
X45339000Y-36449000D02*
X45339000Y-36195000D01*
X45339000Y-39379250D02*
X45339000Y-37709750D01*
X45339000Y-40894000D02*
X45339000Y-40640000D01*
X45339000Y-42545000D02*
X45339000Y-42154750D01*
X45097700Y-34812000D02*
X45097700Y-34544000D01*
X45097700Y-36449000D02*
X45097700Y-36195000D01*
X45097700Y-39257000D02*
X45097700Y-37832000D01*
X45097700Y-40894000D02*
X45097700Y-40640000D01*
X45097700Y-42545000D02*
X45097700Y-42277000D01*
X44856400Y-34812000D02*
X44856400Y-34544000D01*
X44856400Y-36449000D02*
X44856400Y-36195000D01*
X44856400Y-39257000D02*
X44856400Y-37832000D01*
X44856400Y-40894000D02*
X44856400Y-40640000D01*
X44856400Y-42545000D02*
X44856400Y-42277000D01*
X44615100Y-34832127D02*
X44615100Y-34544000D01*
X44615100Y-36449000D02*
X44615100Y-36195000D01*
X44615100Y-39277127D02*
X44615100Y-37811872D01*
X44615100Y-40894000D02*
X44615100Y-40640000D01*
X44615100Y-42545000D02*
X44615100Y-42256872D01*
X44373800Y-34965174D02*
X44373800Y-34544000D01*
X44373800Y-36449000D02*
X44373800Y-36195000D01*
X44373800Y-39410174D02*
X44373800Y-37678825D01*
X44373800Y-40894000D02*
X44373800Y-40640000D01*
X44373800Y-42545000D02*
X44373800Y-42123825D01*
X44132500Y-42545000D02*
X44132500Y-34544000D01*
X43891200Y-42545000D02*
X43891200Y-34544000D01*
X43649900Y-42545000D02*
X43649900Y-34544000D01*
X43408600Y-42545000D02*
X43408600Y-34544000D01*
D27*
X45339000Y-34934250D02*
X45216750Y-34812000D01*
X44663691Y-34812000D01*
X44430302Y-34908673D01*
X44251673Y-35087301D01*
X44155000Y-35320690D01*
X44155000Y-36036250D01*
X44313750Y-36195000D01*
X45339000Y-36195000D01*
X45339000Y-36449000D01*
X44313750Y-36449000D01*
X44155000Y-36607750D01*
X44155000Y-37323310D01*
X44251673Y-37556699D01*
X44430302Y-37735327D01*
X44663691Y-37832000D01*
X45216750Y-37832000D01*
X45339000Y-37709750D01*
X45339000Y-39379250D01*
X45216750Y-39257000D01*
X44663691Y-39257000D01*
X44430302Y-39353673D01*
X44251673Y-39532301D01*
X44155000Y-39765690D01*
X44155000Y-40481250D01*
X44313750Y-40640000D01*
X45339000Y-40640000D01*
X45339000Y-40894000D01*
X44313750Y-40894000D01*
X44155000Y-41052750D01*
X44155000Y-41768310D01*
X44251673Y-42001699D01*
X44430302Y-42180327D01*
X44663691Y-42277000D01*
X45216750Y-42277000D01*
X45339000Y-42154750D01*
X45339000Y-42545000D01*
X43307000Y-42545000D01*
X43307000Y-34544000D01*
X45339000Y-34544000D01*
X45339000Y-34934250D01*
D26*
G04 #@! TO.N,+12V*
G36*
X53594000Y-23049208D02*
X53581112Y-23114000D01*
X53594000Y-23178792D01*
X53594000Y-38354000D01*
X52437000Y-38354000D01*
X52437000Y-38168250D01*
X52278250Y-38009500D01*
X51054000Y-38009500D01*
X51054000Y-38029500D01*
X50800000Y-38029500D01*
X50800000Y-38009500D01*
X50780000Y-38009500D01*
X50780000Y-37755500D01*
X50800000Y-37755500D01*
X50800000Y-37735500D01*
X51054000Y-37735500D01*
X51054000Y-37755500D01*
X52278250Y-37755500D01*
X52437000Y-37596750D01*
X52437000Y-37401500D01*
X52705000Y-37401500D01*
X52753601Y-37391833D01*
X52794803Y-37364303D01*
X52822333Y-37323101D01*
X52832000Y-37274500D01*
X52832000Y-22987000D01*
X53594000Y-22987000D01*
X53594000Y-23049208D01*
X53594000Y-23049208D01*
G37*
X53594000Y-23049208D02*
X53581112Y-23114000D01*
X53594000Y-23178792D01*
X53594000Y-38354000D01*
X52437000Y-38354000D01*
X52437000Y-38168250D01*
X52278250Y-38009500D01*
X51054000Y-38009500D01*
X51054000Y-38029500D01*
X50800000Y-38029500D01*
X50800000Y-38009500D01*
X50780000Y-38009500D01*
X50780000Y-37755500D01*
X50800000Y-37755500D01*
X50800000Y-37735500D01*
X51054000Y-37735500D01*
X51054000Y-37755500D01*
X52278250Y-37755500D01*
X52437000Y-37596750D01*
X52437000Y-37401500D01*
X52705000Y-37401500D01*
X52753601Y-37391833D01*
X52794803Y-37364303D01*
X52822333Y-37323101D01*
X52832000Y-37274500D01*
X52832000Y-22987000D01*
X53594000Y-22987000D01*
X53594000Y-23049208D01*
G04 #@! TO.N,+15V*
G36*
X20660000Y-26955750D02*
X20818750Y-27114500D01*
X21844000Y-27114500D01*
X21844000Y-27368500D01*
X20818750Y-27368500D01*
X20660000Y-27527250D01*
X20660000Y-27686000D01*
X13208000Y-27686000D01*
X13159399Y-27695667D01*
X13118197Y-27723197D01*
X13090667Y-27764399D01*
X13081000Y-27813000D01*
X13081000Y-30861000D01*
X11811000Y-30861000D01*
X11811000Y-26670000D01*
X20660000Y-26670000D01*
X20660000Y-26955750D01*
X20660000Y-26955750D01*
G37*
X20660000Y-26955750D02*
X20818750Y-27114500D01*
X21844000Y-27114500D01*
X21844000Y-27368500D01*
X20818750Y-27368500D01*
X20660000Y-27527250D01*
X20660000Y-27686000D01*
X13208000Y-27686000D01*
X13159399Y-27695667D01*
X13118197Y-27723197D01*
X13090667Y-27764399D01*
X13081000Y-27813000D01*
X13081000Y-30861000D01*
X11811000Y-30861000D01*
X11811000Y-26670000D01*
X20660000Y-26670000D01*
X20660000Y-26955750D01*
G36*
X13418750Y-30480000D02*
X14520500Y-30480000D01*
X14520500Y-30460000D01*
X14774500Y-30460000D01*
X14774500Y-30480000D01*
X14794500Y-30480000D01*
X14794500Y-30734000D01*
X14774500Y-30734000D01*
X14774500Y-30754000D01*
X14520500Y-30754000D01*
X14520500Y-30734000D01*
X13418750Y-30734000D01*
X13291750Y-30861000D01*
X13208000Y-30861000D01*
X13208000Y-30353000D01*
X13291750Y-30353000D01*
X13418750Y-30480000D01*
X13418750Y-30480000D01*
G37*
X13418750Y-30480000D02*
X14520500Y-30480000D01*
X14520500Y-30460000D01*
X14774500Y-30460000D01*
X14774500Y-30480000D01*
X14794500Y-30480000D01*
X14794500Y-30734000D01*
X14774500Y-30734000D01*
X14774500Y-30754000D01*
X14520500Y-30754000D01*
X14520500Y-30734000D01*
X13418750Y-30734000D01*
X13291750Y-30861000D01*
X13208000Y-30861000D01*
X13208000Y-30353000D01*
X13291750Y-30353000D01*
X13418750Y-30480000D01*
G36*
X28194000Y-30226000D02*
X28203667Y-30274601D01*
X28231197Y-30315803D01*
X28259392Y-30334642D01*
X28404750Y-30480000D01*
X29506500Y-30480000D01*
X29506500Y-30460000D01*
X29760500Y-30460000D01*
X29760500Y-30480000D01*
X29780500Y-30480000D01*
X29780500Y-30734000D01*
X26543000Y-30734000D01*
X26543000Y-26670000D01*
X28194000Y-26670000D01*
X28194000Y-30226000D01*
X28194000Y-30226000D01*
G37*
X28194000Y-30226000D02*
X28203667Y-30274601D01*
X28231197Y-30315803D01*
X28259392Y-30334642D01*
X28404750Y-30480000D01*
X29506500Y-30480000D01*
X29506500Y-30460000D01*
X29760500Y-30460000D01*
X29760500Y-30480000D01*
X29780500Y-30480000D01*
X29780500Y-30734000D01*
X26543000Y-30734000D01*
X26543000Y-26670000D01*
X28194000Y-26670000D01*
X28194000Y-30226000D01*
G36*
X41783000Y-30353000D02*
X41792667Y-30401601D01*
X41820197Y-30442803D01*
X41861399Y-30470333D01*
X41910000Y-30480000D01*
X43369500Y-30480000D01*
X43369500Y-30734000D01*
X40640000Y-30734000D01*
X40640000Y-26035000D01*
X41783000Y-26035000D01*
X41783000Y-30353000D01*
X41783000Y-30353000D01*
G37*
X41783000Y-30353000D02*
X41792667Y-30401601D01*
X41820197Y-30442803D01*
X41861399Y-30470333D01*
X41910000Y-30480000D01*
X43369500Y-30480000D01*
X43369500Y-30734000D01*
X40640000Y-30734000D01*
X40640000Y-26035000D01*
X41783000Y-26035000D01*
X41783000Y-30353000D01*
G04 #@! TO.N,GND*
X29972000Y-37592000D02*
X26416000Y-37592000D01*
X29972000Y-37833300D02*
X26416000Y-37833300D01*
X29972000Y-38074600D02*
X26416000Y-38074600D01*
X29972000Y-38315900D02*
X26416000Y-38315900D01*
X29972000Y-38557200D02*
X26416000Y-38557200D01*
X29972000Y-38798500D02*
X26416000Y-38798500D01*
X29972000Y-39039800D02*
X26416000Y-39039800D01*
X29972000Y-39281100D02*
X26416000Y-39281100D01*
X29972000Y-39522400D02*
X26416000Y-39522400D01*
X29972000Y-39763700D02*
X26416000Y-39763700D01*
X29972000Y-40005000D02*
X26416000Y-40005000D01*
X29972000Y-40246300D02*
X26416000Y-40246300D01*
X29972000Y-40487600D02*
X26416000Y-40487600D01*
X29972000Y-40728900D02*
X26416000Y-40728900D01*
X29972000Y-40970200D02*
X26416000Y-40970200D01*
X29972000Y-41211500D02*
X26416000Y-41211500D01*
X29972000Y-41452800D02*
X26416000Y-41452800D01*
X29972000Y-41694100D02*
X26416000Y-41694100D01*
X29972000Y-41935400D02*
X26416000Y-41935400D01*
X29972000Y-42176700D02*
X26416000Y-42176700D01*
X29972000Y-42418000D02*
X29972000Y-37592000D01*
X29730700Y-42418000D02*
X29730700Y-37592000D01*
X29489400Y-42418000D02*
X29489400Y-37592000D01*
X29248100Y-42418000D02*
X29248100Y-37592000D01*
X29006800Y-42418000D02*
X29006800Y-37592000D01*
X28765500Y-42418000D02*
X28765500Y-37592000D01*
X28524200Y-42418000D02*
X28524200Y-37592000D01*
X28282900Y-42418000D02*
X28282900Y-37592000D01*
X28041600Y-42418000D02*
X28041600Y-37592000D01*
X27800300Y-42418000D02*
X27800300Y-37592000D01*
X27559000Y-42418000D02*
X27559000Y-37592000D01*
X27317700Y-42418000D02*
X27317700Y-37592000D01*
X27076400Y-42418000D02*
X27076400Y-37592000D01*
X26835100Y-42418000D02*
X26835100Y-37592000D01*
X26593800Y-42418000D02*
X26593800Y-37592000D01*
D27*
X29972000Y-42418000D02*
X26416000Y-42418000D01*
X26416000Y-37592000D01*
X29972000Y-37592000D01*
X29972000Y-42418000D01*
D26*
X43688000Y-37211000D02*
X40640000Y-37211000D01*
X43688000Y-37452300D02*
X40640000Y-37452300D01*
X43688000Y-37693600D02*
X40640000Y-37693600D01*
X43688000Y-37934900D02*
X40640000Y-37934900D01*
X43688000Y-38176200D02*
X40640000Y-38176200D01*
X43688000Y-38417500D02*
X40640000Y-38417500D01*
X43688000Y-38658800D02*
X40640000Y-38658800D01*
X43688000Y-38900100D02*
X40640000Y-38900100D01*
X43688000Y-39141400D02*
X40640000Y-39141400D01*
X43688000Y-39382700D02*
X40640000Y-39382700D01*
X43688000Y-39624000D02*
X40640000Y-39624000D01*
X43688000Y-39865300D02*
X40640000Y-39865300D01*
X43688000Y-40106600D02*
X40640000Y-40106600D01*
X43688000Y-40347900D02*
X40640000Y-40347900D01*
X43688000Y-40589200D02*
X40640000Y-40589200D01*
X43688000Y-40830500D02*
X40640000Y-40830500D01*
X43688000Y-41071800D02*
X40640000Y-41071800D01*
X43688000Y-41313100D02*
X40640000Y-41313100D01*
X43688000Y-41554400D02*
X40640000Y-41554400D01*
X43688000Y-41795700D02*
X40640000Y-41795700D01*
X43688000Y-42037000D02*
X40640000Y-42037000D01*
X43688000Y-42278300D02*
X40640000Y-42278300D01*
X43688000Y-42519600D02*
X40640000Y-42519600D01*
X43688000Y-42545000D02*
X43688000Y-37211000D01*
X43446700Y-42545000D02*
X43446700Y-37211000D01*
X43205400Y-42545000D02*
X43205400Y-37211000D01*
X42964100Y-42545000D02*
X42964100Y-37211000D01*
X42722800Y-42545000D02*
X42722800Y-37211000D01*
X42481500Y-42545000D02*
X42481500Y-37211000D01*
X42240200Y-42545000D02*
X42240200Y-37211000D01*
X41998900Y-42545000D02*
X41998900Y-37211000D01*
X41757600Y-42545000D02*
X41757600Y-37211000D01*
X41516300Y-42545000D02*
X41516300Y-37211000D01*
X41275000Y-42545000D02*
X41275000Y-37211000D01*
X41033700Y-42545000D02*
X41033700Y-37211000D01*
X40792400Y-42545000D02*
X40792400Y-37211000D01*
D27*
X43688000Y-42545000D02*
X40640000Y-42545000D01*
X40640000Y-37211000D01*
X43688000Y-37211000D01*
X43688000Y-42545000D01*
D26*
G36*
X15113000Y-42545000D02*
X11301000Y-42545000D01*
X11301000Y-37719000D01*
X15113000Y-37719000D01*
X15113000Y-42545000D01*
X15113000Y-42545000D01*
G37*
X15113000Y-42545000D02*
X11301000Y-42545000D01*
X11301000Y-37719000D01*
X15113000Y-37719000D01*
X15113000Y-42545000D01*
G04 #@! TD*
M02*
