G04 #@! TF.GenerationSoftware,KiCad,Pcbnew,(5.0.2)-1*
G04 #@! TF.CreationDate,2019-01-20T08:21:42-05:00*
G04 #@! TF.ProjectId,modular_backplane,6d6f6475-6c61-4725-9f62-61636b706c61,rev?*
G04 #@! TF.SameCoordinates,Original*
G04 #@! TF.FileFunction,Legend,Top*
G04 #@! TF.FilePolarity,Positive*
%FSLAX46Y46*%
G04 Gerber Fmt 4.6, Leading zero omitted, Abs format (unit mm)*
G04 Created by KiCad (PCBNEW (5.0.2)-1) date 1/20/2019 8:21:42 AM*
%MOMM*%
%LPD*%
G01*
G04 APERTURE LIST*
%ADD10C,1.000000*%
%ADD11C,0.500000*%
%ADD12C,0.250000*%
%ADD13C,0.150000*%
%ADD14C,0.120000*%
G04 APERTURE END LIST*
D10*
X16478476Y-56548666D02*
X18383238Y-55215333D01*
X16478476Y-54262952D02*
X20478476Y-54262952D01*
X20478476Y-55786761D01*
X20288000Y-56167714D01*
X20097523Y-56358190D01*
X19716571Y-56548666D01*
X19145142Y-56548666D01*
X18764190Y-56358190D01*
X18573714Y-56167714D01*
X18383238Y-55786761D01*
X18383238Y-54262952D01*
X16668952Y-59786761D02*
X16478476Y-59405809D01*
X16478476Y-58643904D01*
X16668952Y-58262952D01*
X17049904Y-58072476D01*
X18573714Y-58072476D01*
X18954666Y-58262952D01*
X19145142Y-58643904D01*
X19145142Y-59405809D01*
X18954666Y-59786761D01*
X18573714Y-59977238D01*
X18192761Y-59977238D01*
X17811809Y-58072476D01*
X16478476Y-63405809D02*
X18573714Y-63405809D01*
X18954666Y-63215333D01*
X19145142Y-62834380D01*
X19145142Y-62072476D01*
X18954666Y-61691523D01*
X16668952Y-63405809D02*
X16478476Y-63024857D01*
X16478476Y-62072476D01*
X16668952Y-61691523D01*
X17049904Y-61501047D01*
X17430857Y-61501047D01*
X17811809Y-61691523D01*
X18002285Y-62072476D01*
X18002285Y-63024857D01*
X18192761Y-63405809D01*
X19145142Y-65310571D02*
X15145142Y-65310571D01*
X18954666Y-65310571D02*
X19145142Y-65691523D01*
X19145142Y-66453428D01*
X18954666Y-66834380D01*
X18764190Y-67024857D01*
X18383238Y-67215333D01*
X17240380Y-67215333D01*
X16859428Y-67024857D01*
X16668952Y-66834380D01*
X16478476Y-66453428D01*
X16478476Y-65691523D01*
X16668952Y-65310571D01*
X16668952Y-70453428D02*
X16478476Y-70072476D01*
X16478476Y-69310571D01*
X16668952Y-68929619D01*
X17049904Y-68739142D01*
X18573714Y-68739142D01*
X18954666Y-68929619D01*
X19145142Y-69310571D01*
X19145142Y-70072476D01*
X18954666Y-70453428D01*
X18573714Y-70643904D01*
X18192761Y-70643904D01*
X17811809Y-68739142D01*
X16478476Y-72358190D02*
X19145142Y-72358190D01*
X18383238Y-72358190D02*
X18764190Y-72548666D01*
X18954666Y-72739142D01*
X19145142Y-73120095D01*
X19145142Y-73501047D01*
X20478476Y-77310571D02*
X20478476Y-79596285D01*
X16478476Y-78453428D02*
X20478476Y-78453428D01*
X16668952Y-82453428D02*
X16478476Y-82072476D01*
X16478476Y-81310571D01*
X16668952Y-80929619D01*
X17049904Y-80739142D01*
X18573714Y-80739142D01*
X18954666Y-80929619D01*
X19145142Y-81310571D01*
X19145142Y-82072476D01*
X18954666Y-82453428D01*
X18573714Y-82643904D01*
X18192761Y-82643904D01*
X17811809Y-80739142D01*
X16668952Y-86072476D02*
X16478476Y-85691523D01*
X16478476Y-84929619D01*
X16668952Y-84548666D01*
X16859428Y-84358190D01*
X17240380Y-84167714D01*
X18383238Y-84167714D01*
X18764190Y-84358190D01*
X18954666Y-84548666D01*
X19145142Y-84929619D01*
X19145142Y-85691523D01*
X18954666Y-86072476D01*
X16478476Y-87786761D02*
X20478476Y-87786761D01*
X16478476Y-89501047D02*
X18573714Y-89501047D01*
X18954666Y-89310571D01*
X19145142Y-88929619D01*
X19145142Y-88358190D01*
X18954666Y-87977238D01*
X18764190Y-87786761D01*
D11*
G04 #@! TO.C,barrelJack1*
X48835000Y-8715000D02*
G75*
G03X48835000Y-8715000I-250000J0D01*
G01*
D12*
X49565000Y4515000D02*
X40565000Y4515000D01*
X49565000Y-9985000D02*
X40565000Y-9985000D01*
X40565000Y-9985000D02*
X40565000Y4515000D01*
X49565000Y-9985000D02*
X49565000Y4515000D01*
D13*
G04 #@! TO.C,rail12v1*
X41970000Y-34048000D02*
X41970000Y-29236000D01*
X49470000Y-34048000D02*
X41970000Y-34048000D01*
X49470000Y-28436000D02*
X49470000Y-34048000D01*
X42770000Y-28436000D02*
X49470000Y-28436000D01*
X41970000Y-29236000D02*
X42770000Y-28436000D01*
D12*
G04 #@! TO.C,L1*
X36385000Y-22987000D02*
G75*
G03X36385000Y-22987000I-4000000J0D01*
G01*
G04 #@! TO.C,L2*
X22542000Y-23241000D02*
G75*
G03X22542000Y-23241000I-4000000J0D01*
G01*
D11*
G04 #@! TO.C,barrelJack2*
X58995000Y-8715000D02*
G75*
G03X58995000Y-8715000I-250000J0D01*
G01*
D12*
X59725000Y4515000D02*
X50725000Y4515000D01*
X59725000Y-9985000D02*
X50725000Y-9985000D01*
X50725000Y-9985000D02*
X50725000Y4515000D01*
X59725000Y-9985000D02*
X59725000Y4515000D01*
D11*
G04 #@! TO.C,barrelJack3*
X38675000Y-8715000D02*
G75*
G03X38675000Y-8715000I-250000J0D01*
G01*
D12*
X39405000Y4515000D02*
X30405000Y4515000D01*
X39405000Y-9985000D02*
X30405000Y-9985000D01*
X30405000Y-9985000D02*
X30405000Y4515000D01*
X39405000Y-9985000D02*
X39405000Y4515000D01*
D14*
G04 #@! TO.C,C5*
X36872500Y-33116436D02*
X36872500Y-34320564D01*
X38692500Y-33116436D02*
X38692500Y-34320564D01*
G04 #@! TO.C,C10*
X21823000Y-33179936D02*
X21823000Y-34384064D01*
X23643000Y-33179936D02*
X23643000Y-34384064D01*
D13*
G04 #@! TO.C,lipoGnd1*
X16105000Y-144305000D02*
X16105000Y-116205000D01*
X30885000Y-144305000D02*
X16105000Y-144305000D01*
X30885000Y-116205000D02*
X30885000Y-144305000D01*
X16105000Y-116205000D02*
X19800000Y-116205000D01*
X30885000Y-116205000D02*
X27190000Y-116205000D01*
G04 #@! TO.C,LipoGnd2*
X48490000Y-144305000D02*
X48490000Y-116205000D01*
X63270000Y-144305000D02*
X48490000Y-144305000D01*
X63270000Y-116205000D02*
X63270000Y-144305000D01*
X48490000Y-116205000D02*
X52185000Y-116205000D01*
X63270000Y-116205000D02*
X59575000Y-116205000D01*
G04 #@! TO.C,lipoIn1*
X230000Y-144305000D02*
X230000Y-116205000D01*
X15010000Y-144305000D02*
X230000Y-144305000D01*
X15010000Y-116205000D02*
X15010000Y-144305000D01*
X230000Y-116205000D02*
X3925000Y-116205000D01*
X15010000Y-116205000D02*
X11315000Y-116205000D01*
G04 #@! TO.C,lipoIn2*
X32615000Y-144305000D02*
X32615000Y-116205000D01*
X47395000Y-144305000D02*
X32615000Y-144305000D01*
X47395000Y-116205000D02*
X47395000Y-144305000D01*
X32615000Y-116205000D02*
X36310000Y-116205000D01*
X47395000Y-116205000D02*
X43700000Y-116205000D01*
D14*
G04 #@! TO.C,R1*
X8287936Y-12340000D02*
X9492064Y-12340000D01*
X8287936Y-10520000D02*
X9492064Y-10520000D01*
G04 #@! TO.C,R2*
X9492064Y-1884000D02*
X8287936Y-1884000D01*
X9492064Y-3704000D02*
X8287936Y-3704000D01*
G04 #@! TO.C,R3*
X8287936Y-8530000D02*
X9492064Y-8530000D01*
X8287936Y-6710000D02*
X9492064Y-6710000D01*
G04 #@! TO.C,R5*
X36872500Y-38704436D02*
X36872500Y-39908564D01*
X38692500Y-38704436D02*
X38692500Y-39908564D01*
G04 #@! TO.C,R6*
X34003064Y-39793500D02*
X32798936Y-39793500D01*
X34003064Y-41613500D02*
X32798936Y-41613500D01*
G04 #@! TO.C,R9*
X34003064Y-35348500D02*
X32798936Y-35348500D01*
X34003064Y-37168500D02*
X32798936Y-37168500D01*
G04 #@! TO.C,R10*
X36872500Y-28036436D02*
X36872500Y-29240564D01*
X38692500Y-28036436D02*
X38692500Y-29240564D01*
G04 #@! TO.C,R11*
X21950000Y-38767936D02*
X21950000Y-39972064D01*
X23770000Y-38767936D02*
X23770000Y-39972064D01*
G04 #@! TO.C,R12*
X19017064Y-39857000D02*
X17812936Y-39857000D01*
X19017064Y-41677000D02*
X17812936Y-41677000D01*
G04 #@! TO.C,R13*
X19017064Y-35412000D02*
X17812936Y-35412000D01*
X19017064Y-37232000D02*
X17812936Y-37232000D01*
G04 #@! TO.C,R14*
X21823000Y-28099936D02*
X21823000Y-29304064D01*
X23643000Y-28099936D02*
X23643000Y-29304064D01*
D13*
G04 #@! TO.C,rail3v1*
X13395000Y-34048000D02*
X13395000Y-29236000D01*
X20895000Y-34048000D02*
X13395000Y-34048000D01*
X20895000Y-28436000D02*
X20895000Y-34048000D01*
X14195000Y-28436000D02*
X20895000Y-28436000D01*
X13395000Y-29236000D02*
X14195000Y-28436000D01*
G04 #@! TO.C,rail5v1*
X28381000Y-34048000D02*
X28381000Y-29236000D01*
X35881000Y-34048000D02*
X28381000Y-34048000D01*
X35881000Y-28436000D02*
X35881000Y-34048000D01*
X29181000Y-28436000D02*
X35881000Y-28436000D01*
X28381000Y-29236000D02*
X29181000Y-28436000D01*
D11*
G04 #@! TO.C,ReversePolarityFet1*
X20895000Y-109345000D02*
G75*
G03X20895000Y-109345000I-250000J0D01*
G01*
D13*
X21585000Y-111935000D02*
X21335000Y-111935000D01*
X21585000Y-105235000D02*
X21335000Y-105235000D01*
X21585000Y-111935000D02*
X21585000Y-105235000D01*
X10085000Y-105235000D02*
X10335000Y-105235000D01*
X10085000Y-111935000D02*
X21335000Y-111935000D01*
X10085000Y-108585000D02*
X10085000Y-111935000D01*
X10085000Y-105235000D02*
X10085000Y-108585000D01*
X10335000Y-105235000D02*
X21335000Y-105235000D01*
D11*
G04 #@! TO.C,ReversePolarityFet2*
X49470000Y-109980000D02*
G75*
G03X49470000Y-109980000I-250000J0D01*
G01*
D13*
X50160000Y-112570000D02*
X49910000Y-112570000D01*
X50160000Y-105870000D02*
X49910000Y-105870000D01*
X50160000Y-112570000D02*
X50160000Y-105870000D01*
X38660000Y-105870000D02*
X38910000Y-105870000D01*
X38660000Y-112570000D02*
X49910000Y-112570000D01*
X38660000Y-109220000D02*
X38660000Y-112570000D01*
X38660000Y-105870000D02*
X38660000Y-109220000D01*
X38910000Y-105870000D02*
X49910000Y-105870000D01*
D11*
G04 #@! TO.C,MonitorFet*
X12010000Y-14695000D02*
G75*
G03X12010000Y-14695000I-250000J0D01*
G01*
X20260000Y-13695000D02*
X20260000Y-695000D01*
X12760000Y-13695000D02*
X20260000Y-13695000D01*
X12760000Y-695000D02*
X12760000Y-13695000D01*
X20260000Y-695000D02*
X12760000Y-695000D01*
D12*
G04 #@! TO.C,I2C*
X5080000Y-10668000D02*
X4445000Y-10033000D01*
X5080000Y-15113000D02*
X5080000Y-10668000D01*
X2540000Y-10033000D02*
X4445000Y-10033000D01*
X2540000Y-15113000D02*
X2540000Y-10033000D01*
X5080000Y-15113000D02*
X2540000Y-15113000D01*
G04 #@! TO.C,Card1*
X7620000Y-16510000D02*
X2540000Y-16510000D01*
X7620000Y-34290000D02*
X7620000Y-16510000D01*
X3175000Y-34290000D02*
X7620000Y-34290000D01*
X2540000Y-33655000D02*
X3175000Y-34290000D01*
X2540000Y-16510000D02*
X2540000Y-33655000D01*
G04 #@! TO.C,Card2*
X7620000Y-41910000D02*
X2540000Y-41910000D01*
X7620000Y-59690000D02*
X7620000Y-41910000D01*
X3175000Y-59690000D02*
X7620000Y-59690000D01*
X2540000Y-59055000D02*
X3175000Y-59690000D01*
X2540000Y-41910000D02*
X2540000Y-59055000D01*
G04 #@! TO.C,Card3*
X7620000Y-67310000D02*
X2540000Y-67310000D01*
X7620000Y-85090000D02*
X7620000Y-67310000D01*
X3175000Y-85090000D02*
X7620000Y-85090000D01*
X2540000Y-84455000D02*
X3175000Y-85090000D01*
X2540000Y-67310000D02*
X2540000Y-84455000D01*
G04 #@! TO.C,Card4*
X7620000Y-92710000D02*
X2540000Y-92710000D01*
X7620000Y-110490000D02*
X7620000Y-92710000D01*
X3175000Y-110490000D02*
X7620000Y-110490000D01*
X2540000Y-109855000D02*
X3175000Y-110490000D01*
X2540000Y-92710000D02*
X2540000Y-109855000D01*
G04 #@! TO.C,Card8*
X55880000Y-34290000D02*
X60960000Y-34290000D01*
X55880000Y-16510000D02*
X55880000Y-34290000D01*
X60325000Y-16510000D02*
X55880000Y-16510000D01*
X60960000Y-17145000D02*
X60325000Y-16510000D01*
X60960000Y-34290000D02*
X60960000Y-17145000D01*
G04 #@! TO.C,Card7*
X55880000Y-59690000D02*
X60960000Y-59690000D01*
X55880000Y-41910000D02*
X55880000Y-59690000D01*
X60325000Y-41910000D02*
X55880000Y-41910000D01*
X60960000Y-42545000D02*
X60325000Y-41910000D01*
X60960000Y-59690000D02*
X60960000Y-42545000D01*
G04 #@! TO.C,Card6*
X55880000Y-85090000D02*
X60960000Y-85090000D01*
X55880000Y-67310000D02*
X55880000Y-85090000D01*
X60325000Y-67310000D02*
X55880000Y-67310000D01*
X60960000Y-67945000D02*
X60325000Y-67310000D01*
X60960000Y-85090000D02*
X60960000Y-67945000D01*
G04 #@! TO.C,Card5*
X55880000Y-110490000D02*
X60960000Y-110490000D01*
X55880000Y-92710000D02*
X55880000Y-110490000D01*
X60325000Y-92710000D02*
X55880000Y-92710000D01*
X60960000Y-93345000D02*
X60325000Y-92710000D01*
X60960000Y-110490000D02*
X60960000Y-93345000D01*
D14*
G04 #@! TO.C,C15*
X50398000Y-32544936D02*
X50398000Y-33749064D01*
X52218000Y-32544936D02*
X52218000Y-33749064D01*
G04 #@! TO.C,R17*
X50017000Y-38767936D02*
X50017000Y-39972064D01*
X51837000Y-38767936D02*
X51837000Y-39972064D01*
G04 #@! TO.C,R18*
X47592064Y-39857000D02*
X46387936Y-39857000D01*
X47592064Y-41677000D02*
X46387936Y-41677000D01*
G04 #@! TO.C,R19*
X47592064Y-35412000D02*
X46387936Y-35412000D01*
X47592064Y-37232000D02*
X46387936Y-37232000D01*
G04 #@! TO.C,R20*
X50398000Y-27464936D02*
X50398000Y-28669064D01*
X52218000Y-27464936D02*
X52218000Y-28669064D01*
D12*
G04 #@! TO.C,L3*
X50101000Y-22987000D02*
G75*
G03X50101000Y-22987000I-4000000J0D01*
G01*
G04 #@! TO.C,CentralHub*
X34290000Y-60960000D02*
X34290000Y-43815000D01*
X29210000Y-43180000D02*
X29210000Y-60960000D01*
X34290000Y-43815000D02*
X33655000Y-43180000D01*
X33655000Y-43180000D02*
X29210000Y-43180000D01*
X29210000Y-61595000D02*
X29210000Y-104140000D01*
X29210000Y-104140000D02*
X34290000Y-104140000D01*
X34290000Y-104140000D02*
X34290000Y-60960000D01*
X29210000Y-60960000D02*
X29210000Y-62230000D01*
G04 #@! TO.C,LipoMonitor*
X5080000Y-8636000D02*
X2540000Y-8636000D01*
X2540000Y-8636000D02*
X2540000Y-3556000D01*
X2540000Y-3556000D02*
X4445000Y-3556000D01*
X5080000Y-8636000D02*
X5080000Y-4191000D01*
X5080000Y-4191000D02*
X4445000Y-3556000D01*
G04 #@! TO.C,barrelJack1*
D13*
X40965952Y-5913380D02*
X40965952Y-4913380D01*
X40965952Y-5294333D02*
X41061190Y-5246714D01*
X41251666Y-5246714D01*
X41346904Y-5294333D01*
X41394523Y-5341952D01*
X41442142Y-5437190D01*
X41442142Y-5722904D01*
X41394523Y-5818142D01*
X41346904Y-5865761D01*
X41251666Y-5913380D01*
X41061190Y-5913380D01*
X40965952Y-5865761D01*
X42299285Y-5913380D02*
X42299285Y-5389571D01*
X42251666Y-5294333D01*
X42156428Y-5246714D01*
X41965952Y-5246714D01*
X41870714Y-5294333D01*
X42299285Y-5865761D02*
X42204047Y-5913380D01*
X41965952Y-5913380D01*
X41870714Y-5865761D01*
X41823095Y-5770523D01*
X41823095Y-5675285D01*
X41870714Y-5580047D01*
X41965952Y-5532428D01*
X42204047Y-5532428D01*
X42299285Y-5484809D01*
X42775476Y-5913380D02*
X42775476Y-5246714D01*
X42775476Y-5437190D02*
X42823095Y-5341952D01*
X42870714Y-5294333D01*
X42965952Y-5246714D01*
X43061190Y-5246714D01*
X43394523Y-5913380D02*
X43394523Y-5246714D01*
X43394523Y-5437190D02*
X43442142Y-5341952D01*
X43489761Y-5294333D01*
X43585000Y-5246714D01*
X43680238Y-5246714D01*
X44394523Y-5865761D02*
X44299285Y-5913380D01*
X44108809Y-5913380D01*
X44013571Y-5865761D01*
X43965952Y-5770523D01*
X43965952Y-5389571D01*
X44013571Y-5294333D01*
X44108809Y-5246714D01*
X44299285Y-5246714D01*
X44394523Y-5294333D01*
X44442142Y-5389571D01*
X44442142Y-5484809D01*
X43965952Y-5580047D01*
X45013571Y-5913380D02*
X44918333Y-5865761D01*
X44870714Y-5770523D01*
X44870714Y-4913380D01*
X45680238Y-4913380D02*
X45680238Y-5627666D01*
X45632619Y-5770523D01*
X45537380Y-5865761D01*
X45394523Y-5913380D01*
X45299285Y-5913380D01*
X46585000Y-5913380D02*
X46585000Y-5389571D01*
X46537380Y-5294333D01*
X46442142Y-5246714D01*
X46251666Y-5246714D01*
X46156428Y-5294333D01*
X46585000Y-5865761D02*
X46489761Y-5913380D01*
X46251666Y-5913380D01*
X46156428Y-5865761D01*
X46108809Y-5770523D01*
X46108809Y-5675285D01*
X46156428Y-5580047D01*
X46251666Y-5532428D01*
X46489761Y-5532428D01*
X46585000Y-5484809D01*
X47489761Y-5865761D02*
X47394523Y-5913380D01*
X47204047Y-5913380D01*
X47108809Y-5865761D01*
X47061190Y-5818142D01*
X47013571Y-5722904D01*
X47013571Y-5437190D01*
X47061190Y-5341952D01*
X47108809Y-5294333D01*
X47204047Y-5246714D01*
X47394523Y-5246714D01*
X47489761Y-5294333D01*
X47918333Y-5913380D02*
X47918333Y-4913380D01*
X48013571Y-5532428D02*
X48299285Y-5913380D01*
X48299285Y-5246714D02*
X47918333Y-5627666D01*
X49251666Y-5913380D02*
X48680238Y-5913380D01*
X48965952Y-5913380D02*
X48965952Y-4913380D01*
X48870714Y-5056238D01*
X48775476Y-5151476D01*
X48680238Y-5199095D01*
G04 #@! TO.C,rail12v1*
X36663666Y-25725380D02*
X36663666Y-25058714D01*
X36663666Y-25249190D02*
X36711285Y-25153952D01*
X36758904Y-25106333D01*
X36854142Y-25058714D01*
X36949380Y-25058714D01*
X37711285Y-25725380D02*
X37711285Y-25201571D01*
X37663666Y-25106333D01*
X37568428Y-25058714D01*
X37377952Y-25058714D01*
X37282714Y-25106333D01*
X37711285Y-25677761D02*
X37616047Y-25725380D01*
X37377952Y-25725380D01*
X37282714Y-25677761D01*
X37235095Y-25582523D01*
X37235095Y-25487285D01*
X37282714Y-25392047D01*
X37377952Y-25344428D01*
X37616047Y-25344428D01*
X37711285Y-25296809D01*
X38187476Y-25725380D02*
X38187476Y-25058714D01*
X38187476Y-24725380D02*
X38139857Y-24773000D01*
X38187476Y-24820619D01*
X38235095Y-24773000D01*
X38187476Y-24725380D01*
X38187476Y-24820619D01*
X38806523Y-25725380D02*
X38711285Y-25677761D01*
X38663666Y-25582523D01*
X38663666Y-24725380D01*
X39711285Y-25725380D02*
X39139857Y-25725380D01*
X39425571Y-25725380D02*
X39425571Y-24725380D01*
X39330333Y-24868238D01*
X39235095Y-24963476D01*
X39139857Y-25011095D01*
X40092238Y-24820619D02*
X40139857Y-24773000D01*
X40235095Y-24725380D01*
X40473190Y-24725380D01*
X40568428Y-24773000D01*
X40616047Y-24820619D01*
X40663666Y-24915857D01*
X40663666Y-25011095D01*
X40616047Y-25153952D01*
X40044619Y-25725380D01*
X40663666Y-25725380D01*
X40997000Y-25058714D02*
X41235095Y-25725380D01*
X41473190Y-25058714D01*
X42377952Y-25725380D02*
X41806523Y-25725380D01*
X42092238Y-25725380D02*
X42092238Y-24725380D01*
X41997000Y-24868238D01*
X41901761Y-24963476D01*
X41806523Y-25011095D01*
G04 #@! TO.C,L1*
X32091333Y-20518380D02*
X31615142Y-20518380D01*
X31615142Y-19518380D01*
X32948476Y-20518380D02*
X32377047Y-20518380D01*
X32662761Y-20518380D02*
X32662761Y-19518380D01*
X32567523Y-19661238D01*
X32472285Y-19756476D01*
X32377047Y-19804095D01*
G04 #@! TO.C,L2*
X18248333Y-20518380D02*
X17772142Y-20518380D01*
X17772142Y-19518380D01*
X18534047Y-19613619D02*
X18581666Y-19566000D01*
X18676904Y-19518380D01*
X18915000Y-19518380D01*
X19010238Y-19566000D01*
X19057857Y-19613619D01*
X19105476Y-19708857D01*
X19105476Y-19804095D01*
X19057857Y-19946952D01*
X18486428Y-20518380D01*
X19105476Y-20518380D01*
G04 #@! TO.C,barrelJack2*
X50998952Y-5786380D02*
X50998952Y-4786380D01*
X50998952Y-5167333D02*
X51094190Y-5119714D01*
X51284666Y-5119714D01*
X51379904Y-5167333D01*
X51427523Y-5214952D01*
X51475142Y-5310190D01*
X51475142Y-5595904D01*
X51427523Y-5691142D01*
X51379904Y-5738761D01*
X51284666Y-5786380D01*
X51094190Y-5786380D01*
X50998952Y-5738761D01*
X52332285Y-5786380D02*
X52332285Y-5262571D01*
X52284666Y-5167333D01*
X52189428Y-5119714D01*
X51998952Y-5119714D01*
X51903714Y-5167333D01*
X52332285Y-5738761D02*
X52237047Y-5786380D01*
X51998952Y-5786380D01*
X51903714Y-5738761D01*
X51856095Y-5643523D01*
X51856095Y-5548285D01*
X51903714Y-5453047D01*
X51998952Y-5405428D01*
X52237047Y-5405428D01*
X52332285Y-5357809D01*
X52808476Y-5786380D02*
X52808476Y-5119714D01*
X52808476Y-5310190D02*
X52856095Y-5214952D01*
X52903714Y-5167333D01*
X52998952Y-5119714D01*
X53094190Y-5119714D01*
X53427523Y-5786380D02*
X53427523Y-5119714D01*
X53427523Y-5310190D02*
X53475142Y-5214952D01*
X53522761Y-5167333D01*
X53618000Y-5119714D01*
X53713238Y-5119714D01*
X54427523Y-5738761D02*
X54332285Y-5786380D01*
X54141809Y-5786380D01*
X54046571Y-5738761D01*
X53998952Y-5643523D01*
X53998952Y-5262571D01*
X54046571Y-5167333D01*
X54141809Y-5119714D01*
X54332285Y-5119714D01*
X54427523Y-5167333D01*
X54475142Y-5262571D01*
X54475142Y-5357809D01*
X53998952Y-5453047D01*
X55046571Y-5786380D02*
X54951333Y-5738761D01*
X54903714Y-5643523D01*
X54903714Y-4786380D01*
X55713238Y-4786380D02*
X55713238Y-5500666D01*
X55665619Y-5643523D01*
X55570380Y-5738761D01*
X55427523Y-5786380D01*
X55332285Y-5786380D01*
X56618000Y-5786380D02*
X56618000Y-5262571D01*
X56570380Y-5167333D01*
X56475142Y-5119714D01*
X56284666Y-5119714D01*
X56189428Y-5167333D01*
X56618000Y-5738761D02*
X56522761Y-5786380D01*
X56284666Y-5786380D01*
X56189428Y-5738761D01*
X56141809Y-5643523D01*
X56141809Y-5548285D01*
X56189428Y-5453047D01*
X56284666Y-5405428D01*
X56522761Y-5405428D01*
X56618000Y-5357809D01*
X57522761Y-5738761D02*
X57427523Y-5786380D01*
X57237047Y-5786380D01*
X57141809Y-5738761D01*
X57094190Y-5691142D01*
X57046571Y-5595904D01*
X57046571Y-5310190D01*
X57094190Y-5214952D01*
X57141809Y-5167333D01*
X57237047Y-5119714D01*
X57427523Y-5119714D01*
X57522761Y-5167333D01*
X57951333Y-5786380D02*
X57951333Y-4786380D01*
X58046571Y-5405428D02*
X58332285Y-5786380D01*
X58332285Y-5119714D02*
X57951333Y-5500666D01*
X58713238Y-4881619D02*
X58760857Y-4834000D01*
X58856095Y-4786380D01*
X59094190Y-4786380D01*
X59189428Y-4834000D01*
X59237047Y-4881619D01*
X59284666Y-4976857D01*
X59284666Y-5072095D01*
X59237047Y-5214952D01*
X58665619Y-5786380D01*
X59284666Y-5786380D01*
G04 #@! TO.C,barrelJack3*
X30805952Y-5913380D02*
X30805952Y-4913380D01*
X30805952Y-5294333D02*
X30901190Y-5246714D01*
X31091666Y-5246714D01*
X31186904Y-5294333D01*
X31234523Y-5341952D01*
X31282142Y-5437190D01*
X31282142Y-5722904D01*
X31234523Y-5818142D01*
X31186904Y-5865761D01*
X31091666Y-5913380D01*
X30901190Y-5913380D01*
X30805952Y-5865761D01*
X32139285Y-5913380D02*
X32139285Y-5389571D01*
X32091666Y-5294333D01*
X31996428Y-5246714D01*
X31805952Y-5246714D01*
X31710714Y-5294333D01*
X32139285Y-5865761D02*
X32044047Y-5913380D01*
X31805952Y-5913380D01*
X31710714Y-5865761D01*
X31663095Y-5770523D01*
X31663095Y-5675285D01*
X31710714Y-5580047D01*
X31805952Y-5532428D01*
X32044047Y-5532428D01*
X32139285Y-5484809D01*
X32615476Y-5913380D02*
X32615476Y-5246714D01*
X32615476Y-5437190D02*
X32663095Y-5341952D01*
X32710714Y-5294333D01*
X32805952Y-5246714D01*
X32901190Y-5246714D01*
X33234523Y-5913380D02*
X33234523Y-5246714D01*
X33234523Y-5437190D02*
X33282142Y-5341952D01*
X33329761Y-5294333D01*
X33425000Y-5246714D01*
X33520238Y-5246714D01*
X34234523Y-5865761D02*
X34139285Y-5913380D01*
X33948809Y-5913380D01*
X33853571Y-5865761D01*
X33805952Y-5770523D01*
X33805952Y-5389571D01*
X33853571Y-5294333D01*
X33948809Y-5246714D01*
X34139285Y-5246714D01*
X34234523Y-5294333D01*
X34282142Y-5389571D01*
X34282142Y-5484809D01*
X33805952Y-5580047D01*
X34853571Y-5913380D02*
X34758333Y-5865761D01*
X34710714Y-5770523D01*
X34710714Y-4913380D01*
X35520238Y-4913380D02*
X35520238Y-5627666D01*
X35472619Y-5770523D01*
X35377380Y-5865761D01*
X35234523Y-5913380D01*
X35139285Y-5913380D01*
X36425000Y-5913380D02*
X36425000Y-5389571D01*
X36377380Y-5294333D01*
X36282142Y-5246714D01*
X36091666Y-5246714D01*
X35996428Y-5294333D01*
X36425000Y-5865761D02*
X36329761Y-5913380D01*
X36091666Y-5913380D01*
X35996428Y-5865761D01*
X35948809Y-5770523D01*
X35948809Y-5675285D01*
X35996428Y-5580047D01*
X36091666Y-5532428D01*
X36329761Y-5532428D01*
X36425000Y-5484809D01*
X37329761Y-5865761D02*
X37234523Y-5913380D01*
X37044047Y-5913380D01*
X36948809Y-5865761D01*
X36901190Y-5818142D01*
X36853571Y-5722904D01*
X36853571Y-5437190D01*
X36901190Y-5341952D01*
X36948809Y-5294333D01*
X37044047Y-5246714D01*
X37234523Y-5246714D01*
X37329761Y-5294333D01*
X37758333Y-5913380D02*
X37758333Y-4913380D01*
X37853571Y-5532428D02*
X38139285Y-5913380D01*
X38139285Y-5246714D02*
X37758333Y-5627666D01*
X38472619Y-4913380D02*
X39091666Y-4913380D01*
X38758333Y-5294333D01*
X38901190Y-5294333D01*
X38996428Y-5341952D01*
X39044047Y-5389571D01*
X39091666Y-5484809D01*
X39091666Y-5722904D01*
X39044047Y-5818142D01*
X38996428Y-5865761D01*
X38901190Y-5913380D01*
X38615476Y-5913380D01*
X38520238Y-5865761D01*
X38472619Y-5818142D01*
G04 #@! TO.C,C5*
X39959642Y-33885166D02*
X40007261Y-33932785D01*
X40054880Y-34075642D01*
X40054880Y-34170880D01*
X40007261Y-34313738D01*
X39912023Y-34408976D01*
X39816785Y-34456595D01*
X39626309Y-34504214D01*
X39483452Y-34504214D01*
X39292976Y-34456595D01*
X39197738Y-34408976D01*
X39102500Y-34313738D01*
X39054880Y-34170880D01*
X39054880Y-34075642D01*
X39102500Y-33932785D01*
X39150119Y-33885166D01*
X39054880Y-32980404D02*
X39054880Y-33456595D01*
X39531071Y-33504214D01*
X39483452Y-33456595D01*
X39435833Y-33361357D01*
X39435833Y-33123261D01*
X39483452Y-33028023D01*
X39531071Y-32980404D01*
X39626309Y-32932785D01*
X39864404Y-32932785D01*
X39959642Y-32980404D01*
X40007261Y-33028023D01*
X40054880Y-33123261D01*
X40054880Y-33361357D01*
X40007261Y-33456595D01*
X39959642Y-33504214D01*
G04 #@! TO.C,C10*
X24910142Y-34424857D02*
X24957761Y-34472476D01*
X25005380Y-34615333D01*
X25005380Y-34710571D01*
X24957761Y-34853428D01*
X24862523Y-34948666D01*
X24767285Y-34996285D01*
X24576809Y-35043904D01*
X24433952Y-35043904D01*
X24243476Y-34996285D01*
X24148238Y-34948666D01*
X24053000Y-34853428D01*
X24005380Y-34710571D01*
X24005380Y-34615333D01*
X24053000Y-34472476D01*
X24100619Y-34424857D01*
X25005380Y-33472476D02*
X25005380Y-34043904D01*
X25005380Y-33758190D02*
X24005380Y-33758190D01*
X24148238Y-33853428D01*
X24243476Y-33948666D01*
X24291095Y-34043904D01*
X24005380Y-32853428D02*
X24005380Y-32758190D01*
X24053000Y-32662952D01*
X24100619Y-32615333D01*
X24195857Y-32567714D01*
X24386333Y-32520095D01*
X24624428Y-32520095D01*
X24814904Y-32567714D01*
X24910142Y-32615333D01*
X24957761Y-32662952D01*
X25005380Y-32758190D01*
X25005380Y-32853428D01*
X24957761Y-32948666D01*
X24910142Y-32996285D01*
X24814904Y-33043904D01*
X24624428Y-33091523D01*
X24386333Y-33091523D01*
X24195857Y-33043904D01*
X24100619Y-32996285D01*
X24053000Y-32948666D01*
X24005380Y-32853428D01*
G04 #@! TO.C,lipoGnd1*
X20590238Y-124277380D02*
X20495000Y-124229761D01*
X20447380Y-124134523D01*
X20447380Y-123277380D01*
X20971190Y-124277380D02*
X20971190Y-123610714D01*
X20971190Y-123277380D02*
X20923571Y-123325000D01*
X20971190Y-123372619D01*
X21018809Y-123325000D01*
X20971190Y-123277380D01*
X20971190Y-123372619D01*
X21447380Y-123610714D02*
X21447380Y-124610714D01*
X21447380Y-123658333D02*
X21542619Y-123610714D01*
X21733095Y-123610714D01*
X21828333Y-123658333D01*
X21875952Y-123705952D01*
X21923571Y-123801190D01*
X21923571Y-124086904D01*
X21875952Y-124182142D01*
X21828333Y-124229761D01*
X21733095Y-124277380D01*
X21542619Y-124277380D01*
X21447380Y-124229761D01*
X22495000Y-124277380D02*
X22399761Y-124229761D01*
X22352142Y-124182142D01*
X22304523Y-124086904D01*
X22304523Y-123801190D01*
X22352142Y-123705952D01*
X22399761Y-123658333D01*
X22495000Y-123610714D01*
X22637857Y-123610714D01*
X22733095Y-123658333D01*
X22780714Y-123705952D01*
X22828333Y-123801190D01*
X22828333Y-124086904D01*
X22780714Y-124182142D01*
X22733095Y-124229761D01*
X22637857Y-124277380D01*
X22495000Y-124277380D01*
X23780714Y-123325000D02*
X23685476Y-123277380D01*
X23542619Y-123277380D01*
X23399761Y-123325000D01*
X23304523Y-123420238D01*
X23256904Y-123515476D01*
X23209285Y-123705952D01*
X23209285Y-123848809D01*
X23256904Y-124039285D01*
X23304523Y-124134523D01*
X23399761Y-124229761D01*
X23542619Y-124277380D01*
X23637857Y-124277380D01*
X23780714Y-124229761D01*
X23828333Y-124182142D01*
X23828333Y-123848809D01*
X23637857Y-123848809D01*
X24256904Y-123610714D02*
X24256904Y-124277380D01*
X24256904Y-123705952D02*
X24304523Y-123658333D01*
X24399761Y-123610714D01*
X24542619Y-123610714D01*
X24637857Y-123658333D01*
X24685476Y-123753571D01*
X24685476Y-124277380D01*
X25590238Y-124277380D02*
X25590238Y-123277380D01*
X25590238Y-124229761D02*
X25495000Y-124277380D01*
X25304523Y-124277380D01*
X25209285Y-124229761D01*
X25161666Y-124182142D01*
X25114047Y-124086904D01*
X25114047Y-123801190D01*
X25161666Y-123705952D01*
X25209285Y-123658333D01*
X25304523Y-123610714D01*
X25495000Y-123610714D01*
X25590238Y-123658333D01*
X26590238Y-124277380D02*
X26018809Y-124277380D01*
X26304523Y-124277380D02*
X26304523Y-123277380D01*
X26209285Y-123420238D01*
X26114047Y-123515476D01*
X26018809Y-123563095D01*
G04 #@! TO.C,LipoGnd2*
X53165714Y-124277380D02*
X52689523Y-124277380D01*
X52689523Y-123277380D01*
X53499047Y-124277380D02*
X53499047Y-123610714D01*
X53499047Y-123277380D02*
X53451428Y-123325000D01*
X53499047Y-123372619D01*
X53546666Y-123325000D01*
X53499047Y-123277380D01*
X53499047Y-123372619D01*
X53975238Y-123610714D02*
X53975238Y-124610714D01*
X53975238Y-123658333D02*
X54070476Y-123610714D01*
X54260952Y-123610714D01*
X54356190Y-123658333D01*
X54403809Y-123705952D01*
X54451428Y-123801190D01*
X54451428Y-124086904D01*
X54403809Y-124182142D01*
X54356190Y-124229761D01*
X54260952Y-124277380D01*
X54070476Y-124277380D01*
X53975238Y-124229761D01*
X55022857Y-124277380D02*
X54927619Y-124229761D01*
X54880000Y-124182142D01*
X54832380Y-124086904D01*
X54832380Y-123801190D01*
X54880000Y-123705952D01*
X54927619Y-123658333D01*
X55022857Y-123610714D01*
X55165714Y-123610714D01*
X55260952Y-123658333D01*
X55308571Y-123705952D01*
X55356190Y-123801190D01*
X55356190Y-124086904D01*
X55308571Y-124182142D01*
X55260952Y-124229761D01*
X55165714Y-124277380D01*
X55022857Y-124277380D01*
X56308571Y-123325000D02*
X56213333Y-123277380D01*
X56070476Y-123277380D01*
X55927619Y-123325000D01*
X55832380Y-123420238D01*
X55784761Y-123515476D01*
X55737142Y-123705952D01*
X55737142Y-123848809D01*
X55784761Y-124039285D01*
X55832380Y-124134523D01*
X55927619Y-124229761D01*
X56070476Y-124277380D01*
X56165714Y-124277380D01*
X56308571Y-124229761D01*
X56356190Y-124182142D01*
X56356190Y-123848809D01*
X56165714Y-123848809D01*
X56784761Y-123610714D02*
X56784761Y-124277380D01*
X56784761Y-123705952D02*
X56832380Y-123658333D01*
X56927619Y-123610714D01*
X57070476Y-123610714D01*
X57165714Y-123658333D01*
X57213333Y-123753571D01*
X57213333Y-124277380D01*
X58118095Y-124277380D02*
X58118095Y-123277380D01*
X58118095Y-124229761D02*
X58022857Y-124277380D01*
X57832380Y-124277380D01*
X57737142Y-124229761D01*
X57689523Y-124182142D01*
X57641904Y-124086904D01*
X57641904Y-123801190D01*
X57689523Y-123705952D01*
X57737142Y-123658333D01*
X57832380Y-123610714D01*
X58022857Y-123610714D01*
X58118095Y-123658333D01*
X58546666Y-123372619D02*
X58594285Y-123325000D01*
X58689523Y-123277380D01*
X58927619Y-123277380D01*
X59022857Y-123325000D01*
X59070476Y-123372619D01*
X59118095Y-123467857D01*
X59118095Y-123563095D01*
X59070476Y-123705952D01*
X58499047Y-124277380D01*
X59118095Y-124277380D01*
G04 #@! TO.C,lipoIn1*
X5429523Y-124277380D02*
X5334285Y-124229761D01*
X5286666Y-124134523D01*
X5286666Y-123277380D01*
X5810476Y-124277380D02*
X5810476Y-123610714D01*
X5810476Y-123277380D02*
X5762857Y-123325000D01*
X5810476Y-123372619D01*
X5858095Y-123325000D01*
X5810476Y-123277380D01*
X5810476Y-123372619D01*
X6286666Y-123610714D02*
X6286666Y-124610714D01*
X6286666Y-123658333D02*
X6381904Y-123610714D01*
X6572380Y-123610714D01*
X6667619Y-123658333D01*
X6715238Y-123705952D01*
X6762857Y-123801190D01*
X6762857Y-124086904D01*
X6715238Y-124182142D01*
X6667619Y-124229761D01*
X6572380Y-124277380D01*
X6381904Y-124277380D01*
X6286666Y-124229761D01*
X7334285Y-124277380D02*
X7239047Y-124229761D01*
X7191428Y-124182142D01*
X7143809Y-124086904D01*
X7143809Y-123801190D01*
X7191428Y-123705952D01*
X7239047Y-123658333D01*
X7334285Y-123610714D01*
X7477142Y-123610714D01*
X7572380Y-123658333D01*
X7620000Y-123705952D01*
X7667619Y-123801190D01*
X7667619Y-124086904D01*
X7620000Y-124182142D01*
X7572380Y-124229761D01*
X7477142Y-124277380D01*
X7334285Y-124277380D01*
X8096190Y-124277380D02*
X8096190Y-123277380D01*
X8572380Y-123610714D02*
X8572380Y-124277380D01*
X8572380Y-123705952D02*
X8620000Y-123658333D01*
X8715238Y-123610714D01*
X8858095Y-123610714D01*
X8953333Y-123658333D01*
X9000952Y-123753571D01*
X9000952Y-124277380D01*
X10000952Y-124277380D02*
X9429523Y-124277380D01*
X9715238Y-124277380D02*
X9715238Y-123277380D01*
X9620000Y-123420238D01*
X9524761Y-123515476D01*
X9429523Y-123563095D01*
G04 #@! TO.C,lipoIn2*
X37814523Y-124277380D02*
X37719285Y-124229761D01*
X37671666Y-124134523D01*
X37671666Y-123277380D01*
X38195476Y-124277380D02*
X38195476Y-123610714D01*
X38195476Y-123277380D02*
X38147857Y-123325000D01*
X38195476Y-123372619D01*
X38243095Y-123325000D01*
X38195476Y-123277380D01*
X38195476Y-123372619D01*
X38671666Y-123610714D02*
X38671666Y-124610714D01*
X38671666Y-123658333D02*
X38766904Y-123610714D01*
X38957380Y-123610714D01*
X39052619Y-123658333D01*
X39100238Y-123705952D01*
X39147857Y-123801190D01*
X39147857Y-124086904D01*
X39100238Y-124182142D01*
X39052619Y-124229761D01*
X38957380Y-124277380D01*
X38766904Y-124277380D01*
X38671666Y-124229761D01*
X39719285Y-124277380D02*
X39624047Y-124229761D01*
X39576428Y-124182142D01*
X39528809Y-124086904D01*
X39528809Y-123801190D01*
X39576428Y-123705952D01*
X39624047Y-123658333D01*
X39719285Y-123610714D01*
X39862142Y-123610714D01*
X39957380Y-123658333D01*
X40005000Y-123705952D01*
X40052619Y-123801190D01*
X40052619Y-124086904D01*
X40005000Y-124182142D01*
X39957380Y-124229761D01*
X39862142Y-124277380D01*
X39719285Y-124277380D01*
X40481190Y-124277380D02*
X40481190Y-123277380D01*
X40957380Y-123610714D02*
X40957380Y-124277380D01*
X40957380Y-123705952D02*
X41005000Y-123658333D01*
X41100238Y-123610714D01*
X41243095Y-123610714D01*
X41338333Y-123658333D01*
X41385952Y-123753571D01*
X41385952Y-124277380D01*
X41814523Y-123372619D02*
X41862142Y-123325000D01*
X41957380Y-123277380D01*
X42195476Y-123277380D01*
X42290714Y-123325000D01*
X42338333Y-123372619D01*
X42385952Y-123467857D01*
X42385952Y-123563095D01*
X42338333Y-123705952D01*
X41766904Y-124277380D01*
X42385952Y-124277380D01*
G04 #@! TO.C,R1*
X8723333Y-10062380D02*
X8390000Y-9586190D01*
X8151904Y-10062380D02*
X8151904Y-9062380D01*
X8532857Y-9062380D01*
X8628095Y-9110000D01*
X8675714Y-9157619D01*
X8723333Y-9252857D01*
X8723333Y-9395714D01*
X8675714Y-9490952D01*
X8628095Y-9538571D01*
X8532857Y-9586190D01*
X8151904Y-9586190D01*
X9675714Y-10062380D02*
X9104285Y-10062380D01*
X9390000Y-10062380D02*
X9390000Y-9062380D01*
X9294761Y-9205238D01*
X9199523Y-9300476D01*
X9104285Y-9348095D01*
G04 #@! TO.C,R2*
X8723333Y-1341380D02*
X8390000Y-865190D01*
X8151904Y-1341380D02*
X8151904Y-341380D01*
X8532857Y-341380D01*
X8628095Y-389000D01*
X8675714Y-436619D01*
X8723333Y-531857D01*
X8723333Y-674714D01*
X8675714Y-769952D01*
X8628095Y-817571D01*
X8532857Y-865190D01*
X8151904Y-865190D01*
X9104285Y-436619D02*
X9151904Y-389000D01*
X9247142Y-341380D01*
X9485238Y-341380D01*
X9580476Y-389000D01*
X9628095Y-436619D01*
X9675714Y-531857D01*
X9675714Y-627095D01*
X9628095Y-769952D01*
X9056666Y-1341380D01*
X9675714Y-1341380D01*
G04 #@! TO.C,R3*
X8723333Y-6252380D02*
X8390000Y-5776190D01*
X8151904Y-6252380D02*
X8151904Y-5252380D01*
X8532857Y-5252380D01*
X8628095Y-5300000D01*
X8675714Y-5347619D01*
X8723333Y-5442857D01*
X8723333Y-5585714D01*
X8675714Y-5680952D01*
X8628095Y-5728571D01*
X8532857Y-5776190D01*
X8151904Y-5776190D01*
X9056666Y-5252380D02*
X9675714Y-5252380D01*
X9342380Y-5633333D01*
X9485238Y-5633333D01*
X9580476Y-5680952D01*
X9628095Y-5728571D01*
X9675714Y-5823809D01*
X9675714Y-6061904D01*
X9628095Y-6157142D01*
X9580476Y-6204761D01*
X9485238Y-6252380D01*
X9199523Y-6252380D01*
X9104285Y-6204761D01*
X9056666Y-6157142D01*
G04 #@! TO.C,R5*
X40054880Y-39473166D02*
X39578690Y-39806500D01*
X40054880Y-40044595D02*
X39054880Y-40044595D01*
X39054880Y-39663642D01*
X39102500Y-39568404D01*
X39150119Y-39520785D01*
X39245357Y-39473166D01*
X39388214Y-39473166D01*
X39483452Y-39520785D01*
X39531071Y-39568404D01*
X39578690Y-39663642D01*
X39578690Y-40044595D01*
X39054880Y-38568404D02*
X39054880Y-39044595D01*
X39531071Y-39092214D01*
X39483452Y-39044595D01*
X39435833Y-38949357D01*
X39435833Y-38711261D01*
X39483452Y-38616023D01*
X39531071Y-38568404D01*
X39626309Y-38520785D01*
X39864404Y-38520785D01*
X39959642Y-38568404D01*
X40007261Y-38616023D01*
X40054880Y-38711261D01*
X40054880Y-38949357D01*
X40007261Y-39044595D01*
X39959642Y-39092214D01*
G04 #@! TO.C,R6*
X33234333Y-42975880D02*
X32901000Y-42499690D01*
X32662904Y-42975880D02*
X32662904Y-41975880D01*
X33043857Y-41975880D01*
X33139095Y-42023500D01*
X33186714Y-42071119D01*
X33234333Y-42166357D01*
X33234333Y-42309214D01*
X33186714Y-42404452D01*
X33139095Y-42452071D01*
X33043857Y-42499690D01*
X32662904Y-42499690D01*
X34091476Y-41975880D02*
X33901000Y-41975880D01*
X33805761Y-42023500D01*
X33758142Y-42071119D01*
X33662904Y-42213976D01*
X33615285Y-42404452D01*
X33615285Y-42785404D01*
X33662904Y-42880642D01*
X33710523Y-42928261D01*
X33805761Y-42975880D01*
X33996238Y-42975880D01*
X34091476Y-42928261D01*
X34139095Y-42880642D01*
X34186714Y-42785404D01*
X34186714Y-42547309D01*
X34139095Y-42452071D01*
X34091476Y-42404452D01*
X33996238Y-42356833D01*
X33805761Y-42356833D01*
X33710523Y-42404452D01*
X33662904Y-42452071D01*
X33615285Y-42547309D01*
G04 #@! TO.C,R9*
X33234333Y-38530880D02*
X32901000Y-38054690D01*
X32662904Y-38530880D02*
X32662904Y-37530880D01*
X33043857Y-37530880D01*
X33139095Y-37578500D01*
X33186714Y-37626119D01*
X33234333Y-37721357D01*
X33234333Y-37864214D01*
X33186714Y-37959452D01*
X33139095Y-38007071D01*
X33043857Y-38054690D01*
X32662904Y-38054690D01*
X33710523Y-38530880D02*
X33901000Y-38530880D01*
X33996238Y-38483261D01*
X34043857Y-38435642D01*
X34139095Y-38292785D01*
X34186714Y-38102309D01*
X34186714Y-37721357D01*
X34139095Y-37626119D01*
X34091476Y-37578500D01*
X33996238Y-37530880D01*
X33805761Y-37530880D01*
X33710523Y-37578500D01*
X33662904Y-37626119D01*
X33615285Y-37721357D01*
X33615285Y-37959452D01*
X33662904Y-38054690D01*
X33710523Y-38102309D01*
X33805761Y-38149928D01*
X33996238Y-38149928D01*
X34091476Y-38102309D01*
X34139095Y-38054690D01*
X34186714Y-37959452D01*
G04 #@! TO.C,R10*
X40054880Y-29281357D02*
X39578690Y-29614690D01*
X40054880Y-29852785D02*
X39054880Y-29852785D01*
X39054880Y-29471833D01*
X39102500Y-29376595D01*
X39150119Y-29328976D01*
X39245357Y-29281357D01*
X39388214Y-29281357D01*
X39483452Y-29328976D01*
X39531071Y-29376595D01*
X39578690Y-29471833D01*
X39578690Y-29852785D01*
X40054880Y-28328976D02*
X40054880Y-28900404D01*
X40054880Y-28614690D02*
X39054880Y-28614690D01*
X39197738Y-28709928D01*
X39292976Y-28805166D01*
X39340595Y-28900404D01*
X39054880Y-27709928D02*
X39054880Y-27614690D01*
X39102500Y-27519452D01*
X39150119Y-27471833D01*
X39245357Y-27424214D01*
X39435833Y-27376595D01*
X39673928Y-27376595D01*
X39864404Y-27424214D01*
X39959642Y-27471833D01*
X40007261Y-27519452D01*
X40054880Y-27614690D01*
X40054880Y-27709928D01*
X40007261Y-27805166D01*
X39959642Y-27852785D01*
X39864404Y-27900404D01*
X39673928Y-27948023D01*
X39435833Y-27948023D01*
X39245357Y-27900404D01*
X39150119Y-27852785D01*
X39102500Y-27805166D01*
X39054880Y-27709928D01*
G04 #@! TO.C,R11*
X25132380Y-40012857D02*
X24656190Y-40346190D01*
X25132380Y-40584285D02*
X24132380Y-40584285D01*
X24132380Y-40203333D01*
X24180000Y-40108095D01*
X24227619Y-40060476D01*
X24322857Y-40012857D01*
X24465714Y-40012857D01*
X24560952Y-40060476D01*
X24608571Y-40108095D01*
X24656190Y-40203333D01*
X24656190Y-40584285D01*
X25132380Y-39060476D02*
X25132380Y-39631904D01*
X25132380Y-39346190D02*
X24132380Y-39346190D01*
X24275238Y-39441428D01*
X24370476Y-39536666D01*
X24418095Y-39631904D01*
X25132380Y-38108095D02*
X25132380Y-38679523D01*
X25132380Y-38393809D02*
X24132380Y-38393809D01*
X24275238Y-38489047D01*
X24370476Y-38584285D01*
X24418095Y-38679523D01*
G04 #@! TO.C,R12*
X17772142Y-43039380D02*
X17438809Y-42563190D01*
X17200714Y-43039380D02*
X17200714Y-42039380D01*
X17581666Y-42039380D01*
X17676904Y-42087000D01*
X17724523Y-42134619D01*
X17772142Y-42229857D01*
X17772142Y-42372714D01*
X17724523Y-42467952D01*
X17676904Y-42515571D01*
X17581666Y-42563190D01*
X17200714Y-42563190D01*
X18724523Y-43039380D02*
X18153095Y-43039380D01*
X18438809Y-43039380D02*
X18438809Y-42039380D01*
X18343571Y-42182238D01*
X18248333Y-42277476D01*
X18153095Y-42325095D01*
X19105476Y-42134619D02*
X19153095Y-42087000D01*
X19248333Y-42039380D01*
X19486428Y-42039380D01*
X19581666Y-42087000D01*
X19629285Y-42134619D01*
X19676904Y-42229857D01*
X19676904Y-42325095D01*
X19629285Y-42467952D01*
X19057857Y-43039380D01*
X19676904Y-43039380D01*
G04 #@! TO.C,R13*
X17772142Y-38594380D02*
X17438809Y-38118190D01*
X17200714Y-38594380D02*
X17200714Y-37594380D01*
X17581666Y-37594380D01*
X17676904Y-37642000D01*
X17724523Y-37689619D01*
X17772142Y-37784857D01*
X17772142Y-37927714D01*
X17724523Y-38022952D01*
X17676904Y-38070571D01*
X17581666Y-38118190D01*
X17200714Y-38118190D01*
X18724523Y-38594380D02*
X18153095Y-38594380D01*
X18438809Y-38594380D02*
X18438809Y-37594380D01*
X18343571Y-37737238D01*
X18248333Y-37832476D01*
X18153095Y-37880095D01*
X19057857Y-37594380D02*
X19676904Y-37594380D01*
X19343571Y-37975333D01*
X19486428Y-37975333D01*
X19581666Y-38022952D01*
X19629285Y-38070571D01*
X19676904Y-38165809D01*
X19676904Y-38403904D01*
X19629285Y-38499142D01*
X19581666Y-38546761D01*
X19486428Y-38594380D01*
X19200714Y-38594380D01*
X19105476Y-38546761D01*
X19057857Y-38499142D01*
G04 #@! TO.C,R14*
X25005380Y-29344857D02*
X24529190Y-29678190D01*
X25005380Y-29916285D02*
X24005380Y-29916285D01*
X24005380Y-29535333D01*
X24053000Y-29440095D01*
X24100619Y-29392476D01*
X24195857Y-29344857D01*
X24338714Y-29344857D01*
X24433952Y-29392476D01*
X24481571Y-29440095D01*
X24529190Y-29535333D01*
X24529190Y-29916285D01*
X25005380Y-28392476D02*
X25005380Y-28963904D01*
X25005380Y-28678190D02*
X24005380Y-28678190D01*
X24148238Y-28773428D01*
X24243476Y-28868666D01*
X24291095Y-28963904D01*
X24338714Y-27535333D02*
X25005380Y-27535333D01*
X23957761Y-27773428D02*
X24672047Y-28011523D01*
X24672047Y-27392476D01*
G04 #@! TO.C,rail3v1*
X9580857Y-26233380D02*
X9580857Y-25566714D01*
X9580857Y-25757190D02*
X9628476Y-25661952D01*
X9676095Y-25614333D01*
X9771333Y-25566714D01*
X9866571Y-25566714D01*
X10628476Y-26233380D02*
X10628476Y-25709571D01*
X10580857Y-25614333D01*
X10485619Y-25566714D01*
X10295142Y-25566714D01*
X10199904Y-25614333D01*
X10628476Y-26185761D02*
X10533238Y-26233380D01*
X10295142Y-26233380D01*
X10199904Y-26185761D01*
X10152285Y-26090523D01*
X10152285Y-25995285D01*
X10199904Y-25900047D01*
X10295142Y-25852428D01*
X10533238Y-25852428D01*
X10628476Y-25804809D01*
X11104666Y-26233380D02*
X11104666Y-25566714D01*
X11104666Y-25233380D02*
X11057047Y-25281000D01*
X11104666Y-25328619D01*
X11152285Y-25281000D01*
X11104666Y-25233380D01*
X11104666Y-25328619D01*
X11723714Y-26233380D02*
X11628476Y-26185761D01*
X11580857Y-26090523D01*
X11580857Y-25233380D01*
X12009428Y-25233380D02*
X12628476Y-25233380D01*
X12295142Y-25614333D01*
X12438000Y-25614333D01*
X12533238Y-25661952D01*
X12580857Y-25709571D01*
X12628476Y-25804809D01*
X12628476Y-26042904D01*
X12580857Y-26138142D01*
X12533238Y-26185761D01*
X12438000Y-26233380D01*
X12152285Y-26233380D01*
X12057047Y-26185761D01*
X12009428Y-26138142D01*
X12961809Y-25566714D02*
X13199904Y-26233380D01*
X13438000Y-25566714D01*
X14342761Y-26233380D02*
X13771333Y-26233380D01*
X14057047Y-26233380D02*
X14057047Y-25233380D01*
X13961809Y-25376238D01*
X13866571Y-25471476D01*
X13771333Y-25519095D01*
G04 #@! TO.C,rail5v1*
X24058857Y-26233380D02*
X24058857Y-25566714D01*
X24058857Y-25757190D02*
X24106476Y-25661952D01*
X24154095Y-25614333D01*
X24249333Y-25566714D01*
X24344571Y-25566714D01*
X25106476Y-26233380D02*
X25106476Y-25709571D01*
X25058857Y-25614333D01*
X24963619Y-25566714D01*
X24773142Y-25566714D01*
X24677904Y-25614333D01*
X25106476Y-26185761D02*
X25011238Y-26233380D01*
X24773142Y-26233380D01*
X24677904Y-26185761D01*
X24630285Y-26090523D01*
X24630285Y-25995285D01*
X24677904Y-25900047D01*
X24773142Y-25852428D01*
X25011238Y-25852428D01*
X25106476Y-25804809D01*
X25582666Y-26233380D02*
X25582666Y-25566714D01*
X25582666Y-25233380D02*
X25535047Y-25281000D01*
X25582666Y-25328619D01*
X25630285Y-25281000D01*
X25582666Y-25233380D01*
X25582666Y-25328619D01*
X26201714Y-26233380D02*
X26106476Y-26185761D01*
X26058857Y-26090523D01*
X26058857Y-25233380D01*
X27058857Y-25233380D02*
X26582666Y-25233380D01*
X26535047Y-25709571D01*
X26582666Y-25661952D01*
X26677904Y-25614333D01*
X26916000Y-25614333D01*
X27011238Y-25661952D01*
X27058857Y-25709571D01*
X27106476Y-25804809D01*
X27106476Y-26042904D01*
X27058857Y-26138142D01*
X27011238Y-26185761D01*
X26916000Y-26233380D01*
X26677904Y-26233380D01*
X26582666Y-26185761D01*
X26535047Y-26138142D01*
X27439809Y-25566714D02*
X27677904Y-26233380D01*
X27916000Y-25566714D01*
X28820761Y-26233380D02*
X28249333Y-26233380D01*
X28535047Y-26233380D02*
X28535047Y-25233380D01*
X28439809Y-25376238D01*
X28344571Y-25471476D01*
X28249333Y-25519095D01*
G04 #@! TO.C,ReversePolarityFet1*
X10065571Y-104465380D02*
X9732238Y-103989190D01*
X9494142Y-104465380D02*
X9494142Y-103465380D01*
X9875095Y-103465380D01*
X9970333Y-103513000D01*
X10017952Y-103560619D01*
X10065571Y-103655857D01*
X10065571Y-103798714D01*
X10017952Y-103893952D01*
X9970333Y-103941571D01*
X9875095Y-103989190D01*
X9494142Y-103989190D01*
X10875095Y-104417761D02*
X10779857Y-104465380D01*
X10589380Y-104465380D01*
X10494142Y-104417761D01*
X10446523Y-104322523D01*
X10446523Y-103941571D01*
X10494142Y-103846333D01*
X10589380Y-103798714D01*
X10779857Y-103798714D01*
X10875095Y-103846333D01*
X10922714Y-103941571D01*
X10922714Y-104036809D01*
X10446523Y-104132047D01*
X11256047Y-103798714D02*
X11494142Y-104465380D01*
X11732238Y-103798714D01*
X12494142Y-104417761D02*
X12398904Y-104465380D01*
X12208428Y-104465380D01*
X12113190Y-104417761D01*
X12065571Y-104322523D01*
X12065571Y-103941571D01*
X12113190Y-103846333D01*
X12208428Y-103798714D01*
X12398904Y-103798714D01*
X12494142Y-103846333D01*
X12541761Y-103941571D01*
X12541761Y-104036809D01*
X12065571Y-104132047D01*
X12970333Y-104465380D02*
X12970333Y-103798714D01*
X12970333Y-103989190D02*
X13017952Y-103893952D01*
X13065571Y-103846333D01*
X13160809Y-103798714D01*
X13256047Y-103798714D01*
X13541761Y-104417761D02*
X13637000Y-104465380D01*
X13827476Y-104465380D01*
X13922714Y-104417761D01*
X13970333Y-104322523D01*
X13970333Y-104274904D01*
X13922714Y-104179666D01*
X13827476Y-104132047D01*
X13684619Y-104132047D01*
X13589380Y-104084428D01*
X13541761Y-103989190D01*
X13541761Y-103941571D01*
X13589380Y-103846333D01*
X13684619Y-103798714D01*
X13827476Y-103798714D01*
X13922714Y-103846333D01*
X14779857Y-104417761D02*
X14684619Y-104465380D01*
X14494142Y-104465380D01*
X14398904Y-104417761D01*
X14351285Y-104322523D01*
X14351285Y-103941571D01*
X14398904Y-103846333D01*
X14494142Y-103798714D01*
X14684619Y-103798714D01*
X14779857Y-103846333D01*
X14827476Y-103941571D01*
X14827476Y-104036809D01*
X14351285Y-104132047D01*
X15256047Y-104465380D02*
X15256047Y-103465380D01*
X15637000Y-103465380D01*
X15732238Y-103513000D01*
X15779857Y-103560619D01*
X15827476Y-103655857D01*
X15827476Y-103798714D01*
X15779857Y-103893952D01*
X15732238Y-103941571D01*
X15637000Y-103989190D01*
X15256047Y-103989190D01*
X16398904Y-104465380D02*
X16303666Y-104417761D01*
X16256047Y-104370142D01*
X16208428Y-104274904D01*
X16208428Y-103989190D01*
X16256047Y-103893952D01*
X16303666Y-103846333D01*
X16398904Y-103798714D01*
X16541761Y-103798714D01*
X16637000Y-103846333D01*
X16684619Y-103893952D01*
X16732238Y-103989190D01*
X16732238Y-104274904D01*
X16684619Y-104370142D01*
X16637000Y-104417761D01*
X16541761Y-104465380D01*
X16398904Y-104465380D01*
X17303666Y-104465380D02*
X17208428Y-104417761D01*
X17160809Y-104322523D01*
X17160809Y-103465380D01*
X18113190Y-104465380D02*
X18113190Y-103941571D01*
X18065571Y-103846333D01*
X17970333Y-103798714D01*
X17779857Y-103798714D01*
X17684619Y-103846333D01*
X18113190Y-104417761D02*
X18017952Y-104465380D01*
X17779857Y-104465380D01*
X17684619Y-104417761D01*
X17637000Y-104322523D01*
X17637000Y-104227285D01*
X17684619Y-104132047D01*
X17779857Y-104084428D01*
X18017952Y-104084428D01*
X18113190Y-104036809D01*
X18589380Y-104465380D02*
X18589380Y-103798714D01*
X18589380Y-103989190D02*
X18637000Y-103893952D01*
X18684619Y-103846333D01*
X18779857Y-103798714D01*
X18875095Y-103798714D01*
X19208428Y-104465380D02*
X19208428Y-103798714D01*
X19208428Y-103465380D02*
X19160809Y-103513000D01*
X19208428Y-103560619D01*
X19256047Y-103513000D01*
X19208428Y-103465380D01*
X19208428Y-103560619D01*
X19541761Y-103798714D02*
X19922714Y-103798714D01*
X19684619Y-103465380D02*
X19684619Y-104322523D01*
X19732238Y-104417761D01*
X19827476Y-104465380D01*
X19922714Y-104465380D01*
X20160809Y-103798714D02*
X20398904Y-104465380D01*
X20637000Y-103798714D02*
X20398904Y-104465380D01*
X20303666Y-104703476D01*
X20256047Y-104751095D01*
X20160809Y-104798714D01*
X21351285Y-103941571D02*
X21017952Y-103941571D01*
X21017952Y-104465380D02*
X21017952Y-103465380D01*
X21494142Y-103465380D01*
X22256047Y-104417761D02*
X22160809Y-104465380D01*
X21970333Y-104465380D01*
X21875095Y-104417761D01*
X21827476Y-104322523D01*
X21827476Y-103941571D01*
X21875095Y-103846333D01*
X21970333Y-103798714D01*
X22160809Y-103798714D01*
X22256047Y-103846333D01*
X22303666Y-103941571D01*
X22303666Y-104036809D01*
X21827476Y-104132047D01*
X22589380Y-103798714D02*
X22970333Y-103798714D01*
X22732238Y-103465380D02*
X22732238Y-104322523D01*
X22779857Y-104417761D01*
X22875095Y-104465380D01*
X22970333Y-104465380D01*
X23827476Y-104465380D02*
X23256047Y-104465380D01*
X23541761Y-104465380D02*
X23541761Y-103465380D01*
X23446523Y-103608238D01*
X23351285Y-103703476D01*
X23256047Y-103751095D01*
G04 #@! TO.C,ReversePolarityFet2*
X37878571Y-104973380D02*
X37545238Y-104497190D01*
X37307142Y-104973380D02*
X37307142Y-103973380D01*
X37688095Y-103973380D01*
X37783333Y-104021000D01*
X37830952Y-104068619D01*
X37878571Y-104163857D01*
X37878571Y-104306714D01*
X37830952Y-104401952D01*
X37783333Y-104449571D01*
X37688095Y-104497190D01*
X37307142Y-104497190D01*
X38688095Y-104925761D02*
X38592857Y-104973380D01*
X38402380Y-104973380D01*
X38307142Y-104925761D01*
X38259523Y-104830523D01*
X38259523Y-104449571D01*
X38307142Y-104354333D01*
X38402380Y-104306714D01*
X38592857Y-104306714D01*
X38688095Y-104354333D01*
X38735714Y-104449571D01*
X38735714Y-104544809D01*
X38259523Y-104640047D01*
X39069047Y-104306714D02*
X39307142Y-104973380D01*
X39545238Y-104306714D01*
X40307142Y-104925761D02*
X40211904Y-104973380D01*
X40021428Y-104973380D01*
X39926190Y-104925761D01*
X39878571Y-104830523D01*
X39878571Y-104449571D01*
X39926190Y-104354333D01*
X40021428Y-104306714D01*
X40211904Y-104306714D01*
X40307142Y-104354333D01*
X40354761Y-104449571D01*
X40354761Y-104544809D01*
X39878571Y-104640047D01*
X40783333Y-104973380D02*
X40783333Y-104306714D01*
X40783333Y-104497190D02*
X40830952Y-104401952D01*
X40878571Y-104354333D01*
X40973809Y-104306714D01*
X41069047Y-104306714D01*
X41354761Y-104925761D02*
X41450000Y-104973380D01*
X41640476Y-104973380D01*
X41735714Y-104925761D01*
X41783333Y-104830523D01*
X41783333Y-104782904D01*
X41735714Y-104687666D01*
X41640476Y-104640047D01*
X41497619Y-104640047D01*
X41402380Y-104592428D01*
X41354761Y-104497190D01*
X41354761Y-104449571D01*
X41402380Y-104354333D01*
X41497619Y-104306714D01*
X41640476Y-104306714D01*
X41735714Y-104354333D01*
X42592857Y-104925761D02*
X42497619Y-104973380D01*
X42307142Y-104973380D01*
X42211904Y-104925761D01*
X42164285Y-104830523D01*
X42164285Y-104449571D01*
X42211904Y-104354333D01*
X42307142Y-104306714D01*
X42497619Y-104306714D01*
X42592857Y-104354333D01*
X42640476Y-104449571D01*
X42640476Y-104544809D01*
X42164285Y-104640047D01*
X43069047Y-104973380D02*
X43069047Y-103973380D01*
X43450000Y-103973380D01*
X43545238Y-104021000D01*
X43592857Y-104068619D01*
X43640476Y-104163857D01*
X43640476Y-104306714D01*
X43592857Y-104401952D01*
X43545238Y-104449571D01*
X43450000Y-104497190D01*
X43069047Y-104497190D01*
X44211904Y-104973380D02*
X44116666Y-104925761D01*
X44069047Y-104878142D01*
X44021428Y-104782904D01*
X44021428Y-104497190D01*
X44069047Y-104401952D01*
X44116666Y-104354333D01*
X44211904Y-104306714D01*
X44354761Y-104306714D01*
X44450000Y-104354333D01*
X44497619Y-104401952D01*
X44545238Y-104497190D01*
X44545238Y-104782904D01*
X44497619Y-104878142D01*
X44450000Y-104925761D01*
X44354761Y-104973380D01*
X44211904Y-104973380D01*
X45116666Y-104973380D02*
X45021428Y-104925761D01*
X44973809Y-104830523D01*
X44973809Y-103973380D01*
X45926190Y-104973380D02*
X45926190Y-104449571D01*
X45878571Y-104354333D01*
X45783333Y-104306714D01*
X45592857Y-104306714D01*
X45497619Y-104354333D01*
X45926190Y-104925761D02*
X45830952Y-104973380D01*
X45592857Y-104973380D01*
X45497619Y-104925761D01*
X45450000Y-104830523D01*
X45450000Y-104735285D01*
X45497619Y-104640047D01*
X45592857Y-104592428D01*
X45830952Y-104592428D01*
X45926190Y-104544809D01*
X46402380Y-104973380D02*
X46402380Y-104306714D01*
X46402380Y-104497190D02*
X46450000Y-104401952D01*
X46497619Y-104354333D01*
X46592857Y-104306714D01*
X46688095Y-104306714D01*
X47021428Y-104973380D02*
X47021428Y-104306714D01*
X47021428Y-103973380D02*
X46973809Y-104021000D01*
X47021428Y-104068619D01*
X47069047Y-104021000D01*
X47021428Y-103973380D01*
X47021428Y-104068619D01*
X47354761Y-104306714D02*
X47735714Y-104306714D01*
X47497619Y-103973380D02*
X47497619Y-104830523D01*
X47545238Y-104925761D01*
X47640476Y-104973380D01*
X47735714Y-104973380D01*
X47973809Y-104306714D02*
X48211904Y-104973380D01*
X48450000Y-104306714D02*
X48211904Y-104973380D01*
X48116666Y-105211476D01*
X48069047Y-105259095D01*
X47973809Y-105306714D01*
X49164285Y-104449571D02*
X48830952Y-104449571D01*
X48830952Y-104973380D02*
X48830952Y-103973380D01*
X49307142Y-103973380D01*
X50069047Y-104925761D02*
X49973809Y-104973380D01*
X49783333Y-104973380D01*
X49688095Y-104925761D01*
X49640476Y-104830523D01*
X49640476Y-104449571D01*
X49688095Y-104354333D01*
X49783333Y-104306714D01*
X49973809Y-104306714D01*
X50069047Y-104354333D01*
X50116666Y-104449571D01*
X50116666Y-104544809D01*
X49640476Y-104640047D01*
X50402380Y-104306714D02*
X50783333Y-104306714D01*
X50545238Y-103973380D02*
X50545238Y-104830523D01*
X50592857Y-104925761D01*
X50688095Y-104973380D01*
X50783333Y-104973380D01*
X51069047Y-104068619D02*
X51116666Y-104021000D01*
X51211904Y-103973380D01*
X51449999Y-103973380D01*
X51545238Y-104021000D01*
X51592857Y-104068619D01*
X51640476Y-104163857D01*
X51640476Y-104259095D01*
X51592857Y-104401952D01*
X51021428Y-104973380D01*
X51640476Y-104973380D01*
G04 #@! TO.C,MonitorFet*
X21915380Y-9635666D02*
X20915380Y-9635666D01*
X21629666Y-9302333D01*
X20915380Y-8969000D01*
X21915380Y-8969000D01*
X21915380Y-8349952D02*
X21867761Y-8445190D01*
X21820142Y-8492809D01*
X21724904Y-8540428D01*
X21439190Y-8540428D01*
X21343952Y-8492809D01*
X21296333Y-8445190D01*
X21248714Y-8349952D01*
X21248714Y-8207095D01*
X21296333Y-8111857D01*
X21343952Y-8064238D01*
X21439190Y-8016619D01*
X21724904Y-8016619D01*
X21820142Y-8064238D01*
X21867761Y-8111857D01*
X21915380Y-8207095D01*
X21915380Y-8349952D01*
X21248714Y-7588047D02*
X21915380Y-7588047D01*
X21343952Y-7588047D02*
X21296333Y-7540428D01*
X21248714Y-7445190D01*
X21248714Y-7302333D01*
X21296333Y-7207095D01*
X21391571Y-7159476D01*
X21915380Y-7159476D01*
X21915380Y-6683285D02*
X21248714Y-6683285D01*
X20915380Y-6683285D02*
X20963000Y-6730904D01*
X21010619Y-6683285D01*
X20963000Y-6635666D01*
X20915380Y-6683285D01*
X21010619Y-6683285D01*
X21248714Y-6349952D02*
X21248714Y-5969000D01*
X20915380Y-6207095D02*
X21772523Y-6207095D01*
X21867761Y-6159476D01*
X21915380Y-6064238D01*
X21915380Y-5969000D01*
X21915380Y-5492809D02*
X21867761Y-5588047D01*
X21820142Y-5635666D01*
X21724904Y-5683285D01*
X21439190Y-5683285D01*
X21343952Y-5635666D01*
X21296333Y-5588047D01*
X21248714Y-5492809D01*
X21248714Y-5349952D01*
X21296333Y-5254714D01*
X21343952Y-5207095D01*
X21439190Y-5159476D01*
X21724904Y-5159476D01*
X21820142Y-5207095D01*
X21867761Y-5254714D01*
X21915380Y-5349952D01*
X21915380Y-5492809D01*
X21915380Y-4730904D02*
X21248714Y-4730904D01*
X21439190Y-4730904D02*
X21343952Y-4683285D01*
X21296333Y-4635666D01*
X21248714Y-4540428D01*
X21248714Y-4445190D01*
X21391571Y-3778523D02*
X21391571Y-4111857D01*
X21915380Y-4111857D02*
X20915380Y-4111857D01*
X20915380Y-3635666D01*
X21867761Y-2873761D02*
X21915380Y-2969000D01*
X21915380Y-3159476D01*
X21867761Y-3254714D01*
X21772523Y-3302333D01*
X21391571Y-3302333D01*
X21296333Y-3254714D01*
X21248714Y-3159476D01*
X21248714Y-2969000D01*
X21296333Y-2873761D01*
X21391571Y-2826142D01*
X21486809Y-2826142D01*
X21582047Y-3302333D01*
X21248714Y-2540428D02*
X21248714Y-2159476D01*
X20915380Y-2397571D02*
X21772523Y-2397571D01*
X21867761Y-2349952D01*
X21915380Y-2254714D01*
X21915380Y-2159476D01*
G04 #@! TO.C,I2C*
X1849380Y-13803190D02*
X849380Y-13803190D01*
X944619Y-13374619D02*
X897000Y-13327000D01*
X849380Y-13231761D01*
X849380Y-12993666D01*
X897000Y-12898428D01*
X944619Y-12850809D01*
X1039857Y-12803190D01*
X1135095Y-12803190D01*
X1277952Y-12850809D01*
X1849380Y-13422238D01*
X1849380Y-12803190D01*
X1754142Y-11803190D02*
X1801761Y-11850809D01*
X1849380Y-11993666D01*
X1849380Y-12088904D01*
X1801761Y-12231761D01*
X1706523Y-12327000D01*
X1611285Y-12374619D01*
X1420809Y-12422238D01*
X1277952Y-12422238D01*
X1087476Y-12374619D01*
X992238Y-12327000D01*
X897000Y-12231761D01*
X849380Y-12088904D01*
X849380Y-11993666D01*
X897000Y-11850809D01*
X944619Y-11803190D01*
G04 #@! TO.C,Card1*
X1373142Y-26780952D02*
X1420761Y-26828571D01*
X1468380Y-26971428D01*
X1468380Y-27066666D01*
X1420761Y-27209523D01*
X1325523Y-27304761D01*
X1230285Y-27352380D01*
X1039809Y-27400000D01*
X896952Y-27400000D01*
X706476Y-27352380D01*
X611238Y-27304761D01*
X515999Y-27209523D01*
X468380Y-27066666D01*
X468380Y-26971428D01*
X515999Y-26828571D01*
X563619Y-26780952D01*
X1468380Y-25923809D02*
X944571Y-25923809D01*
X849333Y-25971428D01*
X801714Y-26066666D01*
X801714Y-26257142D01*
X849333Y-26352380D01*
X1420761Y-25923809D02*
X1468380Y-26019047D01*
X1468380Y-26257142D01*
X1420761Y-26352380D01*
X1325523Y-26400000D01*
X1230285Y-26400000D01*
X1135047Y-26352380D01*
X1087428Y-26257142D01*
X1087428Y-26019047D01*
X1039809Y-25923809D01*
X1468380Y-25447619D02*
X801714Y-25447619D01*
X992190Y-25447619D02*
X896952Y-25400000D01*
X849333Y-25352380D01*
X801714Y-25257142D01*
X801714Y-25161904D01*
X1468380Y-24400000D02*
X468380Y-24400000D01*
X1420761Y-24400000D02*
X1468380Y-24495238D01*
X1468380Y-24685714D01*
X1420761Y-24780952D01*
X1373142Y-24828571D01*
X1277904Y-24876190D01*
X992190Y-24876190D01*
X896952Y-24828571D01*
X849333Y-24780952D01*
X801714Y-24685714D01*
X801714Y-24495238D01*
X849333Y-24400000D01*
X1468380Y-23400000D02*
X1468380Y-23971428D01*
X1468380Y-23685714D02*
X468380Y-23685714D01*
X611238Y-23780952D01*
X706476Y-23876190D01*
X754095Y-23971428D01*
G04 #@! TO.C,Card2*
X1500142Y-52180952D02*
X1547761Y-52228571D01*
X1595380Y-52371428D01*
X1595380Y-52466666D01*
X1547761Y-52609523D01*
X1452523Y-52704761D01*
X1357285Y-52752380D01*
X1166809Y-52800000D01*
X1023952Y-52800000D01*
X833476Y-52752380D01*
X738238Y-52704761D01*
X642999Y-52609523D01*
X595380Y-52466666D01*
X595380Y-52371428D01*
X642999Y-52228571D01*
X690619Y-52180952D01*
X1595380Y-51323809D02*
X1071571Y-51323809D01*
X976333Y-51371428D01*
X928714Y-51466666D01*
X928714Y-51657142D01*
X976333Y-51752380D01*
X1547761Y-51323809D02*
X1595380Y-51419047D01*
X1595380Y-51657142D01*
X1547761Y-51752380D01*
X1452523Y-51800000D01*
X1357285Y-51800000D01*
X1262047Y-51752380D01*
X1214428Y-51657142D01*
X1214428Y-51419047D01*
X1166809Y-51323809D01*
X1595380Y-50847619D02*
X928714Y-50847619D01*
X1119190Y-50847619D02*
X1023952Y-50800000D01*
X976333Y-50752380D01*
X928714Y-50657142D01*
X928714Y-50561904D01*
X1595380Y-49800000D02*
X595380Y-49800000D01*
X1547761Y-49800000D02*
X1595380Y-49895238D01*
X1595380Y-50085714D01*
X1547761Y-50180952D01*
X1500142Y-50228571D01*
X1404904Y-50276190D01*
X1119190Y-50276190D01*
X1023952Y-50228571D01*
X976333Y-50180952D01*
X928714Y-50085714D01*
X928714Y-49895238D01*
X976333Y-49800000D01*
X690619Y-49371428D02*
X643000Y-49323809D01*
X595380Y-49228571D01*
X595380Y-48990476D01*
X643000Y-48895238D01*
X690619Y-48847619D01*
X785857Y-48800000D01*
X881095Y-48800000D01*
X1023952Y-48847619D01*
X1595380Y-49419047D01*
X1595380Y-48800000D01*
G04 #@! TO.C,Card3*
X1627142Y-77580952D02*
X1674761Y-77628571D01*
X1722380Y-77771428D01*
X1722380Y-77866666D01*
X1674761Y-78009523D01*
X1579523Y-78104761D01*
X1484285Y-78152380D01*
X1293809Y-78200000D01*
X1150952Y-78200000D01*
X960476Y-78152380D01*
X865238Y-78104761D01*
X769999Y-78009523D01*
X722380Y-77866666D01*
X722380Y-77771428D01*
X769999Y-77628571D01*
X817619Y-77580952D01*
X1722380Y-76723809D02*
X1198571Y-76723809D01*
X1103333Y-76771428D01*
X1055714Y-76866666D01*
X1055714Y-77057142D01*
X1103333Y-77152380D01*
X1674761Y-76723809D02*
X1722380Y-76819047D01*
X1722380Y-77057142D01*
X1674761Y-77152380D01*
X1579523Y-77200000D01*
X1484285Y-77200000D01*
X1389047Y-77152380D01*
X1341428Y-77057142D01*
X1341428Y-76819047D01*
X1293809Y-76723809D01*
X1722380Y-76247619D02*
X1055714Y-76247619D01*
X1246190Y-76247619D02*
X1150952Y-76200000D01*
X1103333Y-76152380D01*
X1055714Y-76057142D01*
X1055714Y-75961904D01*
X1722380Y-75200000D02*
X722380Y-75200000D01*
X1674761Y-75200000D02*
X1722380Y-75295238D01*
X1722380Y-75485714D01*
X1674761Y-75580952D01*
X1627142Y-75628571D01*
X1531904Y-75676190D01*
X1246190Y-75676190D01*
X1150952Y-75628571D01*
X1103333Y-75580952D01*
X1055714Y-75485714D01*
X1055714Y-75295238D01*
X1103333Y-75200000D01*
X722380Y-74819047D02*
X722380Y-74200000D01*
X1103333Y-74533333D01*
X1103333Y-74390476D01*
X1150952Y-74295238D01*
X1198571Y-74247619D01*
X1293809Y-74200000D01*
X1531904Y-74200000D01*
X1627142Y-74247619D01*
X1674761Y-74295238D01*
X1722380Y-74390476D01*
X1722380Y-74676190D01*
X1674761Y-74771428D01*
X1627142Y-74819047D01*
G04 #@! TO.C,Card4*
X1627142Y-102980952D02*
X1674761Y-103028571D01*
X1722380Y-103171428D01*
X1722380Y-103266666D01*
X1674761Y-103409523D01*
X1579523Y-103504761D01*
X1484285Y-103552380D01*
X1293809Y-103600000D01*
X1150952Y-103600000D01*
X960476Y-103552380D01*
X865238Y-103504761D01*
X769999Y-103409523D01*
X722380Y-103266666D01*
X722380Y-103171428D01*
X769999Y-103028571D01*
X817619Y-102980952D01*
X1722380Y-102123809D02*
X1198571Y-102123809D01*
X1103333Y-102171428D01*
X1055714Y-102266666D01*
X1055714Y-102457142D01*
X1103333Y-102552380D01*
X1674761Y-102123809D02*
X1722380Y-102219047D01*
X1722380Y-102457142D01*
X1674761Y-102552380D01*
X1579523Y-102600000D01*
X1484285Y-102600000D01*
X1389047Y-102552380D01*
X1341428Y-102457142D01*
X1341428Y-102219047D01*
X1293809Y-102123809D01*
X1722380Y-101647619D02*
X1055714Y-101647619D01*
X1246190Y-101647619D02*
X1150952Y-101600000D01*
X1103333Y-101552380D01*
X1055714Y-101457142D01*
X1055714Y-101361904D01*
X1722380Y-100600000D02*
X722380Y-100600000D01*
X1674761Y-100600000D02*
X1722380Y-100695238D01*
X1722380Y-100885714D01*
X1674761Y-100980952D01*
X1627142Y-101028571D01*
X1531904Y-101076190D01*
X1246190Y-101076190D01*
X1150952Y-101028571D01*
X1103333Y-100980952D01*
X1055714Y-100885714D01*
X1055714Y-100695238D01*
X1103333Y-100600000D01*
X1055714Y-99695238D02*
X1722380Y-99695238D01*
X674761Y-99933333D02*
X1389047Y-100171428D01*
X1389047Y-99552380D01*
G04 #@! TO.C,Card8*
X62460142Y-26780952D02*
X62507761Y-26828571D01*
X62555380Y-26971428D01*
X62555380Y-27066666D01*
X62507761Y-27209523D01*
X62412523Y-27304761D01*
X62317285Y-27352380D01*
X62126809Y-27400000D01*
X61983952Y-27400000D01*
X61793476Y-27352380D01*
X61698238Y-27304761D01*
X61603000Y-27209523D01*
X61555380Y-27066666D01*
X61555380Y-26971428D01*
X61603000Y-26828571D01*
X61650619Y-26780952D01*
X62555380Y-25923809D02*
X62031571Y-25923809D01*
X61936333Y-25971428D01*
X61888714Y-26066666D01*
X61888714Y-26257142D01*
X61936333Y-26352380D01*
X62507761Y-25923809D02*
X62555380Y-26019047D01*
X62555380Y-26257142D01*
X62507761Y-26352380D01*
X62412523Y-26400000D01*
X62317285Y-26400000D01*
X62222047Y-26352380D01*
X62174428Y-26257142D01*
X62174428Y-26019047D01*
X62126809Y-25923809D01*
X62555380Y-25447619D02*
X61888714Y-25447619D01*
X62079190Y-25447619D02*
X61983952Y-25400000D01*
X61936333Y-25352380D01*
X61888714Y-25257142D01*
X61888714Y-25161904D01*
X62555380Y-24400000D02*
X61555380Y-24400000D01*
X62507761Y-24400000D02*
X62555380Y-24495238D01*
X62555380Y-24685714D01*
X62507761Y-24780952D01*
X62460142Y-24828571D01*
X62364904Y-24876190D01*
X62079190Y-24876190D01*
X61983952Y-24828571D01*
X61936333Y-24780952D01*
X61888714Y-24685714D01*
X61888714Y-24495238D01*
X61936333Y-24400000D01*
X61983952Y-23780952D02*
X61936333Y-23876190D01*
X61888714Y-23923809D01*
X61793476Y-23971428D01*
X61745857Y-23971428D01*
X61650619Y-23923809D01*
X61603000Y-23876190D01*
X61555380Y-23780952D01*
X61555380Y-23590476D01*
X61603000Y-23495238D01*
X61650619Y-23447619D01*
X61745857Y-23400000D01*
X61793476Y-23400000D01*
X61888714Y-23447619D01*
X61936333Y-23495238D01*
X61983952Y-23590476D01*
X61983952Y-23780952D01*
X62031571Y-23876190D01*
X62079190Y-23923809D01*
X62174428Y-23971428D01*
X62364904Y-23971428D01*
X62460142Y-23923809D01*
X62507761Y-23876190D01*
X62555380Y-23780952D01*
X62555380Y-23590476D01*
X62507761Y-23495238D01*
X62460142Y-23447619D01*
X62364904Y-23400000D01*
X62174428Y-23400000D01*
X62079190Y-23447619D01*
X62031571Y-23495238D01*
X61983952Y-23590476D01*
G04 #@! TO.C,Card7*
X62587142Y-52180952D02*
X62634761Y-52228571D01*
X62682380Y-52371428D01*
X62682380Y-52466666D01*
X62634761Y-52609523D01*
X62539523Y-52704761D01*
X62444285Y-52752380D01*
X62253809Y-52800000D01*
X62110952Y-52800000D01*
X61920476Y-52752380D01*
X61825238Y-52704761D01*
X61730000Y-52609523D01*
X61682380Y-52466666D01*
X61682380Y-52371428D01*
X61730000Y-52228571D01*
X61777619Y-52180952D01*
X62682380Y-51323809D02*
X62158571Y-51323809D01*
X62063333Y-51371428D01*
X62015714Y-51466666D01*
X62015714Y-51657142D01*
X62063333Y-51752380D01*
X62634761Y-51323809D02*
X62682380Y-51419047D01*
X62682380Y-51657142D01*
X62634761Y-51752380D01*
X62539523Y-51800000D01*
X62444285Y-51800000D01*
X62349047Y-51752380D01*
X62301428Y-51657142D01*
X62301428Y-51419047D01*
X62253809Y-51323809D01*
X62682380Y-50847619D02*
X62015714Y-50847619D01*
X62206190Y-50847619D02*
X62110952Y-50800000D01*
X62063333Y-50752380D01*
X62015714Y-50657142D01*
X62015714Y-50561904D01*
X62682380Y-49800000D02*
X61682380Y-49800000D01*
X62634761Y-49800000D02*
X62682380Y-49895238D01*
X62682380Y-50085714D01*
X62634761Y-50180952D01*
X62587142Y-50228571D01*
X62491904Y-50276190D01*
X62206190Y-50276190D01*
X62110952Y-50228571D01*
X62063333Y-50180952D01*
X62015714Y-50085714D01*
X62015714Y-49895238D01*
X62063333Y-49800000D01*
X61682380Y-49419047D02*
X61682380Y-48752380D01*
X62682380Y-49180952D01*
G04 #@! TO.C,Card6*
X62460142Y-77580952D02*
X62507761Y-77628571D01*
X62555380Y-77771428D01*
X62555380Y-77866666D01*
X62507761Y-78009523D01*
X62412523Y-78104761D01*
X62317285Y-78152380D01*
X62126809Y-78200000D01*
X61983952Y-78200000D01*
X61793476Y-78152380D01*
X61698238Y-78104761D01*
X61603000Y-78009523D01*
X61555380Y-77866666D01*
X61555380Y-77771428D01*
X61603000Y-77628571D01*
X61650619Y-77580952D01*
X62555380Y-76723809D02*
X62031571Y-76723809D01*
X61936333Y-76771428D01*
X61888714Y-76866666D01*
X61888714Y-77057142D01*
X61936333Y-77152380D01*
X62507761Y-76723809D02*
X62555380Y-76819047D01*
X62555380Y-77057142D01*
X62507761Y-77152380D01*
X62412523Y-77200000D01*
X62317285Y-77200000D01*
X62222047Y-77152380D01*
X62174428Y-77057142D01*
X62174428Y-76819047D01*
X62126809Y-76723809D01*
X62555380Y-76247619D02*
X61888714Y-76247619D01*
X62079190Y-76247619D02*
X61983952Y-76200000D01*
X61936333Y-76152380D01*
X61888714Y-76057142D01*
X61888714Y-75961904D01*
X62555380Y-75200000D02*
X61555380Y-75200000D01*
X62507761Y-75200000D02*
X62555380Y-75295238D01*
X62555380Y-75485714D01*
X62507761Y-75580952D01*
X62460142Y-75628571D01*
X62364904Y-75676190D01*
X62079190Y-75676190D01*
X61983952Y-75628571D01*
X61936333Y-75580952D01*
X61888714Y-75485714D01*
X61888714Y-75295238D01*
X61936333Y-75200000D01*
X61555380Y-74295238D02*
X61555380Y-74485714D01*
X61603000Y-74580952D01*
X61650619Y-74628571D01*
X61793476Y-74723809D01*
X61983952Y-74771428D01*
X62364904Y-74771428D01*
X62460142Y-74723809D01*
X62507761Y-74676190D01*
X62555380Y-74580952D01*
X62555380Y-74390476D01*
X62507761Y-74295238D01*
X62460142Y-74247619D01*
X62364904Y-74200000D01*
X62126809Y-74200000D01*
X62031571Y-74247619D01*
X61983952Y-74295238D01*
X61936333Y-74390476D01*
X61936333Y-74580952D01*
X61983952Y-74676190D01*
X62031571Y-74723809D01*
X62126809Y-74771428D01*
G04 #@! TO.C,Card5*
X62460142Y-102980952D02*
X62507761Y-103028571D01*
X62555380Y-103171428D01*
X62555380Y-103266666D01*
X62507761Y-103409523D01*
X62412523Y-103504761D01*
X62317285Y-103552380D01*
X62126809Y-103600000D01*
X61983952Y-103600000D01*
X61793476Y-103552380D01*
X61698238Y-103504761D01*
X61603000Y-103409523D01*
X61555380Y-103266666D01*
X61555380Y-103171428D01*
X61603000Y-103028571D01*
X61650619Y-102980952D01*
X62555380Y-102123809D02*
X62031571Y-102123809D01*
X61936333Y-102171428D01*
X61888714Y-102266666D01*
X61888714Y-102457142D01*
X61936333Y-102552380D01*
X62507761Y-102123809D02*
X62555380Y-102219047D01*
X62555380Y-102457142D01*
X62507761Y-102552380D01*
X62412523Y-102600000D01*
X62317285Y-102600000D01*
X62222047Y-102552380D01*
X62174428Y-102457142D01*
X62174428Y-102219047D01*
X62126809Y-102123809D01*
X62555380Y-101647619D02*
X61888714Y-101647619D01*
X62079190Y-101647619D02*
X61983952Y-101600000D01*
X61936333Y-101552380D01*
X61888714Y-101457142D01*
X61888714Y-101361904D01*
X62555380Y-100600000D02*
X61555380Y-100600000D01*
X62507761Y-100600000D02*
X62555380Y-100695238D01*
X62555380Y-100885714D01*
X62507761Y-100980952D01*
X62460142Y-101028571D01*
X62364904Y-101076190D01*
X62079190Y-101076190D01*
X61983952Y-101028571D01*
X61936333Y-100980952D01*
X61888714Y-100885714D01*
X61888714Y-100695238D01*
X61936333Y-100600000D01*
X61555380Y-99647619D02*
X61555380Y-100123809D01*
X62031571Y-100171428D01*
X61983952Y-100123809D01*
X61936333Y-100028571D01*
X61936333Y-99790476D01*
X61983952Y-99695238D01*
X62031571Y-99647619D01*
X62126809Y-99600000D01*
X62364904Y-99600000D01*
X62460142Y-99647619D01*
X62507761Y-99695238D01*
X62555380Y-99790476D01*
X62555380Y-100028571D01*
X62507761Y-100123809D01*
X62460142Y-100171428D01*
G04 #@! TO.C,C15*
X53485142Y-33789857D02*
X53532761Y-33837476D01*
X53580380Y-33980333D01*
X53580380Y-34075571D01*
X53532761Y-34218428D01*
X53437523Y-34313666D01*
X53342285Y-34361285D01*
X53151809Y-34408904D01*
X53008952Y-34408904D01*
X52818476Y-34361285D01*
X52723238Y-34313666D01*
X52628000Y-34218428D01*
X52580380Y-34075571D01*
X52580380Y-33980333D01*
X52628000Y-33837476D01*
X52675619Y-33789857D01*
X53580380Y-32837476D02*
X53580380Y-33408904D01*
X53580380Y-33123190D02*
X52580380Y-33123190D01*
X52723238Y-33218428D01*
X52818476Y-33313666D01*
X52866095Y-33408904D01*
X52580380Y-31932714D02*
X52580380Y-32408904D01*
X53056571Y-32456523D01*
X53008952Y-32408904D01*
X52961333Y-32313666D01*
X52961333Y-32075571D01*
X53008952Y-31980333D01*
X53056571Y-31932714D01*
X53151809Y-31885095D01*
X53389904Y-31885095D01*
X53485142Y-31932714D01*
X53532761Y-31980333D01*
X53580380Y-32075571D01*
X53580380Y-32313666D01*
X53532761Y-32408904D01*
X53485142Y-32456523D01*
G04 #@! TO.C,R17*
X53199380Y-40012857D02*
X52723190Y-40346190D01*
X53199380Y-40584285D02*
X52199380Y-40584285D01*
X52199380Y-40203333D01*
X52247000Y-40108095D01*
X52294619Y-40060476D01*
X52389857Y-40012857D01*
X52532714Y-40012857D01*
X52627952Y-40060476D01*
X52675571Y-40108095D01*
X52723190Y-40203333D01*
X52723190Y-40584285D01*
X53199380Y-39060476D02*
X53199380Y-39631904D01*
X53199380Y-39346190D02*
X52199380Y-39346190D01*
X52342238Y-39441428D01*
X52437476Y-39536666D01*
X52485095Y-39631904D01*
X52199380Y-38727142D02*
X52199380Y-38060476D01*
X53199380Y-38489047D01*
G04 #@! TO.C,R18*
X46347142Y-43039380D02*
X46013809Y-42563190D01*
X45775714Y-43039380D02*
X45775714Y-42039380D01*
X46156666Y-42039380D01*
X46251904Y-42087000D01*
X46299523Y-42134619D01*
X46347142Y-42229857D01*
X46347142Y-42372714D01*
X46299523Y-42467952D01*
X46251904Y-42515571D01*
X46156666Y-42563190D01*
X45775714Y-42563190D01*
X47299523Y-43039380D02*
X46728095Y-43039380D01*
X47013809Y-43039380D02*
X47013809Y-42039380D01*
X46918571Y-42182238D01*
X46823333Y-42277476D01*
X46728095Y-42325095D01*
X47870952Y-42467952D02*
X47775714Y-42420333D01*
X47728095Y-42372714D01*
X47680476Y-42277476D01*
X47680476Y-42229857D01*
X47728095Y-42134619D01*
X47775714Y-42087000D01*
X47870952Y-42039380D01*
X48061428Y-42039380D01*
X48156666Y-42087000D01*
X48204285Y-42134619D01*
X48251904Y-42229857D01*
X48251904Y-42277476D01*
X48204285Y-42372714D01*
X48156666Y-42420333D01*
X48061428Y-42467952D01*
X47870952Y-42467952D01*
X47775714Y-42515571D01*
X47728095Y-42563190D01*
X47680476Y-42658428D01*
X47680476Y-42848904D01*
X47728095Y-42944142D01*
X47775714Y-42991761D01*
X47870952Y-43039380D01*
X48061428Y-43039380D01*
X48156666Y-42991761D01*
X48204285Y-42944142D01*
X48251904Y-42848904D01*
X48251904Y-42658428D01*
X48204285Y-42563190D01*
X48156666Y-42515571D01*
X48061428Y-42467952D01*
G04 #@! TO.C,R19*
X46347142Y-38594380D02*
X46013809Y-38118190D01*
X45775714Y-38594380D02*
X45775714Y-37594380D01*
X46156666Y-37594380D01*
X46251904Y-37642000D01*
X46299523Y-37689619D01*
X46347142Y-37784857D01*
X46347142Y-37927714D01*
X46299523Y-38022952D01*
X46251904Y-38070571D01*
X46156666Y-38118190D01*
X45775714Y-38118190D01*
X47299523Y-38594380D02*
X46728095Y-38594380D01*
X47013809Y-38594380D02*
X47013809Y-37594380D01*
X46918571Y-37737238D01*
X46823333Y-37832476D01*
X46728095Y-37880095D01*
X47775714Y-38594380D02*
X47966190Y-38594380D01*
X48061428Y-38546761D01*
X48109047Y-38499142D01*
X48204285Y-38356285D01*
X48251904Y-38165809D01*
X48251904Y-37784857D01*
X48204285Y-37689619D01*
X48156666Y-37642000D01*
X48061428Y-37594380D01*
X47870952Y-37594380D01*
X47775714Y-37642000D01*
X47728095Y-37689619D01*
X47680476Y-37784857D01*
X47680476Y-38022952D01*
X47728095Y-38118190D01*
X47775714Y-38165809D01*
X47870952Y-38213428D01*
X48061428Y-38213428D01*
X48156666Y-38165809D01*
X48204285Y-38118190D01*
X48251904Y-38022952D01*
G04 #@! TO.C,R20*
X53580380Y-28709857D02*
X53104190Y-29043190D01*
X53580380Y-29281285D02*
X52580380Y-29281285D01*
X52580380Y-28900333D01*
X52628000Y-28805095D01*
X52675619Y-28757476D01*
X52770857Y-28709857D01*
X52913714Y-28709857D01*
X53008952Y-28757476D01*
X53056571Y-28805095D01*
X53104190Y-28900333D01*
X53104190Y-29281285D01*
X52675619Y-28328904D02*
X52628000Y-28281285D01*
X52580380Y-28186047D01*
X52580380Y-27947952D01*
X52628000Y-27852714D01*
X52675619Y-27805095D01*
X52770857Y-27757476D01*
X52866095Y-27757476D01*
X53008952Y-27805095D01*
X53580380Y-28376523D01*
X53580380Y-27757476D01*
X52580380Y-27138428D02*
X52580380Y-27043190D01*
X52628000Y-26947952D01*
X52675619Y-26900333D01*
X52770857Y-26852714D01*
X52961333Y-26805095D01*
X53199428Y-26805095D01*
X53389904Y-26852714D01*
X53485142Y-26900333D01*
X53532761Y-26947952D01*
X53580380Y-27043190D01*
X53580380Y-27138428D01*
X53532761Y-27233666D01*
X53485142Y-27281285D01*
X53389904Y-27328904D01*
X53199428Y-27376523D01*
X52961333Y-27376523D01*
X52770857Y-27328904D01*
X52675619Y-27281285D01*
X52628000Y-27233666D01*
X52580380Y-27138428D01*
G04 #@! TO.C,L3*
X45934333Y-20264380D02*
X45458142Y-20264380D01*
X45458142Y-19264380D01*
X46172428Y-19264380D02*
X46791476Y-19264380D01*
X46458142Y-19645333D01*
X46601000Y-19645333D01*
X46696238Y-19692952D01*
X46743857Y-19740571D01*
X46791476Y-19835809D01*
X46791476Y-20073904D01*
X46743857Y-20169142D01*
X46696238Y-20216761D01*
X46601000Y-20264380D01*
X46315285Y-20264380D01*
X46220047Y-20216761D01*
X46172428Y-20169142D01*
G04 #@! TO.C,CentralHub*
X36425142Y-79509523D02*
X36472761Y-79557142D01*
X36520380Y-79700000D01*
X36520380Y-79795238D01*
X36472761Y-79938095D01*
X36377523Y-80033333D01*
X36282285Y-80080952D01*
X36091809Y-80128571D01*
X35948952Y-80128571D01*
X35758476Y-80080952D01*
X35663238Y-80033333D01*
X35568000Y-79938095D01*
X35520380Y-79795238D01*
X35520380Y-79700000D01*
X35568000Y-79557142D01*
X35615619Y-79509523D01*
X36472761Y-78700000D02*
X36520380Y-78795238D01*
X36520380Y-78985714D01*
X36472761Y-79080952D01*
X36377523Y-79128571D01*
X35996571Y-79128571D01*
X35901333Y-79080952D01*
X35853714Y-78985714D01*
X35853714Y-78795238D01*
X35901333Y-78700000D01*
X35996571Y-78652380D01*
X36091809Y-78652380D01*
X36187047Y-79128571D01*
X35853714Y-78223809D02*
X36520380Y-78223809D01*
X35948952Y-78223809D02*
X35901333Y-78176190D01*
X35853714Y-78080952D01*
X35853714Y-77938095D01*
X35901333Y-77842857D01*
X35996571Y-77795238D01*
X36520380Y-77795238D01*
X35853714Y-77461904D02*
X35853714Y-77080952D01*
X35520380Y-77319047D02*
X36377523Y-77319047D01*
X36472761Y-77271428D01*
X36520380Y-77176190D01*
X36520380Y-77080952D01*
X36520380Y-76747619D02*
X35853714Y-76747619D01*
X36044190Y-76747619D02*
X35948952Y-76700000D01*
X35901333Y-76652380D01*
X35853714Y-76557142D01*
X35853714Y-76461904D01*
X36520380Y-75700000D02*
X35996571Y-75700000D01*
X35901333Y-75747619D01*
X35853714Y-75842857D01*
X35853714Y-76033333D01*
X35901333Y-76128571D01*
X36472761Y-75700000D02*
X36520380Y-75795238D01*
X36520380Y-76033333D01*
X36472761Y-76128571D01*
X36377523Y-76176190D01*
X36282285Y-76176190D01*
X36187047Y-76128571D01*
X36139428Y-76033333D01*
X36139428Y-75795238D01*
X36091809Y-75700000D01*
X36520380Y-75080952D02*
X36472761Y-75176190D01*
X36377523Y-75223809D01*
X35520380Y-75223809D01*
X36520380Y-74700000D02*
X35520380Y-74700000D01*
X35996571Y-74700000D02*
X35996571Y-74128571D01*
X36520380Y-74128571D02*
X35520380Y-74128571D01*
X35853714Y-73223809D02*
X36520380Y-73223809D01*
X35853714Y-73652380D02*
X36377523Y-73652380D01*
X36472761Y-73604761D01*
X36520380Y-73509523D01*
X36520380Y-73366666D01*
X36472761Y-73271428D01*
X36425142Y-73223809D01*
X36520380Y-72747619D02*
X35520380Y-72747619D01*
X35901333Y-72747619D02*
X35853714Y-72652380D01*
X35853714Y-72461904D01*
X35901333Y-72366666D01*
X35948952Y-72319047D01*
X36044190Y-72271428D01*
X36329904Y-72271428D01*
X36425142Y-72319047D01*
X36472761Y-72366666D01*
X36520380Y-72461904D01*
X36520380Y-72652380D01*
X36472761Y-72747619D01*
G04 #@! TO.C,U6*
X3348095Y-33262380D02*
X3348095Y-34071904D01*
X3395714Y-34167142D01*
X3443333Y-34214761D01*
X3538571Y-34262380D01*
X3729047Y-34262380D01*
X3824285Y-34214761D01*
X3871904Y-34167142D01*
X3919523Y-34071904D01*
X3919523Y-33262380D01*
X4824285Y-33262380D02*
X4633809Y-33262380D01*
X4538571Y-33310000D01*
X4490952Y-33357619D01*
X4395714Y-33500476D01*
X4348095Y-33690952D01*
X4348095Y-34071904D01*
X4395714Y-34167142D01*
X4443333Y-34214761D01*
X4538571Y-34262380D01*
X4729047Y-34262380D01*
X4824285Y-34214761D01*
X4871904Y-34167142D01*
X4919523Y-34071904D01*
X4919523Y-33833809D01*
X4871904Y-33738571D01*
X4824285Y-33690952D01*
X4729047Y-33643333D01*
X4538571Y-33643333D01*
X4443333Y-33690952D01*
X4395714Y-33738571D01*
X4348095Y-33833809D01*
G04 #@! TO.C,U7*
X59228095Y-33262380D02*
X59228095Y-34071904D01*
X59275714Y-34167142D01*
X59323333Y-34214761D01*
X59418571Y-34262380D01*
X59609047Y-34262380D01*
X59704285Y-34214761D01*
X59751904Y-34167142D01*
X59799523Y-34071904D01*
X59799523Y-33262380D01*
X60180476Y-33262380D02*
X60847142Y-33262380D01*
X60418571Y-34262380D01*
G04 #@! TO.C,U8*
X3348095Y-84062380D02*
X3348095Y-84871904D01*
X3395714Y-84967142D01*
X3443333Y-85014761D01*
X3538571Y-85062380D01*
X3729047Y-85062380D01*
X3824285Y-85014761D01*
X3871904Y-84967142D01*
X3919523Y-84871904D01*
X3919523Y-84062380D01*
X4538571Y-84490952D02*
X4443333Y-84443333D01*
X4395714Y-84395714D01*
X4348095Y-84300476D01*
X4348095Y-84252857D01*
X4395714Y-84157619D01*
X4443333Y-84110000D01*
X4538571Y-84062380D01*
X4729047Y-84062380D01*
X4824285Y-84110000D01*
X4871904Y-84157619D01*
X4919523Y-84252857D01*
X4919523Y-84300476D01*
X4871904Y-84395714D01*
X4824285Y-84443333D01*
X4729047Y-84490952D01*
X4538571Y-84490952D01*
X4443333Y-84538571D01*
X4395714Y-84586190D01*
X4348095Y-84681428D01*
X4348095Y-84871904D01*
X4395714Y-84967142D01*
X4443333Y-85014761D01*
X4538571Y-85062380D01*
X4729047Y-85062380D01*
X4824285Y-85014761D01*
X4871904Y-84967142D01*
X4919523Y-84871904D01*
X4919523Y-84681428D01*
X4871904Y-84586190D01*
X4824285Y-84538571D01*
X4729047Y-84490952D01*
G04 #@! TO.C,U9*
X59228095Y-84062380D02*
X59228095Y-84871904D01*
X59275714Y-84967142D01*
X59323333Y-85014761D01*
X59418571Y-85062380D01*
X59609047Y-85062380D01*
X59704285Y-85014761D01*
X59751904Y-84967142D01*
X59799523Y-84871904D01*
X59799523Y-84062380D01*
X60323333Y-85062380D02*
X60513809Y-85062380D01*
X60609047Y-85014761D01*
X60656666Y-84967142D01*
X60751904Y-84824285D01*
X60799523Y-84633809D01*
X60799523Y-84252857D01*
X60751904Y-84157619D01*
X60704285Y-84110000D01*
X60609047Y-84062380D01*
X60418571Y-84062380D01*
X60323333Y-84110000D01*
X60275714Y-84157619D01*
X60228095Y-84252857D01*
X60228095Y-84490952D01*
X60275714Y-84586190D01*
X60323333Y-84633809D01*
X60418571Y-84681428D01*
X60609047Y-84681428D01*
X60704285Y-84633809D01*
X60751904Y-84586190D01*
X60799523Y-84490952D01*
G04 #@! TO.C,LipoMonitor*
X1722380Y-9564238D02*
X1722380Y-10040428D01*
X722380Y-10040428D01*
X1722380Y-9230904D02*
X1055714Y-9230904D01*
X722380Y-9230904D02*
X769999Y-9278523D01*
X817619Y-9230904D01*
X769999Y-9183285D01*
X722380Y-9230904D01*
X817619Y-9230904D01*
X1055714Y-8754714D02*
X2055714Y-8754714D01*
X1103333Y-8754714D02*
X1055714Y-8659476D01*
X1055714Y-8469000D01*
X1103333Y-8373761D01*
X1150952Y-8326142D01*
X1246190Y-8278523D01*
X1531904Y-8278523D01*
X1627142Y-8326142D01*
X1674761Y-8373761D01*
X1722380Y-8469000D01*
X1722380Y-8659476D01*
X1674761Y-8754714D01*
X1722380Y-7707095D02*
X1674761Y-7802333D01*
X1627142Y-7849952D01*
X1531904Y-7897571D01*
X1246190Y-7897571D01*
X1150952Y-7849952D01*
X1103333Y-7802333D01*
X1055714Y-7707095D01*
X1055714Y-7564238D01*
X1103333Y-7469000D01*
X1150952Y-7421380D01*
X1246190Y-7373761D01*
X1531904Y-7373761D01*
X1627142Y-7421380D01*
X1674761Y-7469000D01*
X1722380Y-7564238D01*
X1722380Y-7707095D01*
X1722380Y-6945190D02*
X722380Y-6945190D01*
X1436666Y-6611857D01*
X722380Y-6278523D01*
X1722380Y-6278523D01*
X1722380Y-5659476D02*
X1674761Y-5754714D01*
X1627142Y-5802333D01*
X1531904Y-5849952D01*
X1246190Y-5849952D01*
X1150952Y-5802333D01*
X1103333Y-5754714D01*
X1055714Y-5659476D01*
X1055714Y-5516619D01*
X1103333Y-5421380D01*
X1150952Y-5373761D01*
X1246190Y-5326142D01*
X1531904Y-5326142D01*
X1627142Y-5373761D01*
X1674761Y-5421380D01*
X1722380Y-5516619D01*
X1722380Y-5659476D01*
X1055714Y-4897571D02*
X1722380Y-4897571D01*
X1150952Y-4897571D02*
X1103333Y-4849952D01*
X1055714Y-4754714D01*
X1055714Y-4611857D01*
X1103333Y-4516619D01*
X1198571Y-4469000D01*
X1722380Y-4469000D01*
X1722380Y-3992809D02*
X1055714Y-3992809D01*
X722380Y-3992809D02*
X770000Y-4040428D01*
X817619Y-3992809D01*
X770000Y-3945190D01*
X722380Y-3992809D01*
X817619Y-3992809D01*
X1055714Y-3659476D02*
X1055714Y-3278523D01*
X722380Y-3516619D02*
X1579523Y-3516619D01*
X1674761Y-3469000D01*
X1722380Y-3373761D01*
X1722380Y-3278523D01*
X1722380Y-2802333D02*
X1674761Y-2897571D01*
X1627142Y-2945190D01*
X1531904Y-2992809D01*
X1246190Y-2992809D01*
X1150952Y-2945190D01*
X1103333Y-2897571D01*
X1055714Y-2802333D01*
X1055714Y-2659476D01*
X1103333Y-2564238D01*
X1150952Y-2516619D01*
X1246190Y-2469000D01*
X1531904Y-2469000D01*
X1627142Y-2516619D01*
X1674761Y-2564238D01*
X1722380Y-2659476D01*
X1722380Y-2802333D01*
X1722380Y-2040428D02*
X1055714Y-2040428D01*
X1246190Y-2040428D02*
X1150952Y-1992809D01*
X1103333Y-1945190D01*
X1055714Y-1849952D01*
X1055714Y-1754714D01*
G04 #@! TD*
M02*
