G04 #@! TF.GenerationSoftware,KiCad,Pcbnew,(5.0.2)-1*
G04 #@! TF.CreationDate,2019-01-20T08:21:42-05:00*
G04 #@! TF.ProjectId,modular_backplane,6d6f6475-6c61-4725-9f62-61636b706c61,rev?*
G04 #@! TF.SameCoordinates,Original*
G04 #@! TF.FileFunction,Soldermask,Bot*
G04 #@! TF.FilePolarity,Negative*
%FSLAX46Y46*%
G04 Gerber Fmt 4.6, Leading zero omitted, Abs format (unit mm)*
G04 Created by KiCad (PCBNEW (5.0.2)-1) date 1/20/2019 8:21:42 AM*
%MOMM*%
%LPD*%
G01*
G04 APERTURE LIST*
%ADD10C,0.100000*%
G04 APERTURE END LIST*
D10*
G36*
X9832498Y-115036160D02*
X10056058Y-115103977D01*
X10262095Y-115214105D01*
X10442686Y-115362314D01*
X10590895Y-115542905D01*
X10701023Y-115748942D01*
X10768840Y-115972502D01*
X10791738Y-116205000D01*
X10768840Y-116437498D01*
X10701023Y-116661058D01*
X10590895Y-116867095D01*
X10442686Y-117047686D01*
X10262095Y-117195895D01*
X10056058Y-117306023D01*
X9832498Y-117373840D01*
X9658263Y-117391000D01*
X5581737Y-117391000D01*
X5407502Y-117373840D01*
X5183942Y-117306023D01*
X4977905Y-117195895D01*
X4797314Y-117047686D01*
X4649105Y-116867095D01*
X4538977Y-116661058D01*
X4471160Y-116437498D01*
X4448262Y-116205000D01*
X4471160Y-115972502D01*
X4538977Y-115748942D01*
X4649105Y-115542905D01*
X4797314Y-115362314D01*
X4977905Y-115214105D01*
X5183942Y-115103977D01*
X5407502Y-115036160D01*
X5581737Y-115019000D01*
X9658263Y-115019000D01*
X9832498Y-115036160D01*
X9832498Y-115036160D01*
G37*
G36*
X42217498Y-115036160D02*
X42441058Y-115103977D01*
X42647095Y-115214105D01*
X42827686Y-115362314D01*
X42975895Y-115542905D01*
X43086023Y-115748942D01*
X43153840Y-115972502D01*
X43176738Y-116205000D01*
X43153840Y-116437498D01*
X43086023Y-116661058D01*
X42975895Y-116867095D01*
X42827686Y-117047686D01*
X42647095Y-117195895D01*
X42441058Y-117306023D01*
X42217498Y-117373840D01*
X42043263Y-117391000D01*
X37966737Y-117391000D01*
X37792502Y-117373840D01*
X37568942Y-117306023D01*
X37362905Y-117195895D01*
X37182314Y-117047686D01*
X37034105Y-116867095D01*
X36923977Y-116661058D01*
X36856160Y-116437498D01*
X36833262Y-116205000D01*
X36856160Y-115972502D01*
X36923977Y-115748942D01*
X37034105Y-115542905D01*
X37182314Y-115362314D01*
X37362905Y-115214105D01*
X37568942Y-115103977D01*
X37792502Y-115036160D01*
X37966737Y-115019000D01*
X42043263Y-115019000D01*
X42217498Y-115036160D01*
X42217498Y-115036160D01*
G37*
G36*
X25707498Y-115036160D02*
X25931058Y-115103977D01*
X26137095Y-115214105D01*
X26317686Y-115362314D01*
X26465895Y-115542905D01*
X26576023Y-115748942D01*
X26643840Y-115972502D01*
X26666738Y-116205000D01*
X26643840Y-116437498D01*
X26576023Y-116661058D01*
X26465895Y-116867095D01*
X26317686Y-117047686D01*
X26137095Y-117195895D01*
X25931058Y-117306023D01*
X25707498Y-117373840D01*
X25533263Y-117391000D01*
X21456737Y-117391000D01*
X21282502Y-117373840D01*
X21058942Y-117306023D01*
X20852905Y-117195895D01*
X20672314Y-117047686D01*
X20524105Y-116867095D01*
X20413977Y-116661058D01*
X20346160Y-116437498D01*
X20323262Y-116205000D01*
X20346160Y-115972502D01*
X20413977Y-115748942D01*
X20524105Y-115542905D01*
X20672314Y-115362314D01*
X20852905Y-115214105D01*
X21058942Y-115103977D01*
X21282502Y-115036160D01*
X21456737Y-115019000D01*
X25533263Y-115019000D01*
X25707498Y-115036160D01*
X25707498Y-115036160D01*
G37*
G36*
X58092498Y-115036160D02*
X58316058Y-115103977D01*
X58522095Y-115214105D01*
X58702686Y-115362314D01*
X58850895Y-115542905D01*
X58961023Y-115748942D01*
X59028840Y-115972502D01*
X59051738Y-116205000D01*
X59028840Y-116437498D01*
X58961023Y-116661058D01*
X58850895Y-116867095D01*
X58702686Y-117047686D01*
X58522095Y-117195895D01*
X58316058Y-117306023D01*
X58092498Y-117373840D01*
X57918263Y-117391000D01*
X53841737Y-117391000D01*
X53667502Y-117373840D01*
X53443942Y-117306023D01*
X53237905Y-117195895D01*
X53057314Y-117047686D01*
X52909105Y-116867095D01*
X52798977Y-116661058D01*
X52731160Y-116437498D01*
X52708262Y-116205000D01*
X52731160Y-115972502D01*
X52798977Y-115748942D01*
X52909105Y-115542905D01*
X53057314Y-115362314D01*
X53237905Y-115214105D01*
X53443942Y-115103977D01*
X53667502Y-115036160D01*
X53841737Y-115019000D01*
X57918263Y-115019000D01*
X58092498Y-115036160D01*
X58092498Y-115036160D01*
G37*
G36*
X4119482Y-108199773D02*
X4312571Y-108279753D01*
X4486351Y-108395869D01*
X4634131Y-108543649D01*
X4750247Y-108717429D01*
X4830227Y-108910518D01*
X4871000Y-109115499D01*
X4871000Y-109324501D01*
X4830227Y-109529482D01*
X4750247Y-109722571D01*
X4634131Y-109896351D01*
X4486351Y-110044131D01*
X4312571Y-110160247D01*
X4119482Y-110240227D01*
X3914501Y-110281000D01*
X3705499Y-110281000D01*
X3500518Y-110240227D01*
X3307429Y-110160247D01*
X3133649Y-110044131D01*
X2985869Y-109896351D01*
X2869753Y-109722571D01*
X2789773Y-109529482D01*
X2749000Y-109324501D01*
X2749000Y-109115499D01*
X2789773Y-108910518D01*
X2869753Y-108717429D01*
X2985869Y-108543649D01*
X3133649Y-108395869D01*
X3307429Y-108279753D01*
X3500518Y-108199773D01*
X3705499Y-108159000D01*
X3914501Y-108159000D01*
X4119482Y-108199773D01*
X4119482Y-108199773D01*
G37*
G36*
X6659482Y-108199773D02*
X6852571Y-108279753D01*
X7026351Y-108395869D01*
X7174131Y-108543649D01*
X7290247Y-108717429D01*
X7370227Y-108910518D01*
X7411000Y-109115499D01*
X7411000Y-109324501D01*
X7370227Y-109529482D01*
X7290247Y-109722571D01*
X7174131Y-109896351D01*
X7026351Y-110044131D01*
X6852571Y-110160247D01*
X6659482Y-110240227D01*
X6454501Y-110281000D01*
X6245499Y-110281000D01*
X6040518Y-110240227D01*
X5847429Y-110160247D01*
X5673649Y-110044131D01*
X5525869Y-109896351D01*
X5409753Y-109722571D01*
X5329773Y-109529482D01*
X5289000Y-109324501D01*
X5289000Y-109115499D01*
X5329773Y-108910518D01*
X5409753Y-108717429D01*
X5525869Y-108543649D01*
X5673649Y-108395869D01*
X5847429Y-108279753D01*
X6040518Y-108199773D01*
X6245499Y-108159000D01*
X6454501Y-108159000D01*
X6659482Y-108199773D01*
X6659482Y-108199773D01*
G37*
G36*
X57459482Y-108199773D02*
X57652571Y-108279753D01*
X57826351Y-108395869D01*
X57974131Y-108543649D01*
X58090247Y-108717429D01*
X58170227Y-108910518D01*
X58211000Y-109115499D01*
X58211000Y-109324501D01*
X58170227Y-109529482D01*
X58090247Y-109722571D01*
X57974131Y-109896351D01*
X57826351Y-110044131D01*
X57652571Y-110160247D01*
X57459482Y-110240227D01*
X57254501Y-110281000D01*
X57045499Y-110281000D01*
X56840518Y-110240227D01*
X56647429Y-110160247D01*
X56473649Y-110044131D01*
X56325869Y-109896351D01*
X56209753Y-109722571D01*
X56129773Y-109529482D01*
X56089000Y-109324501D01*
X56089000Y-109115499D01*
X56129773Y-108910518D01*
X56209753Y-108717429D01*
X56325869Y-108543649D01*
X56473649Y-108395869D01*
X56647429Y-108279753D01*
X56840518Y-108199773D01*
X57045499Y-108159000D01*
X57254501Y-108159000D01*
X57459482Y-108199773D01*
X57459482Y-108199773D01*
G37*
G36*
X59999482Y-108199773D02*
X60192571Y-108279753D01*
X60366351Y-108395869D01*
X60514131Y-108543649D01*
X60630247Y-108717429D01*
X60710227Y-108910518D01*
X60751000Y-109115499D01*
X60751000Y-109324501D01*
X60710227Y-109529482D01*
X60630247Y-109722571D01*
X60514131Y-109896351D01*
X60366351Y-110044131D01*
X60192571Y-110160247D01*
X59999482Y-110240227D01*
X59794501Y-110281000D01*
X59585499Y-110281000D01*
X59380518Y-110240227D01*
X59187429Y-110160247D01*
X59013649Y-110044131D01*
X58865869Y-109896351D01*
X58749753Y-109722571D01*
X58669773Y-109529482D01*
X58629000Y-109324501D01*
X58629000Y-109115499D01*
X58669773Y-108910518D01*
X58749753Y-108717429D01*
X58865869Y-108543649D01*
X59013649Y-108395869D01*
X59187429Y-108279753D01*
X59380518Y-108199773D01*
X59585499Y-108159000D01*
X59794501Y-108159000D01*
X59999482Y-108199773D01*
X59999482Y-108199773D01*
G37*
G36*
X6659482Y-105659773D02*
X6852571Y-105739753D01*
X7026351Y-105855869D01*
X7174131Y-106003649D01*
X7290247Y-106177429D01*
X7370227Y-106370518D01*
X7411000Y-106575499D01*
X7411000Y-106784501D01*
X7370227Y-106989482D01*
X7290247Y-107182571D01*
X7174131Y-107356351D01*
X7026351Y-107504131D01*
X6852571Y-107620247D01*
X6659482Y-107700227D01*
X6454501Y-107741000D01*
X6245499Y-107741000D01*
X6040518Y-107700227D01*
X5847429Y-107620247D01*
X5673649Y-107504131D01*
X5525869Y-107356351D01*
X5409753Y-107182571D01*
X5329773Y-106989482D01*
X5289000Y-106784501D01*
X5289000Y-106575499D01*
X5329773Y-106370518D01*
X5409753Y-106177429D01*
X5525869Y-106003649D01*
X5673649Y-105855869D01*
X5847429Y-105739753D01*
X6040518Y-105659773D01*
X6245499Y-105619000D01*
X6454501Y-105619000D01*
X6659482Y-105659773D01*
X6659482Y-105659773D01*
G37*
G36*
X4119482Y-105659773D02*
X4312571Y-105739753D01*
X4486351Y-105855869D01*
X4634131Y-106003649D01*
X4750247Y-106177429D01*
X4830227Y-106370518D01*
X4871000Y-106575499D01*
X4871000Y-106784501D01*
X4830227Y-106989482D01*
X4750247Y-107182571D01*
X4634131Y-107356351D01*
X4486351Y-107504131D01*
X4312571Y-107620247D01*
X4119482Y-107700227D01*
X3914501Y-107741000D01*
X3705499Y-107741000D01*
X3500518Y-107700227D01*
X3307429Y-107620247D01*
X3133649Y-107504131D01*
X2985869Y-107356351D01*
X2869753Y-107182571D01*
X2789773Y-106989482D01*
X2749000Y-106784501D01*
X2749000Y-106575499D01*
X2789773Y-106370518D01*
X2869753Y-106177429D01*
X2985869Y-106003649D01*
X3133649Y-105855869D01*
X3307429Y-105739753D01*
X3500518Y-105659773D01*
X3705499Y-105619000D01*
X3914501Y-105619000D01*
X4119482Y-105659773D01*
X4119482Y-105659773D01*
G37*
G36*
X59999482Y-105659773D02*
X60192571Y-105739753D01*
X60366351Y-105855869D01*
X60514131Y-106003649D01*
X60630247Y-106177429D01*
X60710227Y-106370518D01*
X60751000Y-106575499D01*
X60751000Y-106784501D01*
X60710227Y-106989482D01*
X60630247Y-107182571D01*
X60514131Y-107356351D01*
X60366351Y-107504131D01*
X60192571Y-107620247D01*
X59999482Y-107700227D01*
X59794501Y-107741000D01*
X59585499Y-107741000D01*
X59380518Y-107700227D01*
X59187429Y-107620247D01*
X59013649Y-107504131D01*
X58865869Y-107356351D01*
X58749753Y-107182571D01*
X58669773Y-106989482D01*
X58629000Y-106784501D01*
X58629000Y-106575499D01*
X58669773Y-106370518D01*
X58749753Y-106177429D01*
X58865869Y-106003649D01*
X59013649Y-105855869D01*
X59187429Y-105739753D01*
X59380518Y-105659773D01*
X59585499Y-105619000D01*
X59794501Y-105619000D01*
X59999482Y-105659773D01*
X59999482Y-105659773D01*
G37*
G36*
X57459482Y-105659773D02*
X57652571Y-105739753D01*
X57826351Y-105855869D01*
X57974131Y-106003649D01*
X58090247Y-106177429D01*
X58170227Y-106370518D01*
X58211000Y-106575499D01*
X58211000Y-106784501D01*
X58170227Y-106989482D01*
X58090247Y-107182571D01*
X57974131Y-107356351D01*
X57826351Y-107504131D01*
X57652571Y-107620247D01*
X57459482Y-107700227D01*
X57254501Y-107741000D01*
X57045499Y-107741000D01*
X56840518Y-107700227D01*
X56647429Y-107620247D01*
X56473649Y-107504131D01*
X56325869Y-107356351D01*
X56209753Y-107182571D01*
X56129773Y-106989482D01*
X56089000Y-106784501D01*
X56089000Y-106575499D01*
X56129773Y-106370518D01*
X56209753Y-106177429D01*
X56325869Y-106003649D01*
X56473649Y-105855869D01*
X56647429Y-105739753D01*
X56840518Y-105659773D01*
X57045499Y-105619000D01*
X57254501Y-105619000D01*
X57459482Y-105659773D01*
X57459482Y-105659773D01*
G37*
G36*
X59999482Y-103119773D02*
X60192571Y-103199753D01*
X60366351Y-103315869D01*
X60514131Y-103463649D01*
X60630247Y-103637429D01*
X60710227Y-103830518D01*
X60751000Y-104035499D01*
X60751000Y-104244501D01*
X60710227Y-104449482D01*
X60630247Y-104642571D01*
X60514131Y-104816351D01*
X60366351Y-104964131D01*
X60192571Y-105080247D01*
X59999482Y-105160227D01*
X59794501Y-105201000D01*
X59585499Y-105201000D01*
X59380518Y-105160227D01*
X59187429Y-105080247D01*
X59013649Y-104964131D01*
X58865869Y-104816351D01*
X58749753Y-104642571D01*
X58669773Y-104449482D01*
X58629000Y-104244501D01*
X58629000Y-104035499D01*
X58669773Y-103830518D01*
X58749753Y-103637429D01*
X58865869Y-103463649D01*
X59013649Y-103315869D01*
X59187429Y-103199753D01*
X59380518Y-103119773D01*
X59585499Y-103079000D01*
X59794501Y-103079000D01*
X59999482Y-103119773D01*
X59999482Y-103119773D01*
G37*
G36*
X57459482Y-103119773D02*
X57652571Y-103199753D01*
X57826351Y-103315869D01*
X57974131Y-103463649D01*
X58090247Y-103637429D01*
X58170227Y-103830518D01*
X58211000Y-104035499D01*
X58211000Y-104244501D01*
X58170227Y-104449482D01*
X58090247Y-104642571D01*
X57974131Y-104816351D01*
X57826351Y-104964131D01*
X57652571Y-105080247D01*
X57459482Y-105160227D01*
X57254501Y-105201000D01*
X57045499Y-105201000D01*
X56840518Y-105160227D01*
X56647429Y-105080247D01*
X56473649Y-104964131D01*
X56325869Y-104816351D01*
X56209753Y-104642571D01*
X56129773Y-104449482D01*
X56089000Y-104244501D01*
X56089000Y-104035499D01*
X56129773Y-103830518D01*
X56209753Y-103637429D01*
X56325869Y-103463649D01*
X56473649Y-103315869D01*
X56647429Y-103199753D01*
X56840518Y-103119773D01*
X57045499Y-103079000D01*
X57254501Y-103079000D01*
X57459482Y-103119773D01*
X57459482Y-103119773D01*
G37*
G36*
X6659482Y-103119773D02*
X6852571Y-103199753D01*
X7026351Y-103315869D01*
X7174131Y-103463649D01*
X7290247Y-103637429D01*
X7370227Y-103830518D01*
X7411000Y-104035499D01*
X7411000Y-104244501D01*
X7370227Y-104449482D01*
X7290247Y-104642571D01*
X7174131Y-104816351D01*
X7026351Y-104964131D01*
X6852571Y-105080247D01*
X6659482Y-105160227D01*
X6454501Y-105201000D01*
X6245499Y-105201000D01*
X6040518Y-105160227D01*
X5847429Y-105080247D01*
X5673649Y-104964131D01*
X5525869Y-104816351D01*
X5409753Y-104642571D01*
X5329773Y-104449482D01*
X5289000Y-104244501D01*
X5289000Y-104035499D01*
X5329773Y-103830518D01*
X5409753Y-103637429D01*
X5525869Y-103463649D01*
X5673649Y-103315869D01*
X5847429Y-103199753D01*
X6040518Y-103119773D01*
X6245499Y-103079000D01*
X6454501Y-103079000D01*
X6659482Y-103119773D01*
X6659482Y-103119773D01*
G37*
G36*
X4119482Y-103119773D02*
X4312571Y-103199753D01*
X4486351Y-103315869D01*
X4634131Y-103463649D01*
X4750247Y-103637429D01*
X4830227Y-103830518D01*
X4871000Y-104035499D01*
X4871000Y-104244501D01*
X4830227Y-104449482D01*
X4750247Y-104642571D01*
X4634131Y-104816351D01*
X4486351Y-104964131D01*
X4312571Y-105080247D01*
X4119482Y-105160227D01*
X3914501Y-105201000D01*
X3705499Y-105201000D01*
X3500518Y-105160227D01*
X3307429Y-105080247D01*
X3133649Y-104964131D01*
X2985869Y-104816351D01*
X2869753Y-104642571D01*
X2789773Y-104449482D01*
X2749000Y-104244501D01*
X2749000Y-104035499D01*
X2789773Y-103830518D01*
X2869753Y-103637429D01*
X2985869Y-103463649D01*
X3133649Y-103315869D01*
X3307429Y-103199753D01*
X3500518Y-103119773D01*
X3705499Y-103079000D01*
X3914501Y-103079000D01*
X4119482Y-103119773D01*
X4119482Y-103119773D01*
G37*
G36*
X30789482Y-101849773D02*
X30982571Y-101929753D01*
X31156351Y-102045869D01*
X31304131Y-102193649D01*
X31420247Y-102367429D01*
X31500227Y-102560518D01*
X31541000Y-102765499D01*
X31541000Y-102974501D01*
X31500227Y-103179482D01*
X31420247Y-103372571D01*
X31304131Y-103546351D01*
X31156351Y-103694131D01*
X30982571Y-103810247D01*
X30789482Y-103890227D01*
X30584501Y-103931000D01*
X30375499Y-103931000D01*
X30170518Y-103890227D01*
X29977429Y-103810247D01*
X29803649Y-103694131D01*
X29655869Y-103546351D01*
X29539753Y-103372571D01*
X29459773Y-103179482D01*
X29419000Y-102974501D01*
X29419000Y-102765499D01*
X29459773Y-102560518D01*
X29539753Y-102367429D01*
X29655869Y-102193649D01*
X29803649Y-102045869D01*
X29977429Y-101929753D01*
X30170518Y-101849773D01*
X30375499Y-101809000D01*
X30584501Y-101809000D01*
X30789482Y-101849773D01*
X30789482Y-101849773D01*
G37*
G36*
X33329482Y-101849773D02*
X33522571Y-101929753D01*
X33696351Y-102045869D01*
X33844131Y-102193649D01*
X33960247Y-102367429D01*
X34040227Y-102560518D01*
X34081000Y-102765499D01*
X34081000Y-102974501D01*
X34040227Y-103179482D01*
X33960247Y-103372571D01*
X33844131Y-103546351D01*
X33696351Y-103694131D01*
X33522571Y-103810247D01*
X33329482Y-103890227D01*
X33124501Y-103931000D01*
X32915499Y-103931000D01*
X32710518Y-103890227D01*
X32517429Y-103810247D01*
X32343649Y-103694131D01*
X32195869Y-103546351D01*
X32079753Y-103372571D01*
X31999773Y-103179482D01*
X31959000Y-102974501D01*
X31959000Y-102765499D01*
X31999773Y-102560518D01*
X32079753Y-102367429D01*
X32195869Y-102193649D01*
X32343649Y-102045869D01*
X32517429Y-101929753D01*
X32710518Y-101849773D01*
X32915499Y-101809000D01*
X33124501Y-101809000D01*
X33329482Y-101849773D01*
X33329482Y-101849773D01*
G37*
G36*
X59999482Y-100579773D02*
X60192571Y-100659753D01*
X60366351Y-100775869D01*
X60514131Y-100923649D01*
X60630247Y-101097429D01*
X60710227Y-101290518D01*
X60751000Y-101495499D01*
X60751000Y-101704501D01*
X60710227Y-101909482D01*
X60630247Y-102102571D01*
X60514131Y-102276351D01*
X60366351Y-102424131D01*
X60192571Y-102540247D01*
X59999482Y-102620227D01*
X59794501Y-102661000D01*
X59585499Y-102661000D01*
X59380518Y-102620227D01*
X59187429Y-102540247D01*
X59013649Y-102424131D01*
X58865869Y-102276351D01*
X58749753Y-102102571D01*
X58669773Y-101909482D01*
X58629000Y-101704501D01*
X58629000Y-101495499D01*
X58669773Y-101290518D01*
X58749753Y-101097429D01*
X58865869Y-100923649D01*
X59013649Y-100775869D01*
X59187429Y-100659753D01*
X59380518Y-100579773D01*
X59585499Y-100539000D01*
X59794501Y-100539000D01*
X59999482Y-100579773D01*
X59999482Y-100579773D01*
G37*
G36*
X6659482Y-100579773D02*
X6852571Y-100659753D01*
X7026351Y-100775869D01*
X7174131Y-100923649D01*
X7290247Y-101097429D01*
X7370227Y-101290518D01*
X7411000Y-101495499D01*
X7411000Y-101704501D01*
X7370227Y-101909482D01*
X7290247Y-102102571D01*
X7174131Y-102276351D01*
X7026351Y-102424131D01*
X6852571Y-102540247D01*
X6659482Y-102620227D01*
X6454501Y-102661000D01*
X6245499Y-102661000D01*
X6040518Y-102620227D01*
X5847429Y-102540247D01*
X5673649Y-102424131D01*
X5525869Y-102276351D01*
X5409753Y-102102571D01*
X5329773Y-101909482D01*
X5289000Y-101704501D01*
X5289000Y-101495499D01*
X5329773Y-101290518D01*
X5409753Y-101097429D01*
X5525869Y-100923649D01*
X5673649Y-100775869D01*
X5847429Y-100659753D01*
X6040518Y-100579773D01*
X6245499Y-100539000D01*
X6454501Y-100539000D01*
X6659482Y-100579773D01*
X6659482Y-100579773D01*
G37*
G36*
X4119482Y-100579773D02*
X4312571Y-100659753D01*
X4486351Y-100775869D01*
X4634131Y-100923649D01*
X4750247Y-101097429D01*
X4830227Y-101290518D01*
X4871000Y-101495499D01*
X4871000Y-101704501D01*
X4830227Y-101909482D01*
X4750247Y-102102571D01*
X4634131Y-102276351D01*
X4486351Y-102424131D01*
X4312571Y-102540247D01*
X4119482Y-102620227D01*
X3914501Y-102661000D01*
X3705499Y-102661000D01*
X3500518Y-102620227D01*
X3307429Y-102540247D01*
X3133649Y-102424131D01*
X2985869Y-102276351D01*
X2869753Y-102102571D01*
X2789773Y-101909482D01*
X2749000Y-101704501D01*
X2749000Y-101495499D01*
X2789773Y-101290518D01*
X2869753Y-101097429D01*
X2985869Y-100923649D01*
X3133649Y-100775869D01*
X3307429Y-100659753D01*
X3500518Y-100579773D01*
X3705499Y-100539000D01*
X3914501Y-100539000D01*
X4119482Y-100579773D01*
X4119482Y-100579773D01*
G37*
G36*
X57459482Y-100579773D02*
X57652571Y-100659753D01*
X57826351Y-100775869D01*
X57974131Y-100923649D01*
X58090247Y-101097429D01*
X58170227Y-101290518D01*
X58211000Y-101495499D01*
X58211000Y-101704501D01*
X58170227Y-101909482D01*
X58090247Y-102102571D01*
X57974131Y-102276351D01*
X57826351Y-102424131D01*
X57652571Y-102540247D01*
X57459482Y-102620227D01*
X57254501Y-102661000D01*
X57045499Y-102661000D01*
X56840518Y-102620227D01*
X56647429Y-102540247D01*
X56473649Y-102424131D01*
X56325869Y-102276351D01*
X56209753Y-102102571D01*
X56129773Y-101909482D01*
X56089000Y-101704501D01*
X56089000Y-101495499D01*
X56129773Y-101290518D01*
X56209753Y-101097429D01*
X56325869Y-100923649D01*
X56473649Y-100775869D01*
X56647429Y-100659753D01*
X56840518Y-100579773D01*
X57045499Y-100539000D01*
X57254501Y-100539000D01*
X57459482Y-100579773D01*
X57459482Y-100579773D01*
G37*
G36*
X30789482Y-99309773D02*
X30982571Y-99389753D01*
X31156351Y-99505869D01*
X31304131Y-99653649D01*
X31420247Y-99827429D01*
X31500227Y-100020518D01*
X31541000Y-100225499D01*
X31541000Y-100434501D01*
X31500227Y-100639482D01*
X31420247Y-100832571D01*
X31304131Y-101006351D01*
X31156351Y-101154131D01*
X30982571Y-101270247D01*
X30789482Y-101350227D01*
X30584501Y-101391000D01*
X30375499Y-101391000D01*
X30170518Y-101350227D01*
X29977429Y-101270247D01*
X29803649Y-101154131D01*
X29655869Y-101006351D01*
X29539753Y-100832571D01*
X29459773Y-100639482D01*
X29419000Y-100434501D01*
X29419000Y-100225499D01*
X29459773Y-100020518D01*
X29539753Y-99827429D01*
X29655869Y-99653649D01*
X29803649Y-99505869D01*
X29977429Y-99389753D01*
X30170518Y-99309773D01*
X30375499Y-99269000D01*
X30584501Y-99269000D01*
X30789482Y-99309773D01*
X30789482Y-99309773D01*
G37*
G36*
X33329482Y-99309773D02*
X33522571Y-99389753D01*
X33696351Y-99505869D01*
X33844131Y-99653649D01*
X33960247Y-99827429D01*
X34040227Y-100020518D01*
X34081000Y-100225499D01*
X34081000Y-100434501D01*
X34040227Y-100639482D01*
X33960247Y-100832571D01*
X33844131Y-101006351D01*
X33696351Y-101154131D01*
X33522571Y-101270247D01*
X33329482Y-101350227D01*
X33124501Y-101391000D01*
X32915499Y-101391000D01*
X32710518Y-101350227D01*
X32517429Y-101270247D01*
X32343649Y-101154131D01*
X32195869Y-101006351D01*
X32079753Y-100832571D01*
X31999773Y-100639482D01*
X31959000Y-100434501D01*
X31959000Y-100225499D01*
X31999773Y-100020518D01*
X32079753Y-99827429D01*
X32195869Y-99653649D01*
X32343649Y-99505869D01*
X32517429Y-99389753D01*
X32710518Y-99309773D01*
X32915499Y-99269000D01*
X33124501Y-99269000D01*
X33329482Y-99309773D01*
X33329482Y-99309773D01*
G37*
G36*
X6659482Y-98039773D02*
X6852571Y-98119753D01*
X7026351Y-98235869D01*
X7174131Y-98383649D01*
X7290247Y-98557429D01*
X7370227Y-98750518D01*
X7411000Y-98955499D01*
X7411000Y-99164501D01*
X7370227Y-99369482D01*
X7290247Y-99562571D01*
X7174131Y-99736351D01*
X7026351Y-99884131D01*
X6852571Y-100000247D01*
X6659482Y-100080227D01*
X6454501Y-100121000D01*
X6245499Y-100121000D01*
X6040518Y-100080227D01*
X5847429Y-100000247D01*
X5673649Y-99884131D01*
X5525869Y-99736351D01*
X5409753Y-99562571D01*
X5329773Y-99369482D01*
X5289000Y-99164501D01*
X5289000Y-98955499D01*
X5329773Y-98750518D01*
X5409753Y-98557429D01*
X5525869Y-98383649D01*
X5673649Y-98235869D01*
X5847429Y-98119753D01*
X6040518Y-98039773D01*
X6245499Y-97999000D01*
X6454501Y-97999000D01*
X6659482Y-98039773D01*
X6659482Y-98039773D01*
G37*
G36*
X4119482Y-98039773D02*
X4312571Y-98119753D01*
X4486351Y-98235869D01*
X4634131Y-98383649D01*
X4750247Y-98557429D01*
X4830227Y-98750518D01*
X4871000Y-98955499D01*
X4871000Y-99164501D01*
X4830227Y-99369482D01*
X4750247Y-99562571D01*
X4634131Y-99736351D01*
X4486351Y-99884131D01*
X4312571Y-100000247D01*
X4119482Y-100080227D01*
X3914501Y-100121000D01*
X3705499Y-100121000D01*
X3500518Y-100080227D01*
X3307429Y-100000247D01*
X3133649Y-99884131D01*
X2985869Y-99736351D01*
X2869753Y-99562571D01*
X2789773Y-99369482D01*
X2749000Y-99164501D01*
X2749000Y-98955499D01*
X2789773Y-98750518D01*
X2869753Y-98557429D01*
X2985869Y-98383649D01*
X3133649Y-98235869D01*
X3307429Y-98119753D01*
X3500518Y-98039773D01*
X3705499Y-97999000D01*
X3914501Y-97999000D01*
X4119482Y-98039773D01*
X4119482Y-98039773D01*
G37*
G36*
X57459482Y-98039773D02*
X57652571Y-98119753D01*
X57826351Y-98235869D01*
X57974131Y-98383649D01*
X58090247Y-98557429D01*
X58170227Y-98750518D01*
X58211000Y-98955499D01*
X58211000Y-99164501D01*
X58170227Y-99369482D01*
X58090247Y-99562571D01*
X57974131Y-99736351D01*
X57826351Y-99884131D01*
X57652571Y-100000247D01*
X57459482Y-100080227D01*
X57254501Y-100121000D01*
X57045499Y-100121000D01*
X56840518Y-100080227D01*
X56647429Y-100000247D01*
X56473649Y-99884131D01*
X56325869Y-99736351D01*
X56209753Y-99562571D01*
X56129773Y-99369482D01*
X56089000Y-99164501D01*
X56089000Y-98955499D01*
X56129773Y-98750518D01*
X56209753Y-98557429D01*
X56325869Y-98383649D01*
X56473649Y-98235869D01*
X56647429Y-98119753D01*
X56840518Y-98039773D01*
X57045499Y-97999000D01*
X57254501Y-97999000D01*
X57459482Y-98039773D01*
X57459482Y-98039773D01*
G37*
G36*
X59999482Y-98039773D02*
X60192571Y-98119753D01*
X60366351Y-98235869D01*
X60514131Y-98383649D01*
X60630247Y-98557429D01*
X60710227Y-98750518D01*
X60751000Y-98955499D01*
X60751000Y-99164501D01*
X60710227Y-99369482D01*
X60630247Y-99562571D01*
X60514131Y-99736351D01*
X60366351Y-99884131D01*
X60192571Y-100000247D01*
X59999482Y-100080227D01*
X59794501Y-100121000D01*
X59585499Y-100121000D01*
X59380518Y-100080227D01*
X59187429Y-100000247D01*
X59013649Y-99884131D01*
X58865869Y-99736351D01*
X58749753Y-99562571D01*
X58669773Y-99369482D01*
X58629000Y-99164501D01*
X58629000Y-98955499D01*
X58669773Y-98750518D01*
X58749753Y-98557429D01*
X58865869Y-98383649D01*
X59013649Y-98235869D01*
X59187429Y-98119753D01*
X59380518Y-98039773D01*
X59585499Y-97999000D01*
X59794501Y-97999000D01*
X59999482Y-98039773D01*
X59999482Y-98039773D01*
G37*
G36*
X30789482Y-96769773D02*
X30982571Y-96849753D01*
X31156351Y-96965869D01*
X31304131Y-97113649D01*
X31420247Y-97287429D01*
X31500227Y-97480518D01*
X31541000Y-97685499D01*
X31541000Y-97894501D01*
X31500227Y-98099482D01*
X31420247Y-98292571D01*
X31304131Y-98466351D01*
X31156351Y-98614131D01*
X30982571Y-98730247D01*
X30789482Y-98810227D01*
X30584501Y-98851000D01*
X30375499Y-98851000D01*
X30170518Y-98810227D01*
X29977429Y-98730247D01*
X29803649Y-98614131D01*
X29655869Y-98466351D01*
X29539753Y-98292571D01*
X29459773Y-98099482D01*
X29419000Y-97894501D01*
X29419000Y-97685499D01*
X29459773Y-97480518D01*
X29539753Y-97287429D01*
X29655869Y-97113649D01*
X29803649Y-96965869D01*
X29977429Y-96849753D01*
X30170518Y-96769773D01*
X30375499Y-96729000D01*
X30584501Y-96729000D01*
X30789482Y-96769773D01*
X30789482Y-96769773D01*
G37*
G36*
X33329482Y-96769773D02*
X33522571Y-96849753D01*
X33696351Y-96965869D01*
X33844131Y-97113649D01*
X33960247Y-97287429D01*
X34040227Y-97480518D01*
X34081000Y-97685499D01*
X34081000Y-97894501D01*
X34040227Y-98099482D01*
X33960247Y-98292571D01*
X33844131Y-98466351D01*
X33696351Y-98614131D01*
X33522571Y-98730247D01*
X33329482Y-98810227D01*
X33124501Y-98851000D01*
X32915499Y-98851000D01*
X32710518Y-98810227D01*
X32517429Y-98730247D01*
X32343649Y-98614131D01*
X32195869Y-98466351D01*
X32079753Y-98292571D01*
X31999773Y-98099482D01*
X31959000Y-97894501D01*
X31959000Y-97685499D01*
X31999773Y-97480518D01*
X32079753Y-97287429D01*
X32195869Y-97113649D01*
X32343649Y-96965869D01*
X32517429Y-96849753D01*
X32710518Y-96769773D01*
X32915499Y-96729000D01*
X33124501Y-96729000D01*
X33329482Y-96769773D01*
X33329482Y-96769773D01*
G37*
G36*
X59999482Y-95499773D02*
X60192571Y-95579753D01*
X60366351Y-95695869D01*
X60514131Y-95843649D01*
X60630247Y-96017429D01*
X60710227Y-96210518D01*
X60751000Y-96415499D01*
X60751000Y-96624501D01*
X60710227Y-96829482D01*
X60630247Y-97022571D01*
X60514131Y-97196351D01*
X60366351Y-97344131D01*
X60192571Y-97460247D01*
X59999482Y-97540227D01*
X59794501Y-97581000D01*
X59585499Y-97581000D01*
X59380518Y-97540227D01*
X59187429Y-97460247D01*
X59013649Y-97344131D01*
X58865869Y-97196351D01*
X58749753Y-97022571D01*
X58669773Y-96829482D01*
X58629000Y-96624501D01*
X58629000Y-96415499D01*
X58669773Y-96210518D01*
X58749753Y-96017429D01*
X58865869Y-95843649D01*
X59013649Y-95695869D01*
X59187429Y-95579753D01*
X59380518Y-95499773D01*
X59585499Y-95459000D01*
X59794501Y-95459000D01*
X59999482Y-95499773D01*
X59999482Y-95499773D01*
G37*
G36*
X4119482Y-95499773D02*
X4312571Y-95579753D01*
X4486351Y-95695869D01*
X4634131Y-95843649D01*
X4750247Y-96017429D01*
X4830227Y-96210518D01*
X4871000Y-96415499D01*
X4871000Y-96624501D01*
X4830227Y-96829482D01*
X4750247Y-97022571D01*
X4634131Y-97196351D01*
X4486351Y-97344131D01*
X4312571Y-97460247D01*
X4119482Y-97540227D01*
X3914501Y-97581000D01*
X3705499Y-97581000D01*
X3500518Y-97540227D01*
X3307429Y-97460247D01*
X3133649Y-97344131D01*
X2985869Y-97196351D01*
X2869753Y-97022571D01*
X2789773Y-96829482D01*
X2749000Y-96624501D01*
X2749000Y-96415499D01*
X2789773Y-96210518D01*
X2869753Y-96017429D01*
X2985869Y-95843649D01*
X3133649Y-95695869D01*
X3307429Y-95579753D01*
X3500518Y-95499773D01*
X3705499Y-95459000D01*
X3914501Y-95459000D01*
X4119482Y-95499773D01*
X4119482Y-95499773D01*
G37*
G36*
X57459482Y-95499773D02*
X57652571Y-95579753D01*
X57826351Y-95695869D01*
X57974131Y-95843649D01*
X58090247Y-96017429D01*
X58170227Y-96210518D01*
X58211000Y-96415499D01*
X58211000Y-96624501D01*
X58170227Y-96829482D01*
X58090247Y-97022571D01*
X57974131Y-97196351D01*
X57826351Y-97344131D01*
X57652571Y-97460247D01*
X57459482Y-97540227D01*
X57254501Y-97581000D01*
X57045499Y-97581000D01*
X56840518Y-97540227D01*
X56647429Y-97460247D01*
X56473649Y-97344131D01*
X56325869Y-97196351D01*
X56209753Y-97022571D01*
X56129773Y-96829482D01*
X56089000Y-96624501D01*
X56089000Y-96415499D01*
X56129773Y-96210518D01*
X56209753Y-96017429D01*
X56325869Y-95843649D01*
X56473649Y-95695869D01*
X56647429Y-95579753D01*
X56840518Y-95499773D01*
X57045499Y-95459000D01*
X57254501Y-95459000D01*
X57459482Y-95499773D01*
X57459482Y-95499773D01*
G37*
G36*
X6659482Y-95499773D02*
X6852571Y-95579753D01*
X7026351Y-95695869D01*
X7174131Y-95843649D01*
X7290247Y-96017429D01*
X7370227Y-96210518D01*
X7411000Y-96415499D01*
X7411000Y-96624501D01*
X7370227Y-96829482D01*
X7290247Y-97022571D01*
X7174131Y-97196351D01*
X7026351Y-97344131D01*
X6852571Y-97460247D01*
X6659482Y-97540227D01*
X6454501Y-97581000D01*
X6245499Y-97581000D01*
X6040518Y-97540227D01*
X5847429Y-97460247D01*
X5673649Y-97344131D01*
X5525869Y-97196351D01*
X5409753Y-97022571D01*
X5329773Y-96829482D01*
X5289000Y-96624501D01*
X5289000Y-96415499D01*
X5329773Y-96210518D01*
X5409753Y-96017429D01*
X5525869Y-95843649D01*
X5673649Y-95695869D01*
X5847429Y-95579753D01*
X6040518Y-95499773D01*
X6245499Y-95459000D01*
X6454501Y-95459000D01*
X6659482Y-95499773D01*
X6659482Y-95499773D01*
G37*
G36*
X30789482Y-94229773D02*
X30982571Y-94309753D01*
X31156351Y-94425869D01*
X31304131Y-94573649D01*
X31420247Y-94747429D01*
X31500227Y-94940518D01*
X31541000Y-95145499D01*
X31541000Y-95354501D01*
X31500227Y-95559482D01*
X31420247Y-95752571D01*
X31304131Y-95926351D01*
X31156351Y-96074131D01*
X30982571Y-96190247D01*
X30789482Y-96270227D01*
X30584501Y-96311000D01*
X30375499Y-96311000D01*
X30170518Y-96270227D01*
X29977429Y-96190247D01*
X29803649Y-96074131D01*
X29655869Y-95926351D01*
X29539753Y-95752571D01*
X29459773Y-95559482D01*
X29419000Y-95354501D01*
X29419000Y-95145499D01*
X29459773Y-94940518D01*
X29539753Y-94747429D01*
X29655869Y-94573649D01*
X29803649Y-94425869D01*
X29977429Y-94309753D01*
X30170518Y-94229773D01*
X30375499Y-94189000D01*
X30584501Y-94189000D01*
X30789482Y-94229773D01*
X30789482Y-94229773D01*
G37*
G36*
X33329482Y-94229773D02*
X33522571Y-94309753D01*
X33696351Y-94425869D01*
X33844131Y-94573649D01*
X33960247Y-94747429D01*
X34040227Y-94940518D01*
X34081000Y-95145499D01*
X34081000Y-95354501D01*
X34040227Y-95559482D01*
X33960247Y-95752571D01*
X33844131Y-95926351D01*
X33696351Y-96074131D01*
X33522571Y-96190247D01*
X33329482Y-96270227D01*
X33124501Y-96311000D01*
X32915499Y-96311000D01*
X32710518Y-96270227D01*
X32517429Y-96190247D01*
X32343649Y-96074131D01*
X32195869Y-95926351D01*
X32079753Y-95752571D01*
X31999773Y-95559482D01*
X31959000Y-95354501D01*
X31959000Y-95145499D01*
X31999773Y-94940518D01*
X32079753Y-94747429D01*
X32195869Y-94573649D01*
X32343649Y-94425869D01*
X32517429Y-94309753D01*
X32710518Y-94229773D01*
X32915499Y-94189000D01*
X33124501Y-94189000D01*
X33329482Y-94229773D01*
X33329482Y-94229773D01*
G37*
G36*
X57459482Y-92959773D02*
X57652571Y-93039753D01*
X57826351Y-93155869D01*
X57974131Y-93303649D01*
X58090247Y-93477429D01*
X58170227Y-93670518D01*
X58211000Y-93875499D01*
X58211000Y-94084501D01*
X58170227Y-94289482D01*
X58090247Y-94482571D01*
X57974131Y-94656351D01*
X57826351Y-94804131D01*
X57652571Y-94920247D01*
X57459482Y-95000227D01*
X57254501Y-95041000D01*
X57045499Y-95041000D01*
X56840518Y-95000227D01*
X56647429Y-94920247D01*
X56473649Y-94804131D01*
X56325869Y-94656351D01*
X56209753Y-94482571D01*
X56129773Y-94289482D01*
X56089000Y-94084501D01*
X56089000Y-93875499D01*
X56129773Y-93670518D01*
X56209753Y-93477429D01*
X56325869Y-93303649D01*
X56473649Y-93155869D01*
X56647429Y-93039753D01*
X56840518Y-92959773D01*
X57045499Y-92919000D01*
X57254501Y-92919000D01*
X57459482Y-92959773D01*
X57459482Y-92959773D01*
G37*
G36*
X6659482Y-92959773D02*
X6852571Y-93039753D01*
X7026351Y-93155869D01*
X7174131Y-93303649D01*
X7290247Y-93477429D01*
X7370227Y-93670518D01*
X7411000Y-93875499D01*
X7411000Y-94084501D01*
X7370227Y-94289482D01*
X7290247Y-94482571D01*
X7174131Y-94656351D01*
X7026351Y-94804131D01*
X6852571Y-94920247D01*
X6659482Y-95000227D01*
X6454501Y-95041000D01*
X6245499Y-95041000D01*
X6040518Y-95000227D01*
X5847429Y-94920247D01*
X5673649Y-94804131D01*
X5525869Y-94656351D01*
X5409753Y-94482571D01*
X5329773Y-94289482D01*
X5289000Y-94084501D01*
X5289000Y-93875499D01*
X5329773Y-93670518D01*
X5409753Y-93477429D01*
X5525869Y-93303649D01*
X5673649Y-93155869D01*
X5847429Y-93039753D01*
X6040518Y-92959773D01*
X6245499Y-92919000D01*
X6454501Y-92919000D01*
X6659482Y-92959773D01*
X6659482Y-92959773D01*
G37*
G36*
X4119482Y-92959773D02*
X4312571Y-93039753D01*
X4486351Y-93155869D01*
X4634131Y-93303649D01*
X4750247Y-93477429D01*
X4830227Y-93670518D01*
X4871000Y-93875499D01*
X4871000Y-94084501D01*
X4830227Y-94289482D01*
X4750247Y-94482571D01*
X4634131Y-94656351D01*
X4486351Y-94804131D01*
X4312571Y-94920247D01*
X4119482Y-95000227D01*
X3914501Y-95041000D01*
X3705499Y-95041000D01*
X3500518Y-95000227D01*
X3307429Y-94920247D01*
X3133649Y-94804131D01*
X2985869Y-94656351D01*
X2869753Y-94482571D01*
X2789773Y-94289482D01*
X2749000Y-94084501D01*
X2749000Y-93875499D01*
X2789773Y-93670518D01*
X2869753Y-93477429D01*
X2985869Y-93303649D01*
X3133649Y-93155869D01*
X3307429Y-93039753D01*
X3500518Y-92959773D01*
X3705499Y-92919000D01*
X3914501Y-92919000D01*
X4119482Y-92959773D01*
X4119482Y-92959773D01*
G37*
G36*
X59999482Y-92959773D02*
X60192571Y-93039753D01*
X60366351Y-93155869D01*
X60514131Y-93303649D01*
X60630247Y-93477429D01*
X60710227Y-93670518D01*
X60751000Y-93875499D01*
X60751000Y-94084501D01*
X60710227Y-94289482D01*
X60630247Y-94482571D01*
X60514131Y-94656351D01*
X60366351Y-94804131D01*
X60192571Y-94920247D01*
X59999482Y-95000227D01*
X59794501Y-95041000D01*
X59585499Y-95041000D01*
X59380518Y-95000227D01*
X59187429Y-94920247D01*
X59013649Y-94804131D01*
X58865869Y-94656351D01*
X58749753Y-94482571D01*
X58669773Y-94289482D01*
X58629000Y-94084501D01*
X58629000Y-93875499D01*
X58669773Y-93670518D01*
X58749753Y-93477429D01*
X58865869Y-93303649D01*
X59013649Y-93155869D01*
X59187429Y-93039753D01*
X59380518Y-92959773D01*
X59585499Y-92919000D01*
X59794501Y-92919000D01*
X59999482Y-92959773D01*
X59999482Y-92959773D01*
G37*
G36*
X30789482Y-91689773D02*
X30982571Y-91769753D01*
X31156351Y-91885869D01*
X31304131Y-92033649D01*
X31420247Y-92207429D01*
X31500227Y-92400518D01*
X31541000Y-92605499D01*
X31541000Y-92814501D01*
X31500227Y-93019482D01*
X31420247Y-93212571D01*
X31304131Y-93386351D01*
X31156351Y-93534131D01*
X30982571Y-93650247D01*
X30789482Y-93730227D01*
X30584501Y-93771000D01*
X30375499Y-93771000D01*
X30170518Y-93730227D01*
X29977429Y-93650247D01*
X29803649Y-93534131D01*
X29655869Y-93386351D01*
X29539753Y-93212571D01*
X29459773Y-93019482D01*
X29419000Y-92814501D01*
X29419000Y-92605499D01*
X29459773Y-92400518D01*
X29539753Y-92207429D01*
X29655869Y-92033649D01*
X29803649Y-91885869D01*
X29977429Y-91769753D01*
X30170518Y-91689773D01*
X30375499Y-91649000D01*
X30584501Y-91649000D01*
X30789482Y-91689773D01*
X30789482Y-91689773D01*
G37*
G36*
X33329482Y-91689773D02*
X33522571Y-91769753D01*
X33696351Y-91885869D01*
X33844131Y-92033649D01*
X33960247Y-92207429D01*
X34040227Y-92400518D01*
X34081000Y-92605499D01*
X34081000Y-92814501D01*
X34040227Y-93019482D01*
X33960247Y-93212571D01*
X33844131Y-93386351D01*
X33696351Y-93534131D01*
X33522571Y-93650247D01*
X33329482Y-93730227D01*
X33124501Y-93771000D01*
X32915499Y-93771000D01*
X32710518Y-93730227D01*
X32517429Y-93650247D01*
X32343649Y-93534131D01*
X32195869Y-93386351D01*
X32079753Y-93212571D01*
X31999773Y-93019482D01*
X31959000Y-92814501D01*
X31959000Y-92605499D01*
X31999773Y-92400518D01*
X32079753Y-92207429D01*
X32195869Y-92033649D01*
X32343649Y-91885869D01*
X32517429Y-91769753D01*
X32710518Y-91689773D01*
X32915499Y-91649000D01*
X33124501Y-91649000D01*
X33329482Y-91689773D01*
X33329482Y-91689773D01*
G37*
G36*
X33329482Y-89149773D02*
X33522571Y-89229753D01*
X33696351Y-89345869D01*
X33844131Y-89493649D01*
X33960247Y-89667429D01*
X34040227Y-89860518D01*
X34081000Y-90065499D01*
X34081000Y-90274501D01*
X34040227Y-90479482D01*
X33960247Y-90672571D01*
X33844131Y-90846351D01*
X33696351Y-90994131D01*
X33522571Y-91110247D01*
X33329482Y-91190227D01*
X33124501Y-91231000D01*
X32915499Y-91231000D01*
X32710518Y-91190227D01*
X32517429Y-91110247D01*
X32343649Y-90994131D01*
X32195869Y-90846351D01*
X32079753Y-90672571D01*
X31999773Y-90479482D01*
X31959000Y-90274501D01*
X31959000Y-90065499D01*
X31999773Y-89860518D01*
X32079753Y-89667429D01*
X32195869Y-89493649D01*
X32343649Y-89345869D01*
X32517429Y-89229753D01*
X32710518Y-89149773D01*
X32915499Y-89109000D01*
X33124501Y-89109000D01*
X33329482Y-89149773D01*
X33329482Y-89149773D01*
G37*
G36*
X30789482Y-89149773D02*
X30982571Y-89229753D01*
X31156351Y-89345869D01*
X31304131Y-89493649D01*
X31420247Y-89667429D01*
X31500227Y-89860518D01*
X31541000Y-90065499D01*
X31541000Y-90274501D01*
X31500227Y-90479482D01*
X31420247Y-90672571D01*
X31304131Y-90846351D01*
X31156351Y-90994131D01*
X30982571Y-91110247D01*
X30789482Y-91190227D01*
X30584501Y-91231000D01*
X30375499Y-91231000D01*
X30170518Y-91190227D01*
X29977429Y-91110247D01*
X29803649Y-90994131D01*
X29655869Y-90846351D01*
X29539753Y-90672571D01*
X29459773Y-90479482D01*
X29419000Y-90274501D01*
X29419000Y-90065499D01*
X29459773Y-89860518D01*
X29539753Y-89667429D01*
X29655869Y-89493649D01*
X29803649Y-89345869D01*
X29977429Y-89229753D01*
X30170518Y-89149773D01*
X30375499Y-89109000D01*
X30584501Y-89109000D01*
X30789482Y-89149773D01*
X30789482Y-89149773D01*
G37*
G36*
X4437421Y-86831661D02*
X4437423Y-86831662D01*
X4437424Y-86831662D01*
X4828881Y-86993808D01*
X5179594Y-87228147D01*
X5181186Y-87229211D01*
X5480789Y-87528814D01*
X5480791Y-87528817D01*
X5716192Y-87881119D01*
X5878338Y-88272576D01*
X5878339Y-88272579D01*
X5961000Y-88688144D01*
X5961000Y-89111856D01*
X5885057Y-89493649D01*
X5878338Y-89527424D01*
X5716192Y-89918881D01*
X5481853Y-90269594D01*
X5480789Y-90271186D01*
X5181186Y-90570789D01*
X5181183Y-90570791D01*
X4828881Y-90806192D01*
X4437424Y-90968338D01*
X4437423Y-90968338D01*
X4437421Y-90968339D01*
X4021856Y-91051000D01*
X3598144Y-91051000D01*
X3182579Y-90968339D01*
X3182577Y-90968338D01*
X3182576Y-90968338D01*
X2791119Y-90806192D01*
X2438817Y-90570791D01*
X2438814Y-90570789D01*
X2139211Y-90271186D01*
X2138147Y-90269594D01*
X1903808Y-89918881D01*
X1741662Y-89527424D01*
X1734944Y-89493649D01*
X1659000Y-89111856D01*
X1659000Y-88688144D01*
X1741661Y-88272579D01*
X1741662Y-88272576D01*
X1903808Y-87881119D01*
X2139209Y-87528817D01*
X2139211Y-87528814D01*
X2438814Y-87229211D01*
X2440406Y-87228147D01*
X2791119Y-86993808D01*
X3182576Y-86831662D01*
X3182577Y-86831662D01*
X3182579Y-86831661D01*
X3598144Y-86749000D01*
X4021856Y-86749000D01*
X4437421Y-86831661D01*
X4437421Y-86831661D01*
G37*
G36*
X60317421Y-86831661D02*
X60317423Y-86831662D01*
X60317424Y-86831662D01*
X60708881Y-86993808D01*
X61059594Y-87228147D01*
X61061186Y-87229211D01*
X61360789Y-87528814D01*
X61360791Y-87528817D01*
X61596192Y-87881119D01*
X61758338Y-88272576D01*
X61758339Y-88272579D01*
X61841000Y-88688144D01*
X61841000Y-89111856D01*
X61765057Y-89493649D01*
X61758338Y-89527424D01*
X61596192Y-89918881D01*
X61361853Y-90269594D01*
X61360789Y-90271186D01*
X61061186Y-90570789D01*
X61061183Y-90570791D01*
X60708881Y-90806192D01*
X60317424Y-90968338D01*
X60317423Y-90968338D01*
X60317421Y-90968339D01*
X59901856Y-91051000D01*
X59478144Y-91051000D01*
X59062579Y-90968339D01*
X59062577Y-90968338D01*
X59062576Y-90968338D01*
X58671119Y-90806192D01*
X58318817Y-90570791D01*
X58318814Y-90570789D01*
X58019211Y-90271186D01*
X58018147Y-90269594D01*
X57783808Y-89918881D01*
X57621662Y-89527424D01*
X57614944Y-89493649D01*
X57539000Y-89111856D01*
X57539000Y-88688144D01*
X57621661Y-88272579D01*
X57621662Y-88272576D01*
X57783808Y-87881119D01*
X58019209Y-87528817D01*
X58019211Y-87528814D01*
X58318814Y-87229211D01*
X58320406Y-87228147D01*
X58671119Y-86993808D01*
X59062576Y-86831662D01*
X59062577Y-86831662D01*
X59062579Y-86831661D01*
X59478144Y-86749000D01*
X59901856Y-86749000D01*
X60317421Y-86831661D01*
X60317421Y-86831661D01*
G37*
G36*
X33329482Y-86609773D02*
X33522571Y-86689753D01*
X33696351Y-86805869D01*
X33844131Y-86953649D01*
X33960247Y-87127429D01*
X34040227Y-87320518D01*
X34081000Y-87525499D01*
X34081000Y-87734501D01*
X34040227Y-87939482D01*
X33960247Y-88132571D01*
X33844131Y-88306351D01*
X33696351Y-88454131D01*
X33522571Y-88570247D01*
X33329482Y-88650227D01*
X33124501Y-88691000D01*
X32915499Y-88691000D01*
X32710518Y-88650227D01*
X32517429Y-88570247D01*
X32343649Y-88454131D01*
X32195869Y-88306351D01*
X32079753Y-88132571D01*
X31999773Y-87939482D01*
X31959000Y-87734501D01*
X31959000Y-87525499D01*
X31999773Y-87320518D01*
X32079753Y-87127429D01*
X32195869Y-86953649D01*
X32343649Y-86805869D01*
X32517429Y-86689753D01*
X32710518Y-86609773D01*
X32915499Y-86569000D01*
X33124501Y-86569000D01*
X33329482Y-86609773D01*
X33329482Y-86609773D01*
G37*
G36*
X30789482Y-86609773D02*
X30982571Y-86689753D01*
X31156351Y-86805869D01*
X31304131Y-86953649D01*
X31420247Y-87127429D01*
X31500227Y-87320518D01*
X31541000Y-87525499D01*
X31541000Y-87734501D01*
X31500227Y-87939482D01*
X31420247Y-88132571D01*
X31304131Y-88306351D01*
X31156351Y-88454131D01*
X30982571Y-88570247D01*
X30789482Y-88650227D01*
X30584501Y-88691000D01*
X30375499Y-88691000D01*
X30170518Y-88650227D01*
X29977429Y-88570247D01*
X29803649Y-88454131D01*
X29655869Y-88306351D01*
X29539753Y-88132571D01*
X29459773Y-87939482D01*
X29419000Y-87734501D01*
X29419000Y-87525499D01*
X29459773Y-87320518D01*
X29539753Y-87127429D01*
X29655869Y-86953649D01*
X29803649Y-86805869D01*
X29977429Y-86689753D01*
X30170518Y-86609773D01*
X30375499Y-86569000D01*
X30584501Y-86569000D01*
X30789482Y-86609773D01*
X30789482Y-86609773D01*
G37*
G36*
X33329482Y-84069773D02*
X33522571Y-84149753D01*
X33696351Y-84265869D01*
X33844131Y-84413649D01*
X33960247Y-84587429D01*
X34040227Y-84780518D01*
X34081000Y-84985499D01*
X34081000Y-85194501D01*
X34040227Y-85399482D01*
X33960247Y-85592571D01*
X33844131Y-85766351D01*
X33696351Y-85914131D01*
X33522571Y-86030247D01*
X33329482Y-86110227D01*
X33124501Y-86151000D01*
X32915499Y-86151000D01*
X32710518Y-86110227D01*
X32517429Y-86030247D01*
X32343649Y-85914131D01*
X32195869Y-85766351D01*
X32079753Y-85592571D01*
X31999773Y-85399482D01*
X31959000Y-85194501D01*
X31959000Y-84985499D01*
X31999773Y-84780518D01*
X32079753Y-84587429D01*
X32195869Y-84413649D01*
X32343649Y-84265869D01*
X32517429Y-84149753D01*
X32710518Y-84069773D01*
X32915499Y-84029000D01*
X33124501Y-84029000D01*
X33329482Y-84069773D01*
X33329482Y-84069773D01*
G37*
G36*
X30789482Y-84069773D02*
X30982571Y-84149753D01*
X31156351Y-84265869D01*
X31304131Y-84413649D01*
X31420247Y-84587429D01*
X31500227Y-84780518D01*
X31541000Y-84985499D01*
X31541000Y-85194501D01*
X31500227Y-85399482D01*
X31420247Y-85592571D01*
X31304131Y-85766351D01*
X31156351Y-85914131D01*
X30982571Y-86030247D01*
X30789482Y-86110227D01*
X30584501Y-86151000D01*
X30375499Y-86151000D01*
X30170518Y-86110227D01*
X29977429Y-86030247D01*
X29803649Y-85914131D01*
X29655869Y-85766351D01*
X29539753Y-85592571D01*
X29459773Y-85399482D01*
X29419000Y-85194501D01*
X29419000Y-84985499D01*
X29459773Y-84780518D01*
X29539753Y-84587429D01*
X29655869Y-84413649D01*
X29803649Y-84265869D01*
X29977429Y-84149753D01*
X30170518Y-84069773D01*
X30375499Y-84029000D01*
X30584501Y-84029000D01*
X30789482Y-84069773D01*
X30789482Y-84069773D01*
G37*
G36*
X6659482Y-82799773D02*
X6852571Y-82879753D01*
X7026351Y-82995869D01*
X7174131Y-83143649D01*
X7290247Y-83317429D01*
X7370227Y-83510518D01*
X7411000Y-83715499D01*
X7411000Y-83924501D01*
X7370227Y-84129482D01*
X7290247Y-84322571D01*
X7174131Y-84496351D01*
X7026351Y-84644131D01*
X6852571Y-84760247D01*
X6659482Y-84840227D01*
X6454501Y-84881000D01*
X6245499Y-84881000D01*
X6040518Y-84840227D01*
X5847429Y-84760247D01*
X5673649Y-84644131D01*
X5525869Y-84496351D01*
X5409753Y-84322571D01*
X5329773Y-84129482D01*
X5289000Y-83924501D01*
X5289000Y-83715499D01*
X5329773Y-83510518D01*
X5409753Y-83317429D01*
X5525869Y-83143649D01*
X5673649Y-82995869D01*
X5847429Y-82879753D01*
X6040518Y-82799773D01*
X6245499Y-82759000D01*
X6454501Y-82759000D01*
X6659482Y-82799773D01*
X6659482Y-82799773D01*
G37*
G36*
X57459482Y-82799773D02*
X57652571Y-82879753D01*
X57826351Y-82995869D01*
X57974131Y-83143649D01*
X58090247Y-83317429D01*
X58170227Y-83510518D01*
X58211000Y-83715499D01*
X58211000Y-83924501D01*
X58170227Y-84129482D01*
X58090247Y-84322571D01*
X57974131Y-84496351D01*
X57826351Y-84644131D01*
X57652571Y-84760247D01*
X57459482Y-84840227D01*
X57254501Y-84881000D01*
X57045499Y-84881000D01*
X56840518Y-84840227D01*
X56647429Y-84760247D01*
X56473649Y-84644131D01*
X56325869Y-84496351D01*
X56209753Y-84322571D01*
X56129773Y-84129482D01*
X56089000Y-83924501D01*
X56089000Y-83715499D01*
X56129773Y-83510518D01*
X56209753Y-83317429D01*
X56325869Y-83143649D01*
X56473649Y-82995869D01*
X56647429Y-82879753D01*
X56840518Y-82799773D01*
X57045499Y-82759000D01*
X57254501Y-82759000D01*
X57459482Y-82799773D01*
X57459482Y-82799773D01*
G37*
G36*
X59999482Y-82799773D02*
X60192571Y-82879753D01*
X60366351Y-82995869D01*
X60514131Y-83143649D01*
X60630247Y-83317429D01*
X60710227Y-83510518D01*
X60751000Y-83715499D01*
X60751000Y-83924501D01*
X60710227Y-84129482D01*
X60630247Y-84322571D01*
X60514131Y-84496351D01*
X60366351Y-84644131D01*
X60192571Y-84760247D01*
X59999482Y-84840227D01*
X59794501Y-84881000D01*
X59585499Y-84881000D01*
X59380518Y-84840227D01*
X59187429Y-84760247D01*
X59013649Y-84644131D01*
X58865869Y-84496351D01*
X58749753Y-84322571D01*
X58669773Y-84129482D01*
X58629000Y-83924501D01*
X58629000Y-83715499D01*
X58669773Y-83510518D01*
X58749753Y-83317429D01*
X58865869Y-83143649D01*
X59013649Y-82995869D01*
X59187429Y-82879753D01*
X59380518Y-82799773D01*
X59585499Y-82759000D01*
X59794501Y-82759000D01*
X59999482Y-82799773D01*
X59999482Y-82799773D01*
G37*
G36*
X4119482Y-82799773D02*
X4312571Y-82879753D01*
X4486351Y-82995869D01*
X4634131Y-83143649D01*
X4750247Y-83317429D01*
X4830227Y-83510518D01*
X4871000Y-83715499D01*
X4871000Y-83924501D01*
X4830227Y-84129482D01*
X4750247Y-84322571D01*
X4634131Y-84496351D01*
X4486351Y-84644131D01*
X4312571Y-84760247D01*
X4119482Y-84840227D01*
X3914501Y-84881000D01*
X3705499Y-84881000D01*
X3500518Y-84840227D01*
X3307429Y-84760247D01*
X3133649Y-84644131D01*
X2985869Y-84496351D01*
X2869753Y-84322571D01*
X2789773Y-84129482D01*
X2749000Y-83924501D01*
X2749000Y-83715499D01*
X2789773Y-83510518D01*
X2869753Y-83317429D01*
X2985869Y-83143649D01*
X3133649Y-82995869D01*
X3307429Y-82879753D01*
X3500518Y-82799773D01*
X3705499Y-82759000D01*
X3914501Y-82759000D01*
X4119482Y-82799773D01*
X4119482Y-82799773D01*
G37*
G36*
X33329482Y-81529773D02*
X33522571Y-81609753D01*
X33696351Y-81725869D01*
X33844131Y-81873649D01*
X33960247Y-82047429D01*
X34040227Y-82240518D01*
X34081000Y-82445499D01*
X34081000Y-82654501D01*
X34040227Y-82859482D01*
X33960247Y-83052571D01*
X33844131Y-83226351D01*
X33696351Y-83374131D01*
X33522571Y-83490247D01*
X33329482Y-83570227D01*
X33124501Y-83611000D01*
X32915499Y-83611000D01*
X32710518Y-83570227D01*
X32517429Y-83490247D01*
X32343649Y-83374131D01*
X32195869Y-83226351D01*
X32079753Y-83052571D01*
X31999773Y-82859482D01*
X31959000Y-82654501D01*
X31959000Y-82445499D01*
X31999773Y-82240518D01*
X32079753Y-82047429D01*
X32195869Y-81873649D01*
X32343649Y-81725869D01*
X32517429Y-81609753D01*
X32710518Y-81529773D01*
X32915499Y-81489000D01*
X33124501Y-81489000D01*
X33329482Y-81529773D01*
X33329482Y-81529773D01*
G37*
G36*
X30789482Y-81529773D02*
X30982571Y-81609753D01*
X31156351Y-81725869D01*
X31304131Y-81873649D01*
X31420247Y-82047429D01*
X31500227Y-82240518D01*
X31541000Y-82445499D01*
X31541000Y-82654501D01*
X31500227Y-82859482D01*
X31420247Y-83052571D01*
X31304131Y-83226351D01*
X31156351Y-83374131D01*
X30982571Y-83490247D01*
X30789482Y-83570227D01*
X30584501Y-83611000D01*
X30375499Y-83611000D01*
X30170518Y-83570227D01*
X29977429Y-83490247D01*
X29803649Y-83374131D01*
X29655869Y-83226351D01*
X29539753Y-83052571D01*
X29459773Y-82859482D01*
X29419000Y-82654501D01*
X29419000Y-82445499D01*
X29459773Y-82240518D01*
X29539753Y-82047429D01*
X29655869Y-81873649D01*
X29803649Y-81725869D01*
X29977429Y-81609753D01*
X30170518Y-81529773D01*
X30375499Y-81489000D01*
X30584501Y-81489000D01*
X30789482Y-81529773D01*
X30789482Y-81529773D01*
G37*
G36*
X6659482Y-80259773D02*
X6852571Y-80339753D01*
X7026351Y-80455869D01*
X7174131Y-80603649D01*
X7290247Y-80777429D01*
X7370227Y-80970518D01*
X7411000Y-81175499D01*
X7411000Y-81384501D01*
X7370227Y-81589482D01*
X7290247Y-81782571D01*
X7174131Y-81956351D01*
X7026351Y-82104131D01*
X6852571Y-82220247D01*
X6659482Y-82300227D01*
X6454501Y-82341000D01*
X6245499Y-82341000D01*
X6040518Y-82300227D01*
X5847429Y-82220247D01*
X5673649Y-82104131D01*
X5525869Y-81956351D01*
X5409753Y-81782571D01*
X5329773Y-81589482D01*
X5289000Y-81384501D01*
X5289000Y-81175499D01*
X5329773Y-80970518D01*
X5409753Y-80777429D01*
X5525869Y-80603649D01*
X5673649Y-80455869D01*
X5847429Y-80339753D01*
X6040518Y-80259773D01*
X6245499Y-80219000D01*
X6454501Y-80219000D01*
X6659482Y-80259773D01*
X6659482Y-80259773D01*
G37*
G36*
X57459482Y-80259773D02*
X57652571Y-80339753D01*
X57826351Y-80455869D01*
X57974131Y-80603649D01*
X58090247Y-80777429D01*
X58170227Y-80970518D01*
X58211000Y-81175499D01*
X58211000Y-81384501D01*
X58170227Y-81589482D01*
X58090247Y-81782571D01*
X57974131Y-81956351D01*
X57826351Y-82104131D01*
X57652571Y-82220247D01*
X57459482Y-82300227D01*
X57254501Y-82341000D01*
X57045499Y-82341000D01*
X56840518Y-82300227D01*
X56647429Y-82220247D01*
X56473649Y-82104131D01*
X56325869Y-81956351D01*
X56209753Y-81782571D01*
X56129773Y-81589482D01*
X56089000Y-81384501D01*
X56089000Y-81175499D01*
X56129773Y-80970518D01*
X56209753Y-80777429D01*
X56325869Y-80603649D01*
X56473649Y-80455869D01*
X56647429Y-80339753D01*
X56840518Y-80259773D01*
X57045499Y-80219000D01*
X57254501Y-80219000D01*
X57459482Y-80259773D01*
X57459482Y-80259773D01*
G37*
G36*
X4119482Y-80259773D02*
X4312571Y-80339753D01*
X4486351Y-80455869D01*
X4634131Y-80603649D01*
X4750247Y-80777429D01*
X4830227Y-80970518D01*
X4871000Y-81175499D01*
X4871000Y-81384501D01*
X4830227Y-81589482D01*
X4750247Y-81782571D01*
X4634131Y-81956351D01*
X4486351Y-82104131D01*
X4312571Y-82220247D01*
X4119482Y-82300227D01*
X3914501Y-82341000D01*
X3705499Y-82341000D01*
X3500518Y-82300227D01*
X3307429Y-82220247D01*
X3133649Y-82104131D01*
X2985869Y-81956351D01*
X2869753Y-81782571D01*
X2789773Y-81589482D01*
X2749000Y-81384501D01*
X2749000Y-81175499D01*
X2789773Y-80970518D01*
X2869753Y-80777429D01*
X2985869Y-80603649D01*
X3133649Y-80455869D01*
X3307429Y-80339753D01*
X3500518Y-80259773D01*
X3705499Y-80219000D01*
X3914501Y-80219000D01*
X4119482Y-80259773D01*
X4119482Y-80259773D01*
G37*
G36*
X59999482Y-80259773D02*
X60192571Y-80339753D01*
X60366351Y-80455869D01*
X60514131Y-80603649D01*
X60630247Y-80777429D01*
X60710227Y-80970518D01*
X60751000Y-81175499D01*
X60751000Y-81384501D01*
X60710227Y-81589482D01*
X60630247Y-81782571D01*
X60514131Y-81956351D01*
X60366351Y-82104131D01*
X60192571Y-82220247D01*
X59999482Y-82300227D01*
X59794501Y-82341000D01*
X59585499Y-82341000D01*
X59380518Y-82300227D01*
X59187429Y-82220247D01*
X59013649Y-82104131D01*
X58865869Y-81956351D01*
X58749753Y-81782571D01*
X58669773Y-81589482D01*
X58629000Y-81384501D01*
X58629000Y-81175499D01*
X58669773Y-80970518D01*
X58749753Y-80777429D01*
X58865869Y-80603649D01*
X59013649Y-80455869D01*
X59187429Y-80339753D01*
X59380518Y-80259773D01*
X59585499Y-80219000D01*
X59794501Y-80219000D01*
X59999482Y-80259773D01*
X59999482Y-80259773D01*
G37*
G36*
X33329482Y-78989773D02*
X33522571Y-79069753D01*
X33696351Y-79185869D01*
X33844131Y-79333649D01*
X33960247Y-79507429D01*
X34040227Y-79700518D01*
X34081000Y-79905499D01*
X34081000Y-80114501D01*
X34040227Y-80319482D01*
X33960247Y-80512571D01*
X33844131Y-80686351D01*
X33696351Y-80834131D01*
X33522571Y-80950247D01*
X33329482Y-81030227D01*
X33124501Y-81071000D01*
X32915499Y-81071000D01*
X32710518Y-81030227D01*
X32517429Y-80950247D01*
X32343649Y-80834131D01*
X32195869Y-80686351D01*
X32079753Y-80512571D01*
X31999773Y-80319482D01*
X31959000Y-80114501D01*
X31959000Y-79905499D01*
X31999773Y-79700518D01*
X32079753Y-79507429D01*
X32195869Y-79333649D01*
X32343649Y-79185869D01*
X32517429Y-79069753D01*
X32710518Y-78989773D01*
X32915499Y-78949000D01*
X33124501Y-78949000D01*
X33329482Y-78989773D01*
X33329482Y-78989773D01*
G37*
G36*
X30789482Y-78989773D02*
X30982571Y-79069753D01*
X31156351Y-79185869D01*
X31304131Y-79333649D01*
X31420247Y-79507429D01*
X31500227Y-79700518D01*
X31541000Y-79905499D01*
X31541000Y-80114501D01*
X31500227Y-80319482D01*
X31420247Y-80512571D01*
X31304131Y-80686351D01*
X31156351Y-80834131D01*
X30982571Y-80950247D01*
X30789482Y-81030227D01*
X30584501Y-81071000D01*
X30375499Y-81071000D01*
X30170518Y-81030227D01*
X29977429Y-80950247D01*
X29803649Y-80834131D01*
X29655869Y-80686351D01*
X29539753Y-80512571D01*
X29459773Y-80319482D01*
X29419000Y-80114501D01*
X29419000Y-79905499D01*
X29459773Y-79700518D01*
X29539753Y-79507429D01*
X29655869Y-79333649D01*
X29803649Y-79185869D01*
X29977429Y-79069753D01*
X30170518Y-78989773D01*
X30375499Y-78949000D01*
X30584501Y-78949000D01*
X30789482Y-78989773D01*
X30789482Y-78989773D01*
G37*
G36*
X59999482Y-77719773D02*
X60192571Y-77799753D01*
X60366351Y-77915869D01*
X60514131Y-78063649D01*
X60630247Y-78237429D01*
X60710227Y-78430518D01*
X60751000Y-78635499D01*
X60751000Y-78844501D01*
X60710227Y-79049482D01*
X60630247Y-79242571D01*
X60514131Y-79416351D01*
X60366351Y-79564131D01*
X60192571Y-79680247D01*
X59999482Y-79760227D01*
X59794501Y-79801000D01*
X59585499Y-79801000D01*
X59380518Y-79760227D01*
X59187429Y-79680247D01*
X59013649Y-79564131D01*
X58865869Y-79416351D01*
X58749753Y-79242571D01*
X58669773Y-79049482D01*
X58629000Y-78844501D01*
X58629000Y-78635499D01*
X58669773Y-78430518D01*
X58749753Y-78237429D01*
X58865869Y-78063649D01*
X59013649Y-77915869D01*
X59187429Y-77799753D01*
X59380518Y-77719773D01*
X59585499Y-77679000D01*
X59794501Y-77679000D01*
X59999482Y-77719773D01*
X59999482Y-77719773D01*
G37*
G36*
X4119482Y-77719773D02*
X4312571Y-77799753D01*
X4486351Y-77915869D01*
X4634131Y-78063649D01*
X4750247Y-78237429D01*
X4830227Y-78430518D01*
X4871000Y-78635499D01*
X4871000Y-78844501D01*
X4830227Y-79049482D01*
X4750247Y-79242571D01*
X4634131Y-79416351D01*
X4486351Y-79564131D01*
X4312571Y-79680247D01*
X4119482Y-79760227D01*
X3914501Y-79801000D01*
X3705499Y-79801000D01*
X3500518Y-79760227D01*
X3307429Y-79680247D01*
X3133649Y-79564131D01*
X2985869Y-79416351D01*
X2869753Y-79242571D01*
X2789773Y-79049482D01*
X2749000Y-78844501D01*
X2749000Y-78635499D01*
X2789773Y-78430518D01*
X2869753Y-78237429D01*
X2985869Y-78063649D01*
X3133649Y-77915869D01*
X3307429Y-77799753D01*
X3500518Y-77719773D01*
X3705499Y-77679000D01*
X3914501Y-77679000D01*
X4119482Y-77719773D01*
X4119482Y-77719773D01*
G37*
G36*
X6659482Y-77719773D02*
X6852571Y-77799753D01*
X7026351Y-77915869D01*
X7174131Y-78063649D01*
X7290247Y-78237429D01*
X7370227Y-78430518D01*
X7411000Y-78635499D01*
X7411000Y-78844501D01*
X7370227Y-79049482D01*
X7290247Y-79242571D01*
X7174131Y-79416351D01*
X7026351Y-79564131D01*
X6852571Y-79680247D01*
X6659482Y-79760227D01*
X6454501Y-79801000D01*
X6245499Y-79801000D01*
X6040518Y-79760227D01*
X5847429Y-79680247D01*
X5673649Y-79564131D01*
X5525869Y-79416351D01*
X5409753Y-79242571D01*
X5329773Y-79049482D01*
X5289000Y-78844501D01*
X5289000Y-78635499D01*
X5329773Y-78430518D01*
X5409753Y-78237429D01*
X5525869Y-78063649D01*
X5673649Y-77915869D01*
X5847429Y-77799753D01*
X6040518Y-77719773D01*
X6245499Y-77679000D01*
X6454501Y-77679000D01*
X6659482Y-77719773D01*
X6659482Y-77719773D01*
G37*
G36*
X57459482Y-77719773D02*
X57652571Y-77799753D01*
X57826351Y-77915869D01*
X57974131Y-78063649D01*
X58090247Y-78237429D01*
X58170227Y-78430518D01*
X58211000Y-78635499D01*
X58211000Y-78844501D01*
X58170227Y-79049482D01*
X58090247Y-79242571D01*
X57974131Y-79416351D01*
X57826351Y-79564131D01*
X57652571Y-79680247D01*
X57459482Y-79760227D01*
X57254501Y-79801000D01*
X57045499Y-79801000D01*
X56840518Y-79760227D01*
X56647429Y-79680247D01*
X56473649Y-79564131D01*
X56325869Y-79416351D01*
X56209753Y-79242571D01*
X56129773Y-79049482D01*
X56089000Y-78844501D01*
X56089000Y-78635499D01*
X56129773Y-78430518D01*
X56209753Y-78237429D01*
X56325869Y-78063649D01*
X56473649Y-77915869D01*
X56647429Y-77799753D01*
X56840518Y-77719773D01*
X57045499Y-77679000D01*
X57254501Y-77679000D01*
X57459482Y-77719773D01*
X57459482Y-77719773D01*
G37*
G36*
X33329482Y-76449773D02*
X33522571Y-76529753D01*
X33696351Y-76645869D01*
X33844131Y-76793649D01*
X33960247Y-76967429D01*
X34040227Y-77160518D01*
X34081000Y-77365499D01*
X34081000Y-77574501D01*
X34040227Y-77779482D01*
X33960247Y-77972571D01*
X33844131Y-78146351D01*
X33696351Y-78294131D01*
X33522571Y-78410247D01*
X33329482Y-78490227D01*
X33124501Y-78531000D01*
X32915499Y-78531000D01*
X32710518Y-78490227D01*
X32517429Y-78410247D01*
X32343649Y-78294131D01*
X32195869Y-78146351D01*
X32079753Y-77972571D01*
X31999773Y-77779482D01*
X31959000Y-77574501D01*
X31959000Y-77365499D01*
X31999773Y-77160518D01*
X32079753Y-76967429D01*
X32195869Y-76793649D01*
X32343649Y-76645869D01*
X32517429Y-76529753D01*
X32710518Y-76449773D01*
X32915499Y-76409000D01*
X33124501Y-76409000D01*
X33329482Y-76449773D01*
X33329482Y-76449773D01*
G37*
G36*
X30789482Y-76449773D02*
X30982571Y-76529753D01*
X31156351Y-76645869D01*
X31304131Y-76793649D01*
X31420247Y-76967429D01*
X31500227Y-77160518D01*
X31541000Y-77365499D01*
X31541000Y-77574501D01*
X31500227Y-77779482D01*
X31420247Y-77972571D01*
X31304131Y-78146351D01*
X31156351Y-78294131D01*
X30982571Y-78410247D01*
X30789482Y-78490227D01*
X30584501Y-78531000D01*
X30375499Y-78531000D01*
X30170518Y-78490227D01*
X29977429Y-78410247D01*
X29803649Y-78294131D01*
X29655869Y-78146351D01*
X29539753Y-77972571D01*
X29459773Y-77779482D01*
X29419000Y-77574501D01*
X29419000Y-77365499D01*
X29459773Y-77160518D01*
X29539753Y-76967429D01*
X29655869Y-76793649D01*
X29803649Y-76645869D01*
X29977429Y-76529753D01*
X30170518Y-76449773D01*
X30375499Y-76409000D01*
X30584501Y-76409000D01*
X30789482Y-76449773D01*
X30789482Y-76449773D01*
G37*
G36*
X59999482Y-75179773D02*
X60192571Y-75259753D01*
X60366351Y-75375869D01*
X60514131Y-75523649D01*
X60630247Y-75697429D01*
X60710227Y-75890518D01*
X60751000Y-76095499D01*
X60751000Y-76304501D01*
X60710227Y-76509482D01*
X60630247Y-76702571D01*
X60514131Y-76876351D01*
X60366351Y-77024131D01*
X60192571Y-77140247D01*
X59999482Y-77220227D01*
X59794501Y-77261000D01*
X59585499Y-77261000D01*
X59380518Y-77220227D01*
X59187429Y-77140247D01*
X59013649Y-77024131D01*
X58865869Y-76876351D01*
X58749753Y-76702571D01*
X58669773Y-76509482D01*
X58629000Y-76304501D01*
X58629000Y-76095499D01*
X58669773Y-75890518D01*
X58749753Y-75697429D01*
X58865869Y-75523649D01*
X59013649Y-75375869D01*
X59187429Y-75259753D01*
X59380518Y-75179773D01*
X59585499Y-75139000D01*
X59794501Y-75139000D01*
X59999482Y-75179773D01*
X59999482Y-75179773D01*
G37*
G36*
X4119482Y-75179773D02*
X4312571Y-75259753D01*
X4486351Y-75375869D01*
X4634131Y-75523649D01*
X4750247Y-75697429D01*
X4830227Y-75890518D01*
X4871000Y-76095499D01*
X4871000Y-76304501D01*
X4830227Y-76509482D01*
X4750247Y-76702571D01*
X4634131Y-76876351D01*
X4486351Y-77024131D01*
X4312571Y-77140247D01*
X4119482Y-77220227D01*
X3914501Y-77261000D01*
X3705499Y-77261000D01*
X3500518Y-77220227D01*
X3307429Y-77140247D01*
X3133649Y-77024131D01*
X2985869Y-76876351D01*
X2869753Y-76702571D01*
X2789773Y-76509482D01*
X2749000Y-76304501D01*
X2749000Y-76095499D01*
X2789773Y-75890518D01*
X2869753Y-75697429D01*
X2985869Y-75523649D01*
X3133649Y-75375869D01*
X3307429Y-75259753D01*
X3500518Y-75179773D01*
X3705499Y-75139000D01*
X3914501Y-75139000D01*
X4119482Y-75179773D01*
X4119482Y-75179773D01*
G37*
G36*
X57459482Y-75179773D02*
X57652571Y-75259753D01*
X57826351Y-75375869D01*
X57974131Y-75523649D01*
X58090247Y-75697429D01*
X58170227Y-75890518D01*
X58211000Y-76095499D01*
X58211000Y-76304501D01*
X58170227Y-76509482D01*
X58090247Y-76702571D01*
X57974131Y-76876351D01*
X57826351Y-77024131D01*
X57652571Y-77140247D01*
X57459482Y-77220227D01*
X57254501Y-77261000D01*
X57045499Y-77261000D01*
X56840518Y-77220227D01*
X56647429Y-77140247D01*
X56473649Y-77024131D01*
X56325869Y-76876351D01*
X56209753Y-76702571D01*
X56129773Y-76509482D01*
X56089000Y-76304501D01*
X56089000Y-76095499D01*
X56129773Y-75890518D01*
X56209753Y-75697429D01*
X56325869Y-75523649D01*
X56473649Y-75375869D01*
X56647429Y-75259753D01*
X56840518Y-75179773D01*
X57045499Y-75139000D01*
X57254501Y-75139000D01*
X57459482Y-75179773D01*
X57459482Y-75179773D01*
G37*
G36*
X6659482Y-75179773D02*
X6852571Y-75259753D01*
X7026351Y-75375869D01*
X7174131Y-75523649D01*
X7290247Y-75697429D01*
X7370227Y-75890518D01*
X7411000Y-76095499D01*
X7411000Y-76304501D01*
X7370227Y-76509482D01*
X7290247Y-76702571D01*
X7174131Y-76876351D01*
X7026351Y-77024131D01*
X6852571Y-77140247D01*
X6659482Y-77220227D01*
X6454501Y-77261000D01*
X6245499Y-77261000D01*
X6040518Y-77220227D01*
X5847429Y-77140247D01*
X5673649Y-77024131D01*
X5525869Y-76876351D01*
X5409753Y-76702571D01*
X5329773Y-76509482D01*
X5289000Y-76304501D01*
X5289000Y-76095499D01*
X5329773Y-75890518D01*
X5409753Y-75697429D01*
X5525869Y-75523649D01*
X5673649Y-75375869D01*
X5847429Y-75259753D01*
X6040518Y-75179773D01*
X6245499Y-75139000D01*
X6454501Y-75139000D01*
X6659482Y-75179773D01*
X6659482Y-75179773D01*
G37*
G36*
X30789482Y-73909773D02*
X30982571Y-73989753D01*
X31156351Y-74105869D01*
X31304131Y-74253649D01*
X31420247Y-74427429D01*
X31500227Y-74620518D01*
X31541000Y-74825499D01*
X31541000Y-75034501D01*
X31500227Y-75239482D01*
X31420247Y-75432571D01*
X31304131Y-75606351D01*
X31156351Y-75754131D01*
X30982571Y-75870247D01*
X30789482Y-75950227D01*
X30584501Y-75991000D01*
X30375499Y-75991000D01*
X30170518Y-75950227D01*
X29977429Y-75870247D01*
X29803649Y-75754131D01*
X29655869Y-75606351D01*
X29539753Y-75432571D01*
X29459773Y-75239482D01*
X29419000Y-75034501D01*
X29419000Y-74825499D01*
X29459773Y-74620518D01*
X29539753Y-74427429D01*
X29655869Y-74253649D01*
X29803649Y-74105869D01*
X29977429Y-73989753D01*
X30170518Y-73909773D01*
X30375499Y-73869000D01*
X30584501Y-73869000D01*
X30789482Y-73909773D01*
X30789482Y-73909773D01*
G37*
G36*
X33329482Y-73909773D02*
X33522571Y-73989753D01*
X33696351Y-74105869D01*
X33844131Y-74253649D01*
X33960247Y-74427429D01*
X34040227Y-74620518D01*
X34081000Y-74825499D01*
X34081000Y-75034501D01*
X34040227Y-75239482D01*
X33960247Y-75432571D01*
X33844131Y-75606351D01*
X33696351Y-75754131D01*
X33522571Y-75870247D01*
X33329482Y-75950227D01*
X33124501Y-75991000D01*
X32915499Y-75991000D01*
X32710518Y-75950227D01*
X32517429Y-75870247D01*
X32343649Y-75754131D01*
X32195869Y-75606351D01*
X32079753Y-75432571D01*
X31999773Y-75239482D01*
X31959000Y-75034501D01*
X31959000Y-74825499D01*
X31999773Y-74620518D01*
X32079753Y-74427429D01*
X32195869Y-74253649D01*
X32343649Y-74105869D01*
X32517429Y-73989753D01*
X32710518Y-73909773D01*
X32915499Y-73869000D01*
X33124501Y-73869000D01*
X33329482Y-73909773D01*
X33329482Y-73909773D01*
G37*
G36*
X4119482Y-72639773D02*
X4312571Y-72719753D01*
X4486351Y-72835869D01*
X4634131Y-72983649D01*
X4750247Y-73157429D01*
X4830227Y-73350518D01*
X4871000Y-73555499D01*
X4871000Y-73764501D01*
X4830227Y-73969482D01*
X4750247Y-74162571D01*
X4634131Y-74336351D01*
X4486351Y-74484131D01*
X4312571Y-74600247D01*
X4119482Y-74680227D01*
X3914501Y-74721000D01*
X3705499Y-74721000D01*
X3500518Y-74680227D01*
X3307429Y-74600247D01*
X3133649Y-74484131D01*
X2985869Y-74336351D01*
X2869753Y-74162571D01*
X2789773Y-73969482D01*
X2749000Y-73764501D01*
X2749000Y-73555499D01*
X2789773Y-73350518D01*
X2869753Y-73157429D01*
X2985869Y-72983649D01*
X3133649Y-72835869D01*
X3307429Y-72719753D01*
X3500518Y-72639773D01*
X3705499Y-72599000D01*
X3914501Y-72599000D01*
X4119482Y-72639773D01*
X4119482Y-72639773D01*
G37*
G36*
X6659482Y-72639773D02*
X6852571Y-72719753D01*
X7026351Y-72835869D01*
X7174131Y-72983649D01*
X7290247Y-73157429D01*
X7370227Y-73350518D01*
X7411000Y-73555499D01*
X7411000Y-73764501D01*
X7370227Y-73969482D01*
X7290247Y-74162571D01*
X7174131Y-74336351D01*
X7026351Y-74484131D01*
X6852571Y-74600247D01*
X6659482Y-74680227D01*
X6454501Y-74721000D01*
X6245499Y-74721000D01*
X6040518Y-74680227D01*
X5847429Y-74600247D01*
X5673649Y-74484131D01*
X5525869Y-74336351D01*
X5409753Y-74162571D01*
X5329773Y-73969482D01*
X5289000Y-73764501D01*
X5289000Y-73555499D01*
X5329773Y-73350518D01*
X5409753Y-73157429D01*
X5525869Y-72983649D01*
X5673649Y-72835869D01*
X5847429Y-72719753D01*
X6040518Y-72639773D01*
X6245499Y-72599000D01*
X6454501Y-72599000D01*
X6659482Y-72639773D01*
X6659482Y-72639773D01*
G37*
G36*
X57459482Y-72639773D02*
X57652571Y-72719753D01*
X57826351Y-72835869D01*
X57974131Y-72983649D01*
X58090247Y-73157429D01*
X58170227Y-73350518D01*
X58211000Y-73555499D01*
X58211000Y-73764501D01*
X58170227Y-73969482D01*
X58090247Y-74162571D01*
X57974131Y-74336351D01*
X57826351Y-74484131D01*
X57652571Y-74600247D01*
X57459482Y-74680227D01*
X57254501Y-74721000D01*
X57045499Y-74721000D01*
X56840518Y-74680227D01*
X56647429Y-74600247D01*
X56473649Y-74484131D01*
X56325869Y-74336351D01*
X56209753Y-74162571D01*
X56129773Y-73969482D01*
X56089000Y-73764501D01*
X56089000Y-73555499D01*
X56129773Y-73350518D01*
X56209753Y-73157429D01*
X56325869Y-72983649D01*
X56473649Y-72835869D01*
X56647429Y-72719753D01*
X56840518Y-72639773D01*
X57045499Y-72599000D01*
X57254501Y-72599000D01*
X57459482Y-72639773D01*
X57459482Y-72639773D01*
G37*
G36*
X59999482Y-72639773D02*
X60192571Y-72719753D01*
X60366351Y-72835869D01*
X60514131Y-72983649D01*
X60630247Y-73157429D01*
X60710227Y-73350518D01*
X60751000Y-73555499D01*
X60751000Y-73764501D01*
X60710227Y-73969482D01*
X60630247Y-74162571D01*
X60514131Y-74336351D01*
X60366351Y-74484131D01*
X60192571Y-74600247D01*
X59999482Y-74680227D01*
X59794501Y-74721000D01*
X59585499Y-74721000D01*
X59380518Y-74680227D01*
X59187429Y-74600247D01*
X59013649Y-74484131D01*
X58865869Y-74336351D01*
X58749753Y-74162571D01*
X58669773Y-73969482D01*
X58629000Y-73764501D01*
X58629000Y-73555499D01*
X58669773Y-73350518D01*
X58749753Y-73157429D01*
X58865869Y-72983649D01*
X59013649Y-72835869D01*
X59187429Y-72719753D01*
X59380518Y-72639773D01*
X59585499Y-72599000D01*
X59794501Y-72599000D01*
X59999482Y-72639773D01*
X59999482Y-72639773D01*
G37*
G36*
X33329482Y-71369773D02*
X33522571Y-71449753D01*
X33696351Y-71565869D01*
X33844131Y-71713649D01*
X33960247Y-71887429D01*
X34040227Y-72080518D01*
X34081000Y-72285499D01*
X34081000Y-72494501D01*
X34040227Y-72699482D01*
X33960247Y-72892571D01*
X33844131Y-73066351D01*
X33696351Y-73214131D01*
X33522571Y-73330247D01*
X33329482Y-73410227D01*
X33124501Y-73451000D01*
X32915499Y-73451000D01*
X32710518Y-73410227D01*
X32517429Y-73330247D01*
X32343649Y-73214131D01*
X32195869Y-73066351D01*
X32079753Y-72892571D01*
X31999773Y-72699482D01*
X31959000Y-72494501D01*
X31959000Y-72285499D01*
X31999773Y-72080518D01*
X32079753Y-71887429D01*
X32195869Y-71713649D01*
X32343649Y-71565869D01*
X32517429Y-71449753D01*
X32710518Y-71369773D01*
X32915499Y-71329000D01*
X33124501Y-71329000D01*
X33329482Y-71369773D01*
X33329482Y-71369773D01*
G37*
G36*
X30789482Y-71369773D02*
X30982571Y-71449753D01*
X31156351Y-71565869D01*
X31304131Y-71713649D01*
X31420247Y-71887429D01*
X31500227Y-72080518D01*
X31541000Y-72285499D01*
X31541000Y-72494501D01*
X31500227Y-72699482D01*
X31420247Y-72892571D01*
X31304131Y-73066351D01*
X31156351Y-73214131D01*
X30982571Y-73330247D01*
X30789482Y-73410227D01*
X30584501Y-73451000D01*
X30375499Y-73451000D01*
X30170518Y-73410227D01*
X29977429Y-73330247D01*
X29803649Y-73214131D01*
X29655869Y-73066351D01*
X29539753Y-72892571D01*
X29459773Y-72699482D01*
X29419000Y-72494501D01*
X29419000Y-72285499D01*
X29459773Y-72080518D01*
X29539753Y-71887429D01*
X29655869Y-71713649D01*
X29803649Y-71565869D01*
X29977429Y-71449753D01*
X30170518Y-71369773D01*
X30375499Y-71329000D01*
X30584501Y-71329000D01*
X30789482Y-71369773D01*
X30789482Y-71369773D01*
G37*
G36*
X57459482Y-70099773D02*
X57652571Y-70179753D01*
X57826351Y-70295869D01*
X57974131Y-70443649D01*
X58090247Y-70617429D01*
X58170227Y-70810518D01*
X58211000Y-71015499D01*
X58211000Y-71224501D01*
X58170227Y-71429482D01*
X58090247Y-71622571D01*
X57974131Y-71796351D01*
X57826351Y-71944131D01*
X57652571Y-72060247D01*
X57459482Y-72140227D01*
X57254501Y-72181000D01*
X57045499Y-72181000D01*
X56840518Y-72140227D01*
X56647429Y-72060247D01*
X56473649Y-71944131D01*
X56325869Y-71796351D01*
X56209753Y-71622571D01*
X56129773Y-71429482D01*
X56089000Y-71224501D01*
X56089000Y-71015499D01*
X56129773Y-70810518D01*
X56209753Y-70617429D01*
X56325869Y-70443649D01*
X56473649Y-70295869D01*
X56647429Y-70179753D01*
X56840518Y-70099773D01*
X57045499Y-70059000D01*
X57254501Y-70059000D01*
X57459482Y-70099773D01*
X57459482Y-70099773D01*
G37*
G36*
X4119482Y-70099773D02*
X4312571Y-70179753D01*
X4486351Y-70295869D01*
X4634131Y-70443649D01*
X4750247Y-70617429D01*
X4830227Y-70810518D01*
X4871000Y-71015499D01*
X4871000Y-71224501D01*
X4830227Y-71429482D01*
X4750247Y-71622571D01*
X4634131Y-71796351D01*
X4486351Y-71944131D01*
X4312571Y-72060247D01*
X4119482Y-72140227D01*
X3914501Y-72181000D01*
X3705499Y-72181000D01*
X3500518Y-72140227D01*
X3307429Y-72060247D01*
X3133649Y-71944131D01*
X2985869Y-71796351D01*
X2869753Y-71622571D01*
X2789773Y-71429482D01*
X2749000Y-71224501D01*
X2749000Y-71015499D01*
X2789773Y-70810518D01*
X2869753Y-70617429D01*
X2985869Y-70443649D01*
X3133649Y-70295869D01*
X3307429Y-70179753D01*
X3500518Y-70099773D01*
X3705499Y-70059000D01*
X3914501Y-70059000D01*
X4119482Y-70099773D01*
X4119482Y-70099773D01*
G37*
G36*
X59999482Y-70099773D02*
X60192571Y-70179753D01*
X60366351Y-70295869D01*
X60514131Y-70443649D01*
X60630247Y-70617429D01*
X60710227Y-70810518D01*
X60751000Y-71015499D01*
X60751000Y-71224501D01*
X60710227Y-71429482D01*
X60630247Y-71622571D01*
X60514131Y-71796351D01*
X60366351Y-71944131D01*
X60192571Y-72060247D01*
X59999482Y-72140227D01*
X59794501Y-72181000D01*
X59585499Y-72181000D01*
X59380518Y-72140227D01*
X59187429Y-72060247D01*
X59013649Y-71944131D01*
X58865869Y-71796351D01*
X58749753Y-71622571D01*
X58669773Y-71429482D01*
X58629000Y-71224501D01*
X58629000Y-71015499D01*
X58669773Y-70810518D01*
X58749753Y-70617429D01*
X58865869Y-70443649D01*
X59013649Y-70295869D01*
X59187429Y-70179753D01*
X59380518Y-70099773D01*
X59585499Y-70059000D01*
X59794501Y-70059000D01*
X59999482Y-70099773D01*
X59999482Y-70099773D01*
G37*
G36*
X6659482Y-70099773D02*
X6852571Y-70179753D01*
X7026351Y-70295869D01*
X7174131Y-70443649D01*
X7290247Y-70617429D01*
X7370227Y-70810518D01*
X7411000Y-71015499D01*
X7411000Y-71224501D01*
X7370227Y-71429482D01*
X7290247Y-71622571D01*
X7174131Y-71796351D01*
X7026351Y-71944131D01*
X6852571Y-72060247D01*
X6659482Y-72140227D01*
X6454501Y-72181000D01*
X6245499Y-72181000D01*
X6040518Y-72140227D01*
X5847429Y-72060247D01*
X5673649Y-71944131D01*
X5525869Y-71796351D01*
X5409753Y-71622571D01*
X5329773Y-71429482D01*
X5289000Y-71224501D01*
X5289000Y-71015499D01*
X5329773Y-70810518D01*
X5409753Y-70617429D01*
X5525869Y-70443649D01*
X5673649Y-70295869D01*
X5847429Y-70179753D01*
X6040518Y-70099773D01*
X6245499Y-70059000D01*
X6454501Y-70059000D01*
X6659482Y-70099773D01*
X6659482Y-70099773D01*
G37*
G36*
X33329482Y-68829773D02*
X33522571Y-68909753D01*
X33696351Y-69025869D01*
X33844131Y-69173649D01*
X33960247Y-69347429D01*
X34040227Y-69540518D01*
X34081000Y-69745499D01*
X34081000Y-69954501D01*
X34040227Y-70159482D01*
X33960247Y-70352571D01*
X33844131Y-70526351D01*
X33696351Y-70674131D01*
X33522571Y-70790247D01*
X33329482Y-70870227D01*
X33124501Y-70911000D01*
X32915499Y-70911000D01*
X32710518Y-70870227D01*
X32517429Y-70790247D01*
X32343649Y-70674131D01*
X32195869Y-70526351D01*
X32079753Y-70352571D01*
X31999773Y-70159482D01*
X31959000Y-69954501D01*
X31959000Y-69745499D01*
X31999773Y-69540518D01*
X32079753Y-69347429D01*
X32195869Y-69173649D01*
X32343649Y-69025869D01*
X32517429Y-68909753D01*
X32710518Y-68829773D01*
X32915499Y-68789000D01*
X33124501Y-68789000D01*
X33329482Y-68829773D01*
X33329482Y-68829773D01*
G37*
G36*
X30789482Y-68829773D02*
X30982571Y-68909753D01*
X31156351Y-69025869D01*
X31304131Y-69173649D01*
X31420247Y-69347429D01*
X31500227Y-69540518D01*
X31541000Y-69745499D01*
X31541000Y-69954501D01*
X31500227Y-70159482D01*
X31420247Y-70352571D01*
X31304131Y-70526351D01*
X31156351Y-70674131D01*
X30982571Y-70790247D01*
X30789482Y-70870227D01*
X30584501Y-70911000D01*
X30375499Y-70911000D01*
X30170518Y-70870227D01*
X29977429Y-70790247D01*
X29803649Y-70674131D01*
X29655869Y-70526351D01*
X29539753Y-70352571D01*
X29459773Y-70159482D01*
X29419000Y-69954501D01*
X29419000Y-69745499D01*
X29459773Y-69540518D01*
X29539753Y-69347429D01*
X29655869Y-69173649D01*
X29803649Y-69025869D01*
X29977429Y-68909753D01*
X30170518Y-68829773D01*
X30375499Y-68789000D01*
X30584501Y-68789000D01*
X30789482Y-68829773D01*
X30789482Y-68829773D01*
G37*
G36*
X59999482Y-67559773D02*
X60192571Y-67639753D01*
X60366351Y-67755869D01*
X60514131Y-67903649D01*
X60630247Y-68077429D01*
X60710227Y-68270518D01*
X60751000Y-68475499D01*
X60751000Y-68684501D01*
X60710227Y-68889482D01*
X60630247Y-69082571D01*
X60514131Y-69256351D01*
X60366351Y-69404131D01*
X60192571Y-69520247D01*
X59999482Y-69600227D01*
X59794501Y-69641000D01*
X59585499Y-69641000D01*
X59380518Y-69600227D01*
X59187429Y-69520247D01*
X59013649Y-69404131D01*
X58865869Y-69256351D01*
X58749753Y-69082571D01*
X58669773Y-68889482D01*
X58629000Y-68684501D01*
X58629000Y-68475499D01*
X58669773Y-68270518D01*
X58749753Y-68077429D01*
X58865869Y-67903649D01*
X59013649Y-67755869D01*
X59187429Y-67639753D01*
X59380518Y-67559773D01*
X59585499Y-67519000D01*
X59794501Y-67519000D01*
X59999482Y-67559773D01*
X59999482Y-67559773D01*
G37*
G36*
X4119482Y-67559773D02*
X4312571Y-67639753D01*
X4486351Y-67755869D01*
X4634131Y-67903649D01*
X4750247Y-68077429D01*
X4830227Y-68270518D01*
X4871000Y-68475499D01*
X4871000Y-68684501D01*
X4830227Y-68889482D01*
X4750247Y-69082571D01*
X4634131Y-69256351D01*
X4486351Y-69404131D01*
X4312571Y-69520247D01*
X4119482Y-69600227D01*
X3914501Y-69641000D01*
X3705499Y-69641000D01*
X3500518Y-69600227D01*
X3307429Y-69520247D01*
X3133649Y-69404131D01*
X2985869Y-69256351D01*
X2869753Y-69082571D01*
X2789773Y-68889482D01*
X2749000Y-68684501D01*
X2749000Y-68475499D01*
X2789773Y-68270518D01*
X2869753Y-68077429D01*
X2985869Y-67903649D01*
X3133649Y-67755869D01*
X3307429Y-67639753D01*
X3500518Y-67559773D01*
X3705499Y-67519000D01*
X3914501Y-67519000D01*
X4119482Y-67559773D01*
X4119482Y-67559773D01*
G37*
G36*
X6659482Y-67559773D02*
X6852571Y-67639753D01*
X7026351Y-67755869D01*
X7174131Y-67903649D01*
X7290247Y-68077429D01*
X7370227Y-68270518D01*
X7411000Y-68475499D01*
X7411000Y-68684501D01*
X7370227Y-68889482D01*
X7290247Y-69082571D01*
X7174131Y-69256351D01*
X7026351Y-69404131D01*
X6852571Y-69520247D01*
X6659482Y-69600227D01*
X6454501Y-69641000D01*
X6245499Y-69641000D01*
X6040518Y-69600227D01*
X5847429Y-69520247D01*
X5673649Y-69404131D01*
X5525869Y-69256351D01*
X5409753Y-69082571D01*
X5329773Y-68889482D01*
X5289000Y-68684501D01*
X5289000Y-68475499D01*
X5329773Y-68270518D01*
X5409753Y-68077429D01*
X5525869Y-67903649D01*
X5673649Y-67755869D01*
X5847429Y-67639753D01*
X6040518Y-67559773D01*
X6245499Y-67519000D01*
X6454501Y-67519000D01*
X6659482Y-67559773D01*
X6659482Y-67559773D01*
G37*
G36*
X57459482Y-67559773D02*
X57652571Y-67639753D01*
X57826351Y-67755869D01*
X57974131Y-67903649D01*
X58090247Y-68077429D01*
X58170227Y-68270518D01*
X58211000Y-68475499D01*
X58211000Y-68684501D01*
X58170227Y-68889482D01*
X58090247Y-69082571D01*
X57974131Y-69256351D01*
X57826351Y-69404131D01*
X57652571Y-69520247D01*
X57459482Y-69600227D01*
X57254501Y-69641000D01*
X57045499Y-69641000D01*
X56840518Y-69600227D01*
X56647429Y-69520247D01*
X56473649Y-69404131D01*
X56325869Y-69256351D01*
X56209753Y-69082571D01*
X56129773Y-68889482D01*
X56089000Y-68684501D01*
X56089000Y-68475499D01*
X56129773Y-68270518D01*
X56209753Y-68077429D01*
X56325869Y-67903649D01*
X56473649Y-67755869D01*
X56647429Y-67639753D01*
X56840518Y-67559773D01*
X57045499Y-67519000D01*
X57254501Y-67519000D01*
X57459482Y-67559773D01*
X57459482Y-67559773D01*
G37*
G36*
X30789482Y-66289773D02*
X30982571Y-66369753D01*
X31156351Y-66485869D01*
X31304131Y-66633649D01*
X31420247Y-66807429D01*
X31500227Y-67000518D01*
X31541000Y-67205499D01*
X31541000Y-67414501D01*
X31500227Y-67619482D01*
X31420247Y-67812571D01*
X31304131Y-67986351D01*
X31156351Y-68134131D01*
X30982571Y-68250247D01*
X30789482Y-68330227D01*
X30584501Y-68371000D01*
X30375499Y-68371000D01*
X30170518Y-68330227D01*
X29977429Y-68250247D01*
X29803649Y-68134131D01*
X29655869Y-67986351D01*
X29539753Y-67812571D01*
X29459773Y-67619482D01*
X29419000Y-67414501D01*
X29419000Y-67205499D01*
X29459773Y-67000518D01*
X29539753Y-66807429D01*
X29655869Y-66633649D01*
X29803649Y-66485869D01*
X29977429Y-66369753D01*
X30170518Y-66289773D01*
X30375499Y-66249000D01*
X30584501Y-66249000D01*
X30789482Y-66289773D01*
X30789482Y-66289773D01*
G37*
G36*
X33329482Y-66289773D02*
X33522571Y-66369753D01*
X33696351Y-66485869D01*
X33844131Y-66633649D01*
X33960247Y-66807429D01*
X34040227Y-67000518D01*
X34081000Y-67205499D01*
X34081000Y-67414501D01*
X34040227Y-67619482D01*
X33960247Y-67812571D01*
X33844131Y-67986351D01*
X33696351Y-68134131D01*
X33522571Y-68250247D01*
X33329482Y-68330227D01*
X33124501Y-68371000D01*
X32915499Y-68371000D01*
X32710518Y-68330227D01*
X32517429Y-68250247D01*
X32343649Y-68134131D01*
X32195869Y-67986351D01*
X32079753Y-67812571D01*
X31999773Y-67619482D01*
X31959000Y-67414501D01*
X31959000Y-67205499D01*
X31999773Y-67000518D01*
X32079753Y-66807429D01*
X32195869Y-66633649D01*
X32343649Y-66485869D01*
X32517429Y-66369753D01*
X32710518Y-66289773D01*
X32915499Y-66249000D01*
X33124501Y-66249000D01*
X33329482Y-66289773D01*
X33329482Y-66289773D01*
G37*
G36*
X33329482Y-63749773D02*
X33522571Y-63829753D01*
X33696351Y-63945869D01*
X33844131Y-64093649D01*
X33960247Y-64267429D01*
X34040227Y-64460518D01*
X34081000Y-64665499D01*
X34081000Y-64874501D01*
X34040227Y-65079482D01*
X33960247Y-65272571D01*
X33844131Y-65446351D01*
X33696351Y-65594131D01*
X33522571Y-65710247D01*
X33329482Y-65790227D01*
X33124501Y-65831000D01*
X32915499Y-65831000D01*
X32710518Y-65790227D01*
X32517429Y-65710247D01*
X32343649Y-65594131D01*
X32195869Y-65446351D01*
X32079753Y-65272571D01*
X31999773Y-65079482D01*
X31959000Y-64874501D01*
X31959000Y-64665499D01*
X31999773Y-64460518D01*
X32079753Y-64267429D01*
X32195869Y-64093649D01*
X32343649Y-63945869D01*
X32517429Y-63829753D01*
X32710518Y-63749773D01*
X32915499Y-63709000D01*
X33124501Y-63709000D01*
X33329482Y-63749773D01*
X33329482Y-63749773D01*
G37*
G36*
X30789482Y-63749773D02*
X30982571Y-63829753D01*
X31156351Y-63945869D01*
X31304131Y-64093649D01*
X31420247Y-64267429D01*
X31500227Y-64460518D01*
X31541000Y-64665499D01*
X31541000Y-64874501D01*
X31500227Y-65079482D01*
X31420247Y-65272571D01*
X31304131Y-65446351D01*
X31156351Y-65594131D01*
X30982571Y-65710247D01*
X30789482Y-65790227D01*
X30584501Y-65831000D01*
X30375499Y-65831000D01*
X30170518Y-65790227D01*
X29977429Y-65710247D01*
X29803649Y-65594131D01*
X29655869Y-65446351D01*
X29539753Y-65272571D01*
X29459773Y-65079482D01*
X29419000Y-64874501D01*
X29419000Y-64665499D01*
X29459773Y-64460518D01*
X29539753Y-64267429D01*
X29655869Y-64093649D01*
X29803649Y-63945869D01*
X29977429Y-63829753D01*
X30170518Y-63749773D01*
X30375499Y-63709000D01*
X30584501Y-63709000D01*
X30789482Y-63749773D01*
X30789482Y-63749773D01*
G37*
G36*
X60774562Y-63086181D02*
X60809477Y-63096773D01*
X60841665Y-63113978D01*
X60869873Y-63137127D01*
X60893022Y-63165335D01*
X60910227Y-63197523D01*
X60920819Y-63232438D01*
X60925000Y-63274895D01*
X60925000Y-64741105D01*
X60920819Y-64783562D01*
X60910227Y-64818477D01*
X60893022Y-64850665D01*
X60869873Y-64878873D01*
X60841665Y-64902022D01*
X60809477Y-64919227D01*
X60774562Y-64929819D01*
X60732105Y-64934000D01*
X59590895Y-64934000D01*
X59548438Y-64929819D01*
X59513523Y-64919227D01*
X59481335Y-64902022D01*
X59453127Y-64878873D01*
X59429978Y-64850665D01*
X59412773Y-64818477D01*
X59402181Y-64783562D01*
X59398000Y-64741105D01*
X59398000Y-63274895D01*
X59402181Y-63232438D01*
X59412773Y-63197523D01*
X59429978Y-63165335D01*
X59453127Y-63137127D01*
X59481335Y-63113978D01*
X59513523Y-63096773D01*
X59548438Y-63086181D01*
X59590895Y-63082000D01*
X60732105Y-63082000D01*
X60774562Y-63086181D01*
X60774562Y-63086181D01*
G37*
G36*
X57799562Y-63086181D02*
X57834477Y-63096773D01*
X57866665Y-63113978D01*
X57894873Y-63137127D01*
X57918022Y-63165335D01*
X57935227Y-63197523D01*
X57945819Y-63232438D01*
X57950000Y-63274895D01*
X57950000Y-64741105D01*
X57945819Y-64783562D01*
X57935227Y-64818477D01*
X57918022Y-64850665D01*
X57894873Y-64878873D01*
X57866665Y-64902022D01*
X57834477Y-64919227D01*
X57799562Y-64929819D01*
X57757105Y-64934000D01*
X56615895Y-64934000D01*
X56573438Y-64929819D01*
X56538523Y-64919227D01*
X56506335Y-64902022D01*
X56478127Y-64878873D01*
X56454978Y-64850665D01*
X56437773Y-64818477D01*
X56427181Y-64783562D01*
X56423000Y-64741105D01*
X56423000Y-63274895D01*
X56427181Y-63232438D01*
X56437773Y-63197523D01*
X56454978Y-63165335D01*
X56478127Y-63137127D01*
X56506335Y-63113978D01*
X56538523Y-63096773D01*
X56573438Y-63086181D01*
X56615895Y-63082000D01*
X57757105Y-63082000D01*
X57799562Y-63086181D01*
X57799562Y-63086181D01*
G37*
G36*
X7180562Y-62832181D02*
X7215477Y-62842773D01*
X7247665Y-62859978D01*
X7275873Y-62883127D01*
X7299022Y-62911335D01*
X7316227Y-62943523D01*
X7326819Y-62978438D01*
X7331000Y-63020895D01*
X7331000Y-64487105D01*
X7326819Y-64529562D01*
X7316227Y-64564477D01*
X7299022Y-64596665D01*
X7275873Y-64624873D01*
X7247665Y-64648022D01*
X7215477Y-64665227D01*
X7180562Y-64675819D01*
X7138105Y-64680000D01*
X5996895Y-64680000D01*
X5954438Y-64675819D01*
X5919523Y-64665227D01*
X5887335Y-64648022D01*
X5859127Y-64624873D01*
X5835978Y-64596665D01*
X5818773Y-64564477D01*
X5808181Y-64529562D01*
X5804000Y-64487105D01*
X5804000Y-63020895D01*
X5808181Y-62978438D01*
X5818773Y-62943523D01*
X5835978Y-62911335D01*
X5859127Y-62883127D01*
X5887335Y-62859978D01*
X5919523Y-62842773D01*
X5954438Y-62832181D01*
X5996895Y-62828000D01*
X7138105Y-62828000D01*
X7180562Y-62832181D01*
X7180562Y-62832181D01*
G37*
G36*
X4205562Y-62832181D02*
X4240477Y-62842773D01*
X4272665Y-62859978D01*
X4300873Y-62883127D01*
X4324022Y-62911335D01*
X4341227Y-62943523D01*
X4351819Y-62978438D01*
X4356000Y-63020895D01*
X4356000Y-64487105D01*
X4351819Y-64529562D01*
X4341227Y-64564477D01*
X4324022Y-64596665D01*
X4300873Y-64624873D01*
X4272665Y-64648022D01*
X4240477Y-64665227D01*
X4205562Y-64675819D01*
X4163105Y-64680000D01*
X3021895Y-64680000D01*
X2979438Y-64675819D01*
X2944523Y-64665227D01*
X2912335Y-64648022D01*
X2884127Y-64624873D01*
X2860978Y-64596665D01*
X2843773Y-64564477D01*
X2833181Y-64529562D01*
X2829000Y-64487105D01*
X2829000Y-63020895D01*
X2833181Y-62978438D01*
X2843773Y-62943523D01*
X2860978Y-62911335D01*
X2884127Y-62883127D01*
X2912335Y-62859978D01*
X2944523Y-62842773D01*
X2979438Y-62832181D01*
X3021895Y-62828000D01*
X4163105Y-62828000D01*
X4205562Y-62832181D01*
X4205562Y-62832181D01*
G37*
G36*
X33329482Y-61209773D02*
X33522571Y-61289753D01*
X33696351Y-61405869D01*
X33844131Y-61553649D01*
X33960247Y-61727429D01*
X34040227Y-61920518D01*
X34081000Y-62125499D01*
X34081000Y-62334501D01*
X34040227Y-62539482D01*
X33960247Y-62732571D01*
X33844131Y-62906351D01*
X33696351Y-63054131D01*
X33522571Y-63170247D01*
X33329482Y-63250227D01*
X33124501Y-63291000D01*
X32915499Y-63291000D01*
X32710518Y-63250227D01*
X32517429Y-63170247D01*
X32343649Y-63054131D01*
X32195869Y-62906351D01*
X32079753Y-62732571D01*
X31999773Y-62539482D01*
X31959000Y-62334501D01*
X31959000Y-62125499D01*
X31999773Y-61920518D01*
X32079753Y-61727429D01*
X32195869Y-61553649D01*
X32343649Y-61405869D01*
X32517429Y-61289753D01*
X32710518Y-61209773D01*
X32915499Y-61169000D01*
X33124501Y-61169000D01*
X33329482Y-61209773D01*
X33329482Y-61209773D01*
G37*
G36*
X30789482Y-61209773D02*
X30982571Y-61289753D01*
X31156351Y-61405869D01*
X31304131Y-61553649D01*
X31420247Y-61727429D01*
X31500227Y-61920518D01*
X31541000Y-62125499D01*
X31541000Y-62334501D01*
X31500227Y-62539482D01*
X31420247Y-62732571D01*
X31304131Y-62906351D01*
X31156351Y-63054131D01*
X30982571Y-63170247D01*
X30789482Y-63250227D01*
X30584501Y-63291000D01*
X30375499Y-63291000D01*
X30170518Y-63250227D01*
X29977429Y-63170247D01*
X29803649Y-63054131D01*
X29655869Y-62906351D01*
X29539753Y-62732571D01*
X29459773Y-62539482D01*
X29419000Y-62334501D01*
X29419000Y-62125499D01*
X29459773Y-61920518D01*
X29539753Y-61727429D01*
X29655869Y-61553649D01*
X29803649Y-61405869D01*
X29977429Y-61289753D01*
X30170518Y-61209773D01*
X30375499Y-61169000D01*
X30584501Y-61169000D01*
X30789482Y-61209773D01*
X30789482Y-61209773D01*
G37*
G36*
X33329482Y-58669773D02*
X33522571Y-58749753D01*
X33696351Y-58865869D01*
X33844131Y-59013649D01*
X33960247Y-59187429D01*
X34040227Y-59380518D01*
X34081000Y-59585499D01*
X34081000Y-59794501D01*
X34040227Y-59999482D01*
X33960247Y-60192571D01*
X33844131Y-60366351D01*
X33696351Y-60514131D01*
X33522571Y-60630247D01*
X33329482Y-60710227D01*
X33124501Y-60751000D01*
X32915499Y-60751000D01*
X32710518Y-60710227D01*
X32517429Y-60630247D01*
X32343649Y-60514131D01*
X32195869Y-60366351D01*
X32079753Y-60192571D01*
X31999773Y-59999482D01*
X31959000Y-59794501D01*
X31959000Y-59585499D01*
X31999773Y-59380518D01*
X32079753Y-59187429D01*
X32195869Y-59013649D01*
X32343649Y-58865869D01*
X32517429Y-58749753D01*
X32710518Y-58669773D01*
X32915499Y-58629000D01*
X33124501Y-58629000D01*
X33329482Y-58669773D01*
X33329482Y-58669773D01*
G37*
G36*
X30789482Y-58669773D02*
X30982571Y-58749753D01*
X31156351Y-58865869D01*
X31304131Y-59013649D01*
X31420247Y-59187429D01*
X31500227Y-59380518D01*
X31541000Y-59585499D01*
X31541000Y-59794501D01*
X31500227Y-59999482D01*
X31420247Y-60192571D01*
X31304131Y-60366351D01*
X31156351Y-60514131D01*
X30982571Y-60630247D01*
X30789482Y-60710227D01*
X30584501Y-60751000D01*
X30375499Y-60751000D01*
X30170518Y-60710227D01*
X29977429Y-60630247D01*
X29803649Y-60514131D01*
X29655869Y-60366351D01*
X29539753Y-60192571D01*
X29459773Y-59999482D01*
X29419000Y-59794501D01*
X29419000Y-59585499D01*
X29459773Y-59380518D01*
X29539753Y-59187429D01*
X29655869Y-59013649D01*
X29803649Y-58865869D01*
X29977429Y-58749753D01*
X30170518Y-58669773D01*
X30375499Y-58629000D01*
X30584501Y-58629000D01*
X30789482Y-58669773D01*
X30789482Y-58669773D01*
G37*
G36*
X57459482Y-57399773D02*
X57652571Y-57479753D01*
X57826351Y-57595869D01*
X57974131Y-57743649D01*
X58090247Y-57917429D01*
X58170227Y-58110518D01*
X58211000Y-58315499D01*
X58211000Y-58524501D01*
X58170227Y-58729482D01*
X58090247Y-58922571D01*
X57974131Y-59096351D01*
X57826351Y-59244131D01*
X57652571Y-59360247D01*
X57459482Y-59440227D01*
X57254501Y-59481000D01*
X57045499Y-59481000D01*
X56840518Y-59440227D01*
X56647429Y-59360247D01*
X56473649Y-59244131D01*
X56325869Y-59096351D01*
X56209753Y-58922571D01*
X56129773Y-58729482D01*
X56089000Y-58524501D01*
X56089000Y-58315499D01*
X56129773Y-58110518D01*
X56209753Y-57917429D01*
X56325869Y-57743649D01*
X56473649Y-57595869D01*
X56647429Y-57479753D01*
X56840518Y-57399773D01*
X57045499Y-57359000D01*
X57254501Y-57359000D01*
X57459482Y-57399773D01*
X57459482Y-57399773D01*
G37*
G36*
X59999482Y-57399773D02*
X60192571Y-57479753D01*
X60366351Y-57595869D01*
X60514131Y-57743649D01*
X60630247Y-57917429D01*
X60710227Y-58110518D01*
X60751000Y-58315499D01*
X60751000Y-58524501D01*
X60710227Y-58729482D01*
X60630247Y-58922571D01*
X60514131Y-59096351D01*
X60366351Y-59244131D01*
X60192571Y-59360247D01*
X59999482Y-59440227D01*
X59794501Y-59481000D01*
X59585499Y-59481000D01*
X59380518Y-59440227D01*
X59187429Y-59360247D01*
X59013649Y-59244131D01*
X58865869Y-59096351D01*
X58749753Y-58922571D01*
X58669773Y-58729482D01*
X58629000Y-58524501D01*
X58629000Y-58315499D01*
X58669773Y-58110518D01*
X58749753Y-57917429D01*
X58865869Y-57743649D01*
X59013649Y-57595869D01*
X59187429Y-57479753D01*
X59380518Y-57399773D01*
X59585499Y-57359000D01*
X59794501Y-57359000D01*
X59999482Y-57399773D01*
X59999482Y-57399773D01*
G37*
G36*
X4119482Y-57399773D02*
X4312571Y-57479753D01*
X4486351Y-57595869D01*
X4634131Y-57743649D01*
X4750247Y-57917429D01*
X4830227Y-58110518D01*
X4871000Y-58315499D01*
X4871000Y-58524501D01*
X4830227Y-58729482D01*
X4750247Y-58922571D01*
X4634131Y-59096351D01*
X4486351Y-59244131D01*
X4312571Y-59360247D01*
X4119482Y-59440227D01*
X3914501Y-59481000D01*
X3705499Y-59481000D01*
X3500518Y-59440227D01*
X3307429Y-59360247D01*
X3133649Y-59244131D01*
X2985869Y-59096351D01*
X2869753Y-58922571D01*
X2789773Y-58729482D01*
X2749000Y-58524501D01*
X2749000Y-58315499D01*
X2789773Y-58110518D01*
X2869753Y-57917429D01*
X2985869Y-57743649D01*
X3133649Y-57595869D01*
X3307429Y-57479753D01*
X3500518Y-57399773D01*
X3705499Y-57359000D01*
X3914501Y-57359000D01*
X4119482Y-57399773D01*
X4119482Y-57399773D01*
G37*
G36*
X6659482Y-57399773D02*
X6852571Y-57479753D01*
X7026351Y-57595869D01*
X7174131Y-57743649D01*
X7290247Y-57917429D01*
X7370227Y-58110518D01*
X7411000Y-58315499D01*
X7411000Y-58524501D01*
X7370227Y-58729482D01*
X7290247Y-58922571D01*
X7174131Y-59096351D01*
X7026351Y-59244131D01*
X6852571Y-59360247D01*
X6659482Y-59440227D01*
X6454501Y-59481000D01*
X6245499Y-59481000D01*
X6040518Y-59440227D01*
X5847429Y-59360247D01*
X5673649Y-59244131D01*
X5525869Y-59096351D01*
X5409753Y-58922571D01*
X5329773Y-58729482D01*
X5289000Y-58524501D01*
X5289000Y-58315499D01*
X5329773Y-58110518D01*
X5409753Y-57917429D01*
X5525869Y-57743649D01*
X5673649Y-57595869D01*
X5847429Y-57479753D01*
X6040518Y-57399773D01*
X6245499Y-57359000D01*
X6454501Y-57359000D01*
X6659482Y-57399773D01*
X6659482Y-57399773D01*
G37*
G36*
X30789482Y-56129773D02*
X30982571Y-56209753D01*
X31156351Y-56325869D01*
X31304131Y-56473649D01*
X31420247Y-56647429D01*
X31500227Y-56840518D01*
X31541000Y-57045499D01*
X31541000Y-57254501D01*
X31500227Y-57459482D01*
X31420247Y-57652571D01*
X31304131Y-57826351D01*
X31156351Y-57974131D01*
X30982571Y-58090247D01*
X30789482Y-58170227D01*
X30584501Y-58211000D01*
X30375499Y-58211000D01*
X30170518Y-58170227D01*
X29977429Y-58090247D01*
X29803649Y-57974131D01*
X29655869Y-57826351D01*
X29539753Y-57652571D01*
X29459773Y-57459482D01*
X29419000Y-57254501D01*
X29419000Y-57045499D01*
X29459773Y-56840518D01*
X29539753Y-56647429D01*
X29655869Y-56473649D01*
X29803649Y-56325869D01*
X29977429Y-56209753D01*
X30170518Y-56129773D01*
X30375499Y-56089000D01*
X30584501Y-56089000D01*
X30789482Y-56129773D01*
X30789482Y-56129773D01*
G37*
G36*
X33329482Y-56129773D02*
X33522571Y-56209753D01*
X33696351Y-56325869D01*
X33844131Y-56473649D01*
X33960247Y-56647429D01*
X34040227Y-56840518D01*
X34081000Y-57045499D01*
X34081000Y-57254501D01*
X34040227Y-57459482D01*
X33960247Y-57652571D01*
X33844131Y-57826351D01*
X33696351Y-57974131D01*
X33522571Y-58090247D01*
X33329482Y-58170227D01*
X33124501Y-58211000D01*
X32915499Y-58211000D01*
X32710518Y-58170227D01*
X32517429Y-58090247D01*
X32343649Y-57974131D01*
X32195869Y-57826351D01*
X32079753Y-57652571D01*
X31999773Y-57459482D01*
X31959000Y-57254501D01*
X31959000Y-57045499D01*
X31999773Y-56840518D01*
X32079753Y-56647429D01*
X32195869Y-56473649D01*
X32343649Y-56325869D01*
X32517429Y-56209753D01*
X32710518Y-56129773D01*
X32915499Y-56089000D01*
X33124501Y-56089000D01*
X33329482Y-56129773D01*
X33329482Y-56129773D01*
G37*
G36*
X57459482Y-54859773D02*
X57652571Y-54939753D01*
X57826351Y-55055869D01*
X57974131Y-55203649D01*
X58090247Y-55377429D01*
X58170227Y-55570518D01*
X58211000Y-55775499D01*
X58211000Y-55984501D01*
X58170227Y-56189482D01*
X58090247Y-56382571D01*
X57974131Y-56556351D01*
X57826351Y-56704131D01*
X57652571Y-56820247D01*
X57459482Y-56900227D01*
X57254501Y-56941000D01*
X57045499Y-56941000D01*
X56840518Y-56900227D01*
X56647429Y-56820247D01*
X56473649Y-56704131D01*
X56325869Y-56556351D01*
X56209753Y-56382571D01*
X56129773Y-56189482D01*
X56089000Y-55984501D01*
X56089000Y-55775499D01*
X56129773Y-55570518D01*
X56209753Y-55377429D01*
X56325869Y-55203649D01*
X56473649Y-55055869D01*
X56647429Y-54939753D01*
X56840518Y-54859773D01*
X57045499Y-54819000D01*
X57254501Y-54819000D01*
X57459482Y-54859773D01*
X57459482Y-54859773D01*
G37*
G36*
X6659482Y-54859773D02*
X6852571Y-54939753D01*
X7026351Y-55055869D01*
X7174131Y-55203649D01*
X7290247Y-55377429D01*
X7370227Y-55570518D01*
X7411000Y-55775499D01*
X7411000Y-55984501D01*
X7370227Y-56189482D01*
X7290247Y-56382571D01*
X7174131Y-56556351D01*
X7026351Y-56704131D01*
X6852571Y-56820247D01*
X6659482Y-56900227D01*
X6454501Y-56941000D01*
X6245499Y-56941000D01*
X6040518Y-56900227D01*
X5847429Y-56820247D01*
X5673649Y-56704131D01*
X5525869Y-56556351D01*
X5409753Y-56382571D01*
X5329773Y-56189482D01*
X5289000Y-55984501D01*
X5289000Y-55775499D01*
X5329773Y-55570518D01*
X5409753Y-55377429D01*
X5525869Y-55203649D01*
X5673649Y-55055869D01*
X5847429Y-54939753D01*
X6040518Y-54859773D01*
X6245499Y-54819000D01*
X6454501Y-54819000D01*
X6659482Y-54859773D01*
X6659482Y-54859773D01*
G37*
G36*
X59999482Y-54859773D02*
X60192571Y-54939753D01*
X60366351Y-55055869D01*
X60514131Y-55203649D01*
X60630247Y-55377429D01*
X60710227Y-55570518D01*
X60751000Y-55775499D01*
X60751000Y-55984501D01*
X60710227Y-56189482D01*
X60630247Y-56382571D01*
X60514131Y-56556351D01*
X60366351Y-56704131D01*
X60192571Y-56820247D01*
X59999482Y-56900227D01*
X59794501Y-56941000D01*
X59585499Y-56941000D01*
X59380518Y-56900227D01*
X59187429Y-56820247D01*
X59013649Y-56704131D01*
X58865869Y-56556351D01*
X58749753Y-56382571D01*
X58669773Y-56189482D01*
X58629000Y-55984501D01*
X58629000Y-55775499D01*
X58669773Y-55570518D01*
X58749753Y-55377429D01*
X58865869Y-55203649D01*
X59013649Y-55055869D01*
X59187429Y-54939753D01*
X59380518Y-54859773D01*
X59585499Y-54819000D01*
X59794501Y-54819000D01*
X59999482Y-54859773D01*
X59999482Y-54859773D01*
G37*
G36*
X4119482Y-54859773D02*
X4312571Y-54939753D01*
X4486351Y-55055869D01*
X4634131Y-55203649D01*
X4750247Y-55377429D01*
X4830227Y-55570518D01*
X4871000Y-55775499D01*
X4871000Y-55984501D01*
X4830227Y-56189482D01*
X4750247Y-56382571D01*
X4634131Y-56556351D01*
X4486351Y-56704131D01*
X4312571Y-56820247D01*
X4119482Y-56900227D01*
X3914501Y-56941000D01*
X3705499Y-56941000D01*
X3500518Y-56900227D01*
X3307429Y-56820247D01*
X3133649Y-56704131D01*
X2985869Y-56556351D01*
X2869753Y-56382571D01*
X2789773Y-56189482D01*
X2749000Y-55984501D01*
X2749000Y-55775499D01*
X2789773Y-55570518D01*
X2869753Y-55377429D01*
X2985869Y-55203649D01*
X3133649Y-55055869D01*
X3307429Y-54939753D01*
X3500518Y-54859773D01*
X3705499Y-54819000D01*
X3914501Y-54819000D01*
X4119482Y-54859773D01*
X4119482Y-54859773D01*
G37*
G36*
X30789482Y-53589773D02*
X30982571Y-53669753D01*
X31156351Y-53785869D01*
X31304131Y-53933649D01*
X31420247Y-54107429D01*
X31500227Y-54300518D01*
X31541000Y-54505499D01*
X31541000Y-54714501D01*
X31500227Y-54919482D01*
X31420247Y-55112571D01*
X31304131Y-55286351D01*
X31156351Y-55434131D01*
X30982571Y-55550247D01*
X30789482Y-55630227D01*
X30584501Y-55671000D01*
X30375499Y-55671000D01*
X30170518Y-55630227D01*
X29977429Y-55550247D01*
X29803649Y-55434131D01*
X29655869Y-55286351D01*
X29539753Y-55112571D01*
X29459773Y-54919482D01*
X29419000Y-54714501D01*
X29419000Y-54505499D01*
X29459773Y-54300518D01*
X29539753Y-54107429D01*
X29655869Y-53933649D01*
X29803649Y-53785869D01*
X29977429Y-53669753D01*
X30170518Y-53589773D01*
X30375499Y-53549000D01*
X30584501Y-53549000D01*
X30789482Y-53589773D01*
X30789482Y-53589773D01*
G37*
G36*
X33329482Y-53589773D02*
X33522571Y-53669753D01*
X33696351Y-53785869D01*
X33844131Y-53933649D01*
X33960247Y-54107429D01*
X34040227Y-54300518D01*
X34081000Y-54505499D01*
X34081000Y-54714501D01*
X34040227Y-54919482D01*
X33960247Y-55112571D01*
X33844131Y-55286351D01*
X33696351Y-55434131D01*
X33522571Y-55550247D01*
X33329482Y-55630227D01*
X33124501Y-55671000D01*
X32915499Y-55671000D01*
X32710518Y-55630227D01*
X32517429Y-55550247D01*
X32343649Y-55434131D01*
X32195869Y-55286351D01*
X32079753Y-55112571D01*
X31999773Y-54919482D01*
X31959000Y-54714501D01*
X31959000Y-54505499D01*
X31999773Y-54300518D01*
X32079753Y-54107429D01*
X32195869Y-53933649D01*
X32343649Y-53785869D01*
X32517429Y-53669753D01*
X32710518Y-53589773D01*
X32915499Y-53549000D01*
X33124501Y-53549000D01*
X33329482Y-53589773D01*
X33329482Y-53589773D01*
G37*
G36*
X6659482Y-52319773D02*
X6852571Y-52399753D01*
X7026351Y-52515869D01*
X7174131Y-52663649D01*
X7290247Y-52837429D01*
X7370227Y-53030518D01*
X7411000Y-53235499D01*
X7411000Y-53444501D01*
X7370227Y-53649482D01*
X7290247Y-53842571D01*
X7174131Y-54016351D01*
X7026351Y-54164131D01*
X6852571Y-54280247D01*
X6659482Y-54360227D01*
X6454501Y-54401000D01*
X6245499Y-54401000D01*
X6040518Y-54360227D01*
X5847429Y-54280247D01*
X5673649Y-54164131D01*
X5525869Y-54016351D01*
X5409753Y-53842571D01*
X5329773Y-53649482D01*
X5289000Y-53444501D01*
X5289000Y-53235499D01*
X5329773Y-53030518D01*
X5409753Y-52837429D01*
X5525869Y-52663649D01*
X5673649Y-52515869D01*
X5847429Y-52399753D01*
X6040518Y-52319773D01*
X6245499Y-52279000D01*
X6454501Y-52279000D01*
X6659482Y-52319773D01*
X6659482Y-52319773D01*
G37*
G36*
X57459482Y-52319773D02*
X57652571Y-52399753D01*
X57826351Y-52515869D01*
X57974131Y-52663649D01*
X58090247Y-52837429D01*
X58170227Y-53030518D01*
X58211000Y-53235499D01*
X58211000Y-53444501D01*
X58170227Y-53649482D01*
X58090247Y-53842571D01*
X57974131Y-54016351D01*
X57826351Y-54164131D01*
X57652571Y-54280247D01*
X57459482Y-54360227D01*
X57254501Y-54401000D01*
X57045499Y-54401000D01*
X56840518Y-54360227D01*
X56647429Y-54280247D01*
X56473649Y-54164131D01*
X56325869Y-54016351D01*
X56209753Y-53842571D01*
X56129773Y-53649482D01*
X56089000Y-53444501D01*
X56089000Y-53235499D01*
X56129773Y-53030518D01*
X56209753Y-52837429D01*
X56325869Y-52663649D01*
X56473649Y-52515869D01*
X56647429Y-52399753D01*
X56840518Y-52319773D01*
X57045499Y-52279000D01*
X57254501Y-52279000D01*
X57459482Y-52319773D01*
X57459482Y-52319773D01*
G37*
G36*
X59999482Y-52319773D02*
X60192571Y-52399753D01*
X60366351Y-52515869D01*
X60514131Y-52663649D01*
X60630247Y-52837429D01*
X60710227Y-53030518D01*
X60751000Y-53235499D01*
X60751000Y-53444501D01*
X60710227Y-53649482D01*
X60630247Y-53842571D01*
X60514131Y-54016351D01*
X60366351Y-54164131D01*
X60192571Y-54280247D01*
X59999482Y-54360227D01*
X59794501Y-54401000D01*
X59585499Y-54401000D01*
X59380518Y-54360227D01*
X59187429Y-54280247D01*
X59013649Y-54164131D01*
X58865869Y-54016351D01*
X58749753Y-53842571D01*
X58669773Y-53649482D01*
X58629000Y-53444501D01*
X58629000Y-53235499D01*
X58669773Y-53030518D01*
X58749753Y-52837429D01*
X58865869Y-52663649D01*
X59013649Y-52515869D01*
X59187429Y-52399753D01*
X59380518Y-52319773D01*
X59585499Y-52279000D01*
X59794501Y-52279000D01*
X59999482Y-52319773D01*
X59999482Y-52319773D01*
G37*
G36*
X4119482Y-52319773D02*
X4312571Y-52399753D01*
X4486351Y-52515869D01*
X4634131Y-52663649D01*
X4750247Y-52837429D01*
X4830227Y-53030518D01*
X4871000Y-53235499D01*
X4871000Y-53444501D01*
X4830227Y-53649482D01*
X4750247Y-53842571D01*
X4634131Y-54016351D01*
X4486351Y-54164131D01*
X4312571Y-54280247D01*
X4119482Y-54360227D01*
X3914501Y-54401000D01*
X3705499Y-54401000D01*
X3500518Y-54360227D01*
X3307429Y-54280247D01*
X3133649Y-54164131D01*
X2985869Y-54016351D01*
X2869753Y-53842571D01*
X2789773Y-53649482D01*
X2749000Y-53444501D01*
X2749000Y-53235499D01*
X2789773Y-53030518D01*
X2869753Y-52837429D01*
X2985869Y-52663649D01*
X3133649Y-52515869D01*
X3307429Y-52399753D01*
X3500518Y-52319773D01*
X3705499Y-52279000D01*
X3914501Y-52279000D01*
X4119482Y-52319773D01*
X4119482Y-52319773D01*
G37*
G36*
X33329482Y-51049773D02*
X33522571Y-51129753D01*
X33696351Y-51245869D01*
X33844131Y-51393649D01*
X33960247Y-51567429D01*
X34040227Y-51760518D01*
X34081000Y-51965499D01*
X34081000Y-52174501D01*
X34040227Y-52379482D01*
X33960247Y-52572571D01*
X33844131Y-52746351D01*
X33696351Y-52894131D01*
X33522571Y-53010247D01*
X33329482Y-53090227D01*
X33124501Y-53131000D01*
X32915499Y-53131000D01*
X32710518Y-53090227D01*
X32517429Y-53010247D01*
X32343649Y-52894131D01*
X32195869Y-52746351D01*
X32079753Y-52572571D01*
X31999773Y-52379482D01*
X31959000Y-52174501D01*
X31959000Y-51965499D01*
X31999773Y-51760518D01*
X32079753Y-51567429D01*
X32195869Y-51393649D01*
X32343649Y-51245869D01*
X32517429Y-51129753D01*
X32710518Y-51049773D01*
X32915499Y-51009000D01*
X33124501Y-51009000D01*
X33329482Y-51049773D01*
X33329482Y-51049773D01*
G37*
G36*
X30789482Y-51049773D02*
X30982571Y-51129753D01*
X31156351Y-51245869D01*
X31304131Y-51393649D01*
X31420247Y-51567429D01*
X31500227Y-51760518D01*
X31541000Y-51965499D01*
X31541000Y-52174501D01*
X31500227Y-52379482D01*
X31420247Y-52572571D01*
X31304131Y-52746351D01*
X31156351Y-52894131D01*
X30982571Y-53010247D01*
X30789482Y-53090227D01*
X30584501Y-53131000D01*
X30375499Y-53131000D01*
X30170518Y-53090227D01*
X29977429Y-53010247D01*
X29803649Y-52894131D01*
X29655869Y-52746351D01*
X29539753Y-52572571D01*
X29459773Y-52379482D01*
X29419000Y-52174501D01*
X29419000Y-51965499D01*
X29459773Y-51760518D01*
X29539753Y-51567429D01*
X29655869Y-51393649D01*
X29803649Y-51245869D01*
X29977429Y-51129753D01*
X30170518Y-51049773D01*
X30375499Y-51009000D01*
X30584501Y-51009000D01*
X30789482Y-51049773D01*
X30789482Y-51049773D01*
G37*
G36*
X57459482Y-49779773D02*
X57652571Y-49859753D01*
X57826351Y-49975869D01*
X57974131Y-50123649D01*
X58090247Y-50297429D01*
X58170227Y-50490518D01*
X58211000Y-50695499D01*
X58211000Y-50904501D01*
X58170227Y-51109482D01*
X58090247Y-51302571D01*
X57974131Y-51476351D01*
X57826351Y-51624131D01*
X57652571Y-51740247D01*
X57459482Y-51820227D01*
X57254501Y-51861000D01*
X57045499Y-51861000D01*
X56840518Y-51820227D01*
X56647429Y-51740247D01*
X56473649Y-51624131D01*
X56325869Y-51476351D01*
X56209753Y-51302571D01*
X56129773Y-51109482D01*
X56089000Y-50904501D01*
X56089000Y-50695499D01*
X56129773Y-50490518D01*
X56209753Y-50297429D01*
X56325869Y-50123649D01*
X56473649Y-49975869D01*
X56647429Y-49859753D01*
X56840518Y-49779773D01*
X57045499Y-49739000D01*
X57254501Y-49739000D01*
X57459482Y-49779773D01*
X57459482Y-49779773D01*
G37*
G36*
X59999482Y-49779773D02*
X60192571Y-49859753D01*
X60366351Y-49975869D01*
X60514131Y-50123649D01*
X60630247Y-50297429D01*
X60710227Y-50490518D01*
X60751000Y-50695499D01*
X60751000Y-50904501D01*
X60710227Y-51109482D01*
X60630247Y-51302571D01*
X60514131Y-51476351D01*
X60366351Y-51624131D01*
X60192571Y-51740247D01*
X59999482Y-51820227D01*
X59794501Y-51861000D01*
X59585499Y-51861000D01*
X59380518Y-51820227D01*
X59187429Y-51740247D01*
X59013649Y-51624131D01*
X58865869Y-51476351D01*
X58749753Y-51302571D01*
X58669773Y-51109482D01*
X58629000Y-50904501D01*
X58629000Y-50695499D01*
X58669773Y-50490518D01*
X58749753Y-50297429D01*
X58865869Y-50123649D01*
X59013649Y-49975869D01*
X59187429Y-49859753D01*
X59380518Y-49779773D01*
X59585499Y-49739000D01*
X59794501Y-49739000D01*
X59999482Y-49779773D01*
X59999482Y-49779773D01*
G37*
G36*
X6659482Y-49779773D02*
X6852571Y-49859753D01*
X7026351Y-49975869D01*
X7174131Y-50123649D01*
X7290247Y-50297429D01*
X7370227Y-50490518D01*
X7411000Y-50695499D01*
X7411000Y-50904501D01*
X7370227Y-51109482D01*
X7290247Y-51302571D01*
X7174131Y-51476351D01*
X7026351Y-51624131D01*
X6852571Y-51740247D01*
X6659482Y-51820227D01*
X6454501Y-51861000D01*
X6245499Y-51861000D01*
X6040518Y-51820227D01*
X5847429Y-51740247D01*
X5673649Y-51624131D01*
X5525869Y-51476351D01*
X5409753Y-51302571D01*
X5329773Y-51109482D01*
X5289000Y-50904501D01*
X5289000Y-50695499D01*
X5329773Y-50490518D01*
X5409753Y-50297429D01*
X5525869Y-50123649D01*
X5673649Y-49975869D01*
X5847429Y-49859753D01*
X6040518Y-49779773D01*
X6245499Y-49739000D01*
X6454501Y-49739000D01*
X6659482Y-49779773D01*
X6659482Y-49779773D01*
G37*
G36*
X4119482Y-49779773D02*
X4312571Y-49859753D01*
X4486351Y-49975869D01*
X4634131Y-50123649D01*
X4750247Y-50297429D01*
X4830227Y-50490518D01*
X4871000Y-50695499D01*
X4871000Y-50904501D01*
X4830227Y-51109482D01*
X4750247Y-51302571D01*
X4634131Y-51476351D01*
X4486351Y-51624131D01*
X4312571Y-51740247D01*
X4119482Y-51820227D01*
X3914501Y-51861000D01*
X3705499Y-51861000D01*
X3500518Y-51820227D01*
X3307429Y-51740247D01*
X3133649Y-51624131D01*
X2985869Y-51476351D01*
X2869753Y-51302571D01*
X2789773Y-51109482D01*
X2749000Y-50904501D01*
X2749000Y-50695499D01*
X2789773Y-50490518D01*
X2869753Y-50297429D01*
X2985869Y-50123649D01*
X3133649Y-49975869D01*
X3307429Y-49859753D01*
X3500518Y-49779773D01*
X3705499Y-49739000D01*
X3914501Y-49739000D01*
X4119482Y-49779773D01*
X4119482Y-49779773D01*
G37*
G36*
X30789482Y-48509773D02*
X30982571Y-48589753D01*
X31156351Y-48705869D01*
X31304131Y-48853649D01*
X31420247Y-49027429D01*
X31500227Y-49220518D01*
X31541000Y-49425499D01*
X31541000Y-49634501D01*
X31500227Y-49839482D01*
X31420247Y-50032571D01*
X31304131Y-50206351D01*
X31156351Y-50354131D01*
X30982571Y-50470247D01*
X30789482Y-50550227D01*
X30584501Y-50591000D01*
X30375499Y-50591000D01*
X30170518Y-50550227D01*
X29977429Y-50470247D01*
X29803649Y-50354131D01*
X29655869Y-50206351D01*
X29539753Y-50032571D01*
X29459773Y-49839482D01*
X29419000Y-49634501D01*
X29419000Y-49425499D01*
X29459773Y-49220518D01*
X29539753Y-49027429D01*
X29655869Y-48853649D01*
X29803649Y-48705869D01*
X29977429Y-48589753D01*
X30170518Y-48509773D01*
X30375499Y-48469000D01*
X30584501Y-48469000D01*
X30789482Y-48509773D01*
X30789482Y-48509773D01*
G37*
G36*
X33329482Y-48509773D02*
X33522571Y-48589753D01*
X33696351Y-48705869D01*
X33844131Y-48853649D01*
X33960247Y-49027429D01*
X34040227Y-49220518D01*
X34081000Y-49425499D01*
X34081000Y-49634501D01*
X34040227Y-49839482D01*
X33960247Y-50032571D01*
X33844131Y-50206351D01*
X33696351Y-50354131D01*
X33522571Y-50470247D01*
X33329482Y-50550227D01*
X33124501Y-50591000D01*
X32915499Y-50591000D01*
X32710518Y-50550227D01*
X32517429Y-50470247D01*
X32343649Y-50354131D01*
X32195869Y-50206351D01*
X32079753Y-50032571D01*
X31999773Y-49839482D01*
X31959000Y-49634501D01*
X31959000Y-49425499D01*
X31999773Y-49220518D01*
X32079753Y-49027429D01*
X32195869Y-48853649D01*
X32343649Y-48705869D01*
X32517429Y-48589753D01*
X32710518Y-48509773D01*
X32915499Y-48469000D01*
X33124501Y-48469000D01*
X33329482Y-48509773D01*
X33329482Y-48509773D01*
G37*
G36*
X6659482Y-47239773D02*
X6852571Y-47319753D01*
X7026351Y-47435869D01*
X7174131Y-47583649D01*
X7290247Y-47757429D01*
X7370227Y-47950518D01*
X7411000Y-48155499D01*
X7411000Y-48364501D01*
X7370227Y-48569482D01*
X7290247Y-48762571D01*
X7174131Y-48936351D01*
X7026351Y-49084131D01*
X6852571Y-49200247D01*
X6659482Y-49280227D01*
X6454501Y-49321000D01*
X6245499Y-49321000D01*
X6040518Y-49280227D01*
X5847429Y-49200247D01*
X5673649Y-49084131D01*
X5525869Y-48936351D01*
X5409753Y-48762571D01*
X5329773Y-48569482D01*
X5289000Y-48364501D01*
X5289000Y-48155499D01*
X5329773Y-47950518D01*
X5409753Y-47757429D01*
X5525869Y-47583649D01*
X5673649Y-47435869D01*
X5847429Y-47319753D01*
X6040518Y-47239773D01*
X6245499Y-47199000D01*
X6454501Y-47199000D01*
X6659482Y-47239773D01*
X6659482Y-47239773D01*
G37*
G36*
X4119482Y-47239773D02*
X4312571Y-47319753D01*
X4486351Y-47435869D01*
X4634131Y-47583649D01*
X4750247Y-47757429D01*
X4830227Y-47950518D01*
X4871000Y-48155499D01*
X4871000Y-48364501D01*
X4830227Y-48569482D01*
X4750247Y-48762571D01*
X4634131Y-48936351D01*
X4486351Y-49084131D01*
X4312571Y-49200247D01*
X4119482Y-49280227D01*
X3914501Y-49321000D01*
X3705499Y-49321000D01*
X3500518Y-49280227D01*
X3307429Y-49200247D01*
X3133649Y-49084131D01*
X2985869Y-48936351D01*
X2869753Y-48762571D01*
X2789773Y-48569482D01*
X2749000Y-48364501D01*
X2749000Y-48155499D01*
X2789773Y-47950518D01*
X2869753Y-47757429D01*
X2985869Y-47583649D01*
X3133649Y-47435869D01*
X3307429Y-47319753D01*
X3500518Y-47239773D01*
X3705499Y-47199000D01*
X3914501Y-47199000D01*
X4119482Y-47239773D01*
X4119482Y-47239773D01*
G37*
G36*
X57459482Y-47239773D02*
X57652571Y-47319753D01*
X57826351Y-47435869D01*
X57974131Y-47583649D01*
X58090247Y-47757429D01*
X58170227Y-47950518D01*
X58211000Y-48155499D01*
X58211000Y-48364501D01*
X58170227Y-48569482D01*
X58090247Y-48762571D01*
X57974131Y-48936351D01*
X57826351Y-49084131D01*
X57652571Y-49200247D01*
X57459482Y-49280227D01*
X57254501Y-49321000D01*
X57045499Y-49321000D01*
X56840518Y-49280227D01*
X56647429Y-49200247D01*
X56473649Y-49084131D01*
X56325869Y-48936351D01*
X56209753Y-48762571D01*
X56129773Y-48569482D01*
X56089000Y-48364501D01*
X56089000Y-48155499D01*
X56129773Y-47950518D01*
X56209753Y-47757429D01*
X56325869Y-47583649D01*
X56473649Y-47435869D01*
X56647429Y-47319753D01*
X56840518Y-47239773D01*
X57045499Y-47199000D01*
X57254501Y-47199000D01*
X57459482Y-47239773D01*
X57459482Y-47239773D01*
G37*
G36*
X59999482Y-47239773D02*
X60192571Y-47319753D01*
X60366351Y-47435869D01*
X60514131Y-47583649D01*
X60630247Y-47757429D01*
X60710227Y-47950518D01*
X60751000Y-48155499D01*
X60751000Y-48364501D01*
X60710227Y-48569482D01*
X60630247Y-48762571D01*
X60514131Y-48936351D01*
X60366351Y-49084131D01*
X60192571Y-49200247D01*
X59999482Y-49280227D01*
X59794501Y-49321000D01*
X59585499Y-49321000D01*
X59380518Y-49280227D01*
X59187429Y-49200247D01*
X59013649Y-49084131D01*
X58865869Y-48936351D01*
X58749753Y-48762571D01*
X58669773Y-48569482D01*
X58629000Y-48364501D01*
X58629000Y-48155499D01*
X58669773Y-47950518D01*
X58749753Y-47757429D01*
X58865869Y-47583649D01*
X59013649Y-47435869D01*
X59187429Y-47319753D01*
X59380518Y-47239773D01*
X59585499Y-47199000D01*
X59794501Y-47199000D01*
X59999482Y-47239773D01*
X59999482Y-47239773D01*
G37*
G36*
X30789482Y-45969773D02*
X30982571Y-46049753D01*
X31156351Y-46165869D01*
X31304131Y-46313649D01*
X31420247Y-46487429D01*
X31500227Y-46680518D01*
X31541000Y-46885499D01*
X31541000Y-47094501D01*
X31500227Y-47299482D01*
X31420247Y-47492571D01*
X31304131Y-47666351D01*
X31156351Y-47814131D01*
X30982571Y-47930247D01*
X30789482Y-48010227D01*
X30584501Y-48051000D01*
X30375499Y-48051000D01*
X30170518Y-48010227D01*
X29977429Y-47930247D01*
X29803649Y-47814131D01*
X29655869Y-47666351D01*
X29539753Y-47492571D01*
X29459773Y-47299482D01*
X29419000Y-47094501D01*
X29419000Y-46885499D01*
X29459773Y-46680518D01*
X29539753Y-46487429D01*
X29655869Y-46313649D01*
X29803649Y-46165869D01*
X29977429Y-46049753D01*
X30170518Y-45969773D01*
X30375499Y-45929000D01*
X30584501Y-45929000D01*
X30789482Y-45969773D01*
X30789482Y-45969773D01*
G37*
G36*
X33329482Y-45969773D02*
X33522571Y-46049753D01*
X33696351Y-46165869D01*
X33844131Y-46313649D01*
X33960247Y-46487429D01*
X34040227Y-46680518D01*
X34081000Y-46885499D01*
X34081000Y-47094501D01*
X34040227Y-47299482D01*
X33960247Y-47492571D01*
X33844131Y-47666351D01*
X33696351Y-47814131D01*
X33522571Y-47930247D01*
X33329482Y-48010227D01*
X33124501Y-48051000D01*
X32915499Y-48051000D01*
X32710518Y-48010227D01*
X32517429Y-47930247D01*
X32343649Y-47814131D01*
X32195869Y-47666351D01*
X32079753Y-47492571D01*
X31999773Y-47299482D01*
X31959000Y-47094501D01*
X31959000Y-46885499D01*
X31999773Y-46680518D01*
X32079753Y-46487429D01*
X32195869Y-46313649D01*
X32343649Y-46165869D01*
X32517429Y-46049753D01*
X32710518Y-45969773D01*
X32915499Y-45929000D01*
X33124501Y-45929000D01*
X33329482Y-45969773D01*
X33329482Y-45969773D01*
G37*
G36*
X4119482Y-44699773D02*
X4312571Y-44779753D01*
X4486351Y-44895869D01*
X4634131Y-45043649D01*
X4750247Y-45217429D01*
X4830227Y-45410518D01*
X4871000Y-45615499D01*
X4871000Y-45824501D01*
X4830227Y-46029482D01*
X4750247Y-46222571D01*
X4634131Y-46396351D01*
X4486351Y-46544131D01*
X4312571Y-46660247D01*
X4119482Y-46740227D01*
X3914501Y-46781000D01*
X3705499Y-46781000D01*
X3500518Y-46740227D01*
X3307429Y-46660247D01*
X3133649Y-46544131D01*
X2985869Y-46396351D01*
X2869753Y-46222571D01*
X2789773Y-46029482D01*
X2749000Y-45824501D01*
X2749000Y-45615499D01*
X2789773Y-45410518D01*
X2869753Y-45217429D01*
X2985869Y-45043649D01*
X3133649Y-44895869D01*
X3307429Y-44779753D01*
X3500518Y-44699773D01*
X3705499Y-44659000D01*
X3914501Y-44659000D01*
X4119482Y-44699773D01*
X4119482Y-44699773D01*
G37*
G36*
X6659482Y-44699773D02*
X6852571Y-44779753D01*
X7026351Y-44895869D01*
X7174131Y-45043649D01*
X7290247Y-45217429D01*
X7370227Y-45410518D01*
X7411000Y-45615499D01*
X7411000Y-45824501D01*
X7370227Y-46029482D01*
X7290247Y-46222571D01*
X7174131Y-46396351D01*
X7026351Y-46544131D01*
X6852571Y-46660247D01*
X6659482Y-46740227D01*
X6454501Y-46781000D01*
X6245499Y-46781000D01*
X6040518Y-46740227D01*
X5847429Y-46660247D01*
X5673649Y-46544131D01*
X5525869Y-46396351D01*
X5409753Y-46222571D01*
X5329773Y-46029482D01*
X5289000Y-45824501D01*
X5289000Y-45615499D01*
X5329773Y-45410518D01*
X5409753Y-45217429D01*
X5525869Y-45043649D01*
X5673649Y-44895869D01*
X5847429Y-44779753D01*
X6040518Y-44699773D01*
X6245499Y-44659000D01*
X6454501Y-44659000D01*
X6659482Y-44699773D01*
X6659482Y-44699773D01*
G37*
G36*
X59999482Y-44699773D02*
X60192571Y-44779753D01*
X60366351Y-44895869D01*
X60514131Y-45043649D01*
X60630247Y-45217429D01*
X60710227Y-45410518D01*
X60751000Y-45615499D01*
X60751000Y-45824501D01*
X60710227Y-46029482D01*
X60630247Y-46222571D01*
X60514131Y-46396351D01*
X60366351Y-46544131D01*
X60192571Y-46660247D01*
X59999482Y-46740227D01*
X59794501Y-46781000D01*
X59585499Y-46781000D01*
X59380518Y-46740227D01*
X59187429Y-46660247D01*
X59013649Y-46544131D01*
X58865869Y-46396351D01*
X58749753Y-46222571D01*
X58669773Y-46029482D01*
X58629000Y-45824501D01*
X58629000Y-45615499D01*
X58669773Y-45410518D01*
X58749753Y-45217429D01*
X58865869Y-45043649D01*
X59013649Y-44895869D01*
X59187429Y-44779753D01*
X59380518Y-44699773D01*
X59585499Y-44659000D01*
X59794501Y-44659000D01*
X59999482Y-44699773D01*
X59999482Y-44699773D01*
G37*
G36*
X57459482Y-44699773D02*
X57652571Y-44779753D01*
X57826351Y-44895869D01*
X57974131Y-45043649D01*
X58090247Y-45217429D01*
X58170227Y-45410518D01*
X58211000Y-45615499D01*
X58211000Y-45824501D01*
X58170227Y-46029482D01*
X58090247Y-46222571D01*
X57974131Y-46396351D01*
X57826351Y-46544131D01*
X57652571Y-46660247D01*
X57459482Y-46740227D01*
X57254501Y-46781000D01*
X57045499Y-46781000D01*
X56840518Y-46740227D01*
X56647429Y-46660247D01*
X56473649Y-46544131D01*
X56325869Y-46396351D01*
X56209753Y-46222571D01*
X56129773Y-46029482D01*
X56089000Y-45824501D01*
X56089000Y-45615499D01*
X56129773Y-45410518D01*
X56209753Y-45217429D01*
X56325869Y-45043649D01*
X56473649Y-44895869D01*
X56647429Y-44779753D01*
X56840518Y-44699773D01*
X57045499Y-44659000D01*
X57254501Y-44659000D01*
X57459482Y-44699773D01*
X57459482Y-44699773D01*
G37*
G36*
X30789482Y-43429773D02*
X30982571Y-43509753D01*
X31156351Y-43625869D01*
X31304131Y-43773649D01*
X31420247Y-43947429D01*
X31500227Y-44140518D01*
X31541000Y-44345499D01*
X31541000Y-44554501D01*
X31500227Y-44759482D01*
X31420247Y-44952571D01*
X31304131Y-45126351D01*
X31156351Y-45274131D01*
X30982571Y-45390247D01*
X30789482Y-45470227D01*
X30584501Y-45511000D01*
X30375499Y-45511000D01*
X30170518Y-45470227D01*
X29977429Y-45390247D01*
X29803649Y-45274131D01*
X29655869Y-45126351D01*
X29539753Y-44952571D01*
X29459773Y-44759482D01*
X29419000Y-44554501D01*
X29419000Y-44345499D01*
X29459773Y-44140518D01*
X29539753Y-43947429D01*
X29655869Y-43773649D01*
X29803649Y-43625869D01*
X29977429Y-43509753D01*
X30170518Y-43429773D01*
X30375499Y-43389000D01*
X30584501Y-43389000D01*
X30789482Y-43429773D01*
X30789482Y-43429773D01*
G37*
G36*
X33329482Y-43429773D02*
X33522571Y-43509753D01*
X33696351Y-43625869D01*
X33844131Y-43773649D01*
X33960247Y-43947429D01*
X34040227Y-44140518D01*
X34081000Y-44345499D01*
X34081000Y-44554501D01*
X34040227Y-44759482D01*
X33960247Y-44952571D01*
X33844131Y-45126351D01*
X33696351Y-45274131D01*
X33522571Y-45390247D01*
X33329482Y-45470227D01*
X33124501Y-45511000D01*
X32915499Y-45511000D01*
X32710518Y-45470227D01*
X32517429Y-45390247D01*
X32343649Y-45274131D01*
X32195869Y-45126351D01*
X32079753Y-44952571D01*
X31999773Y-44759482D01*
X31959000Y-44554501D01*
X31959000Y-44345499D01*
X31999773Y-44140518D01*
X32079753Y-43947429D01*
X32195869Y-43773649D01*
X32343649Y-43625869D01*
X32517429Y-43509753D01*
X32710518Y-43429773D01*
X32915499Y-43389000D01*
X33124501Y-43389000D01*
X33329482Y-43429773D01*
X33329482Y-43429773D01*
G37*
G36*
X59999482Y-42159773D02*
X60192571Y-42239753D01*
X60366351Y-42355869D01*
X60514131Y-42503649D01*
X60630247Y-42677429D01*
X60710227Y-42870518D01*
X60751000Y-43075499D01*
X60751000Y-43284501D01*
X60710227Y-43489482D01*
X60630247Y-43682571D01*
X60514131Y-43856351D01*
X60366351Y-44004131D01*
X60192571Y-44120247D01*
X59999482Y-44200227D01*
X59794501Y-44241000D01*
X59585499Y-44241000D01*
X59380518Y-44200227D01*
X59187429Y-44120247D01*
X59013649Y-44004131D01*
X58865869Y-43856351D01*
X58749753Y-43682571D01*
X58669773Y-43489482D01*
X58629000Y-43284501D01*
X58629000Y-43075499D01*
X58669773Y-42870518D01*
X58749753Y-42677429D01*
X58865869Y-42503649D01*
X59013649Y-42355869D01*
X59187429Y-42239753D01*
X59380518Y-42159773D01*
X59585499Y-42119000D01*
X59794501Y-42119000D01*
X59999482Y-42159773D01*
X59999482Y-42159773D01*
G37*
G36*
X57459482Y-42159773D02*
X57652571Y-42239753D01*
X57826351Y-42355869D01*
X57974131Y-42503649D01*
X58090247Y-42677429D01*
X58170227Y-42870518D01*
X58211000Y-43075499D01*
X58211000Y-43284501D01*
X58170227Y-43489482D01*
X58090247Y-43682571D01*
X57974131Y-43856351D01*
X57826351Y-44004131D01*
X57652571Y-44120247D01*
X57459482Y-44200227D01*
X57254501Y-44241000D01*
X57045499Y-44241000D01*
X56840518Y-44200227D01*
X56647429Y-44120247D01*
X56473649Y-44004131D01*
X56325869Y-43856351D01*
X56209753Y-43682571D01*
X56129773Y-43489482D01*
X56089000Y-43284501D01*
X56089000Y-43075499D01*
X56129773Y-42870518D01*
X56209753Y-42677429D01*
X56325869Y-42503649D01*
X56473649Y-42355869D01*
X56647429Y-42239753D01*
X56840518Y-42159773D01*
X57045499Y-42119000D01*
X57254501Y-42119000D01*
X57459482Y-42159773D01*
X57459482Y-42159773D01*
G37*
G36*
X4119482Y-42159773D02*
X4312571Y-42239753D01*
X4486351Y-42355869D01*
X4634131Y-42503649D01*
X4750247Y-42677429D01*
X4830227Y-42870518D01*
X4871000Y-43075499D01*
X4871000Y-43284501D01*
X4830227Y-43489482D01*
X4750247Y-43682571D01*
X4634131Y-43856351D01*
X4486351Y-44004131D01*
X4312571Y-44120247D01*
X4119482Y-44200227D01*
X3914501Y-44241000D01*
X3705499Y-44241000D01*
X3500518Y-44200227D01*
X3307429Y-44120247D01*
X3133649Y-44004131D01*
X2985869Y-43856351D01*
X2869753Y-43682571D01*
X2789773Y-43489482D01*
X2749000Y-43284501D01*
X2749000Y-43075499D01*
X2789773Y-42870518D01*
X2869753Y-42677429D01*
X2985869Y-42503649D01*
X3133649Y-42355869D01*
X3307429Y-42239753D01*
X3500518Y-42159773D01*
X3705499Y-42119000D01*
X3914501Y-42119000D01*
X4119482Y-42159773D01*
X4119482Y-42159773D01*
G37*
G36*
X6659482Y-42159773D02*
X6852571Y-42239753D01*
X7026351Y-42355869D01*
X7174131Y-42503649D01*
X7290247Y-42677429D01*
X7370227Y-42870518D01*
X7411000Y-43075499D01*
X7411000Y-43284501D01*
X7370227Y-43489482D01*
X7290247Y-43682571D01*
X7174131Y-43856351D01*
X7026351Y-44004131D01*
X6852571Y-44120247D01*
X6659482Y-44200227D01*
X6454501Y-44241000D01*
X6245499Y-44241000D01*
X6040518Y-44200227D01*
X5847429Y-44120247D01*
X5673649Y-44004131D01*
X5525869Y-43856351D01*
X5409753Y-43682571D01*
X5329773Y-43489482D01*
X5289000Y-43284501D01*
X5289000Y-43075499D01*
X5329773Y-42870518D01*
X5409753Y-42677429D01*
X5525869Y-42503649D01*
X5673649Y-42355869D01*
X5847429Y-42239753D01*
X6040518Y-42159773D01*
X6245499Y-42119000D01*
X6454501Y-42119000D01*
X6659482Y-42159773D01*
X6659482Y-42159773D01*
G37*
G36*
X13043000Y-41089000D02*
X11341000Y-41089000D01*
X11341000Y-37987000D01*
X13043000Y-37987000D01*
X13043000Y-41089000D01*
X13043000Y-41089000D01*
G37*
G36*
X28156000Y-40835000D02*
X26454000Y-40835000D01*
X26454000Y-37733000D01*
X28156000Y-37733000D01*
X28156000Y-40835000D01*
X28156000Y-40835000D01*
G37*
G36*
X41999000Y-40794000D02*
X40297000Y-40794000D01*
X40297000Y-37692000D01*
X41999000Y-37692000D01*
X41999000Y-40794000D01*
X41999000Y-40794000D01*
G37*
G36*
X60317421Y-36031661D02*
X60317423Y-36031662D01*
X60317424Y-36031662D01*
X60708881Y-36193808D01*
X61008489Y-36394000D01*
X61061186Y-36429211D01*
X61360789Y-36728814D01*
X61360791Y-36728817D01*
X61596192Y-37081119D01*
X61758338Y-37472576D01*
X61758339Y-37472579D01*
X61810140Y-37733000D01*
X61841000Y-37888145D01*
X61841000Y-38311855D01*
X61758338Y-38727424D01*
X61596192Y-39118881D01*
X61361853Y-39469594D01*
X61360789Y-39471186D01*
X61061186Y-39770789D01*
X61061183Y-39770791D01*
X60708881Y-40006192D01*
X60317424Y-40168338D01*
X60317423Y-40168338D01*
X60317421Y-40168339D01*
X59901856Y-40251000D01*
X59478144Y-40251000D01*
X59062579Y-40168339D01*
X59062577Y-40168338D01*
X59062576Y-40168338D01*
X58671119Y-40006192D01*
X58318817Y-39770791D01*
X58318814Y-39770789D01*
X58019211Y-39471186D01*
X58018147Y-39469594D01*
X57783808Y-39118881D01*
X57621662Y-38727424D01*
X57539000Y-38311855D01*
X57539000Y-37888145D01*
X57569860Y-37733000D01*
X57621661Y-37472579D01*
X57621662Y-37472576D01*
X57783808Y-37081119D01*
X58019209Y-36728817D01*
X58019211Y-36728814D01*
X58318814Y-36429211D01*
X58371511Y-36394000D01*
X58671119Y-36193808D01*
X59062576Y-36031662D01*
X59062577Y-36031662D01*
X59062579Y-36031661D01*
X59478144Y-35949000D01*
X59901856Y-35949000D01*
X60317421Y-36031661D01*
X60317421Y-36031661D01*
G37*
G36*
X4437421Y-36031661D02*
X4437423Y-36031662D01*
X4437424Y-36031662D01*
X4828881Y-36193808D01*
X5128489Y-36394000D01*
X5181186Y-36429211D01*
X5480789Y-36728814D01*
X5480791Y-36728817D01*
X5716192Y-37081119D01*
X5878338Y-37472576D01*
X5878339Y-37472579D01*
X5930140Y-37733000D01*
X5961000Y-37888145D01*
X5961000Y-38311855D01*
X5878338Y-38727424D01*
X5716192Y-39118881D01*
X5481853Y-39469594D01*
X5480789Y-39471186D01*
X5181186Y-39770789D01*
X5181183Y-39770791D01*
X4828881Y-40006192D01*
X4437424Y-40168338D01*
X4437423Y-40168338D01*
X4437421Y-40168339D01*
X4021856Y-40251000D01*
X3598144Y-40251000D01*
X3182579Y-40168339D01*
X3182577Y-40168338D01*
X3182576Y-40168338D01*
X2791119Y-40006192D01*
X2438817Y-39770791D01*
X2438814Y-39770789D01*
X2139211Y-39471186D01*
X2138147Y-39469594D01*
X1903808Y-39118881D01*
X1741662Y-38727424D01*
X1659000Y-38311855D01*
X1659000Y-37888145D01*
X1689860Y-37733000D01*
X1741661Y-37472579D01*
X1741662Y-37472576D01*
X1903808Y-37081119D01*
X2139209Y-36728817D01*
X2139211Y-36728814D01*
X2438814Y-36429211D01*
X2491511Y-36394000D01*
X2791119Y-36193808D01*
X3182576Y-36031662D01*
X3182577Y-36031662D01*
X3182579Y-36031661D01*
X3598144Y-35949000D01*
X4021856Y-35949000D01*
X4437421Y-36031661D01*
X4437421Y-36031661D01*
G37*
G36*
X13043000Y-36689000D02*
X11341000Y-36689000D01*
X11341000Y-33587000D01*
X13043000Y-33587000D01*
X13043000Y-36689000D01*
X13043000Y-36689000D01*
G37*
G36*
X28156000Y-36435000D02*
X26454000Y-36435000D01*
X26454000Y-33333000D01*
X28156000Y-33333000D01*
X28156000Y-36435000D01*
X28156000Y-36435000D01*
G37*
G36*
X41999000Y-36394000D02*
X40297000Y-36394000D01*
X40297000Y-33292000D01*
X41999000Y-33292000D01*
X41999000Y-36394000D01*
X41999000Y-36394000D01*
G37*
G36*
X4119482Y-31999773D02*
X4312571Y-32079753D01*
X4486351Y-32195869D01*
X4634131Y-32343649D01*
X4750247Y-32517429D01*
X4830227Y-32710518D01*
X4871000Y-32915499D01*
X4871000Y-33124501D01*
X4830227Y-33329482D01*
X4750247Y-33522571D01*
X4634131Y-33696351D01*
X4486351Y-33844131D01*
X4312571Y-33960247D01*
X4119482Y-34040227D01*
X3914501Y-34081000D01*
X3705499Y-34081000D01*
X3500518Y-34040227D01*
X3307429Y-33960247D01*
X3133649Y-33844131D01*
X2985869Y-33696351D01*
X2869753Y-33522571D01*
X2789773Y-33329482D01*
X2749000Y-33124501D01*
X2749000Y-32915499D01*
X2789773Y-32710518D01*
X2869753Y-32517429D01*
X2985869Y-32343649D01*
X3133649Y-32195869D01*
X3307429Y-32079753D01*
X3500518Y-31999773D01*
X3705499Y-31959000D01*
X3914501Y-31959000D01*
X4119482Y-31999773D01*
X4119482Y-31999773D01*
G37*
G36*
X6659482Y-31999773D02*
X6852571Y-32079753D01*
X7026351Y-32195869D01*
X7174131Y-32343649D01*
X7290247Y-32517429D01*
X7370227Y-32710518D01*
X7411000Y-32915499D01*
X7411000Y-33124501D01*
X7370227Y-33329482D01*
X7290247Y-33522571D01*
X7174131Y-33696351D01*
X7026351Y-33844131D01*
X6852571Y-33960247D01*
X6659482Y-34040227D01*
X6454501Y-34081000D01*
X6245499Y-34081000D01*
X6040518Y-34040227D01*
X5847429Y-33960247D01*
X5673649Y-33844131D01*
X5525869Y-33696351D01*
X5409753Y-33522571D01*
X5329773Y-33329482D01*
X5289000Y-33124501D01*
X5289000Y-32915499D01*
X5329773Y-32710518D01*
X5409753Y-32517429D01*
X5525869Y-32343649D01*
X5673649Y-32195869D01*
X5847429Y-32079753D01*
X6040518Y-31999773D01*
X6245499Y-31959000D01*
X6454501Y-31959000D01*
X6659482Y-31999773D01*
X6659482Y-31999773D01*
G37*
G36*
X57459482Y-31999773D02*
X57652571Y-32079753D01*
X57826351Y-32195869D01*
X57974131Y-32343649D01*
X58090247Y-32517429D01*
X58170227Y-32710518D01*
X58211000Y-32915499D01*
X58211000Y-33124501D01*
X58170227Y-33329482D01*
X58090247Y-33522571D01*
X57974131Y-33696351D01*
X57826351Y-33844131D01*
X57652571Y-33960247D01*
X57459482Y-34040227D01*
X57254501Y-34081000D01*
X57045499Y-34081000D01*
X56840518Y-34040227D01*
X56647429Y-33960247D01*
X56473649Y-33844131D01*
X56325869Y-33696351D01*
X56209753Y-33522571D01*
X56129773Y-33329482D01*
X56089000Y-33124501D01*
X56089000Y-32915499D01*
X56129773Y-32710518D01*
X56209753Y-32517429D01*
X56325869Y-32343649D01*
X56473649Y-32195869D01*
X56647429Y-32079753D01*
X56840518Y-31999773D01*
X57045499Y-31959000D01*
X57254501Y-31959000D01*
X57459482Y-31999773D01*
X57459482Y-31999773D01*
G37*
G36*
X59999482Y-31999773D02*
X60192571Y-32079753D01*
X60366351Y-32195869D01*
X60514131Y-32343649D01*
X60630247Y-32517429D01*
X60710227Y-32710518D01*
X60751000Y-32915499D01*
X60751000Y-33124501D01*
X60710227Y-33329482D01*
X60630247Y-33522571D01*
X60514131Y-33696351D01*
X60366351Y-33844131D01*
X60192571Y-33960247D01*
X59999482Y-34040227D01*
X59794501Y-34081000D01*
X59585499Y-34081000D01*
X59380518Y-34040227D01*
X59187429Y-33960247D01*
X59013649Y-33844131D01*
X58865869Y-33696351D01*
X58749753Y-33522571D01*
X58669773Y-33329482D01*
X58629000Y-33124501D01*
X58629000Y-32915499D01*
X58669773Y-32710518D01*
X58749753Y-32517429D01*
X58865869Y-32343649D01*
X59013649Y-32195869D01*
X59187429Y-32079753D01*
X59380518Y-31999773D01*
X59585499Y-31959000D01*
X59794501Y-31959000D01*
X59999482Y-31999773D01*
X59999482Y-31999773D01*
G37*
G36*
X43828562Y-31335181D02*
X43863477Y-31345773D01*
X43895665Y-31362978D01*
X43923873Y-31386127D01*
X43947022Y-31414335D01*
X43964227Y-31446523D01*
X43974819Y-31481438D01*
X43979000Y-31523895D01*
X43979000Y-32665105D01*
X43974819Y-32707562D01*
X43964227Y-32742477D01*
X43947022Y-32774665D01*
X43923873Y-32802873D01*
X43895665Y-32826022D01*
X43863477Y-32843227D01*
X43828562Y-32853819D01*
X43786105Y-32858000D01*
X42319895Y-32858000D01*
X42277438Y-32853819D01*
X42242523Y-32843227D01*
X42210335Y-32826022D01*
X42182127Y-32802873D01*
X42158978Y-32774665D01*
X42141773Y-32742477D01*
X42131181Y-32707562D01*
X42127000Y-32665105D01*
X42127000Y-31523895D01*
X42131181Y-31481438D01*
X42141773Y-31446523D01*
X42158978Y-31414335D01*
X42182127Y-31386127D01*
X42210335Y-31362978D01*
X42242523Y-31345773D01*
X42277438Y-31335181D01*
X42319895Y-31331000D01*
X43786105Y-31331000D01*
X43828562Y-31335181D01*
X43828562Y-31335181D01*
G37*
G36*
X30366562Y-31298681D02*
X30401477Y-31309273D01*
X30433665Y-31326478D01*
X30461873Y-31349627D01*
X30485022Y-31377835D01*
X30502227Y-31410023D01*
X30512819Y-31444938D01*
X30517000Y-31487395D01*
X30517000Y-32628605D01*
X30512819Y-32671062D01*
X30502227Y-32705977D01*
X30485022Y-32738165D01*
X30461873Y-32766373D01*
X30433665Y-32789522D01*
X30401477Y-32806727D01*
X30366562Y-32817319D01*
X30324105Y-32821500D01*
X28857895Y-32821500D01*
X28815438Y-32817319D01*
X28780523Y-32806727D01*
X28748335Y-32789522D01*
X28720127Y-32766373D01*
X28696978Y-32738165D01*
X28679773Y-32705977D01*
X28669181Y-32671062D01*
X28665000Y-32628605D01*
X28665000Y-31487395D01*
X28669181Y-31444938D01*
X28679773Y-31410023D01*
X28696978Y-31377835D01*
X28720127Y-31349627D01*
X28748335Y-31326478D01*
X28780523Y-31309273D01*
X28815438Y-31298681D01*
X28857895Y-31294500D01*
X30324105Y-31294500D01*
X30366562Y-31298681D01*
X30366562Y-31298681D01*
G37*
G36*
X15380562Y-31298681D02*
X15415477Y-31309273D01*
X15447665Y-31326478D01*
X15475873Y-31349627D01*
X15499022Y-31377835D01*
X15516227Y-31410023D01*
X15526819Y-31444938D01*
X15531000Y-31487395D01*
X15531000Y-32628605D01*
X15526819Y-32671062D01*
X15516227Y-32705977D01*
X15499022Y-32738165D01*
X15475873Y-32766373D01*
X15447665Y-32789522D01*
X15415477Y-32806727D01*
X15380562Y-32817319D01*
X15338105Y-32821500D01*
X13871895Y-32821500D01*
X13829438Y-32817319D01*
X13794523Y-32806727D01*
X13762335Y-32789522D01*
X13734127Y-32766373D01*
X13710978Y-32738165D01*
X13693773Y-32705977D01*
X13683181Y-32671062D01*
X13679000Y-32628605D01*
X13679000Y-31487395D01*
X13683181Y-31444938D01*
X13693773Y-31410023D01*
X13710978Y-31377835D01*
X13734127Y-31349627D01*
X13762335Y-31326478D01*
X13794523Y-31309273D01*
X13829438Y-31298681D01*
X13871895Y-31294500D01*
X15338105Y-31294500D01*
X15380562Y-31298681D01*
X15380562Y-31298681D01*
G37*
G36*
X59999482Y-29459773D02*
X60192571Y-29539753D01*
X60366351Y-29655869D01*
X60514131Y-29803649D01*
X60630247Y-29977429D01*
X60710227Y-30170518D01*
X60751000Y-30375499D01*
X60751000Y-30584501D01*
X60710227Y-30789482D01*
X60630247Y-30982571D01*
X60514131Y-31156351D01*
X60366351Y-31304131D01*
X60192571Y-31420247D01*
X59999482Y-31500227D01*
X59794501Y-31541000D01*
X59585499Y-31541000D01*
X59380518Y-31500227D01*
X59187429Y-31420247D01*
X59013649Y-31304131D01*
X58865869Y-31156351D01*
X58749753Y-30982571D01*
X58669773Y-30789482D01*
X58629000Y-30584501D01*
X58629000Y-30375499D01*
X58669773Y-30170518D01*
X58749753Y-29977429D01*
X58865869Y-29803649D01*
X59013649Y-29655869D01*
X59187429Y-29539753D01*
X59380518Y-29459773D01*
X59585499Y-29419000D01*
X59794501Y-29419000D01*
X59999482Y-29459773D01*
X59999482Y-29459773D01*
G37*
G36*
X4119482Y-29459773D02*
X4312571Y-29539753D01*
X4486351Y-29655869D01*
X4634131Y-29803649D01*
X4750247Y-29977429D01*
X4830227Y-30170518D01*
X4871000Y-30375499D01*
X4871000Y-30584501D01*
X4830227Y-30789482D01*
X4750247Y-30982571D01*
X4634131Y-31156351D01*
X4486351Y-31304131D01*
X4312571Y-31420247D01*
X4119482Y-31500227D01*
X3914501Y-31541000D01*
X3705499Y-31541000D01*
X3500518Y-31500227D01*
X3307429Y-31420247D01*
X3133649Y-31304131D01*
X2985869Y-31156351D01*
X2869753Y-30982571D01*
X2789773Y-30789482D01*
X2749000Y-30584501D01*
X2749000Y-30375499D01*
X2789773Y-30170518D01*
X2869753Y-29977429D01*
X2985869Y-29803649D01*
X3133649Y-29655869D01*
X3307429Y-29539753D01*
X3500518Y-29459773D01*
X3705499Y-29419000D01*
X3914501Y-29419000D01*
X4119482Y-29459773D01*
X4119482Y-29459773D01*
G37*
G36*
X57459482Y-29459773D02*
X57652571Y-29539753D01*
X57826351Y-29655869D01*
X57974131Y-29803649D01*
X58090247Y-29977429D01*
X58170227Y-30170518D01*
X58211000Y-30375499D01*
X58211000Y-30584501D01*
X58170227Y-30789482D01*
X58090247Y-30982571D01*
X57974131Y-31156351D01*
X57826351Y-31304131D01*
X57652571Y-31420247D01*
X57459482Y-31500227D01*
X57254501Y-31541000D01*
X57045499Y-31541000D01*
X56840518Y-31500227D01*
X56647429Y-31420247D01*
X56473649Y-31304131D01*
X56325869Y-31156351D01*
X56209753Y-30982571D01*
X56129773Y-30789482D01*
X56089000Y-30584501D01*
X56089000Y-30375499D01*
X56129773Y-30170518D01*
X56209753Y-29977429D01*
X56325869Y-29803649D01*
X56473649Y-29655869D01*
X56647429Y-29539753D01*
X56840518Y-29459773D01*
X57045499Y-29419000D01*
X57254501Y-29419000D01*
X57459482Y-29459773D01*
X57459482Y-29459773D01*
G37*
G36*
X6659482Y-29459773D02*
X6852571Y-29539753D01*
X7026351Y-29655869D01*
X7174131Y-29803649D01*
X7290247Y-29977429D01*
X7370227Y-30170518D01*
X7411000Y-30375499D01*
X7411000Y-30584501D01*
X7370227Y-30789482D01*
X7290247Y-30982571D01*
X7174131Y-31156351D01*
X7026351Y-31304131D01*
X6852571Y-31420247D01*
X6659482Y-31500227D01*
X6454501Y-31541000D01*
X6245499Y-31541000D01*
X6040518Y-31500227D01*
X5847429Y-31420247D01*
X5673649Y-31304131D01*
X5525869Y-31156351D01*
X5409753Y-30982571D01*
X5329773Y-30789482D01*
X5289000Y-30584501D01*
X5289000Y-30375499D01*
X5329773Y-30170518D01*
X5409753Y-29977429D01*
X5525869Y-29803649D01*
X5673649Y-29655869D01*
X5847429Y-29539753D01*
X6040518Y-29459773D01*
X6245499Y-29419000D01*
X6454501Y-29419000D01*
X6659482Y-29459773D01*
X6659482Y-29459773D01*
G37*
G36*
X49217562Y-28415181D02*
X49252477Y-28425773D01*
X49284665Y-28442978D01*
X49312873Y-28466127D01*
X49336022Y-28494335D01*
X49353227Y-28526523D01*
X49363819Y-28561438D01*
X49368000Y-28603895D01*
X49368000Y-30070105D01*
X49363819Y-30112562D01*
X49353227Y-30147477D01*
X49336022Y-30179665D01*
X49312873Y-30207873D01*
X49284665Y-30231022D01*
X49252477Y-30248227D01*
X49217562Y-30258819D01*
X49175105Y-30263000D01*
X48033895Y-30263000D01*
X47991438Y-30258819D01*
X47956523Y-30248227D01*
X47924335Y-30231022D01*
X47896127Y-30207873D01*
X47872978Y-30179665D01*
X47855773Y-30147477D01*
X47845181Y-30112562D01*
X47841000Y-30070105D01*
X47841000Y-28603895D01*
X47845181Y-28561438D01*
X47855773Y-28526523D01*
X47872978Y-28494335D01*
X47896127Y-28466127D01*
X47924335Y-28442978D01*
X47956523Y-28425773D01*
X47991438Y-28415181D01*
X48033895Y-28411000D01*
X49175105Y-28411000D01*
X49217562Y-28415181D01*
X49217562Y-28415181D01*
G37*
G36*
X46242562Y-28415181D02*
X46277477Y-28425773D01*
X46309665Y-28442978D01*
X46337873Y-28466127D01*
X46361022Y-28494335D01*
X46378227Y-28526523D01*
X46388819Y-28561438D01*
X46393000Y-28603895D01*
X46393000Y-30070105D01*
X46388819Y-30112562D01*
X46378227Y-30147477D01*
X46361022Y-30179665D01*
X46337873Y-30207873D01*
X46309665Y-30231022D01*
X46277477Y-30248227D01*
X46242562Y-30258819D01*
X46200105Y-30263000D01*
X45058895Y-30263000D01*
X45016438Y-30258819D01*
X44981523Y-30248227D01*
X44949335Y-30231022D01*
X44921127Y-30207873D01*
X44897978Y-30179665D01*
X44880773Y-30147477D01*
X44870181Y-30112562D01*
X44866000Y-30070105D01*
X44866000Y-28603895D01*
X44870181Y-28561438D01*
X44880773Y-28526523D01*
X44897978Y-28494335D01*
X44921127Y-28466127D01*
X44949335Y-28442978D01*
X44981523Y-28425773D01*
X45016438Y-28415181D01*
X45058895Y-28411000D01*
X46200105Y-28411000D01*
X46242562Y-28415181D01*
X46242562Y-28415181D01*
G37*
G36*
X35501562Y-28351681D02*
X35536477Y-28362273D01*
X35568665Y-28379478D01*
X35596873Y-28402627D01*
X35620022Y-28430835D01*
X35637227Y-28463023D01*
X35647819Y-28497938D01*
X35652000Y-28540395D01*
X35652000Y-30006605D01*
X35647819Y-30049062D01*
X35637227Y-30083977D01*
X35620022Y-30116165D01*
X35596873Y-30144373D01*
X35568665Y-30167522D01*
X35536477Y-30184727D01*
X35501562Y-30195319D01*
X35459105Y-30199500D01*
X34317895Y-30199500D01*
X34275438Y-30195319D01*
X34240523Y-30184727D01*
X34208335Y-30167522D01*
X34180127Y-30144373D01*
X34156978Y-30116165D01*
X34139773Y-30083977D01*
X34129181Y-30049062D01*
X34125000Y-30006605D01*
X34125000Y-28540395D01*
X34129181Y-28497938D01*
X34139773Y-28463023D01*
X34156978Y-28430835D01*
X34180127Y-28402627D01*
X34208335Y-28379478D01*
X34240523Y-28362273D01*
X34275438Y-28351681D01*
X34317895Y-28347500D01*
X35459105Y-28347500D01*
X35501562Y-28351681D01*
X35501562Y-28351681D01*
G37*
G36*
X32526562Y-28351681D02*
X32561477Y-28362273D01*
X32593665Y-28379478D01*
X32621873Y-28402627D01*
X32645022Y-28430835D01*
X32662227Y-28463023D01*
X32672819Y-28497938D01*
X32677000Y-28540395D01*
X32677000Y-30006605D01*
X32672819Y-30049062D01*
X32662227Y-30083977D01*
X32645022Y-30116165D01*
X32621873Y-30144373D01*
X32593665Y-30167522D01*
X32561477Y-30184727D01*
X32526562Y-30195319D01*
X32484105Y-30199500D01*
X31342895Y-30199500D01*
X31300438Y-30195319D01*
X31265523Y-30184727D01*
X31233335Y-30167522D01*
X31205127Y-30144373D01*
X31181978Y-30116165D01*
X31164773Y-30083977D01*
X31154181Y-30049062D01*
X31150000Y-30006605D01*
X31150000Y-28540395D01*
X31154181Y-28497938D01*
X31164773Y-28463023D01*
X31181978Y-28430835D01*
X31205127Y-28402627D01*
X31233335Y-28379478D01*
X31265523Y-28362273D01*
X31300438Y-28351681D01*
X31342895Y-28347500D01*
X32484105Y-28347500D01*
X32526562Y-28351681D01*
X32526562Y-28351681D01*
G37*
G36*
X20515562Y-28161181D02*
X20550477Y-28171773D01*
X20582665Y-28188978D01*
X20610873Y-28212127D01*
X20634022Y-28240335D01*
X20651227Y-28272523D01*
X20661819Y-28307438D01*
X20666000Y-28349895D01*
X20666000Y-29816105D01*
X20661819Y-29858562D01*
X20651227Y-29893477D01*
X20634022Y-29925665D01*
X20610873Y-29953873D01*
X20582665Y-29977022D01*
X20550477Y-29994227D01*
X20515562Y-30004819D01*
X20473105Y-30009000D01*
X19331895Y-30009000D01*
X19289438Y-30004819D01*
X19254523Y-29994227D01*
X19222335Y-29977022D01*
X19194127Y-29953873D01*
X19170978Y-29925665D01*
X19153773Y-29893477D01*
X19143181Y-29858562D01*
X19139000Y-29816105D01*
X19139000Y-28349895D01*
X19143181Y-28307438D01*
X19153773Y-28272523D01*
X19170978Y-28240335D01*
X19194127Y-28212127D01*
X19222335Y-28188978D01*
X19254523Y-28171773D01*
X19289438Y-28161181D01*
X19331895Y-28157000D01*
X20473105Y-28157000D01*
X20515562Y-28161181D01*
X20515562Y-28161181D01*
G37*
G36*
X17540562Y-28161181D02*
X17575477Y-28171773D01*
X17607665Y-28188978D01*
X17635873Y-28212127D01*
X17659022Y-28240335D01*
X17676227Y-28272523D01*
X17686819Y-28307438D01*
X17691000Y-28349895D01*
X17691000Y-29816105D01*
X17686819Y-29858562D01*
X17676227Y-29893477D01*
X17659022Y-29925665D01*
X17635873Y-29953873D01*
X17607665Y-29977022D01*
X17575477Y-29994227D01*
X17540562Y-30004819D01*
X17498105Y-30009000D01*
X16356895Y-30009000D01*
X16314438Y-30004819D01*
X16279523Y-29994227D01*
X16247335Y-29977022D01*
X16219127Y-29953873D01*
X16195978Y-29925665D01*
X16178773Y-29893477D01*
X16168181Y-29858562D01*
X16164000Y-29816105D01*
X16164000Y-28349895D01*
X16168181Y-28307438D01*
X16178773Y-28272523D01*
X16195978Y-28240335D01*
X16219127Y-28212127D01*
X16247335Y-28188978D01*
X16279523Y-28171773D01*
X16314438Y-28161181D01*
X16356895Y-28157000D01*
X17498105Y-28157000D01*
X17540562Y-28161181D01*
X17540562Y-28161181D01*
G37*
G36*
X43828562Y-28360181D02*
X43863477Y-28370773D01*
X43895665Y-28387978D01*
X43923873Y-28411127D01*
X43947022Y-28439335D01*
X43964227Y-28471523D01*
X43974819Y-28506438D01*
X43979000Y-28548895D01*
X43979000Y-29690105D01*
X43974819Y-29732562D01*
X43964227Y-29767477D01*
X43947022Y-29799665D01*
X43923873Y-29827873D01*
X43895665Y-29851022D01*
X43863477Y-29868227D01*
X43828562Y-29878819D01*
X43786105Y-29883000D01*
X42319895Y-29883000D01*
X42277438Y-29878819D01*
X42242523Y-29868227D01*
X42210335Y-29851022D01*
X42182127Y-29827873D01*
X42158978Y-29799665D01*
X42141773Y-29767477D01*
X42131181Y-29732562D01*
X42127000Y-29690105D01*
X42127000Y-28548895D01*
X42131181Y-28506438D01*
X42141773Y-28471523D01*
X42158978Y-28439335D01*
X42182127Y-28411127D01*
X42210335Y-28387978D01*
X42242523Y-28370773D01*
X42277438Y-28360181D01*
X42319895Y-28356000D01*
X43786105Y-28356000D01*
X43828562Y-28360181D01*
X43828562Y-28360181D01*
G37*
G36*
X30366562Y-28323681D02*
X30401477Y-28334273D01*
X30433665Y-28351478D01*
X30461873Y-28374627D01*
X30485022Y-28402835D01*
X30502227Y-28435023D01*
X30512819Y-28469938D01*
X30517000Y-28512395D01*
X30517000Y-29653605D01*
X30512819Y-29696062D01*
X30502227Y-29730977D01*
X30485022Y-29763165D01*
X30461873Y-29791373D01*
X30433665Y-29814522D01*
X30401477Y-29831727D01*
X30366562Y-29842319D01*
X30324105Y-29846500D01*
X28857895Y-29846500D01*
X28815438Y-29842319D01*
X28780523Y-29831727D01*
X28748335Y-29814522D01*
X28720127Y-29791373D01*
X28696978Y-29763165D01*
X28679773Y-29730977D01*
X28669181Y-29696062D01*
X28665000Y-29653605D01*
X28665000Y-28512395D01*
X28669181Y-28469938D01*
X28679773Y-28435023D01*
X28696978Y-28402835D01*
X28720127Y-28374627D01*
X28748335Y-28351478D01*
X28780523Y-28334273D01*
X28815438Y-28323681D01*
X28857895Y-28319500D01*
X30324105Y-28319500D01*
X30366562Y-28323681D01*
X30366562Y-28323681D01*
G37*
G36*
X15380562Y-28323681D02*
X15415477Y-28334273D01*
X15447665Y-28351478D01*
X15475873Y-28374627D01*
X15499022Y-28402835D01*
X15516227Y-28435023D01*
X15526819Y-28469938D01*
X15531000Y-28512395D01*
X15531000Y-29653605D01*
X15526819Y-29696062D01*
X15516227Y-29730977D01*
X15499022Y-29763165D01*
X15475873Y-29791373D01*
X15447665Y-29814522D01*
X15415477Y-29831727D01*
X15380562Y-29842319D01*
X15338105Y-29846500D01*
X13871895Y-29846500D01*
X13829438Y-29842319D01*
X13794523Y-29831727D01*
X13762335Y-29814522D01*
X13734127Y-29791373D01*
X13710978Y-29763165D01*
X13693773Y-29730977D01*
X13683181Y-29696062D01*
X13679000Y-29653605D01*
X13679000Y-28512395D01*
X13683181Y-28469938D01*
X13693773Y-28435023D01*
X13710978Y-28402835D01*
X13734127Y-28374627D01*
X13762335Y-28351478D01*
X13794523Y-28334273D01*
X13829438Y-28323681D01*
X13871895Y-28319500D01*
X15338105Y-28319500D01*
X15380562Y-28323681D01*
X15380562Y-28323681D01*
G37*
G36*
X57459482Y-26919773D02*
X57652571Y-26999753D01*
X57826351Y-27115869D01*
X57974131Y-27263649D01*
X58090247Y-27437429D01*
X58170227Y-27630518D01*
X58211000Y-27835499D01*
X58211000Y-28044501D01*
X58170227Y-28249482D01*
X58090247Y-28442571D01*
X57974131Y-28616351D01*
X57826351Y-28764131D01*
X57652571Y-28880247D01*
X57459482Y-28960227D01*
X57254501Y-29001000D01*
X57045499Y-29001000D01*
X56840518Y-28960227D01*
X56647429Y-28880247D01*
X56473649Y-28764131D01*
X56325869Y-28616351D01*
X56209753Y-28442571D01*
X56129773Y-28249482D01*
X56089000Y-28044501D01*
X56089000Y-27835499D01*
X56129773Y-27630518D01*
X56209753Y-27437429D01*
X56325869Y-27263649D01*
X56473649Y-27115869D01*
X56647429Y-26999753D01*
X56840518Y-26919773D01*
X57045499Y-26879000D01*
X57254501Y-26879000D01*
X57459482Y-26919773D01*
X57459482Y-26919773D01*
G37*
G36*
X59999482Y-26919773D02*
X60192571Y-26999753D01*
X60366351Y-27115869D01*
X60514131Y-27263649D01*
X60630247Y-27437429D01*
X60710227Y-27630518D01*
X60751000Y-27835499D01*
X60751000Y-28044501D01*
X60710227Y-28249482D01*
X60630247Y-28442571D01*
X60514131Y-28616351D01*
X60366351Y-28764131D01*
X60192571Y-28880247D01*
X59999482Y-28960227D01*
X59794501Y-29001000D01*
X59585499Y-29001000D01*
X59380518Y-28960227D01*
X59187429Y-28880247D01*
X59013649Y-28764131D01*
X58865869Y-28616351D01*
X58749753Y-28442571D01*
X58669773Y-28249482D01*
X58629000Y-28044501D01*
X58629000Y-27835499D01*
X58669773Y-27630518D01*
X58749753Y-27437429D01*
X58865869Y-27263649D01*
X59013649Y-27115869D01*
X59187429Y-26999753D01*
X59380518Y-26919773D01*
X59585499Y-26879000D01*
X59794501Y-26879000D01*
X59999482Y-26919773D01*
X59999482Y-26919773D01*
G37*
G36*
X6659482Y-26919773D02*
X6852571Y-26999753D01*
X7026351Y-27115869D01*
X7174131Y-27263649D01*
X7290247Y-27437429D01*
X7370227Y-27630518D01*
X7411000Y-27835499D01*
X7411000Y-28044501D01*
X7370227Y-28249482D01*
X7290247Y-28442571D01*
X7174131Y-28616351D01*
X7026351Y-28764131D01*
X6852571Y-28880247D01*
X6659482Y-28960227D01*
X6454501Y-29001000D01*
X6245499Y-29001000D01*
X6040518Y-28960227D01*
X5847429Y-28880247D01*
X5673649Y-28764131D01*
X5525869Y-28616351D01*
X5409753Y-28442571D01*
X5329773Y-28249482D01*
X5289000Y-28044501D01*
X5289000Y-27835499D01*
X5329773Y-27630518D01*
X5409753Y-27437429D01*
X5525869Y-27263649D01*
X5673649Y-27115869D01*
X5847429Y-26999753D01*
X6040518Y-26919773D01*
X6245499Y-26879000D01*
X6454501Y-26879000D01*
X6659482Y-26919773D01*
X6659482Y-26919773D01*
G37*
G36*
X4119482Y-26919773D02*
X4312571Y-26999753D01*
X4486351Y-27115869D01*
X4634131Y-27263649D01*
X4750247Y-27437429D01*
X4830227Y-27630518D01*
X4871000Y-27835499D01*
X4871000Y-28044501D01*
X4830227Y-28249482D01*
X4750247Y-28442571D01*
X4634131Y-28616351D01*
X4486351Y-28764131D01*
X4312571Y-28880247D01*
X4119482Y-28960227D01*
X3914501Y-29001000D01*
X3705499Y-29001000D01*
X3500518Y-28960227D01*
X3307429Y-28880247D01*
X3133649Y-28764131D01*
X2985869Y-28616351D01*
X2869753Y-28442571D01*
X2789773Y-28249482D01*
X2749000Y-28044501D01*
X2749000Y-27835499D01*
X2789773Y-27630518D01*
X2869753Y-27437429D01*
X2985869Y-27263649D01*
X3133649Y-27115869D01*
X3307429Y-26999753D01*
X3500518Y-26919773D01*
X3705499Y-26879000D01*
X3914501Y-26879000D01*
X4119482Y-26919773D01*
X4119482Y-26919773D01*
G37*
G36*
X6659482Y-24379773D02*
X6852571Y-24459753D01*
X7026351Y-24575869D01*
X7174131Y-24723649D01*
X7290247Y-24897429D01*
X7370227Y-25090518D01*
X7411000Y-25295499D01*
X7411000Y-25504501D01*
X7370227Y-25709482D01*
X7290247Y-25902571D01*
X7174131Y-26076351D01*
X7026351Y-26224131D01*
X6852571Y-26340247D01*
X6659482Y-26420227D01*
X6454501Y-26461000D01*
X6245499Y-26461000D01*
X6040518Y-26420227D01*
X5847429Y-26340247D01*
X5673649Y-26224131D01*
X5525869Y-26076351D01*
X5409753Y-25902571D01*
X5329773Y-25709482D01*
X5289000Y-25504501D01*
X5289000Y-25295499D01*
X5329773Y-25090518D01*
X5409753Y-24897429D01*
X5525869Y-24723649D01*
X5673649Y-24575869D01*
X5847429Y-24459753D01*
X6040518Y-24379773D01*
X6245499Y-24339000D01*
X6454501Y-24339000D01*
X6659482Y-24379773D01*
X6659482Y-24379773D01*
G37*
G36*
X4119482Y-24379773D02*
X4312571Y-24459753D01*
X4486351Y-24575869D01*
X4634131Y-24723649D01*
X4750247Y-24897429D01*
X4830227Y-25090518D01*
X4871000Y-25295499D01*
X4871000Y-25504501D01*
X4830227Y-25709482D01*
X4750247Y-25902571D01*
X4634131Y-26076351D01*
X4486351Y-26224131D01*
X4312571Y-26340247D01*
X4119482Y-26420227D01*
X3914501Y-26461000D01*
X3705499Y-26461000D01*
X3500518Y-26420227D01*
X3307429Y-26340247D01*
X3133649Y-26224131D01*
X2985869Y-26076351D01*
X2869753Y-25902571D01*
X2789773Y-25709482D01*
X2749000Y-25504501D01*
X2749000Y-25295499D01*
X2789773Y-25090518D01*
X2869753Y-24897429D01*
X2985869Y-24723649D01*
X3133649Y-24575869D01*
X3307429Y-24459753D01*
X3500518Y-24379773D01*
X3705499Y-24339000D01*
X3914501Y-24339000D01*
X4119482Y-24379773D01*
X4119482Y-24379773D01*
G37*
G36*
X59999482Y-24379773D02*
X60192571Y-24459753D01*
X60366351Y-24575869D01*
X60514131Y-24723649D01*
X60630247Y-24897429D01*
X60710227Y-25090518D01*
X60751000Y-25295499D01*
X60751000Y-25504501D01*
X60710227Y-25709482D01*
X60630247Y-25902571D01*
X60514131Y-26076351D01*
X60366351Y-26224131D01*
X60192571Y-26340247D01*
X59999482Y-26420227D01*
X59794501Y-26461000D01*
X59585499Y-26461000D01*
X59380518Y-26420227D01*
X59187429Y-26340247D01*
X59013649Y-26224131D01*
X58865869Y-26076351D01*
X58749753Y-25902571D01*
X58669773Y-25709482D01*
X58629000Y-25504501D01*
X58629000Y-25295499D01*
X58669773Y-25090518D01*
X58749753Y-24897429D01*
X58865869Y-24723649D01*
X59013649Y-24575869D01*
X59187429Y-24459753D01*
X59380518Y-24379773D01*
X59585499Y-24339000D01*
X59794501Y-24339000D01*
X59999482Y-24379773D01*
X59999482Y-24379773D01*
G37*
G36*
X57459482Y-24379773D02*
X57652571Y-24459753D01*
X57826351Y-24575869D01*
X57974131Y-24723649D01*
X58090247Y-24897429D01*
X58170227Y-25090518D01*
X58211000Y-25295499D01*
X58211000Y-25504501D01*
X58170227Y-25709482D01*
X58090247Y-25902571D01*
X57974131Y-26076351D01*
X57826351Y-26224131D01*
X57652571Y-26340247D01*
X57459482Y-26420227D01*
X57254501Y-26461000D01*
X57045499Y-26461000D01*
X56840518Y-26420227D01*
X56647429Y-26340247D01*
X56473649Y-26224131D01*
X56325869Y-26076351D01*
X56209753Y-25902571D01*
X56129773Y-25709482D01*
X56089000Y-25504501D01*
X56089000Y-25295499D01*
X56129773Y-25090518D01*
X56209753Y-24897429D01*
X56325869Y-24723649D01*
X56473649Y-24575869D01*
X56647429Y-24459753D01*
X56840518Y-24379773D01*
X57045499Y-24339000D01*
X57254501Y-24339000D01*
X57459482Y-24379773D01*
X57459482Y-24379773D01*
G37*
G36*
X21351482Y-22220773D02*
X21544571Y-22300753D01*
X21718351Y-22416869D01*
X21866131Y-22564649D01*
X21982247Y-22738429D01*
X22062227Y-22931518D01*
X22103000Y-23136499D01*
X22103000Y-23345501D01*
X22062227Y-23550482D01*
X21982247Y-23743571D01*
X21866131Y-23917351D01*
X21718351Y-24065131D01*
X21544571Y-24181247D01*
X21351482Y-24261227D01*
X21146501Y-24302000D01*
X20937499Y-24302000D01*
X20732518Y-24261227D01*
X20539429Y-24181247D01*
X20365649Y-24065131D01*
X20217869Y-23917351D01*
X20101753Y-23743571D01*
X20021773Y-23550482D01*
X19981000Y-23345501D01*
X19981000Y-23136499D01*
X20021773Y-22931518D01*
X20101753Y-22738429D01*
X20217869Y-22564649D01*
X20365649Y-22416869D01*
X20539429Y-22300753D01*
X20732518Y-22220773D01*
X20937499Y-22180000D01*
X21146501Y-22180000D01*
X21351482Y-22220773D01*
X21351482Y-22220773D01*
G37*
G36*
X16351482Y-22220773D02*
X16544571Y-22300753D01*
X16718351Y-22416869D01*
X16866131Y-22564649D01*
X16982247Y-22738429D01*
X17062227Y-22931518D01*
X17103000Y-23136499D01*
X17103000Y-23345501D01*
X17062227Y-23550482D01*
X16982247Y-23743571D01*
X16866131Y-23917351D01*
X16718351Y-24065131D01*
X16544571Y-24181247D01*
X16351482Y-24261227D01*
X16146501Y-24302000D01*
X15937499Y-24302000D01*
X15732518Y-24261227D01*
X15539429Y-24181247D01*
X15365649Y-24065131D01*
X15217869Y-23917351D01*
X15101753Y-23743571D01*
X15021773Y-23550482D01*
X14981000Y-23345501D01*
X14981000Y-23136499D01*
X15021773Y-22931518D01*
X15101753Y-22738429D01*
X15217869Y-22564649D01*
X15365649Y-22416869D01*
X15539429Y-22300753D01*
X15732518Y-22220773D01*
X15937499Y-22180000D01*
X16146501Y-22180000D01*
X16351482Y-22220773D01*
X16351482Y-22220773D01*
G37*
G36*
X43910482Y-21966773D02*
X44103571Y-22046753D01*
X44277351Y-22162869D01*
X44425131Y-22310649D01*
X44541247Y-22484429D01*
X44621227Y-22677518D01*
X44662000Y-22882499D01*
X44662000Y-23091501D01*
X44621227Y-23296482D01*
X44541247Y-23489571D01*
X44425131Y-23663351D01*
X44277351Y-23811131D01*
X44103571Y-23927247D01*
X43910482Y-24007227D01*
X43705501Y-24048000D01*
X43496499Y-24048000D01*
X43291518Y-24007227D01*
X43098429Y-23927247D01*
X42924649Y-23811131D01*
X42776869Y-23663351D01*
X42660753Y-23489571D01*
X42580773Y-23296482D01*
X42540000Y-23091501D01*
X42540000Y-22882499D01*
X42580773Y-22677518D01*
X42660753Y-22484429D01*
X42776869Y-22310649D01*
X42924649Y-22162869D01*
X43098429Y-22046753D01*
X43291518Y-21966773D01*
X43496499Y-21926000D01*
X43705501Y-21926000D01*
X43910482Y-21966773D01*
X43910482Y-21966773D01*
G37*
G36*
X30194482Y-21966773D02*
X30387571Y-22046753D01*
X30561351Y-22162869D01*
X30709131Y-22310649D01*
X30825247Y-22484429D01*
X30905227Y-22677518D01*
X30946000Y-22882499D01*
X30946000Y-23091501D01*
X30905227Y-23296482D01*
X30825247Y-23489571D01*
X30709131Y-23663351D01*
X30561351Y-23811131D01*
X30387571Y-23927247D01*
X30194482Y-24007227D01*
X29989501Y-24048000D01*
X29780499Y-24048000D01*
X29575518Y-24007227D01*
X29382429Y-23927247D01*
X29208649Y-23811131D01*
X29060869Y-23663351D01*
X28944753Y-23489571D01*
X28864773Y-23296482D01*
X28824000Y-23091501D01*
X28824000Y-22882499D01*
X28864773Y-22677518D01*
X28944753Y-22484429D01*
X29060869Y-22310649D01*
X29208649Y-22162869D01*
X29382429Y-22046753D01*
X29575518Y-21966773D01*
X29780499Y-21926000D01*
X29989501Y-21926000D01*
X30194482Y-21966773D01*
X30194482Y-21966773D01*
G37*
G36*
X48910482Y-21966773D02*
X49103571Y-22046753D01*
X49277351Y-22162869D01*
X49425131Y-22310649D01*
X49541247Y-22484429D01*
X49621227Y-22677518D01*
X49662000Y-22882499D01*
X49662000Y-23091501D01*
X49621227Y-23296482D01*
X49541247Y-23489571D01*
X49425131Y-23663351D01*
X49277351Y-23811131D01*
X49103571Y-23927247D01*
X48910482Y-24007227D01*
X48705501Y-24048000D01*
X48496499Y-24048000D01*
X48291518Y-24007227D01*
X48098429Y-23927247D01*
X47924649Y-23811131D01*
X47776869Y-23663351D01*
X47660753Y-23489571D01*
X47580773Y-23296482D01*
X47540000Y-23091501D01*
X47540000Y-22882499D01*
X47580773Y-22677518D01*
X47660753Y-22484429D01*
X47776869Y-22310649D01*
X47924649Y-22162869D01*
X48098429Y-22046753D01*
X48291518Y-21966773D01*
X48496499Y-21926000D01*
X48705501Y-21926000D01*
X48910482Y-21966773D01*
X48910482Y-21966773D01*
G37*
G36*
X35194482Y-21966773D02*
X35387571Y-22046753D01*
X35561351Y-22162869D01*
X35709131Y-22310649D01*
X35825247Y-22484429D01*
X35905227Y-22677518D01*
X35946000Y-22882499D01*
X35946000Y-23091501D01*
X35905227Y-23296482D01*
X35825247Y-23489571D01*
X35709131Y-23663351D01*
X35561351Y-23811131D01*
X35387571Y-23927247D01*
X35194482Y-24007227D01*
X34989501Y-24048000D01*
X34780499Y-24048000D01*
X34575518Y-24007227D01*
X34382429Y-23927247D01*
X34208649Y-23811131D01*
X34060869Y-23663351D01*
X33944753Y-23489571D01*
X33864773Y-23296482D01*
X33824000Y-23091501D01*
X33824000Y-22882499D01*
X33864773Y-22677518D01*
X33944753Y-22484429D01*
X34060869Y-22310649D01*
X34208649Y-22162869D01*
X34382429Y-22046753D01*
X34575518Y-21966773D01*
X34780499Y-21926000D01*
X34989501Y-21926000D01*
X35194482Y-21966773D01*
X35194482Y-21966773D01*
G37*
G36*
X4119482Y-21839773D02*
X4312571Y-21919753D01*
X4486351Y-22035869D01*
X4634131Y-22183649D01*
X4750247Y-22357429D01*
X4830227Y-22550518D01*
X4871000Y-22755499D01*
X4871000Y-22964501D01*
X4830227Y-23169482D01*
X4750247Y-23362571D01*
X4634131Y-23536351D01*
X4486351Y-23684131D01*
X4312571Y-23800247D01*
X4119482Y-23880227D01*
X3914501Y-23921000D01*
X3705499Y-23921000D01*
X3500518Y-23880227D01*
X3307429Y-23800247D01*
X3133649Y-23684131D01*
X2985869Y-23536351D01*
X2869753Y-23362571D01*
X2789773Y-23169482D01*
X2749000Y-22964501D01*
X2749000Y-22755499D01*
X2789773Y-22550518D01*
X2869753Y-22357429D01*
X2985869Y-22183649D01*
X3133649Y-22035869D01*
X3307429Y-21919753D01*
X3500518Y-21839773D01*
X3705499Y-21799000D01*
X3914501Y-21799000D01*
X4119482Y-21839773D01*
X4119482Y-21839773D01*
G37*
G36*
X59999482Y-21839773D02*
X60192571Y-21919753D01*
X60366351Y-22035869D01*
X60514131Y-22183649D01*
X60630247Y-22357429D01*
X60710227Y-22550518D01*
X60751000Y-22755499D01*
X60751000Y-22964501D01*
X60710227Y-23169482D01*
X60630247Y-23362571D01*
X60514131Y-23536351D01*
X60366351Y-23684131D01*
X60192571Y-23800247D01*
X59999482Y-23880227D01*
X59794501Y-23921000D01*
X59585499Y-23921000D01*
X59380518Y-23880227D01*
X59187429Y-23800247D01*
X59013649Y-23684131D01*
X58865869Y-23536351D01*
X58749753Y-23362571D01*
X58669773Y-23169482D01*
X58629000Y-22964501D01*
X58629000Y-22755499D01*
X58669773Y-22550518D01*
X58749753Y-22357429D01*
X58865869Y-22183649D01*
X59013649Y-22035869D01*
X59187429Y-21919753D01*
X59380518Y-21839773D01*
X59585499Y-21799000D01*
X59794501Y-21799000D01*
X59999482Y-21839773D01*
X59999482Y-21839773D01*
G37*
G36*
X6659482Y-21839773D02*
X6852571Y-21919753D01*
X7026351Y-22035869D01*
X7174131Y-22183649D01*
X7290247Y-22357429D01*
X7370227Y-22550518D01*
X7411000Y-22755499D01*
X7411000Y-22964501D01*
X7370227Y-23169482D01*
X7290247Y-23362571D01*
X7174131Y-23536351D01*
X7026351Y-23684131D01*
X6852571Y-23800247D01*
X6659482Y-23880227D01*
X6454501Y-23921000D01*
X6245499Y-23921000D01*
X6040518Y-23880227D01*
X5847429Y-23800247D01*
X5673649Y-23684131D01*
X5525869Y-23536351D01*
X5409753Y-23362571D01*
X5329773Y-23169482D01*
X5289000Y-22964501D01*
X5289000Y-22755499D01*
X5329773Y-22550518D01*
X5409753Y-22357429D01*
X5525869Y-22183649D01*
X5673649Y-22035869D01*
X5847429Y-21919753D01*
X6040518Y-21839773D01*
X6245499Y-21799000D01*
X6454501Y-21799000D01*
X6659482Y-21839773D01*
X6659482Y-21839773D01*
G37*
G36*
X57459482Y-21839773D02*
X57652571Y-21919753D01*
X57826351Y-22035869D01*
X57974131Y-22183649D01*
X58090247Y-22357429D01*
X58170227Y-22550518D01*
X58211000Y-22755499D01*
X58211000Y-22964501D01*
X58170227Y-23169482D01*
X58090247Y-23362571D01*
X57974131Y-23536351D01*
X57826351Y-23684131D01*
X57652571Y-23800247D01*
X57459482Y-23880227D01*
X57254501Y-23921000D01*
X57045499Y-23921000D01*
X56840518Y-23880227D01*
X56647429Y-23800247D01*
X56473649Y-23684131D01*
X56325869Y-23536351D01*
X56209753Y-23362571D01*
X56129773Y-23169482D01*
X56089000Y-22964501D01*
X56089000Y-22755499D01*
X56129773Y-22550518D01*
X56209753Y-22357429D01*
X56325869Y-22183649D01*
X56473649Y-22035869D01*
X56647429Y-21919753D01*
X56840518Y-21839773D01*
X57045499Y-21799000D01*
X57254501Y-21799000D01*
X57459482Y-21839773D01*
X57459482Y-21839773D01*
G37*
G36*
X6659482Y-19299773D02*
X6852571Y-19379753D01*
X7026351Y-19495869D01*
X7174131Y-19643649D01*
X7290247Y-19817429D01*
X7370227Y-20010518D01*
X7411000Y-20215499D01*
X7411000Y-20424501D01*
X7370227Y-20629482D01*
X7290247Y-20822571D01*
X7174131Y-20996351D01*
X7026351Y-21144131D01*
X6852571Y-21260247D01*
X6659482Y-21340227D01*
X6454501Y-21381000D01*
X6245499Y-21381000D01*
X6040518Y-21340227D01*
X5847429Y-21260247D01*
X5673649Y-21144131D01*
X5525869Y-20996351D01*
X5409753Y-20822571D01*
X5329773Y-20629482D01*
X5289000Y-20424501D01*
X5289000Y-20215499D01*
X5329773Y-20010518D01*
X5409753Y-19817429D01*
X5525869Y-19643649D01*
X5673649Y-19495869D01*
X5847429Y-19379753D01*
X6040518Y-19299773D01*
X6245499Y-19259000D01*
X6454501Y-19259000D01*
X6659482Y-19299773D01*
X6659482Y-19299773D01*
G37*
G36*
X4119482Y-19299773D02*
X4312571Y-19379753D01*
X4486351Y-19495869D01*
X4634131Y-19643649D01*
X4750247Y-19817429D01*
X4830227Y-20010518D01*
X4871000Y-20215499D01*
X4871000Y-20424501D01*
X4830227Y-20629482D01*
X4750247Y-20822571D01*
X4634131Y-20996351D01*
X4486351Y-21144131D01*
X4312571Y-21260247D01*
X4119482Y-21340227D01*
X3914501Y-21381000D01*
X3705499Y-21381000D01*
X3500518Y-21340227D01*
X3307429Y-21260247D01*
X3133649Y-21144131D01*
X2985869Y-20996351D01*
X2869753Y-20822571D01*
X2789773Y-20629482D01*
X2749000Y-20424501D01*
X2749000Y-20215499D01*
X2789773Y-20010518D01*
X2869753Y-19817429D01*
X2985869Y-19643649D01*
X3133649Y-19495869D01*
X3307429Y-19379753D01*
X3500518Y-19299773D01*
X3705499Y-19259000D01*
X3914501Y-19259000D01*
X4119482Y-19299773D01*
X4119482Y-19299773D01*
G37*
G36*
X59999482Y-19299773D02*
X60192571Y-19379753D01*
X60366351Y-19495869D01*
X60514131Y-19643649D01*
X60630247Y-19817429D01*
X60710227Y-20010518D01*
X60751000Y-20215499D01*
X60751000Y-20424501D01*
X60710227Y-20629482D01*
X60630247Y-20822571D01*
X60514131Y-20996351D01*
X60366351Y-21144131D01*
X60192571Y-21260247D01*
X59999482Y-21340227D01*
X59794501Y-21381000D01*
X59585499Y-21381000D01*
X59380518Y-21340227D01*
X59187429Y-21260247D01*
X59013649Y-21144131D01*
X58865869Y-20996351D01*
X58749753Y-20822571D01*
X58669773Y-20629482D01*
X58629000Y-20424501D01*
X58629000Y-20215499D01*
X58669773Y-20010518D01*
X58749753Y-19817429D01*
X58865869Y-19643649D01*
X59013649Y-19495869D01*
X59187429Y-19379753D01*
X59380518Y-19299773D01*
X59585499Y-19259000D01*
X59794501Y-19259000D01*
X59999482Y-19299773D01*
X59999482Y-19299773D01*
G37*
G36*
X57459482Y-19299773D02*
X57652571Y-19379753D01*
X57826351Y-19495869D01*
X57974131Y-19643649D01*
X58090247Y-19817429D01*
X58170227Y-20010518D01*
X58211000Y-20215499D01*
X58211000Y-20424501D01*
X58170227Y-20629482D01*
X58090247Y-20822571D01*
X57974131Y-20996351D01*
X57826351Y-21144131D01*
X57652571Y-21260247D01*
X57459482Y-21340227D01*
X57254501Y-21381000D01*
X57045499Y-21381000D01*
X56840518Y-21340227D01*
X56647429Y-21260247D01*
X56473649Y-21144131D01*
X56325869Y-20996351D01*
X56209753Y-20822571D01*
X56129773Y-20629482D01*
X56089000Y-20424501D01*
X56089000Y-20215499D01*
X56129773Y-20010518D01*
X56209753Y-19817429D01*
X56325869Y-19643649D01*
X56473649Y-19495869D01*
X56647429Y-19379753D01*
X56840518Y-19299773D01*
X57045499Y-19259000D01*
X57254501Y-19259000D01*
X57459482Y-19299773D01*
X57459482Y-19299773D01*
G37*
G36*
X6659482Y-16759773D02*
X6852571Y-16839753D01*
X7026351Y-16955869D01*
X7174131Y-17103649D01*
X7290247Y-17277429D01*
X7370227Y-17470518D01*
X7411000Y-17675499D01*
X7411000Y-17884501D01*
X7370227Y-18089482D01*
X7290247Y-18282571D01*
X7174131Y-18456351D01*
X7026351Y-18604131D01*
X6852571Y-18720247D01*
X6659482Y-18800227D01*
X6454501Y-18841000D01*
X6245499Y-18841000D01*
X6040518Y-18800227D01*
X5847429Y-18720247D01*
X5673649Y-18604131D01*
X5525869Y-18456351D01*
X5409753Y-18282571D01*
X5329773Y-18089482D01*
X5289000Y-17884501D01*
X5289000Y-17675499D01*
X5329773Y-17470518D01*
X5409753Y-17277429D01*
X5525869Y-17103649D01*
X5673649Y-16955869D01*
X5847429Y-16839753D01*
X6040518Y-16759773D01*
X6245499Y-16719000D01*
X6454501Y-16719000D01*
X6659482Y-16759773D01*
X6659482Y-16759773D01*
G37*
G36*
X57459482Y-16759773D02*
X57652571Y-16839753D01*
X57826351Y-16955869D01*
X57974131Y-17103649D01*
X58090247Y-17277429D01*
X58170227Y-17470518D01*
X58211000Y-17675499D01*
X58211000Y-17884501D01*
X58170227Y-18089482D01*
X58090247Y-18282571D01*
X57974131Y-18456351D01*
X57826351Y-18604131D01*
X57652571Y-18720247D01*
X57459482Y-18800227D01*
X57254501Y-18841000D01*
X57045499Y-18841000D01*
X56840518Y-18800227D01*
X56647429Y-18720247D01*
X56473649Y-18604131D01*
X56325869Y-18456351D01*
X56209753Y-18282571D01*
X56129773Y-18089482D01*
X56089000Y-17884501D01*
X56089000Y-17675499D01*
X56129773Y-17470518D01*
X56209753Y-17277429D01*
X56325869Y-17103649D01*
X56473649Y-16955869D01*
X56647429Y-16839753D01*
X56840518Y-16759773D01*
X57045499Y-16719000D01*
X57254501Y-16719000D01*
X57459482Y-16759773D01*
X57459482Y-16759773D01*
G37*
G36*
X59999482Y-16759773D02*
X60192571Y-16839753D01*
X60366351Y-16955869D01*
X60514131Y-17103649D01*
X60630247Y-17277429D01*
X60710227Y-17470518D01*
X60751000Y-17675499D01*
X60751000Y-17884501D01*
X60710227Y-18089482D01*
X60630247Y-18282571D01*
X60514131Y-18456351D01*
X60366351Y-18604131D01*
X60192571Y-18720247D01*
X59999482Y-18800227D01*
X59794501Y-18841000D01*
X59585499Y-18841000D01*
X59380518Y-18800227D01*
X59187429Y-18720247D01*
X59013649Y-18604131D01*
X58865869Y-18456351D01*
X58749753Y-18282571D01*
X58669773Y-18089482D01*
X58629000Y-17884501D01*
X58629000Y-17675499D01*
X58669773Y-17470518D01*
X58749753Y-17277429D01*
X58865869Y-17103649D01*
X59013649Y-16955869D01*
X59187429Y-16839753D01*
X59380518Y-16759773D01*
X59585499Y-16719000D01*
X59794501Y-16719000D01*
X59999482Y-16759773D01*
X59999482Y-16759773D01*
G37*
G36*
X4119482Y-16759773D02*
X4312571Y-16839753D01*
X4486351Y-16955869D01*
X4634131Y-17103649D01*
X4750247Y-17277429D01*
X4830227Y-17470518D01*
X4871000Y-17675499D01*
X4871000Y-17884501D01*
X4830227Y-18089482D01*
X4750247Y-18282571D01*
X4634131Y-18456351D01*
X4486351Y-18604131D01*
X4312571Y-18720247D01*
X4119482Y-18800227D01*
X3914501Y-18841000D01*
X3705499Y-18841000D01*
X3500518Y-18800227D01*
X3307429Y-18720247D01*
X3133649Y-18604131D01*
X2985869Y-18456351D01*
X2869753Y-18282571D01*
X2789773Y-18089482D01*
X2749000Y-17884501D01*
X2749000Y-17675499D01*
X2789773Y-17470518D01*
X2869753Y-17277429D01*
X2985869Y-17103649D01*
X3133649Y-16955869D01*
X3307429Y-16839753D01*
X3500518Y-16759773D01*
X3705499Y-16719000D01*
X3914501Y-16719000D01*
X4119482Y-16759773D01*
X4119482Y-16759773D01*
G37*
G36*
X23558000Y-17384000D02*
X19256000Y-17384000D01*
X19256000Y-15382000D01*
X23558000Y-15382000D01*
X23558000Y-17384000D01*
X23558000Y-17384000D01*
G37*
G36*
X30274000Y-17384000D02*
X25972000Y-17384000D01*
X25972000Y-15382000D01*
X30274000Y-15382000D01*
X30274000Y-17384000D01*
X30274000Y-17384000D01*
G37*
G36*
X16558000Y-17384000D02*
X12256000Y-17384000D01*
X12256000Y-15382000D01*
X16558000Y-15382000D01*
X16558000Y-17384000D01*
X16558000Y-17384000D01*
G37*
G36*
X37274000Y-17384000D02*
X32972000Y-17384000D01*
X32972000Y-15382000D01*
X37274000Y-15382000D01*
X37274000Y-17384000D01*
X37274000Y-17384000D01*
G37*
G36*
X45387000Y-17257000D02*
X41085000Y-17257000D01*
X41085000Y-15255000D01*
X45387000Y-15255000D01*
X45387000Y-17257000D01*
X45387000Y-17257000D01*
G37*
G36*
X52387000Y-17257000D02*
X48085000Y-17257000D01*
X48085000Y-15255000D01*
X52387000Y-15255000D01*
X52387000Y-17257000D01*
X52387000Y-17257000D01*
G37*
G36*
X4116565Y-12832389D02*
X4307834Y-12911615D01*
X4479976Y-13026637D01*
X4626363Y-13173024D01*
X4741385Y-13345166D01*
X4820611Y-13536435D01*
X4861000Y-13739484D01*
X4861000Y-13946516D01*
X4820611Y-14149565D01*
X4741385Y-14340834D01*
X4626363Y-14512976D01*
X4479976Y-14659363D01*
X4307834Y-14774385D01*
X4116565Y-14853611D01*
X3913516Y-14894000D01*
X3706484Y-14894000D01*
X3503435Y-14853611D01*
X3312166Y-14774385D01*
X3140024Y-14659363D01*
X2993637Y-14512976D01*
X2878615Y-14340834D01*
X2799389Y-14149565D01*
X2759000Y-13946516D01*
X2759000Y-13739484D01*
X2799389Y-13536435D01*
X2878615Y-13345166D01*
X2993637Y-13173024D01*
X3140024Y-13026637D01*
X3312166Y-12911615D01*
X3503435Y-12832389D01*
X3706484Y-12792000D01*
X3913516Y-12792000D01*
X4116565Y-12832389D01*
X4116565Y-12832389D01*
G37*
G36*
X4116565Y-10292389D02*
X4307834Y-10371615D01*
X4479976Y-10486637D01*
X4626363Y-10633024D01*
X4741385Y-10805166D01*
X4820611Y-10996435D01*
X4861000Y-11199484D01*
X4861000Y-11406516D01*
X4820611Y-11609565D01*
X4741385Y-11800834D01*
X4626363Y-11972976D01*
X4479976Y-12119363D01*
X4307834Y-12234385D01*
X4116565Y-12313611D01*
X3913516Y-12354000D01*
X3706484Y-12354000D01*
X3503435Y-12313611D01*
X3312166Y-12234385D01*
X3140024Y-12119363D01*
X2993637Y-11972976D01*
X2878615Y-11800834D01*
X2799389Y-11609565D01*
X2759000Y-11406516D01*
X2759000Y-11199484D01*
X2799389Y-10996435D01*
X2878615Y-10805166D01*
X2993637Y-10633024D01*
X3140024Y-10486637D01*
X3312166Y-10371615D01*
X3503435Y-10292389D01*
X3706484Y-10252000D01*
X3913516Y-10252000D01*
X4116565Y-10292389D01*
X4116565Y-10292389D01*
G37*
G36*
X57546000Y-9766000D02*
X52944000Y-9766000D01*
X52944000Y-7664000D01*
X57546000Y-7664000D01*
X57546000Y-9766000D01*
X57546000Y-9766000D01*
G37*
G36*
X37226000Y-9766000D02*
X32624000Y-9766000D01*
X32624000Y-7664000D01*
X37226000Y-7664000D01*
X37226000Y-9766000D01*
X37226000Y-9766000D01*
G37*
G36*
X47386000Y-9766000D02*
X42784000Y-9766000D01*
X42784000Y-7664000D01*
X47386000Y-7664000D01*
X47386000Y-9766000D01*
X47386000Y-9766000D01*
G37*
G36*
X4116565Y-6355389D02*
X4307834Y-6434615D01*
X4479976Y-6549637D01*
X4626363Y-6696024D01*
X4741385Y-6868166D01*
X4820611Y-7059435D01*
X4861000Y-7262484D01*
X4861000Y-7469516D01*
X4820611Y-7672565D01*
X4741385Y-7863834D01*
X4626363Y-8035976D01*
X4479976Y-8182363D01*
X4307834Y-8297385D01*
X4116565Y-8376611D01*
X3913516Y-8417000D01*
X3706484Y-8417000D01*
X3503435Y-8376611D01*
X3312166Y-8297385D01*
X3140024Y-8182363D01*
X2993637Y-8035976D01*
X2878615Y-7863834D01*
X2799389Y-7672565D01*
X2759000Y-7469516D01*
X2759000Y-7262484D01*
X2799389Y-7059435D01*
X2878615Y-6868166D01*
X2993637Y-6696024D01*
X3140024Y-6549637D01*
X3312166Y-6434615D01*
X3503435Y-6355389D01*
X3706484Y-6315000D01*
X3913516Y-6315000D01*
X4116565Y-6355389D01*
X4116565Y-6355389D01*
G37*
G36*
X4116565Y-3815389D02*
X4307834Y-3894615D01*
X4479976Y-4009637D01*
X4626363Y-4156024D01*
X4741385Y-4328166D01*
X4820611Y-4519435D01*
X4861000Y-4722484D01*
X4861000Y-4929516D01*
X4820611Y-5132565D01*
X4741385Y-5323834D01*
X4626363Y-5495976D01*
X4479976Y-5642363D01*
X4307834Y-5757385D01*
X4116565Y-5836611D01*
X3913516Y-5877000D01*
X3706484Y-5877000D01*
X3503435Y-5836611D01*
X3312166Y-5757385D01*
X3140024Y-5642363D01*
X2993637Y-5495976D01*
X2878615Y-5323834D01*
X2799389Y-5132565D01*
X2759000Y-4929516D01*
X2759000Y-4722484D01*
X2799389Y-4519435D01*
X2878615Y-4328166D01*
X2993637Y-4156024D01*
X3140024Y-4009637D01*
X3312166Y-3894615D01*
X3503435Y-3815389D01*
X3706484Y-3775000D01*
X3913516Y-3775000D01*
X4116565Y-3815389D01*
X4116565Y-3815389D01*
G37*
G36*
X36976000Y-3766000D02*
X32874000Y-3766000D01*
X32874000Y-1664000D01*
X36976000Y-1664000D01*
X36976000Y-3766000D01*
X36976000Y-3766000D01*
G37*
G36*
X57296000Y-3766000D02*
X53194000Y-3766000D01*
X53194000Y-1664000D01*
X57296000Y-1664000D01*
X57296000Y-3766000D01*
X57296000Y-3766000D01*
G37*
G36*
X47136000Y-3766000D02*
X43034000Y-3766000D01*
X43034000Y-1664000D01*
X47136000Y-1664000D01*
X47136000Y-3766000D01*
X47136000Y-3766000D01*
G37*
M02*
