G04 #@! TF.GenerationSoftware,KiCad,Pcbnew,(5.0.2)-1*
G04 #@! TF.CreationDate,2019-01-24T17:57:41-05:00*
G04 #@! TF.ProjectId,modular_backplane,6d6f6475-6c61-4725-9f62-61636b706c61,rev?*
G04 #@! TF.SameCoordinates,Original*
G04 #@! TF.FileFunction,Legend,Bot*
G04 #@! TF.FilePolarity,Positive*
%FSLAX46Y46*%
G04 Gerber Fmt 4.6, Leading zero omitted, Abs format (unit mm)*
G04 Created by KiCad (PCBNEW (5.0.2)-1) date 1/24/2019 5:57:41 PM*
%MOMM*%
%LPD*%
G01*
G04 APERTURE LIST*
%ADD10C,0.150000*%
%ADD11C,0.120000*%
G04 APERTURE END LIST*
D10*
G04 #@! TO.C,C1*
X30055000Y-34334000D02*
X30055000Y-35709000D01*
X28680000Y-34334000D02*
X30055000Y-34334000D01*
X25930000Y-34334000D02*
X24555000Y-35709000D01*
X30055000Y-35709000D02*
X30055000Y-39834000D01*
X24555000Y-35709000D02*
X24555000Y-39834000D01*
X28680000Y-39834000D02*
X30055000Y-39834000D01*
X24555000Y-39834000D02*
X25930000Y-39834000D01*
G04 #@! TO.C,C2*
X27373000Y-12133000D02*
X33748000Y-12133000D01*
X35873000Y-14258000D02*
X33748000Y-12133000D01*
X35873000Y-20633000D02*
X35873000Y-18508000D01*
X27373000Y-20633000D02*
X35873000Y-20633000D01*
X27373000Y-18508000D02*
X27373000Y-20633000D01*
X27373000Y-14258000D02*
X27373000Y-12133000D01*
D11*
G04 #@! TO.C,C3*
X28681000Y-31172564D02*
X28681000Y-29968436D01*
X30501000Y-31172564D02*
X30501000Y-29968436D01*
G04 #@! TO.C,C4*
X34003064Y-30183500D02*
X32798936Y-30183500D01*
X34003064Y-28363500D02*
X32798936Y-28363500D01*
D10*
G04 #@! TO.C,C6*
X14942000Y-34588000D02*
X14942000Y-35963000D01*
X13567000Y-34588000D02*
X14942000Y-34588000D01*
X10817000Y-34588000D02*
X9442000Y-35963000D01*
X14942000Y-35963000D02*
X14942000Y-40088000D01*
X9442000Y-35963000D02*
X9442000Y-40088000D01*
X13567000Y-40088000D02*
X14942000Y-40088000D01*
X9442000Y-40088000D02*
X10817000Y-40088000D01*
G04 #@! TO.C,C7*
X13657000Y-12133000D02*
X20032000Y-12133000D01*
X22157000Y-14258000D02*
X20032000Y-12133000D01*
X22157000Y-20633000D02*
X22157000Y-18508000D01*
X13657000Y-20633000D02*
X22157000Y-20633000D01*
X13657000Y-18508000D02*
X13657000Y-20633000D01*
X13657000Y-14258000D02*
X13657000Y-12133000D01*
D11*
G04 #@! TO.C,C8*
X13695000Y-31172564D02*
X13695000Y-29968436D01*
X15515000Y-31172564D02*
X15515000Y-29968436D01*
G04 #@! TO.C,C9*
X19017064Y-29993000D02*
X17812936Y-29993000D01*
X19017064Y-28173000D02*
X17812936Y-28173000D01*
G04 #@! TO.C,R15*
X4477936Y-62844000D02*
X5682064Y-62844000D01*
X4477936Y-64664000D02*
X5682064Y-64664000D01*
G04 #@! TO.C,R16*
X58071936Y-63098000D02*
X59276064Y-63098000D01*
X58071936Y-64918000D02*
X59276064Y-64918000D01*
D10*
G04 #@! TO.C,C11*
X43898000Y-34293000D02*
X43898000Y-35668000D01*
X42523000Y-34293000D02*
X43898000Y-34293000D01*
X39773000Y-34293000D02*
X38398000Y-35668000D01*
X43898000Y-35668000D02*
X43898000Y-39793000D01*
X38398000Y-35668000D02*
X38398000Y-39793000D01*
X42523000Y-39793000D02*
X43898000Y-39793000D01*
X38398000Y-39793000D02*
X39773000Y-39793000D01*
G04 #@! TO.C,C12*
X42486000Y-12006000D02*
X48861000Y-12006000D01*
X50986000Y-14131000D02*
X48861000Y-12006000D01*
X50986000Y-20506000D02*
X50986000Y-18381000D01*
X42486000Y-20506000D02*
X50986000Y-20506000D01*
X42486000Y-18381000D02*
X42486000Y-20506000D01*
X42486000Y-14131000D02*
X42486000Y-12006000D01*
D11*
G04 #@! TO.C,C13*
X42143000Y-31209064D02*
X42143000Y-30004936D01*
X43963000Y-31209064D02*
X43963000Y-30004936D01*
G04 #@! TO.C,C14*
X47719064Y-30247000D02*
X46514936Y-30247000D01*
X47719064Y-28427000D02*
X46514936Y-28427000D01*
G04 #@! TO.C,C1*
D10*
X24233142Y-36917333D02*
X24280761Y-36869714D01*
X24328380Y-36726857D01*
X24328380Y-36631619D01*
X24280761Y-36488761D01*
X24185523Y-36393523D01*
X24090285Y-36345904D01*
X23899809Y-36298285D01*
X23756952Y-36298285D01*
X23566476Y-36345904D01*
X23471238Y-36393523D01*
X23376000Y-36488761D01*
X23328380Y-36631619D01*
X23328380Y-36726857D01*
X23376000Y-36869714D01*
X23423619Y-36917333D01*
X24328380Y-37869714D02*
X24328380Y-37298285D01*
X24328380Y-37584000D02*
X23328380Y-37584000D01*
X23471238Y-37488761D01*
X23566476Y-37393523D01*
X23614095Y-37298285D01*
G04 #@! TO.C,C2*
X25947666Y-12549142D02*
X25995285Y-12596761D01*
X26138142Y-12644380D01*
X26233380Y-12644380D01*
X26376238Y-12596761D01*
X26471476Y-12501523D01*
X26519095Y-12406285D01*
X26566714Y-12215809D01*
X26566714Y-12072952D01*
X26519095Y-11882476D01*
X26471476Y-11787238D01*
X26376238Y-11692000D01*
X26233380Y-11644380D01*
X26138142Y-11644380D01*
X25995285Y-11692000D01*
X25947666Y-11739619D01*
X25566714Y-11739619D02*
X25519095Y-11692000D01*
X25423857Y-11644380D01*
X25185761Y-11644380D01*
X25090523Y-11692000D01*
X25042904Y-11739619D01*
X24995285Y-11834857D01*
X24995285Y-11930095D01*
X25042904Y-12072952D01*
X25614333Y-12644380D01*
X24995285Y-12644380D01*
G04 #@! TO.C,C3*
X31853142Y-31964333D02*
X31900761Y-31916714D01*
X31948380Y-31773857D01*
X31948380Y-31678619D01*
X31900761Y-31535761D01*
X31805523Y-31440523D01*
X31710285Y-31392904D01*
X31519809Y-31345285D01*
X31376952Y-31345285D01*
X31186476Y-31392904D01*
X31091238Y-31440523D01*
X30996000Y-31535761D01*
X30948380Y-31678619D01*
X30948380Y-31773857D01*
X30996000Y-31916714D01*
X31043619Y-31964333D01*
X30948380Y-32297666D02*
X30948380Y-32916714D01*
X31329333Y-32583380D01*
X31329333Y-32726238D01*
X31376952Y-32821476D01*
X31424571Y-32869095D01*
X31519809Y-32916714D01*
X31757904Y-32916714D01*
X31853142Y-32869095D01*
X31900761Y-32821476D01*
X31948380Y-32726238D01*
X31948380Y-32440523D01*
X31900761Y-32345285D01*
X31853142Y-32297666D01*
G04 #@! TO.C,C4*
X33567666Y-27810642D02*
X33615285Y-27858261D01*
X33758142Y-27905880D01*
X33853380Y-27905880D01*
X33996238Y-27858261D01*
X34091476Y-27763023D01*
X34139095Y-27667785D01*
X34186714Y-27477309D01*
X34186714Y-27334452D01*
X34139095Y-27143976D01*
X34091476Y-27048738D01*
X33996238Y-26953500D01*
X33853380Y-26905880D01*
X33758142Y-26905880D01*
X33615285Y-26953500D01*
X33567666Y-27001119D01*
X32710523Y-27239214D02*
X32710523Y-27905880D01*
X32948619Y-26858261D02*
X33186714Y-27572547D01*
X32567666Y-27572547D01*
G04 #@! TO.C,C6*
X8993142Y-37171333D02*
X9040761Y-37123714D01*
X9088380Y-36980857D01*
X9088380Y-36885619D01*
X9040761Y-36742761D01*
X8945523Y-36647523D01*
X8850285Y-36599904D01*
X8659809Y-36552285D01*
X8516952Y-36552285D01*
X8326476Y-36599904D01*
X8231238Y-36647523D01*
X8136000Y-36742761D01*
X8088380Y-36885619D01*
X8088380Y-36980857D01*
X8136000Y-37123714D01*
X8183619Y-37171333D01*
X8088380Y-38028476D02*
X8088380Y-37838000D01*
X8136000Y-37742761D01*
X8183619Y-37695142D01*
X8326476Y-37599904D01*
X8516952Y-37552285D01*
X8897904Y-37552285D01*
X8993142Y-37599904D01*
X9040761Y-37647523D01*
X9088380Y-37742761D01*
X9088380Y-37933238D01*
X9040761Y-38028476D01*
X8993142Y-38076095D01*
X8897904Y-38123714D01*
X8659809Y-38123714D01*
X8564571Y-38076095D01*
X8516952Y-38028476D01*
X8469333Y-37933238D01*
X8469333Y-37742761D01*
X8516952Y-37647523D01*
X8564571Y-37599904D01*
X8659809Y-37552285D01*
G04 #@! TO.C,C7*
X12104666Y-12422142D02*
X12152285Y-12469761D01*
X12295142Y-12517380D01*
X12390380Y-12517380D01*
X12533238Y-12469761D01*
X12628476Y-12374523D01*
X12676095Y-12279285D01*
X12723714Y-12088809D01*
X12723714Y-11945952D01*
X12676095Y-11755476D01*
X12628476Y-11660238D01*
X12533238Y-11565000D01*
X12390380Y-11517380D01*
X12295142Y-11517380D01*
X12152285Y-11565000D01*
X12104666Y-11612619D01*
X11771333Y-11517380D02*
X11104666Y-11517380D01*
X11533238Y-12517380D01*
G04 #@! TO.C,C8*
X16867142Y-31964333D02*
X16914761Y-31916714D01*
X16962380Y-31773857D01*
X16962380Y-31678619D01*
X16914761Y-31535761D01*
X16819523Y-31440523D01*
X16724285Y-31392904D01*
X16533809Y-31345285D01*
X16390952Y-31345285D01*
X16200476Y-31392904D01*
X16105238Y-31440523D01*
X16010000Y-31535761D01*
X15962380Y-31678619D01*
X15962380Y-31773857D01*
X16010000Y-31916714D01*
X16057619Y-31964333D01*
X16390952Y-32535761D02*
X16343333Y-32440523D01*
X16295714Y-32392904D01*
X16200476Y-32345285D01*
X16152857Y-32345285D01*
X16057619Y-32392904D01*
X16010000Y-32440523D01*
X15962380Y-32535761D01*
X15962380Y-32726238D01*
X16010000Y-32821476D01*
X16057619Y-32869095D01*
X16152857Y-32916714D01*
X16200476Y-32916714D01*
X16295714Y-32869095D01*
X16343333Y-32821476D01*
X16390952Y-32726238D01*
X16390952Y-32535761D01*
X16438571Y-32440523D01*
X16486190Y-32392904D01*
X16581428Y-32345285D01*
X16771904Y-32345285D01*
X16867142Y-32392904D01*
X16914761Y-32440523D01*
X16962380Y-32535761D01*
X16962380Y-32726238D01*
X16914761Y-32821476D01*
X16867142Y-32869095D01*
X16771904Y-32916714D01*
X16581428Y-32916714D01*
X16486190Y-32869095D01*
X16438571Y-32821476D01*
X16390952Y-32726238D01*
G04 #@! TO.C,C9*
X18581666Y-27620142D02*
X18629285Y-27667761D01*
X18772142Y-27715380D01*
X18867380Y-27715380D01*
X19010238Y-27667761D01*
X19105476Y-27572523D01*
X19153095Y-27477285D01*
X19200714Y-27286809D01*
X19200714Y-27143952D01*
X19153095Y-26953476D01*
X19105476Y-26858238D01*
X19010238Y-26763000D01*
X18867380Y-26715380D01*
X18772142Y-26715380D01*
X18629285Y-26763000D01*
X18581666Y-26810619D01*
X18105476Y-27715380D02*
X17915000Y-27715380D01*
X17819761Y-27667761D01*
X17772142Y-27620142D01*
X17676904Y-27477285D01*
X17629285Y-27286809D01*
X17629285Y-26905857D01*
X17676904Y-26810619D01*
X17724523Y-26763000D01*
X17819761Y-26715380D01*
X18010238Y-26715380D01*
X18105476Y-26763000D01*
X18153095Y-26810619D01*
X18200714Y-26905857D01*
X18200714Y-27143952D01*
X18153095Y-27239190D01*
X18105476Y-27286809D01*
X18010238Y-27334428D01*
X17819761Y-27334428D01*
X17724523Y-27286809D01*
X17676904Y-27239190D01*
X17629285Y-27143952D01*
G04 #@! TO.C,R15*
X5722857Y-66026380D02*
X6056190Y-65550190D01*
X6294285Y-66026380D02*
X6294285Y-65026380D01*
X5913333Y-65026380D01*
X5818095Y-65074000D01*
X5770476Y-65121619D01*
X5722857Y-65216857D01*
X5722857Y-65359714D01*
X5770476Y-65454952D01*
X5818095Y-65502571D01*
X5913333Y-65550190D01*
X6294285Y-65550190D01*
X4770476Y-66026380D02*
X5341904Y-66026380D01*
X5056190Y-66026380D02*
X5056190Y-65026380D01*
X5151428Y-65169238D01*
X5246666Y-65264476D01*
X5341904Y-65312095D01*
X3865714Y-65026380D02*
X4341904Y-65026380D01*
X4389523Y-65502571D01*
X4341904Y-65454952D01*
X4246666Y-65407333D01*
X4008571Y-65407333D01*
X3913333Y-65454952D01*
X3865714Y-65502571D01*
X3818095Y-65597809D01*
X3818095Y-65835904D01*
X3865714Y-65931142D01*
X3913333Y-65978761D01*
X4008571Y-66026380D01*
X4246666Y-66026380D01*
X4341904Y-65978761D01*
X4389523Y-65931142D01*
G04 #@! TO.C,R16*
X59316857Y-66280380D02*
X59650190Y-65804190D01*
X59888285Y-66280380D02*
X59888285Y-65280380D01*
X59507333Y-65280380D01*
X59412095Y-65328000D01*
X59364476Y-65375619D01*
X59316857Y-65470857D01*
X59316857Y-65613714D01*
X59364476Y-65708952D01*
X59412095Y-65756571D01*
X59507333Y-65804190D01*
X59888285Y-65804190D01*
X58364476Y-66280380D02*
X58935904Y-66280380D01*
X58650190Y-66280380D02*
X58650190Y-65280380D01*
X58745428Y-65423238D01*
X58840666Y-65518476D01*
X58935904Y-65566095D01*
X57507333Y-65280380D02*
X57697809Y-65280380D01*
X57793047Y-65328000D01*
X57840666Y-65375619D01*
X57935904Y-65518476D01*
X57983523Y-65708952D01*
X57983523Y-66089904D01*
X57935904Y-66185142D01*
X57888285Y-66232761D01*
X57793047Y-66280380D01*
X57602571Y-66280380D01*
X57507333Y-66232761D01*
X57459714Y-66185142D01*
X57412095Y-66089904D01*
X57412095Y-65851809D01*
X57459714Y-65756571D01*
X57507333Y-65708952D01*
X57602571Y-65661333D01*
X57793047Y-65661333D01*
X57888285Y-65708952D01*
X57935904Y-65756571D01*
X57983523Y-65851809D01*
G04 #@! TO.C,C11*
X37949142Y-36441142D02*
X37996761Y-36393523D01*
X38044380Y-36250666D01*
X38044380Y-36155428D01*
X37996761Y-36012571D01*
X37901523Y-35917333D01*
X37806285Y-35869714D01*
X37615809Y-35822095D01*
X37472952Y-35822095D01*
X37282476Y-35869714D01*
X37187238Y-35917333D01*
X37092000Y-36012571D01*
X37044380Y-36155428D01*
X37044380Y-36250666D01*
X37092000Y-36393523D01*
X37139619Y-36441142D01*
X38044380Y-37393523D02*
X38044380Y-36822095D01*
X38044380Y-37107809D02*
X37044380Y-37107809D01*
X37187238Y-37012571D01*
X37282476Y-36917333D01*
X37330095Y-36822095D01*
X38044380Y-38345904D02*
X38044380Y-37774476D01*
X38044380Y-38060190D02*
X37044380Y-38060190D01*
X37187238Y-37964952D01*
X37282476Y-37869714D01*
X37330095Y-37774476D01*
G04 #@! TO.C,C12*
X41282857Y-12676142D02*
X41330476Y-12723761D01*
X41473333Y-12771380D01*
X41568571Y-12771380D01*
X41711428Y-12723761D01*
X41806666Y-12628523D01*
X41854285Y-12533285D01*
X41901904Y-12342809D01*
X41901904Y-12199952D01*
X41854285Y-12009476D01*
X41806666Y-11914238D01*
X41711428Y-11819000D01*
X41568571Y-11771380D01*
X41473333Y-11771380D01*
X41330476Y-11819000D01*
X41282857Y-11866619D01*
X40330476Y-12771380D02*
X40901904Y-12771380D01*
X40616190Y-12771380D02*
X40616190Y-11771380D01*
X40711428Y-11914238D01*
X40806666Y-12009476D01*
X40901904Y-12057095D01*
X39949523Y-11866619D02*
X39901904Y-11819000D01*
X39806666Y-11771380D01*
X39568571Y-11771380D01*
X39473333Y-11819000D01*
X39425714Y-11866619D01*
X39378095Y-11961857D01*
X39378095Y-12057095D01*
X39425714Y-12199952D01*
X39997142Y-12771380D01*
X39378095Y-12771380D01*
G04 #@! TO.C,C13*
X45315142Y-31107142D02*
X45362761Y-31059523D01*
X45410380Y-30916666D01*
X45410380Y-30821428D01*
X45362761Y-30678571D01*
X45267523Y-30583333D01*
X45172285Y-30535714D01*
X44981809Y-30488095D01*
X44838952Y-30488095D01*
X44648476Y-30535714D01*
X44553238Y-30583333D01*
X44458000Y-30678571D01*
X44410380Y-30821428D01*
X44410380Y-30916666D01*
X44458000Y-31059523D01*
X44505619Y-31107142D01*
X45410380Y-32059523D02*
X45410380Y-31488095D01*
X45410380Y-31773809D02*
X44410380Y-31773809D01*
X44553238Y-31678571D01*
X44648476Y-31583333D01*
X44696095Y-31488095D01*
X44410380Y-32392857D02*
X44410380Y-33011904D01*
X44791333Y-32678571D01*
X44791333Y-32821428D01*
X44838952Y-32916666D01*
X44886571Y-32964285D01*
X44981809Y-33011904D01*
X45219904Y-33011904D01*
X45315142Y-32964285D01*
X45362761Y-32916666D01*
X45410380Y-32821428D01*
X45410380Y-32535714D01*
X45362761Y-32440476D01*
X45315142Y-32392857D01*
G04 #@! TO.C,C14*
X47759857Y-27874142D02*
X47807476Y-27921761D01*
X47950333Y-27969380D01*
X48045571Y-27969380D01*
X48188428Y-27921761D01*
X48283666Y-27826523D01*
X48331285Y-27731285D01*
X48378904Y-27540809D01*
X48378904Y-27397952D01*
X48331285Y-27207476D01*
X48283666Y-27112238D01*
X48188428Y-27017000D01*
X48045571Y-26969380D01*
X47950333Y-26969380D01*
X47807476Y-27017000D01*
X47759857Y-27064619D01*
X46807476Y-27969380D02*
X47378904Y-27969380D01*
X47093190Y-27969380D02*
X47093190Y-26969380D01*
X47188428Y-27112238D01*
X47283666Y-27207476D01*
X47378904Y-27255095D01*
X45950333Y-27302714D02*
X45950333Y-27969380D01*
X46188428Y-26921761D02*
X46426523Y-27636047D01*
X45807476Y-27636047D01*
G04 #@! TD*
M02*
