G04 #@! TF.GenerationSoftware,KiCad,Pcbnew,(5.0.2)-1*
G04 #@! TF.CreationDate,2019-01-24T17:57:41-05:00*
G04 #@! TF.ProjectId,modular_backplane,6d6f6475-6c61-4725-9f62-61636b706c61,rev?*
G04 #@! TF.SameCoordinates,Original*
G04 #@! TF.FileFunction,Copper,L6,Bot*
G04 #@! TF.FilePolarity,Positive*
%FSLAX46Y46*%
G04 Gerber Fmt 4.6, Leading zero omitted, Abs format (unit mm)*
G04 Created by KiCad (PCBNEW (5.0.2)-1) date 1/24/2019 5:57:41 PM*
%MOMM*%
%LPD*%
G01*
G04 APERTURE LIST*
G04 #@! TA.AperFunction,ComponentPad*
%ADD10R,4.000000X2.000000*%
G04 #@! TD*
G04 #@! TA.AperFunction,ComponentPad*
%ADD11R,4.500000X2.000000*%
G04 #@! TD*
G04 #@! TA.AperFunction,ComponentPad*
%ADD12C,2.020000*%
G04 #@! TD*
G04 #@! TA.AperFunction,SMDPad,CuDef*
%ADD13R,1.600000X3.000000*%
G04 #@! TD*
G04 #@! TA.AperFunction,SMDPad,CuDef*
%ADD14R,4.200000X1.900000*%
G04 #@! TD*
G04 #@! TA.AperFunction,Conductor*
%ADD15C,0.100000*%
G04 #@! TD*
G04 #@! TA.AperFunction,SMDPad,CuDef*
%ADD16C,1.425000*%
G04 #@! TD*
G04 #@! TA.AperFunction,ComponentPad*
%ADD17O,6.230000X2.270000*%
G04 #@! TD*
G04 #@! TA.AperFunction,ComponentPad*
%ADD18C,2.000000*%
G04 #@! TD*
G04 #@! TA.AperFunction,ComponentPad*
%ADD19C,4.200000*%
G04 #@! TD*
G04 #@! TA.AperFunction,ViaPad*
%ADD20C,0.800000*%
G04 #@! TD*
G04 #@! TA.AperFunction,Conductor*
%ADD21C,0.250000*%
G04 #@! TD*
G04 #@! TA.AperFunction,Conductor*
%ADD22C,0.254000*%
G04 #@! TD*
G04 APERTURE END LIST*
D10*
G04 #@! TO.P,barrelJack1,2*
G04 #@! TO.N,GND*
X45085000Y-2715000D03*
D11*
G04 #@! TO.P,barrelJack1,1*
G04 #@! TO.N,+5V*
X45085000Y-8715000D03*
G04 #@! TD*
D12*
G04 #@! TO.P,L1,2*
G04 #@! TO.N,Net-(C3-Pad1)*
X29885000Y-22987000D03*
G04 #@! TO.P,L1,1*
G04 #@! TO.N,+5V*
X34885000Y-22987000D03*
G04 #@! TD*
G04 #@! TO.P,L2,2*
G04 #@! TO.N,Net-(C8-Pad1)*
X16042000Y-23241000D03*
G04 #@! TO.P,L2,1*
G04 #@! TO.N,+3V3*
X21042000Y-23241000D03*
G04 #@! TD*
D10*
G04 #@! TO.P,barrelJack2,2*
G04 #@! TO.N,GND*
X55245000Y-2715000D03*
D11*
G04 #@! TO.P,barrelJack2,1*
G04 #@! TO.N,+12V*
X55245000Y-8715000D03*
G04 #@! TD*
D10*
G04 #@! TO.P,barrelJack3,2*
G04 #@! TO.N,GND*
X34925000Y-2715000D03*
D11*
G04 #@! TO.P,barrelJack3,1*
G04 #@! TO.N,+3V3*
X34925000Y-8715000D03*
G04 #@! TD*
D13*
G04 #@! TO.P,C1,2*
G04 #@! TO.N,GND*
X27305000Y-39284000D03*
G04 #@! TO.P,C1,1*
G04 #@! TO.N,+15V*
X27305000Y-34884000D03*
G04 #@! TD*
D14*
G04 #@! TO.P,C2,2*
G04 #@! TO.N,GND*
X28123000Y-16383000D03*
G04 #@! TO.P,C2,1*
G04 #@! TO.N,+5V*
X35123000Y-16383000D03*
G04 #@! TD*
D15*
G04 #@! TO.N,Net-(C3-Pad2)*
G04 #@! TO.C,C3*
G36*
X30240504Y-28371704D02*
X30264773Y-28375304D01*
X30288571Y-28381265D01*
X30311671Y-28389530D01*
X30333849Y-28400020D01*
X30354893Y-28412633D01*
X30374598Y-28427247D01*
X30392777Y-28443723D01*
X30409253Y-28461902D01*
X30423867Y-28481607D01*
X30436480Y-28502651D01*
X30446970Y-28524829D01*
X30455235Y-28547929D01*
X30461196Y-28571727D01*
X30464796Y-28595996D01*
X30466000Y-28620500D01*
X30466000Y-29545500D01*
X30464796Y-29570004D01*
X30461196Y-29594273D01*
X30455235Y-29618071D01*
X30446970Y-29641171D01*
X30436480Y-29663349D01*
X30423867Y-29684393D01*
X30409253Y-29704098D01*
X30392777Y-29722277D01*
X30374598Y-29738753D01*
X30354893Y-29753367D01*
X30333849Y-29765980D01*
X30311671Y-29776470D01*
X30288571Y-29784735D01*
X30264773Y-29790696D01*
X30240504Y-29794296D01*
X30216000Y-29795500D01*
X28966000Y-29795500D01*
X28941496Y-29794296D01*
X28917227Y-29790696D01*
X28893429Y-29784735D01*
X28870329Y-29776470D01*
X28848151Y-29765980D01*
X28827107Y-29753367D01*
X28807402Y-29738753D01*
X28789223Y-29722277D01*
X28772747Y-29704098D01*
X28758133Y-29684393D01*
X28745520Y-29663349D01*
X28735030Y-29641171D01*
X28726765Y-29618071D01*
X28720804Y-29594273D01*
X28717204Y-29570004D01*
X28716000Y-29545500D01*
X28716000Y-28620500D01*
X28717204Y-28595996D01*
X28720804Y-28571727D01*
X28726765Y-28547929D01*
X28735030Y-28524829D01*
X28745520Y-28502651D01*
X28758133Y-28481607D01*
X28772747Y-28461902D01*
X28789223Y-28443723D01*
X28807402Y-28427247D01*
X28827107Y-28412633D01*
X28848151Y-28400020D01*
X28870329Y-28389530D01*
X28893429Y-28381265D01*
X28917227Y-28375304D01*
X28941496Y-28371704D01*
X28966000Y-28370500D01*
X30216000Y-28370500D01*
X30240504Y-28371704D01*
X30240504Y-28371704D01*
G37*
D16*
G04 #@! TD*
G04 #@! TO.P,C3,2*
G04 #@! TO.N,Net-(C3-Pad2)*
X29591000Y-29083000D03*
D15*
G04 #@! TO.N,Net-(C3-Pad1)*
G04 #@! TO.C,C3*
G36*
X30240504Y-31346704D02*
X30264773Y-31350304D01*
X30288571Y-31356265D01*
X30311671Y-31364530D01*
X30333849Y-31375020D01*
X30354893Y-31387633D01*
X30374598Y-31402247D01*
X30392777Y-31418723D01*
X30409253Y-31436902D01*
X30423867Y-31456607D01*
X30436480Y-31477651D01*
X30446970Y-31499829D01*
X30455235Y-31522929D01*
X30461196Y-31546727D01*
X30464796Y-31570996D01*
X30466000Y-31595500D01*
X30466000Y-32520500D01*
X30464796Y-32545004D01*
X30461196Y-32569273D01*
X30455235Y-32593071D01*
X30446970Y-32616171D01*
X30436480Y-32638349D01*
X30423867Y-32659393D01*
X30409253Y-32679098D01*
X30392777Y-32697277D01*
X30374598Y-32713753D01*
X30354893Y-32728367D01*
X30333849Y-32740980D01*
X30311671Y-32751470D01*
X30288571Y-32759735D01*
X30264773Y-32765696D01*
X30240504Y-32769296D01*
X30216000Y-32770500D01*
X28966000Y-32770500D01*
X28941496Y-32769296D01*
X28917227Y-32765696D01*
X28893429Y-32759735D01*
X28870329Y-32751470D01*
X28848151Y-32740980D01*
X28827107Y-32728367D01*
X28807402Y-32713753D01*
X28789223Y-32697277D01*
X28772747Y-32679098D01*
X28758133Y-32659393D01*
X28745520Y-32638349D01*
X28735030Y-32616171D01*
X28726765Y-32593071D01*
X28720804Y-32569273D01*
X28717204Y-32545004D01*
X28716000Y-32520500D01*
X28716000Y-31595500D01*
X28717204Y-31570996D01*
X28720804Y-31546727D01*
X28726765Y-31522929D01*
X28735030Y-31499829D01*
X28745520Y-31477651D01*
X28758133Y-31456607D01*
X28772747Y-31436902D01*
X28789223Y-31418723D01*
X28807402Y-31402247D01*
X28827107Y-31387633D01*
X28848151Y-31375020D01*
X28870329Y-31364530D01*
X28893429Y-31356265D01*
X28917227Y-31350304D01*
X28941496Y-31346704D01*
X28966000Y-31345500D01*
X30216000Y-31345500D01*
X30240504Y-31346704D01*
X30240504Y-31346704D01*
G37*
D16*
G04 #@! TD*
G04 #@! TO.P,C3,1*
G04 #@! TO.N,Net-(C3-Pad1)*
X29591000Y-32058000D03*
D15*
G04 #@! TO.N,GND*
G04 #@! TO.C,C4*
G36*
X32400504Y-28399704D02*
X32424773Y-28403304D01*
X32448571Y-28409265D01*
X32471671Y-28417530D01*
X32493849Y-28428020D01*
X32514893Y-28440633D01*
X32534598Y-28455247D01*
X32552777Y-28471723D01*
X32569253Y-28489902D01*
X32583867Y-28509607D01*
X32596480Y-28530651D01*
X32606970Y-28552829D01*
X32615235Y-28575929D01*
X32621196Y-28599727D01*
X32624796Y-28623996D01*
X32626000Y-28648500D01*
X32626000Y-29898500D01*
X32624796Y-29923004D01*
X32621196Y-29947273D01*
X32615235Y-29971071D01*
X32606970Y-29994171D01*
X32596480Y-30016349D01*
X32583867Y-30037393D01*
X32569253Y-30057098D01*
X32552777Y-30075277D01*
X32534598Y-30091753D01*
X32514893Y-30106367D01*
X32493849Y-30118980D01*
X32471671Y-30129470D01*
X32448571Y-30137735D01*
X32424773Y-30143696D01*
X32400504Y-30147296D01*
X32376000Y-30148500D01*
X31451000Y-30148500D01*
X31426496Y-30147296D01*
X31402227Y-30143696D01*
X31378429Y-30137735D01*
X31355329Y-30129470D01*
X31333151Y-30118980D01*
X31312107Y-30106367D01*
X31292402Y-30091753D01*
X31274223Y-30075277D01*
X31257747Y-30057098D01*
X31243133Y-30037393D01*
X31230520Y-30016349D01*
X31220030Y-29994171D01*
X31211765Y-29971071D01*
X31205804Y-29947273D01*
X31202204Y-29923004D01*
X31201000Y-29898500D01*
X31201000Y-28648500D01*
X31202204Y-28623996D01*
X31205804Y-28599727D01*
X31211765Y-28575929D01*
X31220030Y-28552829D01*
X31230520Y-28530651D01*
X31243133Y-28509607D01*
X31257747Y-28489902D01*
X31274223Y-28471723D01*
X31292402Y-28455247D01*
X31312107Y-28440633D01*
X31333151Y-28428020D01*
X31355329Y-28417530D01*
X31378429Y-28409265D01*
X31402227Y-28403304D01*
X31426496Y-28399704D01*
X31451000Y-28398500D01*
X32376000Y-28398500D01*
X32400504Y-28399704D01*
X32400504Y-28399704D01*
G37*
D16*
G04 #@! TD*
G04 #@! TO.P,C4,2*
G04 #@! TO.N,GND*
X31913500Y-29273500D03*
D15*
G04 #@! TO.N,Net-(C4-Pad1)*
G04 #@! TO.C,C4*
G36*
X35375504Y-28399704D02*
X35399773Y-28403304D01*
X35423571Y-28409265D01*
X35446671Y-28417530D01*
X35468849Y-28428020D01*
X35489893Y-28440633D01*
X35509598Y-28455247D01*
X35527777Y-28471723D01*
X35544253Y-28489902D01*
X35558867Y-28509607D01*
X35571480Y-28530651D01*
X35581970Y-28552829D01*
X35590235Y-28575929D01*
X35596196Y-28599727D01*
X35599796Y-28623996D01*
X35601000Y-28648500D01*
X35601000Y-29898500D01*
X35599796Y-29923004D01*
X35596196Y-29947273D01*
X35590235Y-29971071D01*
X35581970Y-29994171D01*
X35571480Y-30016349D01*
X35558867Y-30037393D01*
X35544253Y-30057098D01*
X35527777Y-30075277D01*
X35509598Y-30091753D01*
X35489893Y-30106367D01*
X35468849Y-30118980D01*
X35446671Y-30129470D01*
X35423571Y-30137735D01*
X35399773Y-30143696D01*
X35375504Y-30147296D01*
X35351000Y-30148500D01*
X34426000Y-30148500D01*
X34401496Y-30147296D01*
X34377227Y-30143696D01*
X34353429Y-30137735D01*
X34330329Y-30129470D01*
X34308151Y-30118980D01*
X34287107Y-30106367D01*
X34267402Y-30091753D01*
X34249223Y-30075277D01*
X34232747Y-30057098D01*
X34218133Y-30037393D01*
X34205520Y-30016349D01*
X34195030Y-29994171D01*
X34186765Y-29971071D01*
X34180804Y-29947273D01*
X34177204Y-29923004D01*
X34176000Y-29898500D01*
X34176000Y-28648500D01*
X34177204Y-28623996D01*
X34180804Y-28599727D01*
X34186765Y-28575929D01*
X34195030Y-28552829D01*
X34205520Y-28530651D01*
X34218133Y-28509607D01*
X34232747Y-28489902D01*
X34249223Y-28471723D01*
X34267402Y-28455247D01*
X34287107Y-28440633D01*
X34308151Y-28428020D01*
X34330329Y-28417530D01*
X34353429Y-28409265D01*
X34377227Y-28403304D01*
X34401496Y-28399704D01*
X34426000Y-28398500D01*
X35351000Y-28398500D01*
X35375504Y-28399704D01*
X35375504Y-28399704D01*
G37*
D16*
G04 #@! TD*
G04 #@! TO.P,C4,1*
G04 #@! TO.N,Net-(C4-Pad1)*
X34888500Y-29273500D03*
D13*
G04 #@! TO.P,C6,2*
G04 #@! TO.N,GND*
X12192000Y-39538000D03*
G04 #@! TO.P,C6,1*
G04 #@! TO.N,+15V*
X12192000Y-35138000D03*
G04 #@! TD*
D14*
G04 #@! TO.P,C7,2*
G04 #@! TO.N,GND*
X14407000Y-16383000D03*
G04 #@! TO.P,C7,1*
G04 #@! TO.N,+3V3*
X21407000Y-16383000D03*
G04 #@! TD*
D15*
G04 #@! TO.N,Net-(C8-Pad2)*
G04 #@! TO.C,C8*
G36*
X15254504Y-28371704D02*
X15278773Y-28375304D01*
X15302571Y-28381265D01*
X15325671Y-28389530D01*
X15347849Y-28400020D01*
X15368893Y-28412633D01*
X15388598Y-28427247D01*
X15406777Y-28443723D01*
X15423253Y-28461902D01*
X15437867Y-28481607D01*
X15450480Y-28502651D01*
X15460970Y-28524829D01*
X15469235Y-28547929D01*
X15475196Y-28571727D01*
X15478796Y-28595996D01*
X15480000Y-28620500D01*
X15480000Y-29545500D01*
X15478796Y-29570004D01*
X15475196Y-29594273D01*
X15469235Y-29618071D01*
X15460970Y-29641171D01*
X15450480Y-29663349D01*
X15437867Y-29684393D01*
X15423253Y-29704098D01*
X15406777Y-29722277D01*
X15388598Y-29738753D01*
X15368893Y-29753367D01*
X15347849Y-29765980D01*
X15325671Y-29776470D01*
X15302571Y-29784735D01*
X15278773Y-29790696D01*
X15254504Y-29794296D01*
X15230000Y-29795500D01*
X13980000Y-29795500D01*
X13955496Y-29794296D01*
X13931227Y-29790696D01*
X13907429Y-29784735D01*
X13884329Y-29776470D01*
X13862151Y-29765980D01*
X13841107Y-29753367D01*
X13821402Y-29738753D01*
X13803223Y-29722277D01*
X13786747Y-29704098D01*
X13772133Y-29684393D01*
X13759520Y-29663349D01*
X13749030Y-29641171D01*
X13740765Y-29618071D01*
X13734804Y-29594273D01*
X13731204Y-29570004D01*
X13730000Y-29545500D01*
X13730000Y-28620500D01*
X13731204Y-28595996D01*
X13734804Y-28571727D01*
X13740765Y-28547929D01*
X13749030Y-28524829D01*
X13759520Y-28502651D01*
X13772133Y-28481607D01*
X13786747Y-28461902D01*
X13803223Y-28443723D01*
X13821402Y-28427247D01*
X13841107Y-28412633D01*
X13862151Y-28400020D01*
X13884329Y-28389530D01*
X13907429Y-28381265D01*
X13931227Y-28375304D01*
X13955496Y-28371704D01*
X13980000Y-28370500D01*
X15230000Y-28370500D01*
X15254504Y-28371704D01*
X15254504Y-28371704D01*
G37*
D16*
G04 #@! TD*
G04 #@! TO.P,C8,2*
G04 #@! TO.N,Net-(C8-Pad2)*
X14605000Y-29083000D03*
D15*
G04 #@! TO.N,Net-(C8-Pad1)*
G04 #@! TO.C,C8*
G36*
X15254504Y-31346704D02*
X15278773Y-31350304D01*
X15302571Y-31356265D01*
X15325671Y-31364530D01*
X15347849Y-31375020D01*
X15368893Y-31387633D01*
X15388598Y-31402247D01*
X15406777Y-31418723D01*
X15423253Y-31436902D01*
X15437867Y-31456607D01*
X15450480Y-31477651D01*
X15460970Y-31499829D01*
X15469235Y-31522929D01*
X15475196Y-31546727D01*
X15478796Y-31570996D01*
X15480000Y-31595500D01*
X15480000Y-32520500D01*
X15478796Y-32545004D01*
X15475196Y-32569273D01*
X15469235Y-32593071D01*
X15460970Y-32616171D01*
X15450480Y-32638349D01*
X15437867Y-32659393D01*
X15423253Y-32679098D01*
X15406777Y-32697277D01*
X15388598Y-32713753D01*
X15368893Y-32728367D01*
X15347849Y-32740980D01*
X15325671Y-32751470D01*
X15302571Y-32759735D01*
X15278773Y-32765696D01*
X15254504Y-32769296D01*
X15230000Y-32770500D01*
X13980000Y-32770500D01*
X13955496Y-32769296D01*
X13931227Y-32765696D01*
X13907429Y-32759735D01*
X13884329Y-32751470D01*
X13862151Y-32740980D01*
X13841107Y-32728367D01*
X13821402Y-32713753D01*
X13803223Y-32697277D01*
X13786747Y-32679098D01*
X13772133Y-32659393D01*
X13759520Y-32638349D01*
X13749030Y-32616171D01*
X13740765Y-32593071D01*
X13734804Y-32569273D01*
X13731204Y-32545004D01*
X13730000Y-32520500D01*
X13730000Y-31595500D01*
X13731204Y-31570996D01*
X13734804Y-31546727D01*
X13740765Y-31522929D01*
X13749030Y-31499829D01*
X13759520Y-31477651D01*
X13772133Y-31456607D01*
X13786747Y-31436902D01*
X13803223Y-31418723D01*
X13821402Y-31402247D01*
X13841107Y-31387633D01*
X13862151Y-31375020D01*
X13884329Y-31364530D01*
X13907429Y-31356265D01*
X13931227Y-31350304D01*
X13955496Y-31346704D01*
X13980000Y-31345500D01*
X15230000Y-31345500D01*
X15254504Y-31346704D01*
X15254504Y-31346704D01*
G37*
D16*
G04 #@! TD*
G04 #@! TO.P,C8,1*
G04 #@! TO.N,Net-(C8-Pad1)*
X14605000Y-32058000D03*
D15*
G04 #@! TO.N,GND*
G04 #@! TO.C,C9*
G36*
X17414504Y-28209204D02*
X17438773Y-28212804D01*
X17462571Y-28218765D01*
X17485671Y-28227030D01*
X17507849Y-28237520D01*
X17528893Y-28250133D01*
X17548598Y-28264747D01*
X17566777Y-28281223D01*
X17583253Y-28299402D01*
X17597867Y-28319107D01*
X17610480Y-28340151D01*
X17620970Y-28362329D01*
X17629235Y-28385429D01*
X17635196Y-28409227D01*
X17638796Y-28433496D01*
X17640000Y-28458000D01*
X17640000Y-29708000D01*
X17638796Y-29732504D01*
X17635196Y-29756773D01*
X17629235Y-29780571D01*
X17620970Y-29803671D01*
X17610480Y-29825849D01*
X17597867Y-29846893D01*
X17583253Y-29866598D01*
X17566777Y-29884777D01*
X17548598Y-29901253D01*
X17528893Y-29915867D01*
X17507849Y-29928480D01*
X17485671Y-29938970D01*
X17462571Y-29947235D01*
X17438773Y-29953196D01*
X17414504Y-29956796D01*
X17390000Y-29958000D01*
X16465000Y-29958000D01*
X16440496Y-29956796D01*
X16416227Y-29953196D01*
X16392429Y-29947235D01*
X16369329Y-29938970D01*
X16347151Y-29928480D01*
X16326107Y-29915867D01*
X16306402Y-29901253D01*
X16288223Y-29884777D01*
X16271747Y-29866598D01*
X16257133Y-29846893D01*
X16244520Y-29825849D01*
X16234030Y-29803671D01*
X16225765Y-29780571D01*
X16219804Y-29756773D01*
X16216204Y-29732504D01*
X16215000Y-29708000D01*
X16215000Y-28458000D01*
X16216204Y-28433496D01*
X16219804Y-28409227D01*
X16225765Y-28385429D01*
X16234030Y-28362329D01*
X16244520Y-28340151D01*
X16257133Y-28319107D01*
X16271747Y-28299402D01*
X16288223Y-28281223D01*
X16306402Y-28264747D01*
X16326107Y-28250133D01*
X16347151Y-28237520D01*
X16369329Y-28227030D01*
X16392429Y-28218765D01*
X16416227Y-28212804D01*
X16440496Y-28209204D01*
X16465000Y-28208000D01*
X17390000Y-28208000D01*
X17414504Y-28209204D01*
X17414504Y-28209204D01*
G37*
D16*
G04 #@! TD*
G04 #@! TO.P,C9,2*
G04 #@! TO.N,GND*
X16927500Y-29083000D03*
D15*
G04 #@! TO.N,Net-(C9-Pad1)*
G04 #@! TO.C,C9*
G36*
X20389504Y-28209204D02*
X20413773Y-28212804D01*
X20437571Y-28218765D01*
X20460671Y-28227030D01*
X20482849Y-28237520D01*
X20503893Y-28250133D01*
X20523598Y-28264747D01*
X20541777Y-28281223D01*
X20558253Y-28299402D01*
X20572867Y-28319107D01*
X20585480Y-28340151D01*
X20595970Y-28362329D01*
X20604235Y-28385429D01*
X20610196Y-28409227D01*
X20613796Y-28433496D01*
X20615000Y-28458000D01*
X20615000Y-29708000D01*
X20613796Y-29732504D01*
X20610196Y-29756773D01*
X20604235Y-29780571D01*
X20595970Y-29803671D01*
X20585480Y-29825849D01*
X20572867Y-29846893D01*
X20558253Y-29866598D01*
X20541777Y-29884777D01*
X20523598Y-29901253D01*
X20503893Y-29915867D01*
X20482849Y-29928480D01*
X20460671Y-29938970D01*
X20437571Y-29947235D01*
X20413773Y-29953196D01*
X20389504Y-29956796D01*
X20365000Y-29958000D01*
X19440000Y-29958000D01*
X19415496Y-29956796D01*
X19391227Y-29953196D01*
X19367429Y-29947235D01*
X19344329Y-29938970D01*
X19322151Y-29928480D01*
X19301107Y-29915867D01*
X19281402Y-29901253D01*
X19263223Y-29884777D01*
X19246747Y-29866598D01*
X19232133Y-29846893D01*
X19219520Y-29825849D01*
X19209030Y-29803671D01*
X19200765Y-29780571D01*
X19194804Y-29756773D01*
X19191204Y-29732504D01*
X19190000Y-29708000D01*
X19190000Y-28458000D01*
X19191204Y-28433496D01*
X19194804Y-28409227D01*
X19200765Y-28385429D01*
X19209030Y-28362329D01*
X19219520Y-28340151D01*
X19232133Y-28319107D01*
X19246747Y-28299402D01*
X19263223Y-28281223D01*
X19281402Y-28264747D01*
X19301107Y-28250133D01*
X19322151Y-28237520D01*
X19344329Y-28227030D01*
X19367429Y-28218765D01*
X19391227Y-28212804D01*
X19415496Y-28209204D01*
X19440000Y-28208000D01*
X20365000Y-28208000D01*
X20389504Y-28209204D01*
X20389504Y-28209204D01*
G37*
D16*
G04 #@! TD*
G04 #@! TO.P,C9,1*
G04 #@! TO.N,Net-(C9-Pad1)*
X19902500Y-29083000D03*
D17*
G04 #@! TO.P,lipoGnd1,1*
G04 #@! TO.N,GND*
X23495000Y-116205000D03*
G04 #@! TD*
G04 #@! TO.P,LipoGnd2,1*
G04 #@! TO.N,GND*
X55880000Y-116205000D03*
G04 #@! TD*
G04 #@! TO.P,lipoIn1,1*
G04 #@! TO.N,liPo1*
X7620000Y-116205000D03*
G04 #@! TD*
G04 #@! TO.P,lipoIn2,1*
G04 #@! TO.N,liPo2*
X40005000Y-116205000D03*
G04 #@! TD*
D18*
G04 #@! TO.P,I2C1,2*
G04 #@! TO.N,sda*
X3810000Y-13843000D03*
G04 #@! TO.P,I2C1,1*
G04 #@! TO.N,scl*
X3810000Y-11303000D03*
G04 #@! TD*
D15*
G04 #@! TO.N,scl*
G04 #@! TO.C,R15*
G36*
X7054504Y-62880204D02*
X7078773Y-62883804D01*
X7102571Y-62889765D01*
X7125671Y-62898030D01*
X7147849Y-62908520D01*
X7168893Y-62921133D01*
X7188598Y-62935747D01*
X7206777Y-62952223D01*
X7223253Y-62970402D01*
X7237867Y-62990107D01*
X7250480Y-63011151D01*
X7260970Y-63033329D01*
X7269235Y-63056429D01*
X7275196Y-63080227D01*
X7278796Y-63104496D01*
X7280000Y-63129000D01*
X7280000Y-64379000D01*
X7278796Y-64403504D01*
X7275196Y-64427773D01*
X7269235Y-64451571D01*
X7260970Y-64474671D01*
X7250480Y-64496849D01*
X7237867Y-64517893D01*
X7223253Y-64537598D01*
X7206777Y-64555777D01*
X7188598Y-64572253D01*
X7168893Y-64586867D01*
X7147849Y-64599480D01*
X7125671Y-64609970D01*
X7102571Y-64618235D01*
X7078773Y-64624196D01*
X7054504Y-64627796D01*
X7030000Y-64629000D01*
X6105000Y-64629000D01*
X6080496Y-64627796D01*
X6056227Y-64624196D01*
X6032429Y-64618235D01*
X6009329Y-64609970D01*
X5987151Y-64599480D01*
X5966107Y-64586867D01*
X5946402Y-64572253D01*
X5928223Y-64555777D01*
X5911747Y-64537598D01*
X5897133Y-64517893D01*
X5884520Y-64496849D01*
X5874030Y-64474671D01*
X5865765Y-64451571D01*
X5859804Y-64427773D01*
X5856204Y-64403504D01*
X5855000Y-64379000D01*
X5855000Y-63129000D01*
X5856204Y-63104496D01*
X5859804Y-63080227D01*
X5865765Y-63056429D01*
X5874030Y-63033329D01*
X5884520Y-63011151D01*
X5897133Y-62990107D01*
X5911747Y-62970402D01*
X5928223Y-62952223D01*
X5946402Y-62935747D01*
X5966107Y-62921133D01*
X5987151Y-62908520D01*
X6009329Y-62898030D01*
X6032429Y-62889765D01*
X6056227Y-62883804D01*
X6080496Y-62880204D01*
X6105000Y-62879000D01*
X7030000Y-62879000D01*
X7054504Y-62880204D01*
X7054504Y-62880204D01*
G37*
D16*
G04 #@! TD*
G04 #@! TO.P,R15,2*
G04 #@! TO.N,scl*
X6567500Y-63754000D03*
D15*
G04 #@! TO.N,+3V3*
G04 #@! TO.C,R15*
G36*
X4079504Y-62880204D02*
X4103773Y-62883804D01*
X4127571Y-62889765D01*
X4150671Y-62898030D01*
X4172849Y-62908520D01*
X4193893Y-62921133D01*
X4213598Y-62935747D01*
X4231777Y-62952223D01*
X4248253Y-62970402D01*
X4262867Y-62990107D01*
X4275480Y-63011151D01*
X4285970Y-63033329D01*
X4294235Y-63056429D01*
X4300196Y-63080227D01*
X4303796Y-63104496D01*
X4305000Y-63129000D01*
X4305000Y-64379000D01*
X4303796Y-64403504D01*
X4300196Y-64427773D01*
X4294235Y-64451571D01*
X4285970Y-64474671D01*
X4275480Y-64496849D01*
X4262867Y-64517893D01*
X4248253Y-64537598D01*
X4231777Y-64555777D01*
X4213598Y-64572253D01*
X4193893Y-64586867D01*
X4172849Y-64599480D01*
X4150671Y-64609970D01*
X4127571Y-64618235D01*
X4103773Y-64624196D01*
X4079504Y-64627796D01*
X4055000Y-64629000D01*
X3130000Y-64629000D01*
X3105496Y-64627796D01*
X3081227Y-64624196D01*
X3057429Y-64618235D01*
X3034329Y-64609970D01*
X3012151Y-64599480D01*
X2991107Y-64586867D01*
X2971402Y-64572253D01*
X2953223Y-64555777D01*
X2936747Y-64537598D01*
X2922133Y-64517893D01*
X2909520Y-64496849D01*
X2899030Y-64474671D01*
X2890765Y-64451571D01*
X2884804Y-64427773D01*
X2881204Y-64403504D01*
X2880000Y-64379000D01*
X2880000Y-63129000D01*
X2881204Y-63104496D01*
X2884804Y-63080227D01*
X2890765Y-63056429D01*
X2899030Y-63033329D01*
X2909520Y-63011151D01*
X2922133Y-62990107D01*
X2936747Y-62970402D01*
X2953223Y-62952223D01*
X2971402Y-62935747D01*
X2991107Y-62921133D01*
X3012151Y-62908520D01*
X3034329Y-62898030D01*
X3057429Y-62889765D01*
X3081227Y-62883804D01*
X3105496Y-62880204D01*
X3130000Y-62879000D01*
X4055000Y-62879000D01*
X4079504Y-62880204D01*
X4079504Y-62880204D01*
G37*
D16*
G04 #@! TD*
G04 #@! TO.P,R15,1*
G04 #@! TO.N,+3V3*
X3592500Y-63754000D03*
D15*
G04 #@! TO.N,sda*
G04 #@! TO.C,R16*
G36*
X60648504Y-63134204D02*
X60672773Y-63137804D01*
X60696571Y-63143765D01*
X60719671Y-63152030D01*
X60741849Y-63162520D01*
X60762893Y-63175133D01*
X60782598Y-63189747D01*
X60800777Y-63206223D01*
X60817253Y-63224402D01*
X60831867Y-63244107D01*
X60844480Y-63265151D01*
X60854970Y-63287329D01*
X60863235Y-63310429D01*
X60869196Y-63334227D01*
X60872796Y-63358496D01*
X60874000Y-63383000D01*
X60874000Y-64633000D01*
X60872796Y-64657504D01*
X60869196Y-64681773D01*
X60863235Y-64705571D01*
X60854970Y-64728671D01*
X60844480Y-64750849D01*
X60831867Y-64771893D01*
X60817253Y-64791598D01*
X60800777Y-64809777D01*
X60782598Y-64826253D01*
X60762893Y-64840867D01*
X60741849Y-64853480D01*
X60719671Y-64863970D01*
X60696571Y-64872235D01*
X60672773Y-64878196D01*
X60648504Y-64881796D01*
X60624000Y-64883000D01*
X59699000Y-64883000D01*
X59674496Y-64881796D01*
X59650227Y-64878196D01*
X59626429Y-64872235D01*
X59603329Y-64863970D01*
X59581151Y-64853480D01*
X59560107Y-64840867D01*
X59540402Y-64826253D01*
X59522223Y-64809777D01*
X59505747Y-64791598D01*
X59491133Y-64771893D01*
X59478520Y-64750849D01*
X59468030Y-64728671D01*
X59459765Y-64705571D01*
X59453804Y-64681773D01*
X59450204Y-64657504D01*
X59449000Y-64633000D01*
X59449000Y-63383000D01*
X59450204Y-63358496D01*
X59453804Y-63334227D01*
X59459765Y-63310429D01*
X59468030Y-63287329D01*
X59478520Y-63265151D01*
X59491133Y-63244107D01*
X59505747Y-63224402D01*
X59522223Y-63206223D01*
X59540402Y-63189747D01*
X59560107Y-63175133D01*
X59581151Y-63162520D01*
X59603329Y-63152030D01*
X59626429Y-63143765D01*
X59650227Y-63137804D01*
X59674496Y-63134204D01*
X59699000Y-63133000D01*
X60624000Y-63133000D01*
X60648504Y-63134204D01*
X60648504Y-63134204D01*
G37*
D16*
G04 #@! TD*
G04 #@! TO.P,R16,2*
G04 #@! TO.N,sda*
X60161500Y-64008000D03*
D15*
G04 #@! TO.N,+3V3*
G04 #@! TO.C,R16*
G36*
X57673504Y-63134204D02*
X57697773Y-63137804D01*
X57721571Y-63143765D01*
X57744671Y-63152030D01*
X57766849Y-63162520D01*
X57787893Y-63175133D01*
X57807598Y-63189747D01*
X57825777Y-63206223D01*
X57842253Y-63224402D01*
X57856867Y-63244107D01*
X57869480Y-63265151D01*
X57879970Y-63287329D01*
X57888235Y-63310429D01*
X57894196Y-63334227D01*
X57897796Y-63358496D01*
X57899000Y-63383000D01*
X57899000Y-64633000D01*
X57897796Y-64657504D01*
X57894196Y-64681773D01*
X57888235Y-64705571D01*
X57879970Y-64728671D01*
X57869480Y-64750849D01*
X57856867Y-64771893D01*
X57842253Y-64791598D01*
X57825777Y-64809777D01*
X57807598Y-64826253D01*
X57787893Y-64840867D01*
X57766849Y-64853480D01*
X57744671Y-64863970D01*
X57721571Y-64872235D01*
X57697773Y-64878196D01*
X57673504Y-64881796D01*
X57649000Y-64883000D01*
X56724000Y-64883000D01*
X56699496Y-64881796D01*
X56675227Y-64878196D01*
X56651429Y-64872235D01*
X56628329Y-64863970D01*
X56606151Y-64853480D01*
X56585107Y-64840867D01*
X56565402Y-64826253D01*
X56547223Y-64809777D01*
X56530747Y-64791598D01*
X56516133Y-64771893D01*
X56503520Y-64750849D01*
X56493030Y-64728671D01*
X56484765Y-64705571D01*
X56478804Y-64681773D01*
X56475204Y-64657504D01*
X56474000Y-64633000D01*
X56474000Y-63383000D01*
X56475204Y-63358496D01*
X56478804Y-63334227D01*
X56484765Y-63310429D01*
X56493030Y-63287329D01*
X56503520Y-63265151D01*
X56516133Y-63244107D01*
X56530747Y-63224402D01*
X56547223Y-63206223D01*
X56565402Y-63189747D01*
X56585107Y-63175133D01*
X56606151Y-63162520D01*
X56628329Y-63152030D01*
X56651429Y-63143765D01*
X56675227Y-63137804D01*
X56699496Y-63134204D01*
X56724000Y-63133000D01*
X57649000Y-63133000D01*
X57673504Y-63134204D01*
X57673504Y-63134204D01*
G37*
D16*
G04 #@! TD*
G04 #@! TO.P,R16,1*
G04 #@! TO.N,+3V3*
X57186500Y-64008000D03*
D12*
G04 #@! TO.P,Card1,14*
G04 #@! TO.N,scl*
X6350000Y-17780000D03*
G04 #@! TO.P,Card1,13*
G04 #@! TO.N,sda*
X3810000Y-17780000D03*
G04 #@! TO.P,Card1,12*
G04 #@! TO.N,+5V*
X6350000Y-20320000D03*
G04 #@! TO.P,Card1,11*
G04 #@! TO.N,+3V3*
X3810000Y-20320000D03*
G04 #@! TO.P,Card1,10*
G04 #@! TO.N,+15V*
X6350000Y-22860000D03*
G04 #@! TO.P,Card1,9*
X3810000Y-22860000D03*
G04 #@! TO.P,Card1,8*
G04 #@! TO.N,header2Gpio6*
X6350000Y-25400000D03*
G04 #@! TO.P,Card1,7*
G04 #@! TO.N,GND*
X3810000Y-25400000D03*
G04 #@! TO.P,Card1,6*
G04 #@! TO.N,header2Gpio5*
X6350000Y-27940000D03*
G04 #@! TO.P,Card1,5*
G04 #@! TO.N,GND*
X3810000Y-27940000D03*
G04 #@! TO.P,Card1,4*
G04 #@! TO.N,header2Gpio4*
X6350000Y-30480000D03*
G04 #@! TO.P,Card1,3*
G04 #@! TO.N,header2Gpio2*
X3810000Y-30480000D03*
G04 #@! TO.P,Card1,2*
G04 #@! TO.N,header2Gpio3*
X6350000Y-33020000D03*
G04 #@! TO.P,Card1,1*
G04 #@! TO.N,header2Gpio1*
X3810000Y-33020000D03*
G04 #@! TD*
G04 #@! TO.P,Card2,14*
G04 #@! TO.N,scl*
X6350000Y-43180000D03*
G04 #@! TO.P,Card2,13*
G04 #@! TO.N,sda*
X3810000Y-43180000D03*
G04 #@! TO.P,Card2,12*
G04 #@! TO.N,+5V*
X6350000Y-45720000D03*
G04 #@! TO.P,Card2,11*
G04 #@! TO.N,+3V3*
X3810000Y-45720000D03*
G04 #@! TO.P,Card2,10*
G04 #@! TO.N,+15V*
X6350000Y-48260000D03*
G04 #@! TO.P,Card2,9*
X3810000Y-48260000D03*
G04 #@! TO.P,Card2,8*
G04 #@! TO.N,header3Gpio6*
X6350000Y-50800000D03*
G04 #@! TO.P,Card2,7*
G04 #@! TO.N,GND*
X3810000Y-50800000D03*
G04 #@! TO.P,Card2,6*
G04 #@! TO.N,header3Gpio5*
X6350000Y-53340000D03*
G04 #@! TO.P,Card2,5*
G04 #@! TO.N,GND*
X3810000Y-53340000D03*
G04 #@! TO.P,Card2,4*
G04 #@! TO.N,header3Gpio4*
X6350000Y-55880000D03*
G04 #@! TO.P,Card2,3*
G04 #@! TO.N,header3Gpio2*
X3810000Y-55880000D03*
G04 #@! TO.P,Card2,2*
G04 #@! TO.N,header3Gpio3*
X6350000Y-58420000D03*
G04 #@! TO.P,Card2,1*
G04 #@! TO.N,header3Gpio1*
X3810000Y-58420000D03*
G04 #@! TD*
G04 #@! TO.P,Card3,14*
G04 #@! TO.N,scl*
X6350000Y-68580000D03*
G04 #@! TO.P,Card3,13*
G04 #@! TO.N,sda*
X3810000Y-68580000D03*
G04 #@! TO.P,Card3,12*
G04 #@! TO.N,+5V*
X6350000Y-71120000D03*
G04 #@! TO.P,Card3,11*
G04 #@! TO.N,+3V3*
X3810000Y-71120000D03*
G04 #@! TO.P,Card3,10*
G04 #@! TO.N,+15V*
X6350000Y-73660000D03*
G04 #@! TO.P,Card3,9*
X3810000Y-73660000D03*
G04 #@! TO.P,Card3,8*
G04 #@! TO.N,header4Gpio6*
X6350000Y-76200000D03*
G04 #@! TO.P,Card3,7*
G04 #@! TO.N,GND*
X3810000Y-76200000D03*
G04 #@! TO.P,Card3,6*
G04 #@! TO.N,header4Gpio5*
X6350000Y-78740000D03*
G04 #@! TO.P,Card3,5*
G04 #@! TO.N,GND*
X3810000Y-78740000D03*
G04 #@! TO.P,Card3,4*
G04 #@! TO.N,header4Gpio4*
X6350000Y-81280000D03*
G04 #@! TO.P,Card3,3*
G04 #@! TO.N,header4Gpio2*
X3810000Y-81280000D03*
G04 #@! TO.P,Card3,2*
G04 #@! TO.N,header4Gpio3*
X6350000Y-83820000D03*
G04 #@! TO.P,Card3,1*
G04 #@! TO.N,header4Gpio1*
X3810000Y-83820000D03*
G04 #@! TD*
G04 #@! TO.P,Card4,14*
G04 #@! TO.N,scl*
X6350000Y-93980000D03*
G04 #@! TO.P,Card4,13*
G04 #@! TO.N,sda*
X3810000Y-93980000D03*
G04 #@! TO.P,Card4,12*
G04 #@! TO.N,+5V*
X6350000Y-96520000D03*
G04 #@! TO.P,Card4,11*
G04 #@! TO.N,+3V3*
X3810000Y-96520000D03*
G04 #@! TO.P,Card4,10*
G04 #@! TO.N,+15V*
X6350000Y-99060000D03*
G04 #@! TO.P,Card4,9*
X3810000Y-99060000D03*
G04 #@! TO.P,Card4,8*
G04 #@! TO.N,header5Gpio6*
X6350000Y-101600000D03*
G04 #@! TO.P,Card4,7*
G04 #@! TO.N,GND*
X3810000Y-101600000D03*
G04 #@! TO.P,Card4,6*
G04 #@! TO.N,header5Gpio5*
X6350000Y-104140000D03*
G04 #@! TO.P,Card4,5*
G04 #@! TO.N,GND*
X3810000Y-104140000D03*
G04 #@! TO.P,Card4,4*
G04 #@! TO.N,header5Gpio4*
X6350000Y-106680000D03*
G04 #@! TO.P,Card4,3*
G04 #@! TO.N,header5Gpio2*
X3810000Y-106680000D03*
G04 #@! TO.P,Card4,2*
G04 #@! TO.N,header5Gpio3*
X6350000Y-109220000D03*
G04 #@! TO.P,Card4,1*
G04 #@! TO.N,header5Gpio1*
X3810000Y-109220000D03*
G04 #@! TD*
G04 #@! TO.P,Card8,14*
G04 #@! TO.N,scl*
X57150000Y-33020000D03*
G04 #@! TO.P,Card8,13*
G04 #@! TO.N,sda*
X59690000Y-33020000D03*
G04 #@! TO.P,Card8,12*
G04 #@! TO.N,+5V*
X57150000Y-30480000D03*
G04 #@! TO.P,Card8,11*
G04 #@! TO.N,+3V3*
X59690000Y-30480000D03*
G04 #@! TO.P,Card8,10*
G04 #@! TO.N,+15V*
X57150000Y-27940000D03*
G04 #@! TO.P,Card8,9*
X59690000Y-27940000D03*
G04 #@! TO.P,Card8,8*
G04 #@! TO.N,header6Gpio6*
X57150000Y-25400000D03*
G04 #@! TO.P,Card8,7*
G04 #@! TO.N,GND*
X59690000Y-25400000D03*
G04 #@! TO.P,Card8,6*
G04 #@! TO.N,header6Gpio5*
X57150000Y-22860000D03*
G04 #@! TO.P,Card8,5*
G04 #@! TO.N,GND*
X59690000Y-22860000D03*
G04 #@! TO.P,Card8,4*
G04 #@! TO.N,header6Gpio4*
X57150000Y-20320000D03*
G04 #@! TO.P,Card8,3*
G04 #@! TO.N,header6Gpio2*
X59690000Y-20320000D03*
G04 #@! TO.P,Card8,2*
G04 #@! TO.N,header6Gpio3*
X57150000Y-17780000D03*
G04 #@! TO.P,Card8,1*
G04 #@! TO.N,header6Gpio1*
X59690000Y-17780000D03*
G04 #@! TD*
G04 #@! TO.P,Card7,14*
G04 #@! TO.N,scl*
X57150000Y-58420000D03*
G04 #@! TO.P,Card7,13*
G04 #@! TO.N,sda*
X59690000Y-58420000D03*
G04 #@! TO.P,Card7,12*
G04 #@! TO.N,+5V*
X57150000Y-55880000D03*
G04 #@! TO.P,Card7,11*
G04 #@! TO.N,+3V3*
X59690000Y-55880000D03*
G04 #@! TO.P,Card7,10*
G04 #@! TO.N,+15V*
X57150000Y-53340000D03*
G04 #@! TO.P,Card7,9*
X59690000Y-53340000D03*
G04 #@! TO.P,Card7,8*
G04 #@! TO.N,header7Gpio6*
X57150000Y-50800000D03*
G04 #@! TO.P,Card7,7*
G04 #@! TO.N,GND*
X59690000Y-50800000D03*
G04 #@! TO.P,Card7,6*
G04 #@! TO.N,header7Gpio5*
X57150000Y-48260000D03*
G04 #@! TO.P,Card7,5*
G04 #@! TO.N,GND*
X59690000Y-48260000D03*
G04 #@! TO.P,Card7,4*
G04 #@! TO.N,header7Gpio4*
X57150000Y-45720000D03*
G04 #@! TO.P,Card7,3*
G04 #@! TO.N,header7Gpio2*
X59690000Y-45720000D03*
G04 #@! TO.P,Card7,2*
G04 #@! TO.N,header7Gpio3*
X57150000Y-43180000D03*
G04 #@! TO.P,Card7,1*
G04 #@! TO.N,header7Gpio1*
X59690000Y-43180000D03*
G04 #@! TD*
G04 #@! TO.P,Card6,14*
G04 #@! TO.N,scl*
X57150000Y-83820000D03*
G04 #@! TO.P,Card6,13*
G04 #@! TO.N,sda*
X59690000Y-83820000D03*
G04 #@! TO.P,Card6,12*
G04 #@! TO.N,+5V*
X57150000Y-81280000D03*
G04 #@! TO.P,Card6,11*
G04 #@! TO.N,+3V3*
X59690000Y-81280000D03*
G04 #@! TO.P,Card6,10*
G04 #@! TO.N,+15V*
X57150000Y-78740000D03*
G04 #@! TO.P,Card6,9*
X59690000Y-78740000D03*
G04 #@! TO.P,Card6,8*
G04 #@! TO.N,header8Gpio6*
X57150000Y-76200000D03*
G04 #@! TO.P,Card6,7*
G04 #@! TO.N,GND*
X59690000Y-76200000D03*
G04 #@! TO.P,Card6,6*
G04 #@! TO.N,header8Gpio5*
X57150000Y-73660000D03*
G04 #@! TO.P,Card6,5*
G04 #@! TO.N,GND*
X59690000Y-73660000D03*
G04 #@! TO.P,Card6,4*
G04 #@! TO.N,header8Gpio4*
X57150000Y-71120000D03*
G04 #@! TO.P,Card6,3*
G04 #@! TO.N,header8Gpio2*
X59690000Y-71120000D03*
G04 #@! TO.P,Card6,2*
G04 #@! TO.N,header8Gpio3*
X57150000Y-68580000D03*
G04 #@! TO.P,Card6,1*
G04 #@! TO.N,header8Gpio1*
X59690000Y-68580000D03*
G04 #@! TD*
G04 #@! TO.P,Card5,14*
G04 #@! TO.N,scl*
X57150000Y-109220000D03*
G04 #@! TO.P,Card5,13*
G04 #@! TO.N,sda*
X59690000Y-109220000D03*
G04 #@! TO.P,Card5,12*
G04 #@! TO.N,+5V*
X57150000Y-106680000D03*
G04 #@! TO.P,Card5,11*
G04 #@! TO.N,+3V3*
X59690000Y-106680000D03*
G04 #@! TO.P,Card5,10*
G04 #@! TO.N,+15V*
X57150000Y-104140000D03*
G04 #@! TO.P,Card5,9*
X59690000Y-104140000D03*
G04 #@! TO.P,Card5,8*
G04 #@! TO.N,header9Gpio6*
X57150000Y-101600000D03*
G04 #@! TO.P,Card5,7*
G04 #@! TO.N,GND*
X59690000Y-101600000D03*
G04 #@! TO.P,Card5,6*
G04 #@! TO.N,header9Gpio5*
X57150000Y-99060000D03*
G04 #@! TO.P,Card5,5*
G04 #@! TO.N,GND*
X59690000Y-99060000D03*
G04 #@! TO.P,Card5,4*
G04 #@! TO.N,header9Gpio4*
X57150000Y-96520000D03*
G04 #@! TO.P,Card5,3*
G04 #@! TO.N,header9Gpio2*
X59690000Y-96520000D03*
G04 #@! TO.P,Card5,2*
G04 #@! TO.N,header9Gpio3*
X57150000Y-93980000D03*
G04 #@! TO.P,Card5,1*
G04 #@! TO.N,header9Gpio1*
X59690000Y-93980000D03*
G04 #@! TD*
D13*
G04 #@! TO.P,C11,2*
G04 #@! TO.N,GND*
X41148000Y-39243000D03*
G04 #@! TO.P,C11,1*
G04 #@! TO.N,+15V*
X41148000Y-34843000D03*
G04 #@! TD*
D14*
G04 #@! TO.P,C12,2*
G04 #@! TO.N,GND*
X43236000Y-16256000D03*
G04 #@! TO.P,C12,1*
G04 #@! TO.N,+12V*
X50236000Y-16256000D03*
G04 #@! TD*
D15*
G04 #@! TO.N,Net-(C13-Pad2)*
G04 #@! TO.C,C13*
G36*
X43702504Y-28408204D02*
X43726773Y-28411804D01*
X43750571Y-28417765D01*
X43773671Y-28426030D01*
X43795849Y-28436520D01*
X43816893Y-28449133D01*
X43836598Y-28463747D01*
X43854777Y-28480223D01*
X43871253Y-28498402D01*
X43885867Y-28518107D01*
X43898480Y-28539151D01*
X43908970Y-28561329D01*
X43917235Y-28584429D01*
X43923196Y-28608227D01*
X43926796Y-28632496D01*
X43928000Y-28657000D01*
X43928000Y-29582000D01*
X43926796Y-29606504D01*
X43923196Y-29630773D01*
X43917235Y-29654571D01*
X43908970Y-29677671D01*
X43898480Y-29699849D01*
X43885867Y-29720893D01*
X43871253Y-29740598D01*
X43854777Y-29758777D01*
X43836598Y-29775253D01*
X43816893Y-29789867D01*
X43795849Y-29802480D01*
X43773671Y-29812970D01*
X43750571Y-29821235D01*
X43726773Y-29827196D01*
X43702504Y-29830796D01*
X43678000Y-29832000D01*
X42428000Y-29832000D01*
X42403496Y-29830796D01*
X42379227Y-29827196D01*
X42355429Y-29821235D01*
X42332329Y-29812970D01*
X42310151Y-29802480D01*
X42289107Y-29789867D01*
X42269402Y-29775253D01*
X42251223Y-29758777D01*
X42234747Y-29740598D01*
X42220133Y-29720893D01*
X42207520Y-29699849D01*
X42197030Y-29677671D01*
X42188765Y-29654571D01*
X42182804Y-29630773D01*
X42179204Y-29606504D01*
X42178000Y-29582000D01*
X42178000Y-28657000D01*
X42179204Y-28632496D01*
X42182804Y-28608227D01*
X42188765Y-28584429D01*
X42197030Y-28561329D01*
X42207520Y-28539151D01*
X42220133Y-28518107D01*
X42234747Y-28498402D01*
X42251223Y-28480223D01*
X42269402Y-28463747D01*
X42289107Y-28449133D01*
X42310151Y-28436520D01*
X42332329Y-28426030D01*
X42355429Y-28417765D01*
X42379227Y-28411804D01*
X42403496Y-28408204D01*
X42428000Y-28407000D01*
X43678000Y-28407000D01*
X43702504Y-28408204D01*
X43702504Y-28408204D01*
G37*
D16*
G04 #@! TD*
G04 #@! TO.P,C13,2*
G04 #@! TO.N,Net-(C13-Pad2)*
X43053000Y-29119500D03*
D15*
G04 #@! TO.N,Net-(C13-Pad1)*
G04 #@! TO.C,C13*
G36*
X43702504Y-31383204D02*
X43726773Y-31386804D01*
X43750571Y-31392765D01*
X43773671Y-31401030D01*
X43795849Y-31411520D01*
X43816893Y-31424133D01*
X43836598Y-31438747D01*
X43854777Y-31455223D01*
X43871253Y-31473402D01*
X43885867Y-31493107D01*
X43898480Y-31514151D01*
X43908970Y-31536329D01*
X43917235Y-31559429D01*
X43923196Y-31583227D01*
X43926796Y-31607496D01*
X43928000Y-31632000D01*
X43928000Y-32557000D01*
X43926796Y-32581504D01*
X43923196Y-32605773D01*
X43917235Y-32629571D01*
X43908970Y-32652671D01*
X43898480Y-32674849D01*
X43885867Y-32695893D01*
X43871253Y-32715598D01*
X43854777Y-32733777D01*
X43836598Y-32750253D01*
X43816893Y-32764867D01*
X43795849Y-32777480D01*
X43773671Y-32787970D01*
X43750571Y-32796235D01*
X43726773Y-32802196D01*
X43702504Y-32805796D01*
X43678000Y-32807000D01*
X42428000Y-32807000D01*
X42403496Y-32805796D01*
X42379227Y-32802196D01*
X42355429Y-32796235D01*
X42332329Y-32787970D01*
X42310151Y-32777480D01*
X42289107Y-32764867D01*
X42269402Y-32750253D01*
X42251223Y-32733777D01*
X42234747Y-32715598D01*
X42220133Y-32695893D01*
X42207520Y-32674849D01*
X42197030Y-32652671D01*
X42188765Y-32629571D01*
X42182804Y-32605773D01*
X42179204Y-32581504D01*
X42178000Y-32557000D01*
X42178000Y-31632000D01*
X42179204Y-31607496D01*
X42182804Y-31583227D01*
X42188765Y-31559429D01*
X42197030Y-31536329D01*
X42207520Y-31514151D01*
X42220133Y-31493107D01*
X42234747Y-31473402D01*
X42251223Y-31455223D01*
X42269402Y-31438747D01*
X42289107Y-31424133D01*
X42310151Y-31411520D01*
X42332329Y-31401030D01*
X42355429Y-31392765D01*
X42379227Y-31386804D01*
X42403496Y-31383204D01*
X42428000Y-31382000D01*
X43678000Y-31382000D01*
X43702504Y-31383204D01*
X43702504Y-31383204D01*
G37*
D16*
G04 #@! TD*
G04 #@! TO.P,C13,1*
G04 #@! TO.N,Net-(C13-Pad1)*
X43053000Y-32094500D03*
D15*
G04 #@! TO.N,GND*
G04 #@! TO.C,C14*
G36*
X46116504Y-28463204D02*
X46140773Y-28466804D01*
X46164571Y-28472765D01*
X46187671Y-28481030D01*
X46209849Y-28491520D01*
X46230893Y-28504133D01*
X46250598Y-28518747D01*
X46268777Y-28535223D01*
X46285253Y-28553402D01*
X46299867Y-28573107D01*
X46312480Y-28594151D01*
X46322970Y-28616329D01*
X46331235Y-28639429D01*
X46337196Y-28663227D01*
X46340796Y-28687496D01*
X46342000Y-28712000D01*
X46342000Y-29962000D01*
X46340796Y-29986504D01*
X46337196Y-30010773D01*
X46331235Y-30034571D01*
X46322970Y-30057671D01*
X46312480Y-30079849D01*
X46299867Y-30100893D01*
X46285253Y-30120598D01*
X46268777Y-30138777D01*
X46250598Y-30155253D01*
X46230893Y-30169867D01*
X46209849Y-30182480D01*
X46187671Y-30192970D01*
X46164571Y-30201235D01*
X46140773Y-30207196D01*
X46116504Y-30210796D01*
X46092000Y-30212000D01*
X45167000Y-30212000D01*
X45142496Y-30210796D01*
X45118227Y-30207196D01*
X45094429Y-30201235D01*
X45071329Y-30192970D01*
X45049151Y-30182480D01*
X45028107Y-30169867D01*
X45008402Y-30155253D01*
X44990223Y-30138777D01*
X44973747Y-30120598D01*
X44959133Y-30100893D01*
X44946520Y-30079849D01*
X44936030Y-30057671D01*
X44927765Y-30034571D01*
X44921804Y-30010773D01*
X44918204Y-29986504D01*
X44917000Y-29962000D01*
X44917000Y-28712000D01*
X44918204Y-28687496D01*
X44921804Y-28663227D01*
X44927765Y-28639429D01*
X44936030Y-28616329D01*
X44946520Y-28594151D01*
X44959133Y-28573107D01*
X44973747Y-28553402D01*
X44990223Y-28535223D01*
X45008402Y-28518747D01*
X45028107Y-28504133D01*
X45049151Y-28491520D01*
X45071329Y-28481030D01*
X45094429Y-28472765D01*
X45118227Y-28466804D01*
X45142496Y-28463204D01*
X45167000Y-28462000D01*
X46092000Y-28462000D01*
X46116504Y-28463204D01*
X46116504Y-28463204D01*
G37*
D16*
G04 #@! TD*
G04 #@! TO.P,C14,2*
G04 #@! TO.N,GND*
X45629500Y-29337000D03*
D15*
G04 #@! TO.N,Net-(C14-Pad1)*
G04 #@! TO.C,C14*
G36*
X49091504Y-28463204D02*
X49115773Y-28466804D01*
X49139571Y-28472765D01*
X49162671Y-28481030D01*
X49184849Y-28491520D01*
X49205893Y-28504133D01*
X49225598Y-28518747D01*
X49243777Y-28535223D01*
X49260253Y-28553402D01*
X49274867Y-28573107D01*
X49287480Y-28594151D01*
X49297970Y-28616329D01*
X49306235Y-28639429D01*
X49312196Y-28663227D01*
X49315796Y-28687496D01*
X49317000Y-28712000D01*
X49317000Y-29962000D01*
X49315796Y-29986504D01*
X49312196Y-30010773D01*
X49306235Y-30034571D01*
X49297970Y-30057671D01*
X49287480Y-30079849D01*
X49274867Y-30100893D01*
X49260253Y-30120598D01*
X49243777Y-30138777D01*
X49225598Y-30155253D01*
X49205893Y-30169867D01*
X49184849Y-30182480D01*
X49162671Y-30192970D01*
X49139571Y-30201235D01*
X49115773Y-30207196D01*
X49091504Y-30210796D01*
X49067000Y-30212000D01*
X48142000Y-30212000D01*
X48117496Y-30210796D01*
X48093227Y-30207196D01*
X48069429Y-30201235D01*
X48046329Y-30192970D01*
X48024151Y-30182480D01*
X48003107Y-30169867D01*
X47983402Y-30155253D01*
X47965223Y-30138777D01*
X47948747Y-30120598D01*
X47934133Y-30100893D01*
X47921520Y-30079849D01*
X47911030Y-30057671D01*
X47902765Y-30034571D01*
X47896804Y-30010773D01*
X47893204Y-29986504D01*
X47892000Y-29962000D01*
X47892000Y-28712000D01*
X47893204Y-28687496D01*
X47896804Y-28663227D01*
X47902765Y-28639429D01*
X47911030Y-28616329D01*
X47921520Y-28594151D01*
X47934133Y-28573107D01*
X47948747Y-28553402D01*
X47965223Y-28535223D01*
X47983402Y-28518747D01*
X48003107Y-28504133D01*
X48024151Y-28491520D01*
X48046329Y-28481030D01*
X48069429Y-28472765D01*
X48093227Y-28466804D01*
X48117496Y-28463204D01*
X48142000Y-28462000D01*
X49067000Y-28462000D01*
X49091504Y-28463204D01*
X49091504Y-28463204D01*
G37*
D16*
G04 #@! TD*
G04 #@! TO.P,C14,1*
G04 #@! TO.N,Net-(C14-Pad1)*
X48604500Y-29337000D03*
D12*
G04 #@! TO.P,L3,2*
G04 #@! TO.N,Net-(C13-Pad1)*
X43601000Y-22987000D03*
G04 #@! TO.P,L3,1*
G04 #@! TO.N,+12V*
X48601000Y-22987000D03*
G04 #@! TD*
G04 #@! TO.P,CentralHub1,1*
G04 #@! TO.N,header6Gpio2*
X33020000Y-44450000D03*
G04 #@! TO.P,CentralHub1,2*
G04 #@! TO.N,header2Gpio6*
X30480000Y-44450000D03*
G04 #@! TO.P,CentralHub1,3*
G04 #@! TO.N,header6Gpio1*
X33020000Y-46990000D03*
G04 #@! TO.P,CentralHub1,4*
G04 #@! TO.N,header2Gpio5*
X30480000Y-46990000D03*
G04 #@! TO.P,CentralHub1,5*
G04 #@! TO.N,header6Gpio3*
X33020000Y-49530000D03*
G04 #@! TO.P,CentralHub1,6*
G04 #@! TO.N,header2Gpio4*
X30480000Y-49530000D03*
G04 #@! TO.P,CentralHub1,7*
G04 #@! TO.N,header6Gpio4*
X33020000Y-52070000D03*
G04 #@! TO.P,CentralHub1,8*
G04 #@! TO.N,header2Gpio3*
X30480000Y-52070000D03*
G04 #@! TO.P,CentralHub1,9*
G04 #@! TO.N,header6Gpio5*
X33020000Y-54610000D03*
G04 #@! TO.P,CentralHub1,10*
G04 #@! TO.N,header2Gpio1*
X30480000Y-54610000D03*
G04 #@! TO.P,CentralHub1,11*
G04 #@! TO.N,header6Gpio6*
X33020000Y-57150000D03*
G04 #@! TO.P,CentralHub1,12*
G04 #@! TO.N,header2Gpio2*
X30480000Y-57150000D03*
G04 #@! TO.P,CentralHub1,13*
G04 #@! TO.N,header7Gpio2*
X33020000Y-59690000D03*
G04 #@! TO.P,CentralHub1,14*
G04 #@! TO.N,header3Gpio6*
X30480000Y-59690000D03*
G04 #@! TO.P,CentralHub1,15*
G04 #@! TO.N,header7Gpio1*
X33020000Y-62230000D03*
G04 #@! TO.P,CentralHub1,16*
G04 #@! TO.N,header3Gpio5*
X30480000Y-62230000D03*
G04 #@! TO.P,CentralHub1,17*
G04 #@! TO.N,header7Gpio3*
X33020000Y-64770000D03*
G04 #@! TO.P,CentralHub1,18*
G04 #@! TO.N,header3Gpio4*
X30480000Y-64770000D03*
G04 #@! TO.P,CentralHub1,19*
G04 #@! TO.N,header7Gpio4*
X33020000Y-67310000D03*
G04 #@! TO.P,CentralHub1,20*
G04 #@! TO.N,header3Gpio3*
X30480000Y-67310000D03*
G04 #@! TO.P,CentralHub1,21*
G04 #@! TO.N,header7Gpio5*
X33020000Y-69850000D03*
G04 #@! TO.P,CentralHub1,22*
G04 #@! TO.N,header3Gpio1*
X30480000Y-69850000D03*
G04 #@! TO.P,CentralHub1,23*
G04 #@! TO.N,header7Gpio6*
X33020000Y-72390000D03*
G04 #@! TO.P,CentralHub1,24*
G04 #@! TO.N,header3Gpio2*
X30480000Y-72390000D03*
G04 #@! TO.P,CentralHub1,25*
G04 #@! TO.N,header8Gpio2*
X33020000Y-74930000D03*
G04 #@! TO.P,CentralHub1,26*
G04 #@! TO.N,header4Gpio6*
X30480000Y-74930000D03*
G04 #@! TO.P,CentralHub1,27*
G04 #@! TO.N,header8Gpio1*
X33020000Y-77470000D03*
G04 #@! TO.P,CentralHub1,28*
G04 #@! TO.N,header4Gpio5*
X30480000Y-77470000D03*
G04 #@! TO.P,CentralHub1,29*
G04 #@! TO.N,header8Gpio3*
X33020000Y-80010000D03*
G04 #@! TO.P,CentralHub1,30*
G04 #@! TO.N,header4Gpio4*
X30480000Y-80010000D03*
G04 #@! TO.P,CentralHub1,31*
G04 #@! TO.N,header8Gpio4*
X33020000Y-82550000D03*
G04 #@! TO.P,CentralHub1,32*
G04 #@! TO.N,header4Gpio3*
X30480000Y-82550000D03*
G04 #@! TO.P,CentralHub1,33*
G04 #@! TO.N,header8Gpio5*
X33020000Y-85090000D03*
G04 #@! TO.P,CentralHub1,34*
G04 #@! TO.N,header4Gpio1*
X30480000Y-85090000D03*
G04 #@! TO.P,CentralHub1,35*
G04 #@! TO.N,header8Gpio6*
X33020000Y-87630000D03*
G04 #@! TO.P,CentralHub1,36*
G04 #@! TO.N,header4Gpio2*
X30480000Y-87630000D03*
G04 #@! TO.P,CentralHub1,37*
G04 #@! TO.N,header9Gpio2*
X33020000Y-90170000D03*
G04 #@! TO.P,CentralHub1,38*
G04 #@! TO.N,header5Gpio6*
X30480000Y-90170000D03*
G04 #@! TO.P,CentralHub1,39*
G04 #@! TO.N,header9Gpio1*
X33020000Y-92710000D03*
G04 #@! TO.P,CentralHub1,40*
G04 #@! TO.N,header5Gpio5*
X30480000Y-92710000D03*
G04 #@! TO.P,CentralHub1,41*
G04 #@! TO.N,header9Gpio3*
X33020000Y-95250000D03*
G04 #@! TO.P,CentralHub1,42*
G04 #@! TO.N,header5Gpio4*
X30480000Y-95250000D03*
G04 #@! TO.P,CentralHub1,43*
G04 #@! TO.N,header9Gpio4*
X33020000Y-97790000D03*
G04 #@! TO.P,CentralHub1,44*
G04 #@! TO.N,header5Gpio3*
X30480000Y-97790000D03*
G04 #@! TO.P,CentralHub1,45*
G04 #@! TO.N,header9Gpio5*
X33020000Y-100330000D03*
G04 #@! TO.P,CentralHub1,46*
G04 #@! TO.N,header5Gpio1*
X30480000Y-100330000D03*
G04 #@! TO.P,CentralHub1,47*
G04 #@! TO.N,header9Gpio6*
X33020000Y-102870000D03*
G04 #@! TO.P,CentralHub1,48*
G04 #@! TO.N,header5Gpio2*
X30480000Y-102870000D03*
G04 #@! TD*
D19*
G04 #@! TO.P,U6,1*
G04 #@! TO.N,GND*
X3810000Y-38100000D03*
G04 #@! TD*
G04 #@! TO.P,U7,1*
G04 #@! TO.N,GND*
X59690000Y-38100000D03*
G04 #@! TD*
G04 #@! TO.P,U8,1*
G04 #@! TO.N,GND*
X3810000Y-88900000D03*
G04 #@! TD*
G04 #@! TO.P,U9,1*
G04 #@! TO.N,GND*
X59690000Y-88900000D03*
G04 #@! TD*
D18*
G04 #@! TO.P,LipoMonitor1,1*
G04 #@! TO.N,monitor1*
X3810000Y-4826000D03*
G04 #@! TO.P,LipoMonitor1,2*
G04 #@! TO.N,monitorEna1*
X3810000Y-7366000D03*
G04 #@! TD*
D20*
G04 #@! TO.N,GND*
X12192000Y-40513000D03*
X12192000Y-38481000D03*
X12827000Y-16383000D03*
X14351000Y-16383000D03*
X15621000Y-16383000D03*
X41148000Y-38227000D03*
X41148000Y-40259000D03*
X27305000Y-40132000D03*
X27305000Y-38227000D03*
X44577000Y-16256000D03*
X43180000Y-16256000D03*
X41783000Y-16256000D03*
X29464000Y-16383000D03*
X28123000Y-16383000D03*
X26670000Y-16383000D03*
X17145000Y-33020000D03*
X46482000Y-32004000D03*
X44831000Y-32004000D03*
X46482000Y-30607000D03*
X44831000Y-30607000D03*
X17907000Y-32131000D03*
X16383000Y-32131000D03*
X17907000Y-30480000D03*
X16383000Y-30480000D03*
X32893000Y-32131000D03*
X31369000Y-32131000D03*
X32893000Y-30480000D03*
X31369000Y-30480000D03*
X45593000Y-29464000D03*
X45720000Y-33020000D03*
X32131000Y-29464000D03*
X32131000Y-33020000D03*
X17145000Y-29464000D03*
X22860000Y-109855000D03*
X24130000Y-109855000D03*
X25400000Y-109855000D03*
X26670000Y-109855000D03*
X22860000Y-111760000D03*
X24130000Y-111760000D03*
X25400000Y-111760000D03*
X26670000Y-111760000D03*
X50800000Y-110490000D03*
X52705000Y-110490000D03*
X43815000Y-37592000D03*
X43815000Y-35052000D03*
X43815000Y-39497000D03*
X43815000Y-42037000D03*
X30226000Y-41910000D03*
X30226000Y-39433500D03*
X30226000Y-37528500D03*
X15240000Y-35052000D03*
X15240000Y-37592000D03*
X15240000Y-39497000D03*
X10414000Y-6096000D03*
X10414000Y-12954000D03*
X10414000Y-9398000D03*
X30226000Y-34544000D03*
X15240000Y-42164000D03*
X24892000Y-32893000D03*
G04 #@! TO.N,+5V*
X37846000Y-37846000D03*
X36449000Y-16383000D03*
X35052000Y-16383000D03*
X33655000Y-16383000D03*
G04 #@! TO.N,+15V*
X12192000Y-36068000D03*
X12192000Y-34163000D03*
X41148000Y-33782000D03*
X41148000Y-35814000D03*
X27305000Y-35687000D03*
X27305000Y-33909000D03*
X18796000Y-10922000D03*
X18796000Y-12446000D03*
X41211500Y-28956000D03*
X22860000Y-105410000D03*
X22860000Y-107315000D03*
X24765000Y-105410000D03*
X24765000Y-107315000D03*
X26670000Y-105410000D03*
X26670000Y-107315000D03*
X50800000Y-106045000D03*
X50800000Y-107950000D03*
X52705000Y-106045000D03*
X52705000Y-107950000D03*
X13970000Y-27178000D03*
X15240000Y-27178000D03*
X16510000Y-27178000D03*
X17780000Y-27178000D03*
X19177000Y-27178000D03*
X12446000Y-27178000D03*
X27432000Y-27114500D03*
X27432000Y-28638500D03*
X27432000Y-30226000D03*
X41211500Y-30353000D03*
X41211500Y-27559000D03*
X41211500Y-26479500D03*
X12446000Y-28829000D03*
X12446000Y-30353000D03*
G04 #@! TO.N,+3V3*
X48768000Y-26670000D03*
X35052000Y-27114500D03*
X57150000Y-64008000D03*
X3556000Y-63754000D03*
X22860000Y-37846000D03*
X20066000Y-16383000D03*
X21590000Y-16383000D03*
X22987000Y-16383000D03*
G04 #@! TO.N,Net-(C3-Pad2)*
X29337000Y-29337000D03*
G04 #@! TO.N,Net-(C3-Pad1)*
X29337000Y-31877000D03*
G04 #@! TO.N,Net-(C4-Pad1)*
X34925000Y-29337000D03*
X34925000Y-29337000D03*
X34925000Y-29337000D03*
G04 #@! TO.N,Net-(C8-Pad1)*
X14351000Y-31877000D03*
G04 #@! TO.N,Net-(C8-Pad2)*
X14351000Y-29337000D03*
G04 #@! TO.N,Net-(C9-Pad1)*
X19939000Y-29337000D03*
G04 #@! TO.N,header5Gpio1*
X16764000Y-90424000D03*
G04 #@! TO.N,header5Gpio2*
X16510000Y-92456000D03*
G04 #@! TO.N,+12V*
X51689000Y-16256000D03*
X50165000Y-16256000D03*
X48641000Y-16256000D03*
G04 #@! TO.N,Net-(C13-Pad1)*
X42926000Y-31877000D03*
G04 #@! TO.N,Net-(C13-Pad2)*
X42926000Y-29337000D03*
G04 #@! TO.N,Net-(C14-Pad1)*
X48514000Y-29337000D03*
G04 #@! TD*
D21*
G04 #@! TO.N,+5V*
X6350000Y-20320000D02*
X6985000Y-20320000D01*
G04 #@! TO.N,scl*
X6350000Y-17780000D02*
X6985000Y-17780000D01*
X6350000Y-17780000D02*
X8255000Y-19685000D01*
X55721645Y-33020000D02*
X55245000Y-33496645D01*
X57150000Y-33020000D02*
X55721645Y-33020000D01*
X55245000Y-33496645D02*
X55245000Y-56515000D01*
X7380000Y-63754000D02*
X8255000Y-63754000D01*
X6567500Y-63754000D02*
X7380000Y-63754000D01*
X8255000Y-63754000D02*
X8255000Y-66675000D01*
X8255000Y-41275000D02*
X8255000Y-19685000D01*
X8255000Y-112395000D02*
X8890000Y-113030000D01*
X55245000Y-112268000D02*
X54483000Y-113030000D01*
X8890000Y-113030000D02*
X54483000Y-113030000D01*
X57150000Y-109220000D02*
X55245000Y-109220000D01*
X55245000Y-107315000D02*
X55245000Y-109220000D01*
X55245000Y-109220000D02*
X55245000Y-112268000D01*
X55721645Y-83820000D02*
X55245000Y-83820000D01*
X57150000Y-83820000D02*
X55721645Y-83820000D01*
X55245000Y-81915000D02*
X55245000Y-83820000D01*
X55245000Y-83820000D02*
X55245000Y-107315000D01*
X57150000Y-58420000D02*
X55245000Y-58420000D01*
X55245000Y-56515000D02*
X55245000Y-58420000D01*
X55245000Y-58420000D02*
X55245000Y-81915000D01*
X7778355Y-93980000D02*
X8255000Y-93980000D01*
X6350000Y-93980000D02*
X7778355Y-93980000D01*
X8255000Y-92075000D02*
X8255000Y-93980000D01*
X8255000Y-93980000D02*
X8255000Y-112395000D01*
X6350000Y-68580000D02*
X8255000Y-68580000D01*
X8255000Y-66675000D02*
X8255000Y-68580000D01*
X8255000Y-68580000D02*
X8255000Y-92075000D01*
X6350000Y-43180000D02*
X8255000Y-43180000D01*
X8255000Y-41275000D02*
X8255000Y-43180000D01*
X8255000Y-43180000D02*
X8255000Y-63754000D01*
G04 #@! TO.N,sda*
X2381645Y-17780000D02*
X1270000Y-18891645D01*
X3810000Y-17780000D02*
X2381645Y-17780000D01*
X3175000Y-113665000D02*
X59055000Y-113665000D01*
X1270000Y-111760000D02*
X3175000Y-113665000D01*
X62230000Y-34290000D02*
X60960000Y-33020000D01*
X60960000Y-33020000D02*
X59690000Y-33020000D01*
X1270000Y-18891645D02*
X1270000Y-37338000D01*
X1270000Y-37338000D02*
X1270000Y-40640000D01*
X60974000Y-64008000D02*
X62230000Y-64008000D01*
X60161500Y-64008000D02*
X60974000Y-64008000D01*
X62230000Y-64008000D02*
X62230000Y-59055000D01*
X59055000Y-113665000D02*
X61468000Y-113665000D01*
X61468000Y-113665000D02*
X62230000Y-112903000D01*
X62230000Y-107950000D02*
X62230000Y-107696000D01*
X62230000Y-107696000D02*
X62230000Y-86360000D01*
X61118355Y-109220000D02*
X62230000Y-109220000D01*
X59690000Y-109220000D02*
X61118355Y-109220000D01*
X62230000Y-112903000D02*
X62230000Y-109220000D01*
X62230000Y-109220000D02*
X62230000Y-107696000D01*
X61118355Y-83820000D02*
X62230000Y-83820000D01*
X59690000Y-83820000D02*
X61118355Y-83820000D01*
X62230000Y-86360000D02*
X62230000Y-83820000D01*
X62230000Y-83820000D02*
X62230000Y-64008000D01*
X61118355Y-58420000D02*
X62230000Y-58420000D01*
X59690000Y-58420000D02*
X61118355Y-58420000D01*
X62230000Y-59055000D02*
X62230000Y-58420000D01*
X62230000Y-58420000D02*
X62230000Y-34290000D01*
X2381645Y-93980000D02*
X1270000Y-93980000D01*
X3810000Y-93980000D02*
X2381645Y-93980000D01*
X1270000Y-91440000D02*
X1270000Y-93980000D01*
X1270000Y-93980000D02*
X1270000Y-111760000D01*
X3810000Y-68580000D02*
X1270000Y-68580000D01*
X1270000Y-66040000D02*
X1270000Y-68580000D01*
X1270000Y-68580000D02*
X1270000Y-91440000D01*
X2381645Y-43180000D02*
X1270000Y-43180000D01*
X3810000Y-43180000D02*
X2381645Y-43180000D01*
X1270000Y-40640000D02*
X1270000Y-43180000D01*
X1270000Y-43180000D02*
X1270000Y-66040000D01*
G04 #@! TO.N,header5Gpio1*
X26670000Y-100330000D02*
X30480000Y-100330000D01*
X16764000Y-90424000D02*
X26670000Y-100330000D01*
G04 #@! TO.N,header5Gpio2*
X26924000Y-102870000D02*
X30480000Y-102870000D01*
X16510000Y-92456000D02*
X26924000Y-102870000D01*
G04 #@! TO.N,header6Gpio2*
X60325000Y-15367000D02*
X61722000Y-16764000D01*
X61722000Y-16764000D02*
X61722000Y-18288000D01*
X35052000Y-46482000D02*
X48133000Y-46482000D01*
X61722000Y-18288000D02*
X59690000Y-20320000D01*
X33020000Y-44450000D02*
X35052000Y-46482000D01*
X48133000Y-46482000D02*
X51435000Y-43180000D01*
X51435000Y-43180000D02*
X51435000Y-19302590D01*
X51435000Y-19302590D02*
X55370590Y-15367000D01*
X55370590Y-15367000D02*
X60325000Y-15367000D01*
G04 #@! TO.N,header6Gpio3*
X33020000Y-49530000D02*
X35109990Y-47440010D01*
X35109990Y-47440010D02*
X48573401Y-47440009D01*
X48573401Y-47440009D02*
X52451000Y-43562410D01*
X52451000Y-43562410D02*
X52451000Y-19559410D01*
X54230410Y-17780000D02*
X57150000Y-17780000D01*
X52451000Y-19559410D02*
X54230410Y-17780000D01*
G04 #@! TO.N,header6Gpio1*
X48387000Y-46990000D02*
X33020000Y-46990000D01*
X51943000Y-43434000D02*
X48387000Y-46990000D01*
X51943000Y-19431000D02*
X51943000Y-43434000D01*
X55245000Y-16129000D02*
X51943000Y-19431000D01*
X59690000Y-17780000D02*
X58039000Y-16129000D01*
X58039000Y-16129000D02*
X55245000Y-16129000D01*
G04 #@! TD*
D22*
G04 #@! TO.N,Net-(C13-Pad1)*
G36*
X45339000Y-24638000D02*
X43466842Y-24638000D01*
X43988059Y-24618956D01*
X44481274Y-24414658D01*
X44581161Y-24146766D01*
X43601000Y-23166605D01*
X42620839Y-24146766D01*
X42720726Y-24414658D01*
X43321035Y-24638000D01*
X40259000Y-24638000D01*
X40210399Y-24647667D01*
X40169197Y-24675197D01*
X40141667Y-24716399D01*
X40132000Y-24765000D01*
X40132000Y-32258000D01*
X38862000Y-32258000D01*
X38862000Y-22720074D01*
X41945149Y-22720074D01*
X41969044Y-23374059D01*
X42173342Y-23867274D01*
X42441234Y-23967161D01*
X43421395Y-22987000D01*
X43780605Y-22987000D01*
X44760766Y-23967161D01*
X45028658Y-23867274D01*
X45256851Y-23253926D01*
X45232956Y-22599941D01*
X45028658Y-22106726D01*
X44760766Y-22006839D01*
X43780605Y-22987000D01*
X43421395Y-22987000D01*
X42441234Y-22006839D01*
X42173342Y-22106726D01*
X41945149Y-22720074D01*
X38862000Y-22720074D01*
X38862000Y-21827234D01*
X42620839Y-21827234D01*
X43601000Y-22807395D01*
X44581161Y-21827234D01*
X44481274Y-21559342D01*
X43867926Y-21331149D01*
X43213941Y-21355044D01*
X42720726Y-21559342D01*
X42620839Y-21827234D01*
X38862000Y-21827234D01*
X38862000Y-21209000D01*
X45339000Y-21209000D01*
X45339000Y-24638000D01*
X45339000Y-24638000D01*
G37*
X45339000Y-24638000D02*
X43466842Y-24638000D01*
X43988059Y-24618956D01*
X44481274Y-24414658D01*
X44581161Y-24146766D01*
X43601000Y-23166605D01*
X42620839Y-24146766D01*
X42720726Y-24414658D01*
X43321035Y-24638000D01*
X40259000Y-24638000D01*
X40210399Y-24647667D01*
X40169197Y-24675197D01*
X40141667Y-24716399D01*
X40132000Y-24765000D01*
X40132000Y-32258000D01*
X38862000Y-32258000D01*
X38862000Y-22720074D01*
X41945149Y-22720074D01*
X41969044Y-23374059D01*
X42173342Y-23867274D01*
X42441234Y-23967161D01*
X43421395Y-22987000D01*
X43780605Y-22987000D01*
X44760766Y-23967161D01*
X45028658Y-23867274D01*
X45256851Y-23253926D01*
X45232956Y-22599941D01*
X45028658Y-22106726D01*
X44760766Y-22006839D01*
X43780605Y-22987000D01*
X43421395Y-22987000D01*
X42441234Y-22006839D01*
X42173342Y-22106726D01*
X41945149Y-22720074D01*
X38862000Y-22720074D01*
X38862000Y-21827234D01*
X42620839Y-21827234D01*
X43601000Y-22807395D01*
X44581161Y-21827234D01*
X44481274Y-21559342D01*
X43867926Y-21331149D01*
X43213941Y-21355044D01*
X42720726Y-21559342D01*
X42620839Y-21827234D01*
X38862000Y-21827234D01*
X38862000Y-21209000D01*
X45339000Y-21209000D01*
X45339000Y-24638000D01*
G36*
X41543000Y-31808750D02*
X41701750Y-31967500D01*
X42926000Y-31967500D01*
X42926000Y-31947500D01*
X43180000Y-31947500D01*
X43180000Y-31967500D01*
X43200000Y-31967500D01*
X43200000Y-32221500D01*
X43180000Y-32221500D01*
X43180000Y-32241500D01*
X42926000Y-32241500D01*
X42926000Y-32221500D01*
X41701750Y-32221500D01*
X41543000Y-32380250D01*
X41543000Y-32639000D01*
X38862000Y-32639000D01*
X38862000Y-31623000D01*
X41543000Y-31623000D01*
X41543000Y-31808750D01*
X41543000Y-31808750D01*
G37*
X41543000Y-31808750D02*
X41701750Y-31967500D01*
X42926000Y-31967500D01*
X42926000Y-31947500D01*
X43180000Y-31947500D01*
X43180000Y-31967500D01*
X43200000Y-31967500D01*
X43200000Y-32221500D01*
X43180000Y-32221500D01*
X43180000Y-32241500D01*
X42926000Y-32241500D01*
X42926000Y-32221500D01*
X41701750Y-32221500D01*
X41543000Y-32380250D01*
X41543000Y-32639000D01*
X38862000Y-32639000D01*
X38862000Y-31623000D01*
X41543000Y-31623000D01*
X41543000Y-31808750D01*
G04 #@! TO.N,Net-(C3-Pad1)*
G36*
X31623000Y-24765000D02*
X26416000Y-24765000D01*
X26367399Y-24774667D01*
X26326197Y-24802197D01*
X26298667Y-24843399D01*
X26289000Y-24892000D01*
X26289000Y-32512000D01*
X25854461Y-32512000D01*
X25769431Y-32306720D01*
X25478280Y-32015569D01*
X25146000Y-31877934D01*
X25146000Y-24146766D01*
X28904839Y-24146766D01*
X29004726Y-24414658D01*
X29618074Y-24642851D01*
X30272059Y-24618956D01*
X30765274Y-24414658D01*
X30865161Y-24146766D01*
X29885000Y-23166605D01*
X28904839Y-24146766D01*
X25146000Y-24146766D01*
X25146000Y-22720074D01*
X28229149Y-22720074D01*
X28253044Y-23374059D01*
X28457342Y-23867274D01*
X28725234Y-23967161D01*
X29705395Y-22987000D01*
X30064605Y-22987000D01*
X31044766Y-23967161D01*
X31312658Y-23867274D01*
X31540851Y-23253926D01*
X31516956Y-22599941D01*
X31312658Y-22106726D01*
X31044766Y-22006839D01*
X30064605Y-22987000D01*
X29705395Y-22987000D01*
X28725234Y-22006839D01*
X28457342Y-22106726D01*
X28229149Y-22720074D01*
X25146000Y-22720074D01*
X25146000Y-21827234D01*
X28904839Y-21827234D01*
X29885000Y-22807395D01*
X30865161Y-21827234D01*
X30765274Y-21559342D01*
X30151926Y-21331149D01*
X29497941Y-21355044D01*
X29004726Y-21559342D01*
X28904839Y-21827234D01*
X25146000Y-21827234D01*
X25146000Y-21209000D01*
X31623000Y-21209000D01*
X31623000Y-24765000D01*
X31623000Y-24765000D01*
G37*
X31623000Y-24765000D02*
X26416000Y-24765000D01*
X26367399Y-24774667D01*
X26326197Y-24802197D01*
X26298667Y-24843399D01*
X26289000Y-24892000D01*
X26289000Y-32512000D01*
X25854461Y-32512000D01*
X25769431Y-32306720D01*
X25478280Y-32015569D01*
X25146000Y-31877934D01*
X25146000Y-24146766D01*
X28904839Y-24146766D01*
X29004726Y-24414658D01*
X29618074Y-24642851D01*
X30272059Y-24618956D01*
X30765274Y-24414658D01*
X30865161Y-24146766D01*
X29885000Y-23166605D01*
X28904839Y-24146766D01*
X25146000Y-24146766D01*
X25146000Y-22720074D01*
X28229149Y-22720074D01*
X28253044Y-23374059D01*
X28457342Y-23867274D01*
X28725234Y-23967161D01*
X29705395Y-22987000D01*
X30064605Y-22987000D01*
X31044766Y-23967161D01*
X31312658Y-23867274D01*
X31540851Y-23253926D01*
X31516956Y-22599941D01*
X31312658Y-22106726D01*
X31044766Y-22006839D01*
X30064605Y-22987000D01*
X29705395Y-22987000D01*
X28725234Y-22006839D01*
X28457342Y-22106726D01*
X28229149Y-22720074D01*
X25146000Y-22720074D01*
X25146000Y-21827234D01*
X28904839Y-21827234D01*
X29885000Y-22807395D01*
X30865161Y-21827234D01*
X30765274Y-21559342D01*
X30151926Y-21331149D01*
X29497941Y-21355044D01*
X29004726Y-21559342D01*
X28904839Y-21827234D01*
X25146000Y-21827234D01*
X25146000Y-21209000D01*
X31623000Y-21209000D01*
X31623000Y-24765000D01*
G36*
X28081000Y-31772250D02*
X28239750Y-31931000D01*
X29464000Y-31931000D01*
X29464000Y-32185000D01*
X28239750Y-32185000D01*
X28081000Y-32343750D01*
X28081000Y-32512000D01*
X25854461Y-32512000D01*
X25769431Y-32306720D01*
X25478280Y-32015569D01*
X25146000Y-31877934D01*
X25146000Y-31496000D01*
X28081000Y-31496000D01*
X28081000Y-31772250D01*
X28081000Y-31772250D01*
G37*
X28081000Y-31772250D02*
X28239750Y-31931000D01*
X29464000Y-31931000D01*
X29464000Y-32185000D01*
X28239750Y-32185000D01*
X28081000Y-32343750D01*
X28081000Y-32512000D01*
X25854461Y-32512000D01*
X25769431Y-32306720D01*
X25478280Y-32015569D01*
X25146000Y-31877934D01*
X25146000Y-31496000D01*
X28081000Y-31496000D01*
X28081000Y-31772250D01*
G04 #@! TO.N,Net-(C8-Pad1)*
G36*
X17907000Y-25019000D02*
X11938000Y-25019000D01*
X11889399Y-25028667D01*
X11848197Y-25056197D01*
X11820667Y-25097399D01*
X11811000Y-25146000D01*
X11811000Y-26349289D01*
X11568569Y-26591720D01*
X11411000Y-26972126D01*
X11411000Y-27383874D01*
X11568569Y-27764280D01*
X11807789Y-28003500D01*
X11568569Y-28242720D01*
X11411000Y-28623126D01*
X11411000Y-29034874D01*
X11568569Y-29415280D01*
X11744289Y-29591000D01*
X11568569Y-29766720D01*
X11411000Y-30147126D01*
X11411000Y-30558874D01*
X11568569Y-30939280D01*
X11811000Y-31181711D01*
X11811000Y-31496000D01*
X11820667Y-31544601D01*
X11848197Y-31585803D01*
X11889399Y-31613333D01*
X11938000Y-31623000D01*
X13095000Y-31623000D01*
X13095000Y-31772250D01*
X13253750Y-31931000D01*
X14478000Y-31931000D01*
X14478000Y-31911000D01*
X14732000Y-31911000D01*
X14732000Y-32205000D01*
X14478000Y-32205000D01*
X14478000Y-32185000D01*
X13253750Y-32185000D01*
X13095000Y-32343750D01*
X13095000Y-32512000D01*
X10795000Y-32512000D01*
X10795000Y-24400766D01*
X15061839Y-24400766D01*
X15161726Y-24668658D01*
X15775074Y-24896851D01*
X16429059Y-24872956D01*
X16922274Y-24668658D01*
X17022161Y-24400766D01*
X16042000Y-23420605D01*
X15061839Y-24400766D01*
X10795000Y-24400766D01*
X10795000Y-22974074D01*
X14386149Y-22974074D01*
X14410044Y-23628059D01*
X14614342Y-24121274D01*
X14882234Y-24221161D01*
X15862395Y-23241000D01*
X16221605Y-23241000D01*
X17201766Y-24221161D01*
X17469658Y-24121274D01*
X17697851Y-23507926D01*
X17673956Y-22853941D01*
X17469658Y-22360726D01*
X17201766Y-22260839D01*
X16221605Y-23241000D01*
X15862395Y-23241000D01*
X14882234Y-22260839D01*
X14614342Y-22360726D01*
X14386149Y-22974074D01*
X10795000Y-22974074D01*
X10795000Y-22081234D01*
X15061839Y-22081234D01*
X16042000Y-23061395D01*
X17022161Y-22081234D01*
X16922274Y-21813342D01*
X16308926Y-21585149D01*
X15654941Y-21609044D01*
X15161726Y-21813342D01*
X15061839Y-22081234D01*
X10795000Y-22081234D01*
X10795000Y-21463000D01*
X17907000Y-21463000D01*
X17907000Y-25019000D01*
X17907000Y-25019000D01*
G37*
X17907000Y-25019000D02*
X11938000Y-25019000D01*
X11889399Y-25028667D01*
X11848197Y-25056197D01*
X11820667Y-25097399D01*
X11811000Y-25146000D01*
X11811000Y-26349289D01*
X11568569Y-26591720D01*
X11411000Y-26972126D01*
X11411000Y-27383874D01*
X11568569Y-27764280D01*
X11807789Y-28003500D01*
X11568569Y-28242720D01*
X11411000Y-28623126D01*
X11411000Y-29034874D01*
X11568569Y-29415280D01*
X11744289Y-29591000D01*
X11568569Y-29766720D01*
X11411000Y-30147126D01*
X11411000Y-30558874D01*
X11568569Y-30939280D01*
X11811000Y-31181711D01*
X11811000Y-31496000D01*
X11820667Y-31544601D01*
X11848197Y-31585803D01*
X11889399Y-31613333D01*
X11938000Y-31623000D01*
X13095000Y-31623000D01*
X13095000Y-31772250D01*
X13253750Y-31931000D01*
X14478000Y-31931000D01*
X14478000Y-31911000D01*
X14732000Y-31911000D01*
X14732000Y-32205000D01*
X14478000Y-32205000D01*
X14478000Y-32185000D01*
X13253750Y-32185000D01*
X13095000Y-32343750D01*
X13095000Y-32512000D01*
X10795000Y-32512000D01*
X10795000Y-24400766D01*
X15061839Y-24400766D01*
X15161726Y-24668658D01*
X15775074Y-24896851D01*
X16429059Y-24872956D01*
X16922274Y-24668658D01*
X17022161Y-24400766D01*
X16042000Y-23420605D01*
X15061839Y-24400766D01*
X10795000Y-24400766D01*
X10795000Y-22974074D01*
X14386149Y-22974074D01*
X14410044Y-23628059D01*
X14614342Y-24121274D01*
X14882234Y-24221161D01*
X15862395Y-23241000D01*
X16221605Y-23241000D01*
X17201766Y-24221161D01*
X17469658Y-24121274D01*
X17697851Y-23507926D01*
X17673956Y-22853941D01*
X17469658Y-22360726D01*
X17201766Y-22260839D01*
X16221605Y-23241000D01*
X15862395Y-23241000D01*
X14882234Y-22260839D01*
X14614342Y-22360726D01*
X14386149Y-22974074D01*
X10795000Y-22974074D01*
X10795000Y-22081234D01*
X15061839Y-22081234D01*
X16042000Y-23061395D01*
X17022161Y-22081234D01*
X16922274Y-21813342D01*
X16308926Y-21585149D01*
X15654941Y-21609044D01*
X15161726Y-21813342D01*
X15061839Y-22081234D01*
X10795000Y-22081234D01*
X10795000Y-21463000D01*
X17907000Y-21463000D01*
X17907000Y-25019000D01*
G04 #@! TD*
M02*
